G04 #@! TF.GenerationSoftware,KiCad,Pcbnew,(5.1.5)-3*
G04 #@! TF.CreationDate,2020-07-01T18:11:23-05:00*
G04 #@! TF.ProjectId,LightDriverShieldVer2,4c696768-7444-4726-9976-657253686965,rev?*
G04 #@! TF.SameCoordinates,Original*
G04 #@! TF.FileFunction,Copper,L3,Inr*
G04 #@! TF.FilePolarity,Positive*
%FSLAX46Y46*%
G04 Gerber Fmt 4.6, Leading zero omitted, Abs format (unit mm)*
G04 Created by KiCad (PCBNEW (5.1.5)-3) date 2020-07-01 18:11:23*
%MOMM*%
%LPD*%
G04 APERTURE LIST*
%ADD10O,1.700000X1.700000*%
%ADD11R,1.700000X1.700000*%
%ADD12C,1.524000*%
%ADD13R,1.524000X1.524000*%
%ADD14O,1.600000X1.600000*%
%ADD15R,1.600000X1.600000*%
%ADD16C,2.100000*%
%ADD17R,2.100000X2.100000*%
%ADD18C,0.800000*%
%ADD19C,0.500000*%
%ADD20C,0.254000*%
G04 APERTURE END LIST*
D10*
X117500000Y-92000000D03*
D11*
X114960000Y-92000000D03*
D12*
X122540000Y-133120000D03*
X120000000Y-133120000D03*
X122540000Y-130580000D03*
X120000000Y-130580000D03*
X122540000Y-128040000D03*
X120000000Y-128040000D03*
X122540000Y-125500000D03*
D13*
X120000000Y-125500000D03*
D14*
X102700000Y-123380000D03*
X115400000Y-131000000D03*
X105240000Y-123380000D03*
X112860000Y-131000000D03*
X107780000Y-123380000D03*
X110320000Y-131000000D03*
X110320000Y-123380000D03*
X107780000Y-131000000D03*
X112860000Y-123380000D03*
X105240000Y-131000000D03*
X115400000Y-123380000D03*
D15*
X102700000Y-131000000D03*
D16*
X109670000Y-136200000D03*
X107130000Y-136200000D03*
X104590000Y-136200000D03*
D17*
X102050000Y-136200000D03*
D10*
X117620000Y-120000000D03*
X115080000Y-120000000D03*
X112540000Y-120000000D03*
X110000000Y-120000000D03*
X107460000Y-120000000D03*
D11*
X104920000Y-120000000D03*
D10*
X122500000Y-120000000D03*
X122500000Y-117460000D03*
X122500000Y-114920000D03*
X122500000Y-112380000D03*
X122500000Y-109840000D03*
X122500000Y-107300000D03*
X122500000Y-104760000D03*
X122500000Y-102220000D03*
X122500000Y-99680000D03*
X122500000Y-97140000D03*
X122500000Y-94600000D03*
D11*
X122500000Y-92060000D03*
D10*
X100000000Y-119940000D03*
X100000000Y-117400000D03*
X100000000Y-114860000D03*
X100000000Y-112320000D03*
X100000000Y-109780000D03*
X100000000Y-107240000D03*
X100000000Y-104700000D03*
X100000000Y-102160000D03*
X100000000Y-99620000D03*
X100000000Y-97080000D03*
X100000000Y-94540000D03*
D11*
X100000000Y-92000000D03*
D18*
X111250000Y-112500000D03*
X111250000Y-115500000D03*
X106750000Y-112500000D03*
X106750000Y-115500000D03*
X115750000Y-115500000D03*
X115750000Y-112500000D03*
X118000000Y-99500000D03*
X118000002Y-102000000D03*
X114000000Y-115050000D03*
X114000000Y-112900000D03*
X114000000Y-114000000D03*
X109500000Y-113000000D03*
X109500000Y-115100000D03*
X109500000Y-114050000D03*
X105000000Y-115100000D03*
X105000000Y-113000000D03*
X105000000Y-114050000D03*
X103650000Y-95700000D03*
X110850000Y-104615000D03*
X115250000Y-104615000D03*
X106450000Y-104450000D03*
X104849996Y-95500000D03*
D19*
X118180000Y-99680000D02*
X118000000Y-99500000D01*
X122500000Y-99680000D02*
X118180000Y-99680000D01*
X118220002Y-102220000D02*
X118000002Y-102000000D01*
X122500000Y-102220000D02*
X118220002Y-102220000D01*
D20*
G36*
X113471928Y-92850000D02*
G01*
X113484188Y-92974482D01*
X113520498Y-93094180D01*
X113579463Y-93204494D01*
X113658815Y-93301185D01*
X113755506Y-93380537D01*
X113865820Y-93439502D01*
X113985518Y-93475812D01*
X114110000Y-93488072D01*
X115810000Y-93488072D01*
X115934482Y-93475812D01*
X116054180Y-93439502D01*
X116164494Y-93380537D01*
X116261185Y-93301185D01*
X116340537Y-93204494D01*
X116399502Y-93094180D01*
X116423966Y-93013534D01*
X116499731Y-93097588D01*
X116733080Y-93271641D01*
X116995901Y-93396825D01*
X117143110Y-93441476D01*
X117373000Y-93320155D01*
X117373000Y-92127000D01*
X117627000Y-92127000D01*
X117627000Y-93320155D01*
X117856890Y-93441476D01*
X118004099Y-93396825D01*
X118266920Y-93271641D01*
X118500269Y-93097588D01*
X118695178Y-92881355D01*
X118844157Y-92631252D01*
X118941481Y-92356891D01*
X118820814Y-92127000D01*
X117627000Y-92127000D01*
X117373000Y-92127000D01*
X117353000Y-92127000D01*
X117353000Y-91873000D01*
X117373000Y-91873000D01*
X117373000Y-91853000D01*
X117627000Y-91853000D01*
X117627000Y-91873000D01*
X118820814Y-91873000D01*
X118941481Y-91643109D01*
X118844157Y-91368748D01*
X118719812Y-91160000D01*
X121016852Y-91160000D01*
X121011928Y-91210000D01*
X121011928Y-92910000D01*
X121024188Y-93034482D01*
X121060498Y-93154180D01*
X121119463Y-93264494D01*
X121198815Y-93361185D01*
X121295506Y-93440537D01*
X121405820Y-93499502D01*
X121478380Y-93521513D01*
X121346525Y-93653368D01*
X121184010Y-93896589D01*
X121072068Y-94166842D01*
X121015000Y-94453740D01*
X121015000Y-94746260D01*
X121072068Y-95033158D01*
X121184010Y-95303411D01*
X121346525Y-95546632D01*
X121553368Y-95753475D01*
X121727760Y-95870000D01*
X121553368Y-95986525D01*
X121346525Y-96193368D01*
X121184010Y-96436589D01*
X121072068Y-96706842D01*
X121015000Y-96993740D01*
X121015000Y-97286260D01*
X121072068Y-97573158D01*
X121184010Y-97843411D01*
X121346525Y-98086632D01*
X121553368Y-98293475D01*
X121727760Y-98410000D01*
X121553368Y-98526525D01*
X121346525Y-98733368D01*
X121305344Y-98795000D01*
X118758711Y-98795000D01*
X118659774Y-98696063D01*
X118490256Y-98582795D01*
X118301898Y-98504774D01*
X118101939Y-98465000D01*
X117898061Y-98465000D01*
X117698102Y-98504774D01*
X117509744Y-98582795D01*
X117340226Y-98696063D01*
X117196063Y-98840226D01*
X117082795Y-99009744D01*
X117004774Y-99198102D01*
X116965000Y-99398061D01*
X116965000Y-99601939D01*
X117004774Y-99801898D01*
X117082795Y-99990256D01*
X117196063Y-100159774D01*
X117340226Y-100303937D01*
X117509744Y-100417205D01*
X117698102Y-100495226D01*
X117898061Y-100535000D01*
X117949827Y-100535000D01*
X118006510Y-100552195D01*
X118136523Y-100565000D01*
X118136533Y-100565000D01*
X118179999Y-100569281D01*
X118223465Y-100565000D01*
X121305344Y-100565000D01*
X121346525Y-100626632D01*
X121553368Y-100833475D01*
X121727760Y-100950000D01*
X121553368Y-101066525D01*
X121346525Y-101273368D01*
X121305344Y-101335000D01*
X118798713Y-101335000D01*
X118659776Y-101196063D01*
X118490258Y-101082795D01*
X118301900Y-101004774D01*
X118101941Y-100965000D01*
X117898063Y-100965000D01*
X117698104Y-101004774D01*
X117509746Y-101082795D01*
X117340228Y-101196063D01*
X117196065Y-101340226D01*
X117082797Y-101509744D01*
X117004776Y-101698102D01*
X116965002Y-101898061D01*
X116965002Y-102101939D01*
X117004776Y-102301898D01*
X117082797Y-102490256D01*
X117196065Y-102659774D01*
X117340228Y-102803937D01*
X117509746Y-102917205D01*
X117698104Y-102995226D01*
X117849165Y-103025274D01*
X117879689Y-103041589D01*
X118007684Y-103080416D01*
X118046511Y-103092195D01*
X118061308Y-103093652D01*
X118176525Y-103105000D01*
X118176533Y-103105000D01*
X118220002Y-103109281D01*
X118263471Y-103105000D01*
X121305344Y-103105000D01*
X121346525Y-103166632D01*
X121553368Y-103373475D01*
X121727760Y-103490000D01*
X121553368Y-103606525D01*
X121346525Y-103813368D01*
X121184010Y-104056589D01*
X121072068Y-104326842D01*
X121015000Y-104613740D01*
X121015000Y-104906260D01*
X121072068Y-105193158D01*
X121184010Y-105463411D01*
X121346525Y-105706632D01*
X121553368Y-105913475D01*
X121727760Y-106030000D01*
X121553368Y-106146525D01*
X121346525Y-106353368D01*
X121184010Y-106596589D01*
X121072068Y-106866842D01*
X121015000Y-107153740D01*
X121015000Y-107446260D01*
X121072068Y-107733158D01*
X121184010Y-108003411D01*
X121346525Y-108246632D01*
X121553368Y-108453475D01*
X121727760Y-108570000D01*
X121553368Y-108686525D01*
X121346525Y-108893368D01*
X121184010Y-109136589D01*
X121072068Y-109406842D01*
X121015000Y-109693740D01*
X121015000Y-109986260D01*
X121072068Y-110273158D01*
X121184010Y-110543411D01*
X121346525Y-110786632D01*
X121553368Y-110993475D01*
X121727760Y-111110000D01*
X121553368Y-111226525D01*
X121346525Y-111433368D01*
X121184010Y-111676589D01*
X121072068Y-111946842D01*
X121015000Y-112233740D01*
X121015000Y-112526260D01*
X121072068Y-112813158D01*
X121184010Y-113083411D01*
X121346525Y-113326632D01*
X121553368Y-113533475D01*
X121727760Y-113650000D01*
X121553368Y-113766525D01*
X121346525Y-113973368D01*
X121184010Y-114216589D01*
X121072068Y-114486842D01*
X121015000Y-114773740D01*
X121015000Y-115066260D01*
X121072068Y-115353158D01*
X121184010Y-115623411D01*
X121346525Y-115866632D01*
X121553368Y-116073475D01*
X121727760Y-116190000D01*
X121553368Y-116306525D01*
X121346525Y-116513368D01*
X121184010Y-116756589D01*
X121072068Y-117026842D01*
X121015000Y-117313740D01*
X121015000Y-117606260D01*
X121072068Y-117893158D01*
X121184010Y-118163411D01*
X121346525Y-118406632D01*
X121553368Y-118613475D01*
X121727760Y-118730000D01*
X121553368Y-118846525D01*
X121346525Y-119053368D01*
X121184010Y-119296589D01*
X121072068Y-119566842D01*
X121015000Y-119853740D01*
X121015000Y-120146260D01*
X121072068Y-120433158D01*
X121184010Y-120703411D01*
X121346525Y-120946632D01*
X121553368Y-121153475D01*
X121796589Y-121315990D01*
X122066842Y-121427932D01*
X122353740Y-121485000D01*
X122646260Y-121485000D01*
X122933158Y-121427932D01*
X123203411Y-121315990D01*
X123340001Y-121224724D01*
X123340001Y-124354387D01*
X123201727Y-124261995D01*
X122947490Y-124156686D01*
X122677592Y-124103000D01*
X122402408Y-124103000D01*
X122132510Y-124156686D01*
X121878273Y-124261995D01*
X121649465Y-124414880D01*
X121454880Y-124609465D01*
X121396080Y-124697465D01*
X121387812Y-124613518D01*
X121351502Y-124493820D01*
X121292537Y-124383506D01*
X121213185Y-124286815D01*
X121116494Y-124207463D01*
X121006180Y-124148498D01*
X120886482Y-124112188D01*
X120762000Y-124099928D01*
X120285750Y-124103000D01*
X120127000Y-124261750D01*
X120127000Y-125373000D01*
X120147000Y-125373000D01*
X120147000Y-125627000D01*
X120127000Y-125627000D01*
X120127000Y-125647000D01*
X119873000Y-125647000D01*
X119873000Y-125627000D01*
X118761750Y-125627000D01*
X118603000Y-125785750D01*
X118599928Y-126262000D01*
X118612188Y-126386482D01*
X118648498Y-126506180D01*
X118707463Y-126616494D01*
X118786815Y-126713185D01*
X118883506Y-126792537D01*
X118993820Y-126851502D01*
X119113518Y-126887812D01*
X119197465Y-126896080D01*
X119109465Y-126954880D01*
X118914880Y-127149465D01*
X118761995Y-127378273D01*
X118656686Y-127632510D01*
X118603000Y-127902408D01*
X118603000Y-128177592D01*
X118656686Y-128447490D01*
X118761995Y-128701727D01*
X118914880Y-128930535D01*
X119109465Y-129125120D01*
X119338273Y-129278005D01*
X119415515Y-129310000D01*
X119338273Y-129341995D01*
X119109465Y-129494880D01*
X118914880Y-129689465D01*
X118761995Y-129918273D01*
X118656686Y-130172510D01*
X118603000Y-130442408D01*
X118603000Y-130717592D01*
X118656686Y-130987490D01*
X118761995Y-131241727D01*
X118914880Y-131470535D01*
X119109465Y-131665120D01*
X119338273Y-131818005D01*
X119415515Y-131850000D01*
X119338273Y-131881995D01*
X119109465Y-132034880D01*
X118914880Y-132229465D01*
X118761995Y-132458273D01*
X118656686Y-132712510D01*
X118603000Y-132982408D01*
X118603000Y-133257592D01*
X118656686Y-133527490D01*
X118761995Y-133781727D01*
X118914880Y-134010535D01*
X119109465Y-134205120D01*
X119338273Y-134358005D01*
X119592510Y-134463314D01*
X119862408Y-134517000D01*
X120137592Y-134517000D01*
X120407490Y-134463314D01*
X120661727Y-134358005D01*
X120890535Y-134205120D01*
X121085120Y-134010535D01*
X121238005Y-133781727D01*
X121270000Y-133704485D01*
X121301995Y-133781727D01*
X121454880Y-134010535D01*
X121649465Y-134205120D01*
X121878273Y-134358005D01*
X122132510Y-134463314D01*
X122402408Y-134517000D01*
X122677592Y-134517000D01*
X122947490Y-134463314D01*
X123201727Y-134358005D01*
X123340001Y-134265613D01*
X123340001Y-139340000D01*
X99160000Y-139340000D01*
X99160000Y-135150000D01*
X100361928Y-135150000D01*
X100361928Y-137250000D01*
X100374188Y-137374482D01*
X100410498Y-137494180D01*
X100469463Y-137604494D01*
X100548815Y-137701185D01*
X100645506Y-137780537D01*
X100755820Y-137839502D01*
X100875518Y-137875812D01*
X101000000Y-137888072D01*
X103100000Y-137888072D01*
X103224482Y-137875812D01*
X103344180Y-137839502D01*
X103454494Y-137780537D01*
X103551185Y-137701185D01*
X103630537Y-137604494D01*
X103638042Y-137590454D01*
X103791853Y-137693228D01*
X104098504Y-137820246D01*
X104424042Y-137885000D01*
X104755958Y-137885000D01*
X105081496Y-137820246D01*
X105388147Y-137693228D01*
X105664125Y-137508825D01*
X105860000Y-137312950D01*
X106055875Y-137508825D01*
X106331853Y-137693228D01*
X106638504Y-137820246D01*
X106964042Y-137885000D01*
X107295958Y-137885000D01*
X107621496Y-137820246D01*
X107928147Y-137693228D01*
X108204125Y-137508825D01*
X108400000Y-137312950D01*
X108595875Y-137508825D01*
X108871853Y-137693228D01*
X109178504Y-137820246D01*
X109504042Y-137885000D01*
X109835958Y-137885000D01*
X110161496Y-137820246D01*
X110468147Y-137693228D01*
X110744125Y-137508825D01*
X110978825Y-137274125D01*
X111163228Y-136998147D01*
X111290246Y-136691496D01*
X111355000Y-136365958D01*
X111355000Y-136034042D01*
X111290246Y-135708504D01*
X111163228Y-135401853D01*
X110978825Y-135125875D01*
X110744125Y-134891175D01*
X110468147Y-134706772D01*
X110161496Y-134579754D01*
X109835958Y-134515000D01*
X109504042Y-134515000D01*
X109178504Y-134579754D01*
X108871853Y-134706772D01*
X108595875Y-134891175D01*
X108400000Y-135087050D01*
X108204125Y-134891175D01*
X107928147Y-134706772D01*
X107621496Y-134579754D01*
X107295958Y-134515000D01*
X106964042Y-134515000D01*
X106638504Y-134579754D01*
X106331853Y-134706772D01*
X106055875Y-134891175D01*
X105860000Y-135087050D01*
X105664125Y-134891175D01*
X105388147Y-134706772D01*
X105081496Y-134579754D01*
X104755958Y-134515000D01*
X104424042Y-134515000D01*
X104098504Y-134579754D01*
X103791853Y-134706772D01*
X103638042Y-134809546D01*
X103630537Y-134795506D01*
X103551185Y-134698815D01*
X103454494Y-134619463D01*
X103344180Y-134560498D01*
X103224482Y-134524188D01*
X103100000Y-134511928D01*
X101000000Y-134511928D01*
X100875518Y-134524188D01*
X100755820Y-134560498D01*
X100645506Y-134619463D01*
X100548815Y-134698815D01*
X100469463Y-134795506D01*
X100410498Y-134905820D01*
X100374188Y-135025518D01*
X100361928Y-135150000D01*
X99160000Y-135150000D01*
X99160000Y-130200000D01*
X101261928Y-130200000D01*
X101261928Y-131800000D01*
X101274188Y-131924482D01*
X101310498Y-132044180D01*
X101369463Y-132154494D01*
X101448815Y-132251185D01*
X101545506Y-132330537D01*
X101655820Y-132389502D01*
X101775518Y-132425812D01*
X101900000Y-132438072D01*
X103500000Y-132438072D01*
X103624482Y-132425812D01*
X103744180Y-132389502D01*
X103854494Y-132330537D01*
X103951185Y-132251185D01*
X104030537Y-132154494D01*
X104089502Y-132044180D01*
X104125812Y-131924482D01*
X104126643Y-131916039D01*
X104325241Y-132114637D01*
X104560273Y-132271680D01*
X104821426Y-132379853D01*
X105098665Y-132435000D01*
X105381335Y-132435000D01*
X105658574Y-132379853D01*
X105919727Y-132271680D01*
X106154759Y-132114637D01*
X106354637Y-131914759D01*
X106510000Y-131682241D01*
X106665363Y-131914759D01*
X106865241Y-132114637D01*
X107100273Y-132271680D01*
X107361426Y-132379853D01*
X107638665Y-132435000D01*
X107921335Y-132435000D01*
X108198574Y-132379853D01*
X108459727Y-132271680D01*
X108694759Y-132114637D01*
X108894637Y-131914759D01*
X109050000Y-131682241D01*
X109205363Y-131914759D01*
X109405241Y-132114637D01*
X109640273Y-132271680D01*
X109901426Y-132379853D01*
X110178665Y-132435000D01*
X110461335Y-132435000D01*
X110738574Y-132379853D01*
X110999727Y-132271680D01*
X111234759Y-132114637D01*
X111434637Y-131914759D01*
X111590000Y-131682241D01*
X111745363Y-131914759D01*
X111945241Y-132114637D01*
X112180273Y-132271680D01*
X112441426Y-132379853D01*
X112718665Y-132435000D01*
X113001335Y-132435000D01*
X113278574Y-132379853D01*
X113539727Y-132271680D01*
X113774759Y-132114637D01*
X113974637Y-131914759D01*
X114130000Y-131682241D01*
X114285363Y-131914759D01*
X114485241Y-132114637D01*
X114720273Y-132271680D01*
X114981426Y-132379853D01*
X115258665Y-132435000D01*
X115541335Y-132435000D01*
X115818574Y-132379853D01*
X116079727Y-132271680D01*
X116314759Y-132114637D01*
X116514637Y-131914759D01*
X116671680Y-131679727D01*
X116779853Y-131418574D01*
X116835000Y-131141335D01*
X116835000Y-130858665D01*
X116779853Y-130581426D01*
X116671680Y-130320273D01*
X116514637Y-130085241D01*
X116314759Y-129885363D01*
X116079727Y-129728320D01*
X115818574Y-129620147D01*
X115541335Y-129565000D01*
X115258665Y-129565000D01*
X114981426Y-129620147D01*
X114720273Y-129728320D01*
X114485241Y-129885363D01*
X114285363Y-130085241D01*
X114130000Y-130317759D01*
X113974637Y-130085241D01*
X113774759Y-129885363D01*
X113539727Y-129728320D01*
X113278574Y-129620147D01*
X113001335Y-129565000D01*
X112718665Y-129565000D01*
X112441426Y-129620147D01*
X112180273Y-129728320D01*
X111945241Y-129885363D01*
X111745363Y-130085241D01*
X111590000Y-130317759D01*
X111434637Y-130085241D01*
X111234759Y-129885363D01*
X110999727Y-129728320D01*
X110738574Y-129620147D01*
X110461335Y-129565000D01*
X110178665Y-129565000D01*
X109901426Y-129620147D01*
X109640273Y-129728320D01*
X109405241Y-129885363D01*
X109205363Y-130085241D01*
X109050000Y-130317759D01*
X108894637Y-130085241D01*
X108694759Y-129885363D01*
X108459727Y-129728320D01*
X108198574Y-129620147D01*
X107921335Y-129565000D01*
X107638665Y-129565000D01*
X107361426Y-129620147D01*
X107100273Y-129728320D01*
X106865241Y-129885363D01*
X106665363Y-130085241D01*
X106510000Y-130317759D01*
X106354637Y-130085241D01*
X106154759Y-129885363D01*
X105919727Y-129728320D01*
X105658574Y-129620147D01*
X105381335Y-129565000D01*
X105098665Y-129565000D01*
X104821426Y-129620147D01*
X104560273Y-129728320D01*
X104325241Y-129885363D01*
X104126643Y-130083961D01*
X104125812Y-130075518D01*
X104089502Y-129955820D01*
X104030537Y-129845506D01*
X103951185Y-129748815D01*
X103854494Y-129669463D01*
X103744180Y-129610498D01*
X103624482Y-129574188D01*
X103500000Y-129561928D01*
X101900000Y-129561928D01*
X101775518Y-129574188D01*
X101655820Y-129610498D01*
X101545506Y-129669463D01*
X101448815Y-129748815D01*
X101369463Y-129845506D01*
X101310498Y-129955820D01*
X101274188Y-130075518D01*
X101261928Y-130200000D01*
X99160000Y-130200000D01*
X99160000Y-123238665D01*
X101265000Y-123238665D01*
X101265000Y-123521335D01*
X101320147Y-123798574D01*
X101428320Y-124059727D01*
X101585363Y-124294759D01*
X101785241Y-124494637D01*
X102020273Y-124651680D01*
X102281426Y-124759853D01*
X102558665Y-124815000D01*
X102841335Y-124815000D01*
X103118574Y-124759853D01*
X103379727Y-124651680D01*
X103614759Y-124494637D01*
X103814637Y-124294759D01*
X103970000Y-124062241D01*
X104125363Y-124294759D01*
X104325241Y-124494637D01*
X104560273Y-124651680D01*
X104821426Y-124759853D01*
X105098665Y-124815000D01*
X105381335Y-124815000D01*
X105658574Y-124759853D01*
X105919727Y-124651680D01*
X106154759Y-124494637D01*
X106354637Y-124294759D01*
X106510000Y-124062241D01*
X106665363Y-124294759D01*
X106865241Y-124494637D01*
X107100273Y-124651680D01*
X107361426Y-124759853D01*
X107638665Y-124815000D01*
X107921335Y-124815000D01*
X108198574Y-124759853D01*
X108459727Y-124651680D01*
X108694759Y-124494637D01*
X108894637Y-124294759D01*
X109050000Y-124062241D01*
X109205363Y-124294759D01*
X109405241Y-124494637D01*
X109640273Y-124651680D01*
X109901426Y-124759853D01*
X110178665Y-124815000D01*
X110461335Y-124815000D01*
X110738574Y-124759853D01*
X110999727Y-124651680D01*
X111234759Y-124494637D01*
X111434637Y-124294759D01*
X111590000Y-124062241D01*
X111745363Y-124294759D01*
X111945241Y-124494637D01*
X112180273Y-124651680D01*
X112441426Y-124759853D01*
X112718665Y-124815000D01*
X113001335Y-124815000D01*
X113278574Y-124759853D01*
X113539727Y-124651680D01*
X113774759Y-124494637D01*
X113974637Y-124294759D01*
X114130000Y-124062241D01*
X114285363Y-124294759D01*
X114485241Y-124494637D01*
X114720273Y-124651680D01*
X114981426Y-124759853D01*
X115258665Y-124815000D01*
X115541335Y-124815000D01*
X115818574Y-124759853D01*
X115871331Y-124738000D01*
X118599928Y-124738000D01*
X118603000Y-125214250D01*
X118761750Y-125373000D01*
X119873000Y-125373000D01*
X119873000Y-124261750D01*
X119714250Y-124103000D01*
X119238000Y-124099928D01*
X119113518Y-124112188D01*
X118993820Y-124148498D01*
X118883506Y-124207463D01*
X118786815Y-124286815D01*
X118707463Y-124383506D01*
X118648498Y-124493820D01*
X118612188Y-124613518D01*
X118599928Y-124738000D01*
X115871331Y-124738000D01*
X116079727Y-124651680D01*
X116314759Y-124494637D01*
X116514637Y-124294759D01*
X116671680Y-124059727D01*
X116779853Y-123798574D01*
X116835000Y-123521335D01*
X116835000Y-123238665D01*
X116779853Y-122961426D01*
X116671680Y-122700273D01*
X116514637Y-122465241D01*
X116314759Y-122265363D01*
X116079727Y-122108320D01*
X115818574Y-122000147D01*
X115541335Y-121945000D01*
X115258665Y-121945000D01*
X114981426Y-122000147D01*
X114720273Y-122108320D01*
X114485241Y-122265363D01*
X114285363Y-122465241D01*
X114130000Y-122697759D01*
X113974637Y-122465241D01*
X113774759Y-122265363D01*
X113539727Y-122108320D01*
X113278574Y-122000147D01*
X113001335Y-121945000D01*
X112718665Y-121945000D01*
X112441426Y-122000147D01*
X112180273Y-122108320D01*
X111945241Y-122265363D01*
X111745363Y-122465241D01*
X111590000Y-122697759D01*
X111434637Y-122465241D01*
X111234759Y-122265363D01*
X110999727Y-122108320D01*
X110738574Y-122000147D01*
X110461335Y-121945000D01*
X110178665Y-121945000D01*
X109901426Y-122000147D01*
X109640273Y-122108320D01*
X109405241Y-122265363D01*
X109205363Y-122465241D01*
X109050000Y-122697759D01*
X108894637Y-122465241D01*
X108694759Y-122265363D01*
X108459727Y-122108320D01*
X108198574Y-122000147D01*
X107921335Y-121945000D01*
X107638665Y-121945000D01*
X107361426Y-122000147D01*
X107100273Y-122108320D01*
X106865241Y-122265363D01*
X106665363Y-122465241D01*
X106510000Y-122697759D01*
X106354637Y-122465241D01*
X106154759Y-122265363D01*
X105919727Y-122108320D01*
X105658574Y-122000147D01*
X105381335Y-121945000D01*
X105098665Y-121945000D01*
X104821426Y-122000147D01*
X104560273Y-122108320D01*
X104325241Y-122265363D01*
X104125363Y-122465241D01*
X103970000Y-122697759D01*
X103814637Y-122465241D01*
X103614759Y-122265363D01*
X103379727Y-122108320D01*
X103118574Y-122000147D01*
X102841335Y-121945000D01*
X102558665Y-121945000D01*
X102281426Y-122000147D01*
X102020273Y-122108320D01*
X101785241Y-122265363D01*
X101585363Y-122465241D01*
X101428320Y-122700273D01*
X101320147Y-122961426D01*
X101265000Y-123238665D01*
X99160000Y-123238665D01*
X99160000Y-121164724D01*
X99296589Y-121255990D01*
X99566842Y-121367932D01*
X99853740Y-121425000D01*
X100146260Y-121425000D01*
X100433158Y-121367932D01*
X100703411Y-121255990D01*
X100946632Y-121093475D01*
X101153475Y-120886632D01*
X101315990Y-120643411D01*
X101427932Y-120373158D01*
X101485000Y-120086260D01*
X101485000Y-119793740D01*
X101427932Y-119506842D01*
X101315990Y-119236589D01*
X101258134Y-119150000D01*
X103431928Y-119150000D01*
X103431928Y-120850000D01*
X103444188Y-120974482D01*
X103480498Y-121094180D01*
X103539463Y-121204494D01*
X103618815Y-121301185D01*
X103715506Y-121380537D01*
X103825820Y-121439502D01*
X103945518Y-121475812D01*
X104070000Y-121488072D01*
X105770000Y-121488072D01*
X105894482Y-121475812D01*
X106014180Y-121439502D01*
X106124494Y-121380537D01*
X106221185Y-121301185D01*
X106300537Y-121204494D01*
X106359502Y-121094180D01*
X106381513Y-121021620D01*
X106513368Y-121153475D01*
X106756589Y-121315990D01*
X107026842Y-121427932D01*
X107313740Y-121485000D01*
X107606260Y-121485000D01*
X107893158Y-121427932D01*
X108163411Y-121315990D01*
X108406632Y-121153475D01*
X108613475Y-120946632D01*
X108730000Y-120772240D01*
X108846525Y-120946632D01*
X109053368Y-121153475D01*
X109296589Y-121315990D01*
X109566842Y-121427932D01*
X109853740Y-121485000D01*
X110146260Y-121485000D01*
X110433158Y-121427932D01*
X110703411Y-121315990D01*
X110946632Y-121153475D01*
X111153475Y-120946632D01*
X111270000Y-120772240D01*
X111386525Y-120946632D01*
X111593368Y-121153475D01*
X111836589Y-121315990D01*
X112106842Y-121427932D01*
X112393740Y-121485000D01*
X112686260Y-121485000D01*
X112973158Y-121427932D01*
X113243411Y-121315990D01*
X113486632Y-121153475D01*
X113693475Y-120946632D01*
X113810000Y-120772240D01*
X113926525Y-120946632D01*
X114133368Y-121153475D01*
X114376589Y-121315990D01*
X114646842Y-121427932D01*
X114933740Y-121485000D01*
X115226260Y-121485000D01*
X115513158Y-121427932D01*
X115783411Y-121315990D01*
X116026632Y-121153475D01*
X116233475Y-120946632D01*
X116350000Y-120772240D01*
X116466525Y-120946632D01*
X116673368Y-121153475D01*
X116916589Y-121315990D01*
X117186842Y-121427932D01*
X117473740Y-121485000D01*
X117766260Y-121485000D01*
X118053158Y-121427932D01*
X118323411Y-121315990D01*
X118566632Y-121153475D01*
X118773475Y-120946632D01*
X118935990Y-120703411D01*
X119047932Y-120433158D01*
X119105000Y-120146260D01*
X119105000Y-119853740D01*
X119047932Y-119566842D01*
X118935990Y-119296589D01*
X118773475Y-119053368D01*
X118566632Y-118846525D01*
X118323411Y-118684010D01*
X118053158Y-118572068D01*
X117766260Y-118515000D01*
X117473740Y-118515000D01*
X117186842Y-118572068D01*
X116916589Y-118684010D01*
X116673368Y-118846525D01*
X116466525Y-119053368D01*
X116350000Y-119227760D01*
X116233475Y-119053368D01*
X116026632Y-118846525D01*
X115783411Y-118684010D01*
X115513158Y-118572068D01*
X115226260Y-118515000D01*
X114933740Y-118515000D01*
X114646842Y-118572068D01*
X114376589Y-118684010D01*
X114133368Y-118846525D01*
X113926525Y-119053368D01*
X113810000Y-119227760D01*
X113693475Y-119053368D01*
X113486632Y-118846525D01*
X113243411Y-118684010D01*
X112973158Y-118572068D01*
X112686260Y-118515000D01*
X112393740Y-118515000D01*
X112106842Y-118572068D01*
X111836589Y-118684010D01*
X111593368Y-118846525D01*
X111386525Y-119053368D01*
X111270000Y-119227760D01*
X111153475Y-119053368D01*
X110946632Y-118846525D01*
X110703411Y-118684010D01*
X110433158Y-118572068D01*
X110146260Y-118515000D01*
X109853740Y-118515000D01*
X109566842Y-118572068D01*
X109296589Y-118684010D01*
X109053368Y-118846525D01*
X108846525Y-119053368D01*
X108730000Y-119227760D01*
X108613475Y-119053368D01*
X108406632Y-118846525D01*
X108163411Y-118684010D01*
X107893158Y-118572068D01*
X107606260Y-118515000D01*
X107313740Y-118515000D01*
X107026842Y-118572068D01*
X106756589Y-118684010D01*
X106513368Y-118846525D01*
X106381513Y-118978380D01*
X106359502Y-118905820D01*
X106300537Y-118795506D01*
X106221185Y-118698815D01*
X106124494Y-118619463D01*
X106014180Y-118560498D01*
X105894482Y-118524188D01*
X105770000Y-118511928D01*
X104070000Y-118511928D01*
X103945518Y-118524188D01*
X103825820Y-118560498D01*
X103715506Y-118619463D01*
X103618815Y-118698815D01*
X103539463Y-118795506D01*
X103480498Y-118905820D01*
X103444188Y-119025518D01*
X103431928Y-119150000D01*
X101258134Y-119150000D01*
X101153475Y-118993368D01*
X100946632Y-118786525D01*
X100772240Y-118670000D01*
X100946632Y-118553475D01*
X101153475Y-118346632D01*
X101315990Y-118103411D01*
X101427932Y-117833158D01*
X101485000Y-117546260D01*
X101485000Y-117253740D01*
X101427932Y-116966842D01*
X101315990Y-116696589D01*
X101153475Y-116453368D01*
X100946632Y-116246525D01*
X100772240Y-116130000D01*
X100946632Y-116013475D01*
X101153475Y-115806632D01*
X101315990Y-115563411D01*
X101427932Y-115293158D01*
X101485000Y-115006260D01*
X101485000Y-114713740D01*
X101427932Y-114426842D01*
X101315990Y-114156589D01*
X101153475Y-113913368D01*
X100946632Y-113706525D01*
X100772240Y-113590000D01*
X100946632Y-113473475D01*
X101153475Y-113266632D01*
X101315990Y-113023411D01*
X101367911Y-112898061D01*
X103965000Y-112898061D01*
X103965000Y-113101939D01*
X104004774Y-113301898D01*
X104082795Y-113490256D01*
X104106010Y-113525000D01*
X104082795Y-113559744D01*
X104004774Y-113748102D01*
X103965000Y-113948061D01*
X103965000Y-114151939D01*
X104004774Y-114351898D01*
X104082795Y-114540256D01*
X104106010Y-114575000D01*
X104082795Y-114609744D01*
X104004774Y-114798102D01*
X103965000Y-114998061D01*
X103965000Y-115201939D01*
X104004774Y-115401898D01*
X104082795Y-115590256D01*
X104196063Y-115759774D01*
X104340226Y-115903937D01*
X104509744Y-116017205D01*
X104698102Y-116095226D01*
X104898061Y-116135000D01*
X105101939Y-116135000D01*
X105301898Y-116095226D01*
X105490256Y-116017205D01*
X105659774Y-115903937D01*
X105803937Y-115759774D01*
X105917205Y-115590256D01*
X105995226Y-115401898D01*
X106035000Y-115201939D01*
X106035000Y-114998061D01*
X105995226Y-114798102D01*
X105917205Y-114609744D01*
X105893990Y-114575000D01*
X105917205Y-114540256D01*
X105995226Y-114351898D01*
X106035000Y-114151939D01*
X106035000Y-113948061D01*
X105995226Y-113748102D01*
X105917205Y-113559744D01*
X105893990Y-113525000D01*
X105917205Y-113490256D01*
X105995226Y-113301898D01*
X106035000Y-113101939D01*
X106035000Y-112898061D01*
X108465000Y-112898061D01*
X108465000Y-113101939D01*
X108504774Y-113301898D01*
X108582795Y-113490256D01*
X108606010Y-113525000D01*
X108582795Y-113559744D01*
X108504774Y-113748102D01*
X108465000Y-113948061D01*
X108465000Y-114151939D01*
X108504774Y-114351898D01*
X108582795Y-114540256D01*
X108606010Y-114575000D01*
X108582795Y-114609744D01*
X108504774Y-114798102D01*
X108465000Y-114998061D01*
X108465000Y-115201939D01*
X108504774Y-115401898D01*
X108582795Y-115590256D01*
X108696063Y-115759774D01*
X108840226Y-115903937D01*
X109009744Y-116017205D01*
X109198102Y-116095226D01*
X109398061Y-116135000D01*
X109601939Y-116135000D01*
X109801898Y-116095226D01*
X109990256Y-116017205D01*
X110159774Y-115903937D01*
X110303937Y-115759774D01*
X110417205Y-115590256D01*
X110495226Y-115401898D01*
X110535000Y-115201939D01*
X110535000Y-114998061D01*
X110495226Y-114798102D01*
X110417205Y-114609744D01*
X110393990Y-114575000D01*
X110417205Y-114540256D01*
X110495226Y-114351898D01*
X110535000Y-114151939D01*
X110535000Y-113948061D01*
X110495226Y-113748102D01*
X110417205Y-113559744D01*
X110393990Y-113525000D01*
X110417205Y-113490256D01*
X110495226Y-113301898D01*
X110535000Y-113101939D01*
X110535000Y-112898061D01*
X110515109Y-112798061D01*
X112965000Y-112798061D01*
X112965000Y-113001939D01*
X113004774Y-113201898D01*
X113082795Y-113390256D01*
X113122715Y-113450000D01*
X113082795Y-113509744D01*
X113004774Y-113698102D01*
X112965000Y-113898061D01*
X112965000Y-114101939D01*
X113004774Y-114301898D01*
X113082795Y-114490256D01*
X113106010Y-114525000D01*
X113082795Y-114559744D01*
X113004774Y-114748102D01*
X112965000Y-114948061D01*
X112965000Y-115151939D01*
X113004774Y-115351898D01*
X113082795Y-115540256D01*
X113196063Y-115709774D01*
X113340226Y-115853937D01*
X113509744Y-115967205D01*
X113698102Y-116045226D01*
X113898061Y-116085000D01*
X114101939Y-116085000D01*
X114301898Y-116045226D01*
X114490256Y-115967205D01*
X114659774Y-115853937D01*
X114803937Y-115709774D01*
X114917205Y-115540256D01*
X114995226Y-115351898D01*
X115035000Y-115151939D01*
X115035000Y-114948061D01*
X114995226Y-114748102D01*
X114917205Y-114559744D01*
X114893990Y-114525000D01*
X114917205Y-114490256D01*
X114995226Y-114301898D01*
X115035000Y-114101939D01*
X115035000Y-113898061D01*
X114995226Y-113698102D01*
X114917205Y-113509744D01*
X114877285Y-113450000D01*
X114917205Y-113390256D01*
X114995226Y-113201898D01*
X115035000Y-113001939D01*
X115035000Y-112798061D01*
X114995226Y-112598102D01*
X114917205Y-112409744D01*
X114803937Y-112240226D01*
X114659774Y-112096063D01*
X114490256Y-111982795D01*
X114301898Y-111904774D01*
X114101939Y-111865000D01*
X113898061Y-111865000D01*
X113698102Y-111904774D01*
X113509744Y-111982795D01*
X113340226Y-112096063D01*
X113196063Y-112240226D01*
X113082795Y-112409744D01*
X113004774Y-112598102D01*
X112965000Y-112798061D01*
X110515109Y-112798061D01*
X110495226Y-112698102D01*
X110417205Y-112509744D01*
X110303937Y-112340226D01*
X110159774Y-112196063D01*
X109990256Y-112082795D01*
X109801898Y-112004774D01*
X109601939Y-111965000D01*
X109398061Y-111965000D01*
X109198102Y-112004774D01*
X109009744Y-112082795D01*
X108840226Y-112196063D01*
X108696063Y-112340226D01*
X108582795Y-112509744D01*
X108504774Y-112698102D01*
X108465000Y-112898061D01*
X106035000Y-112898061D01*
X105995226Y-112698102D01*
X105917205Y-112509744D01*
X105803937Y-112340226D01*
X105659774Y-112196063D01*
X105490256Y-112082795D01*
X105301898Y-112004774D01*
X105101939Y-111965000D01*
X104898061Y-111965000D01*
X104698102Y-112004774D01*
X104509744Y-112082795D01*
X104340226Y-112196063D01*
X104196063Y-112340226D01*
X104082795Y-112509744D01*
X104004774Y-112698102D01*
X103965000Y-112898061D01*
X101367911Y-112898061D01*
X101427932Y-112753158D01*
X101485000Y-112466260D01*
X101485000Y-112173740D01*
X101427932Y-111886842D01*
X101315990Y-111616589D01*
X101153475Y-111373368D01*
X100946632Y-111166525D01*
X100772240Y-111050000D01*
X100946632Y-110933475D01*
X101153475Y-110726632D01*
X101315990Y-110483411D01*
X101427932Y-110213158D01*
X101485000Y-109926260D01*
X101485000Y-109633740D01*
X101427932Y-109346842D01*
X101315990Y-109076589D01*
X101153475Y-108833368D01*
X100946632Y-108626525D01*
X100772240Y-108510000D01*
X100946632Y-108393475D01*
X101153475Y-108186632D01*
X101315990Y-107943411D01*
X101427932Y-107673158D01*
X101485000Y-107386260D01*
X101485000Y-107093740D01*
X101427932Y-106806842D01*
X101315990Y-106536589D01*
X101153475Y-106293368D01*
X100946632Y-106086525D01*
X100772240Y-105970000D01*
X100946632Y-105853475D01*
X101153475Y-105646632D01*
X101315990Y-105403411D01*
X101427932Y-105133158D01*
X101485000Y-104846260D01*
X101485000Y-104553740D01*
X101444088Y-104348061D01*
X105415000Y-104348061D01*
X105415000Y-104551939D01*
X105454774Y-104751898D01*
X105532795Y-104940256D01*
X105646063Y-105109774D01*
X105790226Y-105253937D01*
X105959744Y-105367205D01*
X106148102Y-105445226D01*
X106348061Y-105485000D01*
X106551939Y-105485000D01*
X106751898Y-105445226D01*
X106940256Y-105367205D01*
X107109774Y-105253937D01*
X107253937Y-105109774D01*
X107367205Y-104940256D01*
X107445226Y-104751898D01*
X107485000Y-104551939D01*
X107485000Y-104513061D01*
X109815000Y-104513061D01*
X109815000Y-104716939D01*
X109854774Y-104916898D01*
X109932795Y-105105256D01*
X110046063Y-105274774D01*
X110190226Y-105418937D01*
X110359744Y-105532205D01*
X110548102Y-105610226D01*
X110748061Y-105650000D01*
X110951939Y-105650000D01*
X111151898Y-105610226D01*
X111340256Y-105532205D01*
X111509774Y-105418937D01*
X111653937Y-105274774D01*
X111767205Y-105105256D01*
X111845226Y-104916898D01*
X111885000Y-104716939D01*
X111885000Y-104513061D01*
X114215000Y-104513061D01*
X114215000Y-104716939D01*
X114254774Y-104916898D01*
X114332795Y-105105256D01*
X114446063Y-105274774D01*
X114590226Y-105418937D01*
X114759744Y-105532205D01*
X114948102Y-105610226D01*
X115148061Y-105650000D01*
X115351939Y-105650000D01*
X115551898Y-105610226D01*
X115740256Y-105532205D01*
X115909774Y-105418937D01*
X116053937Y-105274774D01*
X116167205Y-105105256D01*
X116245226Y-104916898D01*
X116285000Y-104716939D01*
X116285000Y-104513061D01*
X116245226Y-104313102D01*
X116167205Y-104124744D01*
X116053937Y-103955226D01*
X115909774Y-103811063D01*
X115740256Y-103697795D01*
X115551898Y-103619774D01*
X115351939Y-103580000D01*
X115148061Y-103580000D01*
X114948102Y-103619774D01*
X114759744Y-103697795D01*
X114590226Y-103811063D01*
X114446063Y-103955226D01*
X114332795Y-104124744D01*
X114254774Y-104313102D01*
X114215000Y-104513061D01*
X111885000Y-104513061D01*
X111845226Y-104313102D01*
X111767205Y-104124744D01*
X111653937Y-103955226D01*
X111509774Y-103811063D01*
X111340256Y-103697795D01*
X111151898Y-103619774D01*
X110951939Y-103580000D01*
X110748061Y-103580000D01*
X110548102Y-103619774D01*
X110359744Y-103697795D01*
X110190226Y-103811063D01*
X110046063Y-103955226D01*
X109932795Y-104124744D01*
X109854774Y-104313102D01*
X109815000Y-104513061D01*
X107485000Y-104513061D01*
X107485000Y-104348061D01*
X107445226Y-104148102D01*
X107367205Y-103959744D01*
X107253937Y-103790226D01*
X107109774Y-103646063D01*
X106940256Y-103532795D01*
X106751898Y-103454774D01*
X106551939Y-103415000D01*
X106348061Y-103415000D01*
X106148102Y-103454774D01*
X105959744Y-103532795D01*
X105790226Y-103646063D01*
X105646063Y-103790226D01*
X105532795Y-103959744D01*
X105454774Y-104148102D01*
X105415000Y-104348061D01*
X101444088Y-104348061D01*
X101427932Y-104266842D01*
X101315990Y-103996589D01*
X101153475Y-103753368D01*
X100946632Y-103546525D01*
X100772240Y-103430000D01*
X100946632Y-103313475D01*
X101153475Y-103106632D01*
X101315990Y-102863411D01*
X101427932Y-102593158D01*
X101485000Y-102306260D01*
X101485000Y-102013740D01*
X101427932Y-101726842D01*
X101315990Y-101456589D01*
X101153475Y-101213368D01*
X100946632Y-101006525D01*
X100772240Y-100890000D01*
X100946632Y-100773475D01*
X101153475Y-100566632D01*
X101315990Y-100323411D01*
X101427932Y-100053158D01*
X101485000Y-99766260D01*
X101485000Y-99473740D01*
X101427932Y-99186842D01*
X101315990Y-98916589D01*
X101153475Y-98673368D01*
X100946632Y-98466525D01*
X100764466Y-98344805D01*
X100881355Y-98275178D01*
X101097588Y-98080269D01*
X101271641Y-97846920D01*
X101396825Y-97584099D01*
X101441476Y-97436890D01*
X101320155Y-97207000D01*
X100127000Y-97207000D01*
X100127000Y-97227000D01*
X99873000Y-97227000D01*
X99873000Y-97207000D01*
X99853000Y-97207000D01*
X99853000Y-96953000D01*
X99873000Y-96953000D01*
X99873000Y-96933000D01*
X100127000Y-96933000D01*
X100127000Y-96953000D01*
X101320155Y-96953000D01*
X101441476Y-96723110D01*
X101396825Y-96575901D01*
X101271641Y-96313080D01*
X101097588Y-96079731D01*
X100881355Y-95884822D01*
X100764466Y-95815195D01*
X100946632Y-95693475D01*
X101042046Y-95598061D01*
X102615000Y-95598061D01*
X102615000Y-95801939D01*
X102654774Y-96001898D01*
X102732795Y-96190256D01*
X102846063Y-96359774D01*
X102990226Y-96503937D01*
X103159744Y-96617205D01*
X103348102Y-96695226D01*
X103548061Y-96735000D01*
X103751939Y-96735000D01*
X103951898Y-96695226D01*
X104140256Y-96617205D01*
X104309774Y-96503937D01*
X104385737Y-96427974D01*
X104548098Y-96495226D01*
X104748057Y-96535000D01*
X104951935Y-96535000D01*
X105151894Y-96495226D01*
X105340252Y-96417205D01*
X105509770Y-96303937D01*
X105653933Y-96159774D01*
X105767201Y-95990256D01*
X105845222Y-95801898D01*
X105884996Y-95601939D01*
X105884996Y-95398061D01*
X105845222Y-95198102D01*
X105767201Y-95009744D01*
X105653933Y-94840226D01*
X105509770Y-94696063D01*
X105340252Y-94582795D01*
X105151894Y-94504774D01*
X104951935Y-94465000D01*
X104748057Y-94465000D01*
X104548098Y-94504774D01*
X104359740Y-94582795D01*
X104190222Y-94696063D01*
X104114259Y-94772026D01*
X103951898Y-94704774D01*
X103751939Y-94665000D01*
X103548061Y-94665000D01*
X103348102Y-94704774D01*
X103159744Y-94782795D01*
X102990226Y-94896063D01*
X102846063Y-95040226D01*
X102732795Y-95209744D01*
X102654774Y-95398102D01*
X102615000Y-95598061D01*
X101042046Y-95598061D01*
X101153475Y-95486632D01*
X101315990Y-95243411D01*
X101427932Y-94973158D01*
X101485000Y-94686260D01*
X101485000Y-94393740D01*
X101427932Y-94106842D01*
X101315990Y-93836589D01*
X101153475Y-93593368D01*
X101021620Y-93461513D01*
X101094180Y-93439502D01*
X101204494Y-93380537D01*
X101301185Y-93301185D01*
X101380537Y-93204494D01*
X101439502Y-93094180D01*
X101475812Y-92974482D01*
X101488072Y-92850000D01*
X101488072Y-91160000D01*
X113471928Y-91160000D01*
X113471928Y-92850000D01*
G37*
X113471928Y-92850000D02*
X113484188Y-92974482D01*
X113520498Y-93094180D01*
X113579463Y-93204494D01*
X113658815Y-93301185D01*
X113755506Y-93380537D01*
X113865820Y-93439502D01*
X113985518Y-93475812D01*
X114110000Y-93488072D01*
X115810000Y-93488072D01*
X115934482Y-93475812D01*
X116054180Y-93439502D01*
X116164494Y-93380537D01*
X116261185Y-93301185D01*
X116340537Y-93204494D01*
X116399502Y-93094180D01*
X116423966Y-93013534D01*
X116499731Y-93097588D01*
X116733080Y-93271641D01*
X116995901Y-93396825D01*
X117143110Y-93441476D01*
X117373000Y-93320155D01*
X117373000Y-92127000D01*
X117627000Y-92127000D01*
X117627000Y-93320155D01*
X117856890Y-93441476D01*
X118004099Y-93396825D01*
X118266920Y-93271641D01*
X118500269Y-93097588D01*
X118695178Y-92881355D01*
X118844157Y-92631252D01*
X118941481Y-92356891D01*
X118820814Y-92127000D01*
X117627000Y-92127000D01*
X117373000Y-92127000D01*
X117353000Y-92127000D01*
X117353000Y-91873000D01*
X117373000Y-91873000D01*
X117373000Y-91853000D01*
X117627000Y-91853000D01*
X117627000Y-91873000D01*
X118820814Y-91873000D01*
X118941481Y-91643109D01*
X118844157Y-91368748D01*
X118719812Y-91160000D01*
X121016852Y-91160000D01*
X121011928Y-91210000D01*
X121011928Y-92910000D01*
X121024188Y-93034482D01*
X121060498Y-93154180D01*
X121119463Y-93264494D01*
X121198815Y-93361185D01*
X121295506Y-93440537D01*
X121405820Y-93499502D01*
X121478380Y-93521513D01*
X121346525Y-93653368D01*
X121184010Y-93896589D01*
X121072068Y-94166842D01*
X121015000Y-94453740D01*
X121015000Y-94746260D01*
X121072068Y-95033158D01*
X121184010Y-95303411D01*
X121346525Y-95546632D01*
X121553368Y-95753475D01*
X121727760Y-95870000D01*
X121553368Y-95986525D01*
X121346525Y-96193368D01*
X121184010Y-96436589D01*
X121072068Y-96706842D01*
X121015000Y-96993740D01*
X121015000Y-97286260D01*
X121072068Y-97573158D01*
X121184010Y-97843411D01*
X121346525Y-98086632D01*
X121553368Y-98293475D01*
X121727760Y-98410000D01*
X121553368Y-98526525D01*
X121346525Y-98733368D01*
X121305344Y-98795000D01*
X118758711Y-98795000D01*
X118659774Y-98696063D01*
X118490256Y-98582795D01*
X118301898Y-98504774D01*
X118101939Y-98465000D01*
X117898061Y-98465000D01*
X117698102Y-98504774D01*
X117509744Y-98582795D01*
X117340226Y-98696063D01*
X117196063Y-98840226D01*
X117082795Y-99009744D01*
X117004774Y-99198102D01*
X116965000Y-99398061D01*
X116965000Y-99601939D01*
X117004774Y-99801898D01*
X117082795Y-99990256D01*
X117196063Y-100159774D01*
X117340226Y-100303937D01*
X117509744Y-100417205D01*
X117698102Y-100495226D01*
X117898061Y-100535000D01*
X117949827Y-100535000D01*
X118006510Y-100552195D01*
X118136523Y-100565000D01*
X118136533Y-100565000D01*
X118179999Y-100569281D01*
X118223465Y-100565000D01*
X121305344Y-100565000D01*
X121346525Y-100626632D01*
X121553368Y-100833475D01*
X121727760Y-100950000D01*
X121553368Y-101066525D01*
X121346525Y-101273368D01*
X121305344Y-101335000D01*
X118798713Y-101335000D01*
X118659776Y-101196063D01*
X118490258Y-101082795D01*
X118301900Y-101004774D01*
X118101941Y-100965000D01*
X117898063Y-100965000D01*
X117698104Y-101004774D01*
X117509746Y-101082795D01*
X117340228Y-101196063D01*
X117196065Y-101340226D01*
X117082797Y-101509744D01*
X117004776Y-101698102D01*
X116965002Y-101898061D01*
X116965002Y-102101939D01*
X117004776Y-102301898D01*
X117082797Y-102490256D01*
X117196065Y-102659774D01*
X117340228Y-102803937D01*
X117509746Y-102917205D01*
X117698104Y-102995226D01*
X117849165Y-103025274D01*
X117879689Y-103041589D01*
X118007684Y-103080416D01*
X118046511Y-103092195D01*
X118061308Y-103093652D01*
X118176525Y-103105000D01*
X118176533Y-103105000D01*
X118220002Y-103109281D01*
X118263471Y-103105000D01*
X121305344Y-103105000D01*
X121346525Y-103166632D01*
X121553368Y-103373475D01*
X121727760Y-103490000D01*
X121553368Y-103606525D01*
X121346525Y-103813368D01*
X121184010Y-104056589D01*
X121072068Y-104326842D01*
X121015000Y-104613740D01*
X121015000Y-104906260D01*
X121072068Y-105193158D01*
X121184010Y-105463411D01*
X121346525Y-105706632D01*
X121553368Y-105913475D01*
X121727760Y-106030000D01*
X121553368Y-106146525D01*
X121346525Y-106353368D01*
X121184010Y-106596589D01*
X121072068Y-106866842D01*
X121015000Y-107153740D01*
X121015000Y-107446260D01*
X121072068Y-107733158D01*
X121184010Y-108003411D01*
X121346525Y-108246632D01*
X121553368Y-108453475D01*
X121727760Y-108570000D01*
X121553368Y-108686525D01*
X121346525Y-108893368D01*
X121184010Y-109136589D01*
X121072068Y-109406842D01*
X121015000Y-109693740D01*
X121015000Y-109986260D01*
X121072068Y-110273158D01*
X121184010Y-110543411D01*
X121346525Y-110786632D01*
X121553368Y-110993475D01*
X121727760Y-111110000D01*
X121553368Y-111226525D01*
X121346525Y-111433368D01*
X121184010Y-111676589D01*
X121072068Y-111946842D01*
X121015000Y-112233740D01*
X121015000Y-112526260D01*
X121072068Y-112813158D01*
X121184010Y-113083411D01*
X121346525Y-113326632D01*
X121553368Y-113533475D01*
X121727760Y-113650000D01*
X121553368Y-113766525D01*
X121346525Y-113973368D01*
X121184010Y-114216589D01*
X121072068Y-114486842D01*
X121015000Y-114773740D01*
X121015000Y-115066260D01*
X121072068Y-115353158D01*
X121184010Y-115623411D01*
X121346525Y-115866632D01*
X121553368Y-116073475D01*
X121727760Y-116190000D01*
X121553368Y-116306525D01*
X121346525Y-116513368D01*
X121184010Y-116756589D01*
X121072068Y-117026842D01*
X121015000Y-117313740D01*
X121015000Y-117606260D01*
X121072068Y-117893158D01*
X121184010Y-118163411D01*
X121346525Y-118406632D01*
X121553368Y-118613475D01*
X121727760Y-118730000D01*
X121553368Y-118846525D01*
X121346525Y-119053368D01*
X121184010Y-119296589D01*
X121072068Y-119566842D01*
X121015000Y-119853740D01*
X121015000Y-120146260D01*
X121072068Y-120433158D01*
X121184010Y-120703411D01*
X121346525Y-120946632D01*
X121553368Y-121153475D01*
X121796589Y-121315990D01*
X122066842Y-121427932D01*
X122353740Y-121485000D01*
X122646260Y-121485000D01*
X122933158Y-121427932D01*
X123203411Y-121315990D01*
X123340001Y-121224724D01*
X123340001Y-124354387D01*
X123201727Y-124261995D01*
X122947490Y-124156686D01*
X122677592Y-124103000D01*
X122402408Y-124103000D01*
X122132510Y-124156686D01*
X121878273Y-124261995D01*
X121649465Y-124414880D01*
X121454880Y-124609465D01*
X121396080Y-124697465D01*
X121387812Y-124613518D01*
X121351502Y-124493820D01*
X121292537Y-124383506D01*
X121213185Y-124286815D01*
X121116494Y-124207463D01*
X121006180Y-124148498D01*
X120886482Y-124112188D01*
X120762000Y-124099928D01*
X120285750Y-124103000D01*
X120127000Y-124261750D01*
X120127000Y-125373000D01*
X120147000Y-125373000D01*
X120147000Y-125627000D01*
X120127000Y-125627000D01*
X120127000Y-125647000D01*
X119873000Y-125647000D01*
X119873000Y-125627000D01*
X118761750Y-125627000D01*
X118603000Y-125785750D01*
X118599928Y-126262000D01*
X118612188Y-126386482D01*
X118648498Y-126506180D01*
X118707463Y-126616494D01*
X118786815Y-126713185D01*
X118883506Y-126792537D01*
X118993820Y-126851502D01*
X119113518Y-126887812D01*
X119197465Y-126896080D01*
X119109465Y-126954880D01*
X118914880Y-127149465D01*
X118761995Y-127378273D01*
X118656686Y-127632510D01*
X118603000Y-127902408D01*
X118603000Y-128177592D01*
X118656686Y-128447490D01*
X118761995Y-128701727D01*
X118914880Y-128930535D01*
X119109465Y-129125120D01*
X119338273Y-129278005D01*
X119415515Y-129310000D01*
X119338273Y-129341995D01*
X119109465Y-129494880D01*
X118914880Y-129689465D01*
X118761995Y-129918273D01*
X118656686Y-130172510D01*
X118603000Y-130442408D01*
X118603000Y-130717592D01*
X118656686Y-130987490D01*
X118761995Y-131241727D01*
X118914880Y-131470535D01*
X119109465Y-131665120D01*
X119338273Y-131818005D01*
X119415515Y-131850000D01*
X119338273Y-131881995D01*
X119109465Y-132034880D01*
X118914880Y-132229465D01*
X118761995Y-132458273D01*
X118656686Y-132712510D01*
X118603000Y-132982408D01*
X118603000Y-133257592D01*
X118656686Y-133527490D01*
X118761995Y-133781727D01*
X118914880Y-134010535D01*
X119109465Y-134205120D01*
X119338273Y-134358005D01*
X119592510Y-134463314D01*
X119862408Y-134517000D01*
X120137592Y-134517000D01*
X120407490Y-134463314D01*
X120661727Y-134358005D01*
X120890535Y-134205120D01*
X121085120Y-134010535D01*
X121238005Y-133781727D01*
X121270000Y-133704485D01*
X121301995Y-133781727D01*
X121454880Y-134010535D01*
X121649465Y-134205120D01*
X121878273Y-134358005D01*
X122132510Y-134463314D01*
X122402408Y-134517000D01*
X122677592Y-134517000D01*
X122947490Y-134463314D01*
X123201727Y-134358005D01*
X123340001Y-134265613D01*
X123340001Y-139340000D01*
X99160000Y-139340000D01*
X99160000Y-135150000D01*
X100361928Y-135150000D01*
X100361928Y-137250000D01*
X100374188Y-137374482D01*
X100410498Y-137494180D01*
X100469463Y-137604494D01*
X100548815Y-137701185D01*
X100645506Y-137780537D01*
X100755820Y-137839502D01*
X100875518Y-137875812D01*
X101000000Y-137888072D01*
X103100000Y-137888072D01*
X103224482Y-137875812D01*
X103344180Y-137839502D01*
X103454494Y-137780537D01*
X103551185Y-137701185D01*
X103630537Y-137604494D01*
X103638042Y-137590454D01*
X103791853Y-137693228D01*
X104098504Y-137820246D01*
X104424042Y-137885000D01*
X104755958Y-137885000D01*
X105081496Y-137820246D01*
X105388147Y-137693228D01*
X105664125Y-137508825D01*
X105860000Y-137312950D01*
X106055875Y-137508825D01*
X106331853Y-137693228D01*
X106638504Y-137820246D01*
X106964042Y-137885000D01*
X107295958Y-137885000D01*
X107621496Y-137820246D01*
X107928147Y-137693228D01*
X108204125Y-137508825D01*
X108400000Y-137312950D01*
X108595875Y-137508825D01*
X108871853Y-137693228D01*
X109178504Y-137820246D01*
X109504042Y-137885000D01*
X109835958Y-137885000D01*
X110161496Y-137820246D01*
X110468147Y-137693228D01*
X110744125Y-137508825D01*
X110978825Y-137274125D01*
X111163228Y-136998147D01*
X111290246Y-136691496D01*
X111355000Y-136365958D01*
X111355000Y-136034042D01*
X111290246Y-135708504D01*
X111163228Y-135401853D01*
X110978825Y-135125875D01*
X110744125Y-134891175D01*
X110468147Y-134706772D01*
X110161496Y-134579754D01*
X109835958Y-134515000D01*
X109504042Y-134515000D01*
X109178504Y-134579754D01*
X108871853Y-134706772D01*
X108595875Y-134891175D01*
X108400000Y-135087050D01*
X108204125Y-134891175D01*
X107928147Y-134706772D01*
X107621496Y-134579754D01*
X107295958Y-134515000D01*
X106964042Y-134515000D01*
X106638504Y-134579754D01*
X106331853Y-134706772D01*
X106055875Y-134891175D01*
X105860000Y-135087050D01*
X105664125Y-134891175D01*
X105388147Y-134706772D01*
X105081496Y-134579754D01*
X104755958Y-134515000D01*
X104424042Y-134515000D01*
X104098504Y-134579754D01*
X103791853Y-134706772D01*
X103638042Y-134809546D01*
X103630537Y-134795506D01*
X103551185Y-134698815D01*
X103454494Y-134619463D01*
X103344180Y-134560498D01*
X103224482Y-134524188D01*
X103100000Y-134511928D01*
X101000000Y-134511928D01*
X100875518Y-134524188D01*
X100755820Y-134560498D01*
X100645506Y-134619463D01*
X100548815Y-134698815D01*
X100469463Y-134795506D01*
X100410498Y-134905820D01*
X100374188Y-135025518D01*
X100361928Y-135150000D01*
X99160000Y-135150000D01*
X99160000Y-130200000D01*
X101261928Y-130200000D01*
X101261928Y-131800000D01*
X101274188Y-131924482D01*
X101310498Y-132044180D01*
X101369463Y-132154494D01*
X101448815Y-132251185D01*
X101545506Y-132330537D01*
X101655820Y-132389502D01*
X101775518Y-132425812D01*
X101900000Y-132438072D01*
X103500000Y-132438072D01*
X103624482Y-132425812D01*
X103744180Y-132389502D01*
X103854494Y-132330537D01*
X103951185Y-132251185D01*
X104030537Y-132154494D01*
X104089502Y-132044180D01*
X104125812Y-131924482D01*
X104126643Y-131916039D01*
X104325241Y-132114637D01*
X104560273Y-132271680D01*
X104821426Y-132379853D01*
X105098665Y-132435000D01*
X105381335Y-132435000D01*
X105658574Y-132379853D01*
X105919727Y-132271680D01*
X106154759Y-132114637D01*
X106354637Y-131914759D01*
X106510000Y-131682241D01*
X106665363Y-131914759D01*
X106865241Y-132114637D01*
X107100273Y-132271680D01*
X107361426Y-132379853D01*
X107638665Y-132435000D01*
X107921335Y-132435000D01*
X108198574Y-132379853D01*
X108459727Y-132271680D01*
X108694759Y-132114637D01*
X108894637Y-131914759D01*
X109050000Y-131682241D01*
X109205363Y-131914759D01*
X109405241Y-132114637D01*
X109640273Y-132271680D01*
X109901426Y-132379853D01*
X110178665Y-132435000D01*
X110461335Y-132435000D01*
X110738574Y-132379853D01*
X110999727Y-132271680D01*
X111234759Y-132114637D01*
X111434637Y-131914759D01*
X111590000Y-131682241D01*
X111745363Y-131914759D01*
X111945241Y-132114637D01*
X112180273Y-132271680D01*
X112441426Y-132379853D01*
X112718665Y-132435000D01*
X113001335Y-132435000D01*
X113278574Y-132379853D01*
X113539727Y-132271680D01*
X113774759Y-132114637D01*
X113974637Y-131914759D01*
X114130000Y-131682241D01*
X114285363Y-131914759D01*
X114485241Y-132114637D01*
X114720273Y-132271680D01*
X114981426Y-132379853D01*
X115258665Y-132435000D01*
X115541335Y-132435000D01*
X115818574Y-132379853D01*
X116079727Y-132271680D01*
X116314759Y-132114637D01*
X116514637Y-131914759D01*
X116671680Y-131679727D01*
X116779853Y-131418574D01*
X116835000Y-131141335D01*
X116835000Y-130858665D01*
X116779853Y-130581426D01*
X116671680Y-130320273D01*
X116514637Y-130085241D01*
X116314759Y-129885363D01*
X116079727Y-129728320D01*
X115818574Y-129620147D01*
X115541335Y-129565000D01*
X115258665Y-129565000D01*
X114981426Y-129620147D01*
X114720273Y-129728320D01*
X114485241Y-129885363D01*
X114285363Y-130085241D01*
X114130000Y-130317759D01*
X113974637Y-130085241D01*
X113774759Y-129885363D01*
X113539727Y-129728320D01*
X113278574Y-129620147D01*
X113001335Y-129565000D01*
X112718665Y-129565000D01*
X112441426Y-129620147D01*
X112180273Y-129728320D01*
X111945241Y-129885363D01*
X111745363Y-130085241D01*
X111590000Y-130317759D01*
X111434637Y-130085241D01*
X111234759Y-129885363D01*
X110999727Y-129728320D01*
X110738574Y-129620147D01*
X110461335Y-129565000D01*
X110178665Y-129565000D01*
X109901426Y-129620147D01*
X109640273Y-129728320D01*
X109405241Y-129885363D01*
X109205363Y-130085241D01*
X109050000Y-130317759D01*
X108894637Y-130085241D01*
X108694759Y-129885363D01*
X108459727Y-129728320D01*
X108198574Y-129620147D01*
X107921335Y-129565000D01*
X107638665Y-129565000D01*
X107361426Y-129620147D01*
X107100273Y-129728320D01*
X106865241Y-129885363D01*
X106665363Y-130085241D01*
X106510000Y-130317759D01*
X106354637Y-130085241D01*
X106154759Y-129885363D01*
X105919727Y-129728320D01*
X105658574Y-129620147D01*
X105381335Y-129565000D01*
X105098665Y-129565000D01*
X104821426Y-129620147D01*
X104560273Y-129728320D01*
X104325241Y-129885363D01*
X104126643Y-130083961D01*
X104125812Y-130075518D01*
X104089502Y-129955820D01*
X104030537Y-129845506D01*
X103951185Y-129748815D01*
X103854494Y-129669463D01*
X103744180Y-129610498D01*
X103624482Y-129574188D01*
X103500000Y-129561928D01*
X101900000Y-129561928D01*
X101775518Y-129574188D01*
X101655820Y-129610498D01*
X101545506Y-129669463D01*
X101448815Y-129748815D01*
X101369463Y-129845506D01*
X101310498Y-129955820D01*
X101274188Y-130075518D01*
X101261928Y-130200000D01*
X99160000Y-130200000D01*
X99160000Y-123238665D01*
X101265000Y-123238665D01*
X101265000Y-123521335D01*
X101320147Y-123798574D01*
X101428320Y-124059727D01*
X101585363Y-124294759D01*
X101785241Y-124494637D01*
X102020273Y-124651680D01*
X102281426Y-124759853D01*
X102558665Y-124815000D01*
X102841335Y-124815000D01*
X103118574Y-124759853D01*
X103379727Y-124651680D01*
X103614759Y-124494637D01*
X103814637Y-124294759D01*
X103970000Y-124062241D01*
X104125363Y-124294759D01*
X104325241Y-124494637D01*
X104560273Y-124651680D01*
X104821426Y-124759853D01*
X105098665Y-124815000D01*
X105381335Y-124815000D01*
X105658574Y-124759853D01*
X105919727Y-124651680D01*
X106154759Y-124494637D01*
X106354637Y-124294759D01*
X106510000Y-124062241D01*
X106665363Y-124294759D01*
X106865241Y-124494637D01*
X107100273Y-124651680D01*
X107361426Y-124759853D01*
X107638665Y-124815000D01*
X107921335Y-124815000D01*
X108198574Y-124759853D01*
X108459727Y-124651680D01*
X108694759Y-124494637D01*
X108894637Y-124294759D01*
X109050000Y-124062241D01*
X109205363Y-124294759D01*
X109405241Y-124494637D01*
X109640273Y-124651680D01*
X109901426Y-124759853D01*
X110178665Y-124815000D01*
X110461335Y-124815000D01*
X110738574Y-124759853D01*
X110999727Y-124651680D01*
X111234759Y-124494637D01*
X111434637Y-124294759D01*
X111590000Y-124062241D01*
X111745363Y-124294759D01*
X111945241Y-124494637D01*
X112180273Y-124651680D01*
X112441426Y-124759853D01*
X112718665Y-124815000D01*
X113001335Y-124815000D01*
X113278574Y-124759853D01*
X113539727Y-124651680D01*
X113774759Y-124494637D01*
X113974637Y-124294759D01*
X114130000Y-124062241D01*
X114285363Y-124294759D01*
X114485241Y-124494637D01*
X114720273Y-124651680D01*
X114981426Y-124759853D01*
X115258665Y-124815000D01*
X115541335Y-124815000D01*
X115818574Y-124759853D01*
X115871331Y-124738000D01*
X118599928Y-124738000D01*
X118603000Y-125214250D01*
X118761750Y-125373000D01*
X119873000Y-125373000D01*
X119873000Y-124261750D01*
X119714250Y-124103000D01*
X119238000Y-124099928D01*
X119113518Y-124112188D01*
X118993820Y-124148498D01*
X118883506Y-124207463D01*
X118786815Y-124286815D01*
X118707463Y-124383506D01*
X118648498Y-124493820D01*
X118612188Y-124613518D01*
X118599928Y-124738000D01*
X115871331Y-124738000D01*
X116079727Y-124651680D01*
X116314759Y-124494637D01*
X116514637Y-124294759D01*
X116671680Y-124059727D01*
X116779853Y-123798574D01*
X116835000Y-123521335D01*
X116835000Y-123238665D01*
X116779853Y-122961426D01*
X116671680Y-122700273D01*
X116514637Y-122465241D01*
X116314759Y-122265363D01*
X116079727Y-122108320D01*
X115818574Y-122000147D01*
X115541335Y-121945000D01*
X115258665Y-121945000D01*
X114981426Y-122000147D01*
X114720273Y-122108320D01*
X114485241Y-122265363D01*
X114285363Y-122465241D01*
X114130000Y-122697759D01*
X113974637Y-122465241D01*
X113774759Y-122265363D01*
X113539727Y-122108320D01*
X113278574Y-122000147D01*
X113001335Y-121945000D01*
X112718665Y-121945000D01*
X112441426Y-122000147D01*
X112180273Y-122108320D01*
X111945241Y-122265363D01*
X111745363Y-122465241D01*
X111590000Y-122697759D01*
X111434637Y-122465241D01*
X111234759Y-122265363D01*
X110999727Y-122108320D01*
X110738574Y-122000147D01*
X110461335Y-121945000D01*
X110178665Y-121945000D01*
X109901426Y-122000147D01*
X109640273Y-122108320D01*
X109405241Y-122265363D01*
X109205363Y-122465241D01*
X109050000Y-122697759D01*
X108894637Y-122465241D01*
X108694759Y-122265363D01*
X108459727Y-122108320D01*
X108198574Y-122000147D01*
X107921335Y-121945000D01*
X107638665Y-121945000D01*
X107361426Y-122000147D01*
X107100273Y-122108320D01*
X106865241Y-122265363D01*
X106665363Y-122465241D01*
X106510000Y-122697759D01*
X106354637Y-122465241D01*
X106154759Y-122265363D01*
X105919727Y-122108320D01*
X105658574Y-122000147D01*
X105381335Y-121945000D01*
X105098665Y-121945000D01*
X104821426Y-122000147D01*
X104560273Y-122108320D01*
X104325241Y-122265363D01*
X104125363Y-122465241D01*
X103970000Y-122697759D01*
X103814637Y-122465241D01*
X103614759Y-122265363D01*
X103379727Y-122108320D01*
X103118574Y-122000147D01*
X102841335Y-121945000D01*
X102558665Y-121945000D01*
X102281426Y-122000147D01*
X102020273Y-122108320D01*
X101785241Y-122265363D01*
X101585363Y-122465241D01*
X101428320Y-122700273D01*
X101320147Y-122961426D01*
X101265000Y-123238665D01*
X99160000Y-123238665D01*
X99160000Y-121164724D01*
X99296589Y-121255990D01*
X99566842Y-121367932D01*
X99853740Y-121425000D01*
X100146260Y-121425000D01*
X100433158Y-121367932D01*
X100703411Y-121255990D01*
X100946632Y-121093475D01*
X101153475Y-120886632D01*
X101315990Y-120643411D01*
X101427932Y-120373158D01*
X101485000Y-120086260D01*
X101485000Y-119793740D01*
X101427932Y-119506842D01*
X101315990Y-119236589D01*
X101258134Y-119150000D01*
X103431928Y-119150000D01*
X103431928Y-120850000D01*
X103444188Y-120974482D01*
X103480498Y-121094180D01*
X103539463Y-121204494D01*
X103618815Y-121301185D01*
X103715506Y-121380537D01*
X103825820Y-121439502D01*
X103945518Y-121475812D01*
X104070000Y-121488072D01*
X105770000Y-121488072D01*
X105894482Y-121475812D01*
X106014180Y-121439502D01*
X106124494Y-121380537D01*
X106221185Y-121301185D01*
X106300537Y-121204494D01*
X106359502Y-121094180D01*
X106381513Y-121021620D01*
X106513368Y-121153475D01*
X106756589Y-121315990D01*
X107026842Y-121427932D01*
X107313740Y-121485000D01*
X107606260Y-121485000D01*
X107893158Y-121427932D01*
X108163411Y-121315990D01*
X108406632Y-121153475D01*
X108613475Y-120946632D01*
X108730000Y-120772240D01*
X108846525Y-120946632D01*
X109053368Y-121153475D01*
X109296589Y-121315990D01*
X109566842Y-121427932D01*
X109853740Y-121485000D01*
X110146260Y-121485000D01*
X110433158Y-121427932D01*
X110703411Y-121315990D01*
X110946632Y-121153475D01*
X111153475Y-120946632D01*
X111270000Y-120772240D01*
X111386525Y-120946632D01*
X111593368Y-121153475D01*
X111836589Y-121315990D01*
X112106842Y-121427932D01*
X112393740Y-121485000D01*
X112686260Y-121485000D01*
X112973158Y-121427932D01*
X113243411Y-121315990D01*
X113486632Y-121153475D01*
X113693475Y-120946632D01*
X113810000Y-120772240D01*
X113926525Y-120946632D01*
X114133368Y-121153475D01*
X114376589Y-121315990D01*
X114646842Y-121427932D01*
X114933740Y-121485000D01*
X115226260Y-121485000D01*
X115513158Y-121427932D01*
X115783411Y-121315990D01*
X116026632Y-121153475D01*
X116233475Y-120946632D01*
X116350000Y-120772240D01*
X116466525Y-120946632D01*
X116673368Y-121153475D01*
X116916589Y-121315990D01*
X117186842Y-121427932D01*
X117473740Y-121485000D01*
X117766260Y-121485000D01*
X118053158Y-121427932D01*
X118323411Y-121315990D01*
X118566632Y-121153475D01*
X118773475Y-120946632D01*
X118935990Y-120703411D01*
X119047932Y-120433158D01*
X119105000Y-120146260D01*
X119105000Y-119853740D01*
X119047932Y-119566842D01*
X118935990Y-119296589D01*
X118773475Y-119053368D01*
X118566632Y-118846525D01*
X118323411Y-118684010D01*
X118053158Y-118572068D01*
X117766260Y-118515000D01*
X117473740Y-118515000D01*
X117186842Y-118572068D01*
X116916589Y-118684010D01*
X116673368Y-118846525D01*
X116466525Y-119053368D01*
X116350000Y-119227760D01*
X116233475Y-119053368D01*
X116026632Y-118846525D01*
X115783411Y-118684010D01*
X115513158Y-118572068D01*
X115226260Y-118515000D01*
X114933740Y-118515000D01*
X114646842Y-118572068D01*
X114376589Y-118684010D01*
X114133368Y-118846525D01*
X113926525Y-119053368D01*
X113810000Y-119227760D01*
X113693475Y-119053368D01*
X113486632Y-118846525D01*
X113243411Y-118684010D01*
X112973158Y-118572068D01*
X112686260Y-118515000D01*
X112393740Y-118515000D01*
X112106842Y-118572068D01*
X111836589Y-118684010D01*
X111593368Y-118846525D01*
X111386525Y-119053368D01*
X111270000Y-119227760D01*
X111153475Y-119053368D01*
X110946632Y-118846525D01*
X110703411Y-118684010D01*
X110433158Y-118572068D01*
X110146260Y-118515000D01*
X109853740Y-118515000D01*
X109566842Y-118572068D01*
X109296589Y-118684010D01*
X109053368Y-118846525D01*
X108846525Y-119053368D01*
X108730000Y-119227760D01*
X108613475Y-119053368D01*
X108406632Y-118846525D01*
X108163411Y-118684010D01*
X107893158Y-118572068D01*
X107606260Y-118515000D01*
X107313740Y-118515000D01*
X107026842Y-118572068D01*
X106756589Y-118684010D01*
X106513368Y-118846525D01*
X106381513Y-118978380D01*
X106359502Y-118905820D01*
X106300537Y-118795506D01*
X106221185Y-118698815D01*
X106124494Y-118619463D01*
X106014180Y-118560498D01*
X105894482Y-118524188D01*
X105770000Y-118511928D01*
X104070000Y-118511928D01*
X103945518Y-118524188D01*
X103825820Y-118560498D01*
X103715506Y-118619463D01*
X103618815Y-118698815D01*
X103539463Y-118795506D01*
X103480498Y-118905820D01*
X103444188Y-119025518D01*
X103431928Y-119150000D01*
X101258134Y-119150000D01*
X101153475Y-118993368D01*
X100946632Y-118786525D01*
X100772240Y-118670000D01*
X100946632Y-118553475D01*
X101153475Y-118346632D01*
X101315990Y-118103411D01*
X101427932Y-117833158D01*
X101485000Y-117546260D01*
X101485000Y-117253740D01*
X101427932Y-116966842D01*
X101315990Y-116696589D01*
X101153475Y-116453368D01*
X100946632Y-116246525D01*
X100772240Y-116130000D01*
X100946632Y-116013475D01*
X101153475Y-115806632D01*
X101315990Y-115563411D01*
X101427932Y-115293158D01*
X101485000Y-115006260D01*
X101485000Y-114713740D01*
X101427932Y-114426842D01*
X101315990Y-114156589D01*
X101153475Y-113913368D01*
X100946632Y-113706525D01*
X100772240Y-113590000D01*
X100946632Y-113473475D01*
X101153475Y-113266632D01*
X101315990Y-113023411D01*
X101367911Y-112898061D01*
X103965000Y-112898061D01*
X103965000Y-113101939D01*
X104004774Y-113301898D01*
X104082795Y-113490256D01*
X104106010Y-113525000D01*
X104082795Y-113559744D01*
X104004774Y-113748102D01*
X103965000Y-113948061D01*
X103965000Y-114151939D01*
X104004774Y-114351898D01*
X104082795Y-114540256D01*
X104106010Y-114575000D01*
X104082795Y-114609744D01*
X104004774Y-114798102D01*
X103965000Y-114998061D01*
X103965000Y-115201939D01*
X104004774Y-115401898D01*
X104082795Y-115590256D01*
X104196063Y-115759774D01*
X104340226Y-115903937D01*
X104509744Y-116017205D01*
X104698102Y-116095226D01*
X104898061Y-116135000D01*
X105101939Y-116135000D01*
X105301898Y-116095226D01*
X105490256Y-116017205D01*
X105659774Y-115903937D01*
X105803937Y-115759774D01*
X105917205Y-115590256D01*
X105995226Y-115401898D01*
X106035000Y-115201939D01*
X106035000Y-114998061D01*
X105995226Y-114798102D01*
X105917205Y-114609744D01*
X105893990Y-114575000D01*
X105917205Y-114540256D01*
X105995226Y-114351898D01*
X106035000Y-114151939D01*
X106035000Y-113948061D01*
X105995226Y-113748102D01*
X105917205Y-113559744D01*
X105893990Y-113525000D01*
X105917205Y-113490256D01*
X105995226Y-113301898D01*
X106035000Y-113101939D01*
X106035000Y-112898061D01*
X108465000Y-112898061D01*
X108465000Y-113101939D01*
X108504774Y-113301898D01*
X108582795Y-113490256D01*
X108606010Y-113525000D01*
X108582795Y-113559744D01*
X108504774Y-113748102D01*
X108465000Y-113948061D01*
X108465000Y-114151939D01*
X108504774Y-114351898D01*
X108582795Y-114540256D01*
X108606010Y-114575000D01*
X108582795Y-114609744D01*
X108504774Y-114798102D01*
X108465000Y-114998061D01*
X108465000Y-115201939D01*
X108504774Y-115401898D01*
X108582795Y-115590256D01*
X108696063Y-115759774D01*
X108840226Y-115903937D01*
X109009744Y-116017205D01*
X109198102Y-116095226D01*
X109398061Y-116135000D01*
X109601939Y-116135000D01*
X109801898Y-116095226D01*
X109990256Y-116017205D01*
X110159774Y-115903937D01*
X110303937Y-115759774D01*
X110417205Y-115590256D01*
X110495226Y-115401898D01*
X110535000Y-115201939D01*
X110535000Y-114998061D01*
X110495226Y-114798102D01*
X110417205Y-114609744D01*
X110393990Y-114575000D01*
X110417205Y-114540256D01*
X110495226Y-114351898D01*
X110535000Y-114151939D01*
X110535000Y-113948061D01*
X110495226Y-113748102D01*
X110417205Y-113559744D01*
X110393990Y-113525000D01*
X110417205Y-113490256D01*
X110495226Y-113301898D01*
X110535000Y-113101939D01*
X110535000Y-112898061D01*
X110515109Y-112798061D01*
X112965000Y-112798061D01*
X112965000Y-113001939D01*
X113004774Y-113201898D01*
X113082795Y-113390256D01*
X113122715Y-113450000D01*
X113082795Y-113509744D01*
X113004774Y-113698102D01*
X112965000Y-113898061D01*
X112965000Y-114101939D01*
X113004774Y-114301898D01*
X113082795Y-114490256D01*
X113106010Y-114525000D01*
X113082795Y-114559744D01*
X113004774Y-114748102D01*
X112965000Y-114948061D01*
X112965000Y-115151939D01*
X113004774Y-115351898D01*
X113082795Y-115540256D01*
X113196063Y-115709774D01*
X113340226Y-115853937D01*
X113509744Y-115967205D01*
X113698102Y-116045226D01*
X113898061Y-116085000D01*
X114101939Y-116085000D01*
X114301898Y-116045226D01*
X114490256Y-115967205D01*
X114659774Y-115853937D01*
X114803937Y-115709774D01*
X114917205Y-115540256D01*
X114995226Y-115351898D01*
X115035000Y-115151939D01*
X115035000Y-114948061D01*
X114995226Y-114748102D01*
X114917205Y-114559744D01*
X114893990Y-114525000D01*
X114917205Y-114490256D01*
X114995226Y-114301898D01*
X115035000Y-114101939D01*
X115035000Y-113898061D01*
X114995226Y-113698102D01*
X114917205Y-113509744D01*
X114877285Y-113450000D01*
X114917205Y-113390256D01*
X114995226Y-113201898D01*
X115035000Y-113001939D01*
X115035000Y-112798061D01*
X114995226Y-112598102D01*
X114917205Y-112409744D01*
X114803937Y-112240226D01*
X114659774Y-112096063D01*
X114490256Y-111982795D01*
X114301898Y-111904774D01*
X114101939Y-111865000D01*
X113898061Y-111865000D01*
X113698102Y-111904774D01*
X113509744Y-111982795D01*
X113340226Y-112096063D01*
X113196063Y-112240226D01*
X113082795Y-112409744D01*
X113004774Y-112598102D01*
X112965000Y-112798061D01*
X110515109Y-112798061D01*
X110495226Y-112698102D01*
X110417205Y-112509744D01*
X110303937Y-112340226D01*
X110159774Y-112196063D01*
X109990256Y-112082795D01*
X109801898Y-112004774D01*
X109601939Y-111965000D01*
X109398061Y-111965000D01*
X109198102Y-112004774D01*
X109009744Y-112082795D01*
X108840226Y-112196063D01*
X108696063Y-112340226D01*
X108582795Y-112509744D01*
X108504774Y-112698102D01*
X108465000Y-112898061D01*
X106035000Y-112898061D01*
X105995226Y-112698102D01*
X105917205Y-112509744D01*
X105803937Y-112340226D01*
X105659774Y-112196063D01*
X105490256Y-112082795D01*
X105301898Y-112004774D01*
X105101939Y-111965000D01*
X104898061Y-111965000D01*
X104698102Y-112004774D01*
X104509744Y-112082795D01*
X104340226Y-112196063D01*
X104196063Y-112340226D01*
X104082795Y-112509744D01*
X104004774Y-112698102D01*
X103965000Y-112898061D01*
X101367911Y-112898061D01*
X101427932Y-112753158D01*
X101485000Y-112466260D01*
X101485000Y-112173740D01*
X101427932Y-111886842D01*
X101315990Y-111616589D01*
X101153475Y-111373368D01*
X100946632Y-111166525D01*
X100772240Y-111050000D01*
X100946632Y-110933475D01*
X101153475Y-110726632D01*
X101315990Y-110483411D01*
X101427932Y-110213158D01*
X101485000Y-109926260D01*
X101485000Y-109633740D01*
X101427932Y-109346842D01*
X101315990Y-109076589D01*
X101153475Y-108833368D01*
X100946632Y-108626525D01*
X100772240Y-108510000D01*
X100946632Y-108393475D01*
X101153475Y-108186632D01*
X101315990Y-107943411D01*
X101427932Y-107673158D01*
X101485000Y-107386260D01*
X101485000Y-107093740D01*
X101427932Y-106806842D01*
X101315990Y-106536589D01*
X101153475Y-106293368D01*
X100946632Y-106086525D01*
X100772240Y-105970000D01*
X100946632Y-105853475D01*
X101153475Y-105646632D01*
X101315990Y-105403411D01*
X101427932Y-105133158D01*
X101485000Y-104846260D01*
X101485000Y-104553740D01*
X101444088Y-104348061D01*
X105415000Y-104348061D01*
X105415000Y-104551939D01*
X105454774Y-104751898D01*
X105532795Y-104940256D01*
X105646063Y-105109774D01*
X105790226Y-105253937D01*
X105959744Y-105367205D01*
X106148102Y-105445226D01*
X106348061Y-105485000D01*
X106551939Y-105485000D01*
X106751898Y-105445226D01*
X106940256Y-105367205D01*
X107109774Y-105253937D01*
X107253937Y-105109774D01*
X107367205Y-104940256D01*
X107445226Y-104751898D01*
X107485000Y-104551939D01*
X107485000Y-104513061D01*
X109815000Y-104513061D01*
X109815000Y-104716939D01*
X109854774Y-104916898D01*
X109932795Y-105105256D01*
X110046063Y-105274774D01*
X110190226Y-105418937D01*
X110359744Y-105532205D01*
X110548102Y-105610226D01*
X110748061Y-105650000D01*
X110951939Y-105650000D01*
X111151898Y-105610226D01*
X111340256Y-105532205D01*
X111509774Y-105418937D01*
X111653937Y-105274774D01*
X111767205Y-105105256D01*
X111845226Y-104916898D01*
X111885000Y-104716939D01*
X111885000Y-104513061D01*
X114215000Y-104513061D01*
X114215000Y-104716939D01*
X114254774Y-104916898D01*
X114332795Y-105105256D01*
X114446063Y-105274774D01*
X114590226Y-105418937D01*
X114759744Y-105532205D01*
X114948102Y-105610226D01*
X115148061Y-105650000D01*
X115351939Y-105650000D01*
X115551898Y-105610226D01*
X115740256Y-105532205D01*
X115909774Y-105418937D01*
X116053937Y-105274774D01*
X116167205Y-105105256D01*
X116245226Y-104916898D01*
X116285000Y-104716939D01*
X116285000Y-104513061D01*
X116245226Y-104313102D01*
X116167205Y-104124744D01*
X116053937Y-103955226D01*
X115909774Y-103811063D01*
X115740256Y-103697795D01*
X115551898Y-103619774D01*
X115351939Y-103580000D01*
X115148061Y-103580000D01*
X114948102Y-103619774D01*
X114759744Y-103697795D01*
X114590226Y-103811063D01*
X114446063Y-103955226D01*
X114332795Y-104124744D01*
X114254774Y-104313102D01*
X114215000Y-104513061D01*
X111885000Y-104513061D01*
X111845226Y-104313102D01*
X111767205Y-104124744D01*
X111653937Y-103955226D01*
X111509774Y-103811063D01*
X111340256Y-103697795D01*
X111151898Y-103619774D01*
X110951939Y-103580000D01*
X110748061Y-103580000D01*
X110548102Y-103619774D01*
X110359744Y-103697795D01*
X110190226Y-103811063D01*
X110046063Y-103955226D01*
X109932795Y-104124744D01*
X109854774Y-104313102D01*
X109815000Y-104513061D01*
X107485000Y-104513061D01*
X107485000Y-104348061D01*
X107445226Y-104148102D01*
X107367205Y-103959744D01*
X107253937Y-103790226D01*
X107109774Y-103646063D01*
X106940256Y-103532795D01*
X106751898Y-103454774D01*
X106551939Y-103415000D01*
X106348061Y-103415000D01*
X106148102Y-103454774D01*
X105959744Y-103532795D01*
X105790226Y-103646063D01*
X105646063Y-103790226D01*
X105532795Y-103959744D01*
X105454774Y-104148102D01*
X105415000Y-104348061D01*
X101444088Y-104348061D01*
X101427932Y-104266842D01*
X101315990Y-103996589D01*
X101153475Y-103753368D01*
X100946632Y-103546525D01*
X100772240Y-103430000D01*
X100946632Y-103313475D01*
X101153475Y-103106632D01*
X101315990Y-102863411D01*
X101427932Y-102593158D01*
X101485000Y-102306260D01*
X101485000Y-102013740D01*
X101427932Y-101726842D01*
X101315990Y-101456589D01*
X101153475Y-101213368D01*
X100946632Y-101006525D01*
X100772240Y-100890000D01*
X100946632Y-100773475D01*
X101153475Y-100566632D01*
X101315990Y-100323411D01*
X101427932Y-100053158D01*
X101485000Y-99766260D01*
X101485000Y-99473740D01*
X101427932Y-99186842D01*
X101315990Y-98916589D01*
X101153475Y-98673368D01*
X100946632Y-98466525D01*
X100764466Y-98344805D01*
X100881355Y-98275178D01*
X101097588Y-98080269D01*
X101271641Y-97846920D01*
X101396825Y-97584099D01*
X101441476Y-97436890D01*
X101320155Y-97207000D01*
X100127000Y-97207000D01*
X100127000Y-97227000D01*
X99873000Y-97227000D01*
X99873000Y-97207000D01*
X99853000Y-97207000D01*
X99853000Y-96953000D01*
X99873000Y-96953000D01*
X99873000Y-96933000D01*
X100127000Y-96933000D01*
X100127000Y-96953000D01*
X101320155Y-96953000D01*
X101441476Y-96723110D01*
X101396825Y-96575901D01*
X101271641Y-96313080D01*
X101097588Y-96079731D01*
X100881355Y-95884822D01*
X100764466Y-95815195D01*
X100946632Y-95693475D01*
X101042046Y-95598061D01*
X102615000Y-95598061D01*
X102615000Y-95801939D01*
X102654774Y-96001898D01*
X102732795Y-96190256D01*
X102846063Y-96359774D01*
X102990226Y-96503937D01*
X103159744Y-96617205D01*
X103348102Y-96695226D01*
X103548061Y-96735000D01*
X103751939Y-96735000D01*
X103951898Y-96695226D01*
X104140256Y-96617205D01*
X104309774Y-96503937D01*
X104385737Y-96427974D01*
X104548098Y-96495226D01*
X104748057Y-96535000D01*
X104951935Y-96535000D01*
X105151894Y-96495226D01*
X105340252Y-96417205D01*
X105509770Y-96303937D01*
X105653933Y-96159774D01*
X105767201Y-95990256D01*
X105845222Y-95801898D01*
X105884996Y-95601939D01*
X105884996Y-95398061D01*
X105845222Y-95198102D01*
X105767201Y-95009744D01*
X105653933Y-94840226D01*
X105509770Y-94696063D01*
X105340252Y-94582795D01*
X105151894Y-94504774D01*
X104951935Y-94465000D01*
X104748057Y-94465000D01*
X104548098Y-94504774D01*
X104359740Y-94582795D01*
X104190222Y-94696063D01*
X104114259Y-94772026D01*
X103951898Y-94704774D01*
X103751939Y-94665000D01*
X103548061Y-94665000D01*
X103348102Y-94704774D01*
X103159744Y-94782795D01*
X102990226Y-94896063D01*
X102846063Y-95040226D01*
X102732795Y-95209744D01*
X102654774Y-95398102D01*
X102615000Y-95598061D01*
X101042046Y-95598061D01*
X101153475Y-95486632D01*
X101315990Y-95243411D01*
X101427932Y-94973158D01*
X101485000Y-94686260D01*
X101485000Y-94393740D01*
X101427932Y-94106842D01*
X101315990Y-93836589D01*
X101153475Y-93593368D01*
X101021620Y-93461513D01*
X101094180Y-93439502D01*
X101204494Y-93380537D01*
X101301185Y-93301185D01*
X101380537Y-93204494D01*
X101439502Y-93094180D01*
X101475812Y-92974482D01*
X101488072Y-92850000D01*
X101488072Y-91160000D01*
X113471928Y-91160000D01*
X113471928Y-92850000D01*
M02*
