M48
; DRILL file {KiCad (5.1.5)-3} date 07/22/20 22:43:49
; FORMAT={-:-/ absolute / inch / decimal}
; #@! TF.CreationDate,2020-07-22T22:43:49-05:00
; #@! TF.GenerationSoftware,Kicad,Pcbnew,(5.1.5)-3
; #@! TF.FileFunction,Plated,1,4,PTH
FMAT,2
INCH
T1C0.0157
T2C0.0300
T3C0.0315
T4C0.0394
T5C0.0433
%
G90
G05
T1
X4.0807Y-3.7677
X4.128Y-3.7598
X4.1339Y-4.4488
X4.1339Y-4.4902
X4.1339Y-4.5315
X4.1909Y-4.1122
X4.2028Y-4.4291
X4.2028Y-4.5472
X4.311Y-4.4488
X4.311Y-4.4902
X4.311Y-4.5315
X4.3642Y-4.1187
X4.3799Y-4.4291
X4.3799Y-4.5472
X4.4882Y-4.4449
X4.4882Y-4.4882
X4.4882Y-4.5295
X4.5374Y-4.1187
X4.5571Y-4.4291
X4.5571Y-4.5472
X4.6457Y-3.9173
X4.6457Y-4.0157
T2
X4.7244Y-4.9409
X4.7244Y-5.0409
X4.7244Y-5.1409
X4.7244Y-5.2409
X4.8244Y-4.9409
X4.8244Y-5.0409
X4.8244Y-5.1409
X4.8244Y-5.2409
T3
X4.0433Y-4.8575
X4.0433Y-5.1575
X4.1433Y-4.8575
X4.1433Y-5.1575
X4.2433Y-4.8575
X4.2433Y-5.1575
X4.3433Y-4.8575
X4.3433Y-5.1575
X4.4433Y-4.8575
X4.4433Y-5.1575
X4.5433Y-4.8575
X4.5433Y-5.1575
T4
X3.937Y-3.622
X3.937Y-3.722
X3.937Y-3.822
X3.937Y-3.922
X3.937Y-4.022
X3.937Y-4.122
X3.937Y-4.222
X3.937Y-4.322
X3.937Y-4.422
X3.937Y-4.522
X3.937Y-4.622
X3.937Y-4.722
X4.8228Y-3.6244
X4.8228Y-3.7244
X4.8228Y-3.8244
X4.8228Y-3.9244
X4.8228Y-4.0244
X4.8228Y-4.1244
X4.8228Y-4.2244
X4.8228Y-4.3244
X4.8228Y-4.4244
X4.8228Y-4.5244
X4.8228Y-4.6244
X4.8228Y-4.7244
X4.1307Y-4.7244
X4.2307Y-4.7244
X4.3307Y-4.7244
X4.4307Y-4.7244
X4.5307Y-4.7244
X4.6307Y-4.7244
X4.526Y-3.622
X4.626Y-3.622
T5
X4.1484Y-5.3465
X4.2484Y-5.3465
X4.3484Y-5.3465
X4.4484Y-5.3465
T0
M30
