G04 #@! TF.GenerationSoftware,KiCad,Pcbnew,(5.1.5)-3*
G04 #@! TF.CreationDate,2020-07-01T18:11:23-05:00*
G04 #@! TF.ProjectId,LightDriverShieldVer2,4c696768-7444-4726-9976-657253686965,rev?*
G04 #@! TF.SameCoordinates,Original*
G04 #@! TF.FileFunction,Copper,L1,Top*
G04 #@! TF.FilePolarity,Positive*
%FSLAX46Y46*%
G04 Gerber Fmt 4.6, Leading zero omitted, Abs format (unit mm)*
G04 Created by KiCad (PCBNEW (5.1.5)-3) date 2020-07-01 18:11:23*
%MOMM*%
%LPD*%
G04 APERTURE LIST*
%ADD10R,0.900000X0.800000*%
%ADD11R,0.450000X1.450000*%
%ADD12C,0.100000*%
%ADD13O,1.700000X1.700000*%
%ADD14R,1.700000X1.700000*%
%ADD15C,1.524000*%
%ADD16R,1.524000X1.524000*%
%ADD17O,1.600000X1.600000*%
%ADD18R,1.600000X1.600000*%
%ADD19R,0.800000X0.900000*%
%ADD20C,2.100000*%
%ADD21R,2.100000X2.100000*%
%ADD22C,0.800000*%
%ADD23C,0.250000*%
%ADD24C,0.500000*%
%ADD25C,0.750000*%
%ADD26C,0.254000*%
G04 APERTURE END LIST*
D10*
X116050000Y-107800000D03*
X114050000Y-108750000D03*
X114050000Y-106850000D03*
X102150000Y-98050000D03*
X104150000Y-97100000D03*
X104150000Y-99000000D03*
X111550000Y-107800000D03*
X109550000Y-108750000D03*
X109550000Y-106850000D03*
X107100000Y-107850000D03*
X105100000Y-108800000D03*
X105100000Y-106900000D03*
D11*
X105775000Y-111050000D03*
X106425000Y-111050000D03*
X107075000Y-111050000D03*
X107725000Y-111050000D03*
X107725000Y-116950000D03*
X107075000Y-116950000D03*
X106425000Y-116950000D03*
X105775000Y-116950000D03*
X114775000Y-111050000D03*
X115425000Y-111050000D03*
X116075000Y-111050000D03*
X116725000Y-111050000D03*
X116725000Y-116950000D03*
X116075000Y-116950000D03*
X115425000Y-116950000D03*
X114775000Y-116950000D03*
X110275000Y-111050000D03*
X110925000Y-111050000D03*
X111575000Y-111050000D03*
X112225000Y-111050000D03*
X112225000Y-116950000D03*
X111575000Y-116950000D03*
X110925000Y-116950000D03*
X110275000Y-116950000D03*
G04 #@! TA.AperFunction,SMDPad,CuDef*
D12*
G36*
X117186958Y-103470710D02*
G01*
X117201276Y-103472834D01*
X117215317Y-103476351D01*
X117228946Y-103481228D01*
X117242031Y-103487417D01*
X117254447Y-103494858D01*
X117266073Y-103503481D01*
X117276798Y-103513202D01*
X117286519Y-103523927D01*
X117295142Y-103535553D01*
X117302583Y-103547969D01*
X117308772Y-103561054D01*
X117313649Y-103574683D01*
X117317166Y-103588724D01*
X117319290Y-103603042D01*
X117320000Y-103617500D01*
X117320000Y-103912500D01*
X117319290Y-103926958D01*
X117317166Y-103941276D01*
X117313649Y-103955317D01*
X117308772Y-103968946D01*
X117302583Y-103982031D01*
X117295142Y-103994447D01*
X117286519Y-104006073D01*
X117276798Y-104016798D01*
X117266073Y-104026519D01*
X117254447Y-104035142D01*
X117242031Y-104042583D01*
X117228946Y-104048772D01*
X117215317Y-104053649D01*
X117201276Y-104057166D01*
X117186958Y-104059290D01*
X117172500Y-104060000D01*
X116827500Y-104060000D01*
X116813042Y-104059290D01*
X116798724Y-104057166D01*
X116784683Y-104053649D01*
X116771054Y-104048772D01*
X116757969Y-104042583D01*
X116745553Y-104035142D01*
X116733927Y-104026519D01*
X116723202Y-104016798D01*
X116713481Y-104006073D01*
X116704858Y-103994447D01*
X116697417Y-103982031D01*
X116691228Y-103968946D01*
X116686351Y-103955317D01*
X116682834Y-103941276D01*
X116680710Y-103926958D01*
X116680000Y-103912500D01*
X116680000Y-103617500D01*
X116680710Y-103603042D01*
X116682834Y-103588724D01*
X116686351Y-103574683D01*
X116691228Y-103561054D01*
X116697417Y-103547969D01*
X116704858Y-103535553D01*
X116713481Y-103523927D01*
X116723202Y-103513202D01*
X116733927Y-103503481D01*
X116745553Y-103494858D01*
X116757969Y-103487417D01*
X116771054Y-103481228D01*
X116784683Y-103476351D01*
X116798724Y-103472834D01*
X116813042Y-103470710D01*
X116827500Y-103470000D01*
X117172500Y-103470000D01*
X117186958Y-103470710D01*
G37*
G04 #@! TD.AperFunction*
G04 #@! TA.AperFunction,SMDPad,CuDef*
G36*
X117186958Y-104440710D02*
G01*
X117201276Y-104442834D01*
X117215317Y-104446351D01*
X117228946Y-104451228D01*
X117242031Y-104457417D01*
X117254447Y-104464858D01*
X117266073Y-104473481D01*
X117276798Y-104483202D01*
X117286519Y-104493927D01*
X117295142Y-104505553D01*
X117302583Y-104517969D01*
X117308772Y-104531054D01*
X117313649Y-104544683D01*
X117317166Y-104558724D01*
X117319290Y-104573042D01*
X117320000Y-104587500D01*
X117320000Y-104882500D01*
X117319290Y-104896958D01*
X117317166Y-104911276D01*
X117313649Y-104925317D01*
X117308772Y-104938946D01*
X117302583Y-104952031D01*
X117295142Y-104964447D01*
X117286519Y-104976073D01*
X117276798Y-104986798D01*
X117266073Y-104996519D01*
X117254447Y-105005142D01*
X117242031Y-105012583D01*
X117228946Y-105018772D01*
X117215317Y-105023649D01*
X117201276Y-105027166D01*
X117186958Y-105029290D01*
X117172500Y-105030000D01*
X116827500Y-105030000D01*
X116813042Y-105029290D01*
X116798724Y-105027166D01*
X116784683Y-105023649D01*
X116771054Y-105018772D01*
X116757969Y-105012583D01*
X116745553Y-105005142D01*
X116733927Y-104996519D01*
X116723202Y-104986798D01*
X116713481Y-104976073D01*
X116704858Y-104964447D01*
X116697417Y-104952031D01*
X116691228Y-104938946D01*
X116686351Y-104925317D01*
X116682834Y-104911276D01*
X116680710Y-104896958D01*
X116680000Y-104882500D01*
X116680000Y-104587500D01*
X116680710Y-104573042D01*
X116682834Y-104558724D01*
X116686351Y-104544683D01*
X116691228Y-104531054D01*
X116697417Y-104517969D01*
X116704858Y-104505553D01*
X116713481Y-104493927D01*
X116723202Y-104483202D01*
X116733927Y-104473481D01*
X116745553Y-104464858D01*
X116757969Y-104457417D01*
X116771054Y-104451228D01*
X116784683Y-104446351D01*
X116798724Y-104442834D01*
X116813042Y-104440710D01*
X116827500Y-104440000D01*
X117172500Y-104440000D01*
X117186958Y-104440710D01*
G37*
G04 #@! TD.AperFunction*
G04 #@! TA.AperFunction,SMDPad,CuDef*
G36*
X114441958Y-105180710D02*
G01*
X114456276Y-105182834D01*
X114470317Y-105186351D01*
X114483946Y-105191228D01*
X114497031Y-105197417D01*
X114509447Y-105204858D01*
X114521073Y-105213481D01*
X114531798Y-105223202D01*
X114541519Y-105233927D01*
X114550142Y-105245553D01*
X114557583Y-105257969D01*
X114563772Y-105271054D01*
X114568649Y-105284683D01*
X114572166Y-105298724D01*
X114574290Y-105313042D01*
X114575000Y-105327500D01*
X114575000Y-105672500D01*
X114574290Y-105686958D01*
X114572166Y-105701276D01*
X114568649Y-105715317D01*
X114563772Y-105728946D01*
X114557583Y-105742031D01*
X114550142Y-105754447D01*
X114541519Y-105766073D01*
X114531798Y-105776798D01*
X114521073Y-105786519D01*
X114509447Y-105795142D01*
X114497031Y-105802583D01*
X114483946Y-105808772D01*
X114470317Y-105813649D01*
X114456276Y-105817166D01*
X114441958Y-105819290D01*
X114427500Y-105820000D01*
X114132500Y-105820000D01*
X114118042Y-105819290D01*
X114103724Y-105817166D01*
X114089683Y-105813649D01*
X114076054Y-105808772D01*
X114062969Y-105802583D01*
X114050553Y-105795142D01*
X114038927Y-105786519D01*
X114028202Y-105776798D01*
X114018481Y-105766073D01*
X114009858Y-105754447D01*
X114002417Y-105742031D01*
X113996228Y-105728946D01*
X113991351Y-105715317D01*
X113987834Y-105701276D01*
X113985710Y-105686958D01*
X113985000Y-105672500D01*
X113985000Y-105327500D01*
X113985710Y-105313042D01*
X113987834Y-105298724D01*
X113991351Y-105284683D01*
X113996228Y-105271054D01*
X114002417Y-105257969D01*
X114009858Y-105245553D01*
X114018481Y-105233927D01*
X114028202Y-105223202D01*
X114038927Y-105213481D01*
X114050553Y-105204858D01*
X114062969Y-105197417D01*
X114076054Y-105191228D01*
X114089683Y-105186351D01*
X114103724Y-105182834D01*
X114118042Y-105180710D01*
X114132500Y-105180000D01*
X114427500Y-105180000D01*
X114441958Y-105180710D01*
G37*
G04 #@! TD.AperFunction*
G04 #@! TA.AperFunction,SMDPad,CuDef*
G36*
X115411958Y-105180710D02*
G01*
X115426276Y-105182834D01*
X115440317Y-105186351D01*
X115453946Y-105191228D01*
X115467031Y-105197417D01*
X115479447Y-105204858D01*
X115491073Y-105213481D01*
X115501798Y-105223202D01*
X115511519Y-105233927D01*
X115520142Y-105245553D01*
X115527583Y-105257969D01*
X115533772Y-105271054D01*
X115538649Y-105284683D01*
X115542166Y-105298724D01*
X115544290Y-105313042D01*
X115545000Y-105327500D01*
X115545000Y-105672500D01*
X115544290Y-105686958D01*
X115542166Y-105701276D01*
X115538649Y-105715317D01*
X115533772Y-105728946D01*
X115527583Y-105742031D01*
X115520142Y-105754447D01*
X115511519Y-105766073D01*
X115501798Y-105776798D01*
X115491073Y-105786519D01*
X115479447Y-105795142D01*
X115467031Y-105802583D01*
X115453946Y-105808772D01*
X115440317Y-105813649D01*
X115426276Y-105817166D01*
X115411958Y-105819290D01*
X115397500Y-105820000D01*
X115102500Y-105820000D01*
X115088042Y-105819290D01*
X115073724Y-105817166D01*
X115059683Y-105813649D01*
X115046054Y-105808772D01*
X115032969Y-105802583D01*
X115020553Y-105795142D01*
X115008927Y-105786519D01*
X114998202Y-105776798D01*
X114988481Y-105766073D01*
X114979858Y-105754447D01*
X114972417Y-105742031D01*
X114966228Y-105728946D01*
X114961351Y-105715317D01*
X114957834Y-105701276D01*
X114955710Y-105686958D01*
X114955000Y-105672500D01*
X114955000Y-105327500D01*
X114955710Y-105313042D01*
X114957834Y-105298724D01*
X114961351Y-105284683D01*
X114966228Y-105271054D01*
X114972417Y-105257969D01*
X114979858Y-105245553D01*
X114988481Y-105233927D01*
X114998202Y-105223202D01*
X115008927Y-105213481D01*
X115020553Y-105204858D01*
X115032969Y-105197417D01*
X115046054Y-105191228D01*
X115059683Y-105186351D01*
X115073724Y-105182834D01*
X115088042Y-105180710D01*
X115102500Y-105180000D01*
X115397500Y-105180000D01*
X115411958Y-105180710D01*
G37*
G04 #@! TD.AperFunction*
G04 #@! TA.AperFunction,SMDPad,CuDef*
G36*
X112686958Y-103470710D02*
G01*
X112701276Y-103472834D01*
X112715317Y-103476351D01*
X112728946Y-103481228D01*
X112742031Y-103487417D01*
X112754447Y-103494858D01*
X112766073Y-103503481D01*
X112776798Y-103513202D01*
X112786519Y-103523927D01*
X112795142Y-103535553D01*
X112802583Y-103547969D01*
X112808772Y-103561054D01*
X112813649Y-103574683D01*
X112817166Y-103588724D01*
X112819290Y-103603042D01*
X112820000Y-103617500D01*
X112820000Y-103912500D01*
X112819290Y-103926958D01*
X112817166Y-103941276D01*
X112813649Y-103955317D01*
X112808772Y-103968946D01*
X112802583Y-103982031D01*
X112795142Y-103994447D01*
X112786519Y-104006073D01*
X112776798Y-104016798D01*
X112766073Y-104026519D01*
X112754447Y-104035142D01*
X112742031Y-104042583D01*
X112728946Y-104048772D01*
X112715317Y-104053649D01*
X112701276Y-104057166D01*
X112686958Y-104059290D01*
X112672500Y-104060000D01*
X112327500Y-104060000D01*
X112313042Y-104059290D01*
X112298724Y-104057166D01*
X112284683Y-104053649D01*
X112271054Y-104048772D01*
X112257969Y-104042583D01*
X112245553Y-104035142D01*
X112233927Y-104026519D01*
X112223202Y-104016798D01*
X112213481Y-104006073D01*
X112204858Y-103994447D01*
X112197417Y-103982031D01*
X112191228Y-103968946D01*
X112186351Y-103955317D01*
X112182834Y-103941276D01*
X112180710Y-103926958D01*
X112180000Y-103912500D01*
X112180000Y-103617500D01*
X112180710Y-103603042D01*
X112182834Y-103588724D01*
X112186351Y-103574683D01*
X112191228Y-103561054D01*
X112197417Y-103547969D01*
X112204858Y-103535553D01*
X112213481Y-103523927D01*
X112223202Y-103513202D01*
X112233927Y-103503481D01*
X112245553Y-103494858D01*
X112257969Y-103487417D01*
X112271054Y-103481228D01*
X112284683Y-103476351D01*
X112298724Y-103472834D01*
X112313042Y-103470710D01*
X112327500Y-103470000D01*
X112672500Y-103470000D01*
X112686958Y-103470710D01*
G37*
G04 #@! TD.AperFunction*
G04 #@! TA.AperFunction,SMDPad,CuDef*
G36*
X112686958Y-104440710D02*
G01*
X112701276Y-104442834D01*
X112715317Y-104446351D01*
X112728946Y-104451228D01*
X112742031Y-104457417D01*
X112754447Y-104464858D01*
X112766073Y-104473481D01*
X112776798Y-104483202D01*
X112786519Y-104493927D01*
X112795142Y-104505553D01*
X112802583Y-104517969D01*
X112808772Y-104531054D01*
X112813649Y-104544683D01*
X112817166Y-104558724D01*
X112819290Y-104573042D01*
X112820000Y-104587500D01*
X112820000Y-104882500D01*
X112819290Y-104896958D01*
X112817166Y-104911276D01*
X112813649Y-104925317D01*
X112808772Y-104938946D01*
X112802583Y-104952031D01*
X112795142Y-104964447D01*
X112786519Y-104976073D01*
X112776798Y-104986798D01*
X112766073Y-104996519D01*
X112754447Y-105005142D01*
X112742031Y-105012583D01*
X112728946Y-105018772D01*
X112715317Y-105023649D01*
X112701276Y-105027166D01*
X112686958Y-105029290D01*
X112672500Y-105030000D01*
X112327500Y-105030000D01*
X112313042Y-105029290D01*
X112298724Y-105027166D01*
X112284683Y-105023649D01*
X112271054Y-105018772D01*
X112257969Y-105012583D01*
X112245553Y-105005142D01*
X112233927Y-104996519D01*
X112223202Y-104986798D01*
X112213481Y-104976073D01*
X112204858Y-104964447D01*
X112197417Y-104952031D01*
X112191228Y-104938946D01*
X112186351Y-104925317D01*
X112182834Y-104911276D01*
X112180710Y-104896958D01*
X112180000Y-104882500D01*
X112180000Y-104587500D01*
X112180710Y-104573042D01*
X112182834Y-104558724D01*
X112186351Y-104544683D01*
X112191228Y-104531054D01*
X112197417Y-104517969D01*
X112204858Y-104505553D01*
X112213481Y-104493927D01*
X112223202Y-104483202D01*
X112233927Y-104473481D01*
X112245553Y-104464858D01*
X112257969Y-104457417D01*
X112271054Y-104451228D01*
X112284683Y-104446351D01*
X112298724Y-104442834D01*
X112313042Y-104440710D01*
X112327500Y-104440000D01*
X112672500Y-104440000D01*
X112686958Y-104440710D01*
G37*
G04 #@! TD.AperFunction*
G04 #@! TA.AperFunction,SMDPad,CuDef*
G36*
X108186958Y-103470710D02*
G01*
X108201276Y-103472834D01*
X108215317Y-103476351D01*
X108228946Y-103481228D01*
X108242031Y-103487417D01*
X108254447Y-103494858D01*
X108266073Y-103503481D01*
X108276798Y-103513202D01*
X108286519Y-103523927D01*
X108295142Y-103535553D01*
X108302583Y-103547969D01*
X108308772Y-103561054D01*
X108313649Y-103574683D01*
X108317166Y-103588724D01*
X108319290Y-103603042D01*
X108320000Y-103617500D01*
X108320000Y-103912500D01*
X108319290Y-103926958D01*
X108317166Y-103941276D01*
X108313649Y-103955317D01*
X108308772Y-103968946D01*
X108302583Y-103982031D01*
X108295142Y-103994447D01*
X108286519Y-104006073D01*
X108276798Y-104016798D01*
X108266073Y-104026519D01*
X108254447Y-104035142D01*
X108242031Y-104042583D01*
X108228946Y-104048772D01*
X108215317Y-104053649D01*
X108201276Y-104057166D01*
X108186958Y-104059290D01*
X108172500Y-104060000D01*
X107827500Y-104060000D01*
X107813042Y-104059290D01*
X107798724Y-104057166D01*
X107784683Y-104053649D01*
X107771054Y-104048772D01*
X107757969Y-104042583D01*
X107745553Y-104035142D01*
X107733927Y-104026519D01*
X107723202Y-104016798D01*
X107713481Y-104006073D01*
X107704858Y-103994447D01*
X107697417Y-103982031D01*
X107691228Y-103968946D01*
X107686351Y-103955317D01*
X107682834Y-103941276D01*
X107680710Y-103926958D01*
X107680000Y-103912500D01*
X107680000Y-103617500D01*
X107680710Y-103603042D01*
X107682834Y-103588724D01*
X107686351Y-103574683D01*
X107691228Y-103561054D01*
X107697417Y-103547969D01*
X107704858Y-103535553D01*
X107713481Y-103523927D01*
X107723202Y-103513202D01*
X107733927Y-103503481D01*
X107745553Y-103494858D01*
X107757969Y-103487417D01*
X107771054Y-103481228D01*
X107784683Y-103476351D01*
X107798724Y-103472834D01*
X107813042Y-103470710D01*
X107827500Y-103470000D01*
X108172500Y-103470000D01*
X108186958Y-103470710D01*
G37*
G04 #@! TD.AperFunction*
G04 #@! TA.AperFunction,SMDPad,CuDef*
G36*
X108186958Y-104440710D02*
G01*
X108201276Y-104442834D01*
X108215317Y-104446351D01*
X108228946Y-104451228D01*
X108242031Y-104457417D01*
X108254447Y-104464858D01*
X108266073Y-104473481D01*
X108276798Y-104483202D01*
X108286519Y-104493927D01*
X108295142Y-104505553D01*
X108302583Y-104517969D01*
X108308772Y-104531054D01*
X108313649Y-104544683D01*
X108317166Y-104558724D01*
X108319290Y-104573042D01*
X108320000Y-104587500D01*
X108320000Y-104882500D01*
X108319290Y-104896958D01*
X108317166Y-104911276D01*
X108313649Y-104925317D01*
X108308772Y-104938946D01*
X108302583Y-104952031D01*
X108295142Y-104964447D01*
X108286519Y-104976073D01*
X108276798Y-104986798D01*
X108266073Y-104996519D01*
X108254447Y-105005142D01*
X108242031Y-105012583D01*
X108228946Y-105018772D01*
X108215317Y-105023649D01*
X108201276Y-105027166D01*
X108186958Y-105029290D01*
X108172500Y-105030000D01*
X107827500Y-105030000D01*
X107813042Y-105029290D01*
X107798724Y-105027166D01*
X107784683Y-105023649D01*
X107771054Y-105018772D01*
X107757969Y-105012583D01*
X107745553Y-105005142D01*
X107733927Y-104996519D01*
X107723202Y-104986798D01*
X107713481Y-104976073D01*
X107704858Y-104964447D01*
X107697417Y-104952031D01*
X107691228Y-104938946D01*
X107686351Y-104925317D01*
X107682834Y-104911276D01*
X107680710Y-104896958D01*
X107680000Y-104882500D01*
X107680000Y-104587500D01*
X107680710Y-104573042D01*
X107682834Y-104558724D01*
X107686351Y-104544683D01*
X107691228Y-104531054D01*
X107697417Y-104517969D01*
X107704858Y-104505553D01*
X107713481Y-104493927D01*
X107723202Y-104483202D01*
X107733927Y-104473481D01*
X107745553Y-104464858D01*
X107757969Y-104457417D01*
X107771054Y-104451228D01*
X107784683Y-104446351D01*
X107798724Y-104442834D01*
X107813042Y-104440710D01*
X107827500Y-104440000D01*
X108172500Y-104440000D01*
X108186958Y-104440710D01*
G37*
G04 #@! TD.AperFunction*
G04 #@! TA.AperFunction,SMDPad,CuDef*
G36*
X110026958Y-105130710D02*
G01*
X110041276Y-105132834D01*
X110055317Y-105136351D01*
X110068946Y-105141228D01*
X110082031Y-105147417D01*
X110094447Y-105154858D01*
X110106073Y-105163481D01*
X110116798Y-105173202D01*
X110126519Y-105183927D01*
X110135142Y-105195553D01*
X110142583Y-105207969D01*
X110148772Y-105221054D01*
X110153649Y-105234683D01*
X110157166Y-105248724D01*
X110159290Y-105263042D01*
X110160000Y-105277500D01*
X110160000Y-105622500D01*
X110159290Y-105636958D01*
X110157166Y-105651276D01*
X110153649Y-105665317D01*
X110148772Y-105678946D01*
X110142583Y-105692031D01*
X110135142Y-105704447D01*
X110126519Y-105716073D01*
X110116798Y-105726798D01*
X110106073Y-105736519D01*
X110094447Y-105745142D01*
X110082031Y-105752583D01*
X110068946Y-105758772D01*
X110055317Y-105763649D01*
X110041276Y-105767166D01*
X110026958Y-105769290D01*
X110012500Y-105770000D01*
X109717500Y-105770000D01*
X109703042Y-105769290D01*
X109688724Y-105767166D01*
X109674683Y-105763649D01*
X109661054Y-105758772D01*
X109647969Y-105752583D01*
X109635553Y-105745142D01*
X109623927Y-105736519D01*
X109613202Y-105726798D01*
X109603481Y-105716073D01*
X109594858Y-105704447D01*
X109587417Y-105692031D01*
X109581228Y-105678946D01*
X109576351Y-105665317D01*
X109572834Y-105651276D01*
X109570710Y-105636958D01*
X109570000Y-105622500D01*
X109570000Y-105277500D01*
X109570710Y-105263042D01*
X109572834Y-105248724D01*
X109576351Y-105234683D01*
X109581228Y-105221054D01*
X109587417Y-105207969D01*
X109594858Y-105195553D01*
X109603481Y-105183927D01*
X109613202Y-105173202D01*
X109623927Y-105163481D01*
X109635553Y-105154858D01*
X109647969Y-105147417D01*
X109661054Y-105141228D01*
X109674683Y-105136351D01*
X109688724Y-105132834D01*
X109703042Y-105130710D01*
X109717500Y-105130000D01*
X110012500Y-105130000D01*
X110026958Y-105130710D01*
G37*
G04 #@! TD.AperFunction*
G04 #@! TA.AperFunction,SMDPad,CuDef*
G36*
X110996958Y-105130710D02*
G01*
X111011276Y-105132834D01*
X111025317Y-105136351D01*
X111038946Y-105141228D01*
X111052031Y-105147417D01*
X111064447Y-105154858D01*
X111076073Y-105163481D01*
X111086798Y-105173202D01*
X111096519Y-105183927D01*
X111105142Y-105195553D01*
X111112583Y-105207969D01*
X111118772Y-105221054D01*
X111123649Y-105234683D01*
X111127166Y-105248724D01*
X111129290Y-105263042D01*
X111130000Y-105277500D01*
X111130000Y-105622500D01*
X111129290Y-105636958D01*
X111127166Y-105651276D01*
X111123649Y-105665317D01*
X111118772Y-105678946D01*
X111112583Y-105692031D01*
X111105142Y-105704447D01*
X111096519Y-105716073D01*
X111086798Y-105726798D01*
X111076073Y-105736519D01*
X111064447Y-105745142D01*
X111052031Y-105752583D01*
X111038946Y-105758772D01*
X111025317Y-105763649D01*
X111011276Y-105767166D01*
X110996958Y-105769290D01*
X110982500Y-105770000D01*
X110687500Y-105770000D01*
X110673042Y-105769290D01*
X110658724Y-105767166D01*
X110644683Y-105763649D01*
X110631054Y-105758772D01*
X110617969Y-105752583D01*
X110605553Y-105745142D01*
X110593927Y-105736519D01*
X110583202Y-105726798D01*
X110573481Y-105716073D01*
X110564858Y-105704447D01*
X110557417Y-105692031D01*
X110551228Y-105678946D01*
X110546351Y-105665317D01*
X110542834Y-105651276D01*
X110540710Y-105636958D01*
X110540000Y-105622500D01*
X110540000Y-105277500D01*
X110540710Y-105263042D01*
X110542834Y-105248724D01*
X110546351Y-105234683D01*
X110551228Y-105221054D01*
X110557417Y-105207969D01*
X110564858Y-105195553D01*
X110573481Y-105183927D01*
X110583202Y-105173202D01*
X110593927Y-105163481D01*
X110605553Y-105154858D01*
X110617969Y-105147417D01*
X110631054Y-105141228D01*
X110644683Y-105136351D01*
X110658724Y-105132834D01*
X110673042Y-105130710D01*
X110687500Y-105130000D01*
X110982500Y-105130000D01*
X110996958Y-105130710D01*
G37*
G04 #@! TD.AperFunction*
G04 #@! TA.AperFunction,SMDPad,CuDef*
G36*
X105626958Y-105130710D02*
G01*
X105641276Y-105132834D01*
X105655317Y-105136351D01*
X105668946Y-105141228D01*
X105682031Y-105147417D01*
X105694447Y-105154858D01*
X105706073Y-105163481D01*
X105716798Y-105173202D01*
X105726519Y-105183927D01*
X105735142Y-105195553D01*
X105742583Y-105207969D01*
X105748772Y-105221054D01*
X105753649Y-105234683D01*
X105757166Y-105248724D01*
X105759290Y-105263042D01*
X105760000Y-105277500D01*
X105760000Y-105622500D01*
X105759290Y-105636958D01*
X105757166Y-105651276D01*
X105753649Y-105665317D01*
X105748772Y-105678946D01*
X105742583Y-105692031D01*
X105735142Y-105704447D01*
X105726519Y-105716073D01*
X105716798Y-105726798D01*
X105706073Y-105736519D01*
X105694447Y-105745142D01*
X105682031Y-105752583D01*
X105668946Y-105758772D01*
X105655317Y-105763649D01*
X105641276Y-105767166D01*
X105626958Y-105769290D01*
X105612500Y-105770000D01*
X105317500Y-105770000D01*
X105303042Y-105769290D01*
X105288724Y-105767166D01*
X105274683Y-105763649D01*
X105261054Y-105758772D01*
X105247969Y-105752583D01*
X105235553Y-105745142D01*
X105223927Y-105736519D01*
X105213202Y-105726798D01*
X105203481Y-105716073D01*
X105194858Y-105704447D01*
X105187417Y-105692031D01*
X105181228Y-105678946D01*
X105176351Y-105665317D01*
X105172834Y-105651276D01*
X105170710Y-105636958D01*
X105170000Y-105622500D01*
X105170000Y-105277500D01*
X105170710Y-105263042D01*
X105172834Y-105248724D01*
X105176351Y-105234683D01*
X105181228Y-105221054D01*
X105187417Y-105207969D01*
X105194858Y-105195553D01*
X105203481Y-105183927D01*
X105213202Y-105173202D01*
X105223927Y-105163481D01*
X105235553Y-105154858D01*
X105247969Y-105147417D01*
X105261054Y-105141228D01*
X105274683Y-105136351D01*
X105288724Y-105132834D01*
X105303042Y-105130710D01*
X105317500Y-105130000D01*
X105612500Y-105130000D01*
X105626958Y-105130710D01*
G37*
G04 #@! TD.AperFunction*
G04 #@! TA.AperFunction,SMDPad,CuDef*
G36*
X106596958Y-105130710D02*
G01*
X106611276Y-105132834D01*
X106625317Y-105136351D01*
X106638946Y-105141228D01*
X106652031Y-105147417D01*
X106664447Y-105154858D01*
X106676073Y-105163481D01*
X106686798Y-105173202D01*
X106696519Y-105183927D01*
X106705142Y-105195553D01*
X106712583Y-105207969D01*
X106718772Y-105221054D01*
X106723649Y-105234683D01*
X106727166Y-105248724D01*
X106729290Y-105263042D01*
X106730000Y-105277500D01*
X106730000Y-105622500D01*
X106729290Y-105636958D01*
X106727166Y-105651276D01*
X106723649Y-105665317D01*
X106718772Y-105678946D01*
X106712583Y-105692031D01*
X106705142Y-105704447D01*
X106696519Y-105716073D01*
X106686798Y-105726798D01*
X106676073Y-105736519D01*
X106664447Y-105745142D01*
X106652031Y-105752583D01*
X106638946Y-105758772D01*
X106625317Y-105763649D01*
X106611276Y-105767166D01*
X106596958Y-105769290D01*
X106582500Y-105770000D01*
X106287500Y-105770000D01*
X106273042Y-105769290D01*
X106258724Y-105767166D01*
X106244683Y-105763649D01*
X106231054Y-105758772D01*
X106217969Y-105752583D01*
X106205553Y-105745142D01*
X106193927Y-105736519D01*
X106183202Y-105726798D01*
X106173481Y-105716073D01*
X106164858Y-105704447D01*
X106157417Y-105692031D01*
X106151228Y-105678946D01*
X106146351Y-105665317D01*
X106142834Y-105651276D01*
X106140710Y-105636958D01*
X106140000Y-105622500D01*
X106140000Y-105277500D01*
X106140710Y-105263042D01*
X106142834Y-105248724D01*
X106146351Y-105234683D01*
X106151228Y-105221054D01*
X106157417Y-105207969D01*
X106164858Y-105195553D01*
X106173481Y-105183927D01*
X106183202Y-105173202D01*
X106193927Y-105163481D01*
X106205553Y-105154858D01*
X106217969Y-105147417D01*
X106231054Y-105141228D01*
X106244683Y-105136351D01*
X106258724Y-105132834D01*
X106273042Y-105130710D01*
X106287500Y-105130000D01*
X106582500Y-105130000D01*
X106596958Y-105130710D01*
G37*
G04 #@! TD.AperFunction*
D13*
X117500000Y-92000000D03*
D14*
X114960000Y-92000000D03*
D15*
X122540000Y-133120000D03*
X120000000Y-133120000D03*
X122540000Y-130580000D03*
X120000000Y-130580000D03*
X122540000Y-128040000D03*
X120000000Y-128040000D03*
X122540000Y-125500000D03*
D16*
X120000000Y-125500000D03*
D17*
X102700000Y-123380000D03*
X115400000Y-131000000D03*
X105240000Y-123380000D03*
X112860000Y-131000000D03*
X107780000Y-123380000D03*
X110320000Y-131000000D03*
X110320000Y-123380000D03*
X107780000Y-131000000D03*
X112860000Y-123380000D03*
X105240000Y-131000000D03*
X115400000Y-123380000D03*
D18*
X102700000Y-131000000D03*
G04 #@! TA.AperFunction,SMDPad,CuDef*
D12*
G36*
X105676958Y-91930710D02*
G01*
X105691276Y-91932834D01*
X105705317Y-91936351D01*
X105718946Y-91941228D01*
X105732031Y-91947417D01*
X105744447Y-91954858D01*
X105756073Y-91963481D01*
X105766798Y-91973202D01*
X105776519Y-91983927D01*
X105785142Y-91995553D01*
X105792583Y-92007969D01*
X105798772Y-92021054D01*
X105803649Y-92034683D01*
X105807166Y-92048724D01*
X105809290Y-92063042D01*
X105810000Y-92077500D01*
X105810000Y-92422500D01*
X105809290Y-92436958D01*
X105807166Y-92451276D01*
X105803649Y-92465317D01*
X105798772Y-92478946D01*
X105792583Y-92492031D01*
X105785142Y-92504447D01*
X105776519Y-92516073D01*
X105766798Y-92526798D01*
X105756073Y-92536519D01*
X105744447Y-92545142D01*
X105732031Y-92552583D01*
X105718946Y-92558772D01*
X105705317Y-92563649D01*
X105691276Y-92567166D01*
X105676958Y-92569290D01*
X105662500Y-92570000D01*
X105367500Y-92570000D01*
X105353042Y-92569290D01*
X105338724Y-92567166D01*
X105324683Y-92563649D01*
X105311054Y-92558772D01*
X105297969Y-92552583D01*
X105285553Y-92545142D01*
X105273927Y-92536519D01*
X105263202Y-92526798D01*
X105253481Y-92516073D01*
X105244858Y-92504447D01*
X105237417Y-92492031D01*
X105231228Y-92478946D01*
X105226351Y-92465317D01*
X105222834Y-92451276D01*
X105220710Y-92436958D01*
X105220000Y-92422500D01*
X105220000Y-92077500D01*
X105220710Y-92063042D01*
X105222834Y-92048724D01*
X105226351Y-92034683D01*
X105231228Y-92021054D01*
X105237417Y-92007969D01*
X105244858Y-91995553D01*
X105253481Y-91983927D01*
X105263202Y-91973202D01*
X105273927Y-91963481D01*
X105285553Y-91954858D01*
X105297969Y-91947417D01*
X105311054Y-91941228D01*
X105324683Y-91936351D01*
X105338724Y-91932834D01*
X105353042Y-91930710D01*
X105367500Y-91930000D01*
X105662500Y-91930000D01*
X105676958Y-91930710D01*
G37*
G04 #@! TD.AperFunction*
G04 #@! TA.AperFunction,SMDPad,CuDef*
G36*
X106646958Y-91930710D02*
G01*
X106661276Y-91932834D01*
X106675317Y-91936351D01*
X106688946Y-91941228D01*
X106702031Y-91947417D01*
X106714447Y-91954858D01*
X106726073Y-91963481D01*
X106736798Y-91973202D01*
X106746519Y-91983927D01*
X106755142Y-91995553D01*
X106762583Y-92007969D01*
X106768772Y-92021054D01*
X106773649Y-92034683D01*
X106777166Y-92048724D01*
X106779290Y-92063042D01*
X106780000Y-92077500D01*
X106780000Y-92422500D01*
X106779290Y-92436958D01*
X106777166Y-92451276D01*
X106773649Y-92465317D01*
X106768772Y-92478946D01*
X106762583Y-92492031D01*
X106755142Y-92504447D01*
X106746519Y-92516073D01*
X106736798Y-92526798D01*
X106726073Y-92536519D01*
X106714447Y-92545142D01*
X106702031Y-92552583D01*
X106688946Y-92558772D01*
X106675317Y-92563649D01*
X106661276Y-92567166D01*
X106646958Y-92569290D01*
X106632500Y-92570000D01*
X106337500Y-92570000D01*
X106323042Y-92569290D01*
X106308724Y-92567166D01*
X106294683Y-92563649D01*
X106281054Y-92558772D01*
X106267969Y-92552583D01*
X106255553Y-92545142D01*
X106243927Y-92536519D01*
X106233202Y-92526798D01*
X106223481Y-92516073D01*
X106214858Y-92504447D01*
X106207417Y-92492031D01*
X106201228Y-92478946D01*
X106196351Y-92465317D01*
X106192834Y-92451276D01*
X106190710Y-92436958D01*
X106190000Y-92422500D01*
X106190000Y-92077500D01*
X106190710Y-92063042D01*
X106192834Y-92048724D01*
X106196351Y-92034683D01*
X106201228Y-92021054D01*
X106207417Y-92007969D01*
X106214858Y-91995553D01*
X106223481Y-91983927D01*
X106233202Y-91973202D01*
X106243927Y-91963481D01*
X106255553Y-91954858D01*
X106267969Y-91947417D01*
X106281054Y-91941228D01*
X106294683Y-91936351D01*
X106308724Y-91932834D01*
X106323042Y-91930710D01*
X106337500Y-91930000D01*
X106632500Y-91930000D01*
X106646958Y-91930710D01*
G37*
G04 #@! TD.AperFunction*
G04 #@! TA.AperFunction,SMDPad,CuDef*
G36*
X104296958Y-100130710D02*
G01*
X104311276Y-100132834D01*
X104325317Y-100136351D01*
X104338946Y-100141228D01*
X104352031Y-100147417D01*
X104364447Y-100154858D01*
X104376073Y-100163481D01*
X104386798Y-100173202D01*
X104396519Y-100183927D01*
X104405142Y-100195553D01*
X104412583Y-100207969D01*
X104418772Y-100221054D01*
X104423649Y-100234683D01*
X104427166Y-100248724D01*
X104429290Y-100263042D01*
X104430000Y-100277500D01*
X104430000Y-100622500D01*
X104429290Y-100636958D01*
X104427166Y-100651276D01*
X104423649Y-100665317D01*
X104418772Y-100678946D01*
X104412583Y-100692031D01*
X104405142Y-100704447D01*
X104396519Y-100716073D01*
X104386798Y-100726798D01*
X104376073Y-100736519D01*
X104364447Y-100745142D01*
X104352031Y-100752583D01*
X104338946Y-100758772D01*
X104325317Y-100763649D01*
X104311276Y-100767166D01*
X104296958Y-100769290D01*
X104282500Y-100770000D01*
X103987500Y-100770000D01*
X103973042Y-100769290D01*
X103958724Y-100767166D01*
X103944683Y-100763649D01*
X103931054Y-100758772D01*
X103917969Y-100752583D01*
X103905553Y-100745142D01*
X103893927Y-100736519D01*
X103883202Y-100726798D01*
X103873481Y-100716073D01*
X103864858Y-100704447D01*
X103857417Y-100692031D01*
X103851228Y-100678946D01*
X103846351Y-100665317D01*
X103842834Y-100651276D01*
X103840710Y-100636958D01*
X103840000Y-100622500D01*
X103840000Y-100277500D01*
X103840710Y-100263042D01*
X103842834Y-100248724D01*
X103846351Y-100234683D01*
X103851228Y-100221054D01*
X103857417Y-100207969D01*
X103864858Y-100195553D01*
X103873481Y-100183927D01*
X103883202Y-100173202D01*
X103893927Y-100163481D01*
X103905553Y-100154858D01*
X103917969Y-100147417D01*
X103931054Y-100141228D01*
X103944683Y-100136351D01*
X103958724Y-100132834D01*
X103973042Y-100130710D01*
X103987500Y-100130000D01*
X104282500Y-100130000D01*
X104296958Y-100130710D01*
G37*
G04 #@! TD.AperFunction*
G04 #@! TA.AperFunction,SMDPad,CuDef*
G36*
X103326958Y-100130710D02*
G01*
X103341276Y-100132834D01*
X103355317Y-100136351D01*
X103368946Y-100141228D01*
X103382031Y-100147417D01*
X103394447Y-100154858D01*
X103406073Y-100163481D01*
X103416798Y-100173202D01*
X103426519Y-100183927D01*
X103435142Y-100195553D01*
X103442583Y-100207969D01*
X103448772Y-100221054D01*
X103453649Y-100234683D01*
X103457166Y-100248724D01*
X103459290Y-100263042D01*
X103460000Y-100277500D01*
X103460000Y-100622500D01*
X103459290Y-100636958D01*
X103457166Y-100651276D01*
X103453649Y-100665317D01*
X103448772Y-100678946D01*
X103442583Y-100692031D01*
X103435142Y-100704447D01*
X103426519Y-100716073D01*
X103416798Y-100726798D01*
X103406073Y-100736519D01*
X103394447Y-100745142D01*
X103382031Y-100752583D01*
X103368946Y-100758772D01*
X103355317Y-100763649D01*
X103341276Y-100767166D01*
X103326958Y-100769290D01*
X103312500Y-100770000D01*
X103017500Y-100770000D01*
X103003042Y-100769290D01*
X102988724Y-100767166D01*
X102974683Y-100763649D01*
X102961054Y-100758772D01*
X102947969Y-100752583D01*
X102935553Y-100745142D01*
X102923927Y-100736519D01*
X102913202Y-100726798D01*
X102903481Y-100716073D01*
X102894858Y-100704447D01*
X102887417Y-100692031D01*
X102881228Y-100678946D01*
X102876351Y-100665317D01*
X102872834Y-100651276D01*
X102870710Y-100636958D01*
X102870000Y-100622500D01*
X102870000Y-100277500D01*
X102870710Y-100263042D01*
X102872834Y-100248724D01*
X102876351Y-100234683D01*
X102881228Y-100221054D01*
X102887417Y-100207969D01*
X102894858Y-100195553D01*
X102903481Y-100183927D01*
X102913202Y-100173202D01*
X102923927Y-100163481D01*
X102935553Y-100154858D01*
X102947969Y-100147417D01*
X102961054Y-100141228D01*
X102974683Y-100136351D01*
X102988724Y-100132834D01*
X103003042Y-100130710D01*
X103017500Y-100130000D01*
X103312500Y-100130000D01*
X103326958Y-100130710D01*
G37*
G04 #@! TD.AperFunction*
D19*
X106000000Y-95500000D03*
X105050000Y-93500000D03*
X106950000Y-93500000D03*
D20*
X109670000Y-136200000D03*
X107130000Y-136200000D03*
X104590000Y-136200000D03*
D21*
X102050000Y-136200000D03*
D13*
X117620000Y-120000000D03*
X115080000Y-120000000D03*
X112540000Y-120000000D03*
X110000000Y-120000000D03*
X107460000Y-120000000D03*
D14*
X104920000Y-120000000D03*
D13*
X122500000Y-120000000D03*
X122500000Y-117460000D03*
X122500000Y-114920000D03*
X122500000Y-112380000D03*
X122500000Y-109840000D03*
X122500000Y-107300000D03*
X122500000Y-104760000D03*
X122500000Y-102220000D03*
X122500000Y-99680000D03*
X122500000Y-97140000D03*
X122500000Y-94600000D03*
D14*
X122500000Y-92060000D03*
D13*
X100000000Y-119940000D03*
X100000000Y-117400000D03*
X100000000Y-114860000D03*
X100000000Y-112320000D03*
X100000000Y-109780000D03*
X100000000Y-107240000D03*
X100000000Y-104700000D03*
X100000000Y-102160000D03*
X100000000Y-99620000D03*
X100000000Y-97080000D03*
X100000000Y-94540000D03*
D14*
X100000000Y-92000000D03*
D22*
X111250000Y-112500000D03*
X111250000Y-115500000D03*
X106750000Y-112500000D03*
X106750000Y-115500000D03*
X115750000Y-115500000D03*
X115750000Y-112500000D03*
X118000000Y-99500000D03*
X118000002Y-102000000D03*
X114000000Y-115050000D03*
X114000000Y-112900000D03*
X114000000Y-114000000D03*
X109500000Y-113000000D03*
X109500000Y-115100000D03*
X109500000Y-114050000D03*
X105000000Y-115100000D03*
X105000000Y-113000000D03*
X105000000Y-114050000D03*
X103650000Y-95700000D03*
X110850000Y-104615000D03*
X115250000Y-104615000D03*
X106450000Y-104450000D03*
X104849996Y-95500000D03*
D23*
X116075000Y-112175000D02*
X115750000Y-112500000D01*
X116075000Y-111050000D02*
X116075000Y-112175000D01*
X115425000Y-112175000D02*
X115750000Y-112500000D01*
X115425000Y-111050000D02*
X115425000Y-112175000D01*
X110925000Y-112175000D02*
X111250000Y-112500000D01*
X110925000Y-111050000D02*
X110925000Y-112175000D01*
X111575000Y-112175000D02*
X111250000Y-112500000D01*
X111575000Y-111050000D02*
X111575000Y-112175000D01*
X106425000Y-112175000D02*
X106750000Y-112500000D01*
X106425000Y-111050000D02*
X106425000Y-112175000D01*
X107075000Y-112175000D02*
X106750000Y-112500000D01*
X107075000Y-111050000D02*
X107075000Y-112175000D01*
X106425000Y-115825000D02*
X106750000Y-115500000D01*
X106425000Y-116950000D02*
X106425000Y-115825000D01*
X107075000Y-115825000D02*
X106750000Y-115500000D01*
X107075000Y-116950000D02*
X107075000Y-115825000D01*
X110925000Y-115825000D02*
X111250000Y-115500000D01*
X110925000Y-116950000D02*
X110925000Y-115825000D01*
X111575000Y-115825000D02*
X111250000Y-115500000D01*
X111575000Y-116950000D02*
X111575000Y-115825000D01*
X115425000Y-115825000D02*
X115750000Y-115500000D01*
X115425000Y-116950000D02*
X115425000Y-115825000D01*
X116075000Y-115825000D02*
X115750000Y-115500000D01*
X116075000Y-116950000D02*
X116075000Y-115825000D01*
D24*
X104130000Y-97080000D02*
X104150000Y-97100000D01*
X100000000Y-97080000D02*
X104130000Y-97080000D01*
X105100000Y-108800000D02*
X106600000Y-108800000D01*
X107049999Y-109249999D02*
X107049999Y-111050000D01*
X106600000Y-108800000D02*
X107049999Y-109249999D01*
X109550000Y-108750000D02*
X111250000Y-108750000D01*
X111549999Y-109049999D02*
X111549999Y-111050000D01*
X111250000Y-108750000D02*
X111549999Y-109049999D01*
X114050000Y-108750000D02*
X115800000Y-108750000D01*
X116049999Y-108999999D02*
X116049999Y-111050000D01*
X115800000Y-108750000D02*
X116049999Y-108999999D01*
X106950000Y-92715000D02*
X106485000Y-92250000D01*
X106950000Y-93500000D02*
X106950000Y-92715000D01*
X106950000Y-97050000D02*
X106950000Y-93500000D01*
D25*
X100000000Y-94540000D02*
X101960000Y-94540000D01*
X103000000Y-93500000D02*
X105050000Y-93500000D01*
X101960000Y-94540000D02*
X103000000Y-93500000D01*
D24*
X105050000Y-92715000D02*
X105515000Y-92250000D01*
X105050000Y-93500000D02*
X105050000Y-92715000D01*
X118580000Y-130580000D02*
X117799990Y-129799990D01*
X120000000Y-130580000D02*
X118580000Y-130580000D01*
X117799990Y-129799990D02*
X117799990Y-123700010D01*
X118750000Y-102000000D02*
X118000002Y-102000000D01*
X117799990Y-123700010D02*
X119250000Y-122250000D01*
X119250000Y-122250000D02*
X119250000Y-102500000D01*
X119250000Y-102500000D02*
X118750000Y-102000000D01*
X122500000Y-128000000D02*
X122540000Y-128040000D01*
X121750000Y-128000000D02*
X122500000Y-128000000D01*
X121400000Y-94600000D02*
X120856969Y-95143031D01*
X122500000Y-94600000D02*
X121400000Y-94600000D01*
X120856969Y-95143031D02*
X120856969Y-123540819D01*
X120856969Y-123540819D02*
X121327999Y-124011849D01*
X121327999Y-124011849D02*
X121327999Y-127577999D01*
X121327999Y-127577999D02*
X121750000Y-128000000D01*
X120690000Y-92060000D02*
X122500000Y-92060000D01*
X119040000Y-128040000D02*
X118500000Y-127500000D01*
X120000000Y-128040000D02*
X119040000Y-128040000D01*
X118500000Y-127500000D02*
X118500000Y-124250000D01*
X118500000Y-124250000D02*
X120000000Y-122750000D01*
X120000000Y-122750000D02*
X120000000Y-92750000D01*
X120000000Y-92750000D02*
X120690000Y-92060000D01*
X100000000Y-92000000D02*
X103500000Y-92000000D01*
X103500000Y-92000000D02*
X104250000Y-91250000D01*
X104250000Y-91250000D02*
X107750000Y-91250000D01*
X107750000Y-91250000D02*
X108000000Y-91500000D01*
X108000000Y-91500000D02*
X108000000Y-103765000D01*
X108000000Y-103765000D02*
X112500000Y-103765000D01*
X112500000Y-103765000D02*
X117000000Y-103765000D01*
D23*
X114600000Y-114000000D02*
X114750000Y-113850000D01*
X114775000Y-111050000D02*
X114750000Y-113850000D01*
X114000000Y-114000000D02*
X114000000Y-114000000D01*
X114750000Y-113850000D02*
X114775000Y-116950000D01*
X114000000Y-114000000D02*
X114600000Y-114000000D01*
X110275000Y-116950000D02*
X110275000Y-117450000D01*
X110200000Y-114050000D02*
X110250000Y-114000000D01*
X109500000Y-114050000D02*
X110200000Y-114050000D01*
X110275000Y-111050000D02*
X110250000Y-114000000D01*
X110250000Y-114000000D02*
X110275000Y-116950000D01*
X105700000Y-114050000D02*
X105750000Y-114000000D01*
X105000000Y-114050000D02*
X105700000Y-114050000D01*
X105775000Y-111050000D02*
X105750000Y-114000000D01*
X105750000Y-114000000D02*
X105775000Y-116950000D01*
X107725000Y-111050000D02*
X107725000Y-108775000D01*
X107725000Y-108775000D02*
X108000000Y-108500000D01*
X107725000Y-116950000D02*
X107725000Y-111050000D01*
D24*
X107100000Y-107850000D02*
X108000000Y-107850000D01*
D23*
X108000000Y-108500000D02*
X108000000Y-107850000D01*
D24*
X108000000Y-104735000D02*
X108000000Y-107850000D01*
X102490000Y-94540000D02*
X101960000Y-94540000D01*
X103650000Y-95700000D02*
X102490000Y-94540000D01*
X100000000Y-102160000D02*
X102440000Y-102160000D01*
X103165000Y-101435000D02*
X103165000Y-100450000D01*
X102440000Y-102160000D02*
X103165000Y-101435000D01*
X110835000Y-104630000D02*
X110850000Y-104615000D01*
X110835000Y-105450000D02*
X110835000Y-104630000D01*
X115250000Y-104615000D02*
X115250000Y-105500000D01*
X106435000Y-104465000D02*
X106450000Y-104450000D01*
X106435000Y-105450000D02*
X106435000Y-104465000D01*
D23*
X114110001Y-121160001D02*
X113850000Y-120900000D01*
X113850000Y-120900000D02*
X113850000Y-118650000D01*
D24*
X113850000Y-117875000D02*
X113600000Y-117625000D01*
X113850000Y-118650000D02*
X113850000Y-117875000D01*
X113600000Y-117625000D02*
X113600000Y-117200000D01*
X114110001Y-135189999D02*
X114110001Y-121160001D01*
X109670000Y-136200000D02*
X113100000Y-136200000D01*
X113100000Y-136200000D02*
X114110001Y-135189999D01*
D23*
X108750000Y-121450000D02*
X108800000Y-121400000D01*
X108800000Y-121400000D02*
X108800000Y-119100000D01*
D24*
X108800000Y-118425000D02*
X109050000Y-118175000D01*
X108800000Y-119100000D02*
X108800000Y-118425000D01*
X109050000Y-118175000D02*
X109050000Y-117050000D01*
X109030001Y-121730001D02*
X108750000Y-121450000D01*
X109030001Y-134269999D02*
X109030001Y-121730001D01*
X107130000Y-136200000D02*
X107130000Y-136170000D01*
X107130000Y-136170000D02*
X109030001Y-134269999D01*
X106490001Y-134299999D02*
X106490001Y-122190001D01*
X104590000Y-136200000D02*
X106490001Y-134299999D01*
X106490001Y-122190001D02*
X106250000Y-121950000D01*
D23*
X106250000Y-121950000D02*
X106200000Y-121900000D01*
X106200000Y-121900000D02*
X106200000Y-118900000D01*
D24*
X105749999Y-117899999D02*
X105749999Y-116950000D01*
X106200000Y-118900000D02*
X106200000Y-118350000D01*
X106200000Y-118350000D02*
X105749999Y-117899999D01*
D23*
X112225000Y-116950000D02*
X112225000Y-111050000D01*
D24*
X112500000Y-104735000D02*
X112500000Y-107750000D01*
X111600000Y-107750000D02*
X111550000Y-107800000D01*
X112500000Y-107750000D02*
X111600000Y-107750000D01*
D23*
X112225000Y-111050000D02*
X112225000Y-108675000D01*
X112500000Y-108400000D02*
X112500000Y-107750000D01*
X112225000Y-108675000D02*
X112500000Y-108400000D01*
X116725000Y-116950000D02*
X116725000Y-111050000D01*
D24*
X117000000Y-104735000D02*
X117000000Y-107800000D01*
X117000000Y-107800000D02*
X116050000Y-107800000D01*
D23*
X117000000Y-108425000D02*
X117000000Y-107800000D01*
X116725000Y-111050000D02*
X116725000Y-108700000D01*
X116725000Y-108700000D02*
X117000000Y-108425000D01*
D24*
X105100000Y-105815000D02*
X105465000Y-105450000D01*
X105100000Y-106900000D02*
X105100000Y-105815000D01*
X105950000Y-98050000D02*
X106950000Y-97050000D01*
X102150000Y-98050000D02*
X105950000Y-98050000D01*
X109550000Y-105765000D02*
X109865000Y-105450000D01*
X109550000Y-106850000D02*
X109550000Y-105765000D01*
X104150000Y-100435000D02*
X104135000Y-100450000D01*
X104150000Y-99000000D02*
X104150000Y-100435000D01*
X114050000Y-105730000D02*
X114280000Y-105500000D01*
X114050000Y-106850000D02*
X114050000Y-105730000D01*
X106000000Y-95500000D02*
X104849996Y-95500000D01*
D26*
G36*
X113373000Y-93500000D02*
G01*
X113375440Y-93524776D01*
X113382667Y-93548601D01*
X113394403Y-93570557D01*
X113410197Y-93589803D01*
X113429443Y-93605597D01*
X113451399Y-93617333D01*
X113475224Y-93624560D01*
X113500000Y-93627000D01*
X117373000Y-93627000D01*
X117373000Y-98674164D01*
X117340226Y-98696063D01*
X117196063Y-98840226D01*
X117082795Y-99009744D01*
X117004774Y-99198102D01*
X116965000Y-99398061D01*
X116965000Y-99601939D01*
X117004774Y-99801898D01*
X117082795Y-99990256D01*
X117196063Y-100159774D01*
X117340226Y-100303937D01*
X117373000Y-100325836D01*
X117373000Y-101174166D01*
X117340228Y-101196063D01*
X117196065Y-101340226D01*
X117082797Y-101509744D01*
X117004776Y-101698102D01*
X116965002Y-101898061D01*
X116965002Y-102101939D01*
X117004776Y-102301898D01*
X117082797Y-102490256D01*
X117196065Y-102659774D01*
X117340228Y-102803937D01*
X117373000Y-102825835D01*
X117373000Y-102837148D01*
X117320000Y-102831928D01*
X117285750Y-102835000D01*
X117127000Y-102993750D01*
X117127000Y-103638000D01*
X117147000Y-103638000D01*
X117147000Y-103801928D01*
X116827500Y-103801928D01*
X116674243Y-103817023D01*
X116526875Y-103861726D01*
X116505783Y-103873000D01*
X115971711Y-103873000D01*
X115909774Y-103811063D01*
X115740256Y-103697795D01*
X115551898Y-103619774D01*
X115351939Y-103580000D01*
X115148061Y-103580000D01*
X114948102Y-103619774D01*
X114759744Y-103697795D01*
X114590226Y-103811063D01*
X114528289Y-103873000D01*
X112994217Y-103873000D01*
X112973125Y-103861726D01*
X112825757Y-103817023D01*
X112672500Y-103801928D01*
X112327500Y-103801928D01*
X112174243Y-103817023D01*
X112026875Y-103861726D01*
X112005783Y-103873000D01*
X111571711Y-103873000D01*
X111509774Y-103811063D01*
X111340256Y-103697795D01*
X111151898Y-103619774D01*
X110951939Y-103580000D01*
X110748061Y-103580000D01*
X110548102Y-103619774D01*
X110359744Y-103697795D01*
X110190226Y-103811063D01*
X110128289Y-103873000D01*
X108494217Y-103873000D01*
X108473125Y-103861726D01*
X108325757Y-103817023D01*
X108172500Y-103801928D01*
X107877000Y-103801928D01*
X107877000Y-102993750D01*
X108127000Y-102993750D01*
X108127000Y-103638000D01*
X108796250Y-103638000D01*
X108955000Y-103479250D01*
X108958072Y-103470000D01*
X111541928Y-103470000D01*
X111545000Y-103479250D01*
X111703750Y-103638000D01*
X112373000Y-103638000D01*
X112373000Y-102993750D01*
X112627000Y-102993750D01*
X112627000Y-103638000D01*
X113296250Y-103638000D01*
X113455000Y-103479250D01*
X113458072Y-103470000D01*
X116041928Y-103470000D01*
X116045000Y-103479250D01*
X116203750Y-103638000D01*
X116873000Y-103638000D01*
X116873000Y-102993750D01*
X116714250Y-102835000D01*
X116680000Y-102831928D01*
X116555518Y-102844188D01*
X116435820Y-102880498D01*
X116325506Y-102939463D01*
X116228815Y-103018815D01*
X116149463Y-103115506D01*
X116090498Y-103225820D01*
X116054188Y-103345518D01*
X116041928Y-103470000D01*
X113458072Y-103470000D01*
X113445812Y-103345518D01*
X113409502Y-103225820D01*
X113350537Y-103115506D01*
X113271185Y-103018815D01*
X113174494Y-102939463D01*
X113064180Y-102880498D01*
X112944482Y-102844188D01*
X112820000Y-102831928D01*
X112785750Y-102835000D01*
X112627000Y-102993750D01*
X112373000Y-102993750D01*
X112214250Y-102835000D01*
X112180000Y-102831928D01*
X112055518Y-102844188D01*
X111935820Y-102880498D01*
X111825506Y-102939463D01*
X111728815Y-103018815D01*
X111649463Y-103115506D01*
X111590498Y-103225820D01*
X111554188Y-103345518D01*
X111541928Y-103470000D01*
X108958072Y-103470000D01*
X108945812Y-103345518D01*
X108909502Y-103225820D01*
X108850537Y-103115506D01*
X108771185Y-103018815D01*
X108674494Y-102939463D01*
X108564180Y-102880498D01*
X108444482Y-102844188D01*
X108320000Y-102831928D01*
X108285750Y-102835000D01*
X108127000Y-102993750D01*
X107877000Y-102993750D01*
X107877000Y-94308804D01*
X107880537Y-94304494D01*
X107939502Y-94194180D01*
X107975812Y-94074482D01*
X107988072Y-93950000D01*
X107988072Y-93050000D01*
X107975812Y-92925518D01*
X107939502Y-92805820D01*
X107880537Y-92695506D01*
X107831474Y-92635722D01*
X107822195Y-92541510D01*
X107771589Y-92374687D01*
X107689411Y-92220941D01*
X107578817Y-92086183D01*
X107545044Y-92058466D01*
X107399562Y-91912984D01*
X107358274Y-91776875D01*
X107285679Y-91641060D01*
X107187983Y-91522017D01*
X107068940Y-91424321D01*
X106933125Y-91351726D01*
X106785757Y-91307023D01*
X106632500Y-91291928D01*
X106337500Y-91291928D01*
X106184243Y-91307023D01*
X106036875Y-91351726D01*
X106000000Y-91371436D01*
X105963125Y-91351726D01*
X105815757Y-91307023D01*
X105662500Y-91291928D01*
X105367500Y-91291928D01*
X105214243Y-91307023D01*
X105066875Y-91351726D01*
X104931060Y-91424321D01*
X104812017Y-91522017D01*
X104714321Y-91641060D01*
X104641726Y-91776875D01*
X104600438Y-91912984D01*
X104454952Y-92058470D01*
X104421184Y-92086183D01*
X104393471Y-92119951D01*
X104393468Y-92119954D01*
X104310590Y-92220941D01*
X104228412Y-92374687D01*
X104193431Y-92490000D01*
X103049604Y-92490000D01*
X102999999Y-92485114D01*
X102950394Y-92490000D01*
X102950392Y-92490000D01*
X102802006Y-92504615D01*
X102611620Y-92562368D01*
X102436160Y-92656153D01*
X102282367Y-92782367D01*
X102250739Y-92820906D01*
X102198645Y-92873000D01*
X101485807Y-92873000D01*
X101488072Y-92850000D01*
X101485000Y-92285750D01*
X101326250Y-92127000D01*
X100127000Y-92127000D01*
X100127000Y-92147000D01*
X99873000Y-92147000D01*
X99873000Y-92127000D01*
X99853000Y-92127000D01*
X99853000Y-91873000D01*
X99873000Y-91873000D01*
X99873000Y-91853000D01*
X100127000Y-91853000D01*
X100127000Y-91873000D01*
X101326250Y-91873000D01*
X101485000Y-91714250D01*
X101488018Y-91160000D01*
X113373000Y-91160000D01*
X113373000Y-93500000D01*
G37*
X113373000Y-93500000D02*
X113375440Y-93524776D01*
X113382667Y-93548601D01*
X113394403Y-93570557D01*
X113410197Y-93589803D01*
X113429443Y-93605597D01*
X113451399Y-93617333D01*
X113475224Y-93624560D01*
X113500000Y-93627000D01*
X117373000Y-93627000D01*
X117373000Y-98674164D01*
X117340226Y-98696063D01*
X117196063Y-98840226D01*
X117082795Y-99009744D01*
X117004774Y-99198102D01*
X116965000Y-99398061D01*
X116965000Y-99601939D01*
X117004774Y-99801898D01*
X117082795Y-99990256D01*
X117196063Y-100159774D01*
X117340226Y-100303937D01*
X117373000Y-100325836D01*
X117373000Y-101174166D01*
X117340228Y-101196063D01*
X117196065Y-101340226D01*
X117082797Y-101509744D01*
X117004776Y-101698102D01*
X116965002Y-101898061D01*
X116965002Y-102101939D01*
X117004776Y-102301898D01*
X117082797Y-102490256D01*
X117196065Y-102659774D01*
X117340228Y-102803937D01*
X117373000Y-102825835D01*
X117373000Y-102837148D01*
X117320000Y-102831928D01*
X117285750Y-102835000D01*
X117127000Y-102993750D01*
X117127000Y-103638000D01*
X117147000Y-103638000D01*
X117147000Y-103801928D01*
X116827500Y-103801928D01*
X116674243Y-103817023D01*
X116526875Y-103861726D01*
X116505783Y-103873000D01*
X115971711Y-103873000D01*
X115909774Y-103811063D01*
X115740256Y-103697795D01*
X115551898Y-103619774D01*
X115351939Y-103580000D01*
X115148061Y-103580000D01*
X114948102Y-103619774D01*
X114759744Y-103697795D01*
X114590226Y-103811063D01*
X114528289Y-103873000D01*
X112994217Y-103873000D01*
X112973125Y-103861726D01*
X112825757Y-103817023D01*
X112672500Y-103801928D01*
X112327500Y-103801928D01*
X112174243Y-103817023D01*
X112026875Y-103861726D01*
X112005783Y-103873000D01*
X111571711Y-103873000D01*
X111509774Y-103811063D01*
X111340256Y-103697795D01*
X111151898Y-103619774D01*
X110951939Y-103580000D01*
X110748061Y-103580000D01*
X110548102Y-103619774D01*
X110359744Y-103697795D01*
X110190226Y-103811063D01*
X110128289Y-103873000D01*
X108494217Y-103873000D01*
X108473125Y-103861726D01*
X108325757Y-103817023D01*
X108172500Y-103801928D01*
X107877000Y-103801928D01*
X107877000Y-102993750D01*
X108127000Y-102993750D01*
X108127000Y-103638000D01*
X108796250Y-103638000D01*
X108955000Y-103479250D01*
X108958072Y-103470000D01*
X111541928Y-103470000D01*
X111545000Y-103479250D01*
X111703750Y-103638000D01*
X112373000Y-103638000D01*
X112373000Y-102993750D01*
X112627000Y-102993750D01*
X112627000Y-103638000D01*
X113296250Y-103638000D01*
X113455000Y-103479250D01*
X113458072Y-103470000D01*
X116041928Y-103470000D01*
X116045000Y-103479250D01*
X116203750Y-103638000D01*
X116873000Y-103638000D01*
X116873000Y-102993750D01*
X116714250Y-102835000D01*
X116680000Y-102831928D01*
X116555518Y-102844188D01*
X116435820Y-102880498D01*
X116325506Y-102939463D01*
X116228815Y-103018815D01*
X116149463Y-103115506D01*
X116090498Y-103225820D01*
X116054188Y-103345518D01*
X116041928Y-103470000D01*
X113458072Y-103470000D01*
X113445812Y-103345518D01*
X113409502Y-103225820D01*
X113350537Y-103115506D01*
X113271185Y-103018815D01*
X113174494Y-102939463D01*
X113064180Y-102880498D01*
X112944482Y-102844188D01*
X112820000Y-102831928D01*
X112785750Y-102835000D01*
X112627000Y-102993750D01*
X112373000Y-102993750D01*
X112214250Y-102835000D01*
X112180000Y-102831928D01*
X112055518Y-102844188D01*
X111935820Y-102880498D01*
X111825506Y-102939463D01*
X111728815Y-103018815D01*
X111649463Y-103115506D01*
X111590498Y-103225820D01*
X111554188Y-103345518D01*
X111541928Y-103470000D01*
X108958072Y-103470000D01*
X108945812Y-103345518D01*
X108909502Y-103225820D01*
X108850537Y-103115506D01*
X108771185Y-103018815D01*
X108674494Y-102939463D01*
X108564180Y-102880498D01*
X108444482Y-102844188D01*
X108320000Y-102831928D01*
X108285750Y-102835000D01*
X108127000Y-102993750D01*
X107877000Y-102993750D01*
X107877000Y-94308804D01*
X107880537Y-94304494D01*
X107939502Y-94194180D01*
X107975812Y-94074482D01*
X107988072Y-93950000D01*
X107988072Y-93050000D01*
X107975812Y-92925518D01*
X107939502Y-92805820D01*
X107880537Y-92695506D01*
X107831474Y-92635722D01*
X107822195Y-92541510D01*
X107771589Y-92374687D01*
X107689411Y-92220941D01*
X107578817Y-92086183D01*
X107545044Y-92058466D01*
X107399562Y-91912984D01*
X107358274Y-91776875D01*
X107285679Y-91641060D01*
X107187983Y-91522017D01*
X107068940Y-91424321D01*
X106933125Y-91351726D01*
X106785757Y-91307023D01*
X106632500Y-91291928D01*
X106337500Y-91291928D01*
X106184243Y-91307023D01*
X106036875Y-91351726D01*
X106000000Y-91371436D01*
X105963125Y-91351726D01*
X105815757Y-91307023D01*
X105662500Y-91291928D01*
X105367500Y-91291928D01*
X105214243Y-91307023D01*
X105066875Y-91351726D01*
X104931060Y-91424321D01*
X104812017Y-91522017D01*
X104714321Y-91641060D01*
X104641726Y-91776875D01*
X104600438Y-91912984D01*
X104454952Y-92058470D01*
X104421184Y-92086183D01*
X104393471Y-92119951D01*
X104393468Y-92119954D01*
X104310590Y-92220941D01*
X104228412Y-92374687D01*
X104193431Y-92490000D01*
X103049604Y-92490000D01*
X102999999Y-92485114D01*
X102950394Y-92490000D01*
X102950392Y-92490000D01*
X102802006Y-92504615D01*
X102611620Y-92562368D01*
X102436160Y-92656153D01*
X102282367Y-92782367D01*
X102250739Y-92820906D01*
X102198645Y-92873000D01*
X101485807Y-92873000D01*
X101488072Y-92850000D01*
X101485000Y-92285750D01*
X101326250Y-92127000D01*
X100127000Y-92127000D01*
X100127000Y-92147000D01*
X99873000Y-92147000D01*
X99873000Y-92127000D01*
X99853000Y-92127000D01*
X99853000Y-91873000D01*
X99873000Y-91873000D01*
X99873000Y-91853000D01*
X100127000Y-91853000D01*
X100127000Y-91873000D01*
X101326250Y-91873000D01*
X101485000Y-91714250D01*
X101488018Y-91160000D01*
X113373000Y-91160000D01*
X113373000Y-93500000D01*
G36*
X104956849Y-110089825D02*
G01*
X104922366Y-110210061D01*
X104912002Y-110334715D01*
X104915000Y-110764250D01*
X105073750Y-110923000D01*
X105561928Y-110923000D01*
X105561928Y-111177000D01*
X105073750Y-111177000D01*
X104915000Y-111335750D01*
X104912002Y-111765285D01*
X104922366Y-111889939D01*
X104956849Y-112010175D01*
X105014126Y-112121375D01*
X105091997Y-112219263D01*
X105187469Y-112300078D01*
X105296873Y-112360715D01*
X105416004Y-112398844D01*
X105518250Y-112410000D01*
X105647998Y-112280252D01*
X105647998Y-112410000D01*
X105702089Y-112410000D01*
X105715000Y-112452563D01*
X105715000Y-112601939D01*
X105754774Y-112801898D01*
X105832795Y-112990256D01*
X105903457Y-113096009D01*
X105892122Y-114920955D01*
X105832795Y-115009744D01*
X105754774Y-115198102D01*
X105715000Y-115398061D01*
X105715000Y-115547437D01*
X105702089Y-115590000D01*
X105647998Y-115590000D01*
X105647998Y-115719748D01*
X105518250Y-115590000D01*
X105416004Y-115601156D01*
X105296873Y-115639285D01*
X105187469Y-115699922D01*
X105091997Y-115780737D01*
X105014126Y-115878625D01*
X104956849Y-115989825D01*
X104922366Y-116110061D01*
X104912002Y-116234715D01*
X104915000Y-116664250D01*
X105073750Y-116823000D01*
X105561928Y-116823000D01*
X105561928Y-117077000D01*
X105073750Y-117077000D01*
X104915000Y-117235750D01*
X104912002Y-117665285D01*
X104922366Y-117789939D01*
X104946187Y-117873000D01*
X104127000Y-117873000D01*
X104127000Y-110077000D01*
X104963455Y-110077000D01*
X104956849Y-110089825D01*
G37*
X104956849Y-110089825D02*
X104922366Y-110210061D01*
X104912002Y-110334715D01*
X104915000Y-110764250D01*
X105073750Y-110923000D01*
X105561928Y-110923000D01*
X105561928Y-111177000D01*
X105073750Y-111177000D01*
X104915000Y-111335750D01*
X104912002Y-111765285D01*
X104922366Y-111889939D01*
X104956849Y-112010175D01*
X105014126Y-112121375D01*
X105091997Y-112219263D01*
X105187469Y-112300078D01*
X105296873Y-112360715D01*
X105416004Y-112398844D01*
X105518250Y-112410000D01*
X105647998Y-112280252D01*
X105647998Y-112410000D01*
X105702089Y-112410000D01*
X105715000Y-112452563D01*
X105715000Y-112601939D01*
X105754774Y-112801898D01*
X105832795Y-112990256D01*
X105903457Y-113096009D01*
X105892122Y-114920955D01*
X105832795Y-115009744D01*
X105754774Y-115198102D01*
X105715000Y-115398061D01*
X105715000Y-115547437D01*
X105702089Y-115590000D01*
X105647998Y-115590000D01*
X105647998Y-115719748D01*
X105518250Y-115590000D01*
X105416004Y-115601156D01*
X105296873Y-115639285D01*
X105187469Y-115699922D01*
X105091997Y-115780737D01*
X105014126Y-115878625D01*
X104956849Y-115989825D01*
X104922366Y-116110061D01*
X104912002Y-116234715D01*
X104915000Y-116664250D01*
X105073750Y-116823000D01*
X105561928Y-116823000D01*
X105561928Y-117077000D01*
X105073750Y-117077000D01*
X104915000Y-117235750D01*
X104912002Y-117665285D01*
X104922366Y-117789939D01*
X104946187Y-117873000D01*
X104127000Y-117873000D01*
X104127000Y-110077000D01*
X104963455Y-110077000D01*
X104956849Y-110089825D01*
G36*
X109422366Y-110210061D02*
G01*
X109412002Y-110334715D01*
X109415000Y-110764250D01*
X109573750Y-110923000D01*
X110061928Y-110923000D01*
X110061928Y-111177000D01*
X109573750Y-111177000D01*
X109415000Y-111335750D01*
X109412002Y-111765285D01*
X109422366Y-111889939D01*
X109456849Y-112010175D01*
X109514126Y-112121375D01*
X109591997Y-112219263D01*
X109687469Y-112300078D01*
X109796873Y-112360715D01*
X109916004Y-112398844D01*
X110018250Y-112410000D01*
X110147998Y-112280252D01*
X110147998Y-112410000D01*
X110202089Y-112410000D01*
X110215000Y-112452563D01*
X110215000Y-112601939D01*
X110254774Y-112801898D01*
X110323000Y-112966609D01*
X110323000Y-115033391D01*
X110254774Y-115198102D01*
X110215000Y-115398061D01*
X110215000Y-115547437D01*
X110202089Y-115590000D01*
X110147998Y-115590000D01*
X110147998Y-115719748D01*
X110018250Y-115590000D01*
X109916004Y-115601156D01*
X109796873Y-115639285D01*
X109687469Y-115699922D01*
X109591997Y-115780737D01*
X109514126Y-115878625D01*
X109456849Y-115989825D01*
X109422366Y-116110061D01*
X109412002Y-116234715D01*
X109415000Y-116664250D01*
X109573750Y-116823000D01*
X110061928Y-116823000D01*
X110061928Y-117077000D01*
X109573750Y-117077000D01*
X109415000Y-117235750D01*
X109412002Y-117665285D01*
X109416801Y-117723000D01*
X108677000Y-117723000D01*
X108677000Y-110177000D01*
X109431848Y-110177000D01*
X109422366Y-110210061D01*
G37*
X109422366Y-110210061D02*
X109412002Y-110334715D01*
X109415000Y-110764250D01*
X109573750Y-110923000D01*
X110061928Y-110923000D01*
X110061928Y-111177000D01*
X109573750Y-111177000D01*
X109415000Y-111335750D01*
X109412002Y-111765285D01*
X109422366Y-111889939D01*
X109456849Y-112010175D01*
X109514126Y-112121375D01*
X109591997Y-112219263D01*
X109687469Y-112300078D01*
X109796873Y-112360715D01*
X109916004Y-112398844D01*
X110018250Y-112410000D01*
X110147998Y-112280252D01*
X110147998Y-112410000D01*
X110202089Y-112410000D01*
X110215000Y-112452563D01*
X110215000Y-112601939D01*
X110254774Y-112801898D01*
X110323000Y-112966609D01*
X110323000Y-115033391D01*
X110254774Y-115198102D01*
X110215000Y-115398061D01*
X110215000Y-115547437D01*
X110202089Y-115590000D01*
X110147998Y-115590000D01*
X110147998Y-115719748D01*
X110018250Y-115590000D01*
X109916004Y-115601156D01*
X109796873Y-115639285D01*
X109687469Y-115699922D01*
X109591997Y-115780737D01*
X109514126Y-115878625D01*
X109456849Y-115989825D01*
X109422366Y-116110061D01*
X109412002Y-116234715D01*
X109415000Y-116664250D01*
X109573750Y-116823000D01*
X110061928Y-116823000D01*
X110061928Y-117077000D01*
X109573750Y-117077000D01*
X109415000Y-117235750D01*
X109412002Y-117665285D01*
X109416801Y-117723000D01*
X108677000Y-117723000D01*
X108677000Y-110177000D01*
X109431848Y-110177000D01*
X109422366Y-110210061D01*
G36*
X113912002Y-110334715D02*
G01*
X113915000Y-110764250D01*
X114073750Y-110923000D01*
X114561928Y-110923000D01*
X114561928Y-111177000D01*
X114073750Y-111177000D01*
X113915000Y-111335750D01*
X113912002Y-111765285D01*
X113922366Y-111889939D01*
X113956849Y-112010175D01*
X114014126Y-112121375D01*
X114091997Y-112219263D01*
X114187469Y-112300078D01*
X114296873Y-112360715D01*
X114416004Y-112398844D01*
X114518250Y-112410000D01*
X114647998Y-112280252D01*
X114647998Y-112410000D01*
X114702089Y-112410000D01*
X114715000Y-112452563D01*
X114715000Y-112601939D01*
X114754774Y-112801898D01*
X114823000Y-112966609D01*
X114823000Y-115033391D01*
X114754774Y-115198102D01*
X114715000Y-115398061D01*
X114715000Y-115547437D01*
X114702089Y-115590000D01*
X114647998Y-115590000D01*
X114647998Y-115719748D01*
X114518250Y-115590000D01*
X114416004Y-115601156D01*
X114296873Y-115639285D01*
X114187469Y-115699922D01*
X114091997Y-115780737D01*
X114014126Y-115878625D01*
X113956849Y-115989825D01*
X113922366Y-116110061D01*
X113912002Y-116234715D01*
X113915000Y-116664250D01*
X114073750Y-116823000D01*
X114561928Y-116823000D01*
X114561928Y-117077000D01*
X114073750Y-117077000D01*
X113915000Y-117235750D01*
X113912002Y-117665285D01*
X113912643Y-117673000D01*
X113127000Y-117673000D01*
X113127000Y-110277000D01*
X113916801Y-110277000D01*
X113912002Y-110334715D01*
G37*
X113912002Y-110334715D02*
X113915000Y-110764250D01*
X114073750Y-110923000D01*
X114561928Y-110923000D01*
X114561928Y-111177000D01*
X114073750Y-111177000D01*
X113915000Y-111335750D01*
X113912002Y-111765285D01*
X113922366Y-111889939D01*
X113956849Y-112010175D01*
X114014126Y-112121375D01*
X114091997Y-112219263D01*
X114187469Y-112300078D01*
X114296873Y-112360715D01*
X114416004Y-112398844D01*
X114518250Y-112410000D01*
X114647998Y-112280252D01*
X114647998Y-112410000D01*
X114702089Y-112410000D01*
X114715000Y-112452563D01*
X114715000Y-112601939D01*
X114754774Y-112801898D01*
X114823000Y-112966609D01*
X114823000Y-115033391D01*
X114754774Y-115198102D01*
X114715000Y-115398061D01*
X114715000Y-115547437D01*
X114702089Y-115590000D01*
X114647998Y-115590000D01*
X114647998Y-115719748D01*
X114518250Y-115590000D01*
X114416004Y-115601156D01*
X114296873Y-115639285D01*
X114187469Y-115699922D01*
X114091997Y-115780737D01*
X114014126Y-115878625D01*
X113956849Y-115989825D01*
X113922366Y-116110061D01*
X113912002Y-116234715D01*
X113915000Y-116664250D01*
X114073750Y-116823000D01*
X114561928Y-116823000D01*
X114561928Y-117077000D01*
X114073750Y-117077000D01*
X113915000Y-117235750D01*
X113912002Y-117665285D01*
X113912643Y-117673000D01*
X113127000Y-117673000D01*
X113127000Y-110277000D01*
X113916801Y-110277000D01*
X113912002Y-110334715D01*
M02*
