G04 #@! TF.GenerationSoftware,KiCad,Pcbnew,(5.1.5)-3*
G04 #@! TF.CreationDate,2020-07-22T22:43:47-05:00*
G04 #@! TF.ProjectId,LightDriverShieldVer2,4c696768-7444-4726-9976-657253686965,rev?*
G04 #@! TF.SameCoordinates,Original*
G04 #@! TF.FileFunction,Paste,Top*
G04 #@! TF.FilePolarity,Positive*
%FSLAX46Y46*%
G04 Gerber Fmt 4.6, Leading zero omitted, Abs format (unit mm)*
G04 Created by KiCad (PCBNEW (5.1.5)-3) date 2020-07-22 22:43:47*
%MOMM*%
%LPD*%
G04 APERTURE LIST*
%ADD10R,0.720000X0.640000*%
%ADD11R,0.360000X1.160000*%
%ADD12C,0.100000*%
%ADD13R,0.640000X0.720000*%
G04 APERTURE END LIST*
D10*
X116050000Y-107800000D03*
X114050000Y-108750000D03*
X114050000Y-106850000D03*
X102150000Y-98050000D03*
X104150000Y-97100000D03*
X104150000Y-99000000D03*
X111650000Y-107700000D03*
X109650000Y-108650000D03*
X109650000Y-106750000D03*
X107100000Y-107800000D03*
X105100000Y-108750000D03*
X105100000Y-106850000D03*
D11*
X105775000Y-111050000D03*
X106425000Y-111050000D03*
X107075000Y-111050000D03*
X107725000Y-111050000D03*
X107725000Y-116950000D03*
X107075000Y-116950000D03*
X106425000Y-116950000D03*
X105775000Y-116950000D03*
X114775000Y-111050000D03*
X115425000Y-111050000D03*
X116075000Y-111050000D03*
X116725000Y-111050000D03*
X116725000Y-116950000D03*
X116075000Y-116950000D03*
X115425000Y-116950000D03*
X114775000Y-116950000D03*
X110275000Y-111050000D03*
X110925000Y-111050000D03*
X111575000Y-111050000D03*
X112225000Y-111050000D03*
X112225000Y-116950000D03*
X111575000Y-116950000D03*
X110925000Y-116950000D03*
X110275000Y-116950000D03*
D12*
G36*
X117149566Y-103529568D02*
G01*
X117161021Y-103531267D01*
X117172254Y-103534081D01*
X117183157Y-103537982D01*
X117193625Y-103542933D01*
X117203557Y-103548887D01*
X117212858Y-103555785D01*
X117221439Y-103563561D01*
X117229215Y-103572142D01*
X117236113Y-103581443D01*
X117242067Y-103591375D01*
X117247018Y-103601843D01*
X117250919Y-103612746D01*
X117253733Y-103623979D01*
X117255432Y-103635434D01*
X117256000Y-103647000D01*
X117256000Y-103883000D01*
X117255432Y-103894566D01*
X117253733Y-103906021D01*
X117250919Y-103917254D01*
X117247018Y-103928157D01*
X117242067Y-103938625D01*
X117236113Y-103948557D01*
X117229215Y-103957858D01*
X117221439Y-103966439D01*
X117212858Y-103974215D01*
X117203557Y-103981113D01*
X117193625Y-103987067D01*
X117183157Y-103992018D01*
X117172254Y-103995919D01*
X117161021Y-103998733D01*
X117149566Y-104000432D01*
X117138000Y-104001000D01*
X116862000Y-104001000D01*
X116850434Y-104000432D01*
X116838979Y-103998733D01*
X116827746Y-103995919D01*
X116816843Y-103992018D01*
X116806375Y-103987067D01*
X116796443Y-103981113D01*
X116787142Y-103974215D01*
X116778561Y-103966439D01*
X116770785Y-103957858D01*
X116763887Y-103948557D01*
X116757933Y-103938625D01*
X116752982Y-103928157D01*
X116749081Y-103917254D01*
X116746267Y-103906021D01*
X116744568Y-103894566D01*
X116744000Y-103883000D01*
X116744000Y-103647000D01*
X116744568Y-103635434D01*
X116746267Y-103623979D01*
X116749081Y-103612746D01*
X116752982Y-103601843D01*
X116757933Y-103591375D01*
X116763887Y-103581443D01*
X116770785Y-103572142D01*
X116778561Y-103563561D01*
X116787142Y-103555785D01*
X116796443Y-103548887D01*
X116806375Y-103542933D01*
X116816843Y-103537982D01*
X116827746Y-103534081D01*
X116838979Y-103531267D01*
X116850434Y-103529568D01*
X116862000Y-103529000D01*
X117138000Y-103529000D01*
X117149566Y-103529568D01*
G37*
G36*
X117149566Y-104499568D02*
G01*
X117161021Y-104501267D01*
X117172254Y-104504081D01*
X117183157Y-104507982D01*
X117193625Y-104512933D01*
X117203557Y-104518887D01*
X117212858Y-104525785D01*
X117221439Y-104533561D01*
X117229215Y-104542142D01*
X117236113Y-104551443D01*
X117242067Y-104561375D01*
X117247018Y-104571843D01*
X117250919Y-104582746D01*
X117253733Y-104593979D01*
X117255432Y-104605434D01*
X117256000Y-104617000D01*
X117256000Y-104853000D01*
X117255432Y-104864566D01*
X117253733Y-104876021D01*
X117250919Y-104887254D01*
X117247018Y-104898157D01*
X117242067Y-104908625D01*
X117236113Y-104918557D01*
X117229215Y-104927858D01*
X117221439Y-104936439D01*
X117212858Y-104944215D01*
X117203557Y-104951113D01*
X117193625Y-104957067D01*
X117183157Y-104962018D01*
X117172254Y-104965919D01*
X117161021Y-104968733D01*
X117149566Y-104970432D01*
X117138000Y-104971000D01*
X116862000Y-104971000D01*
X116850434Y-104970432D01*
X116838979Y-104968733D01*
X116827746Y-104965919D01*
X116816843Y-104962018D01*
X116806375Y-104957067D01*
X116796443Y-104951113D01*
X116787142Y-104944215D01*
X116778561Y-104936439D01*
X116770785Y-104927858D01*
X116763887Y-104918557D01*
X116757933Y-104908625D01*
X116752982Y-104898157D01*
X116749081Y-104887254D01*
X116746267Y-104876021D01*
X116744568Y-104864566D01*
X116744000Y-104853000D01*
X116744000Y-104617000D01*
X116744568Y-104605434D01*
X116746267Y-104593979D01*
X116749081Y-104582746D01*
X116752982Y-104571843D01*
X116757933Y-104561375D01*
X116763887Y-104551443D01*
X116770785Y-104542142D01*
X116778561Y-104533561D01*
X116787142Y-104525785D01*
X116796443Y-104518887D01*
X116806375Y-104512933D01*
X116816843Y-104507982D01*
X116827746Y-104504081D01*
X116838979Y-104501267D01*
X116850434Y-104499568D01*
X116862000Y-104499000D01*
X117138000Y-104499000D01*
X117149566Y-104499568D01*
G37*
G36*
X114409566Y-105244568D02*
G01*
X114421021Y-105246267D01*
X114432254Y-105249081D01*
X114443157Y-105252982D01*
X114453625Y-105257933D01*
X114463557Y-105263887D01*
X114472858Y-105270785D01*
X114481439Y-105278561D01*
X114489215Y-105287142D01*
X114496113Y-105296443D01*
X114502067Y-105306375D01*
X114507018Y-105316843D01*
X114510919Y-105327746D01*
X114513733Y-105338979D01*
X114515432Y-105350434D01*
X114516000Y-105362000D01*
X114516000Y-105638000D01*
X114515432Y-105649566D01*
X114513733Y-105661021D01*
X114510919Y-105672254D01*
X114507018Y-105683157D01*
X114502067Y-105693625D01*
X114496113Y-105703557D01*
X114489215Y-105712858D01*
X114481439Y-105721439D01*
X114472858Y-105729215D01*
X114463557Y-105736113D01*
X114453625Y-105742067D01*
X114443157Y-105747018D01*
X114432254Y-105750919D01*
X114421021Y-105753733D01*
X114409566Y-105755432D01*
X114398000Y-105756000D01*
X114162000Y-105756000D01*
X114150434Y-105755432D01*
X114138979Y-105753733D01*
X114127746Y-105750919D01*
X114116843Y-105747018D01*
X114106375Y-105742067D01*
X114096443Y-105736113D01*
X114087142Y-105729215D01*
X114078561Y-105721439D01*
X114070785Y-105712858D01*
X114063887Y-105703557D01*
X114057933Y-105693625D01*
X114052982Y-105683157D01*
X114049081Y-105672254D01*
X114046267Y-105661021D01*
X114044568Y-105649566D01*
X114044000Y-105638000D01*
X114044000Y-105362000D01*
X114044568Y-105350434D01*
X114046267Y-105338979D01*
X114049081Y-105327746D01*
X114052982Y-105316843D01*
X114057933Y-105306375D01*
X114063887Y-105296443D01*
X114070785Y-105287142D01*
X114078561Y-105278561D01*
X114087142Y-105270785D01*
X114096443Y-105263887D01*
X114106375Y-105257933D01*
X114116843Y-105252982D01*
X114127746Y-105249081D01*
X114138979Y-105246267D01*
X114150434Y-105244568D01*
X114162000Y-105244000D01*
X114398000Y-105244000D01*
X114409566Y-105244568D01*
G37*
G36*
X115379566Y-105244568D02*
G01*
X115391021Y-105246267D01*
X115402254Y-105249081D01*
X115413157Y-105252982D01*
X115423625Y-105257933D01*
X115433557Y-105263887D01*
X115442858Y-105270785D01*
X115451439Y-105278561D01*
X115459215Y-105287142D01*
X115466113Y-105296443D01*
X115472067Y-105306375D01*
X115477018Y-105316843D01*
X115480919Y-105327746D01*
X115483733Y-105338979D01*
X115485432Y-105350434D01*
X115486000Y-105362000D01*
X115486000Y-105638000D01*
X115485432Y-105649566D01*
X115483733Y-105661021D01*
X115480919Y-105672254D01*
X115477018Y-105683157D01*
X115472067Y-105693625D01*
X115466113Y-105703557D01*
X115459215Y-105712858D01*
X115451439Y-105721439D01*
X115442858Y-105729215D01*
X115433557Y-105736113D01*
X115423625Y-105742067D01*
X115413157Y-105747018D01*
X115402254Y-105750919D01*
X115391021Y-105753733D01*
X115379566Y-105755432D01*
X115368000Y-105756000D01*
X115132000Y-105756000D01*
X115120434Y-105755432D01*
X115108979Y-105753733D01*
X115097746Y-105750919D01*
X115086843Y-105747018D01*
X115076375Y-105742067D01*
X115066443Y-105736113D01*
X115057142Y-105729215D01*
X115048561Y-105721439D01*
X115040785Y-105712858D01*
X115033887Y-105703557D01*
X115027933Y-105693625D01*
X115022982Y-105683157D01*
X115019081Y-105672254D01*
X115016267Y-105661021D01*
X115014568Y-105649566D01*
X115014000Y-105638000D01*
X115014000Y-105362000D01*
X115014568Y-105350434D01*
X115016267Y-105338979D01*
X115019081Y-105327746D01*
X115022982Y-105316843D01*
X115027933Y-105306375D01*
X115033887Y-105296443D01*
X115040785Y-105287142D01*
X115048561Y-105278561D01*
X115057142Y-105270785D01*
X115066443Y-105263887D01*
X115076375Y-105257933D01*
X115086843Y-105252982D01*
X115097746Y-105249081D01*
X115108979Y-105246267D01*
X115120434Y-105244568D01*
X115132000Y-105244000D01*
X115368000Y-105244000D01*
X115379566Y-105244568D01*
G37*
G36*
X112649566Y-103529568D02*
G01*
X112661021Y-103531267D01*
X112672254Y-103534081D01*
X112683157Y-103537982D01*
X112693625Y-103542933D01*
X112703557Y-103548887D01*
X112712858Y-103555785D01*
X112721439Y-103563561D01*
X112729215Y-103572142D01*
X112736113Y-103581443D01*
X112742067Y-103591375D01*
X112747018Y-103601843D01*
X112750919Y-103612746D01*
X112753733Y-103623979D01*
X112755432Y-103635434D01*
X112756000Y-103647000D01*
X112756000Y-103883000D01*
X112755432Y-103894566D01*
X112753733Y-103906021D01*
X112750919Y-103917254D01*
X112747018Y-103928157D01*
X112742067Y-103938625D01*
X112736113Y-103948557D01*
X112729215Y-103957858D01*
X112721439Y-103966439D01*
X112712858Y-103974215D01*
X112703557Y-103981113D01*
X112693625Y-103987067D01*
X112683157Y-103992018D01*
X112672254Y-103995919D01*
X112661021Y-103998733D01*
X112649566Y-104000432D01*
X112638000Y-104001000D01*
X112362000Y-104001000D01*
X112350434Y-104000432D01*
X112338979Y-103998733D01*
X112327746Y-103995919D01*
X112316843Y-103992018D01*
X112306375Y-103987067D01*
X112296443Y-103981113D01*
X112287142Y-103974215D01*
X112278561Y-103966439D01*
X112270785Y-103957858D01*
X112263887Y-103948557D01*
X112257933Y-103938625D01*
X112252982Y-103928157D01*
X112249081Y-103917254D01*
X112246267Y-103906021D01*
X112244568Y-103894566D01*
X112244000Y-103883000D01*
X112244000Y-103647000D01*
X112244568Y-103635434D01*
X112246267Y-103623979D01*
X112249081Y-103612746D01*
X112252982Y-103601843D01*
X112257933Y-103591375D01*
X112263887Y-103581443D01*
X112270785Y-103572142D01*
X112278561Y-103563561D01*
X112287142Y-103555785D01*
X112296443Y-103548887D01*
X112306375Y-103542933D01*
X112316843Y-103537982D01*
X112327746Y-103534081D01*
X112338979Y-103531267D01*
X112350434Y-103529568D01*
X112362000Y-103529000D01*
X112638000Y-103529000D01*
X112649566Y-103529568D01*
G37*
G36*
X112649566Y-104499568D02*
G01*
X112661021Y-104501267D01*
X112672254Y-104504081D01*
X112683157Y-104507982D01*
X112693625Y-104512933D01*
X112703557Y-104518887D01*
X112712858Y-104525785D01*
X112721439Y-104533561D01*
X112729215Y-104542142D01*
X112736113Y-104551443D01*
X112742067Y-104561375D01*
X112747018Y-104571843D01*
X112750919Y-104582746D01*
X112753733Y-104593979D01*
X112755432Y-104605434D01*
X112756000Y-104617000D01*
X112756000Y-104853000D01*
X112755432Y-104864566D01*
X112753733Y-104876021D01*
X112750919Y-104887254D01*
X112747018Y-104898157D01*
X112742067Y-104908625D01*
X112736113Y-104918557D01*
X112729215Y-104927858D01*
X112721439Y-104936439D01*
X112712858Y-104944215D01*
X112703557Y-104951113D01*
X112693625Y-104957067D01*
X112683157Y-104962018D01*
X112672254Y-104965919D01*
X112661021Y-104968733D01*
X112649566Y-104970432D01*
X112638000Y-104971000D01*
X112362000Y-104971000D01*
X112350434Y-104970432D01*
X112338979Y-104968733D01*
X112327746Y-104965919D01*
X112316843Y-104962018D01*
X112306375Y-104957067D01*
X112296443Y-104951113D01*
X112287142Y-104944215D01*
X112278561Y-104936439D01*
X112270785Y-104927858D01*
X112263887Y-104918557D01*
X112257933Y-104908625D01*
X112252982Y-104898157D01*
X112249081Y-104887254D01*
X112246267Y-104876021D01*
X112244568Y-104864566D01*
X112244000Y-104853000D01*
X112244000Y-104617000D01*
X112244568Y-104605434D01*
X112246267Y-104593979D01*
X112249081Y-104582746D01*
X112252982Y-104571843D01*
X112257933Y-104561375D01*
X112263887Y-104551443D01*
X112270785Y-104542142D01*
X112278561Y-104533561D01*
X112287142Y-104525785D01*
X112296443Y-104518887D01*
X112306375Y-104512933D01*
X112316843Y-104507982D01*
X112327746Y-104504081D01*
X112338979Y-104501267D01*
X112350434Y-104499568D01*
X112362000Y-104499000D01*
X112638000Y-104499000D01*
X112649566Y-104499568D01*
G37*
G36*
X108149566Y-103529568D02*
G01*
X108161021Y-103531267D01*
X108172254Y-103534081D01*
X108183157Y-103537982D01*
X108193625Y-103542933D01*
X108203557Y-103548887D01*
X108212858Y-103555785D01*
X108221439Y-103563561D01*
X108229215Y-103572142D01*
X108236113Y-103581443D01*
X108242067Y-103591375D01*
X108247018Y-103601843D01*
X108250919Y-103612746D01*
X108253733Y-103623979D01*
X108255432Y-103635434D01*
X108256000Y-103647000D01*
X108256000Y-103883000D01*
X108255432Y-103894566D01*
X108253733Y-103906021D01*
X108250919Y-103917254D01*
X108247018Y-103928157D01*
X108242067Y-103938625D01*
X108236113Y-103948557D01*
X108229215Y-103957858D01*
X108221439Y-103966439D01*
X108212858Y-103974215D01*
X108203557Y-103981113D01*
X108193625Y-103987067D01*
X108183157Y-103992018D01*
X108172254Y-103995919D01*
X108161021Y-103998733D01*
X108149566Y-104000432D01*
X108138000Y-104001000D01*
X107862000Y-104001000D01*
X107850434Y-104000432D01*
X107838979Y-103998733D01*
X107827746Y-103995919D01*
X107816843Y-103992018D01*
X107806375Y-103987067D01*
X107796443Y-103981113D01*
X107787142Y-103974215D01*
X107778561Y-103966439D01*
X107770785Y-103957858D01*
X107763887Y-103948557D01*
X107757933Y-103938625D01*
X107752982Y-103928157D01*
X107749081Y-103917254D01*
X107746267Y-103906021D01*
X107744568Y-103894566D01*
X107744000Y-103883000D01*
X107744000Y-103647000D01*
X107744568Y-103635434D01*
X107746267Y-103623979D01*
X107749081Y-103612746D01*
X107752982Y-103601843D01*
X107757933Y-103591375D01*
X107763887Y-103581443D01*
X107770785Y-103572142D01*
X107778561Y-103563561D01*
X107787142Y-103555785D01*
X107796443Y-103548887D01*
X107806375Y-103542933D01*
X107816843Y-103537982D01*
X107827746Y-103534081D01*
X107838979Y-103531267D01*
X107850434Y-103529568D01*
X107862000Y-103529000D01*
X108138000Y-103529000D01*
X108149566Y-103529568D01*
G37*
G36*
X108149566Y-104499568D02*
G01*
X108161021Y-104501267D01*
X108172254Y-104504081D01*
X108183157Y-104507982D01*
X108193625Y-104512933D01*
X108203557Y-104518887D01*
X108212858Y-104525785D01*
X108221439Y-104533561D01*
X108229215Y-104542142D01*
X108236113Y-104551443D01*
X108242067Y-104561375D01*
X108247018Y-104571843D01*
X108250919Y-104582746D01*
X108253733Y-104593979D01*
X108255432Y-104605434D01*
X108256000Y-104617000D01*
X108256000Y-104853000D01*
X108255432Y-104864566D01*
X108253733Y-104876021D01*
X108250919Y-104887254D01*
X108247018Y-104898157D01*
X108242067Y-104908625D01*
X108236113Y-104918557D01*
X108229215Y-104927858D01*
X108221439Y-104936439D01*
X108212858Y-104944215D01*
X108203557Y-104951113D01*
X108193625Y-104957067D01*
X108183157Y-104962018D01*
X108172254Y-104965919D01*
X108161021Y-104968733D01*
X108149566Y-104970432D01*
X108138000Y-104971000D01*
X107862000Y-104971000D01*
X107850434Y-104970432D01*
X107838979Y-104968733D01*
X107827746Y-104965919D01*
X107816843Y-104962018D01*
X107806375Y-104957067D01*
X107796443Y-104951113D01*
X107787142Y-104944215D01*
X107778561Y-104936439D01*
X107770785Y-104927858D01*
X107763887Y-104918557D01*
X107757933Y-104908625D01*
X107752982Y-104898157D01*
X107749081Y-104887254D01*
X107746267Y-104876021D01*
X107744568Y-104864566D01*
X107744000Y-104853000D01*
X107744000Y-104617000D01*
X107744568Y-104605434D01*
X107746267Y-104593979D01*
X107749081Y-104582746D01*
X107752982Y-104571843D01*
X107757933Y-104561375D01*
X107763887Y-104551443D01*
X107770785Y-104542142D01*
X107778561Y-104533561D01*
X107787142Y-104525785D01*
X107796443Y-104518887D01*
X107806375Y-104512933D01*
X107816843Y-104507982D01*
X107827746Y-104504081D01*
X107838979Y-104501267D01*
X107850434Y-104499568D01*
X107862000Y-104499000D01*
X108138000Y-104499000D01*
X108149566Y-104499568D01*
G37*
G36*
X109994566Y-105194568D02*
G01*
X110006021Y-105196267D01*
X110017254Y-105199081D01*
X110028157Y-105202982D01*
X110038625Y-105207933D01*
X110048557Y-105213887D01*
X110057858Y-105220785D01*
X110066439Y-105228561D01*
X110074215Y-105237142D01*
X110081113Y-105246443D01*
X110087067Y-105256375D01*
X110092018Y-105266843D01*
X110095919Y-105277746D01*
X110098733Y-105288979D01*
X110100432Y-105300434D01*
X110101000Y-105312000D01*
X110101000Y-105588000D01*
X110100432Y-105599566D01*
X110098733Y-105611021D01*
X110095919Y-105622254D01*
X110092018Y-105633157D01*
X110087067Y-105643625D01*
X110081113Y-105653557D01*
X110074215Y-105662858D01*
X110066439Y-105671439D01*
X110057858Y-105679215D01*
X110048557Y-105686113D01*
X110038625Y-105692067D01*
X110028157Y-105697018D01*
X110017254Y-105700919D01*
X110006021Y-105703733D01*
X109994566Y-105705432D01*
X109983000Y-105706000D01*
X109747000Y-105706000D01*
X109735434Y-105705432D01*
X109723979Y-105703733D01*
X109712746Y-105700919D01*
X109701843Y-105697018D01*
X109691375Y-105692067D01*
X109681443Y-105686113D01*
X109672142Y-105679215D01*
X109663561Y-105671439D01*
X109655785Y-105662858D01*
X109648887Y-105653557D01*
X109642933Y-105643625D01*
X109637982Y-105633157D01*
X109634081Y-105622254D01*
X109631267Y-105611021D01*
X109629568Y-105599566D01*
X109629000Y-105588000D01*
X109629000Y-105312000D01*
X109629568Y-105300434D01*
X109631267Y-105288979D01*
X109634081Y-105277746D01*
X109637982Y-105266843D01*
X109642933Y-105256375D01*
X109648887Y-105246443D01*
X109655785Y-105237142D01*
X109663561Y-105228561D01*
X109672142Y-105220785D01*
X109681443Y-105213887D01*
X109691375Y-105207933D01*
X109701843Y-105202982D01*
X109712746Y-105199081D01*
X109723979Y-105196267D01*
X109735434Y-105194568D01*
X109747000Y-105194000D01*
X109983000Y-105194000D01*
X109994566Y-105194568D01*
G37*
G36*
X110964566Y-105194568D02*
G01*
X110976021Y-105196267D01*
X110987254Y-105199081D01*
X110998157Y-105202982D01*
X111008625Y-105207933D01*
X111018557Y-105213887D01*
X111027858Y-105220785D01*
X111036439Y-105228561D01*
X111044215Y-105237142D01*
X111051113Y-105246443D01*
X111057067Y-105256375D01*
X111062018Y-105266843D01*
X111065919Y-105277746D01*
X111068733Y-105288979D01*
X111070432Y-105300434D01*
X111071000Y-105312000D01*
X111071000Y-105588000D01*
X111070432Y-105599566D01*
X111068733Y-105611021D01*
X111065919Y-105622254D01*
X111062018Y-105633157D01*
X111057067Y-105643625D01*
X111051113Y-105653557D01*
X111044215Y-105662858D01*
X111036439Y-105671439D01*
X111027858Y-105679215D01*
X111018557Y-105686113D01*
X111008625Y-105692067D01*
X110998157Y-105697018D01*
X110987254Y-105700919D01*
X110976021Y-105703733D01*
X110964566Y-105705432D01*
X110953000Y-105706000D01*
X110717000Y-105706000D01*
X110705434Y-105705432D01*
X110693979Y-105703733D01*
X110682746Y-105700919D01*
X110671843Y-105697018D01*
X110661375Y-105692067D01*
X110651443Y-105686113D01*
X110642142Y-105679215D01*
X110633561Y-105671439D01*
X110625785Y-105662858D01*
X110618887Y-105653557D01*
X110612933Y-105643625D01*
X110607982Y-105633157D01*
X110604081Y-105622254D01*
X110601267Y-105611021D01*
X110599568Y-105599566D01*
X110599000Y-105588000D01*
X110599000Y-105312000D01*
X110599568Y-105300434D01*
X110601267Y-105288979D01*
X110604081Y-105277746D01*
X110607982Y-105266843D01*
X110612933Y-105256375D01*
X110618887Y-105246443D01*
X110625785Y-105237142D01*
X110633561Y-105228561D01*
X110642142Y-105220785D01*
X110651443Y-105213887D01*
X110661375Y-105207933D01*
X110671843Y-105202982D01*
X110682746Y-105199081D01*
X110693979Y-105196267D01*
X110705434Y-105194568D01*
X110717000Y-105194000D01*
X110953000Y-105194000D01*
X110964566Y-105194568D01*
G37*
G36*
X105594566Y-105194568D02*
G01*
X105606021Y-105196267D01*
X105617254Y-105199081D01*
X105628157Y-105202982D01*
X105638625Y-105207933D01*
X105648557Y-105213887D01*
X105657858Y-105220785D01*
X105666439Y-105228561D01*
X105674215Y-105237142D01*
X105681113Y-105246443D01*
X105687067Y-105256375D01*
X105692018Y-105266843D01*
X105695919Y-105277746D01*
X105698733Y-105288979D01*
X105700432Y-105300434D01*
X105701000Y-105312000D01*
X105701000Y-105588000D01*
X105700432Y-105599566D01*
X105698733Y-105611021D01*
X105695919Y-105622254D01*
X105692018Y-105633157D01*
X105687067Y-105643625D01*
X105681113Y-105653557D01*
X105674215Y-105662858D01*
X105666439Y-105671439D01*
X105657858Y-105679215D01*
X105648557Y-105686113D01*
X105638625Y-105692067D01*
X105628157Y-105697018D01*
X105617254Y-105700919D01*
X105606021Y-105703733D01*
X105594566Y-105705432D01*
X105583000Y-105706000D01*
X105347000Y-105706000D01*
X105335434Y-105705432D01*
X105323979Y-105703733D01*
X105312746Y-105700919D01*
X105301843Y-105697018D01*
X105291375Y-105692067D01*
X105281443Y-105686113D01*
X105272142Y-105679215D01*
X105263561Y-105671439D01*
X105255785Y-105662858D01*
X105248887Y-105653557D01*
X105242933Y-105643625D01*
X105237982Y-105633157D01*
X105234081Y-105622254D01*
X105231267Y-105611021D01*
X105229568Y-105599566D01*
X105229000Y-105588000D01*
X105229000Y-105312000D01*
X105229568Y-105300434D01*
X105231267Y-105288979D01*
X105234081Y-105277746D01*
X105237982Y-105266843D01*
X105242933Y-105256375D01*
X105248887Y-105246443D01*
X105255785Y-105237142D01*
X105263561Y-105228561D01*
X105272142Y-105220785D01*
X105281443Y-105213887D01*
X105291375Y-105207933D01*
X105301843Y-105202982D01*
X105312746Y-105199081D01*
X105323979Y-105196267D01*
X105335434Y-105194568D01*
X105347000Y-105194000D01*
X105583000Y-105194000D01*
X105594566Y-105194568D01*
G37*
G36*
X106564566Y-105194568D02*
G01*
X106576021Y-105196267D01*
X106587254Y-105199081D01*
X106598157Y-105202982D01*
X106608625Y-105207933D01*
X106618557Y-105213887D01*
X106627858Y-105220785D01*
X106636439Y-105228561D01*
X106644215Y-105237142D01*
X106651113Y-105246443D01*
X106657067Y-105256375D01*
X106662018Y-105266843D01*
X106665919Y-105277746D01*
X106668733Y-105288979D01*
X106670432Y-105300434D01*
X106671000Y-105312000D01*
X106671000Y-105588000D01*
X106670432Y-105599566D01*
X106668733Y-105611021D01*
X106665919Y-105622254D01*
X106662018Y-105633157D01*
X106657067Y-105643625D01*
X106651113Y-105653557D01*
X106644215Y-105662858D01*
X106636439Y-105671439D01*
X106627858Y-105679215D01*
X106618557Y-105686113D01*
X106608625Y-105692067D01*
X106598157Y-105697018D01*
X106587254Y-105700919D01*
X106576021Y-105703733D01*
X106564566Y-105705432D01*
X106553000Y-105706000D01*
X106317000Y-105706000D01*
X106305434Y-105705432D01*
X106293979Y-105703733D01*
X106282746Y-105700919D01*
X106271843Y-105697018D01*
X106261375Y-105692067D01*
X106251443Y-105686113D01*
X106242142Y-105679215D01*
X106233561Y-105671439D01*
X106225785Y-105662858D01*
X106218887Y-105653557D01*
X106212933Y-105643625D01*
X106207982Y-105633157D01*
X106204081Y-105622254D01*
X106201267Y-105611021D01*
X106199568Y-105599566D01*
X106199000Y-105588000D01*
X106199000Y-105312000D01*
X106199568Y-105300434D01*
X106201267Y-105288979D01*
X106204081Y-105277746D01*
X106207982Y-105266843D01*
X106212933Y-105256375D01*
X106218887Y-105246443D01*
X106225785Y-105237142D01*
X106233561Y-105228561D01*
X106242142Y-105220785D01*
X106251443Y-105213887D01*
X106261375Y-105207933D01*
X106271843Y-105202982D01*
X106282746Y-105199081D01*
X106293979Y-105196267D01*
X106305434Y-105194568D01*
X106317000Y-105194000D01*
X106553000Y-105194000D01*
X106564566Y-105194568D01*
G37*
G36*
X105644566Y-91994568D02*
G01*
X105656021Y-91996267D01*
X105667254Y-91999081D01*
X105678157Y-92002982D01*
X105688625Y-92007933D01*
X105698557Y-92013887D01*
X105707858Y-92020785D01*
X105716439Y-92028561D01*
X105724215Y-92037142D01*
X105731113Y-92046443D01*
X105737067Y-92056375D01*
X105742018Y-92066843D01*
X105745919Y-92077746D01*
X105748733Y-92088979D01*
X105750432Y-92100434D01*
X105751000Y-92112000D01*
X105751000Y-92388000D01*
X105750432Y-92399566D01*
X105748733Y-92411021D01*
X105745919Y-92422254D01*
X105742018Y-92433157D01*
X105737067Y-92443625D01*
X105731113Y-92453557D01*
X105724215Y-92462858D01*
X105716439Y-92471439D01*
X105707858Y-92479215D01*
X105698557Y-92486113D01*
X105688625Y-92492067D01*
X105678157Y-92497018D01*
X105667254Y-92500919D01*
X105656021Y-92503733D01*
X105644566Y-92505432D01*
X105633000Y-92506000D01*
X105397000Y-92506000D01*
X105385434Y-92505432D01*
X105373979Y-92503733D01*
X105362746Y-92500919D01*
X105351843Y-92497018D01*
X105341375Y-92492067D01*
X105331443Y-92486113D01*
X105322142Y-92479215D01*
X105313561Y-92471439D01*
X105305785Y-92462858D01*
X105298887Y-92453557D01*
X105292933Y-92443625D01*
X105287982Y-92433157D01*
X105284081Y-92422254D01*
X105281267Y-92411021D01*
X105279568Y-92399566D01*
X105279000Y-92388000D01*
X105279000Y-92112000D01*
X105279568Y-92100434D01*
X105281267Y-92088979D01*
X105284081Y-92077746D01*
X105287982Y-92066843D01*
X105292933Y-92056375D01*
X105298887Y-92046443D01*
X105305785Y-92037142D01*
X105313561Y-92028561D01*
X105322142Y-92020785D01*
X105331443Y-92013887D01*
X105341375Y-92007933D01*
X105351843Y-92002982D01*
X105362746Y-91999081D01*
X105373979Y-91996267D01*
X105385434Y-91994568D01*
X105397000Y-91994000D01*
X105633000Y-91994000D01*
X105644566Y-91994568D01*
G37*
G36*
X106614566Y-91994568D02*
G01*
X106626021Y-91996267D01*
X106637254Y-91999081D01*
X106648157Y-92002982D01*
X106658625Y-92007933D01*
X106668557Y-92013887D01*
X106677858Y-92020785D01*
X106686439Y-92028561D01*
X106694215Y-92037142D01*
X106701113Y-92046443D01*
X106707067Y-92056375D01*
X106712018Y-92066843D01*
X106715919Y-92077746D01*
X106718733Y-92088979D01*
X106720432Y-92100434D01*
X106721000Y-92112000D01*
X106721000Y-92388000D01*
X106720432Y-92399566D01*
X106718733Y-92411021D01*
X106715919Y-92422254D01*
X106712018Y-92433157D01*
X106707067Y-92443625D01*
X106701113Y-92453557D01*
X106694215Y-92462858D01*
X106686439Y-92471439D01*
X106677858Y-92479215D01*
X106668557Y-92486113D01*
X106658625Y-92492067D01*
X106648157Y-92497018D01*
X106637254Y-92500919D01*
X106626021Y-92503733D01*
X106614566Y-92505432D01*
X106603000Y-92506000D01*
X106367000Y-92506000D01*
X106355434Y-92505432D01*
X106343979Y-92503733D01*
X106332746Y-92500919D01*
X106321843Y-92497018D01*
X106311375Y-92492067D01*
X106301443Y-92486113D01*
X106292142Y-92479215D01*
X106283561Y-92471439D01*
X106275785Y-92462858D01*
X106268887Y-92453557D01*
X106262933Y-92443625D01*
X106257982Y-92433157D01*
X106254081Y-92422254D01*
X106251267Y-92411021D01*
X106249568Y-92399566D01*
X106249000Y-92388000D01*
X106249000Y-92112000D01*
X106249568Y-92100434D01*
X106251267Y-92088979D01*
X106254081Y-92077746D01*
X106257982Y-92066843D01*
X106262933Y-92056375D01*
X106268887Y-92046443D01*
X106275785Y-92037142D01*
X106283561Y-92028561D01*
X106292142Y-92020785D01*
X106301443Y-92013887D01*
X106311375Y-92007933D01*
X106321843Y-92002982D01*
X106332746Y-91999081D01*
X106343979Y-91996267D01*
X106355434Y-91994568D01*
X106367000Y-91994000D01*
X106603000Y-91994000D01*
X106614566Y-91994568D01*
G37*
G36*
X104264566Y-100194568D02*
G01*
X104276021Y-100196267D01*
X104287254Y-100199081D01*
X104298157Y-100202982D01*
X104308625Y-100207933D01*
X104318557Y-100213887D01*
X104327858Y-100220785D01*
X104336439Y-100228561D01*
X104344215Y-100237142D01*
X104351113Y-100246443D01*
X104357067Y-100256375D01*
X104362018Y-100266843D01*
X104365919Y-100277746D01*
X104368733Y-100288979D01*
X104370432Y-100300434D01*
X104371000Y-100312000D01*
X104371000Y-100588000D01*
X104370432Y-100599566D01*
X104368733Y-100611021D01*
X104365919Y-100622254D01*
X104362018Y-100633157D01*
X104357067Y-100643625D01*
X104351113Y-100653557D01*
X104344215Y-100662858D01*
X104336439Y-100671439D01*
X104327858Y-100679215D01*
X104318557Y-100686113D01*
X104308625Y-100692067D01*
X104298157Y-100697018D01*
X104287254Y-100700919D01*
X104276021Y-100703733D01*
X104264566Y-100705432D01*
X104253000Y-100706000D01*
X104017000Y-100706000D01*
X104005434Y-100705432D01*
X103993979Y-100703733D01*
X103982746Y-100700919D01*
X103971843Y-100697018D01*
X103961375Y-100692067D01*
X103951443Y-100686113D01*
X103942142Y-100679215D01*
X103933561Y-100671439D01*
X103925785Y-100662858D01*
X103918887Y-100653557D01*
X103912933Y-100643625D01*
X103907982Y-100633157D01*
X103904081Y-100622254D01*
X103901267Y-100611021D01*
X103899568Y-100599566D01*
X103899000Y-100588000D01*
X103899000Y-100312000D01*
X103899568Y-100300434D01*
X103901267Y-100288979D01*
X103904081Y-100277746D01*
X103907982Y-100266843D01*
X103912933Y-100256375D01*
X103918887Y-100246443D01*
X103925785Y-100237142D01*
X103933561Y-100228561D01*
X103942142Y-100220785D01*
X103951443Y-100213887D01*
X103961375Y-100207933D01*
X103971843Y-100202982D01*
X103982746Y-100199081D01*
X103993979Y-100196267D01*
X104005434Y-100194568D01*
X104017000Y-100194000D01*
X104253000Y-100194000D01*
X104264566Y-100194568D01*
G37*
G36*
X103294566Y-100194568D02*
G01*
X103306021Y-100196267D01*
X103317254Y-100199081D01*
X103328157Y-100202982D01*
X103338625Y-100207933D01*
X103348557Y-100213887D01*
X103357858Y-100220785D01*
X103366439Y-100228561D01*
X103374215Y-100237142D01*
X103381113Y-100246443D01*
X103387067Y-100256375D01*
X103392018Y-100266843D01*
X103395919Y-100277746D01*
X103398733Y-100288979D01*
X103400432Y-100300434D01*
X103401000Y-100312000D01*
X103401000Y-100588000D01*
X103400432Y-100599566D01*
X103398733Y-100611021D01*
X103395919Y-100622254D01*
X103392018Y-100633157D01*
X103387067Y-100643625D01*
X103381113Y-100653557D01*
X103374215Y-100662858D01*
X103366439Y-100671439D01*
X103357858Y-100679215D01*
X103348557Y-100686113D01*
X103338625Y-100692067D01*
X103328157Y-100697018D01*
X103317254Y-100700919D01*
X103306021Y-100703733D01*
X103294566Y-100705432D01*
X103283000Y-100706000D01*
X103047000Y-100706000D01*
X103035434Y-100705432D01*
X103023979Y-100703733D01*
X103012746Y-100700919D01*
X103001843Y-100697018D01*
X102991375Y-100692067D01*
X102981443Y-100686113D01*
X102972142Y-100679215D01*
X102963561Y-100671439D01*
X102955785Y-100662858D01*
X102948887Y-100653557D01*
X102942933Y-100643625D01*
X102937982Y-100633157D01*
X102934081Y-100622254D01*
X102931267Y-100611021D01*
X102929568Y-100599566D01*
X102929000Y-100588000D01*
X102929000Y-100312000D01*
X102929568Y-100300434D01*
X102931267Y-100288979D01*
X102934081Y-100277746D01*
X102937982Y-100266843D01*
X102942933Y-100256375D01*
X102948887Y-100246443D01*
X102955785Y-100237142D01*
X102963561Y-100228561D01*
X102972142Y-100220785D01*
X102981443Y-100213887D01*
X102991375Y-100207933D01*
X103001843Y-100202982D01*
X103012746Y-100199081D01*
X103023979Y-100196267D01*
X103035434Y-100194568D01*
X103047000Y-100194000D01*
X103283000Y-100194000D01*
X103294566Y-100194568D01*
G37*
D13*
X106000000Y-95500000D03*
X105050000Y-93500000D03*
X106950000Y-93500000D03*
M02*
