G04 #@! TF.GenerationSoftware,KiCad,Pcbnew,(5.1.5)-3*
G04 #@! TF.CreationDate,2020-07-01T18:11:23-05:00*
G04 #@! TF.ProjectId,LightDriverShieldVer2,4c696768-7444-4726-9976-657253686965,rev?*
G04 #@! TF.SameCoordinates,Original*
G04 #@! TF.FileFunction,Soldermask,Top*
G04 #@! TF.FilePolarity,Negative*
%FSLAX46Y46*%
G04 Gerber Fmt 4.6, Leading zero omitted, Abs format (unit mm)*
G04 Created by KiCad (PCBNEW (5.1.5)-3) date 2020-07-01 18:11:23*
%MOMM*%
%LPD*%
G04 APERTURE LIST*
%ADD10C,0.100000*%
G04 APERTURE END LIST*
D10*
G36*
X109798687Y-135155027D02*
G01*
X109976274Y-135190350D01*
X110167362Y-135269502D01*
X110339336Y-135384411D01*
X110485589Y-135530664D01*
X110600498Y-135702638D01*
X110679650Y-135893726D01*
X110720000Y-136096584D01*
X110720000Y-136303416D01*
X110679650Y-136506274D01*
X110600498Y-136697362D01*
X110485589Y-136869336D01*
X110339336Y-137015589D01*
X110167362Y-137130498D01*
X109976274Y-137209650D01*
X109798687Y-137244973D01*
X109773417Y-137250000D01*
X109566583Y-137250000D01*
X109541313Y-137244973D01*
X109363726Y-137209650D01*
X109172638Y-137130498D01*
X109000664Y-137015589D01*
X108854411Y-136869336D01*
X108739502Y-136697362D01*
X108660350Y-136506274D01*
X108620000Y-136303416D01*
X108620000Y-136096584D01*
X108660350Y-135893726D01*
X108739502Y-135702638D01*
X108854411Y-135530664D01*
X109000664Y-135384411D01*
X109172638Y-135269502D01*
X109363726Y-135190350D01*
X109541313Y-135155027D01*
X109566583Y-135150000D01*
X109773417Y-135150000D01*
X109798687Y-135155027D01*
G37*
G36*
X107258687Y-135155027D02*
G01*
X107436274Y-135190350D01*
X107627362Y-135269502D01*
X107799336Y-135384411D01*
X107945589Y-135530664D01*
X108060498Y-135702638D01*
X108139650Y-135893726D01*
X108180000Y-136096584D01*
X108180000Y-136303416D01*
X108139650Y-136506274D01*
X108060498Y-136697362D01*
X107945589Y-136869336D01*
X107799336Y-137015589D01*
X107627362Y-137130498D01*
X107436274Y-137209650D01*
X107258687Y-137244973D01*
X107233417Y-137250000D01*
X107026583Y-137250000D01*
X107001313Y-137244973D01*
X106823726Y-137209650D01*
X106632638Y-137130498D01*
X106460664Y-137015589D01*
X106314411Y-136869336D01*
X106199502Y-136697362D01*
X106120350Y-136506274D01*
X106080000Y-136303416D01*
X106080000Y-136096584D01*
X106120350Y-135893726D01*
X106199502Y-135702638D01*
X106314411Y-135530664D01*
X106460664Y-135384411D01*
X106632638Y-135269502D01*
X106823726Y-135190350D01*
X107001313Y-135155027D01*
X107026583Y-135150000D01*
X107233417Y-135150000D01*
X107258687Y-135155027D01*
G37*
G36*
X103100000Y-137250000D02*
G01*
X101000000Y-137250000D01*
X101000000Y-135150000D01*
X103100000Y-135150000D01*
X103100000Y-137250000D01*
G37*
G36*
X104718687Y-135155027D02*
G01*
X104896274Y-135190350D01*
X105087362Y-135269502D01*
X105259336Y-135384411D01*
X105405589Y-135530664D01*
X105520498Y-135702638D01*
X105599650Y-135893726D01*
X105640000Y-136096584D01*
X105640000Y-136303416D01*
X105599650Y-136506274D01*
X105520498Y-136697362D01*
X105405589Y-136869336D01*
X105259336Y-137015589D01*
X105087362Y-137130498D01*
X104896274Y-137209650D01*
X104718687Y-137244973D01*
X104693417Y-137250000D01*
X104486583Y-137250000D01*
X104461313Y-137244973D01*
X104283726Y-137209650D01*
X104092638Y-137130498D01*
X103920664Y-137015589D01*
X103774411Y-136869336D01*
X103659502Y-136697362D01*
X103580350Y-136506274D01*
X103540000Y-136303416D01*
X103540000Y-136096584D01*
X103580350Y-135893726D01*
X103659502Y-135702638D01*
X103774411Y-135530664D01*
X103920664Y-135384411D01*
X104092638Y-135269502D01*
X104283726Y-135190350D01*
X104461313Y-135155027D01*
X104486583Y-135150000D01*
X104693417Y-135150000D01*
X104718687Y-135155027D01*
G37*
G36*
X122713195Y-132377522D02*
G01*
X122762267Y-132387283D01*
X122900942Y-132444724D01*
X123025747Y-132528116D01*
X123131884Y-132634253D01*
X123215276Y-132759058D01*
X123272717Y-132897733D01*
X123302000Y-133044950D01*
X123302000Y-133195050D01*
X123272717Y-133342267D01*
X123215276Y-133480942D01*
X123131884Y-133605747D01*
X123025747Y-133711884D01*
X122900942Y-133795276D01*
X122762267Y-133852717D01*
X122713195Y-133862478D01*
X122615052Y-133882000D01*
X122464948Y-133882000D01*
X122366805Y-133862478D01*
X122317733Y-133852717D01*
X122179058Y-133795276D01*
X122054253Y-133711884D01*
X121948116Y-133605747D01*
X121864724Y-133480942D01*
X121807283Y-133342267D01*
X121778000Y-133195050D01*
X121778000Y-133044950D01*
X121807283Y-132897733D01*
X121864724Y-132759058D01*
X121948116Y-132634253D01*
X122054253Y-132528116D01*
X122179058Y-132444724D01*
X122317733Y-132387283D01*
X122366805Y-132377522D01*
X122464948Y-132358000D01*
X122615052Y-132358000D01*
X122713195Y-132377522D01*
G37*
G36*
X120173195Y-132377522D02*
G01*
X120222267Y-132387283D01*
X120360942Y-132444724D01*
X120485747Y-132528116D01*
X120591884Y-132634253D01*
X120675276Y-132759058D01*
X120732717Y-132897733D01*
X120762000Y-133044950D01*
X120762000Y-133195050D01*
X120732717Y-133342267D01*
X120675276Y-133480942D01*
X120591884Y-133605747D01*
X120485747Y-133711884D01*
X120360942Y-133795276D01*
X120222267Y-133852717D01*
X120173195Y-133862478D01*
X120075052Y-133882000D01*
X119924948Y-133882000D01*
X119826805Y-133862478D01*
X119777733Y-133852717D01*
X119639058Y-133795276D01*
X119514253Y-133711884D01*
X119408116Y-133605747D01*
X119324724Y-133480942D01*
X119267283Y-133342267D01*
X119238000Y-133195050D01*
X119238000Y-133044950D01*
X119267283Y-132897733D01*
X119324724Y-132759058D01*
X119408116Y-132634253D01*
X119514253Y-132528116D01*
X119639058Y-132444724D01*
X119777733Y-132387283D01*
X119826805Y-132377522D01*
X119924948Y-132358000D01*
X120075052Y-132358000D01*
X120173195Y-132377522D01*
G37*
G36*
X103500000Y-131800000D02*
G01*
X101900000Y-131800000D01*
X101900000Y-130200000D01*
X103500000Y-130200000D01*
X103500000Y-131800000D01*
G37*
G36*
X115633351Y-130230743D02*
G01*
X115778941Y-130291048D01*
X115909970Y-130378599D01*
X116021401Y-130490030D01*
X116108952Y-130621059D01*
X116169257Y-130766649D01*
X116200000Y-130921206D01*
X116200000Y-131078794D01*
X116169257Y-131233351D01*
X116108952Y-131378941D01*
X116021401Y-131509970D01*
X115909970Y-131621401D01*
X115778941Y-131708952D01*
X115633351Y-131769257D01*
X115478794Y-131800000D01*
X115321206Y-131800000D01*
X115166649Y-131769257D01*
X115021059Y-131708952D01*
X114890030Y-131621401D01*
X114778599Y-131509970D01*
X114691048Y-131378941D01*
X114630743Y-131233351D01*
X114600000Y-131078794D01*
X114600000Y-130921206D01*
X114630743Y-130766649D01*
X114691048Y-130621059D01*
X114778599Y-130490030D01*
X114890030Y-130378599D01*
X115021059Y-130291048D01*
X115166649Y-130230743D01*
X115321206Y-130200000D01*
X115478794Y-130200000D01*
X115633351Y-130230743D01*
G37*
G36*
X113093351Y-130230743D02*
G01*
X113238941Y-130291048D01*
X113369970Y-130378599D01*
X113481401Y-130490030D01*
X113568952Y-130621059D01*
X113629257Y-130766649D01*
X113660000Y-130921206D01*
X113660000Y-131078794D01*
X113629257Y-131233351D01*
X113568952Y-131378941D01*
X113481401Y-131509970D01*
X113369970Y-131621401D01*
X113238941Y-131708952D01*
X113093351Y-131769257D01*
X112938794Y-131800000D01*
X112781206Y-131800000D01*
X112626649Y-131769257D01*
X112481059Y-131708952D01*
X112350030Y-131621401D01*
X112238599Y-131509970D01*
X112151048Y-131378941D01*
X112090743Y-131233351D01*
X112060000Y-131078794D01*
X112060000Y-130921206D01*
X112090743Y-130766649D01*
X112151048Y-130621059D01*
X112238599Y-130490030D01*
X112350030Y-130378599D01*
X112481059Y-130291048D01*
X112626649Y-130230743D01*
X112781206Y-130200000D01*
X112938794Y-130200000D01*
X113093351Y-130230743D01*
G37*
G36*
X110553351Y-130230743D02*
G01*
X110698941Y-130291048D01*
X110829970Y-130378599D01*
X110941401Y-130490030D01*
X111028952Y-130621059D01*
X111089257Y-130766649D01*
X111120000Y-130921206D01*
X111120000Y-131078794D01*
X111089257Y-131233351D01*
X111028952Y-131378941D01*
X110941401Y-131509970D01*
X110829970Y-131621401D01*
X110698941Y-131708952D01*
X110553351Y-131769257D01*
X110398794Y-131800000D01*
X110241206Y-131800000D01*
X110086649Y-131769257D01*
X109941059Y-131708952D01*
X109810030Y-131621401D01*
X109698599Y-131509970D01*
X109611048Y-131378941D01*
X109550743Y-131233351D01*
X109520000Y-131078794D01*
X109520000Y-130921206D01*
X109550743Y-130766649D01*
X109611048Y-130621059D01*
X109698599Y-130490030D01*
X109810030Y-130378599D01*
X109941059Y-130291048D01*
X110086649Y-130230743D01*
X110241206Y-130200000D01*
X110398794Y-130200000D01*
X110553351Y-130230743D01*
G37*
G36*
X108013351Y-130230743D02*
G01*
X108158941Y-130291048D01*
X108289970Y-130378599D01*
X108401401Y-130490030D01*
X108488952Y-130621059D01*
X108549257Y-130766649D01*
X108580000Y-130921206D01*
X108580000Y-131078794D01*
X108549257Y-131233351D01*
X108488952Y-131378941D01*
X108401401Y-131509970D01*
X108289970Y-131621401D01*
X108158941Y-131708952D01*
X108013351Y-131769257D01*
X107858794Y-131800000D01*
X107701206Y-131800000D01*
X107546649Y-131769257D01*
X107401059Y-131708952D01*
X107270030Y-131621401D01*
X107158599Y-131509970D01*
X107071048Y-131378941D01*
X107010743Y-131233351D01*
X106980000Y-131078794D01*
X106980000Y-130921206D01*
X107010743Y-130766649D01*
X107071048Y-130621059D01*
X107158599Y-130490030D01*
X107270030Y-130378599D01*
X107401059Y-130291048D01*
X107546649Y-130230743D01*
X107701206Y-130200000D01*
X107858794Y-130200000D01*
X108013351Y-130230743D01*
G37*
G36*
X105473351Y-130230743D02*
G01*
X105618941Y-130291048D01*
X105749970Y-130378599D01*
X105861401Y-130490030D01*
X105948952Y-130621059D01*
X106009257Y-130766649D01*
X106040000Y-130921206D01*
X106040000Y-131078794D01*
X106009257Y-131233351D01*
X105948952Y-131378941D01*
X105861401Y-131509970D01*
X105749970Y-131621401D01*
X105618941Y-131708952D01*
X105473351Y-131769257D01*
X105318794Y-131800000D01*
X105161206Y-131800000D01*
X105006649Y-131769257D01*
X104861059Y-131708952D01*
X104730030Y-131621401D01*
X104618599Y-131509970D01*
X104531048Y-131378941D01*
X104470743Y-131233351D01*
X104440000Y-131078794D01*
X104440000Y-130921206D01*
X104470743Y-130766649D01*
X104531048Y-130621059D01*
X104618599Y-130490030D01*
X104730030Y-130378599D01*
X104861059Y-130291048D01*
X105006649Y-130230743D01*
X105161206Y-130200000D01*
X105318794Y-130200000D01*
X105473351Y-130230743D01*
G37*
G36*
X120173195Y-129837522D02*
G01*
X120222267Y-129847283D01*
X120360942Y-129904724D01*
X120485747Y-129988116D01*
X120591884Y-130094253D01*
X120675276Y-130219058D01*
X120732717Y-130357733D01*
X120732717Y-130357734D01*
X120759033Y-130490030D01*
X120762000Y-130504950D01*
X120762000Y-130655050D01*
X120732717Y-130802267D01*
X120675276Y-130940942D01*
X120591884Y-131065747D01*
X120485747Y-131171884D01*
X120360942Y-131255276D01*
X120222267Y-131312717D01*
X120173195Y-131322478D01*
X120075052Y-131342000D01*
X119924948Y-131342000D01*
X119826805Y-131322478D01*
X119777733Y-131312717D01*
X119639058Y-131255276D01*
X119514253Y-131171884D01*
X119408116Y-131065747D01*
X119324724Y-130940942D01*
X119267283Y-130802267D01*
X119238000Y-130655050D01*
X119238000Y-130504950D01*
X119240968Y-130490030D01*
X119267283Y-130357734D01*
X119267283Y-130357733D01*
X119324724Y-130219058D01*
X119408116Y-130094253D01*
X119514253Y-129988116D01*
X119639058Y-129904724D01*
X119777733Y-129847283D01*
X119826805Y-129837522D01*
X119924948Y-129818000D01*
X120075052Y-129818000D01*
X120173195Y-129837522D01*
G37*
G36*
X122713195Y-129837522D02*
G01*
X122762267Y-129847283D01*
X122900942Y-129904724D01*
X123025747Y-129988116D01*
X123131884Y-130094253D01*
X123215276Y-130219058D01*
X123272717Y-130357733D01*
X123272717Y-130357734D01*
X123299033Y-130490030D01*
X123302000Y-130504950D01*
X123302000Y-130655050D01*
X123272717Y-130802267D01*
X123215276Y-130940942D01*
X123131884Y-131065747D01*
X123025747Y-131171884D01*
X122900942Y-131255276D01*
X122762267Y-131312717D01*
X122713195Y-131322478D01*
X122615052Y-131342000D01*
X122464948Y-131342000D01*
X122366805Y-131322478D01*
X122317733Y-131312717D01*
X122179058Y-131255276D01*
X122054253Y-131171884D01*
X121948116Y-131065747D01*
X121864724Y-130940942D01*
X121807283Y-130802267D01*
X121778000Y-130655050D01*
X121778000Y-130504950D01*
X121780968Y-130490030D01*
X121807283Y-130357734D01*
X121807283Y-130357733D01*
X121864724Y-130219058D01*
X121948116Y-130094253D01*
X122054253Y-129988116D01*
X122179058Y-129904724D01*
X122317733Y-129847283D01*
X122366805Y-129837522D01*
X122464948Y-129818000D01*
X122615052Y-129818000D01*
X122713195Y-129837522D01*
G37*
G36*
X120173195Y-127297522D02*
G01*
X120222267Y-127307283D01*
X120360942Y-127364724D01*
X120485747Y-127448116D01*
X120591884Y-127554253D01*
X120675276Y-127679058D01*
X120732717Y-127817733D01*
X120762000Y-127964950D01*
X120762000Y-128115050D01*
X120732717Y-128262267D01*
X120675276Y-128400942D01*
X120591884Y-128525747D01*
X120485747Y-128631884D01*
X120360942Y-128715276D01*
X120222267Y-128772717D01*
X120173195Y-128782478D01*
X120075052Y-128802000D01*
X119924948Y-128802000D01*
X119826805Y-128782478D01*
X119777733Y-128772717D01*
X119639058Y-128715276D01*
X119514253Y-128631884D01*
X119408116Y-128525747D01*
X119324724Y-128400942D01*
X119267283Y-128262267D01*
X119238000Y-128115050D01*
X119238000Y-127964950D01*
X119267283Y-127817733D01*
X119324724Y-127679058D01*
X119408116Y-127554253D01*
X119514253Y-127448116D01*
X119639058Y-127364724D01*
X119777733Y-127307283D01*
X119826805Y-127297522D01*
X119924948Y-127278000D01*
X120075052Y-127278000D01*
X120173195Y-127297522D01*
G37*
G36*
X122713195Y-127297522D02*
G01*
X122762267Y-127307283D01*
X122900942Y-127364724D01*
X123025747Y-127448116D01*
X123131884Y-127554253D01*
X123215276Y-127679058D01*
X123272717Y-127817733D01*
X123302000Y-127964950D01*
X123302000Y-128115050D01*
X123272717Y-128262267D01*
X123215276Y-128400942D01*
X123131884Y-128525747D01*
X123025747Y-128631884D01*
X122900942Y-128715276D01*
X122762267Y-128772717D01*
X122713195Y-128782478D01*
X122615052Y-128802000D01*
X122464948Y-128802000D01*
X122366805Y-128782478D01*
X122317733Y-128772717D01*
X122179058Y-128715276D01*
X122054253Y-128631884D01*
X121948116Y-128525747D01*
X121864724Y-128400942D01*
X121807283Y-128262267D01*
X121778000Y-128115050D01*
X121778000Y-127964950D01*
X121807283Y-127817733D01*
X121864724Y-127679058D01*
X121948116Y-127554253D01*
X122054253Y-127448116D01*
X122179058Y-127364724D01*
X122317733Y-127307283D01*
X122366805Y-127297522D01*
X122464948Y-127278000D01*
X122615052Y-127278000D01*
X122713195Y-127297522D01*
G37*
G36*
X122713195Y-124757522D02*
G01*
X122762267Y-124767283D01*
X122900942Y-124824724D01*
X123025747Y-124908116D01*
X123131884Y-125014253D01*
X123215276Y-125139058D01*
X123272717Y-125277733D01*
X123302000Y-125424950D01*
X123302000Y-125575050D01*
X123272717Y-125722267D01*
X123215276Y-125860942D01*
X123131884Y-125985747D01*
X123025747Y-126091884D01*
X122900942Y-126175276D01*
X122762267Y-126232717D01*
X122713195Y-126242478D01*
X122615052Y-126262000D01*
X122464948Y-126262000D01*
X122366805Y-126242478D01*
X122317733Y-126232717D01*
X122179058Y-126175276D01*
X122054253Y-126091884D01*
X121948116Y-125985747D01*
X121864724Y-125860942D01*
X121807283Y-125722267D01*
X121778000Y-125575050D01*
X121778000Y-125424950D01*
X121807283Y-125277733D01*
X121864724Y-125139058D01*
X121948116Y-125014253D01*
X122054253Y-124908116D01*
X122179058Y-124824724D01*
X122317733Y-124767283D01*
X122366805Y-124757522D01*
X122464948Y-124738000D01*
X122615052Y-124738000D01*
X122713195Y-124757522D01*
G37*
G36*
X120762000Y-126262000D02*
G01*
X119238000Y-126262000D01*
X119238000Y-124738000D01*
X120762000Y-124738000D01*
X120762000Y-126262000D01*
G37*
G36*
X102933351Y-122610743D02*
G01*
X103078941Y-122671048D01*
X103209970Y-122758599D01*
X103321401Y-122870030D01*
X103408952Y-123001059D01*
X103469257Y-123146649D01*
X103500000Y-123301206D01*
X103500000Y-123458794D01*
X103469257Y-123613351D01*
X103408952Y-123758941D01*
X103321401Y-123889970D01*
X103209970Y-124001401D01*
X103078941Y-124088952D01*
X102933351Y-124149257D01*
X102778794Y-124180000D01*
X102621206Y-124180000D01*
X102466649Y-124149257D01*
X102321059Y-124088952D01*
X102190030Y-124001401D01*
X102078599Y-123889970D01*
X101991048Y-123758941D01*
X101930743Y-123613351D01*
X101900000Y-123458794D01*
X101900000Y-123301206D01*
X101930743Y-123146649D01*
X101991048Y-123001059D01*
X102078599Y-122870030D01*
X102190030Y-122758599D01*
X102321059Y-122671048D01*
X102466649Y-122610743D01*
X102621206Y-122580000D01*
X102778794Y-122580000D01*
X102933351Y-122610743D01*
G37*
G36*
X115633351Y-122610743D02*
G01*
X115778941Y-122671048D01*
X115909970Y-122758599D01*
X116021401Y-122870030D01*
X116108952Y-123001059D01*
X116169257Y-123146649D01*
X116200000Y-123301206D01*
X116200000Y-123458794D01*
X116169257Y-123613351D01*
X116108952Y-123758941D01*
X116021401Y-123889970D01*
X115909970Y-124001401D01*
X115778941Y-124088952D01*
X115633351Y-124149257D01*
X115478794Y-124180000D01*
X115321206Y-124180000D01*
X115166649Y-124149257D01*
X115021059Y-124088952D01*
X114890030Y-124001401D01*
X114778599Y-123889970D01*
X114691048Y-123758941D01*
X114630743Y-123613351D01*
X114600000Y-123458794D01*
X114600000Y-123301206D01*
X114630743Y-123146649D01*
X114691048Y-123001059D01*
X114778599Y-122870030D01*
X114890030Y-122758599D01*
X115021059Y-122671048D01*
X115166649Y-122610743D01*
X115321206Y-122580000D01*
X115478794Y-122580000D01*
X115633351Y-122610743D01*
G37*
G36*
X113093351Y-122610743D02*
G01*
X113238941Y-122671048D01*
X113369970Y-122758599D01*
X113481401Y-122870030D01*
X113568952Y-123001059D01*
X113629257Y-123146649D01*
X113660000Y-123301206D01*
X113660000Y-123458794D01*
X113629257Y-123613351D01*
X113568952Y-123758941D01*
X113481401Y-123889970D01*
X113369970Y-124001401D01*
X113238941Y-124088952D01*
X113093351Y-124149257D01*
X112938794Y-124180000D01*
X112781206Y-124180000D01*
X112626649Y-124149257D01*
X112481059Y-124088952D01*
X112350030Y-124001401D01*
X112238599Y-123889970D01*
X112151048Y-123758941D01*
X112090743Y-123613351D01*
X112060000Y-123458794D01*
X112060000Y-123301206D01*
X112090743Y-123146649D01*
X112151048Y-123001059D01*
X112238599Y-122870030D01*
X112350030Y-122758599D01*
X112481059Y-122671048D01*
X112626649Y-122610743D01*
X112781206Y-122580000D01*
X112938794Y-122580000D01*
X113093351Y-122610743D01*
G37*
G36*
X110553351Y-122610743D02*
G01*
X110698941Y-122671048D01*
X110829970Y-122758599D01*
X110941401Y-122870030D01*
X111028952Y-123001059D01*
X111089257Y-123146649D01*
X111120000Y-123301206D01*
X111120000Y-123458794D01*
X111089257Y-123613351D01*
X111028952Y-123758941D01*
X110941401Y-123889970D01*
X110829970Y-124001401D01*
X110698941Y-124088952D01*
X110553351Y-124149257D01*
X110398794Y-124180000D01*
X110241206Y-124180000D01*
X110086649Y-124149257D01*
X109941059Y-124088952D01*
X109810030Y-124001401D01*
X109698599Y-123889970D01*
X109611048Y-123758941D01*
X109550743Y-123613351D01*
X109520000Y-123458794D01*
X109520000Y-123301206D01*
X109550743Y-123146649D01*
X109611048Y-123001059D01*
X109698599Y-122870030D01*
X109810030Y-122758599D01*
X109941059Y-122671048D01*
X110086649Y-122610743D01*
X110241206Y-122580000D01*
X110398794Y-122580000D01*
X110553351Y-122610743D01*
G37*
G36*
X108013351Y-122610743D02*
G01*
X108158941Y-122671048D01*
X108289970Y-122758599D01*
X108401401Y-122870030D01*
X108488952Y-123001059D01*
X108549257Y-123146649D01*
X108580000Y-123301206D01*
X108580000Y-123458794D01*
X108549257Y-123613351D01*
X108488952Y-123758941D01*
X108401401Y-123889970D01*
X108289970Y-124001401D01*
X108158941Y-124088952D01*
X108013351Y-124149257D01*
X107858794Y-124180000D01*
X107701206Y-124180000D01*
X107546649Y-124149257D01*
X107401059Y-124088952D01*
X107270030Y-124001401D01*
X107158599Y-123889970D01*
X107071048Y-123758941D01*
X107010743Y-123613351D01*
X106980000Y-123458794D01*
X106980000Y-123301206D01*
X107010743Y-123146649D01*
X107071048Y-123001059D01*
X107158599Y-122870030D01*
X107270030Y-122758599D01*
X107401059Y-122671048D01*
X107546649Y-122610743D01*
X107701206Y-122580000D01*
X107858794Y-122580000D01*
X108013351Y-122610743D01*
G37*
G36*
X105473351Y-122610743D02*
G01*
X105618941Y-122671048D01*
X105749970Y-122758599D01*
X105861401Y-122870030D01*
X105948952Y-123001059D01*
X106009257Y-123146649D01*
X106040000Y-123301206D01*
X106040000Y-123458794D01*
X106009257Y-123613351D01*
X105948952Y-123758941D01*
X105861401Y-123889970D01*
X105749970Y-124001401D01*
X105618941Y-124088952D01*
X105473351Y-124149257D01*
X105318794Y-124180000D01*
X105161206Y-124180000D01*
X105006649Y-124149257D01*
X104861059Y-124088952D01*
X104730030Y-124001401D01*
X104618599Y-123889970D01*
X104531048Y-123758941D01*
X104470743Y-123613351D01*
X104440000Y-123458794D01*
X104440000Y-123301206D01*
X104470743Y-123146649D01*
X104531048Y-123001059D01*
X104618599Y-122870030D01*
X104730030Y-122758599D01*
X104861059Y-122671048D01*
X105006649Y-122610743D01*
X105161206Y-122580000D01*
X105318794Y-122580000D01*
X105473351Y-122610743D01*
G37*
G36*
X107707935Y-119182664D02*
G01*
X107862624Y-119246739D01*
X107862626Y-119246740D01*
X108001844Y-119339762D01*
X108120238Y-119458156D01*
X108213260Y-119597374D01*
X108213261Y-119597376D01*
X108277336Y-119752065D01*
X108310000Y-119916281D01*
X108310000Y-120083719D01*
X108277336Y-120247935D01*
X108238114Y-120342624D01*
X108213260Y-120402626D01*
X108120238Y-120541844D01*
X108001844Y-120660238D01*
X107862626Y-120753260D01*
X107862625Y-120753261D01*
X107862624Y-120753261D01*
X107707935Y-120817336D01*
X107543719Y-120850000D01*
X107376281Y-120850000D01*
X107212065Y-120817336D01*
X107057376Y-120753261D01*
X107057375Y-120753261D01*
X107057374Y-120753260D01*
X106918156Y-120660238D01*
X106799762Y-120541844D01*
X106706740Y-120402626D01*
X106681886Y-120342624D01*
X106642664Y-120247935D01*
X106610000Y-120083719D01*
X106610000Y-119916281D01*
X106642664Y-119752065D01*
X106706739Y-119597376D01*
X106706740Y-119597374D01*
X106799762Y-119458156D01*
X106918156Y-119339762D01*
X107057374Y-119246740D01*
X107057376Y-119246739D01*
X107212065Y-119182664D01*
X107376281Y-119150000D01*
X107543719Y-119150000D01*
X107707935Y-119182664D01*
G37*
G36*
X122747935Y-119182664D02*
G01*
X122902624Y-119246739D01*
X122902626Y-119246740D01*
X123041844Y-119339762D01*
X123160238Y-119458156D01*
X123253260Y-119597374D01*
X123253261Y-119597376D01*
X123317336Y-119752065D01*
X123350000Y-119916281D01*
X123350000Y-120083719D01*
X123317336Y-120247935D01*
X123278114Y-120342624D01*
X123253260Y-120402626D01*
X123160238Y-120541844D01*
X123041844Y-120660238D01*
X122902626Y-120753260D01*
X122902625Y-120753261D01*
X122902624Y-120753261D01*
X122747935Y-120817336D01*
X122583719Y-120850000D01*
X122416281Y-120850000D01*
X122252065Y-120817336D01*
X122097376Y-120753261D01*
X122097375Y-120753261D01*
X122097374Y-120753260D01*
X121958156Y-120660238D01*
X121839762Y-120541844D01*
X121746740Y-120402626D01*
X121721886Y-120342624D01*
X121682664Y-120247935D01*
X121650000Y-120083719D01*
X121650000Y-119916281D01*
X121682664Y-119752065D01*
X121746739Y-119597376D01*
X121746740Y-119597374D01*
X121839762Y-119458156D01*
X121958156Y-119339762D01*
X122097374Y-119246740D01*
X122097376Y-119246739D01*
X122252065Y-119182664D01*
X122416281Y-119150000D01*
X122583719Y-119150000D01*
X122747935Y-119182664D01*
G37*
G36*
X117867935Y-119182664D02*
G01*
X118022624Y-119246739D01*
X118022626Y-119246740D01*
X118161844Y-119339762D01*
X118280238Y-119458156D01*
X118373260Y-119597374D01*
X118373261Y-119597376D01*
X118437336Y-119752065D01*
X118470000Y-119916281D01*
X118470000Y-120083719D01*
X118437336Y-120247935D01*
X118398114Y-120342624D01*
X118373260Y-120402626D01*
X118280238Y-120541844D01*
X118161844Y-120660238D01*
X118022626Y-120753260D01*
X118022625Y-120753261D01*
X118022624Y-120753261D01*
X117867935Y-120817336D01*
X117703719Y-120850000D01*
X117536281Y-120850000D01*
X117372065Y-120817336D01*
X117217376Y-120753261D01*
X117217375Y-120753261D01*
X117217374Y-120753260D01*
X117078156Y-120660238D01*
X116959762Y-120541844D01*
X116866740Y-120402626D01*
X116841886Y-120342624D01*
X116802664Y-120247935D01*
X116770000Y-120083719D01*
X116770000Y-119916281D01*
X116802664Y-119752065D01*
X116866739Y-119597376D01*
X116866740Y-119597374D01*
X116959762Y-119458156D01*
X117078156Y-119339762D01*
X117217374Y-119246740D01*
X117217376Y-119246739D01*
X117372065Y-119182664D01*
X117536281Y-119150000D01*
X117703719Y-119150000D01*
X117867935Y-119182664D01*
G37*
G36*
X115327935Y-119182664D02*
G01*
X115482624Y-119246739D01*
X115482626Y-119246740D01*
X115621844Y-119339762D01*
X115740238Y-119458156D01*
X115833260Y-119597374D01*
X115833261Y-119597376D01*
X115897336Y-119752065D01*
X115930000Y-119916281D01*
X115930000Y-120083719D01*
X115897336Y-120247935D01*
X115858114Y-120342624D01*
X115833260Y-120402626D01*
X115740238Y-120541844D01*
X115621844Y-120660238D01*
X115482626Y-120753260D01*
X115482625Y-120753261D01*
X115482624Y-120753261D01*
X115327935Y-120817336D01*
X115163719Y-120850000D01*
X114996281Y-120850000D01*
X114832065Y-120817336D01*
X114677376Y-120753261D01*
X114677375Y-120753261D01*
X114677374Y-120753260D01*
X114538156Y-120660238D01*
X114419762Y-120541844D01*
X114326740Y-120402626D01*
X114301886Y-120342624D01*
X114262664Y-120247935D01*
X114230000Y-120083719D01*
X114230000Y-119916281D01*
X114262664Y-119752065D01*
X114326739Y-119597376D01*
X114326740Y-119597374D01*
X114419762Y-119458156D01*
X114538156Y-119339762D01*
X114677374Y-119246740D01*
X114677376Y-119246739D01*
X114832065Y-119182664D01*
X114996281Y-119150000D01*
X115163719Y-119150000D01*
X115327935Y-119182664D01*
G37*
G36*
X110247935Y-119182664D02*
G01*
X110402624Y-119246739D01*
X110402626Y-119246740D01*
X110541844Y-119339762D01*
X110660238Y-119458156D01*
X110753260Y-119597374D01*
X110753261Y-119597376D01*
X110817336Y-119752065D01*
X110850000Y-119916281D01*
X110850000Y-120083719D01*
X110817336Y-120247935D01*
X110778114Y-120342624D01*
X110753260Y-120402626D01*
X110660238Y-120541844D01*
X110541844Y-120660238D01*
X110402626Y-120753260D01*
X110402625Y-120753261D01*
X110402624Y-120753261D01*
X110247935Y-120817336D01*
X110083719Y-120850000D01*
X109916281Y-120850000D01*
X109752065Y-120817336D01*
X109597376Y-120753261D01*
X109597375Y-120753261D01*
X109597374Y-120753260D01*
X109458156Y-120660238D01*
X109339762Y-120541844D01*
X109246740Y-120402626D01*
X109221886Y-120342624D01*
X109182664Y-120247935D01*
X109150000Y-120083719D01*
X109150000Y-119916281D01*
X109182664Y-119752065D01*
X109246739Y-119597376D01*
X109246740Y-119597374D01*
X109339762Y-119458156D01*
X109458156Y-119339762D01*
X109597374Y-119246740D01*
X109597376Y-119246739D01*
X109752065Y-119182664D01*
X109916281Y-119150000D01*
X110083719Y-119150000D01*
X110247935Y-119182664D01*
G37*
G36*
X105770000Y-120850000D02*
G01*
X104070000Y-120850000D01*
X104070000Y-119150000D01*
X105770000Y-119150000D01*
X105770000Y-120850000D01*
G37*
G36*
X112787935Y-119182664D02*
G01*
X112942624Y-119246739D01*
X112942626Y-119246740D01*
X113081844Y-119339762D01*
X113200238Y-119458156D01*
X113293260Y-119597374D01*
X113293261Y-119597376D01*
X113357336Y-119752065D01*
X113390000Y-119916281D01*
X113390000Y-120083719D01*
X113357336Y-120247935D01*
X113318114Y-120342624D01*
X113293260Y-120402626D01*
X113200238Y-120541844D01*
X113081844Y-120660238D01*
X112942626Y-120753260D01*
X112942625Y-120753261D01*
X112942624Y-120753261D01*
X112787935Y-120817336D01*
X112623719Y-120850000D01*
X112456281Y-120850000D01*
X112292065Y-120817336D01*
X112137376Y-120753261D01*
X112137375Y-120753261D01*
X112137374Y-120753260D01*
X111998156Y-120660238D01*
X111879762Y-120541844D01*
X111786740Y-120402626D01*
X111761886Y-120342624D01*
X111722664Y-120247935D01*
X111690000Y-120083719D01*
X111690000Y-119916281D01*
X111722664Y-119752065D01*
X111786739Y-119597376D01*
X111786740Y-119597374D01*
X111879762Y-119458156D01*
X111998156Y-119339762D01*
X112137374Y-119246740D01*
X112137376Y-119246739D01*
X112292065Y-119182664D01*
X112456281Y-119150000D01*
X112623719Y-119150000D01*
X112787935Y-119182664D01*
G37*
G36*
X100247935Y-119122664D02*
G01*
X100402624Y-119186739D01*
X100402626Y-119186740D01*
X100541844Y-119279762D01*
X100660238Y-119398156D01*
X100700329Y-119458157D01*
X100753261Y-119537376D01*
X100817336Y-119692065D01*
X100850000Y-119856281D01*
X100850000Y-120023719D01*
X100817336Y-120187935D01*
X100792482Y-120247936D01*
X100753260Y-120342626D01*
X100660238Y-120481844D01*
X100541844Y-120600238D01*
X100402626Y-120693260D01*
X100402625Y-120693261D01*
X100402624Y-120693261D01*
X100247935Y-120757336D01*
X100083719Y-120790000D01*
X99916281Y-120790000D01*
X99752065Y-120757336D01*
X99597376Y-120693261D01*
X99597375Y-120693261D01*
X99597374Y-120693260D01*
X99458156Y-120600238D01*
X99339762Y-120481844D01*
X99246740Y-120342626D01*
X99207518Y-120247936D01*
X99182664Y-120187935D01*
X99150000Y-120023719D01*
X99150000Y-119856281D01*
X99182664Y-119692065D01*
X99246739Y-119537376D01*
X99299671Y-119458157D01*
X99339762Y-119398156D01*
X99458156Y-119279762D01*
X99597374Y-119186740D01*
X99597376Y-119186739D01*
X99752065Y-119122664D01*
X99916281Y-119090000D01*
X100083719Y-119090000D01*
X100247935Y-119122664D01*
G37*
G36*
X122747935Y-116642664D02*
G01*
X122902624Y-116706739D01*
X122902626Y-116706740D01*
X123041844Y-116799762D01*
X123160238Y-116918156D01*
X123253260Y-117057374D01*
X123253261Y-117057376D01*
X123317336Y-117212065D01*
X123350000Y-117376281D01*
X123350000Y-117543719D01*
X123317336Y-117707935D01*
X123278114Y-117802624D01*
X123253260Y-117862626D01*
X123160238Y-118001844D01*
X123041844Y-118120238D01*
X122902626Y-118213260D01*
X122902625Y-118213261D01*
X122902624Y-118213261D01*
X122747935Y-118277336D01*
X122583719Y-118310000D01*
X122416281Y-118310000D01*
X122252065Y-118277336D01*
X122097376Y-118213261D01*
X122097375Y-118213261D01*
X122097374Y-118213260D01*
X121958156Y-118120238D01*
X121839762Y-118001844D01*
X121746740Y-117862626D01*
X121721886Y-117802624D01*
X121682664Y-117707935D01*
X121650000Y-117543719D01*
X121650000Y-117376281D01*
X121682664Y-117212065D01*
X121746739Y-117057376D01*
X121746740Y-117057374D01*
X121839762Y-116918156D01*
X121958156Y-116799762D01*
X122097374Y-116706740D01*
X122097376Y-116706739D01*
X122252065Y-116642664D01*
X122416281Y-116610000D01*
X122583719Y-116610000D01*
X122747935Y-116642664D01*
G37*
G36*
X100247935Y-116582664D02*
G01*
X100402624Y-116646739D01*
X100402626Y-116646740D01*
X100541844Y-116739762D01*
X100660238Y-116858156D01*
X100700329Y-116918157D01*
X100753261Y-116997376D01*
X100817336Y-117152065D01*
X100850000Y-117316281D01*
X100850000Y-117483719D01*
X100817336Y-117647935D01*
X100792482Y-117707936D01*
X100753260Y-117802626D01*
X100660238Y-117941844D01*
X100541844Y-118060238D01*
X100402626Y-118153260D01*
X100402625Y-118153261D01*
X100402624Y-118153261D01*
X100247935Y-118217336D01*
X100083719Y-118250000D01*
X99916281Y-118250000D01*
X99752065Y-118217336D01*
X99597376Y-118153261D01*
X99597375Y-118153261D01*
X99597374Y-118153260D01*
X99458156Y-118060238D01*
X99339762Y-117941844D01*
X99246740Y-117802626D01*
X99207518Y-117707936D01*
X99182664Y-117647935D01*
X99150000Y-117483719D01*
X99150000Y-117316281D01*
X99182664Y-117152065D01*
X99246739Y-116997376D01*
X99299671Y-116918157D01*
X99339762Y-116858156D01*
X99458156Y-116739762D01*
X99597374Y-116646740D01*
X99597376Y-116646739D01*
X99752065Y-116582664D01*
X99916281Y-116550000D01*
X100083719Y-116550000D01*
X100247935Y-116582664D01*
G37*
G36*
X116950000Y-117675000D02*
G01*
X114550000Y-117675000D01*
X114550000Y-116225000D01*
X116950000Y-116225000D01*
X116950000Y-117675000D01*
G37*
G36*
X112450000Y-117675000D02*
G01*
X110050000Y-117675000D01*
X110050000Y-116225000D01*
X112450000Y-116225000D01*
X112450000Y-117675000D01*
G37*
G36*
X107950000Y-117675000D02*
G01*
X105550000Y-117675000D01*
X105550000Y-116225000D01*
X107950000Y-116225000D01*
X107950000Y-117675000D01*
G37*
G36*
X122747935Y-114102664D02*
G01*
X122902624Y-114166739D01*
X122902626Y-114166740D01*
X123041844Y-114259762D01*
X123160238Y-114378156D01*
X123253260Y-114517374D01*
X123253261Y-114517376D01*
X123317336Y-114672065D01*
X123350000Y-114836281D01*
X123350000Y-115003719D01*
X123317336Y-115167935D01*
X123278114Y-115262624D01*
X123253260Y-115322626D01*
X123160238Y-115461844D01*
X123041844Y-115580238D01*
X122902626Y-115673260D01*
X122902625Y-115673261D01*
X122902624Y-115673261D01*
X122747935Y-115737336D01*
X122583719Y-115770000D01*
X122416281Y-115770000D01*
X122252065Y-115737336D01*
X122097376Y-115673261D01*
X122097375Y-115673261D01*
X122097374Y-115673260D01*
X121958156Y-115580238D01*
X121839762Y-115461844D01*
X121746740Y-115322626D01*
X121721886Y-115262624D01*
X121682664Y-115167935D01*
X121650000Y-115003719D01*
X121650000Y-114836281D01*
X121682664Y-114672065D01*
X121746739Y-114517376D01*
X121746740Y-114517374D01*
X121839762Y-114378156D01*
X121958156Y-114259762D01*
X122097374Y-114166740D01*
X122097376Y-114166739D01*
X122252065Y-114102664D01*
X122416281Y-114070000D01*
X122583719Y-114070000D01*
X122747935Y-114102664D01*
G37*
G36*
X100247935Y-114042664D02*
G01*
X100402624Y-114106739D01*
X100402626Y-114106740D01*
X100541844Y-114199762D01*
X100660238Y-114318156D01*
X100700329Y-114378157D01*
X100753261Y-114457376D01*
X100817336Y-114612065D01*
X100850000Y-114776281D01*
X100850000Y-114943719D01*
X100817336Y-115107935D01*
X100792482Y-115167936D01*
X100753260Y-115262626D01*
X100660238Y-115401844D01*
X100541844Y-115520238D01*
X100402626Y-115613260D01*
X100402625Y-115613261D01*
X100402624Y-115613261D01*
X100247935Y-115677336D01*
X100083719Y-115710000D01*
X99916281Y-115710000D01*
X99752065Y-115677336D01*
X99597376Y-115613261D01*
X99597375Y-115613261D01*
X99597374Y-115613260D01*
X99458156Y-115520238D01*
X99339762Y-115401844D01*
X99246740Y-115262626D01*
X99207518Y-115167936D01*
X99182664Y-115107935D01*
X99150000Y-114943719D01*
X99150000Y-114776281D01*
X99182664Y-114612065D01*
X99246739Y-114457376D01*
X99299671Y-114378157D01*
X99339762Y-114318156D01*
X99458156Y-114199762D01*
X99597374Y-114106740D01*
X99597376Y-114106739D01*
X99752065Y-114042664D01*
X99916281Y-114010000D01*
X100083719Y-114010000D01*
X100247935Y-114042664D01*
G37*
G36*
X122747935Y-111562664D02*
G01*
X122902624Y-111626739D01*
X122902626Y-111626740D01*
X123041844Y-111719762D01*
X123160238Y-111838156D01*
X123253260Y-111977374D01*
X123253261Y-111977376D01*
X123317336Y-112132065D01*
X123350000Y-112296281D01*
X123350000Y-112463719D01*
X123317336Y-112627935D01*
X123278114Y-112722624D01*
X123253260Y-112782626D01*
X123160238Y-112921844D01*
X123041844Y-113040238D01*
X122902626Y-113133260D01*
X122902625Y-113133261D01*
X122902624Y-113133261D01*
X122747935Y-113197336D01*
X122583719Y-113230000D01*
X122416281Y-113230000D01*
X122252065Y-113197336D01*
X122097376Y-113133261D01*
X122097375Y-113133261D01*
X122097374Y-113133260D01*
X121958156Y-113040238D01*
X121839762Y-112921844D01*
X121746740Y-112782626D01*
X121721886Y-112722624D01*
X121682664Y-112627935D01*
X121650000Y-112463719D01*
X121650000Y-112296281D01*
X121682664Y-112132065D01*
X121746739Y-111977376D01*
X121746740Y-111977374D01*
X121839762Y-111838156D01*
X121958156Y-111719762D01*
X122097374Y-111626740D01*
X122097376Y-111626739D01*
X122252065Y-111562664D01*
X122416281Y-111530000D01*
X122583719Y-111530000D01*
X122747935Y-111562664D01*
G37*
G36*
X100247935Y-111502664D02*
G01*
X100402624Y-111566739D01*
X100402626Y-111566740D01*
X100541844Y-111659762D01*
X100660238Y-111778156D01*
X100700329Y-111838157D01*
X100753261Y-111917376D01*
X100817336Y-112072065D01*
X100850000Y-112236281D01*
X100850000Y-112403719D01*
X100817336Y-112567935D01*
X100792482Y-112627936D01*
X100753260Y-112722626D01*
X100660238Y-112861844D01*
X100541844Y-112980238D01*
X100402626Y-113073260D01*
X100402625Y-113073261D01*
X100402624Y-113073261D01*
X100247935Y-113137336D01*
X100083719Y-113170000D01*
X99916281Y-113170000D01*
X99752065Y-113137336D01*
X99597376Y-113073261D01*
X99597375Y-113073261D01*
X99597374Y-113073260D01*
X99458156Y-112980238D01*
X99339762Y-112861844D01*
X99246740Y-112722626D01*
X99207518Y-112627936D01*
X99182664Y-112567935D01*
X99150000Y-112403719D01*
X99150000Y-112236281D01*
X99182664Y-112072065D01*
X99246739Y-111917376D01*
X99299671Y-111838157D01*
X99339762Y-111778156D01*
X99458156Y-111659762D01*
X99597374Y-111566740D01*
X99597376Y-111566739D01*
X99752065Y-111502664D01*
X99916281Y-111470000D01*
X100083719Y-111470000D01*
X100247935Y-111502664D01*
G37*
G36*
X116950000Y-111775000D02*
G01*
X114550000Y-111775000D01*
X114550000Y-110325000D01*
X116950000Y-110325000D01*
X116950000Y-111775000D01*
G37*
G36*
X107950000Y-111775000D02*
G01*
X105550000Y-111775000D01*
X105550000Y-110325000D01*
X107950000Y-110325000D01*
X107950000Y-111775000D01*
G37*
G36*
X112450000Y-111775000D02*
G01*
X110050000Y-111775000D01*
X110050000Y-110325000D01*
X112450000Y-110325000D01*
X112450000Y-111775000D01*
G37*
G36*
X122747935Y-109022664D02*
G01*
X122902624Y-109086739D01*
X122902626Y-109086740D01*
X123041844Y-109179762D01*
X123160238Y-109298156D01*
X123253260Y-109437374D01*
X123253261Y-109437376D01*
X123317336Y-109592065D01*
X123350000Y-109756281D01*
X123350000Y-109923719D01*
X123317336Y-110087935D01*
X123278114Y-110182624D01*
X123253260Y-110242626D01*
X123160238Y-110381844D01*
X123041844Y-110500238D01*
X122902626Y-110593260D01*
X122902625Y-110593261D01*
X122902624Y-110593261D01*
X122747935Y-110657336D01*
X122583719Y-110690000D01*
X122416281Y-110690000D01*
X122252065Y-110657336D01*
X122097376Y-110593261D01*
X122097375Y-110593261D01*
X122097374Y-110593260D01*
X121958156Y-110500238D01*
X121839762Y-110381844D01*
X121746740Y-110242626D01*
X121721886Y-110182624D01*
X121682664Y-110087935D01*
X121650000Y-109923719D01*
X121650000Y-109756281D01*
X121682664Y-109592065D01*
X121746739Y-109437376D01*
X121746740Y-109437374D01*
X121839762Y-109298156D01*
X121958156Y-109179762D01*
X122097374Y-109086740D01*
X122097376Y-109086739D01*
X122252065Y-109022664D01*
X122416281Y-108990000D01*
X122583719Y-108990000D01*
X122747935Y-109022664D01*
G37*
G36*
X100247935Y-108962664D02*
G01*
X100402624Y-109026739D01*
X100402626Y-109026740D01*
X100541844Y-109119762D01*
X100660238Y-109238156D01*
X100700329Y-109298157D01*
X100753261Y-109377376D01*
X100817336Y-109532065D01*
X100850000Y-109696281D01*
X100850000Y-109863719D01*
X100817336Y-110027935D01*
X100792482Y-110087936D01*
X100753260Y-110182626D01*
X100660238Y-110321844D01*
X100541844Y-110440238D01*
X100402626Y-110533260D01*
X100402625Y-110533261D01*
X100402624Y-110533261D01*
X100247935Y-110597336D01*
X100083719Y-110630000D01*
X99916281Y-110630000D01*
X99752065Y-110597336D01*
X99597376Y-110533261D01*
X99597375Y-110533261D01*
X99597374Y-110533260D01*
X99458156Y-110440238D01*
X99339762Y-110321844D01*
X99246740Y-110182626D01*
X99207518Y-110087936D01*
X99182664Y-110027935D01*
X99150000Y-109863719D01*
X99150000Y-109696281D01*
X99182664Y-109532065D01*
X99246739Y-109377376D01*
X99299671Y-109298157D01*
X99339762Y-109238156D01*
X99458156Y-109119762D01*
X99597374Y-109026740D01*
X99597376Y-109026739D01*
X99752065Y-108962664D01*
X99916281Y-108930000D01*
X100083719Y-108930000D01*
X100247935Y-108962664D01*
G37*
G36*
X105550000Y-109200000D02*
G01*
X104650000Y-109200000D01*
X104650000Y-108400000D01*
X105550000Y-108400000D01*
X105550000Y-109200000D01*
G37*
G36*
X110000000Y-109150000D02*
G01*
X109100000Y-109150000D01*
X109100000Y-108350000D01*
X110000000Y-108350000D01*
X110000000Y-109150000D01*
G37*
G36*
X114500000Y-109150000D02*
G01*
X113600000Y-109150000D01*
X113600000Y-108350000D01*
X114500000Y-108350000D01*
X114500000Y-109150000D01*
G37*
G36*
X107550000Y-108250000D02*
G01*
X106650000Y-108250000D01*
X106650000Y-107450000D01*
X107550000Y-107450000D01*
X107550000Y-108250000D01*
G37*
G36*
X112000000Y-108200000D02*
G01*
X111100000Y-108200000D01*
X111100000Y-107400000D01*
X112000000Y-107400000D01*
X112000000Y-108200000D01*
G37*
G36*
X116500000Y-108200000D02*
G01*
X115600000Y-108200000D01*
X115600000Y-107400000D01*
X116500000Y-107400000D01*
X116500000Y-108200000D01*
G37*
G36*
X122747935Y-106482664D02*
G01*
X122902624Y-106546739D01*
X122902626Y-106546740D01*
X123041844Y-106639762D01*
X123160238Y-106758156D01*
X123253260Y-106897374D01*
X123253261Y-106897376D01*
X123317336Y-107052065D01*
X123350000Y-107216281D01*
X123350000Y-107383719D01*
X123317336Y-107547935D01*
X123278114Y-107642624D01*
X123253260Y-107702626D01*
X123160238Y-107841844D01*
X123041844Y-107960238D01*
X122902626Y-108053260D01*
X122902625Y-108053261D01*
X122902624Y-108053261D01*
X122747935Y-108117336D01*
X122583719Y-108150000D01*
X122416281Y-108150000D01*
X122252065Y-108117336D01*
X122097376Y-108053261D01*
X122097375Y-108053261D01*
X122097374Y-108053260D01*
X121958156Y-107960238D01*
X121839762Y-107841844D01*
X121746740Y-107702626D01*
X121721886Y-107642624D01*
X121682664Y-107547935D01*
X121650000Y-107383719D01*
X121650000Y-107216281D01*
X121682664Y-107052065D01*
X121746739Y-106897376D01*
X121746740Y-106897374D01*
X121839762Y-106758156D01*
X121958156Y-106639762D01*
X122097374Y-106546740D01*
X122097376Y-106546739D01*
X122252065Y-106482664D01*
X122416281Y-106450000D01*
X122583719Y-106450000D01*
X122747935Y-106482664D01*
G37*
G36*
X100247935Y-106422664D02*
G01*
X100402624Y-106486739D01*
X100402626Y-106486740D01*
X100541844Y-106579762D01*
X100660238Y-106698156D01*
X100700329Y-106758157D01*
X100753261Y-106837376D01*
X100817336Y-106992065D01*
X100850000Y-107156281D01*
X100850000Y-107323719D01*
X100817336Y-107487935D01*
X100792482Y-107547936D01*
X100753260Y-107642626D01*
X100660238Y-107781844D01*
X100541844Y-107900238D01*
X100402626Y-107993260D01*
X100402625Y-107993261D01*
X100402624Y-107993261D01*
X100247935Y-108057336D01*
X100083719Y-108090000D01*
X99916281Y-108090000D01*
X99752065Y-108057336D01*
X99597376Y-107993261D01*
X99597375Y-107993261D01*
X99597374Y-107993260D01*
X99458156Y-107900238D01*
X99339762Y-107781844D01*
X99246740Y-107642626D01*
X99207518Y-107547936D01*
X99182664Y-107487935D01*
X99150000Y-107323719D01*
X99150000Y-107156281D01*
X99182664Y-106992065D01*
X99246739Y-106837376D01*
X99299671Y-106758157D01*
X99339762Y-106698156D01*
X99458156Y-106579762D01*
X99597374Y-106486740D01*
X99597376Y-106486739D01*
X99752065Y-106422664D01*
X99916281Y-106390000D01*
X100083719Y-106390000D01*
X100247935Y-106422664D01*
G37*
G36*
X105550000Y-107300000D02*
G01*
X104650000Y-107300000D01*
X104650000Y-106500000D01*
X105550000Y-106500000D01*
X105550000Y-107300000D01*
G37*
G36*
X110000000Y-107250000D02*
G01*
X109100000Y-107250000D01*
X109100000Y-106450000D01*
X110000000Y-106450000D01*
X110000000Y-107250000D01*
G37*
G36*
X114500000Y-107250000D02*
G01*
X113600000Y-107250000D01*
X113600000Y-106450000D01*
X114500000Y-106450000D01*
X114500000Y-107250000D01*
G37*
G36*
X114506463Y-105182226D02*
G01*
X114522299Y-105187030D01*
X114536886Y-105194827D01*
X114549677Y-105205323D01*
X114560173Y-105218114D01*
X114567970Y-105232701D01*
X114572774Y-105248537D01*
X114575000Y-105271140D01*
X114575000Y-105728860D01*
X114572774Y-105751463D01*
X114567970Y-105767299D01*
X114560173Y-105781886D01*
X114549677Y-105794677D01*
X114536886Y-105805173D01*
X114522299Y-105812970D01*
X114506463Y-105817774D01*
X114483860Y-105820000D01*
X114076140Y-105820000D01*
X114053537Y-105817774D01*
X114037701Y-105812970D01*
X114023114Y-105805173D01*
X114010323Y-105794677D01*
X113999827Y-105781886D01*
X113992030Y-105767299D01*
X113987226Y-105751463D01*
X113985000Y-105728860D01*
X113985000Y-105271140D01*
X113987226Y-105248537D01*
X113992030Y-105232701D01*
X113999827Y-105218114D01*
X114010323Y-105205323D01*
X114023114Y-105194827D01*
X114037701Y-105187030D01*
X114053537Y-105182226D01*
X114076140Y-105180000D01*
X114483860Y-105180000D01*
X114506463Y-105182226D01*
G37*
G36*
X115476463Y-105182226D02*
G01*
X115492299Y-105187030D01*
X115506886Y-105194827D01*
X115519677Y-105205323D01*
X115530173Y-105218114D01*
X115537970Y-105232701D01*
X115542774Y-105248537D01*
X115545000Y-105271140D01*
X115545000Y-105728860D01*
X115542774Y-105751463D01*
X115537970Y-105767299D01*
X115530173Y-105781886D01*
X115519677Y-105794677D01*
X115506886Y-105805173D01*
X115492299Y-105812970D01*
X115476463Y-105817774D01*
X115453860Y-105820000D01*
X115046140Y-105820000D01*
X115023537Y-105817774D01*
X115007701Y-105812970D01*
X114993114Y-105805173D01*
X114980323Y-105794677D01*
X114969827Y-105781886D01*
X114962030Y-105767299D01*
X114957226Y-105751463D01*
X114955000Y-105728860D01*
X114955000Y-105271140D01*
X114957226Y-105248537D01*
X114962030Y-105232701D01*
X114969827Y-105218114D01*
X114980323Y-105205323D01*
X114993114Y-105194827D01*
X115007701Y-105187030D01*
X115023537Y-105182226D01*
X115046140Y-105180000D01*
X115453860Y-105180000D01*
X115476463Y-105182226D01*
G37*
G36*
X110091463Y-105132226D02*
G01*
X110107299Y-105137030D01*
X110121886Y-105144827D01*
X110134677Y-105155323D01*
X110145173Y-105168114D01*
X110152970Y-105182701D01*
X110157774Y-105198537D01*
X110160000Y-105221140D01*
X110160000Y-105678860D01*
X110157774Y-105701463D01*
X110152970Y-105717299D01*
X110145173Y-105731886D01*
X110134677Y-105744677D01*
X110121886Y-105755173D01*
X110107299Y-105762970D01*
X110091463Y-105767774D01*
X110068860Y-105770000D01*
X109661140Y-105770000D01*
X109638537Y-105767774D01*
X109622701Y-105762970D01*
X109608114Y-105755173D01*
X109595323Y-105744677D01*
X109584827Y-105731886D01*
X109577030Y-105717299D01*
X109572226Y-105701463D01*
X109570000Y-105678860D01*
X109570000Y-105221140D01*
X109572226Y-105198537D01*
X109577030Y-105182701D01*
X109584827Y-105168114D01*
X109595323Y-105155323D01*
X109608114Y-105144827D01*
X109622701Y-105137030D01*
X109638537Y-105132226D01*
X109661140Y-105130000D01*
X110068860Y-105130000D01*
X110091463Y-105132226D01*
G37*
G36*
X105691463Y-105132226D02*
G01*
X105707299Y-105137030D01*
X105721886Y-105144827D01*
X105734677Y-105155323D01*
X105745173Y-105168114D01*
X105752970Y-105182701D01*
X105757774Y-105198537D01*
X105760000Y-105221140D01*
X105760000Y-105678860D01*
X105757774Y-105701463D01*
X105752970Y-105717299D01*
X105745173Y-105731886D01*
X105734677Y-105744677D01*
X105721886Y-105755173D01*
X105707299Y-105762970D01*
X105691463Y-105767774D01*
X105668860Y-105770000D01*
X105261140Y-105770000D01*
X105238537Y-105767774D01*
X105222701Y-105762970D01*
X105208114Y-105755173D01*
X105195323Y-105744677D01*
X105184827Y-105731886D01*
X105177030Y-105717299D01*
X105172226Y-105701463D01*
X105170000Y-105678860D01*
X105170000Y-105221140D01*
X105172226Y-105198537D01*
X105177030Y-105182701D01*
X105184827Y-105168114D01*
X105195323Y-105155323D01*
X105208114Y-105144827D01*
X105222701Y-105137030D01*
X105238537Y-105132226D01*
X105261140Y-105130000D01*
X105668860Y-105130000D01*
X105691463Y-105132226D01*
G37*
G36*
X106661463Y-105132226D02*
G01*
X106677299Y-105137030D01*
X106691886Y-105144827D01*
X106704677Y-105155323D01*
X106715173Y-105168114D01*
X106722970Y-105182701D01*
X106727774Y-105198537D01*
X106730000Y-105221140D01*
X106730000Y-105678860D01*
X106727774Y-105701463D01*
X106722970Y-105717299D01*
X106715173Y-105731886D01*
X106704677Y-105744677D01*
X106691886Y-105755173D01*
X106677299Y-105762970D01*
X106661463Y-105767774D01*
X106638860Y-105770000D01*
X106231140Y-105770000D01*
X106208537Y-105767774D01*
X106192701Y-105762970D01*
X106178114Y-105755173D01*
X106165323Y-105744677D01*
X106154827Y-105731886D01*
X106147030Y-105717299D01*
X106142226Y-105701463D01*
X106140000Y-105678860D01*
X106140000Y-105221140D01*
X106142226Y-105198537D01*
X106147030Y-105182701D01*
X106154827Y-105168114D01*
X106165323Y-105155323D01*
X106178114Y-105144827D01*
X106192701Y-105137030D01*
X106208537Y-105132226D01*
X106231140Y-105130000D01*
X106638860Y-105130000D01*
X106661463Y-105132226D01*
G37*
G36*
X111061463Y-105132226D02*
G01*
X111077299Y-105137030D01*
X111091886Y-105144827D01*
X111104677Y-105155323D01*
X111115173Y-105168114D01*
X111122970Y-105182701D01*
X111127774Y-105198537D01*
X111130000Y-105221140D01*
X111130000Y-105678860D01*
X111127774Y-105701463D01*
X111122970Y-105717299D01*
X111115173Y-105731886D01*
X111104677Y-105744677D01*
X111091886Y-105755173D01*
X111077299Y-105762970D01*
X111061463Y-105767774D01*
X111038860Y-105770000D01*
X110631140Y-105770000D01*
X110608537Y-105767774D01*
X110592701Y-105762970D01*
X110578114Y-105755173D01*
X110565323Y-105744677D01*
X110554827Y-105731886D01*
X110547030Y-105717299D01*
X110542226Y-105701463D01*
X110540000Y-105678860D01*
X110540000Y-105221140D01*
X110542226Y-105198537D01*
X110547030Y-105182701D01*
X110554827Y-105168114D01*
X110565323Y-105155323D01*
X110578114Y-105144827D01*
X110592701Y-105137030D01*
X110608537Y-105132226D01*
X110631140Y-105130000D01*
X111038860Y-105130000D01*
X111061463Y-105132226D01*
G37*
G36*
X122747935Y-103942664D02*
G01*
X122902624Y-104006739D01*
X122902626Y-104006740D01*
X123041844Y-104099762D01*
X123160238Y-104218156D01*
X123253260Y-104357374D01*
X123253261Y-104357376D01*
X123317336Y-104512065D01*
X123350000Y-104676281D01*
X123350000Y-104843719D01*
X123317336Y-105007935D01*
X123260633Y-105144827D01*
X123253260Y-105162626D01*
X123160238Y-105301844D01*
X123041844Y-105420238D01*
X122902626Y-105513260D01*
X122902625Y-105513261D01*
X122902624Y-105513261D01*
X122747935Y-105577336D01*
X122583719Y-105610000D01*
X122416281Y-105610000D01*
X122252065Y-105577336D01*
X122097376Y-105513261D01*
X122097375Y-105513261D01*
X122097374Y-105513260D01*
X121958156Y-105420238D01*
X121839762Y-105301844D01*
X121746740Y-105162626D01*
X121739367Y-105144827D01*
X121682664Y-105007935D01*
X121650000Y-104843719D01*
X121650000Y-104676281D01*
X121682664Y-104512065D01*
X121746739Y-104357376D01*
X121746740Y-104357374D01*
X121839762Y-104218156D01*
X121958156Y-104099762D01*
X122097374Y-104006740D01*
X122097376Y-104006739D01*
X122252065Y-103942664D01*
X122416281Y-103910000D01*
X122583719Y-103910000D01*
X122747935Y-103942664D01*
G37*
G36*
X100247935Y-103882664D02*
G01*
X100402624Y-103946739D01*
X100402626Y-103946740D01*
X100541844Y-104039762D01*
X100660238Y-104158156D01*
X100700329Y-104218157D01*
X100753261Y-104297376D01*
X100817336Y-104452065D01*
X100850000Y-104616281D01*
X100850000Y-104783719D01*
X100817336Y-104947935D01*
X100787994Y-105018772D01*
X100753260Y-105102626D01*
X100660238Y-105241844D01*
X100541844Y-105360238D01*
X100402626Y-105453260D01*
X100402625Y-105453261D01*
X100402624Y-105453261D01*
X100247935Y-105517336D01*
X100083719Y-105550000D01*
X99916281Y-105550000D01*
X99752065Y-105517336D01*
X99597376Y-105453261D01*
X99597375Y-105453261D01*
X99597374Y-105453260D01*
X99458156Y-105360238D01*
X99339762Y-105241844D01*
X99246740Y-105102626D01*
X99212006Y-105018772D01*
X99182664Y-104947935D01*
X99150000Y-104783719D01*
X99150000Y-104616281D01*
X99182664Y-104452065D01*
X99246739Y-104297376D01*
X99299671Y-104218157D01*
X99339762Y-104158156D01*
X99458156Y-104039762D01*
X99597374Y-103946740D01*
X99597376Y-103946739D01*
X99752065Y-103882664D01*
X99916281Y-103850000D01*
X100083719Y-103850000D01*
X100247935Y-103882664D01*
G37*
G36*
X117251463Y-104442226D02*
G01*
X117267299Y-104447030D01*
X117281886Y-104454827D01*
X117294677Y-104465323D01*
X117305173Y-104478114D01*
X117312970Y-104492701D01*
X117317774Y-104508537D01*
X117320000Y-104531140D01*
X117320000Y-104938860D01*
X117317774Y-104961463D01*
X117312970Y-104977299D01*
X117305173Y-104991886D01*
X117294677Y-105004677D01*
X117281886Y-105015173D01*
X117267299Y-105022970D01*
X117251463Y-105027774D01*
X117228860Y-105030000D01*
X116771140Y-105030000D01*
X116748537Y-105027774D01*
X116732701Y-105022970D01*
X116718114Y-105015173D01*
X116705323Y-105004677D01*
X116694827Y-104991886D01*
X116687030Y-104977299D01*
X116682226Y-104961463D01*
X116680000Y-104938860D01*
X116680000Y-104531140D01*
X116682226Y-104508537D01*
X116687030Y-104492701D01*
X116694827Y-104478114D01*
X116705323Y-104465323D01*
X116718114Y-104454827D01*
X116732701Y-104447030D01*
X116748537Y-104442226D01*
X116771140Y-104440000D01*
X117228860Y-104440000D01*
X117251463Y-104442226D01*
G37*
G36*
X108251463Y-104442226D02*
G01*
X108267299Y-104447030D01*
X108281886Y-104454827D01*
X108294677Y-104465323D01*
X108305173Y-104478114D01*
X108312970Y-104492701D01*
X108317774Y-104508537D01*
X108320000Y-104531140D01*
X108320000Y-104938860D01*
X108317774Y-104961463D01*
X108312970Y-104977299D01*
X108305173Y-104991886D01*
X108294677Y-105004677D01*
X108281886Y-105015173D01*
X108267299Y-105022970D01*
X108251463Y-105027774D01*
X108228860Y-105030000D01*
X107771140Y-105030000D01*
X107748537Y-105027774D01*
X107732701Y-105022970D01*
X107718114Y-105015173D01*
X107705323Y-105004677D01*
X107694827Y-104991886D01*
X107687030Y-104977299D01*
X107682226Y-104961463D01*
X107680000Y-104938860D01*
X107680000Y-104531140D01*
X107682226Y-104508537D01*
X107687030Y-104492701D01*
X107694827Y-104478114D01*
X107705323Y-104465323D01*
X107718114Y-104454827D01*
X107732701Y-104447030D01*
X107748537Y-104442226D01*
X107771140Y-104440000D01*
X108228860Y-104440000D01*
X108251463Y-104442226D01*
G37*
G36*
X112751463Y-104442226D02*
G01*
X112767299Y-104447030D01*
X112781886Y-104454827D01*
X112794677Y-104465323D01*
X112805173Y-104478114D01*
X112812970Y-104492701D01*
X112817774Y-104508537D01*
X112820000Y-104531140D01*
X112820000Y-104938860D01*
X112817774Y-104961463D01*
X112812970Y-104977299D01*
X112805173Y-104991886D01*
X112794677Y-105004677D01*
X112781886Y-105015173D01*
X112767299Y-105022970D01*
X112751463Y-105027774D01*
X112728860Y-105030000D01*
X112271140Y-105030000D01*
X112248537Y-105027774D01*
X112232701Y-105022970D01*
X112218114Y-105015173D01*
X112205323Y-105004677D01*
X112194827Y-104991886D01*
X112187030Y-104977299D01*
X112182226Y-104961463D01*
X112180000Y-104938860D01*
X112180000Y-104531140D01*
X112182226Y-104508537D01*
X112187030Y-104492701D01*
X112194827Y-104478114D01*
X112205323Y-104465323D01*
X112218114Y-104454827D01*
X112232701Y-104447030D01*
X112248537Y-104442226D01*
X112271140Y-104440000D01*
X112728860Y-104440000D01*
X112751463Y-104442226D01*
G37*
G36*
X108251463Y-103472226D02*
G01*
X108267299Y-103477030D01*
X108281886Y-103484827D01*
X108294677Y-103495323D01*
X108305173Y-103508114D01*
X108312970Y-103522701D01*
X108317774Y-103538537D01*
X108320000Y-103561140D01*
X108320000Y-103968860D01*
X108317774Y-103991463D01*
X108312970Y-104007299D01*
X108305173Y-104021886D01*
X108294677Y-104034677D01*
X108281886Y-104045173D01*
X108267299Y-104052970D01*
X108251463Y-104057774D01*
X108228860Y-104060000D01*
X107771140Y-104060000D01*
X107748537Y-104057774D01*
X107732701Y-104052970D01*
X107718114Y-104045173D01*
X107705323Y-104034677D01*
X107694827Y-104021886D01*
X107687030Y-104007299D01*
X107682226Y-103991463D01*
X107680000Y-103968860D01*
X107680000Y-103561140D01*
X107682226Y-103538537D01*
X107687030Y-103522701D01*
X107694827Y-103508114D01*
X107705323Y-103495323D01*
X107718114Y-103484827D01*
X107732701Y-103477030D01*
X107748537Y-103472226D01*
X107771140Y-103470000D01*
X108228860Y-103470000D01*
X108251463Y-103472226D01*
G37*
G36*
X117251463Y-103472226D02*
G01*
X117267299Y-103477030D01*
X117281886Y-103484827D01*
X117294677Y-103495323D01*
X117305173Y-103508114D01*
X117312970Y-103522701D01*
X117317774Y-103538537D01*
X117320000Y-103561140D01*
X117320000Y-103968860D01*
X117317774Y-103991463D01*
X117312970Y-104007299D01*
X117305173Y-104021886D01*
X117294677Y-104034677D01*
X117281886Y-104045173D01*
X117267299Y-104052970D01*
X117251463Y-104057774D01*
X117228860Y-104060000D01*
X116771140Y-104060000D01*
X116748537Y-104057774D01*
X116732701Y-104052970D01*
X116718114Y-104045173D01*
X116705323Y-104034677D01*
X116694827Y-104021886D01*
X116687030Y-104007299D01*
X116682226Y-103991463D01*
X116680000Y-103968860D01*
X116680000Y-103561140D01*
X116682226Y-103538537D01*
X116687030Y-103522701D01*
X116694827Y-103508114D01*
X116705323Y-103495323D01*
X116718114Y-103484827D01*
X116732701Y-103477030D01*
X116748537Y-103472226D01*
X116771140Y-103470000D01*
X117228860Y-103470000D01*
X117251463Y-103472226D01*
G37*
G36*
X112751463Y-103472226D02*
G01*
X112767299Y-103477030D01*
X112781886Y-103484827D01*
X112794677Y-103495323D01*
X112805173Y-103508114D01*
X112812970Y-103522701D01*
X112817774Y-103538537D01*
X112820000Y-103561140D01*
X112820000Y-103968860D01*
X112817774Y-103991463D01*
X112812970Y-104007299D01*
X112805173Y-104021886D01*
X112794677Y-104034677D01*
X112781886Y-104045173D01*
X112767299Y-104052970D01*
X112751463Y-104057774D01*
X112728860Y-104060000D01*
X112271140Y-104060000D01*
X112248537Y-104057774D01*
X112232701Y-104052970D01*
X112218114Y-104045173D01*
X112205323Y-104034677D01*
X112194827Y-104021886D01*
X112187030Y-104007299D01*
X112182226Y-103991463D01*
X112180000Y-103968860D01*
X112180000Y-103561140D01*
X112182226Y-103538537D01*
X112187030Y-103522701D01*
X112194827Y-103508114D01*
X112205323Y-103495323D01*
X112218114Y-103484827D01*
X112232701Y-103477030D01*
X112248537Y-103472226D01*
X112271140Y-103470000D01*
X112728860Y-103470000D01*
X112751463Y-103472226D01*
G37*
G36*
X122747935Y-101402664D02*
G01*
X122902624Y-101466739D01*
X122902626Y-101466740D01*
X123041844Y-101559762D01*
X123160238Y-101678156D01*
X123253260Y-101817374D01*
X123253261Y-101817376D01*
X123317336Y-101972065D01*
X123350000Y-102136281D01*
X123350000Y-102303719D01*
X123317336Y-102467935D01*
X123278114Y-102562624D01*
X123253260Y-102622626D01*
X123160238Y-102761844D01*
X123041844Y-102880238D01*
X122902626Y-102973260D01*
X122902625Y-102973261D01*
X122902624Y-102973261D01*
X122747935Y-103037336D01*
X122583719Y-103070000D01*
X122416281Y-103070000D01*
X122252065Y-103037336D01*
X122097376Y-102973261D01*
X122097375Y-102973261D01*
X122097374Y-102973260D01*
X121958156Y-102880238D01*
X121839762Y-102761844D01*
X121746740Y-102622626D01*
X121721886Y-102562624D01*
X121682664Y-102467935D01*
X121650000Y-102303719D01*
X121650000Y-102136281D01*
X121682664Y-101972065D01*
X121746739Y-101817376D01*
X121746740Y-101817374D01*
X121839762Y-101678156D01*
X121958156Y-101559762D01*
X122097374Y-101466740D01*
X122097376Y-101466739D01*
X122252065Y-101402664D01*
X122416281Y-101370000D01*
X122583719Y-101370000D01*
X122747935Y-101402664D01*
G37*
G36*
X100247935Y-101342664D02*
G01*
X100402624Y-101406739D01*
X100402626Y-101406740D01*
X100541844Y-101499762D01*
X100660238Y-101618156D01*
X100700329Y-101678157D01*
X100753261Y-101757376D01*
X100817336Y-101912065D01*
X100850000Y-102076281D01*
X100850000Y-102243719D01*
X100817336Y-102407935D01*
X100792482Y-102467936D01*
X100753260Y-102562626D01*
X100660238Y-102701844D01*
X100541844Y-102820238D01*
X100402626Y-102913260D01*
X100402625Y-102913261D01*
X100402624Y-102913261D01*
X100247935Y-102977336D01*
X100083719Y-103010000D01*
X99916281Y-103010000D01*
X99752065Y-102977336D01*
X99597376Y-102913261D01*
X99597375Y-102913261D01*
X99597374Y-102913260D01*
X99458156Y-102820238D01*
X99339762Y-102701844D01*
X99246740Y-102562626D01*
X99207518Y-102467936D01*
X99182664Y-102407935D01*
X99150000Y-102243719D01*
X99150000Y-102076281D01*
X99182664Y-101912065D01*
X99246739Y-101757376D01*
X99299671Y-101678157D01*
X99339762Y-101618156D01*
X99458156Y-101499762D01*
X99597374Y-101406740D01*
X99597376Y-101406739D01*
X99752065Y-101342664D01*
X99916281Y-101310000D01*
X100083719Y-101310000D01*
X100247935Y-101342664D01*
G37*
G36*
X104361463Y-100132226D02*
G01*
X104377299Y-100137030D01*
X104391886Y-100144827D01*
X104404677Y-100155323D01*
X104415173Y-100168114D01*
X104422970Y-100182701D01*
X104427774Y-100198537D01*
X104430000Y-100221140D01*
X104430000Y-100678860D01*
X104427774Y-100701463D01*
X104422970Y-100717299D01*
X104415173Y-100731886D01*
X104404677Y-100744677D01*
X104391886Y-100755173D01*
X104377299Y-100762970D01*
X104361463Y-100767774D01*
X104338860Y-100770000D01*
X103931140Y-100770000D01*
X103908537Y-100767774D01*
X103892701Y-100762970D01*
X103878114Y-100755173D01*
X103865323Y-100744677D01*
X103854827Y-100731886D01*
X103847030Y-100717299D01*
X103842226Y-100701463D01*
X103840000Y-100678860D01*
X103840000Y-100221140D01*
X103842226Y-100198537D01*
X103847030Y-100182701D01*
X103854827Y-100168114D01*
X103865323Y-100155323D01*
X103878114Y-100144827D01*
X103892701Y-100137030D01*
X103908537Y-100132226D01*
X103931140Y-100130000D01*
X104338860Y-100130000D01*
X104361463Y-100132226D01*
G37*
G36*
X103391463Y-100132226D02*
G01*
X103407299Y-100137030D01*
X103421886Y-100144827D01*
X103434677Y-100155323D01*
X103445173Y-100168114D01*
X103452970Y-100182701D01*
X103457774Y-100198537D01*
X103460000Y-100221140D01*
X103460000Y-100678860D01*
X103457774Y-100701463D01*
X103452970Y-100717299D01*
X103445173Y-100731886D01*
X103434677Y-100744677D01*
X103421886Y-100755173D01*
X103407299Y-100762970D01*
X103391463Y-100767774D01*
X103368860Y-100770000D01*
X102961140Y-100770000D01*
X102938537Y-100767774D01*
X102922701Y-100762970D01*
X102908114Y-100755173D01*
X102895323Y-100744677D01*
X102884827Y-100731886D01*
X102877030Y-100717299D01*
X102872226Y-100701463D01*
X102870000Y-100678860D01*
X102870000Y-100221140D01*
X102872226Y-100198537D01*
X102877030Y-100182701D01*
X102884827Y-100168114D01*
X102895323Y-100155323D01*
X102908114Y-100144827D01*
X102922701Y-100137030D01*
X102938537Y-100132226D01*
X102961140Y-100130000D01*
X103368860Y-100130000D01*
X103391463Y-100132226D01*
G37*
G36*
X122747935Y-98862664D02*
G01*
X122902624Y-98926739D01*
X122902626Y-98926740D01*
X123041844Y-99019762D01*
X123160238Y-99138156D01*
X123253260Y-99277374D01*
X123253261Y-99277376D01*
X123317336Y-99432065D01*
X123350000Y-99596281D01*
X123350000Y-99763719D01*
X123317336Y-99927935D01*
X123278114Y-100022624D01*
X123253260Y-100082626D01*
X123160238Y-100221844D01*
X123041844Y-100340238D01*
X122902626Y-100433260D01*
X122902625Y-100433261D01*
X122902624Y-100433261D01*
X122747935Y-100497336D01*
X122583719Y-100530000D01*
X122416281Y-100530000D01*
X122252065Y-100497336D01*
X122097376Y-100433261D01*
X122097375Y-100433261D01*
X122097374Y-100433260D01*
X121958156Y-100340238D01*
X121839762Y-100221844D01*
X121746740Y-100082626D01*
X121721886Y-100022624D01*
X121682664Y-99927935D01*
X121650000Y-99763719D01*
X121650000Y-99596281D01*
X121682664Y-99432065D01*
X121746739Y-99277376D01*
X121746740Y-99277374D01*
X121839762Y-99138156D01*
X121958156Y-99019762D01*
X122097374Y-98926740D01*
X122097376Y-98926739D01*
X122252065Y-98862664D01*
X122416281Y-98830000D01*
X122583719Y-98830000D01*
X122747935Y-98862664D01*
G37*
G36*
X100247935Y-98802664D02*
G01*
X100402624Y-98866739D01*
X100402626Y-98866740D01*
X100541844Y-98959762D01*
X100660238Y-99078156D01*
X100700329Y-99138157D01*
X100753261Y-99217376D01*
X100817336Y-99372065D01*
X100850000Y-99536281D01*
X100850000Y-99703719D01*
X100817336Y-99867935D01*
X100792482Y-99927936D01*
X100753260Y-100022626D01*
X100660238Y-100161844D01*
X100541844Y-100280238D01*
X100402626Y-100373260D01*
X100402625Y-100373261D01*
X100402624Y-100373261D01*
X100247935Y-100437336D01*
X100083719Y-100470000D01*
X99916281Y-100470000D01*
X99752065Y-100437336D01*
X99597376Y-100373261D01*
X99597375Y-100373261D01*
X99597374Y-100373260D01*
X99458156Y-100280238D01*
X99339762Y-100161844D01*
X99246740Y-100022626D01*
X99207518Y-99927936D01*
X99182664Y-99867935D01*
X99150000Y-99703719D01*
X99150000Y-99536281D01*
X99182664Y-99372065D01*
X99246739Y-99217376D01*
X99299671Y-99138157D01*
X99339762Y-99078156D01*
X99458156Y-98959762D01*
X99597374Y-98866740D01*
X99597376Y-98866739D01*
X99752065Y-98802664D01*
X99916281Y-98770000D01*
X100083719Y-98770000D01*
X100247935Y-98802664D01*
G37*
G36*
X104600000Y-99400000D02*
G01*
X103700000Y-99400000D01*
X103700000Y-98600000D01*
X104600000Y-98600000D01*
X104600000Y-99400000D01*
G37*
G36*
X102600000Y-98450000D02*
G01*
X101700000Y-98450000D01*
X101700000Y-97650000D01*
X102600000Y-97650000D01*
X102600000Y-98450000D01*
G37*
G36*
X122747935Y-96322664D02*
G01*
X122902624Y-96386739D01*
X122902626Y-96386740D01*
X123041844Y-96479762D01*
X123160238Y-96598156D01*
X123253260Y-96737374D01*
X123253261Y-96737376D01*
X123317336Y-96892065D01*
X123350000Y-97056281D01*
X123350000Y-97223719D01*
X123317336Y-97387935D01*
X123253261Y-97542624D01*
X123253260Y-97542626D01*
X123160238Y-97681844D01*
X123041844Y-97800238D01*
X122902626Y-97893260D01*
X122902625Y-97893261D01*
X122902624Y-97893261D01*
X122747935Y-97957336D01*
X122583719Y-97990000D01*
X122416281Y-97990000D01*
X122252065Y-97957336D01*
X122097376Y-97893261D01*
X122097375Y-97893261D01*
X122097374Y-97893260D01*
X121958156Y-97800238D01*
X121839762Y-97681844D01*
X121746740Y-97542626D01*
X121746739Y-97542624D01*
X121682664Y-97387935D01*
X121650000Y-97223719D01*
X121650000Y-97056281D01*
X121682664Y-96892065D01*
X121746739Y-96737376D01*
X121746740Y-96737374D01*
X121839762Y-96598156D01*
X121958156Y-96479762D01*
X122097374Y-96386740D01*
X122097376Y-96386739D01*
X122252065Y-96322664D01*
X122416281Y-96290000D01*
X122583719Y-96290000D01*
X122747935Y-96322664D01*
G37*
G36*
X100247935Y-96262664D02*
G01*
X100402624Y-96326739D01*
X100402626Y-96326740D01*
X100541844Y-96419762D01*
X100660238Y-96538156D01*
X100700329Y-96598157D01*
X100753261Y-96677376D01*
X100817336Y-96832065D01*
X100850000Y-96996281D01*
X100850000Y-97163719D01*
X100817336Y-97327935D01*
X100792482Y-97387936D01*
X100753260Y-97482626D01*
X100660238Y-97621844D01*
X100541844Y-97740238D01*
X100402626Y-97833260D01*
X100402625Y-97833261D01*
X100402624Y-97833261D01*
X100247935Y-97897336D01*
X100083719Y-97930000D01*
X99916281Y-97930000D01*
X99752065Y-97897336D01*
X99597376Y-97833261D01*
X99597375Y-97833261D01*
X99597374Y-97833260D01*
X99458156Y-97740238D01*
X99339762Y-97621844D01*
X99246740Y-97482626D01*
X99207518Y-97387936D01*
X99182664Y-97327935D01*
X99150000Y-97163719D01*
X99150000Y-96996281D01*
X99182664Y-96832065D01*
X99246739Y-96677376D01*
X99299671Y-96598157D01*
X99339762Y-96538156D01*
X99458156Y-96419762D01*
X99597374Y-96326740D01*
X99597376Y-96326739D01*
X99752065Y-96262664D01*
X99916281Y-96230000D01*
X100083719Y-96230000D01*
X100247935Y-96262664D01*
G37*
G36*
X104600000Y-97500000D02*
G01*
X103700000Y-97500000D01*
X103700000Y-96700000D01*
X104600000Y-96700000D01*
X104600000Y-97500000D01*
G37*
G36*
X106400000Y-95950000D02*
G01*
X105600000Y-95950000D01*
X105600000Y-95050000D01*
X106400000Y-95050000D01*
X106400000Y-95950000D01*
G37*
G36*
X122747935Y-93782664D02*
G01*
X122902624Y-93846739D01*
X122902626Y-93846740D01*
X123041844Y-93939762D01*
X123160238Y-94058156D01*
X123253260Y-94197374D01*
X123253261Y-94197376D01*
X123317336Y-94352065D01*
X123350000Y-94516281D01*
X123350000Y-94683719D01*
X123317336Y-94847935D01*
X123278114Y-94942624D01*
X123253260Y-95002626D01*
X123160238Y-95141844D01*
X123041844Y-95260238D01*
X122902626Y-95353260D01*
X122902625Y-95353261D01*
X122902624Y-95353261D01*
X122747935Y-95417336D01*
X122583719Y-95450000D01*
X122416281Y-95450000D01*
X122252065Y-95417336D01*
X122097376Y-95353261D01*
X122097375Y-95353261D01*
X122097374Y-95353260D01*
X121958156Y-95260238D01*
X121839762Y-95141844D01*
X121746740Y-95002626D01*
X121721886Y-94942624D01*
X121682664Y-94847935D01*
X121650000Y-94683719D01*
X121650000Y-94516281D01*
X121682664Y-94352065D01*
X121746739Y-94197376D01*
X121746740Y-94197374D01*
X121839762Y-94058156D01*
X121958156Y-93939762D01*
X122097374Y-93846740D01*
X122097376Y-93846739D01*
X122252065Y-93782664D01*
X122416281Y-93750000D01*
X122583719Y-93750000D01*
X122747935Y-93782664D01*
G37*
G36*
X100247935Y-93722664D02*
G01*
X100402624Y-93786739D01*
X100402626Y-93786740D01*
X100541844Y-93879762D01*
X100660238Y-93998156D01*
X100700329Y-94058157D01*
X100753261Y-94137376D01*
X100817336Y-94292065D01*
X100850000Y-94456281D01*
X100850000Y-94623719D01*
X100817336Y-94787935D01*
X100792482Y-94847936D01*
X100753260Y-94942626D01*
X100660238Y-95081844D01*
X100541844Y-95200238D01*
X100402626Y-95293260D01*
X100402625Y-95293261D01*
X100402624Y-95293261D01*
X100247935Y-95357336D01*
X100083719Y-95390000D01*
X99916281Y-95390000D01*
X99752065Y-95357336D01*
X99597376Y-95293261D01*
X99597375Y-95293261D01*
X99597374Y-95293260D01*
X99458156Y-95200238D01*
X99339762Y-95081844D01*
X99246740Y-94942626D01*
X99207518Y-94847936D01*
X99182664Y-94787935D01*
X99150000Y-94623719D01*
X99150000Y-94456281D01*
X99182664Y-94292065D01*
X99246739Y-94137376D01*
X99299671Y-94058157D01*
X99339762Y-93998156D01*
X99458156Y-93879762D01*
X99597374Y-93786740D01*
X99597376Y-93786739D01*
X99752065Y-93722664D01*
X99916281Y-93690000D01*
X100083719Y-93690000D01*
X100247935Y-93722664D01*
G37*
G36*
X107350000Y-93950000D02*
G01*
X106550000Y-93950000D01*
X106550000Y-93050000D01*
X107350000Y-93050000D01*
X107350000Y-93950000D01*
G37*
G36*
X105450000Y-93950000D02*
G01*
X104650000Y-93950000D01*
X104650000Y-93050000D01*
X105450000Y-93050000D01*
X105450000Y-93950000D01*
G37*
G36*
X123350000Y-92910000D02*
G01*
X121650000Y-92910000D01*
X121650000Y-91210000D01*
X123350000Y-91210000D01*
X123350000Y-92910000D01*
G37*
G36*
X100850000Y-92850000D02*
G01*
X99150000Y-92850000D01*
X99150000Y-91150000D01*
X100850000Y-91150000D01*
X100850000Y-92850000D01*
G37*
G36*
X115810000Y-92850000D02*
G01*
X114110000Y-92850000D01*
X114110000Y-91150000D01*
X115810000Y-91150000D01*
X115810000Y-92850000D01*
G37*
G36*
X117747935Y-91182664D02*
G01*
X117902624Y-91246739D01*
X117902626Y-91246740D01*
X118041844Y-91339762D01*
X118160238Y-91458156D01*
X118253260Y-91597374D01*
X118253261Y-91597376D01*
X118317336Y-91752065D01*
X118350000Y-91916281D01*
X118350000Y-92083719D01*
X118317336Y-92247935D01*
X118253261Y-92402624D01*
X118253260Y-92402626D01*
X118160238Y-92541844D01*
X118041844Y-92660238D01*
X117902626Y-92753260D01*
X117902625Y-92753261D01*
X117902624Y-92753261D01*
X117747935Y-92817336D01*
X117583719Y-92850000D01*
X117416281Y-92850000D01*
X117252065Y-92817336D01*
X117097376Y-92753261D01*
X117097375Y-92753261D01*
X117097374Y-92753260D01*
X116958156Y-92660238D01*
X116839762Y-92541844D01*
X116746740Y-92402626D01*
X116746739Y-92402624D01*
X116682664Y-92247935D01*
X116650000Y-92083719D01*
X116650000Y-91916281D01*
X116682664Y-91752065D01*
X116746739Y-91597376D01*
X116746740Y-91597374D01*
X116839762Y-91458156D01*
X116958156Y-91339762D01*
X117097374Y-91246740D01*
X117097376Y-91246739D01*
X117252065Y-91182664D01*
X117416281Y-91150000D01*
X117583719Y-91150000D01*
X117747935Y-91182664D01*
G37*
G36*
X105741463Y-91932226D02*
G01*
X105757299Y-91937030D01*
X105771886Y-91944827D01*
X105784677Y-91955323D01*
X105795173Y-91968114D01*
X105802970Y-91982701D01*
X105807774Y-91998537D01*
X105810000Y-92021140D01*
X105810000Y-92478860D01*
X105807774Y-92501463D01*
X105802970Y-92517299D01*
X105795173Y-92531886D01*
X105784677Y-92544677D01*
X105771886Y-92555173D01*
X105757299Y-92562970D01*
X105741463Y-92567774D01*
X105718860Y-92570000D01*
X105311140Y-92570000D01*
X105288537Y-92567774D01*
X105272701Y-92562970D01*
X105258114Y-92555173D01*
X105245323Y-92544677D01*
X105234827Y-92531886D01*
X105227030Y-92517299D01*
X105222226Y-92501463D01*
X105220000Y-92478860D01*
X105220000Y-92021140D01*
X105222226Y-91998537D01*
X105227030Y-91982701D01*
X105234827Y-91968114D01*
X105245323Y-91955323D01*
X105258114Y-91944827D01*
X105272701Y-91937030D01*
X105288537Y-91932226D01*
X105311140Y-91930000D01*
X105718860Y-91930000D01*
X105741463Y-91932226D01*
G37*
G36*
X106711463Y-91932226D02*
G01*
X106727299Y-91937030D01*
X106741886Y-91944827D01*
X106754677Y-91955323D01*
X106765173Y-91968114D01*
X106772970Y-91982701D01*
X106777774Y-91998537D01*
X106780000Y-92021140D01*
X106780000Y-92478860D01*
X106777774Y-92501463D01*
X106772970Y-92517299D01*
X106765173Y-92531886D01*
X106754677Y-92544677D01*
X106741886Y-92555173D01*
X106727299Y-92562970D01*
X106711463Y-92567774D01*
X106688860Y-92570000D01*
X106281140Y-92570000D01*
X106258537Y-92567774D01*
X106242701Y-92562970D01*
X106228114Y-92555173D01*
X106215323Y-92544677D01*
X106204827Y-92531886D01*
X106197030Y-92517299D01*
X106192226Y-92501463D01*
X106190000Y-92478860D01*
X106190000Y-92021140D01*
X106192226Y-91998537D01*
X106197030Y-91982701D01*
X106204827Y-91968114D01*
X106215323Y-91955323D01*
X106228114Y-91944827D01*
X106242701Y-91937030D01*
X106258537Y-91932226D01*
X106281140Y-91930000D01*
X106688860Y-91930000D01*
X106711463Y-91932226D01*
G37*
M02*
