G04 #@! TF.GenerationSoftware,KiCad,Pcbnew,(5.1.5)-3*
G04 #@! TF.CreationDate,2020-07-22T22:43:47-05:00*
G04 #@! TF.ProjectId,LightDriverShieldVer2,4c696768-7444-4726-9976-657253686965,rev?*
G04 #@! TF.SameCoordinates,Original*
G04 #@! TF.FileFunction,Legend,Top*
G04 #@! TF.FilePolarity,Positive*
%FSLAX46Y46*%
G04 Gerber Fmt 4.6, Leading zero omitted, Abs format (unit mm)*
G04 Created by KiCad (PCBNEW (5.1.5)-3) date 2020-07-22 22:43:47*
%MOMM*%
%LPD*%
G04 APERTURE LIST*
%ADD10C,0.150000*%
%ADD11C,0.250000*%
%ADD12C,0.120000*%
%ADD13C,0.100000*%
G04 APERTURE END LIST*
D10*
X115001785Y-138671428D02*
X115001785Y-138528571D01*
X115037500Y-138457142D01*
X115108928Y-138385714D01*
X115251785Y-138350000D01*
X115501785Y-138350000D01*
X115644642Y-138385714D01*
X115716071Y-138457142D01*
X115751785Y-138528571D01*
X115751785Y-138671428D01*
X115716071Y-138742857D01*
X115644642Y-138814285D01*
X115501785Y-138850000D01*
X115251785Y-138850000D01*
X115108928Y-138814285D01*
X115037500Y-138742857D01*
X115001785Y-138671428D01*
X115251785Y-138028571D02*
X116001785Y-138028571D01*
X115287500Y-138028571D02*
X115251785Y-137957142D01*
X115251785Y-137814285D01*
X115287500Y-137742857D01*
X115323214Y-137707142D01*
X115394642Y-137671428D01*
X115608928Y-137671428D01*
X115680357Y-137707142D01*
X115716071Y-137742857D01*
X115751785Y-137814285D01*
X115751785Y-137957142D01*
X115716071Y-138028571D01*
X115716071Y-137064285D02*
X115751785Y-137135714D01*
X115751785Y-137278571D01*
X115716071Y-137350000D01*
X115644642Y-137385714D01*
X115358928Y-137385714D01*
X115287500Y-137350000D01*
X115251785Y-137278571D01*
X115251785Y-137135714D01*
X115287500Y-137064285D01*
X115358928Y-137028571D01*
X115430357Y-137028571D01*
X115501785Y-137385714D01*
X115251785Y-136707142D02*
X115751785Y-136707142D01*
X115323214Y-136707142D02*
X115287500Y-136671428D01*
X115251785Y-136600000D01*
X115251785Y-136492857D01*
X115287500Y-136421428D01*
X115358928Y-136385714D01*
X115751785Y-136385714D01*
X115751785Y-135457142D02*
X115001785Y-135457142D01*
X115001785Y-135278571D01*
X115037500Y-135171428D01*
X115108928Y-135100000D01*
X115180357Y-135064285D01*
X115323214Y-135028571D01*
X115430357Y-135028571D01*
X115573214Y-135064285D01*
X115644642Y-135100000D01*
X115716071Y-135171428D01*
X115751785Y-135278571D01*
X115751785Y-135457142D01*
X115751785Y-134707142D02*
X115251785Y-134707142D01*
X115394642Y-134707142D02*
X115323214Y-134671428D01*
X115287500Y-134635714D01*
X115251785Y-134564285D01*
X115251785Y-134492857D01*
X115751785Y-133921428D02*
X115358928Y-133921428D01*
X115287500Y-133957142D01*
X115251785Y-134028571D01*
X115251785Y-134171428D01*
X115287500Y-134242857D01*
X115716071Y-133921428D02*
X115751785Y-133992857D01*
X115751785Y-134171428D01*
X115716071Y-134242857D01*
X115644642Y-134278571D01*
X115573214Y-134278571D01*
X115501785Y-134242857D01*
X115466071Y-134171428D01*
X115466071Y-133992857D01*
X115430357Y-133921428D01*
X115751785Y-133564285D02*
X115251785Y-133564285D01*
X115001785Y-133564285D02*
X115037500Y-133600000D01*
X115073214Y-133564285D01*
X115037500Y-133528571D01*
X115001785Y-133564285D01*
X115073214Y-133564285D01*
X115251785Y-133207142D02*
X115751785Y-133207142D01*
X115323214Y-133207142D02*
X115287500Y-133171428D01*
X115251785Y-133100000D01*
X115251785Y-132992857D01*
X115287500Y-132921428D01*
X115358928Y-132885714D01*
X115751785Y-132885714D01*
X116955357Y-137957142D02*
X116991071Y-137992857D01*
X117026785Y-138100000D01*
X117026785Y-138171428D01*
X116991071Y-138278571D01*
X116919642Y-138350000D01*
X116848214Y-138385714D01*
X116705357Y-138421428D01*
X116598214Y-138421428D01*
X116455357Y-138385714D01*
X116383928Y-138350000D01*
X116312500Y-138278571D01*
X116276785Y-138171428D01*
X116276785Y-138100000D01*
X116312500Y-137992857D01*
X116348214Y-137957142D01*
X117026785Y-137635714D02*
X116276785Y-137635714D01*
X117026785Y-137314285D02*
X116633928Y-137314285D01*
X116562500Y-137350000D01*
X116526785Y-137421428D01*
X116526785Y-137528571D01*
X116562500Y-137600000D01*
X116598214Y-137635714D01*
X116276785Y-136814285D02*
X116276785Y-136742857D01*
X116312500Y-136671428D01*
X116348214Y-136635714D01*
X116419642Y-136600000D01*
X116562500Y-136564285D01*
X116741071Y-136564285D01*
X116883928Y-136600000D01*
X116955357Y-136635714D01*
X116991071Y-136671428D01*
X117026785Y-136742857D01*
X117026785Y-136814285D01*
X116991071Y-136885714D01*
X116955357Y-136921428D01*
X116883928Y-136957142D01*
X116741071Y-136992857D01*
X116562500Y-136992857D01*
X116419642Y-136957142D01*
X116348214Y-136921428D01*
X116312500Y-136885714D01*
X116276785Y-136814285D01*
X116991071Y-136207142D02*
X117026785Y-136207142D01*
X117098214Y-136242857D01*
X117133928Y-136278571D01*
X117026785Y-134921428D02*
X117026785Y-135350000D01*
X117026785Y-135135714D02*
X116276785Y-135135714D01*
X116383928Y-135207142D01*
X116455357Y-135278571D01*
X116491071Y-135350000D01*
X116991071Y-134564285D02*
X117026785Y-134564285D01*
X117098214Y-134600000D01*
X117133928Y-134635714D01*
X116348214Y-133707142D02*
X116312500Y-133671428D01*
X116276785Y-133600000D01*
X116276785Y-133421428D01*
X116312500Y-133350000D01*
X116348214Y-133314285D01*
X116419642Y-133278571D01*
X116491071Y-133278571D01*
X116598214Y-133314285D01*
X117026785Y-133742857D01*
X117026785Y-133278571D01*
X103289285Y-136900000D02*
X102539285Y-136900000D01*
X102539285Y-136614285D01*
X102575000Y-136542857D01*
X102610714Y-136507142D01*
X102682142Y-136471428D01*
X102789285Y-136471428D01*
X102860714Y-136507142D01*
X102896428Y-136542857D01*
X102932142Y-136614285D01*
X102932142Y-136900000D01*
X102539285Y-136221428D02*
X103289285Y-136042857D01*
X102753571Y-135900000D01*
X103289285Y-135757142D01*
X102539285Y-135578571D01*
X103289285Y-134864285D02*
X102932142Y-135114285D01*
X103289285Y-135292857D02*
X102539285Y-135292857D01*
X102539285Y-135007142D01*
X102575000Y-134935714D01*
X102610714Y-134900000D01*
X102682142Y-134864285D01*
X102789285Y-134864285D01*
X102860714Y-134900000D01*
X102896428Y-134935714D01*
X102932142Y-135007142D01*
X102932142Y-135292857D01*
X114878571Y-98214404D02*
X114878571Y-97881071D01*
X115402380Y-97738214D02*
X115402380Y-98214404D01*
X114402380Y-98214404D01*
X114402380Y-97738214D01*
X114402380Y-97404880D02*
X115402380Y-96738214D01*
X114402380Y-96738214D02*
X115402380Y-97404880D01*
X114402380Y-96500119D02*
X114402380Y-95928690D01*
X115402380Y-96214404D02*
X114402380Y-96214404D01*
X114402380Y-95738214D02*
X115402380Y-95404880D01*
X114402380Y-95071547D01*
X115021428Y-94738214D02*
X115021428Y-93976309D01*
X115402380Y-94357261D02*
X114640476Y-94357261D01*
X117000000Y-95990595D02*
X116952380Y-96085833D01*
X116952380Y-96228690D01*
X117000000Y-96371547D01*
X117095238Y-96466785D01*
X117190476Y-96514404D01*
X117380952Y-96562023D01*
X117523809Y-96562023D01*
X117714285Y-96514404D01*
X117809523Y-96466785D01*
X117904761Y-96371547D01*
X117952380Y-96228690D01*
X117952380Y-96133452D01*
X117904761Y-95990595D01*
X117857142Y-95942976D01*
X117523809Y-95942976D01*
X117523809Y-96133452D01*
X117952380Y-95514404D02*
X116952380Y-95514404D01*
X117952380Y-94942976D01*
X116952380Y-94942976D01*
X117952380Y-94466785D02*
X116952380Y-94466785D01*
X116952380Y-94228690D01*
X117000000Y-94085833D01*
X117095238Y-93990595D01*
X117190476Y-93942976D01*
X117380952Y-93895357D01*
X117523809Y-93895357D01*
X117714285Y-93942976D01*
X117809523Y-93990595D01*
X117904761Y-94085833D01*
X117952380Y-94228690D01*
X117952380Y-94466785D01*
D11*
X100185714Y-126452380D02*
X99614285Y-126452380D01*
X99900000Y-126452380D02*
X99900000Y-125452380D01*
X99804761Y-125595238D01*
X99709523Y-125690476D01*
X99614285Y-125738095D01*
X99752380Y-127902380D02*
X99847619Y-127902380D01*
X99942857Y-127950000D01*
X99990476Y-127997619D01*
X100038095Y-128092857D01*
X100085714Y-128283333D01*
X100085714Y-128521428D01*
X100038095Y-128711904D01*
X99990476Y-128807142D01*
X99942857Y-128854761D01*
X99847619Y-128902380D01*
X99752380Y-128902380D01*
X99657142Y-128854761D01*
X99609523Y-128807142D01*
X99561904Y-128711904D01*
X99514285Y-128521428D01*
X99514285Y-128283333D01*
X99561904Y-128092857D01*
X99609523Y-127997619D01*
X99657142Y-127950000D01*
X99752380Y-127902380D01*
D12*
X115810000Y-109380000D02*
X114350000Y-109380000D01*
X115810000Y-106220000D02*
X113650000Y-106220000D01*
X115810000Y-106220000D02*
X115810000Y-107150000D01*
X115810000Y-109380000D02*
X115810000Y-108450000D01*
X102390000Y-96470000D02*
X103850000Y-96470000D01*
X102390000Y-99630000D02*
X104550000Y-99630000D01*
X102390000Y-99630000D02*
X102390000Y-98700000D01*
X102390000Y-96470000D02*
X102390000Y-97400000D01*
X111410000Y-109280000D02*
X109950000Y-109280000D01*
X111410000Y-106120000D02*
X109250000Y-106120000D01*
X111410000Y-106120000D02*
X111410000Y-107050000D01*
X111410000Y-109280000D02*
X111410000Y-108350000D01*
X106860000Y-109380000D02*
X105400000Y-109380000D01*
X106860000Y-106220000D02*
X104700000Y-106220000D01*
X106860000Y-106220000D02*
X106860000Y-107150000D01*
X106860000Y-109380000D02*
X106860000Y-108450000D01*
D10*
X105225000Y-116325000D02*
X105225000Y-117675000D01*
X108375000Y-116325000D02*
X108375000Y-111675000D01*
X105125000Y-116325000D02*
X105125000Y-111675000D01*
X108375000Y-116325000D02*
X108175000Y-116325000D01*
X108375000Y-111675000D02*
X108175000Y-111675000D01*
X105125000Y-111675000D02*
X105325000Y-111675000D01*
X105125000Y-116325000D02*
X105225000Y-116325000D01*
X114225000Y-116325000D02*
X114225000Y-117675000D01*
X117375000Y-116325000D02*
X117375000Y-111675000D01*
X114125000Y-116325000D02*
X114125000Y-111675000D01*
X117375000Y-116325000D02*
X117175000Y-116325000D01*
X117375000Y-111675000D02*
X117175000Y-111675000D01*
X114125000Y-111675000D02*
X114325000Y-111675000D01*
X114125000Y-116325000D02*
X114225000Y-116325000D01*
X109725000Y-116325000D02*
X109725000Y-117675000D01*
X112875000Y-116325000D02*
X112875000Y-111675000D01*
X109625000Y-116325000D02*
X109625000Y-111675000D01*
X112875000Y-116325000D02*
X112675000Y-116325000D01*
X112875000Y-111675000D02*
X112675000Y-111675000D01*
X109625000Y-111675000D02*
X109825000Y-111675000D01*
X109625000Y-116325000D02*
X109725000Y-116325000D01*
D12*
X113630000Y-93330000D02*
X113630000Y-92000000D01*
X114960000Y-93330000D02*
X113630000Y-93330000D01*
X116230000Y-93330000D02*
X116230000Y-90670000D01*
X116230000Y-90670000D02*
X118830000Y-90670000D01*
X116230000Y-93330000D02*
X118830000Y-93330000D01*
X118830000Y-93330000D02*
X118830000Y-90670000D01*
X118730000Y-123976000D02*
X118730000Y-123976000D01*
X118730000Y-134644000D02*
X118730000Y-123976000D01*
X118400000Y-123400000D02*
X118400000Y-123400000D01*
X118400000Y-138850000D02*
X118400000Y-123400000D01*
X147600000Y-138850000D02*
X118400000Y-138850000D01*
X147600000Y-123400000D02*
X147600000Y-138850000D01*
X118400000Y-123400000D02*
X147600000Y-123400000D01*
X118984000Y-126770000D02*
X118984000Y-126770000D01*
X121270000Y-126770000D02*
X118984000Y-126770000D01*
X121270000Y-124484000D02*
X121270000Y-126770000D01*
X118730000Y-134644000D02*
X118730000Y-134644000D01*
X124064000Y-134644000D02*
X118730000Y-134644000D01*
X124064000Y-123976000D02*
X124064000Y-134644000D01*
X118730000Y-123976000D02*
X124064000Y-123976000D01*
X114765000Y-127793333D02*
X116035000Y-127793333D01*
X115965000Y-129000000D02*
X115965000Y-127793333D01*
X115845000Y-129000000D02*
X115845000Y-127793333D01*
X115725000Y-129000000D02*
X115725000Y-127793333D01*
X115605000Y-129000000D02*
X115605000Y-127793333D01*
X115485000Y-129000000D02*
X115485000Y-127793333D01*
X115365000Y-129000000D02*
X115365000Y-127793333D01*
X115245000Y-129000000D02*
X115245000Y-127793333D01*
X115125000Y-129000000D02*
X115125000Y-127793333D01*
X115005000Y-129000000D02*
X115005000Y-127793333D01*
X114885000Y-129000000D02*
X114885000Y-127793333D01*
X114765000Y-125380000D02*
X114765000Y-129000000D01*
X116035000Y-125380000D02*
X114765000Y-125380000D01*
X116035000Y-129000000D02*
X116035000Y-125380000D01*
X114765000Y-129000000D02*
X116035000Y-129000000D01*
X112225000Y-127793333D02*
X113495000Y-127793333D01*
X113425000Y-129000000D02*
X113425000Y-127793333D01*
X113305000Y-129000000D02*
X113305000Y-127793333D01*
X113185000Y-129000000D02*
X113185000Y-127793333D01*
X113065000Y-129000000D02*
X113065000Y-127793333D01*
X112945000Y-129000000D02*
X112945000Y-127793333D01*
X112825000Y-129000000D02*
X112825000Y-127793333D01*
X112705000Y-129000000D02*
X112705000Y-127793333D01*
X112585000Y-129000000D02*
X112585000Y-127793333D01*
X112465000Y-129000000D02*
X112465000Y-127793333D01*
X112345000Y-129000000D02*
X112345000Y-127793333D01*
X112225000Y-125380000D02*
X112225000Y-129000000D01*
X113495000Y-125380000D02*
X112225000Y-125380000D01*
X113495000Y-129000000D02*
X113495000Y-125380000D01*
X112225000Y-129000000D02*
X113495000Y-129000000D01*
X109685000Y-127793333D02*
X110955000Y-127793333D01*
X110885000Y-129000000D02*
X110885000Y-127793333D01*
X110765000Y-129000000D02*
X110765000Y-127793333D01*
X110645000Y-129000000D02*
X110645000Y-127793333D01*
X110525000Y-129000000D02*
X110525000Y-127793333D01*
X110405000Y-129000000D02*
X110405000Y-127793333D01*
X110285000Y-129000000D02*
X110285000Y-127793333D01*
X110165000Y-129000000D02*
X110165000Y-127793333D01*
X110045000Y-129000000D02*
X110045000Y-127793333D01*
X109925000Y-129000000D02*
X109925000Y-127793333D01*
X109805000Y-129000000D02*
X109805000Y-127793333D01*
X109685000Y-125380000D02*
X109685000Y-129000000D01*
X110955000Y-125380000D02*
X109685000Y-125380000D01*
X110955000Y-129000000D02*
X110955000Y-125380000D01*
X109685000Y-129000000D02*
X110955000Y-129000000D01*
X107145000Y-127793333D02*
X108415000Y-127793333D01*
X108345000Y-129000000D02*
X108345000Y-127793333D01*
X108225000Y-129000000D02*
X108225000Y-127793333D01*
X108105000Y-129000000D02*
X108105000Y-127793333D01*
X107985000Y-129000000D02*
X107985000Y-127793333D01*
X107865000Y-129000000D02*
X107865000Y-127793333D01*
X107745000Y-129000000D02*
X107745000Y-127793333D01*
X107625000Y-129000000D02*
X107625000Y-127793333D01*
X107505000Y-129000000D02*
X107505000Y-127793333D01*
X107385000Y-129000000D02*
X107385000Y-127793333D01*
X107265000Y-129000000D02*
X107265000Y-127793333D01*
X107145000Y-125380000D02*
X107145000Y-129000000D01*
X108415000Y-125380000D02*
X107145000Y-125380000D01*
X108415000Y-129000000D02*
X108415000Y-125380000D01*
X107145000Y-129000000D02*
X108415000Y-129000000D01*
X104605000Y-127793333D02*
X105875000Y-127793333D01*
X105805000Y-129000000D02*
X105805000Y-127793333D01*
X105685000Y-129000000D02*
X105685000Y-127793333D01*
X105565000Y-129000000D02*
X105565000Y-127793333D01*
X105445000Y-129000000D02*
X105445000Y-127793333D01*
X105325000Y-129000000D02*
X105325000Y-127793333D01*
X105205000Y-129000000D02*
X105205000Y-127793333D01*
X105085000Y-129000000D02*
X105085000Y-127793333D01*
X104965000Y-129000000D02*
X104965000Y-127793333D01*
X104845000Y-129000000D02*
X104845000Y-127793333D01*
X104725000Y-129000000D02*
X104725000Y-127793333D01*
X104605000Y-125380000D02*
X104605000Y-129000000D01*
X105875000Y-125380000D02*
X104605000Y-125380000D01*
X105875000Y-129000000D02*
X105875000Y-125380000D01*
X104605000Y-129000000D02*
X105875000Y-129000000D01*
X102065000Y-127793333D02*
X103335000Y-127793333D01*
X103265000Y-129000000D02*
X103265000Y-127793333D01*
X103145000Y-129000000D02*
X103145000Y-127793333D01*
X103025000Y-129000000D02*
X103025000Y-127793333D01*
X102905000Y-129000000D02*
X102905000Y-127793333D01*
X102785000Y-129000000D02*
X102785000Y-127793333D01*
X102665000Y-129000000D02*
X102665000Y-127793333D01*
X102545000Y-129000000D02*
X102545000Y-127793333D01*
X102425000Y-129000000D02*
X102425000Y-127793333D01*
X102305000Y-129000000D02*
X102305000Y-127793333D01*
X102185000Y-129000000D02*
X102185000Y-127793333D01*
X102065000Y-125380000D02*
X102065000Y-129000000D01*
X103335000Y-125380000D02*
X102065000Y-125380000D01*
X103335000Y-129000000D02*
X103335000Y-125380000D01*
X102065000Y-129000000D02*
X103335000Y-129000000D01*
X100350000Y-130840000D02*
X101660000Y-130840000D01*
X100350000Y-130840000D02*
X100350000Y-129457000D01*
X103690000Y-123779000D02*
X104251000Y-123779000D01*
X100590000Y-123779000D02*
X101710000Y-123779000D01*
X106230000Y-123779000D02*
X106791000Y-123779000D01*
X108770000Y-123779000D02*
X109331000Y-123779000D01*
X111310000Y-123779000D02*
X111870000Y-123779000D01*
X113850000Y-123779000D02*
X114410000Y-123779000D01*
X116390000Y-123779000D02*
X117511000Y-123779000D01*
X116390000Y-130600000D02*
X117511000Y-130600000D01*
X113850000Y-130600000D02*
X114410000Y-130600000D01*
X111310000Y-130600000D02*
X111870000Y-130600000D01*
X108770000Y-130600000D02*
X109331000Y-130600000D01*
X106230000Y-130600000D02*
X106791000Y-130600000D01*
X103740000Y-130600000D02*
X104251000Y-130600000D01*
X100590000Y-130600000D02*
X101660000Y-130600000D01*
X117511000Y-130600000D02*
X117511000Y-123779000D01*
X100590000Y-130600000D02*
X100590000Y-123779000D01*
X104420000Y-95260000D02*
X104420000Y-93800000D01*
X107580000Y-95260000D02*
X107580000Y-93100000D01*
X107580000Y-95260000D02*
X106650000Y-95260000D01*
X104420000Y-95260000D02*
X105350000Y-95260000D01*
X103510000Y-139410000D02*
X103910000Y-139410000D01*
X103510000Y-138770000D02*
X103510000Y-139410000D01*
X114611000Y-132430000D02*
X114611000Y-139170000D01*
X103750000Y-132430000D02*
X103750000Y-139170000D01*
X103750000Y-139170000D02*
X114611000Y-139170000D01*
X103750000Y-132430000D02*
X114611000Y-132430000D01*
X103750000Y-133550000D02*
X114611000Y-133550000D01*
X103750000Y-138650000D02*
X114611000Y-138650000D01*
X103590000Y-120000000D02*
X103590000Y-118670000D01*
X103590000Y-118670000D02*
X104920000Y-118670000D01*
X106190000Y-118670000D02*
X118950000Y-118670000D01*
X118950000Y-121330000D02*
X118950000Y-118670000D01*
X106190000Y-121330000D02*
X118950000Y-121330000D01*
X106190000Y-121330000D02*
X106190000Y-118670000D01*
X122500000Y-90730000D02*
X123830000Y-90730000D01*
X123830000Y-90730000D02*
X123830000Y-92060000D01*
X123830000Y-93330000D02*
X123830000Y-121330000D01*
X121170000Y-121330000D02*
X123830000Y-121330000D01*
X121170000Y-93330000D02*
X121170000Y-121330000D01*
X121170000Y-93330000D02*
X123830000Y-93330000D01*
X100000000Y-90670000D02*
X101330000Y-90670000D01*
X101330000Y-90670000D02*
X101330000Y-92000000D01*
X101330000Y-93270000D02*
X101330000Y-121270000D01*
X98670000Y-121270000D02*
X101330000Y-121270000D01*
X98670000Y-93270000D02*
X98670000Y-121270000D01*
X98670000Y-93270000D02*
X101330000Y-93270000D01*
D13*
X116552380Y-106923809D02*
X116504761Y-106900000D01*
X116457142Y-106852380D01*
X116385714Y-106780952D01*
X116338095Y-106757142D01*
X116290476Y-106757142D01*
X116314285Y-106876190D02*
X116266666Y-106852380D01*
X116219047Y-106804761D01*
X116195238Y-106709523D01*
X116195238Y-106542857D01*
X116219047Y-106447619D01*
X116266666Y-106400000D01*
X116314285Y-106376190D01*
X116409523Y-106376190D01*
X116457142Y-106400000D01*
X116504761Y-106447619D01*
X116528571Y-106542857D01*
X116528571Y-106709523D01*
X116504761Y-106804761D01*
X116457142Y-106852380D01*
X116409523Y-106876190D01*
X116314285Y-106876190D01*
X116980952Y-106376190D02*
X116742857Y-106376190D01*
X116719047Y-106614285D01*
X116742857Y-106590476D01*
X116790476Y-106566666D01*
X116909523Y-106566666D01*
X116957142Y-106590476D01*
X116980952Y-106614285D01*
X117004761Y-106661904D01*
X117004761Y-106780952D01*
X116980952Y-106828571D01*
X116957142Y-106852380D01*
X116909523Y-106876190D01*
X116790476Y-106876190D01*
X116742857Y-106852380D01*
X116719047Y-106828571D01*
X102152380Y-96273809D02*
X102104761Y-96250000D01*
X102057142Y-96202380D01*
X101985714Y-96130952D01*
X101938095Y-96107142D01*
X101890476Y-96107142D01*
X101914285Y-96226190D02*
X101866666Y-96202380D01*
X101819047Y-96154761D01*
X101795238Y-96059523D01*
X101795238Y-95892857D01*
X101819047Y-95797619D01*
X101866666Y-95750000D01*
X101914285Y-95726190D01*
X102009523Y-95726190D01*
X102057142Y-95750000D01*
X102104761Y-95797619D01*
X102128571Y-95892857D01*
X102128571Y-96059523D01*
X102104761Y-96154761D01*
X102057142Y-96202380D01*
X102009523Y-96226190D01*
X101914285Y-96226190D01*
X102557142Y-95892857D02*
X102557142Y-96226190D01*
X102438095Y-95702380D02*
X102319047Y-96059523D01*
X102628571Y-96059523D01*
X112102380Y-106873809D02*
X112054761Y-106850000D01*
X112007142Y-106802380D01*
X111935714Y-106730952D01*
X111888095Y-106707142D01*
X111840476Y-106707142D01*
X111864285Y-106826190D02*
X111816666Y-106802380D01*
X111769047Y-106754761D01*
X111745238Y-106659523D01*
X111745238Y-106492857D01*
X111769047Y-106397619D01*
X111816666Y-106350000D01*
X111864285Y-106326190D01*
X111959523Y-106326190D01*
X112007142Y-106350000D01*
X112054761Y-106397619D01*
X112078571Y-106492857D01*
X112078571Y-106659523D01*
X112054761Y-106754761D01*
X112007142Y-106802380D01*
X111959523Y-106826190D01*
X111864285Y-106826190D01*
X112245238Y-106326190D02*
X112554761Y-106326190D01*
X112388095Y-106516666D01*
X112459523Y-106516666D01*
X112507142Y-106540476D01*
X112530952Y-106564285D01*
X112554761Y-106611904D01*
X112554761Y-106730952D01*
X112530952Y-106778571D01*
X112507142Y-106802380D01*
X112459523Y-106826190D01*
X112316666Y-106826190D01*
X112269047Y-106802380D01*
X112245238Y-106778571D01*
X107452380Y-106923809D02*
X107404761Y-106900000D01*
X107357142Y-106852380D01*
X107285714Y-106780952D01*
X107238095Y-106757142D01*
X107190476Y-106757142D01*
X107214285Y-106876190D02*
X107166666Y-106852380D01*
X107119047Y-106804761D01*
X107095238Y-106709523D01*
X107095238Y-106542857D01*
X107119047Y-106447619D01*
X107166666Y-106400000D01*
X107214285Y-106376190D01*
X107309523Y-106376190D01*
X107357142Y-106400000D01*
X107404761Y-106447619D01*
X107428571Y-106542857D01*
X107428571Y-106709523D01*
X107404761Y-106804761D01*
X107357142Y-106852380D01*
X107309523Y-106876190D01*
X107214285Y-106876190D01*
X107904761Y-106876190D02*
X107619047Y-106876190D01*
X107761904Y-106876190D02*
X107761904Y-106376190D01*
X107714285Y-106447619D01*
X107666666Y-106495238D01*
X107619047Y-106519047D01*
D10*
X105988095Y-113452380D02*
X105988095Y-114261904D01*
X106035714Y-114357142D01*
X106083333Y-114404761D01*
X106178571Y-114452380D01*
X106369047Y-114452380D01*
X106464285Y-114404761D01*
X106511904Y-114357142D01*
X106559523Y-114261904D01*
X106559523Y-113452380D01*
X107559523Y-114452380D02*
X106988095Y-114452380D01*
X107273809Y-114452380D02*
X107273809Y-113452380D01*
X107178571Y-113595238D01*
X107083333Y-113690476D01*
X106988095Y-113738095D01*
X114788095Y-113452380D02*
X114788095Y-114261904D01*
X114835714Y-114357142D01*
X114883333Y-114404761D01*
X114978571Y-114452380D01*
X115169047Y-114452380D01*
X115264285Y-114404761D01*
X115311904Y-114357142D01*
X115359523Y-114261904D01*
X115359523Y-113452380D01*
X115740476Y-113452380D02*
X116359523Y-113452380D01*
X116026190Y-113833333D01*
X116169047Y-113833333D01*
X116264285Y-113880952D01*
X116311904Y-113928571D01*
X116359523Y-114023809D01*
X116359523Y-114261904D01*
X116311904Y-114357142D01*
X116264285Y-114404761D01*
X116169047Y-114452380D01*
X115883333Y-114452380D01*
X115788095Y-114404761D01*
X115740476Y-114357142D01*
X110388095Y-113352380D02*
X110388095Y-114161904D01*
X110435714Y-114257142D01*
X110483333Y-114304761D01*
X110578571Y-114352380D01*
X110769047Y-114352380D01*
X110864285Y-114304761D01*
X110911904Y-114257142D01*
X110959523Y-114161904D01*
X110959523Y-113352380D01*
X111388095Y-113447619D02*
X111435714Y-113400000D01*
X111530952Y-113352380D01*
X111769047Y-113352380D01*
X111864285Y-113400000D01*
X111911904Y-113447619D01*
X111959523Y-113542857D01*
X111959523Y-113638095D01*
X111911904Y-113780952D01*
X111340476Y-114352380D01*
X111959523Y-114352380D01*
D13*
X118176190Y-104333333D02*
X117938095Y-104500000D01*
X118176190Y-104619047D02*
X117676190Y-104619047D01*
X117676190Y-104428571D01*
X117700000Y-104380952D01*
X117723809Y-104357142D01*
X117771428Y-104333333D01*
X117842857Y-104333333D01*
X117890476Y-104357142D01*
X117914285Y-104380952D01*
X117938095Y-104428571D01*
X117938095Y-104619047D01*
X117890476Y-104047619D02*
X117866666Y-104095238D01*
X117842857Y-104119047D01*
X117795238Y-104142857D01*
X117771428Y-104142857D01*
X117723809Y-104119047D01*
X117700000Y-104095238D01*
X117676190Y-104047619D01*
X117676190Y-103952380D01*
X117700000Y-103904761D01*
X117723809Y-103880952D01*
X117771428Y-103857142D01*
X117795238Y-103857142D01*
X117842857Y-103880952D01*
X117866666Y-103904761D01*
X117890476Y-103952380D01*
X117890476Y-104047619D01*
X117914285Y-104095238D01*
X117938095Y-104119047D01*
X117985714Y-104142857D01*
X118080952Y-104142857D01*
X118128571Y-104119047D01*
X118152380Y-104095238D01*
X118176190Y-104047619D01*
X118176190Y-103952380D01*
X118152380Y-103904761D01*
X118128571Y-103880952D01*
X118080952Y-103857142D01*
X117985714Y-103857142D01*
X117938095Y-103880952D01*
X117914285Y-103904761D01*
X117890476Y-103952380D01*
X113116666Y-105776190D02*
X112950000Y-105538095D01*
X112830952Y-105776190D02*
X112830952Y-105276190D01*
X113021428Y-105276190D01*
X113069047Y-105300000D01*
X113092857Y-105323809D01*
X113116666Y-105371428D01*
X113116666Y-105442857D01*
X113092857Y-105490476D01*
X113069047Y-105514285D01*
X113021428Y-105538095D01*
X112830952Y-105538095D01*
X113283333Y-105276190D02*
X113616666Y-105276190D01*
X113402380Y-105776190D01*
X113676190Y-104333333D02*
X113438095Y-104500000D01*
X113676190Y-104619047D02*
X113176190Y-104619047D01*
X113176190Y-104428571D01*
X113200000Y-104380952D01*
X113223809Y-104357142D01*
X113271428Y-104333333D01*
X113342857Y-104333333D01*
X113390476Y-104357142D01*
X113414285Y-104380952D01*
X113438095Y-104428571D01*
X113438095Y-104619047D01*
X113176190Y-103904761D02*
X113176190Y-104000000D01*
X113200000Y-104047619D01*
X113223809Y-104071428D01*
X113295238Y-104119047D01*
X113390476Y-104142857D01*
X113580952Y-104142857D01*
X113628571Y-104119047D01*
X113652380Y-104095238D01*
X113676190Y-104047619D01*
X113676190Y-103952380D01*
X113652380Y-103904761D01*
X113628571Y-103880952D01*
X113580952Y-103857142D01*
X113461904Y-103857142D01*
X113414285Y-103880952D01*
X113390476Y-103904761D01*
X113366666Y-103952380D01*
X113366666Y-104047619D01*
X113390476Y-104095238D01*
X113414285Y-104119047D01*
X113461904Y-104142857D01*
X109176190Y-104333333D02*
X108938095Y-104500000D01*
X109176190Y-104619047D02*
X108676190Y-104619047D01*
X108676190Y-104428571D01*
X108700000Y-104380952D01*
X108723809Y-104357142D01*
X108771428Y-104333333D01*
X108842857Y-104333333D01*
X108890476Y-104357142D01*
X108914285Y-104380952D01*
X108938095Y-104428571D01*
X108938095Y-104619047D01*
X108676190Y-103880952D02*
X108676190Y-104119047D01*
X108914285Y-104142857D01*
X108890476Y-104119047D01*
X108866666Y-104071428D01*
X108866666Y-103952380D01*
X108890476Y-103904761D01*
X108914285Y-103880952D01*
X108961904Y-103857142D01*
X109080952Y-103857142D01*
X109128571Y-103880952D01*
X109152380Y-103904761D01*
X109176190Y-103952380D01*
X109176190Y-104071428D01*
X109152380Y-104119047D01*
X109128571Y-104142857D01*
X108766666Y-105776190D02*
X108600000Y-105538095D01*
X108480952Y-105776190D02*
X108480952Y-105276190D01*
X108671428Y-105276190D01*
X108719047Y-105300000D01*
X108742857Y-105323809D01*
X108766666Y-105371428D01*
X108766666Y-105442857D01*
X108742857Y-105490476D01*
X108719047Y-105514285D01*
X108671428Y-105538095D01*
X108480952Y-105538095D01*
X109195238Y-105442857D02*
X109195238Y-105776190D01*
X109076190Y-105252380D02*
X108957142Y-105609523D01*
X109266666Y-105609523D01*
X104216666Y-105776190D02*
X104050000Y-105538095D01*
X103930952Y-105776190D02*
X103930952Y-105276190D01*
X104121428Y-105276190D01*
X104169047Y-105300000D01*
X104192857Y-105323809D01*
X104216666Y-105371428D01*
X104216666Y-105442857D01*
X104192857Y-105490476D01*
X104169047Y-105514285D01*
X104121428Y-105538095D01*
X103930952Y-105538095D01*
X104383333Y-105276190D02*
X104692857Y-105276190D01*
X104526190Y-105466666D01*
X104597619Y-105466666D01*
X104645238Y-105490476D01*
X104669047Y-105514285D01*
X104692857Y-105561904D01*
X104692857Y-105680952D01*
X104669047Y-105728571D01*
X104645238Y-105752380D01*
X104597619Y-105776190D01*
X104454761Y-105776190D01*
X104407142Y-105752380D01*
X104383333Y-105728571D01*
D10*
X112296666Y-91452380D02*
X112296666Y-92166666D01*
X112249047Y-92309523D01*
X112153809Y-92404761D01*
X112010952Y-92452380D01*
X111915714Y-92452380D01*
X113249047Y-91452380D02*
X112772857Y-91452380D01*
X112725238Y-91928571D01*
X112772857Y-91880952D01*
X112868095Y-91833333D01*
X113106190Y-91833333D01*
X113201428Y-91880952D01*
X113249047Y-91928571D01*
X113296666Y-92023809D01*
X113296666Y-92261904D01*
X113249047Y-92357142D01*
X113201428Y-92404761D01*
X113106190Y-92452380D01*
X112868095Y-92452380D01*
X112772857Y-92404761D01*
X112725238Y-92357142D01*
X120488095Y-135002380D02*
X120488095Y-135811904D01*
X120535714Y-135907142D01*
X120583333Y-135954761D01*
X120678571Y-136002380D01*
X120869047Y-136002380D01*
X120964285Y-135954761D01*
X121011904Y-135907142D01*
X121059523Y-135811904D01*
X121059523Y-135002380D01*
X121964285Y-135335714D02*
X121964285Y-136002380D01*
X121726190Y-134954761D02*
X121488095Y-135669047D01*
X122107142Y-135669047D01*
X100766666Y-125304761D02*
X100909523Y-125352380D01*
X101147619Y-125352380D01*
X101242857Y-125304761D01*
X101290476Y-125257142D01*
X101338095Y-125161904D01*
X101338095Y-125066666D01*
X101290476Y-124971428D01*
X101242857Y-124923809D01*
X101147619Y-124876190D01*
X100957142Y-124828571D01*
X100861904Y-124780952D01*
X100814285Y-124733333D01*
X100766666Y-124638095D01*
X100766666Y-124542857D01*
X100814285Y-124447619D01*
X100861904Y-124400000D01*
X100957142Y-124352380D01*
X101195238Y-124352380D01*
X101338095Y-124400000D01*
X101671428Y-124352380D02*
X101909523Y-125352380D01*
X102100000Y-124638095D01*
X102290476Y-125352380D01*
X102528571Y-124352380D01*
X103433333Y-125352380D02*
X102861904Y-125352380D01*
X103147619Y-125352380D02*
X103147619Y-124352380D01*
X103052380Y-124495238D01*
X102957142Y-124590476D01*
X102861904Y-124638095D01*
D13*
X105916666Y-91576190D02*
X105750000Y-91338095D01*
X105630952Y-91576190D02*
X105630952Y-91076190D01*
X105821428Y-91076190D01*
X105869047Y-91100000D01*
X105892857Y-91123809D01*
X105916666Y-91171428D01*
X105916666Y-91242857D01*
X105892857Y-91290476D01*
X105869047Y-91314285D01*
X105821428Y-91338095D01*
X105630952Y-91338095D01*
X106107142Y-91123809D02*
X106130952Y-91100000D01*
X106178571Y-91076190D01*
X106297619Y-91076190D01*
X106345238Y-91100000D01*
X106369047Y-91123809D01*
X106392857Y-91171428D01*
X106392857Y-91219047D01*
X106369047Y-91290476D01*
X106083333Y-91576190D01*
X106392857Y-91576190D01*
X102066666Y-100676190D02*
X101900000Y-100438095D01*
X101780952Y-100676190D02*
X101780952Y-100176190D01*
X101971428Y-100176190D01*
X102019047Y-100200000D01*
X102042857Y-100223809D01*
X102066666Y-100271428D01*
X102066666Y-100342857D01*
X102042857Y-100390476D01*
X102019047Y-100414285D01*
X101971428Y-100438095D01*
X101780952Y-100438095D01*
X102542857Y-100676190D02*
X102257142Y-100676190D01*
X102400000Y-100676190D02*
X102400000Y-100176190D01*
X102352380Y-100247619D01*
X102304761Y-100295238D01*
X102257142Y-100319047D01*
X103773809Y-94297619D02*
X103750000Y-94345238D01*
X103702380Y-94392857D01*
X103630952Y-94464285D01*
X103607142Y-94511904D01*
X103607142Y-94559523D01*
X103726190Y-94535714D02*
X103702380Y-94583333D01*
X103654761Y-94630952D01*
X103559523Y-94654761D01*
X103392857Y-94654761D01*
X103297619Y-94630952D01*
X103250000Y-94583333D01*
X103226190Y-94535714D01*
X103226190Y-94440476D01*
X103250000Y-94392857D01*
X103297619Y-94345238D01*
X103392857Y-94321428D01*
X103559523Y-94321428D01*
X103654761Y-94345238D01*
X103702380Y-94392857D01*
X103726190Y-94440476D01*
X103726190Y-94535714D01*
X103273809Y-94130952D02*
X103250000Y-94107142D01*
X103226190Y-94059523D01*
X103226190Y-93940476D01*
X103250000Y-93892857D01*
X103273809Y-93869047D01*
X103321428Y-93845238D01*
X103369047Y-93845238D01*
X103440476Y-93869047D01*
X103726190Y-94154761D01*
X103726190Y-93845238D01*
D10*
X108736666Y-137252380D02*
X108736666Y-137966666D01*
X108689047Y-138109523D01*
X108593809Y-138204761D01*
X108450952Y-138252380D01*
X108355714Y-138252380D01*
X109641428Y-137585714D02*
X109641428Y-138252380D01*
X109403333Y-137204761D02*
X109165238Y-137919047D01*
X109784285Y-137919047D01*
X117466666Y-117402380D02*
X117466666Y-118116666D01*
X117419047Y-118259523D01*
X117323809Y-118354761D01*
X117180952Y-118402380D01*
X117085714Y-118402380D01*
X117847619Y-117402380D02*
X118466666Y-117402380D01*
X118133333Y-117783333D01*
X118276190Y-117783333D01*
X118371428Y-117830952D01*
X118419047Y-117878571D01*
X118466666Y-117973809D01*
X118466666Y-118211904D01*
X118419047Y-118307142D01*
X118371428Y-118354761D01*
X118276190Y-118402380D01*
X117990476Y-118402380D01*
X117895238Y-118354761D01*
X117847619Y-118307142D01*
X119666666Y-91452380D02*
X119666666Y-92166666D01*
X119619047Y-92309523D01*
X119523809Y-92404761D01*
X119380952Y-92452380D01*
X119285714Y-92452380D01*
X120095238Y-91547619D02*
X120142857Y-91500000D01*
X120238095Y-91452380D01*
X120476190Y-91452380D01*
X120571428Y-91500000D01*
X120619047Y-91547619D01*
X120666666Y-91642857D01*
X120666666Y-91738095D01*
X120619047Y-91880952D01*
X120047619Y-92452380D01*
X120666666Y-92452380D01*
X102166666Y-91452380D02*
X102166666Y-92166666D01*
X102119047Y-92309523D01*
X102023809Y-92404761D01*
X101880952Y-92452380D01*
X101785714Y-92452380D01*
X103166666Y-92452380D02*
X102595238Y-92452380D01*
X102880952Y-92452380D02*
X102880952Y-91452380D01*
X102785714Y-91595238D01*
X102690476Y-91690476D01*
X102595238Y-91738095D01*
M02*
