G04 #@! TF.GenerationSoftware,KiCad,Pcbnew,(5.1.5)-3*
G04 #@! TF.CreationDate,2020-07-22T22:43:47-05:00*
G04 #@! TF.ProjectId,LightDriverShieldVer2,4c696768-7444-4726-9976-657253686965,rev?*
G04 #@! TF.SameCoordinates,Original*
G04 #@! TF.FileFunction,Copper,L4,Bot*
G04 #@! TF.FilePolarity,Positive*
%FSLAX46Y46*%
G04 Gerber Fmt 4.6, Leading zero omitted, Abs format (unit mm)*
G04 Created by KiCad (PCBNEW (5.1.5)-3) date 2020-07-22 22:43:47*
%MOMM*%
%LPD*%
G04 APERTURE LIST*
%ADD10C,0.100000*%
%ADD11O,1.700000X1.700000*%
%ADD12R,1.700000X1.700000*%
%ADD13C,1.524000*%
%ADD14R,1.524000X1.524000*%
%ADD15O,1.600000X1.600000*%
%ADD16R,1.600000X1.600000*%
%ADD17C,2.100000*%
%ADD18R,2.100000X2.100000*%
%ADD19C,0.800000*%
%ADD20C,0.500000*%
%ADD21C,0.750000*%
%ADD22C,1.000000*%
G04 APERTURE END LIST*
G04 #@! TA.AperFunction,SMDPad,CuDef*
D10*
G36*
X108500000Y-92000000D02*
G01*
X109000000Y-91250000D01*
X110000000Y-91250000D01*
X110000000Y-92750000D01*
X109000000Y-92750000D01*
X108500000Y-92000000D01*
G37*
G04 #@! TD.AperFunction*
G04 #@! TA.AperFunction,Conductor*
G36*
X108200000Y-92000000D02*
G01*
X108700000Y-92750000D01*
X106300000Y-92750000D01*
X106800000Y-92000000D01*
X106300000Y-91250000D01*
X108700000Y-91250000D01*
X108200000Y-92000000D01*
G37*
G04 #@! TD.AperFunction*
G04 #@! TA.AperFunction,SMDPad,CuDef*
G36*
X106500000Y-92000000D02*
G01*
X106000000Y-92750000D01*
X105000000Y-92750000D01*
X105000000Y-91250000D01*
X106000000Y-91250000D01*
X106500000Y-92000000D01*
G37*
G04 #@! TD.AperFunction*
D11*
X117500000Y-92000000D03*
D12*
X114960000Y-92000000D03*
D13*
X122540000Y-133120000D03*
X120000000Y-133120000D03*
X122540000Y-130580000D03*
X120000000Y-130580000D03*
X122540000Y-128040000D03*
X120000000Y-128040000D03*
X122540000Y-125500000D03*
D14*
X120000000Y-125500000D03*
D15*
X102700000Y-123380000D03*
X115400000Y-131000000D03*
X105240000Y-123380000D03*
X112860000Y-131000000D03*
X107780000Y-123380000D03*
X110320000Y-131000000D03*
X110320000Y-123380000D03*
X107780000Y-131000000D03*
X112860000Y-123380000D03*
X105240000Y-131000000D03*
X115400000Y-123380000D03*
D16*
X102700000Y-131000000D03*
D17*
X112990000Y-135800000D03*
X110450000Y-135800000D03*
X107910000Y-135800000D03*
D18*
X105370000Y-135800000D03*
D11*
X117620000Y-120000000D03*
X115080000Y-120000000D03*
X112540000Y-120000000D03*
X110000000Y-120000000D03*
X107460000Y-120000000D03*
D12*
X104920000Y-120000000D03*
D11*
X122500000Y-120000000D03*
X122500000Y-117460000D03*
X122500000Y-114920000D03*
X122500000Y-112380000D03*
X122500000Y-109840000D03*
X122500000Y-107300000D03*
X122500000Y-104760000D03*
X122500000Y-102220000D03*
X122500000Y-99680000D03*
X122500000Y-97140000D03*
X122500000Y-94600000D03*
D12*
X122500000Y-92060000D03*
D11*
X100000000Y-119940000D03*
X100000000Y-117400000D03*
X100000000Y-114860000D03*
X100000000Y-112320000D03*
X100000000Y-109780000D03*
X100000000Y-107240000D03*
X100000000Y-104700000D03*
X100000000Y-102160000D03*
X100000000Y-99620000D03*
X100000000Y-97080000D03*
X100000000Y-94540000D03*
D12*
X100000000Y-92000000D03*
D19*
X111250000Y-112500000D03*
X111250000Y-115500000D03*
X106750000Y-112500000D03*
X106750000Y-115500000D03*
X115750000Y-115500000D03*
X115750000Y-112500000D03*
X103650000Y-95700000D03*
X118000000Y-99500000D03*
X118000002Y-102000000D03*
X110850000Y-104615000D03*
X115250000Y-104615000D03*
X106450000Y-104450000D03*
X114000000Y-115050000D03*
X114000000Y-112900000D03*
X114000000Y-114000000D03*
X109500000Y-113000000D03*
X109500000Y-115100000D03*
X109500000Y-114050000D03*
X105000000Y-115100000D03*
X105000000Y-113000000D03*
X105000000Y-114050000D03*
X104849996Y-95500000D03*
D20*
X116700000Y-122600000D02*
X117620000Y-121680000D01*
X117620000Y-121680000D02*
X117620000Y-120000000D01*
X115400000Y-131000000D02*
X115400000Y-129900000D01*
X116700000Y-128600000D02*
X116700000Y-122600000D01*
X115400000Y-129900000D02*
X116700000Y-128600000D01*
X115080000Y-121620000D02*
X115080000Y-120000000D01*
X114110001Y-128618629D02*
X114110001Y-122589999D01*
X114110001Y-122589999D02*
X115080000Y-121620000D01*
X112860000Y-131000000D02*
X112860000Y-129868630D01*
X112860000Y-129868630D02*
X114110001Y-128618629D01*
X112540000Y-121610000D02*
X112540000Y-120000000D01*
X111609999Y-128578631D02*
X111609999Y-122540001D01*
X111609999Y-122540001D02*
X112540000Y-121610000D01*
X110320000Y-131000000D02*
X110320000Y-129868630D01*
X110320000Y-129868630D02*
X111609999Y-128578631D01*
X110000000Y-121700000D02*
X110000000Y-120000000D01*
X109030001Y-122669999D02*
X110000000Y-121700000D01*
X109030001Y-128618629D02*
X109030001Y-122669999D01*
X107780000Y-131000000D02*
X107780000Y-129868630D01*
X107780000Y-129868630D02*
X109030001Y-128618629D01*
X107460000Y-121490000D02*
X107460000Y-120000000D01*
X106529999Y-122420001D02*
X107460000Y-121490000D01*
X106529999Y-128670001D02*
X106529999Y-122420001D01*
X105240000Y-131000000D02*
X105240000Y-129960000D01*
X105240000Y-129960000D02*
X106529999Y-128670001D01*
X103989999Y-122280001D02*
X104920000Y-121350000D01*
X103989999Y-128610001D02*
X103989999Y-122280001D01*
X104920000Y-121350000D02*
X104920000Y-120000000D01*
X102700000Y-131000000D02*
X102700000Y-129900000D01*
X102700000Y-129900000D02*
X103989999Y-128610001D01*
X103050000Y-96300000D02*
X103650000Y-95700000D01*
X102700000Y-123380000D02*
X103050000Y-123030000D01*
X103050000Y-123030000D02*
X103050000Y-96300000D01*
D21*
X100000000Y-92000000D02*
X105500000Y-92000000D01*
D22*
X107000000Y-94250000D02*
X107500000Y-93750000D01*
X101900000Y-121100000D02*
X101900000Y-95850000D01*
X100250000Y-122750000D02*
X101900000Y-121100000D01*
X101150000Y-135700000D02*
X100200000Y-134750000D01*
X107500000Y-93750000D02*
X107500000Y-92000000D01*
X101900000Y-95850000D02*
X103500000Y-94250000D01*
X105270000Y-135700000D02*
X101150000Y-135700000D01*
X105370000Y-135800000D02*
X105270000Y-135700000D01*
X103500000Y-94250000D02*
X107000000Y-94250000D01*
X100200000Y-134750000D02*
X100250000Y-134700000D01*
X100250000Y-134700000D02*
X100250000Y-122750000D01*
D21*
X114960000Y-92000000D02*
X109500000Y-92000000D01*
D22*
X118949999Y-95899999D02*
X105249995Y-95899999D01*
X119750000Y-96700000D02*
X118949999Y-95899999D01*
X122540000Y-125500000D02*
X119750000Y-122710000D01*
X105249995Y-95899999D02*
X104849996Y-95500000D01*
X119750000Y-122710000D02*
X119750000Y-96700000D01*
M02*
