G04 #@! TF.GenerationSoftware,KiCad,Pcbnew,(5.1.5)-3*
G04 #@! TF.CreationDate,2020-07-01T18:11:23-05:00*
G04 #@! TF.ProjectId,LightDriverShieldVer2,4c696768-7444-4726-9976-657253686965,rev?*
G04 #@! TF.SameCoordinates,Original*
G04 #@! TF.FileFunction,Copper,L2,Inr*
G04 #@! TF.FilePolarity,Positive*
%FSLAX46Y46*%
G04 Gerber Fmt 4.6, Leading zero omitted, Abs format (unit mm)*
G04 Created by KiCad (PCBNEW (5.1.5)-3) date 2020-07-01 18:11:23*
%MOMM*%
%LPD*%
G04 APERTURE LIST*
%ADD10O,1.700000X1.700000*%
%ADD11R,1.700000X1.700000*%
%ADD12C,1.524000*%
%ADD13R,1.524000X1.524000*%
%ADD14O,1.600000X1.600000*%
%ADD15R,1.600000X1.600000*%
%ADD16C,2.100000*%
%ADD17R,2.100000X2.100000*%
%ADD18C,0.800000*%
%ADD19C,0.500000*%
%ADD20C,0.750000*%
G04 APERTURE END LIST*
D10*
X117500000Y-92000000D03*
D11*
X114960000Y-92000000D03*
D12*
X122540000Y-133120000D03*
X120000000Y-133120000D03*
X122540000Y-130580000D03*
X120000000Y-130580000D03*
X122540000Y-128040000D03*
X120000000Y-128040000D03*
X122540000Y-125500000D03*
D13*
X120000000Y-125500000D03*
D14*
X102700000Y-123380000D03*
X115400000Y-131000000D03*
X105240000Y-123380000D03*
X112860000Y-131000000D03*
X107780000Y-123380000D03*
X110320000Y-131000000D03*
X110320000Y-123380000D03*
X107780000Y-131000000D03*
X112860000Y-123380000D03*
X105240000Y-131000000D03*
X115400000Y-123380000D03*
D15*
X102700000Y-131000000D03*
D16*
X109670000Y-136200000D03*
X107130000Y-136200000D03*
X104590000Y-136200000D03*
D17*
X102050000Y-136200000D03*
D10*
X117620000Y-120000000D03*
X115080000Y-120000000D03*
X112540000Y-120000000D03*
X110000000Y-120000000D03*
X107460000Y-120000000D03*
D11*
X104920000Y-120000000D03*
D10*
X122500000Y-120000000D03*
X122500000Y-117460000D03*
X122500000Y-114920000D03*
X122500000Y-112380000D03*
X122500000Y-109840000D03*
X122500000Y-107300000D03*
X122500000Y-104760000D03*
X122500000Y-102220000D03*
X122500000Y-99680000D03*
X122500000Y-97140000D03*
X122500000Y-94600000D03*
D11*
X122500000Y-92060000D03*
D10*
X100000000Y-119940000D03*
X100000000Y-117400000D03*
X100000000Y-114860000D03*
X100000000Y-112320000D03*
X100000000Y-109780000D03*
X100000000Y-107240000D03*
X100000000Y-104700000D03*
X100000000Y-102160000D03*
X100000000Y-99620000D03*
X100000000Y-97080000D03*
X100000000Y-94540000D03*
D11*
X100000000Y-92000000D03*
D18*
X111250000Y-112500000D03*
X111250000Y-115500000D03*
X106750000Y-112500000D03*
X106750000Y-115500000D03*
X115750000Y-115500000D03*
X115750000Y-112500000D03*
X118000000Y-99500000D03*
X118000002Y-102000000D03*
X114000000Y-115050000D03*
X114000000Y-112900000D03*
X114000000Y-114000000D03*
X109500000Y-113000000D03*
X109500000Y-115100000D03*
X109500000Y-114050000D03*
X105000000Y-115100000D03*
X105000000Y-113000000D03*
X105000000Y-114050000D03*
X103650000Y-95700000D03*
X110850000Y-104615000D03*
X115250000Y-104615000D03*
X106450000Y-104450000D03*
X104849996Y-95500000D03*
D19*
X119500000Y-99500000D02*
X118000000Y-99500000D01*
X120250000Y-100250000D02*
X119500000Y-99500000D01*
X120250000Y-122750000D02*
X120250000Y-100250000D01*
X118500000Y-124500000D02*
X120250000Y-122750000D01*
X120000000Y-133120000D02*
X118500000Y-131620000D01*
X118500000Y-131620000D02*
X118500000Y-124500000D01*
X121297919Y-97140000D02*
X122500000Y-97140000D01*
X120950010Y-97487909D02*
X121297919Y-97140000D01*
X120950010Y-122700010D02*
X120950010Y-97487909D01*
X121212001Y-122962001D02*
X120950010Y-122700010D01*
X122540000Y-130580000D02*
X121212001Y-129252001D01*
X121212001Y-129252001D02*
X121212001Y-122962001D01*
D20*
X102700000Y-123380000D02*
X105240000Y-123380000D01*
X105240000Y-123380000D02*
X107780000Y-123380000D01*
X107780000Y-123380000D02*
X110320000Y-123380000D01*
X110320000Y-123380000D02*
X112860000Y-123380000D01*
X112860000Y-123380000D02*
X115400000Y-123380000D01*
D19*
X110850000Y-104450000D02*
X110850000Y-104615000D01*
X110350000Y-106750000D02*
X110850000Y-106250000D01*
X101750000Y-117400000D02*
X102600000Y-116550000D01*
X110850000Y-106250000D02*
X110850000Y-104450000D01*
X100000000Y-117400000D02*
X101750000Y-117400000D01*
X102600000Y-107900000D02*
X103750000Y-106750000D01*
X102600000Y-116550000D02*
X102600000Y-107900000D01*
X103750000Y-106750000D02*
X110350000Y-106750000D01*
X101202081Y-119940000D02*
X103350000Y-117792081D01*
X100000000Y-119940000D02*
X101202081Y-119940000D01*
X103350000Y-117792081D02*
X103350000Y-108250000D01*
X104149990Y-107450010D02*
X114499990Y-107450010D01*
X103350000Y-108250000D02*
X104149990Y-107450010D01*
X114499990Y-107450010D02*
X115250000Y-106700000D01*
X115250000Y-106700000D02*
X115250000Y-104615000D01*
X106450000Y-100350000D02*
X106450000Y-104450000D01*
X100000000Y-99620000D02*
X105720000Y-99620000D01*
X105720000Y-99620000D02*
X106450000Y-100350000D01*
M02*
