G04 #@! TF.GenerationSoftware,KiCad,Pcbnew,(5.1.5)-3*
G04 #@! TF.CreationDate,2020-07-23T10:29:42-05:00*
G04 #@! TF.ProjectId,LuminaryVer2,4c756d69-6e61-4727-9956-6572322e6b69,rev?*
G04 #@! TF.SameCoordinates,Original*
G04 #@! TF.FileFunction,Copper,L4,Bot*
G04 #@! TF.FilePolarity,Positive*
%FSLAX46Y46*%
G04 Gerber Fmt 4.6, Leading zero omitted, Abs format (unit mm)*
G04 Created by KiCad (PCBNEW (5.1.5)-3) date 2020-07-23 10:29:42*
%MOMM*%
%LPD*%
G04 APERTURE LIST*
%ADD10R,1.550000X0.600000*%
%ADD11O,1.300000X1.100000*%
%ADD12C,0.100000*%
%ADD13O,1.700000X1.700000*%
%ADD14R,1.700000X1.700000*%
%ADD15C,0.900000*%
%ADD16O,1.000000X1.000000*%
%ADD17R,1.000000X1.000000*%
%ADD18C,0.450000*%
%ADD19C,0.800000*%
%ADD20C,0.381000*%
%ADD21C,0.508000*%
%ADD22C,0.635000*%
%ADD23C,0.254000*%
%ADD24C,0.250000*%
G04 APERTURE END LIST*
D10*
X221220000Y-84252000D03*
X221220000Y-82982000D03*
X221220000Y-81712000D03*
X221220000Y-80442000D03*
X215820000Y-80442000D03*
X215820000Y-81712000D03*
X215820000Y-82982000D03*
X215820000Y-84252000D03*
X231126000Y-84252000D03*
X231126000Y-82982000D03*
X231126000Y-81712000D03*
X231126000Y-80442000D03*
X225726000Y-80442000D03*
X225726000Y-81712000D03*
X225726000Y-82982000D03*
X225726000Y-84252000D03*
D11*
X215600000Y-57900000D03*
X215600000Y-53100000D03*
G04 #@! TA.AperFunction,ComponentPad*
D12*
G36*
X213149009Y-58102408D02*
G01*
X213197545Y-58109607D01*
X213245142Y-58121530D01*
X213291342Y-58138060D01*
X213335698Y-58159039D01*
X213377785Y-58184265D01*
X213417197Y-58213495D01*
X213453553Y-58246447D01*
X213486505Y-58282803D01*
X213515735Y-58322215D01*
X213540961Y-58364302D01*
X213561940Y-58408658D01*
X213578470Y-58454858D01*
X213590393Y-58502455D01*
X213597592Y-58550991D01*
X213600000Y-58600000D01*
X213600000Y-59600000D01*
X213597592Y-59649009D01*
X213590393Y-59697545D01*
X213578470Y-59745142D01*
X213561940Y-59791342D01*
X213540961Y-59835698D01*
X213515735Y-59877785D01*
X213486505Y-59917197D01*
X213453553Y-59953553D01*
X213417197Y-59986505D01*
X213377785Y-60015735D01*
X213335698Y-60040961D01*
X213291342Y-60061940D01*
X213245142Y-60078470D01*
X213197545Y-60090393D01*
X213149009Y-60097592D01*
X213100000Y-60100000D01*
X212100000Y-60100000D01*
X212050991Y-60097592D01*
X212002455Y-60090393D01*
X211954858Y-60078470D01*
X211908658Y-60061940D01*
X211864302Y-60040961D01*
X211822215Y-60015735D01*
X211782803Y-59986505D01*
X211746447Y-59953553D01*
X211713495Y-59917197D01*
X211684265Y-59877785D01*
X211659039Y-59835698D01*
X211638060Y-59791342D01*
X211621530Y-59745142D01*
X211609607Y-59697545D01*
X211602408Y-59649009D01*
X211600000Y-59600000D01*
X211600000Y-58600000D01*
X211602408Y-58550991D01*
X211609607Y-58502455D01*
X211621530Y-58454858D01*
X211638060Y-58408658D01*
X211659039Y-58364302D01*
X211684265Y-58322215D01*
X211713495Y-58282803D01*
X211746447Y-58246447D01*
X211782803Y-58213495D01*
X211822215Y-58184265D01*
X211864302Y-58159039D01*
X211908658Y-58138060D01*
X211954858Y-58121530D01*
X212002455Y-58109607D01*
X212050991Y-58102408D01*
X212100000Y-58100000D01*
X213100000Y-58100000D01*
X213149009Y-58102408D01*
G37*
G04 #@! TD.AperFunction*
G04 #@! TA.AperFunction,ComponentPad*
G36*
X213149009Y-50902408D02*
G01*
X213197545Y-50909607D01*
X213245142Y-50921530D01*
X213291342Y-50938060D01*
X213335698Y-50959039D01*
X213377785Y-50984265D01*
X213417197Y-51013495D01*
X213453553Y-51046447D01*
X213486505Y-51082803D01*
X213515735Y-51122215D01*
X213540961Y-51164302D01*
X213561940Y-51208658D01*
X213578470Y-51254858D01*
X213590393Y-51302455D01*
X213597592Y-51350991D01*
X213600000Y-51400000D01*
X213600000Y-52400000D01*
X213597592Y-52449009D01*
X213590393Y-52497545D01*
X213578470Y-52545142D01*
X213561940Y-52591342D01*
X213540961Y-52635698D01*
X213515735Y-52677785D01*
X213486505Y-52717197D01*
X213453553Y-52753553D01*
X213417197Y-52786505D01*
X213377785Y-52815735D01*
X213335698Y-52840961D01*
X213291342Y-52861940D01*
X213245142Y-52878470D01*
X213197545Y-52890393D01*
X213149009Y-52897592D01*
X213100000Y-52900000D01*
X212100000Y-52900000D01*
X212050991Y-52897592D01*
X212002455Y-52890393D01*
X211954858Y-52878470D01*
X211908658Y-52861940D01*
X211864302Y-52840961D01*
X211822215Y-52815735D01*
X211782803Y-52786505D01*
X211746447Y-52753553D01*
X211713495Y-52717197D01*
X211684265Y-52677785D01*
X211659039Y-52635698D01*
X211638060Y-52591342D01*
X211621530Y-52545142D01*
X211609607Y-52497545D01*
X211602408Y-52449009D01*
X211600000Y-52400000D01*
X211600000Y-51400000D01*
X211602408Y-51350991D01*
X211609607Y-51302455D01*
X211621530Y-51254858D01*
X211638060Y-51208658D01*
X211659039Y-51164302D01*
X211684265Y-51122215D01*
X211713495Y-51082803D01*
X211746447Y-51046447D01*
X211782803Y-51013495D01*
X211822215Y-50984265D01*
X211864302Y-50959039D01*
X211908658Y-50938060D01*
X211954858Y-50921530D01*
X212002455Y-50909607D01*
X212050991Y-50902408D01*
X212100000Y-50900000D01*
X213100000Y-50900000D01*
X213149009Y-50902408D01*
G37*
G04 #@! TD.AperFunction*
D13*
X235100000Y-98500000D03*
X235100000Y-95960000D03*
X235100000Y-93420000D03*
X235100000Y-90880000D03*
X235100000Y-88340000D03*
X235100000Y-85800000D03*
X235100000Y-83260000D03*
X235100000Y-80720000D03*
X235100000Y-78180000D03*
X235100000Y-75640000D03*
X235100000Y-73100000D03*
D14*
X235100000Y-70560000D03*
D13*
X212400000Y-98500000D03*
X212400000Y-95960000D03*
X212400000Y-93420000D03*
X212400000Y-90880000D03*
X212400000Y-88340000D03*
X212400000Y-85800000D03*
X212400000Y-83260000D03*
X212400000Y-80720000D03*
X212400000Y-78180000D03*
X212400000Y-75640000D03*
X212400000Y-73100000D03*
D14*
X212400000Y-70560000D03*
D15*
X234900000Y-59300000D03*
D13*
X232600000Y-51600000D03*
D14*
X235140000Y-51600000D03*
D13*
X230077000Y-98500000D03*
X227537000Y-98500000D03*
X224997000Y-98500000D03*
X222457000Y-98500000D03*
X219917000Y-98500000D03*
D14*
X217377000Y-98500000D03*
D16*
X230080000Y-72595000D03*
X231350000Y-72595000D03*
X230080000Y-73865000D03*
X231350000Y-73865000D03*
X230080000Y-75135000D03*
X231350000Y-75135000D03*
X230080000Y-76405000D03*
X231350000Y-76405000D03*
X230080000Y-77675000D03*
D17*
X231350000Y-77675000D03*
G04 #@! TA.AperFunction,SMDPad,CuDef*
D12*
G36*
X226723458Y-86345710D02*
G01*
X226737776Y-86347834D01*
X226751817Y-86351351D01*
X226765446Y-86356228D01*
X226778531Y-86362417D01*
X226790947Y-86369858D01*
X226802573Y-86378481D01*
X226813298Y-86388202D01*
X226823019Y-86398927D01*
X226831642Y-86410553D01*
X226839083Y-86422969D01*
X226845272Y-86436054D01*
X226850149Y-86449683D01*
X226853666Y-86463724D01*
X226855790Y-86478042D01*
X226856500Y-86492500D01*
X226856500Y-86837500D01*
X226855790Y-86851958D01*
X226853666Y-86866276D01*
X226850149Y-86880317D01*
X226845272Y-86893946D01*
X226839083Y-86907031D01*
X226831642Y-86919447D01*
X226823019Y-86931073D01*
X226813298Y-86941798D01*
X226802573Y-86951519D01*
X226790947Y-86960142D01*
X226778531Y-86967583D01*
X226765446Y-86973772D01*
X226751817Y-86978649D01*
X226737776Y-86982166D01*
X226723458Y-86984290D01*
X226709000Y-86985000D01*
X226414000Y-86985000D01*
X226399542Y-86984290D01*
X226385224Y-86982166D01*
X226371183Y-86978649D01*
X226357554Y-86973772D01*
X226344469Y-86967583D01*
X226332053Y-86960142D01*
X226320427Y-86951519D01*
X226309702Y-86941798D01*
X226299981Y-86931073D01*
X226291358Y-86919447D01*
X226283917Y-86907031D01*
X226277728Y-86893946D01*
X226272851Y-86880317D01*
X226269334Y-86866276D01*
X226267210Y-86851958D01*
X226266500Y-86837500D01*
X226266500Y-86492500D01*
X226267210Y-86478042D01*
X226269334Y-86463724D01*
X226272851Y-86449683D01*
X226277728Y-86436054D01*
X226283917Y-86422969D01*
X226291358Y-86410553D01*
X226299981Y-86398927D01*
X226309702Y-86388202D01*
X226320427Y-86378481D01*
X226332053Y-86369858D01*
X226344469Y-86362417D01*
X226357554Y-86356228D01*
X226371183Y-86351351D01*
X226385224Y-86347834D01*
X226399542Y-86345710D01*
X226414000Y-86345000D01*
X226709000Y-86345000D01*
X226723458Y-86345710D01*
G37*
G04 #@! TD.AperFunction*
G04 #@! TA.AperFunction,SMDPad,CuDef*
G36*
X225753458Y-86345710D02*
G01*
X225767776Y-86347834D01*
X225781817Y-86351351D01*
X225795446Y-86356228D01*
X225808531Y-86362417D01*
X225820947Y-86369858D01*
X225832573Y-86378481D01*
X225843298Y-86388202D01*
X225853019Y-86398927D01*
X225861642Y-86410553D01*
X225869083Y-86422969D01*
X225875272Y-86436054D01*
X225880149Y-86449683D01*
X225883666Y-86463724D01*
X225885790Y-86478042D01*
X225886500Y-86492500D01*
X225886500Y-86837500D01*
X225885790Y-86851958D01*
X225883666Y-86866276D01*
X225880149Y-86880317D01*
X225875272Y-86893946D01*
X225869083Y-86907031D01*
X225861642Y-86919447D01*
X225853019Y-86931073D01*
X225843298Y-86941798D01*
X225832573Y-86951519D01*
X225820947Y-86960142D01*
X225808531Y-86967583D01*
X225795446Y-86973772D01*
X225781817Y-86978649D01*
X225767776Y-86982166D01*
X225753458Y-86984290D01*
X225739000Y-86985000D01*
X225444000Y-86985000D01*
X225429542Y-86984290D01*
X225415224Y-86982166D01*
X225401183Y-86978649D01*
X225387554Y-86973772D01*
X225374469Y-86967583D01*
X225362053Y-86960142D01*
X225350427Y-86951519D01*
X225339702Y-86941798D01*
X225329981Y-86931073D01*
X225321358Y-86919447D01*
X225313917Y-86907031D01*
X225307728Y-86893946D01*
X225302851Y-86880317D01*
X225299334Y-86866276D01*
X225297210Y-86851958D01*
X225296500Y-86837500D01*
X225296500Y-86492500D01*
X225297210Y-86478042D01*
X225299334Y-86463724D01*
X225302851Y-86449683D01*
X225307728Y-86436054D01*
X225313917Y-86422969D01*
X225321358Y-86410553D01*
X225329981Y-86398927D01*
X225339702Y-86388202D01*
X225350427Y-86378481D01*
X225362053Y-86369858D01*
X225374469Y-86362417D01*
X225387554Y-86356228D01*
X225401183Y-86351351D01*
X225415224Y-86347834D01*
X225429542Y-86345710D01*
X225444000Y-86345000D01*
X225739000Y-86345000D01*
X225753458Y-86345710D01*
G37*
G04 #@! TD.AperFunction*
G04 #@! TA.AperFunction,SMDPad,CuDef*
G36*
X220863958Y-86345710D02*
G01*
X220878276Y-86347834D01*
X220892317Y-86351351D01*
X220905946Y-86356228D01*
X220919031Y-86362417D01*
X220931447Y-86369858D01*
X220943073Y-86378481D01*
X220953798Y-86388202D01*
X220963519Y-86398927D01*
X220972142Y-86410553D01*
X220979583Y-86422969D01*
X220985772Y-86436054D01*
X220990649Y-86449683D01*
X220994166Y-86463724D01*
X220996290Y-86478042D01*
X220997000Y-86492500D01*
X220997000Y-86837500D01*
X220996290Y-86851958D01*
X220994166Y-86866276D01*
X220990649Y-86880317D01*
X220985772Y-86893946D01*
X220979583Y-86907031D01*
X220972142Y-86919447D01*
X220963519Y-86931073D01*
X220953798Y-86941798D01*
X220943073Y-86951519D01*
X220931447Y-86960142D01*
X220919031Y-86967583D01*
X220905946Y-86973772D01*
X220892317Y-86978649D01*
X220878276Y-86982166D01*
X220863958Y-86984290D01*
X220849500Y-86985000D01*
X220554500Y-86985000D01*
X220540042Y-86984290D01*
X220525724Y-86982166D01*
X220511683Y-86978649D01*
X220498054Y-86973772D01*
X220484969Y-86967583D01*
X220472553Y-86960142D01*
X220460927Y-86951519D01*
X220450202Y-86941798D01*
X220440481Y-86931073D01*
X220431858Y-86919447D01*
X220424417Y-86907031D01*
X220418228Y-86893946D01*
X220413351Y-86880317D01*
X220409834Y-86866276D01*
X220407710Y-86851958D01*
X220407000Y-86837500D01*
X220407000Y-86492500D01*
X220407710Y-86478042D01*
X220409834Y-86463724D01*
X220413351Y-86449683D01*
X220418228Y-86436054D01*
X220424417Y-86422969D01*
X220431858Y-86410553D01*
X220440481Y-86398927D01*
X220450202Y-86388202D01*
X220460927Y-86378481D01*
X220472553Y-86369858D01*
X220484969Y-86362417D01*
X220498054Y-86356228D01*
X220511683Y-86351351D01*
X220525724Y-86347834D01*
X220540042Y-86345710D01*
X220554500Y-86345000D01*
X220849500Y-86345000D01*
X220863958Y-86345710D01*
G37*
G04 #@! TD.AperFunction*
G04 #@! TA.AperFunction,SMDPad,CuDef*
G36*
X221833958Y-86345710D02*
G01*
X221848276Y-86347834D01*
X221862317Y-86351351D01*
X221875946Y-86356228D01*
X221889031Y-86362417D01*
X221901447Y-86369858D01*
X221913073Y-86378481D01*
X221923798Y-86388202D01*
X221933519Y-86398927D01*
X221942142Y-86410553D01*
X221949583Y-86422969D01*
X221955772Y-86436054D01*
X221960649Y-86449683D01*
X221964166Y-86463724D01*
X221966290Y-86478042D01*
X221967000Y-86492500D01*
X221967000Y-86837500D01*
X221966290Y-86851958D01*
X221964166Y-86866276D01*
X221960649Y-86880317D01*
X221955772Y-86893946D01*
X221949583Y-86907031D01*
X221942142Y-86919447D01*
X221933519Y-86931073D01*
X221923798Y-86941798D01*
X221913073Y-86951519D01*
X221901447Y-86960142D01*
X221889031Y-86967583D01*
X221875946Y-86973772D01*
X221862317Y-86978649D01*
X221848276Y-86982166D01*
X221833958Y-86984290D01*
X221819500Y-86985000D01*
X221524500Y-86985000D01*
X221510042Y-86984290D01*
X221495724Y-86982166D01*
X221481683Y-86978649D01*
X221468054Y-86973772D01*
X221454969Y-86967583D01*
X221442553Y-86960142D01*
X221430927Y-86951519D01*
X221420202Y-86941798D01*
X221410481Y-86931073D01*
X221401858Y-86919447D01*
X221394417Y-86907031D01*
X221388228Y-86893946D01*
X221383351Y-86880317D01*
X221379834Y-86866276D01*
X221377710Y-86851958D01*
X221377000Y-86837500D01*
X221377000Y-86492500D01*
X221377710Y-86478042D01*
X221379834Y-86463724D01*
X221383351Y-86449683D01*
X221388228Y-86436054D01*
X221394417Y-86422969D01*
X221401858Y-86410553D01*
X221410481Y-86398927D01*
X221420202Y-86388202D01*
X221430927Y-86378481D01*
X221442553Y-86369858D01*
X221454969Y-86362417D01*
X221468054Y-86356228D01*
X221481683Y-86351351D01*
X221495724Y-86347834D01*
X221510042Y-86345710D01*
X221524500Y-86345000D01*
X221819500Y-86345000D01*
X221833958Y-86345710D01*
G37*
G04 #@! TD.AperFunction*
D18*
X224450000Y-83000000D03*
X224050000Y-82700000D03*
X223500000Y-74000000D03*
X223500000Y-74500000D03*
X223000000Y-74500000D03*
X223000000Y-74000000D03*
X229900000Y-94900000D03*
X217950000Y-91100000D03*
X217900000Y-93600000D03*
D19*
X219510000Y-95560000D03*
D18*
X227700000Y-50950000D03*
X233800000Y-63100000D03*
X226350000Y-58350000D03*
X226950000Y-58350000D03*
X227500000Y-58350000D03*
X228100000Y-58350000D03*
X218600000Y-61900000D03*
X219350000Y-61900000D03*
X220100000Y-61900000D03*
X220850000Y-61900000D03*
X226350000Y-59000000D03*
X226950000Y-59000000D03*
X227500000Y-59000000D03*
X228100000Y-59000000D03*
X217978682Y-88447971D03*
X224550000Y-77325000D03*
X225300000Y-77075000D03*
X222350000Y-86650000D03*
X224400000Y-88750000D03*
X223700000Y-69800000D03*
X223050000Y-69800000D03*
X224400000Y-69800000D03*
X223700004Y-82350004D03*
X229900000Y-89499994D03*
X229900000Y-92200000D03*
X217450000Y-64150000D03*
X218450000Y-64150000D03*
X218450000Y-63400000D03*
X218450000Y-62750000D03*
X217450000Y-62750000D03*
X217950000Y-64150000D03*
X217950000Y-63400000D03*
X217950000Y-62750000D03*
X217450000Y-63400000D03*
X218000000Y-69050000D03*
X218000000Y-70475000D03*
X219600000Y-70475000D03*
X219600000Y-69050000D03*
X216300000Y-70475000D03*
X216300000Y-69050000D03*
X216300000Y-69750000D03*
X219600000Y-69750000D03*
X218000000Y-69750000D03*
X222350000Y-78050000D03*
X218050000Y-79800000D03*
X224400000Y-87500000D03*
X218747990Y-83850000D03*
X218350000Y-77000000D03*
X218350000Y-75950000D03*
X221281022Y-79491748D03*
X216050000Y-61950000D03*
X224600000Y-50950000D03*
X216962500Y-52242500D03*
X215512500Y-73037500D03*
X215512500Y-61412500D03*
X226450000Y-71200000D03*
X226450000Y-71750000D03*
X227500000Y-71750000D03*
X227500000Y-71200000D03*
X211350000Y-60950000D03*
X212050000Y-60950000D03*
X212750000Y-60950000D03*
X215512500Y-61937500D03*
X216050000Y-61400000D03*
X227663140Y-82644690D03*
X227968535Y-83312127D03*
X217900000Y-94300000D03*
X219900000Y-81075000D03*
X217950000Y-91750000D03*
X219278049Y-81718993D03*
X218000000Y-89200000D03*
X221225000Y-85900000D03*
X226875000Y-84249998D03*
X227625000Y-84800000D03*
X217500000Y-83850000D03*
X221450000Y-78850002D03*
X225900000Y-53300000D03*
X227799998Y-56850000D03*
X229125000Y-81275000D03*
X229853839Y-90683366D03*
X229900000Y-93050000D03*
X225325000Y-85825000D03*
X229900000Y-95550000D03*
X222275000Y-85925000D03*
X221600000Y-71600000D03*
X226200000Y-72950000D03*
X226200000Y-73700000D03*
X216850000Y-54850000D03*
X226200000Y-74450000D03*
X216850000Y-55500000D03*
D20*
X213790000Y-75640000D02*
X212400000Y-75640000D01*
X214250000Y-76100000D02*
X213790000Y-75640000D01*
X214250000Y-80150000D02*
X214250000Y-76100000D01*
X215820000Y-80442000D02*
X214542000Y-80442000D01*
X214542000Y-80442000D02*
X214250000Y-80150000D01*
D21*
X221967000Y-86665000D02*
X221982000Y-86650000D01*
X221672000Y-86665000D02*
X221967000Y-86665000D01*
X221982000Y-86650000D02*
X222350000Y-86650000D01*
X225591500Y-86665000D02*
X225591500Y-88458500D01*
X225591500Y-88458500D02*
X225300000Y-88750000D01*
X225300000Y-88750000D02*
X224400000Y-88750000D01*
D22*
X224200000Y-82866000D02*
X224200000Y-82850000D01*
X224316000Y-82982000D02*
X223700004Y-82366004D01*
X223925003Y-82575003D02*
X223700004Y-82350004D01*
X223700004Y-82366004D02*
X223700004Y-82350004D01*
X224200000Y-82850000D02*
X223925003Y-82575003D01*
X225726000Y-82982000D02*
X224316000Y-82982000D01*
D20*
X220725000Y-86688000D02*
X220702000Y-86665000D01*
D22*
X217388000Y-81712000D02*
X215820000Y-81712000D01*
X218000000Y-81100000D02*
X217388000Y-81712000D01*
X221220000Y-84252000D02*
X221220000Y-82982000D01*
X218000000Y-78100000D02*
X218000000Y-81100000D01*
X222992501Y-78692501D02*
X231092501Y-78692501D01*
X222350000Y-78050000D02*
X222992501Y-78692501D01*
X231350000Y-78435002D02*
X231350000Y-77675000D01*
X231092501Y-78692501D02*
X231350000Y-78435002D01*
D21*
X219937000Y-84513000D02*
X220198000Y-84252000D01*
X220198000Y-84252000D02*
X221220000Y-84252000D01*
X219937000Y-86487000D02*
X219937000Y-84513000D01*
X220702000Y-86665000D02*
X220115000Y-86665000D01*
X220115000Y-86665000D02*
X219937000Y-86487000D01*
D22*
X224300000Y-85100000D02*
X224316000Y-87634000D01*
D21*
X224345999Y-85145999D02*
X224300000Y-85100000D01*
X226561500Y-86665000D02*
X226561500Y-85561500D01*
X226145999Y-85145999D02*
X224345999Y-85145999D01*
X226561500Y-85561500D02*
X226145999Y-85145999D01*
D22*
X218274999Y-77825001D02*
X218000000Y-78100000D01*
X222125001Y-77825001D02*
X218274999Y-77825001D01*
X222350000Y-78050000D02*
X222125001Y-77825001D01*
X222350000Y-78050000D02*
X223000000Y-78700000D01*
X223000000Y-78700000D02*
X223000000Y-81750000D01*
X225726000Y-81712000D02*
X224316000Y-81712000D01*
X224316000Y-81712000D02*
X224118990Y-81514990D01*
X224118990Y-81514990D02*
X223235010Y-81514990D01*
X223235010Y-81514990D02*
X223000000Y-81750000D01*
X222850000Y-83650000D02*
X224300000Y-85100000D01*
X222850000Y-82800000D02*
X222850000Y-83650000D01*
X223000000Y-81750000D02*
X222850000Y-81900000D01*
X222850000Y-81900000D02*
X222850000Y-82800000D01*
X222668000Y-82982000D02*
X222850000Y-82800000D01*
X221220000Y-82982000D02*
X222668000Y-82982000D01*
X218000000Y-69750000D02*
X217400000Y-70350000D01*
X217400000Y-77500000D02*
X218000000Y-78100000D01*
X217400000Y-70350000D02*
X217400000Y-77500000D01*
D23*
X218747990Y-83155010D02*
X218747990Y-83850000D01*
X221220000Y-81712000D02*
X220191000Y-81712000D01*
X220191000Y-81712000D02*
X218747990Y-83155010D01*
X214020000Y-90880000D02*
X212400000Y-90880000D01*
X214717510Y-90182490D02*
X214020000Y-90880000D01*
X215150000Y-85000000D02*
X214717510Y-85432490D01*
X219738080Y-80442000D02*
X218150000Y-82030080D01*
X221220000Y-80442000D02*
X219738080Y-80442000D01*
X214717510Y-85432490D02*
X214717510Y-90182490D01*
X218150000Y-82030080D02*
X218150000Y-84300000D01*
X218150000Y-84300000D02*
X217450000Y-85000000D01*
X217450000Y-85000000D02*
X215150000Y-85000000D01*
D20*
X214664000Y-82982000D02*
X214200000Y-83446000D01*
X215820000Y-82982000D02*
X214664000Y-82982000D01*
X214200000Y-83446000D02*
X214200000Y-87950000D01*
X213810000Y-88340000D02*
X212400000Y-88340000D01*
X214200000Y-87950000D02*
X213810000Y-88340000D01*
X233650000Y-85800000D02*
X235100000Y-85800000D01*
X233125000Y-85275000D02*
X233650000Y-85800000D01*
X231126000Y-82982000D02*
X232632000Y-82982000D01*
X233125000Y-83475000D02*
X233125000Y-85275000D01*
X232632000Y-82982000D02*
X233125000Y-83475000D01*
X233785000Y-83260000D02*
X235100000Y-83260000D01*
X231126000Y-81712000D02*
X232237000Y-81712000D01*
X232237000Y-81712000D02*
X233785000Y-83260000D01*
D24*
X224600000Y-50950000D02*
X217250000Y-50950000D01*
X217250000Y-50950000D02*
X216950000Y-51250000D01*
X216950000Y-51250000D02*
X216950000Y-52230000D01*
X216950000Y-52230000D02*
X216962500Y-52242500D01*
D21*
X215512500Y-73037500D02*
X215512500Y-61937500D01*
X215512500Y-61412500D02*
X215512500Y-61412500D01*
X215512500Y-61937500D02*
X215512500Y-61412500D01*
D20*
X225728002Y-84249998D02*
X226556802Y-84249998D01*
X225726000Y-84252000D02*
X225728002Y-84249998D01*
X226556802Y-84249998D02*
X226875000Y-84249998D01*
X226882000Y-80442000D02*
X227047639Y-80607639D01*
X227625000Y-84481802D02*
X227625000Y-84800000D01*
X227047639Y-83486697D02*
X227625000Y-84064058D01*
X227625000Y-84064058D02*
X227625000Y-84481802D01*
X225726000Y-80442000D02*
X226882000Y-80442000D01*
X227047639Y-80607639D02*
X227047639Y-83486697D01*
D23*
X216849000Y-84252000D02*
X217251000Y-83850000D01*
X215820000Y-84252000D02*
X216849000Y-84252000D01*
X217251000Y-83850000D02*
X217500000Y-83850000D01*
D24*
X227799998Y-53699998D02*
X227799998Y-56850000D01*
X225900000Y-53300000D02*
X227400000Y-53300000D01*
X227400000Y-53300000D02*
X227799998Y-53699998D01*
D23*
X221600000Y-71600000D02*
X221600000Y-72500000D01*
X221600000Y-72500000D02*
X221600000Y-72650000D01*
X221600000Y-72650000D02*
X221900000Y-72950000D01*
X221900000Y-72950000D02*
X226200000Y-72950000D01*
G36*
X216473000Y-60801424D02*
G01*
X216473000Y-64397421D01*
X211227000Y-64373576D01*
X211227000Y-60777579D01*
X216473000Y-60801424D01*
G37*
X216473000Y-60801424D02*
X216473000Y-64397421D01*
X211227000Y-64373576D01*
X211227000Y-60777579D01*
X216473000Y-60801424D01*
G36*
X218573000Y-68750000D02*
G01*
X218575440Y-68774776D01*
X218582667Y-68798601D01*
X218594403Y-68820557D01*
X218610197Y-68839803D01*
X218629443Y-68855597D01*
X218651399Y-68867333D01*
X218675224Y-68874560D01*
X218700000Y-68877000D01*
X219723000Y-68877000D01*
X219723000Y-70623000D01*
X216177000Y-70623000D01*
X216177000Y-68877000D01*
X217200000Y-68877000D01*
X217224776Y-68874560D01*
X217248601Y-68867333D01*
X217270557Y-68855597D01*
X217289803Y-68839803D01*
X217305597Y-68820557D01*
X217317333Y-68798601D01*
X217324560Y-68774776D01*
X217327000Y-68750000D01*
X217327000Y-62577000D01*
X218573000Y-62577000D01*
X218573000Y-68750000D01*
G37*
X218573000Y-68750000D02*
X218575440Y-68774776D01*
X218582667Y-68798601D01*
X218594403Y-68820557D01*
X218610197Y-68839803D01*
X218629443Y-68855597D01*
X218651399Y-68867333D01*
X218675224Y-68874560D01*
X218700000Y-68877000D01*
X219723000Y-68877000D01*
X219723000Y-70623000D01*
X216177000Y-70623000D01*
X216177000Y-68877000D01*
X217200000Y-68877000D01*
X217224776Y-68874560D01*
X217248601Y-68867333D01*
X217270557Y-68855597D01*
X217289803Y-68839803D01*
X217305597Y-68820557D01*
X217317333Y-68798601D01*
X217324560Y-68774776D01*
X217327000Y-68750000D01*
X217327000Y-62577000D01*
X218573000Y-62577000D01*
X218573000Y-68750000D01*
G36*
X227723000Y-60876491D02*
G01*
X227723000Y-71873000D01*
X226177000Y-71873000D01*
X226177000Y-62275000D01*
X226174560Y-62250224D01*
X226167333Y-62226399D01*
X226155597Y-62204443D01*
X226139803Y-62185197D01*
X226120557Y-62169403D01*
X226098601Y-62157667D01*
X226074776Y-62150440D01*
X226050593Y-62148001D01*
X221353846Y-62126053D01*
X221380787Y-62061012D01*
X221402000Y-61954367D01*
X221402000Y-61845633D01*
X221380787Y-61738988D01*
X221339176Y-61638530D01*
X221278766Y-61548120D01*
X221201880Y-61471234D01*
X221111470Y-61410824D01*
X221011012Y-61369213D01*
X220904367Y-61348000D01*
X220795633Y-61348000D01*
X220688988Y-61369213D01*
X220588530Y-61410824D01*
X220498120Y-61471234D01*
X220475000Y-61494354D01*
X220451880Y-61471234D01*
X220361470Y-61410824D01*
X220261012Y-61369213D01*
X220154367Y-61348000D01*
X220045633Y-61348000D01*
X219938988Y-61369213D01*
X219838530Y-61410824D01*
X219748120Y-61471234D01*
X219725000Y-61494354D01*
X219701880Y-61471234D01*
X219611470Y-61410824D01*
X219511012Y-61369213D01*
X219404367Y-61348000D01*
X219295633Y-61348000D01*
X219188988Y-61369213D01*
X219088530Y-61410824D01*
X218998120Y-61471234D01*
X218975000Y-61494354D01*
X218951880Y-61471234D01*
X218861470Y-61410824D01*
X218761012Y-61369213D01*
X218654367Y-61348000D01*
X218545633Y-61348000D01*
X218438988Y-61369213D01*
X218338530Y-61410824D01*
X218248120Y-61471234D01*
X218171234Y-61548120D01*
X218110824Y-61638530D01*
X218069213Y-61738988D01*
X218048000Y-61845633D01*
X218048000Y-61954367D01*
X218069213Y-62061012D01*
X218089836Y-62110801D01*
X215481212Y-62098611D01*
X215522888Y-60827495D01*
X227723000Y-60876491D01*
G37*
X227723000Y-60876491D02*
X227723000Y-71873000D01*
X226177000Y-71873000D01*
X226177000Y-62275000D01*
X226174560Y-62250224D01*
X226167333Y-62226399D01*
X226155597Y-62204443D01*
X226139803Y-62185197D01*
X226120557Y-62169403D01*
X226098601Y-62157667D01*
X226074776Y-62150440D01*
X226050593Y-62148001D01*
X221353846Y-62126053D01*
X221380787Y-62061012D01*
X221402000Y-61954367D01*
X221402000Y-61845633D01*
X221380787Y-61738988D01*
X221339176Y-61638530D01*
X221278766Y-61548120D01*
X221201880Y-61471234D01*
X221111470Y-61410824D01*
X221011012Y-61369213D01*
X220904367Y-61348000D01*
X220795633Y-61348000D01*
X220688988Y-61369213D01*
X220588530Y-61410824D01*
X220498120Y-61471234D01*
X220475000Y-61494354D01*
X220451880Y-61471234D01*
X220361470Y-61410824D01*
X220261012Y-61369213D01*
X220154367Y-61348000D01*
X220045633Y-61348000D01*
X219938988Y-61369213D01*
X219838530Y-61410824D01*
X219748120Y-61471234D01*
X219725000Y-61494354D01*
X219701880Y-61471234D01*
X219611470Y-61410824D01*
X219511012Y-61369213D01*
X219404367Y-61348000D01*
X219295633Y-61348000D01*
X219188988Y-61369213D01*
X219088530Y-61410824D01*
X218998120Y-61471234D01*
X218975000Y-61494354D01*
X218951880Y-61471234D01*
X218861470Y-61410824D01*
X218761012Y-61369213D01*
X218654367Y-61348000D01*
X218545633Y-61348000D01*
X218438988Y-61369213D01*
X218338530Y-61410824D01*
X218248120Y-61471234D01*
X218171234Y-61548120D01*
X218110824Y-61638530D01*
X218069213Y-61738988D01*
X218048000Y-61845633D01*
X218048000Y-61954367D01*
X218069213Y-62061012D01*
X218089836Y-62110801D01*
X215481212Y-62098611D01*
X215522888Y-60827495D01*
X227723000Y-60876491D01*
G36*
X214931500Y-69560591D02*
G01*
X214931500Y-73066039D01*
X214939907Y-73151395D01*
X214973129Y-73260914D01*
X215027079Y-73361847D01*
X215099683Y-73450317D01*
X215188152Y-73522921D01*
X215289085Y-73576871D01*
X215398604Y-73610093D01*
X215512500Y-73621311D01*
X215626395Y-73610093D01*
X215735914Y-73576871D01*
X215836847Y-73522921D01*
X215925317Y-73450317D01*
X215997921Y-73361848D01*
X216051871Y-73260915D01*
X216085093Y-73151396D01*
X216093500Y-73066040D01*
X216093500Y-69825111D01*
X219723000Y-70651338D01*
X219723000Y-75600000D01*
X219725440Y-75624776D01*
X219732667Y-75648601D01*
X219744403Y-75670557D01*
X219760197Y-75689803D01*
X219779443Y-75705597D01*
X219801399Y-75717333D01*
X219825224Y-75724560D01*
X219849482Y-75726999D01*
X229542008Y-75766561D01*
X229545447Y-75770000D01*
X229437628Y-75877819D01*
X229347123Y-76013269D01*
X229284782Y-76163773D01*
X229253000Y-76323548D01*
X229253000Y-76486452D01*
X229284782Y-76646227D01*
X229347123Y-76796731D01*
X229437628Y-76932181D01*
X229545447Y-77040000D01*
X229437628Y-77147819D01*
X229347123Y-77283269D01*
X229284782Y-77433773D01*
X229253000Y-77593548D01*
X229253000Y-77756452D01*
X229284782Y-77916227D01*
X229347123Y-78066731D01*
X229437628Y-78202181D01*
X229552819Y-78317372D01*
X229688269Y-78407877D01*
X229838773Y-78470218D01*
X229998548Y-78502000D01*
X230161452Y-78502000D01*
X230290993Y-78476232D01*
X230319463Y-78529494D01*
X230398815Y-78626185D01*
X230495506Y-78705537D01*
X230605820Y-78764502D01*
X230725518Y-78800812D01*
X230850000Y-78813072D01*
X231064250Y-78810000D01*
X231223000Y-78651250D01*
X231223000Y-77802000D01*
X231203000Y-77802000D01*
X231203000Y-77548000D01*
X231223000Y-77548000D01*
X231223000Y-77528000D01*
X231477000Y-77528000D01*
X231477000Y-77548000D01*
X231497000Y-77548000D01*
X231497000Y-77802000D01*
X231477000Y-77802000D01*
X231477000Y-78651250D01*
X231635750Y-78810000D01*
X231850000Y-78813072D01*
X231973000Y-78800958D01*
X231973000Y-79822127D01*
X231965103Y-79819732D01*
X231901000Y-79813418D01*
X230351000Y-79813418D01*
X230286897Y-79819732D01*
X230225257Y-79838430D01*
X230168450Y-79868794D01*
X230118657Y-79909657D01*
X230077794Y-79959450D01*
X230047430Y-80016257D01*
X230028732Y-80077897D01*
X230022418Y-80142000D01*
X230022418Y-80742000D01*
X230028732Y-80806103D01*
X230047430Y-80867743D01*
X230077794Y-80924550D01*
X230118657Y-80974343D01*
X230168450Y-81015206D01*
X230225257Y-81045570D01*
X230286897Y-81064268D01*
X230351000Y-81070582D01*
X231901000Y-81070582D01*
X231965103Y-81064268D01*
X231973000Y-81061873D01*
X231973000Y-81092127D01*
X231965103Y-81089732D01*
X231901000Y-81083418D01*
X230351000Y-81083418D01*
X230286897Y-81089732D01*
X230225257Y-81108430D01*
X230168450Y-81138794D01*
X230118657Y-81179657D01*
X230077794Y-81229450D01*
X230047430Y-81286257D01*
X230028732Y-81347897D01*
X230022418Y-81412000D01*
X230022418Y-82012000D01*
X230028732Y-82076103D01*
X230047430Y-82137743D01*
X230077794Y-82194550D01*
X230118657Y-82244343D01*
X230168450Y-82285206D01*
X230225257Y-82315570D01*
X230286897Y-82334268D01*
X230351000Y-82340582D01*
X231901000Y-82340582D01*
X231965103Y-82334268D01*
X231973000Y-82331873D01*
X231973000Y-82362127D01*
X231965103Y-82359732D01*
X231901000Y-82353418D01*
X230351000Y-82353418D01*
X230286897Y-82359732D01*
X230225257Y-82378430D01*
X230168450Y-82408794D01*
X230118657Y-82449657D01*
X230077794Y-82499450D01*
X230047430Y-82556257D01*
X230028732Y-82617897D01*
X230022418Y-82682000D01*
X230022418Y-83282000D01*
X230028732Y-83346103D01*
X230047430Y-83407743D01*
X230077794Y-83464550D01*
X230118657Y-83514343D01*
X230168450Y-83555206D01*
X230225257Y-83585570D01*
X230286897Y-83604268D01*
X230351000Y-83610582D01*
X231901000Y-83610582D01*
X231965103Y-83604268D01*
X231973000Y-83601873D01*
X231973000Y-83632127D01*
X231965103Y-83629732D01*
X231901000Y-83623418D01*
X230351000Y-83623418D01*
X230286897Y-83629732D01*
X230225257Y-83648430D01*
X230168450Y-83678794D01*
X230118657Y-83719657D01*
X230077794Y-83769450D01*
X230047430Y-83826257D01*
X230028732Y-83887897D01*
X230022418Y-83952000D01*
X230022418Y-84552000D01*
X230028732Y-84616103D01*
X230047430Y-84677743D01*
X230077794Y-84734550D01*
X230118657Y-84784343D01*
X230168450Y-84825206D01*
X230225257Y-84855570D01*
X230286897Y-84874268D01*
X230351000Y-84880582D01*
X231901000Y-84880582D01*
X231965103Y-84874268D01*
X231973000Y-84871873D01*
X231973000Y-89822489D01*
X230352748Y-89815982D01*
X230389176Y-89761464D01*
X230430787Y-89661006D01*
X230452000Y-89554361D01*
X230452000Y-89445627D01*
X230430787Y-89338982D01*
X230389176Y-89238524D01*
X230328766Y-89148114D01*
X230251880Y-89071228D01*
X230161470Y-89010818D01*
X230061012Y-88969207D01*
X229954367Y-88947994D01*
X229845633Y-88947994D01*
X229738988Y-88969207D01*
X229638530Y-89010818D01*
X229548120Y-89071228D01*
X229471234Y-89148114D01*
X229410824Y-89238524D01*
X229369213Y-89338982D01*
X229348000Y-89445627D01*
X229348000Y-89554361D01*
X229369213Y-89661006D01*
X229410824Y-89761464D01*
X229444815Y-89812336D01*
X219777000Y-89773509D01*
X219777000Y-88750000D01*
X223816189Y-88750000D01*
X223827407Y-88863896D01*
X223860629Y-88973415D01*
X223914579Y-89074348D01*
X223987183Y-89162817D01*
X224075652Y-89235421D01*
X224176585Y-89289371D01*
X224286104Y-89322593D01*
X224371460Y-89331000D01*
X225271460Y-89331000D01*
X225300000Y-89333811D01*
X225328540Y-89331000D01*
X225413896Y-89322593D01*
X225523415Y-89289371D01*
X225624348Y-89235421D01*
X225712817Y-89162817D01*
X225731017Y-89140640D01*
X225982140Y-88889517D01*
X226004317Y-88871317D01*
X226076921Y-88782848D01*
X226130871Y-88681915D01*
X226164093Y-88572396D01*
X226172500Y-88487040D01*
X226172500Y-88487038D01*
X226175311Y-88458501D01*
X226172500Y-88429964D01*
X226172500Y-87613814D01*
X226266500Y-87623072D01*
X226275750Y-87620000D01*
X226434500Y-87461250D01*
X226434500Y-86792000D01*
X226688500Y-86792000D01*
X226688500Y-87461250D01*
X226847250Y-87620000D01*
X226856500Y-87623072D01*
X226980982Y-87610812D01*
X227100680Y-87574502D01*
X227210994Y-87515537D01*
X227307685Y-87436185D01*
X227387037Y-87339494D01*
X227446002Y-87229180D01*
X227482312Y-87109482D01*
X227494572Y-86985000D01*
X227491500Y-86950750D01*
X227332750Y-86792000D01*
X226688500Y-86792000D01*
X226434500Y-86792000D01*
X226414500Y-86792000D01*
X226414500Y-86538000D01*
X226434500Y-86538000D01*
X226434500Y-85868750D01*
X226688500Y-85868750D01*
X226688500Y-86538000D01*
X227332750Y-86538000D01*
X227491500Y-86379250D01*
X227494572Y-86345000D01*
X227482312Y-86220518D01*
X227446002Y-86100820D01*
X227387037Y-85990506D01*
X227307685Y-85893815D01*
X227210994Y-85814463D01*
X227100680Y-85755498D01*
X226980982Y-85719188D01*
X226856500Y-85706928D01*
X226847250Y-85710000D01*
X226688500Y-85868750D01*
X226434500Y-85868750D01*
X226275750Y-85710000D01*
X226266500Y-85706928D01*
X226142018Y-85719188D01*
X226022320Y-85755498D01*
X225912006Y-85814463D01*
X225877000Y-85843192D01*
X225877000Y-85770633D01*
X225855787Y-85663988D01*
X225814176Y-85563530D01*
X225753766Y-85473120D01*
X225676880Y-85396234D01*
X225586470Y-85335824D01*
X225486012Y-85294213D01*
X225379367Y-85273000D01*
X225270633Y-85273000D01*
X225163988Y-85294213D01*
X225063530Y-85335824D01*
X224973120Y-85396234D01*
X224896234Y-85473120D01*
X224835824Y-85563530D01*
X224794213Y-85663988D01*
X224773000Y-85770633D01*
X224773000Y-85879367D01*
X224794213Y-85986012D01*
X224835824Y-86086470D01*
X224896234Y-86176880D01*
X224973120Y-86253766D01*
X225018260Y-86283928D01*
X225004158Y-86310311D01*
X224977066Y-86399621D01*
X224967918Y-86492500D01*
X224967918Y-86837500D01*
X224977066Y-86930379D01*
X225004158Y-87019689D01*
X225010500Y-87031555D01*
X225010501Y-88169000D01*
X224371460Y-88169000D01*
X224286104Y-88177407D01*
X224176585Y-88210629D01*
X224075652Y-88264579D01*
X223987183Y-88337183D01*
X223914579Y-88425652D01*
X223860629Y-88526585D01*
X223827407Y-88636104D01*
X223816189Y-88750000D01*
X219777000Y-88750000D01*
X219777000Y-87066959D01*
X219781188Y-87109482D01*
X219817498Y-87229180D01*
X219876463Y-87339494D01*
X219955815Y-87436185D01*
X220052506Y-87515537D01*
X220162820Y-87574502D01*
X220282518Y-87610812D01*
X220407000Y-87623072D01*
X220416250Y-87620000D01*
X220575000Y-87461250D01*
X220575000Y-86792000D01*
X220555000Y-86792000D01*
X220555000Y-86538000D01*
X220575000Y-86538000D01*
X220575000Y-85868750D01*
X220551883Y-85845633D01*
X220673000Y-85845633D01*
X220673000Y-85954367D01*
X220694213Y-86061012D01*
X220735824Y-86161470D01*
X220796234Y-86251880D01*
X220829000Y-86284646D01*
X220829000Y-86538000D01*
X220849000Y-86538000D01*
X220849000Y-86792000D01*
X220829000Y-86792000D01*
X220829000Y-87461250D01*
X220987750Y-87620000D01*
X220997000Y-87623072D01*
X221121482Y-87610812D01*
X221241180Y-87574502D01*
X221351494Y-87515537D01*
X221448185Y-87436185D01*
X221527537Y-87339494D01*
X221541387Y-87313582D01*
X221819500Y-87313582D01*
X221912379Y-87304434D01*
X222001689Y-87277342D01*
X222074962Y-87238178D01*
X222080896Y-87237593D01*
X222102630Y-87231000D01*
X222378540Y-87231000D01*
X222463896Y-87222593D01*
X222573415Y-87189371D01*
X222674348Y-87135421D01*
X222762817Y-87062817D01*
X222835421Y-86974348D01*
X222889371Y-86873415D01*
X222922593Y-86763896D01*
X222933811Y-86650000D01*
X222922593Y-86536104D01*
X222889371Y-86426585D01*
X222835421Y-86325652D01*
X222762817Y-86237183D01*
X222741810Y-86219943D01*
X222764176Y-86186470D01*
X222805787Y-86086012D01*
X222827000Y-85979367D01*
X222827000Y-85870633D01*
X222805787Y-85763988D01*
X222764176Y-85663530D01*
X222703766Y-85573120D01*
X222626880Y-85496234D01*
X222536470Y-85435824D01*
X222436012Y-85394213D01*
X222329367Y-85373000D01*
X222220633Y-85373000D01*
X222113988Y-85394213D01*
X222013530Y-85435824D01*
X221923120Y-85496234D01*
X221846234Y-85573120D01*
X221785824Y-85663530D01*
X221755178Y-85737517D01*
X221714176Y-85638530D01*
X221653766Y-85548120D01*
X221576880Y-85471234D01*
X221486470Y-85410824D01*
X221386012Y-85369213D01*
X221279367Y-85348000D01*
X221170633Y-85348000D01*
X221063988Y-85369213D01*
X220963530Y-85410824D01*
X220873120Y-85471234D01*
X220796234Y-85548120D01*
X220735824Y-85638530D01*
X220694213Y-85738988D01*
X220673000Y-85845633D01*
X220551883Y-85845633D01*
X220416250Y-85710000D01*
X220407000Y-85706928D01*
X220282518Y-85719188D01*
X220162820Y-85755498D01*
X220052506Y-85814463D01*
X219955815Y-85893815D01*
X219876463Y-85990506D01*
X219817498Y-86100820D01*
X219781188Y-86220518D01*
X219777000Y-86263041D01*
X219777000Y-84552000D01*
X219806928Y-84552000D01*
X219819188Y-84676482D01*
X219855498Y-84796180D01*
X219914463Y-84906494D01*
X219993815Y-85003185D01*
X220090506Y-85082537D01*
X220200820Y-85141502D01*
X220320518Y-85177812D01*
X220445000Y-85190072D01*
X220934250Y-85187000D01*
X221093000Y-85028250D01*
X221093000Y-84379000D01*
X221347000Y-84379000D01*
X221347000Y-85028250D01*
X221505750Y-85187000D01*
X221995000Y-85190072D01*
X222119482Y-85177812D01*
X222239180Y-85141502D01*
X222349494Y-85082537D01*
X222446185Y-85003185D01*
X222525537Y-84906494D01*
X222584502Y-84796180D01*
X222620812Y-84676482D01*
X222633072Y-84552000D01*
X222630000Y-84537750D01*
X222471250Y-84379000D01*
X221347000Y-84379000D01*
X221093000Y-84379000D01*
X219968750Y-84379000D01*
X219810000Y-84537750D01*
X219806928Y-84552000D01*
X219777000Y-84552000D01*
X219777000Y-83282000D01*
X219806928Y-83282000D01*
X219819188Y-83406482D01*
X219855498Y-83526180D01*
X219904043Y-83617000D01*
X219855498Y-83707820D01*
X219819188Y-83827518D01*
X219806928Y-83952000D01*
X219810000Y-83966250D01*
X219968750Y-84125000D01*
X221093000Y-84125000D01*
X221093000Y-83109000D01*
X221347000Y-83109000D01*
X221347000Y-84125000D01*
X222471250Y-84125000D01*
X222630000Y-83966250D01*
X222633072Y-83952000D01*
X222620812Y-83827518D01*
X222584502Y-83707820D01*
X222535957Y-83617000D01*
X222584502Y-83526180D01*
X222620812Y-83406482D01*
X222633072Y-83282000D01*
X222630000Y-83267750D01*
X222471250Y-83109000D01*
X221347000Y-83109000D01*
X221093000Y-83109000D01*
X219968750Y-83109000D01*
X219810000Y-83267750D01*
X219806928Y-83282000D01*
X219777000Y-83282000D01*
X219777000Y-82768052D01*
X219829401Y-82715651D01*
X219968750Y-82855000D01*
X221093000Y-82855000D01*
X221093000Y-82835000D01*
X221347000Y-82835000D01*
X221347000Y-82855000D01*
X222471250Y-82855000D01*
X222630000Y-82696250D01*
X222633072Y-82682000D01*
X222620812Y-82557518D01*
X222584502Y-82437820D01*
X222537563Y-82350004D01*
X223052387Y-82350004D01*
X223053175Y-82358004D01*
X223052387Y-82366004D01*
X223055504Y-82397653D01*
X223055504Y-82397660D01*
X223062825Y-82471989D01*
X223064830Y-82492348D01*
X223101683Y-82613836D01*
X223161529Y-82725800D01*
X223242069Y-82823939D01*
X223266662Y-82844122D01*
X223721887Y-83299347D01*
X223742065Y-83323935D01*
X223766653Y-83344114D01*
X223837886Y-83415347D01*
X223858065Y-83439935D01*
X223882652Y-83460113D01*
X223882654Y-83460115D01*
X223918065Y-83489176D01*
X223956203Y-83520475D01*
X224055587Y-83573597D01*
X224068167Y-83580321D01*
X224189655Y-83617174D01*
X224201080Y-83618299D01*
X224284343Y-83626500D01*
X224284350Y-83626500D01*
X224316000Y-83629617D01*
X224347649Y-83626500D01*
X224919710Y-83626500D01*
X224886897Y-83629732D01*
X224825257Y-83648430D01*
X224768450Y-83678794D01*
X224718657Y-83719657D01*
X224677794Y-83769450D01*
X224647430Y-83826257D01*
X224628732Y-83887897D01*
X224622418Y-83952000D01*
X224622418Y-84552000D01*
X224628732Y-84616103D01*
X224647430Y-84677743D01*
X224677794Y-84734550D01*
X224718657Y-84784343D01*
X224768450Y-84825206D01*
X224825257Y-84855570D01*
X224886897Y-84874268D01*
X224951000Y-84880582D01*
X226501000Y-84880582D01*
X226565103Y-84874268D01*
X226626743Y-84855570D01*
X226683550Y-84825206D01*
X226733057Y-84784578D01*
X226820633Y-84801998D01*
X226929367Y-84801998D01*
X227036012Y-84780785D01*
X227073000Y-84765464D01*
X227073000Y-84854367D01*
X227094213Y-84961012D01*
X227135824Y-85061470D01*
X227196234Y-85151880D01*
X227273120Y-85228766D01*
X227363530Y-85289176D01*
X227463988Y-85330787D01*
X227570633Y-85352000D01*
X227679367Y-85352000D01*
X227786012Y-85330787D01*
X227886470Y-85289176D01*
X227976880Y-85228766D01*
X228053766Y-85151880D01*
X228114176Y-85061470D01*
X228155787Y-84961012D01*
X228177000Y-84854367D01*
X228177000Y-84745633D01*
X228155787Y-84638988D01*
X228142500Y-84606910D01*
X228142500Y-84089471D01*
X228145003Y-84064058D01*
X228135011Y-83962610D01*
X228133009Y-83956011D01*
X228105420Y-83865061D01*
X228097039Y-83849380D01*
X228129547Y-83842914D01*
X228230005Y-83801303D01*
X228320415Y-83740893D01*
X228397301Y-83664007D01*
X228457711Y-83573597D01*
X228499322Y-83473139D01*
X228520535Y-83366494D01*
X228520535Y-83257760D01*
X228499322Y-83151115D01*
X228457711Y-83050657D01*
X228397301Y-82960247D01*
X228320415Y-82883361D01*
X228230005Y-82822951D01*
X228193112Y-82807669D01*
X228193927Y-82805702D01*
X228215140Y-82699057D01*
X228215140Y-82590323D01*
X228193927Y-82483678D01*
X228152316Y-82383220D01*
X228091906Y-82292810D01*
X228015020Y-82215924D01*
X227924610Y-82155514D01*
X227824152Y-82113903D01*
X227717507Y-82092690D01*
X227608773Y-82092690D01*
X227565139Y-82101369D01*
X227565139Y-81220633D01*
X228573000Y-81220633D01*
X228573000Y-81329367D01*
X228594213Y-81436012D01*
X228635824Y-81536470D01*
X228696234Y-81626880D01*
X228773120Y-81703766D01*
X228863530Y-81764176D01*
X228963988Y-81805787D01*
X229070633Y-81827000D01*
X229179367Y-81827000D01*
X229286012Y-81805787D01*
X229386470Y-81764176D01*
X229476880Y-81703766D01*
X229553766Y-81626880D01*
X229614176Y-81536470D01*
X229655787Y-81436012D01*
X229677000Y-81329367D01*
X229677000Y-81220633D01*
X229655787Y-81113988D01*
X229614176Y-81013530D01*
X229553766Y-80923120D01*
X229476880Y-80846234D01*
X229386470Y-80785824D01*
X229286012Y-80744213D01*
X229179367Y-80723000D01*
X229070633Y-80723000D01*
X228963988Y-80744213D01*
X228863530Y-80785824D01*
X228773120Y-80846234D01*
X228696234Y-80923120D01*
X228635824Y-81013530D01*
X228594213Y-81113988D01*
X228573000Y-81220633D01*
X227565139Y-81220633D01*
X227565139Y-80633052D01*
X227567642Y-80607639D01*
X227557650Y-80506191D01*
X227538178Y-80442000D01*
X227528059Y-80408642D01*
X227480006Y-80318741D01*
X227415337Y-80239941D01*
X227395586Y-80223732D01*
X227265904Y-80094049D01*
X227249698Y-80074302D01*
X227170898Y-80009633D01*
X227080997Y-79961580D01*
X226983448Y-79931989D01*
X226907413Y-79924500D01*
X226882000Y-79921997D01*
X226856587Y-79924500D01*
X226745524Y-79924500D01*
X226733343Y-79909657D01*
X226683550Y-79868794D01*
X226626743Y-79838430D01*
X226565103Y-79819732D01*
X226501000Y-79813418D01*
X224951000Y-79813418D01*
X224886897Y-79819732D01*
X224825257Y-79838430D01*
X224768450Y-79868794D01*
X224718657Y-79909657D01*
X224677794Y-79959450D01*
X224647430Y-80016257D01*
X224628732Y-80077897D01*
X224622418Y-80142000D01*
X224622418Y-80742000D01*
X224628732Y-80806103D01*
X224643906Y-80856127D01*
X224596506Y-80881463D01*
X224499815Y-80960815D01*
X224420463Y-81057506D01*
X224361498Y-81167820D01*
X224325188Y-81287518D01*
X224312928Y-81412000D01*
X224316000Y-81426250D01*
X224474750Y-81585000D01*
X225599000Y-81585000D01*
X225599000Y-81565000D01*
X225853000Y-81565000D01*
X225853000Y-81585000D01*
X225873000Y-81585000D01*
X225873000Y-81839000D01*
X225853000Y-81839000D01*
X225853000Y-81859000D01*
X225599000Y-81859000D01*
X225599000Y-81839000D01*
X224474750Y-81839000D01*
X224316000Y-81997750D01*
X224312928Y-82012000D01*
X224317240Y-82055780D01*
X224178121Y-81916661D01*
X224157939Y-81892069D01*
X224059801Y-81811529D01*
X223947837Y-81751683D01*
X223826348Y-81714830D01*
X223700004Y-81702386D01*
X223584988Y-81713714D01*
X223573660Y-81714830D01*
X223452172Y-81751683D01*
X223340208Y-81811529D01*
X223242069Y-81892069D01*
X223161529Y-81990207D01*
X223101683Y-82102171D01*
X223064830Y-82223660D01*
X223055504Y-82318347D01*
X223055504Y-82318355D01*
X223052387Y-82350004D01*
X222537563Y-82350004D01*
X222525537Y-82327506D01*
X222446185Y-82230815D01*
X222349494Y-82151463D01*
X222302094Y-82126127D01*
X222317268Y-82076103D01*
X222323582Y-82012000D01*
X222323582Y-81412000D01*
X222317268Y-81347897D01*
X222298570Y-81286257D01*
X222268206Y-81229450D01*
X222227343Y-81179657D01*
X222177550Y-81138794D01*
X222120743Y-81108430D01*
X222059103Y-81089732D01*
X221995000Y-81083418D01*
X220452000Y-81083418D01*
X220452000Y-81070582D01*
X221995000Y-81070582D01*
X222059103Y-81064268D01*
X222120743Y-81045570D01*
X222177550Y-81015206D01*
X222227343Y-80974343D01*
X222268206Y-80924550D01*
X222298570Y-80867743D01*
X222317268Y-80806103D01*
X222323582Y-80742000D01*
X222323582Y-80142000D01*
X222317268Y-80077897D01*
X222298570Y-80016257D01*
X222268206Y-79959450D01*
X222227343Y-79909657D01*
X222177550Y-79868794D01*
X222120743Y-79838430D01*
X222059103Y-79819732D01*
X221995000Y-79813418D01*
X221729974Y-79813418D01*
X221770198Y-79753218D01*
X221811809Y-79652760D01*
X221833022Y-79546115D01*
X221833022Y-79437381D01*
X221811809Y-79330736D01*
X221792797Y-79284837D01*
X221801880Y-79278768D01*
X221878766Y-79201882D01*
X221939176Y-79111472D01*
X221980787Y-79011014D01*
X222002000Y-78904369D01*
X222002000Y-78795635D01*
X221980787Y-78688990D01*
X221939176Y-78588532D01*
X221878766Y-78498122D01*
X221801880Y-78421236D01*
X221711470Y-78360826D01*
X221611012Y-78319215D01*
X221504367Y-78298002D01*
X221395633Y-78298002D01*
X221288988Y-78319215D01*
X221188530Y-78360826D01*
X221098120Y-78421236D01*
X221021234Y-78498122D01*
X220960824Y-78588532D01*
X220919213Y-78688990D01*
X220898000Y-78795635D01*
X220898000Y-78904369D01*
X220919213Y-79011014D01*
X220938225Y-79056913D01*
X220929142Y-79062982D01*
X220852256Y-79139868D01*
X220791846Y-79230278D01*
X220750235Y-79330736D01*
X220729022Y-79437381D01*
X220729022Y-79546115D01*
X220750235Y-79652760D01*
X220791846Y-79753218D01*
X220832070Y-79813418D01*
X220445000Y-79813418D01*
X220380897Y-79819732D01*
X220319257Y-79838430D01*
X220262450Y-79868794D01*
X220212657Y-79909657D01*
X220171794Y-79959450D01*
X220156534Y-79988000D01*
X219760367Y-79988000D01*
X219738079Y-79985805D01*
X219715791Y-79988000D01*
X219715785Y-79988000D01*
X219658381Y-79993654D01*
X219649080Y-79994570D01*
X219577587Y-80016257D01*
X219563501Y-80020530D01*
X219484631Y-80062687D01*
X219484629Y-80062688D01*
X219484630Y-80062688D01*
X219442056Y-80097628D01*
X219415501Y-80119421D01*
X219401290Y-80136737D01*
X217844742Y-81693286D01*
X217827421Y-81707501D01*
X217770687Y-81776632D01*
X217737351Y-81839000D01*
X217728530Y-81855502D01*
X217706725Y-81927386D01*
X217702570Y-81941082D01*
X217696000Y-82007786D01*
X217696000Y-82007792D01*
X217693805Y-82030080D01*
X217696000Y-82052368D01*
X217696000Y-82173000D01*
X217209734Y-82173000D01*
X217220812Y-82136482D01*
X217233072Y-82012000D01*
X217230000Y-81997750D01*
X217071250Y-81839000D01*
X215947000Y-81839000D01*
X215947000Y-81859000D01*
X215693000Y-81859000D01*
X215693000Y-81839000D01*
X215673000Y-81839000D01*
X215673000Y-81585000D01*
X215693000Y-81585000D01*
X215693000Y-81565000D01*
X215947000Y-81565000D01*
X215947000Y-81585000D01*
X217071250Y-81585000D01*
X217230000Y-81426250D01*
X217233072Y-81412000D01*
X217220812Y-81287518D01*
X217184502Y-81167820D01*
X217125537Y-81057506D01*
X217046185Y-80960815D01*
X216949494Y-80881463D01*
X216902094Y-80856127D01*
X216917268Y-80806103D01*
X216923582Y-80742000D01*
X216923582Y-80142000D01*
X216917268Y-80077897D01*
X216898570Y-80016257D01*
X216868206Y-79959450D01*
X216827343Y-79909657D01*
X216777550Y-79868794D01*
X216720743Y-79838430D01*
X216659103Y-79819732D01*
X216595000Y-79813418D01*
X215045000Y-79813418D01*
X214980897Y-79819732D01*
X214919257Y-79838430D01*
X214862450Y-79868794D01*
X214812657Y-79909657D01*
X214800476Y-79924500D01*
X214791576Y-79924500D01*
X214816293Y-75895633D01*
X217798000Y-75895633D01*
X217798000Y-76004367D01*
X217819213Y-76111012D01*
X217860824Y-76211470D01*
X217921234Y-76301880D01*
X217998120Y-76378766D01*
X218088530Y-76439176D01*
X218175017Y-76475000D01*
X218088530Y-76510824D01*
X217998120Y-76571234D01*
X217921234Y-76648120D01*
X217860824Y-76738530D01*
X217819213Y-76838988D01*
X217798000Y-76945633D01*
X217798000Y-77054367D01*
X217819213Y-77161012D01*
X217860824Y-77261470D01*
X217921234Y-77351880D01*
X217998120Y-77428766D01*
X218088530Y-77489176D01*
X218188988Y-77530787D01*
X218295633Y-77552000D01*
X218404367Y-77552000D01*
X218511012Y-77530787D01*
X218611470Y-77489176D01*
X218701880Y-77428766D01*
X218778766Y-77351880D01*
X218833053Y-77270633D01*
X223998000Y-77270633D01*
X223998000Y-77379367D01*
X224019213Y-77486012D01*
X224060824Y-77586470D01*
X224121234Y-77676880D01*
X224198120Y-77753766D01*
X224288530Y-77814176D01*
X224388988Y-77855787D01*
X224495633Y-77877000D01*
X224604367Y-77877000D01*
X224711012Y-77855787D01*
X224811470Y-77814176D01*
X224901880Y-77753766D01*
X224978766Y-77676880D01*
X225039176Y-77586470D01*
X225046964Y-77567669D01*
X225138988Y-77605787D01*
X225245633Y-77627000D01*
X225354367Y-77627000D01*
X225461012Y-77605787D01*
X225561470Y-77564176D01*
X225651880Y-77503766D01*
X225728766Y-77426880D01*
X225789176Y-77336470D01*
X225830787Y-77236012D01*
X225852000Y-77129367D01*
X225852000Y-77020633D01*
X225830787Y-76913988D01*
X225789176Y-76813530D01*
X225728766Y-76723120D01*
X225651880Y-76646234D01*
X225561470Y-76585824D01*
X225461012Y-76544213D01*
X225354367Y-76523000D01*
X225245633Y-76523000D01*
X225138988Y-76544213D01*
X225038530Y-76585824D01*
X224948120Y-76646234D01*
X224871234Y-76723120D01*
X224810824Y-76813530D01*
X224803036Y-76832331D01*
X224711012Y-76794213D01*
X224604367Y-76773000D01*
X224495633Y-76773000D01*
X224388988Y-76794213D01*
X224288530Y-76835824D01*
X224198120Y-76896234D01*
X224121234Y-76973120D01*
X224060824Y-77063530D01*
X224019213Y-77163988D01*
X223998000Y-77270633D01*
X218833053Y-77270633D01*
X218839176Y-77261470D01*
X218880787Y-77161012D01*
X218902000Y-77054367D01*
X218902000Y-76945633D01*
X218880787Y-76838988D01*
X218839176Y-76738530D01*
X218778766Y-76648120D01*
X218701880Y-76571234D01*
X218611470Y-76510824D01*
X218524983Y-76475000D01*
X218611470Y-76439176D01*
X218701880Y-76378766D01*
X218778766Y-76301880D01*
X218839176Y-76211470D01*
X218880787Y-76111012D01*
X218902000Y-76004367D01*
X218902000Y-75895633D01*
X218880787Y-75788988D01*
X218839176Y-75688530D01*
X218778766Y-75598120D01*
X218701880Y-75521234D01*
X218611470Y-75460824D01*
X218511012Y-75419213D01*
X218404367Y-75398000D01*
X218295633Y-75398000D01*
X218188988Y-75419213D01*
X218088530Y-75460824D01*
X217998120Y-75521234D01*
X217921234Y-75598120D01*
X217860824Y-75688530D01*
X217819213Y-75788988D01*
X217798000Y-75895633D01*
X214816293Y-75895633D01*
X214826998Y-74150779D01*
X214824709Y-74125988D01*
X214817629Y-74102120D01*
X214806028Y-74080092D01*
X214790352Y-74060750D01*
X214771204Y-74044838D01*
X214749320Y-74032968D01*
X214725540Y-74025595D01*
X214698329Y-74023011D01*
X213543884Y-74038201D01*
X213671641Y-73866920D01*
X213796825Y-73604099D01*
X213841476Y-73456890D01*
X213720155Y-73227000D01*
X212527000Y-73227000D01*
X212527000Y-73247000D01*
X212273000Y-73247000D01*
X212273000Y-73227000D01*
X212253000Y-73227000D01*
X212253000Y-72973000D01*
X212273000Y-72973000D01*
X212273000Y-72953000D01*
X212527000Y-72953000D01*
X212527000Y-72973000D01*
X213720155Y-72973000D01*
X213841476Y-72743110D01*
X213796825Y-72595901D01*
X213671641Y-72333080D01*
X213497588Y-72099731D01*
X213305959Y-71927000D01*
X213700000Y-71927000D01*
X213724776Y-71924560D01*
X213748601Y-71917333D01*
X213770557Y-71905597D01*
X213789803Y-71889803D01*
X213805597Y-71870557D01*
X213817333Y-71848601D01*
X213824560Y-71824776D01*
X213827000Y-71800000D01*
X213827000Y-69309160D01*
X214931500Y-69560591D01*
G37*
X214931500Y-69560591D02*
X214931500Y-73066039D01*
X214939907Y-73151395D01*
X214973129Y-73260914D01*
X215027079Y-73361847D01*
X215099683Y-73450317D01*
X215188152Y-73522921D01*
X215289085Y-73576871D01*
X215398604Y-73610093D01*
X215512500Y-73621311D01*
X215626395Y-73610093D01*
X215735914Y-73576871D01*
X215836847Y-73522921D01*
X215925317Y-73450317D01*
X215997921Y-73361848D01*
X216051871Y-73260915D01*
X216085093Y-73151396D01*
X216093500Y-73066040D01*
X216093500Y-69825111D01*
X219723000Y-70651338D01*
X219723000Y-75600000D01*
X219725440Y-75624776D01*
X219732667Y-75648601D01*
X219744403Y-75670557D01*
X219760197Y-75689803D01*
X219779443Y-75705597D01*
X219801399Y-75717333D01*
X219825224Y-75724560D01*
X219849482Y-75726999D01*
X229542008Y-75766561D01*
X229545447Y-75770000D01*
X229437628Y-75877819D01*
X229347123Y-76013269D01*
X229284782Y-76163773D01*
X229253000Y-76323548D01*
X229253000Y-76486452D01*
X229284782Y-76646227D01*
X229347123Y-76796731D01*
X229437628Y-76932181D01*
X229545447Y-77040000D01*
X229437628Y-77147819D01*
X229347123Y-77283269D01*
X229284782Y-77433773D01*
X229253000Y-77593548D01*
X229253000Y-77756452D01*
X229284782Y-77916227D01*
X229347123Y-78066731D01*
X229437628Y-78202181D01*
X229552819Y-78317372D01*
X229688269Y-78407877D01*
X229838773Y-78470218D01*
X229998548Y-78502000D01*
X230161452Y-78502000D01*
X230290993Y-78476232D01*
X230319463Y-78529494D01*
X230398815Y-78626185D01*
X230495506Y-78705537D01*
X230605820Y-78764502D01*
X230725518Y-78800812D01*
X230850000Y-78813072D01*
X231064250Y-78810000D01*
X231223000Y-78651250D01*
X231223000Y-77802000D01*
X231203000Y-77802000D01*
X231203000Y-77548000D01*
X231223000Y-77548000D01*
X231223000Y-77528000D01*
X231477000Y-77528000D01*
X231477000Y-77548000D01*
X231497000Y-77548000D01*
X231497000Y-77802000D01*
X231477000Y-77802000D01*
X231477000Y-78651250D01*
X231635750Y-78810000D01*
X231850000Y-78813072D01*
X231973000Y-78800958D01*
X231973000Y-79822127D01*
X231965103Y-79819732D01*
X231901000Y-79813418D01*
X230351000Y-79813418D01*
X230286897Y-79819732D01*
X230225257Y-79838430D01*
X230168450Y-79868794D01*
X230118657Y-79909657D01*
X230077794Y-79959450D01*
X230047430Y-80016257D01*
X230028732Y-80077897D01*
X230022418Y-80142000D01*
X230022418Y-80742000D01*
X230028732Y-80806103D01*
X230047430Y-80867743D01*
X230077794Y-80924550D01*
X230118657Y-80974343D01*
X230168450Y-81015206D01*
X230225257Y-81045570D01*
X230286897Y-81064268D01*
X230351000Y-81070582D01*
X231901000Y-81070582D01*
X231965103Y-81064268D01*
X231973000Y-81061873D01*
X231973000Y-81092127D01*
X231965103Y-81089732D01*
X231901000Y-81083418D01*
X230351000Y-81083418D01*
X230286897Y-81089732D01*
X230225257Y-81108430D01*
X230168450Y-81138794D01*
X230118657Y-81179657D01*
X230077794Y-81229450D01*
X230047430Y-81286257D01*
X230028732Y-81347897D01*
X230022418Y-81412000D01*
X230022418Y-82012000D01*
X230028732Y-82076103D01*
X230047430Y-82137743D01*
X230077794Y-82194550D01*
X230118657Y-82244343D01*
X230168450Y-82285206D01*
X230225257Y-82315570D01*
X230286897Y-82334268D01*
X230351000Y-82340582D01*
X231901000Y-82340582D01*
X231965103Y-82334268D01*
X231973000Y-82331873D01*
X231973000Y-82362127D01*
X231965103Y-82359732D01*
X231901000Y-82353418D01*
X230351000Y-82353418D01*
X230286897Y-82359732D01*
X230225257Y-82378430D01*
X230168450Y-82408794D01*
X230118657Y-82449657D01*
X230077794Y-82499450D01*
X230047430Y-82556257D01*
X230028732Y-82617897D01*
X230022418Y-82682000D01*
X230022418Y-83282000D01*
X230028732Y-83346103D01*
X230047430Y-83407743D01*
X230077794Y-83464550D01*
X230118657Y-83514343D01*
X230168450Y-83555206D01*
X230225257Y-83585570D01*
X230286897Y-83604268D01*
X230351000Y-83610582D01*
X231901000Y-83610582D01*
X231965103Y-83604268D01*
X231973000Y-83601873D01*
X231973000Y-83632127D01*
X231965103Y-83629732D01*
X231901000Y-83623418D01*
X230351000Y-83623418D01*
X230286897Y-83629732D01*
X230225257Y-83648430D01*
X230168450Y-83678794D01*
X230118657Y-83719657D01*
X230077794Y-83769450D01*
X230047430Y-83826257D01*
X230028732Y-83887897D01*
X230022418Y-83952000D01*
X230022418Y-84552000D01*
X230028732Y-84616103D01*
X230047430Y-84677743D01*
X230077794Y-84734550D01*
X230118657Y-84784343D01*
X230168450Y-84825206D01*
X230225257Y-84855570D01*
X230286897Y-84874268D01*
X230351000Y-84880582D01*
X231901000Y-84880582D01*
X231965103Y-84874268D01*
X231973000Y-84871873D01*
X231973000Y-89822489D01*
X230352748Y-89815982D01*
X230389176Y-89761464D01*
X230430787Y-89661006D01*
X230452000Y-89554361D01*
X230452000Y-89445627D01*
X230430787Y-89338982D01*
X230389176Y-89238524D01*
X230328766Y-89148114D01*
X230251880Y-89071228D01*
X230161470Y-89010818D01*
X230061012Y-88969207D01*
X229954367Y-88947994D01*
X229845633Y-88947994D01*
X229738988Y-88969207D01*
X229638530Y-89010818D01*
X229548120Y-89071228D01*
X229471234Y-89148114D01*
X229410824Y-89238524D01*
X229369213Y-89338982D01*
X229348000Y-89445627D01*
X229348000Y-89554361D01*
X229369213Y-89661006D01*
X229410824Y-89761464D01*
X229444815Y-89812336D01*
X219777000Y-89773509D01*
X219777000Y-88750000D01*
X223816189Y-88750000D01*
X223827407Y-88863896D01*
X223860629Y-88973415D01*
X223914579Y-89074348D01*
X223987183Y-89162817D01*
X224075652Y-89235421D01*
X224176585Y-89289371D01*
X224286104Y-89322593D01*
X224371460Y-89331000D01*
X225271460Y-89331000D01*
X225300000Y-89333811D01*
X225328540Y-89331000D01*
X225413896Y-89322593D01*
X225523415Y-89289371D01*
X225624348Y-89235421D01*
X225712817Y-89162817D01*
X225731017Y-89140640D01*
X225982140Y-88889517D01*
X226004317Y-88871317D01*
X226076921Y-88782848D01*
X226130871Y-88681915D01*
X226164093Y-88572396D01*
X226172500Y-88487040D01*
X226172500Y-88487038D01*
X226175311Y-88458501D01*
X226172500Y-88429964D01*
X226172500Y-87613814D01*
X226266500Y-87623072D01*
X226275750Y-87620000D01*
X226434500Y-87461250D01*
X226434500Y-86792000D01*
X226688500Y-86792000D01*
X226688500Y-87461250D01*
X226847250Y-87620000D01*
X226856500Y-87623072D01*
X226980982Y-87610812D01*
X227100680Y-87574502D01*
X227210994Y-87515537D01*
X227307685Y-87436185D01*
X227387037Y-87339494D01*
X227446002Y-87229180D01*
X227482312Y-87109482D01*
X227494572Y-86985000D01*
X227491500Y-86950750D01*
X227332750Y-86792000D01*
X226688500Y-86792000D01*
X226434500Y-86792000D01*
X226414500Y-86792000D01*
X226414500Y-86538000D01*
X226434500Y-86538000D01*
X226434500Y-85868750D01*
X226688500Y-85868750D01*
X226688500Y-86538000D01*
X227332750Y-86538000D01*
X227491500Y-86379250D01*
X227494572Y-86345000D01*
X227482312Y-86220518D01*
X227446002Y-86100820D01*
X227387037Y-85990506D01*
X227307685Y-85893815D01*
X227210994Y-85814463D01*
X227100680Y-85755498D01*
X226980982Y-85719188D01*
X226856500Y-85706928D01*
X226847250Y-85710000D01*
X226688500Y-85868750D01*
X226434500Y-85868750D01*
X226275750Y-85710000D01*
X226266500Y-85706928D01*
X226142018Y-85719188D01*
X226022320Y-85755498D01*
X225912006Y-85814463D01*
X225877000Y-85843192D01*
X225877000Y-85770633D01*
X225855787Y-85663988D01*
X225814176Y-85563530D01*
X225753766Y-85473120D01*
X225676880Y-85396234D01*
X225586470Y-85335824D01*
X225486012Y-85294213D01*
X225379367Y-85273000D01*
X225270633Y-85273000D01*
X225163988Y-85294213D01*
X225063530Y-85335824D01*
X224973120Y-85396234D01*
X224896234Y-85473120D01*
X224835824Y-85563530D01*
X224794213Y-85663988D01*
X224773000Y-85770633D01*
X224773000Y-85879367D01*
X224794213Y-85986012D01*
X224835824Y-86086470D01*
X224896234Y-86176880D01*
X224973120Y-86253766D01*
X225018260Y-86283928D01*
X225004158Y-86310311D01*
X224977066Y-86399621D01*
X224967918Y-86492500D01*
X224967918Y-86837500D01*
X224977066Y-86930379D01*
X225004158Y-87019689D01*
X225010500Y-87031555D01*
X225010501Y-88169000D01*
X224371460Y-88169000D01*
X224286104Y-88177407D01*
X224176585Y-88210629D01*
X224075652Y-88264579D01*
X223987183Y-88337183D01*
X223914579Y-88425652D01*
X223860629Y-88526585D01*
X223827407Y-88636104D01*
X223816189Y-88750000D01*
X219777000Y-88750000D01*
X219777000Y-87066959D01*
X219781188Y-87109482D01*
X219817498Y-87229180D01*
X219876463Y-87339494D01*
X219955815Y-87436185D01*
X220052506Y-87515537D01*
X220162820Y-87574502D01*
X220282518Y-87610812D01*
X220407000Y-87623072D01*
X220416250Y-87620000D01*
X220575000Y-87461250D01*
X220575000Y-86792000D01*
X220555000Y-86792000D01*
X220555000Y-86538000D01*
X220575000Y-86538000D01*
X220575000Y-85868750D01*
X220551883Y-85845633D01*
X220673000Y-85845633D01*
X220673000Y-85954367D01*
X220694213Y-86061012D01*
X220735824Y-86161470D01*
X220796234Y-86251880D01*
X220829000Y-86284646D01*
X220829000Y-86538000D01*
X220849000Y-86538000D01*
X220849000Y-86792000D01*
X220829000Y-86792000D01*
X220829000Y-87461250D01*
X220987750Y-87620000D01*
X220997000Y-87623072D01*
X221121482Y-87610812D01*
X221241180Y-87574502D01*
X221351494Y-87515537D01*
X221448185Y-87436185D01*
X221527537Y-87339494D01*
X221541387Y-87313582D01*
X221819500Y-87313582D01*
X221912379Y-87304434D01*
X222001689Y-87277342D01*
X222074962Y-87238178D01*
X222080896Y-87237593D01*
X222102630Y-87231000D01*
X222378540Y-87231000D01*
X222463896Y-87222593D01*
X222573415Y-87189371D01*
X222674348Y-87135421D01*
X222762817Y-87062817D01*
X222835421Y-86974348D01*
X222889371Y-86873415D01*
X222922593Y-86763896D01*
X222933811Y-86650000D01*
X222922593Y-86536104D01*
X222889371Y-86426585D01*
X222835421Y-86325652D01*
X222762817Y-86237183D01*
X222741810Y-86219943D01*
X222764176Y-86186470D01*
X222805787Y-86086012D01*
X222827000Y-85979367D01*
X222827000Y-85870633D01*
X222805787Y-85763988D01*
X222764176Y-85663530D01*
X222703766Y-85573120D01*
X222626880Y-85496234D01*
X222536470Y-85435824D01*
X222436012Y-85394213D01*
X222329367Y-85373000D01*
X222220633Y-85373000D01*
X222113988Y-85394213D01*
X222013530Y-85435824D01*
X221923120Y-85496234D01*
X221846234Y-85573120D01*
X221785824Y-85663530D01*
X221755178Y-85737517D01*
X221714176Y-85638530D01*
X221653766Y-85548120D01*
X221576880Y-85471234D01*
X221486470Y-85410824D01*
X221386012Y-85369213D01*
X221279367Y-85348000D01*
X221170633Y-85348000D01*
X221063988Y-85369213D01*
X220963530Y-85410824D01*
X220873120Y-85471234D01*
X220796234Y-85548120D01*
X220735824Y-85638530D01*
X220694213Y-85738988D01*
X220673000Y-85845633D01*
X220551883Y-85845633D01*
X220416250Y-85710000D01*
X220407000Y-85706928D01*
X220282518Y-85719188D01*
X220162820Y-85755498D01*
X220052506Y-85814463D01*
X219955815Y-85893815D01*
X219876463Y-85990506D01*
X219817498Y-86100820D01*
X219781188Y-86220518D01*
X219777000Y-86263041D01*
X219777000Y-84552000D01*
X219806928Y-84552000D01*
X219819188Y-84676482D01*
X219855498Y-84796180D01*
X219914463Y-84906494D01*
X219993815Y-85003185D01*
X220090506Y-85082537D01*
X220200820Y-85141502D01*
X220320518Y-85177812D01*
X220445000Y-85190072D01*
X220934250Y-85187000D01*
X221093000Y-85028250D01*
X221093000Y-84379000D01*
X221347000Y-84379000D01*
X221347000Y-85028250D01*
X221505750Y-85187000D01*
X221995000Y-85190072D01*
X222119482Y-85177812D01*
X222239180Y-85141502D01*
X222349494Y-85082537D01*
X222446185Y-85003185D01*
X222525537Y-84906494D01*
X222584502Y-84796180D01*
X222620812Y-84676482D01*
X222633072Y-84552000D01*
X222630000Y-84537750D01*
X222471250Y-84379000D01*
X221347000Y-84379000D01*
X221093000Y-84379000D01*
X219968750Y-84379000D01*
X219810000Y-84537750D01*
X219806928Y-84552000D01*
X219777000Y-84552000D01*
X219777000Y-83282000D01*
X219806928Y-83282000D01*
X219819188Y-83406482D01*
X219855498Y-83526180D01*
X219904043Y-83617000D01*
X219855498Y-83707820D01*
X219819188Y-83827518D01*
X219806928Y-83952000D01*
X219810000Y-83966250D01*
X219968750Y-84125000D01*
X221093000Y-84125000D01*
X221093000Y-83109000D01*
X221347000Y-83109000D01*
X221347000Y-84125000D01*
X222471250Y-84125000D01*
X222630000Y-83966250D01*
X222633072Y-83952000D01*
X222620812Y-83827518D01*
X222584502Y-83707820D01*
X222535957Y-83617000D01*
X222584502Y-83526180D01*
X222620812Y-83406482D01*
X222633072Y-83282000D01*
X222630000Y-83267750D01*
X222471250Y-83109000D01*
X221347000Y-83109000D01*
X221093000Y-83109000D01*
X219968750Y-83109000D01*
X219810000Y-83267750D01*
X219806928Y-83282000D01*
X219777000Y-83282000D01*
X219777000Y-82768052D01*
X219829401Y-82715651D01*
X219968750Y-82855000D01*
X221093000Y-82855000D01*
X221093000Y-82835000D01*
X221347000Y-82835000D01*
X221347000Y-82855000D01*
X222471250Y-82855000D01*
X222630000Y-82696250D01*
X222633072Y-82682000D01*
X222620812Y-82557518D01*
X222584502Y-82437820D01*
X222537563Y-82350004D01*
X223052387Y-82350004D01*
X223053175Y-82358004D01*
X223052387Y-82366004D01*
X223055504Y-82397653D01*
X223055504Y-82397660D01*
X223062825Y-82471989D01*
X223064830Y-82492348D01*
X223101683Y-82613836D01*
X223161529Y-82725800D01*
X223242069Y-82823939D01*
X223266662Y-82844122D01*
X223721887Y-83299347D01*
X223742065Y-83323935D01*
X223766653Y-83344114D01*
X223837886Y-83415347D01*
X223858065Y-83439935D01*
X223882652Y-83460113D01*
X223882654Y-83460115D01*
X223918065Y-83489176D01*
X223956203Y-83520475D01*
X224055587Y-83573597D01*
X224068167Y-83580321D01*
X224189655Y-83617174D01*
X224201080Y-83618299D01*
X224284343Y-83626500D01*
X224284350Y-83626500D01*
X224316000Y-83629617D01*
X224347649Y-83626500D01*
X224919710Y-83626500D01*
X224886897Y-83629732D01*
X224825257Y-83648430D01*
X224768450Y-83678794D01*
X224718657Y-83719657D01*
X224677794Y-83769450D01*
X224647430Y-83826257D01*
X224628732Y-83887897D01*
X224622418Y-83952000D01*
X224622418Y-84552000D01*
X224628732Y-84616103D01*
X224647430Y-84677743D01*
X224677794Y-84734550D01*
X224718657Y-84784343D01*
X224768450Y-84825206D01*
X224825257Y-84855570D01*
X224886897Y-84874268D01*
X224951000Y-84880582D01*
X226501000Y-84880582D01*
X226565103Y-84874268D01*
X226626743Y-84855570D01*
X226683550Y-84825206D01*
X226733057Y-84784578D01*
X226820633Y-84801998D01*
X226929367Y-84801998D01*
X227036012Y-84780785D01*
X227073000Y-84765464D01*
X227073000Y-84854367D01*
X227094213Y-84961012D01*
X227135824Y-85061470D01*
X227196234Y-85151880D01*
X227273120Y-85228766D01*
X227363530Y-85289176D01*
X227463988Y-85330787D01*
X227570633Y-85352000D01*
X227679367Y-85352000D01*
X227786012Y-85330787D01*
X227886470Y-85289176D01*
X227976880Y-85228766D01*
X228053766Y-85151880D01*
X228114176Y-85061470D01*
X228155787Y-84961012D01*
X228177000Y-84854367D01*
X228177000Y-84745633D01*
X228155787Y-84638988D01*
X228142500Y-84606910D01*
X228142500Y-84089471D01*
X228145003Y-84064058D01*
X228135011Y-83962610D01*
X228133009Y-83956011D01*
X228105420Y-83865061D01*
X228097039Y-83849380D01*
X228129547Y-83842914D01*
X228230005Y-83801303D01*
X228320415Y-83740893D01*
X228397301Y-83664007D01*
X228457711Y-83573597D01*
X228499322Y-83473139D01*
X228520535Y-83366494D01*
X228520535Y-83257760D01*
X228499322Y-83151115D01*
X228457711Y-83050657D01*
X228397301Y-82960247D01*
X228320415Y-82883361D01*
X228230005Y-82822951D01*
X228193112Y-82807669D01*
X228193927Y-82805702D01*
X228215140Y-82699057D01*
X228215140Y-82590323D01*
X228193927Y-82483678D01*
X228152316Y-82383220D01*
X228091906Y-82292810D01*
X228015020Y-82215924D01*
X227924610Y-82155514D01*
X227824152Y-82113903D01*
X227717507Y-82092690D01*
X227608773Y-82092690D01*
X227565139Y-82101369D01*
X227565139Y-81220633D01*
X228573000Y-81220633D01*
X228573000Y-81329367D01*
X228594213Y-81436012D01*
X228635824Y-81536470D01*
X228696234Y-81626880D01*
X228773120Y-81703766D01*
X228863530Y-81764176D01*
X228963988Y-81805787D01*
X229070633Y-81827000D01*
X229179367Y-81827000D01*
X229286012Y-81805787D01*
X229386470Y-81764176D01*
X229476880Y-81703766D01*
X229553766Y-81626880D01*
X229614176Y-81536470D01*
X229655787Y-81436012D01*
X229677000Y-81329367D01*
X229677000Y-81220633D01*
X229655787Y-81113988D01*
X229614176Y-81013530D01*
X229553766Y-80923120D01*
X229476880Y-80846234D01*
X229386470Y-80785824D01*
X229286012Y-80744213D01*
X229179367Y-80723000D01*
X229070633Y-80723000D01*
X228963988Y-80744213D01*
X228863530Y-80785824D01*
X228773120Y-80846234D01*
X228696234Y-80923120D01*
X228635824Y-81013530D01*
X228594213Y-81113988D01*
X228573000Y-81220633D01*
X227565139Y-81220633D01*
X227565139Y-80633052D01*
X227567642Y-80607639D01*
X227557650Y-80506191D01*
X227538178Y-80442000D01*
X227528059Y-80408642D01*
X227480006Y-80318741D01*
X227415337Y-80239941D01*
X227395586Y-80223732D01*
X227265904Y-80094049D01*
X227249698Y-80074302D01*
X227170898Y-80009633D01*
X227080997Y-79961580D01*
X226983448Y-79931989D01*
X226907413Y-79924500D01*
X226882000Y-79921997D01*
X226856587Y-79924500D01*
X226745524Y-79924500D01*
X226733343Y-79909657D01*
X226683550Y-79868794D01*
X226626743Y-79838430D01*
X226565103Y-79819732D01*
X226501000Y-79813418D01*
X224951000Y-79813418D01*
X224886897Y-79819732D01*
X224825257Y-79838430D01*
X224768450Y-79868794D01*
X224718657Y-79909657D01*
X224677794Y-79959450D01*
X224647430Y-80016257D01*
X224628732Y-80077897D01*
X224622418Y-80142000D01*
X224622418Y-80742000D01*
X224628732Y-80806103D01*
X224643906Y-80856127D01*
X224596506Y-80881463D01*
X224499815Y-80960815D01*
X224420463Y-81057506D01*
X224361498Y-81167820D01*
X224325188Y-81287518D01*
X224312928Y-81412000D01*
X224316000Y-81426250D01*
X224474750Y-81585000D01*
X225599000Y-81585000D01*
X225599000Y-81565000D01*
X225853000Y-81565000D01*
X225853000Y-81585000D01*
X225873000Y-81585000D01*
X225873000Y-81839000D01*
X225853000Y-81839000D01*
X225853000Y-81859000D01*
X225599000Y-81859000D01*
X225599000Y-81839000D01*
X224474750Y-81839000D01*
X224316000Y-81997750D01*
X224312928Y-82012000D01*
X224317240Y-82055780D01*
X224178121Y-81916661D01*
X224157939Y-81892069D01*
X224059801Y-81811529D01*
X223947837Y-81751683D01*
X223826348Y-81714830D01*
X223700004Y-81702386D01*
X223584988Y-81713714D01*
X223573660Y-81714830D01*
X223452172Y-81751683D01*
X223340208Y-81811529D01*
X223242069Y-81892069D01*
X223161529Y-81990207D01*
X223101683Y-82102171D01*
X223064830Y-82223660D01*
X223055504Y-82318347D01*
X223055504Y-82318355D01*
X223052387Y-82350004D01*
X222537563Y-82350004D01*
X222525537Y-82327506D01*
X222446185Y-82230815D01*
X222349494Y-82151463D01*
X222302094Y-82126127D01*
X222317268Y-82076103D01*
X222323582Y-82012000D01*
X222323582Y-81412000D01*
X222317268Y-81347897D01*
X222298570Y-81286257D01*
X222268206Y-81229450D01*
X222227343Y-81179657D01*
X222177550Y-81138794D01*
X222120743Y-81108430D01*
X222059103Y-81089732D01*
X221995000Y-81083418D01*
X220452000Y-81083418D01*
X220452000Y-81070582D01*
X221995000Y-81070582D01*
X222059103Y-81064268D01*
X222120743Y-81045570D01*
X222177550Y-81015206D01*
X222227343Y-80974343D01*
X222268206Y-80924550D01*
X222298570Y-80867743D01*
X222317268Y-80806103D01*
X222323582Y-80742000D01*
X222323582Y-80142000D01*
X222317268Y-80077897D01*
X222298570Y-80016257D01*
X222268206Y-79959450D01*
X222227343Y-79909657D01*
X222177550Y-79868794D01*
X222120743Y-79838430D01*
X222059103Y-79819732D01*
X221995000Y-79813418D01*
X221729974Y-79813418D01*
X221770198Y-79753218D01*
X221811809Y-79652760D01*
X221833022Y-79546115D01*
X221833022Y-79437381D01*
X221811809Y-79330736D01*
X221792797Y-79284837D01*
X221801880Y-79278768D01*
X221878766Y-79201882D01*
X221939176Y-79111472D01*
X221980787Y-79011014D01*
X222002000Y-78904369D01*
X222002000Y-78795635D01*
X221980787Y-78688990D01*
X221939176Y-78588532D01*
X221878766Y-78498122D01*
X221801880Y-78421236D01*
X221711470Y-78360826D01*
X221611012Y-78319215D01*
X221504367Y-78298002D01*
X221395633Y-78298002D01*
X221288988Y-78319215D01*
X221188530Y-78360826D01*
X221098120Y-78421236D01*
X221021234Y-78498122D01*
X220960824Y-78588532D01*
X220919213Y-78688990D01*
X220898000Y-78795635D01*
X220898000Y-78904369D01*
X220919213Y-79011014D01*
X220938225Y-79056913D01*
X220929142Y-79062982D01*
X220852256Y-79139868D01*
X220791846Y-79230278D01*
X220750235Y-79330736D01*
X220729022Y-79437381D01*
X220729022Y-79546115D01*
X220750235Y-79652760D01*
X220791846Y-79753218D01*
X220832070Y-79813418D01*
X220445000Y-79813418D01*
X220380897Y-79819732D01*
X220319257Y-79838430D01*
X220262450Y-79868794D01*
X220212657Y-79909657D01*
X220171794Y-79959450D01*
X220156534Y-79988000D01*
X219760367Y-79988000D01*
X219738079Y-79985805D01*
X219715791Y-79988000D01*
X219715785Y-79988000D01*
X219658381Y-79993654D01*
X219649080Y-79994570D01*
X219577587Y-80016257D01*
X219563501Y-80020530D01*
X219484631Y-80062687D01*
X219484629Y-80062688D01*
X219484630Y-80062688D01*
X219442056Y-80097628D01*
X219415501Y-80119421D01*
X219401290Y-80136737D01*
X217844742Y-81693286D01*
X217827421Y-81707501D01*
X217770687Y-81776632D01*
X217737351Y-81839000D01*
X217728530Y-81855502D01*
X217706725Y-81927386D01*
X217702570Y-81941082D01*
X217696000Y-82007786D01*
X217696000Y-82007792D01*
X217693805Y-82030080D01*
X217696000Y-82052368D01*
X217696000Y-82173000D01*
X217209734Y-82173000D01*
X217220812Y-82136482D01*
X217233072Y-82012000D01*
X217230000Y-81997750D01*
X217071250Y-81839000D01*
X215947000Y-81839000D01*
X215947000Y-81859000D01*
X215693000Y-81859000D01*
X215693000Y-81839000D01*
X215673000Y-81839000D01*
X215673000Y-81585000D01*
X215693000Y-81585000D01*
X215693000Y-81565000D01*
X215947000Y-81565000D01*
X215947000Y-81585000D01*
X217071250Y-81585000D01*
X217230000Y-81426250D01*
X217233072Y-81412000D01*
X217220812Y-81287518D01*
X217184502Y-81167820D01*
X217125537Y-81057506D01*
X217046185Y-80960815D01*
X216949494Y-80881463D01*
X216902094Y-80856127D01*
X216917268Y-80806103D01*
X216923582Y-80742000D01*
X216923582Y-80142000D01*
X216917268Y-80077897D01*
X216898570Y-80016257D01*
X216868206Y-79959450D01*
X216827343Y-79909657D01*
X216777550Y-79868794D01*
X216720743Y-79838430D01*
X216659103Y-79819732D01*
X216595000Y-79813418D01*
X215045000Y-79813418D01*
X214980897Y-79819732D01*
X214919257Y-79838430D01*
X214862450Y-79868794D01*
X214812657Y-79909657D01*
X214800476Y-79924500D01*
X214791576Y-79924500D01*
X214816293Y-75895633D01*
X217798000Y-75895633D01*
X217798000Y-76004367D01*
X217819213Y-76111012D01*
X217860824Y-76211470D01*
X217921234Y-76301880D01*
X217998120Y-76378766D01*
X218088530Y-76439176D01*
X218175017Y-76475000D01*
X218088530Y-76510824D01*
X217998120Y-76571234D01*
X217921234Y-76648120D01*
X217860824Y-76738530D01*
X217819213Y-76838988D01*
X217798000Y-76945633D01*
X217798000Y-77054367D01*
X217819213Y-77161012D01*
X217860824Y-77261470D01*
X217921234Y-77351880D01*
X217998120Y-77428766D01*
X218088530Y-77489176D01*
X218188988Y-77530787D01*
X218295633Y-77552000D01*
X218404367Y-77552000D01*
X218511012Y-77530787D01*
X218611470Y-77489176D01*
X218701880Y-77428766D01*
X218778766Y-77351880D01*
X218833053Y-77270633D01*
X223998000Y-77270633D01*
X223998000Y-77379367D01*
X224019213Y-77486012D01*
X224060824Y-77586470D01*
X224121234Y-77676880D01*
X224198120Y-77753766D01*
X224288530Y-77814176D01*
X224388988Y-77855787D01*
X224495633Y-77877000D01*
X224604367Y-77877000D01*
X224711012Y-77855787D01*
X224811470Y-77814176D01*
X224901880Y-77753766D01*
X224978766Y-77676880D01*
X225039176Y-77586470D01*
X225046964Y-77567669D01*
X225138988Y-77605787D01*
X225245633Y-77627000D01*
X225354367Y-77627000D01*
X225461012Y-77605787D01*
X225561470Y-77564176D01*
X225651880Y-77503766D01*
X225728766Y-77426880D01*
X225789176Y-77336470D01*
X225830787Y-77236012D01*
X225852000Y-77129367D01*
X225852000Y-77020633D01*
X225830787Y-76913988D01*
X225789176Y-76813530D01*
X225728766Y-76723120D01*
X225651880Y-76646234D01*
X225561470Y-76585824D01*
X225461012Y-76544213D01*
X225354367Y-76523000D01*
X225245633Y-76523000D01*
X225138988Y-76544213D01*
X225038530Y-76585824D01*
X224948120Y-76646234D01*
X224871234Y-76723120D01*
X224810824Y-76813530D01*
X224803036Y-76832331D01*
X224711012Y-76794213D01*
X224604367Y-76773000D01*
X224495633Y-76773000D01*
X224388988Y-76794213D01*
X224288530Y-76835824D01*
X224198120Y-76896234D01*
X224121234Y-76973120D01*
X224060824Y-77063530D01*
X224019213Y-77163988D01*
X223998000Y-77270633D01*
X218833053Y-77270633D01*
X218839176Y-77261470D01*
X218880787Y-77161012D01*
X218902000Y-77054367D01*
X218902000Y-76945633D01*
X218880787Y-76838988D01*
X218839176Y-76738530D01*
X218778766Y-76648120D01*
X218701880Y-76571234D01*
X218611470Y-76510824D01*
X218524983Y-76475000D01*
X218611470Y-76439176D01*
X218701880Y-76378766D01*
X218778766Y-76301880D01*
X218839176Y-76211470D01*
X218880787Y-76111012D01*
X218902000Y-76004367D01*
X218902000Y-75895633D01*
X218880787Y-75788988D01*
X218839176Y-75688530D01*
X218778766Y-75598120D01*
X218701880Y-75521234D01*
X218611470Y-75460824D01*
X218511012Y-75419213D01*
X218404367Y-75398000D01*
X218295633Y-75398000D01*
X218188988Y-75419213D01*
X218088530Y-75460824D01*
X217998120Y-75521234D01*
X217921234Y-75598120D01*
X217860824Y-75688530D01*
X217819213Y-75788988D01*
X217798000Y-75895633D01*
X214816293Y-75895633D01*
X214826998Y-74150779D01*
X214824709Y-74125988D01*
X214817629Y-74102120D01*
X214806028Y-74080092D01*
X214790352Y-74060750D01*
X214771204Y-74044838D01*
X214749320Y-74032968D01*
X214725540Y-74025595D01*
X214698329Y-74023011D01*
X213543884Y-74038201D01*
X213671641Y-73866920D01*
X213796825Y-73604099D01*
X213841476Y-73456890D01*
X213720155Y-73227000D01*
X212527000Y-73227000D01*
X212527000Y-73247000D01*
X212273000Y-73247000D01*
X212273000Y-73227000D01*
X212253000Y-73227000D01*
X212253000Y-72973000D01*
X212273000Y-72973000D01*
X212273000Y-72953000D01*
X212527000Y-72953000D01*
X212527000Y-72973000D01*
X213720155Y-72973000D01*
X213841476Y-72743110D01*
X213796825Y-72595901D01*
X213671641Y-72333080D01*
X213497588Y-72099731D01*
X213305959Y-71927000D01*
X213700000Y-71927000D01*
X213724776Y-71924560D01*
X213748601Y-71917333D01*
X213770557Y-71905597D01*
X213789803Y-71889803D01*
X213805597Y-71870557D01*
X213817333Y-71848601D01*
X213824560Y-71824776D01*
X213827000Y-71800000D01*
X213827000Y-69309160D01*
X214931500Y-69560591D01*
G36*
X219930748Y-86537998D02*
G01*
X219777000Y-86537998D01*
X219777000Y-86384250D01*
X219930748Y-86537998D01*
G37*
X219930748Y-86537998D02*
X219777000Y-86537998D01*
X219777000Y-86384250D01*
X219930748Y-86537998D01*
M02*
