G04 #@! TF.GenerationSoftware,KiCad,Pcbnew,(5.1.5)-3*
G04 #@! TF.CreationDate,2020-06-10T22:37:02-05:00*
G04 #@! TF.ProjectId,LuminaryVer2,4c756d69-6e61-4727-9956-6572322e6b69,rev?*
G04 #@! TF.SameCoordinates,Original*
G04 #@! TF.FileFunction,Paste,Bot*
G04 #@! TF.FilePolarity,Positive*
%FSLAX46Y46*%
G04 Gerber Fmt 4.6, Leading zero omitted, Abs format (unit mm)*
G04 Created by KiCad (PCBNEW (5.1.5)-3) date 2020-06-10 22:37:02*
%MOMM*%
%LPD*%
G04 APERTURE LIST*
%ADD10R,1.550000X0.600000*%
%ADD11C,0.100000*%
G04 APERTURE END LIST*
D10*
X221220000Y-84252000D03*
X221220000Y-82982000D03*
X221220000Y-81712000D03*
X221220000Y-80442000D03*
X215820000Y-80442000D03*
X215820000Y-81712000D03*
X215820000Y-82982000D03*
X215820000Y-84252000D03*
X231126000Y-84252000D03*
X231126000Y-82982000D03*
X231126000Y-81712000D03*
X231126000Y-80442000D03*
X225726000Y-80442000D03*
X225726000Y-81712000D03*
X225726000Y-82982000D03*
X225726000Y-84252000D03*
D11*
G36*
X226723458Y-86345710D02*
G01*
X226737776Y-86347834D01*
X226751817Y-86351351D01*
X226765446Y-86356228D01*
X226778531Y-86362417D01*
X226790947Y-86369858D01*
X226802573Y-86378481D01*
X226813298Y-86388202D01*
X226823019Y-86398927D01*
X226831642Y-86410553D01*
X226839083Y-86422969D01*
X226845272Y-86436054D01*
X226850149Y-86449683D01*
X226853666Y-86463724D01*
X226855790Y-86478042D01*
X226856500Y-86492500D01*
X226856500Y-86837500D01*
X226855790Y-86851958D01*
X226853666Y-86866276D01*
X226850149Y-86880317D01*
X226845272Y-86893946D01*
X226839083Y-86907031D01*
X226831642Y-86919447D01*
X226823019Y-86931073D01*
X226813298Y-86941798D01*
X226802573Y-86951519D01*
X226790947Y-86960142D01*
X226778531Y-86967583D01*
X226765446Y-86973772D01*
X226751817Y-86978649D01*
X226737776Y-86982166D01*
X226723458Y-86984290D01*
X226709000Y-86985000D01*
X226414000Y-86985000D01*
X226399542Y-86984290D01*
X226385224Y-86982166D01*
X226371183Y-86978649D01*
X226357554Y-86973772D01*
X226344469Y-86967583D01*
X226332053Y-86960142D01*
X226320427Y-86951519D01*
X226309702Y-86941798D01*
X226299981Y-86931073D01*
X226291358Y-86919447D01*
X226283917Y-86907031D01*
X226277728Y-86893946D01*
X226272851Y-86880317D01*
X226269334Y-86866276D01*
X226267210Y-86851958D01*
X226266500Y-86837500D01*
X226266500Y-86492500D01*
X226267210Y-86478042D01*
X226269334Y-86463724D01*
X226272851Y-86449683D01*
X226277728Y-86436054D01*
X226283917Y-86422969D01*
X226291358Y-86410553D01*
X226299981Y-86398927D01*
X226309702Y-86388202D01*
X226320427Y-86378481D01*
X226332053Y-86369858D01*
X226344469Y-86362417D01*
X226357554Y-86356228D01*
X226371183Y-86351351D01*
X226385224Y-86347834D01*
X226399542Y-86345710D01*
X226414000Y-86345000D01*
X226709000Y-86345000D01*
X226723458Y-86345710D01*
G37*
G36*
X225753458Y-86345710D02*
G01*
X225767776Y-86347834D01*
X225781817Y-86351351D01*
X225795446Y-86356228D01*
X225808531Y-86362417D01*
X225820947Y-86369858D01*
X225832573Y-86378481D01*
X225843298Y-86388202D01*
X225853019Y-86398927D01*
X225861642Y-86410553D01*
X225869083Y-86422969D01*
X225875272Y-86436054D01*
X225880149Y-86449683D01*
X225883666Y-86463724D01*
X225885790Y-86478042D01*
X225886500Y-86492500D01*
X225886500Y-86837500D01*
X225885790Y-86851958D01*
X225883666Y-86866276D01*
X225880149Y-86880317D01*
X225875272Y-86893946D01*
X225869083Y-86907031D01*
X225861642Y-86919447D01*
X225853019Y-86931073D01*
X225843298Y-86941798D01*
X225832573Y-86951519D01*
X225820947Y-86960142D01*
X225808531Y-86967583D01*
X225795446Y-86973772D01*
X225781817Y-86978649D01*
X225767776Y-86982166D01*
X225753458Y-86984290D01*
X225739000Y-86985000D01*
X225444000Y-86985000D01*
X225429542Y-86984290D01*
X225415224Y-86982166D01*
X225401183Y-86978649D01*
X225387554Y-86973772D01*
X225374469Y-86967583D01*
X225362053Y-86960142D01*
X225350427Y-86951519D01*
X225339702Y-86941798D01*
X225329981Y-86931073D01*
X225321358Y-86919447D01*
X225313917Y-86907031D01*
X225307728Y-86893946D01*
X225302851Y-86880317D01*
X225299334Y-86866276D01*
X225297210Y-86851958D01*
X225296500Y-86837500D01*
X225296500Y-86492500D01*
X225297210Y-86478042D01*
X225299334Y-86463724D01*
X225302851Y-86449683D01*
X225307728Y-86436054D01*
X225313917Y-86422969D01*
X225321358Y-86410553D01*
X225329981Y-86398927D01*
X225339702Y-86388202D01*
X225350427Y-86378481D01*
X225362053Y-86369858D01*
X225374469Y-86362417D01*
X225387554Y-86356228D01*
X225401183Y-86351351D01*
X225415224Y-86347834D01*
X225429542Y-86345710D01*
X225444000Y-86345000D01*
X225739000Y-86345000D01*
X225753458Y-86345710D01*
G37*
G36*
X220863958Y-86345710D02*
G01*
X220878276Y-86347834D01*
X220892317Y-86351351D01*
X220905946Y-86356228D01*
X220919031Y-86362417D01*
X220931447Y-86369858D01*
X220943073Y-86378481D01*
X220953798Y-86388202D01*
X220963519Y-86398927D01*
X220972142Y-86410553D01*
X220979583Y-86422969D01*
X220985772Y-86436054D01*
X220990649Y-86449683D01*
X220994166Y-86463724D01*
X220996290Y-86478042D01*
X220997000Y-86492500D01*
X220997000Y-86837500D01*
X220996290Y-86851958D01*
X220994166Y-86866276D01*
X220990649Y-86880317D01*
X220985772Y-86893946D01*
X220979583Y-86907031D01*
X220972142Y-86919447D01*
X220963519Y-86931073D01*
X220953798Y-86941798D01*
X220943073Y-86951519D01*
X220931447Y-86960142D01*
X220919031Y-86967583D01*
X220905946Y-86973772D01*
X220892317Y-86978649D01*
X220878276Y-86982166D01*
X220863958Y-86984290D01*
X220849500Y-86985000D01*
X220554500Y-86985000D01*
X220540042Y-86984290D01*
X220525724Y-86982166D01*
X220511683Y-86978649D01*
X220498054Y-86973772D01*
X220484969Y-86967583D01*
X220472553Y-86960142D01*
X220460927Y-86951519D01*
X220450202Y-86941798D01*
X220440481Y-86931073D01*
X220431858Y-86919447D01*
X220424417Y-86907031D01*
X220418228Y-86893946D01*
X220413351Y-86880317D01*
X220409834Y-86866276D01*
X220407710Y-86851958D01*
X220407000Y-86837500D01*
X220407000Y-86492500D01*
X220407710Y-86478042D01*
X220409834Y-86463724D01*
X220413351Y-86449683D01*
X220418228Y-86436054D01*
X220424417Y-86422969D01*
X220431858Y-86410553D01*
X220440481Y-86398927D01*
X220450202Y-86388202D01*
X220460927Y-86378481D01*
X220472553Y-86369858D01*
X220484969Y-86362417D01*
X220498054Y-86356228D01*
X220511683Y-86351351D01*
X220525724Y-86347834D01*
X220540042Y-86345710D01*
X220554500Y-86345000D01*
X220849500Y-86345000D01*
X220863958Y-86345710D01*
G37*
G36*
X221833958Y-86345710D02*
G01*
X221848276Y-86347834D01*
X221862317Y-86351351D01*
X221875946Y-86356228D01*
X221889031Y-86362417D01*
X221901447Y-86369858D01*
X221913073Y-86378481D01*
X221923798Y-86388202D01*
X221933519Y-86398927D01*
X221942142Y-86410553D01*
X221949583Y-86422969D01*
X221955772Y-86436054D01*
X221960649Y-86449683D01*
X221964166Y-86463724D01*
X221966290Y-86478042D01*
X221967000Y-86492500D01*
X221967000Y-86837500D01*
X221966290Y-86851958D01*
X221964166Y-86866276D01*
X221960649Y-86880317D01*
X221955772Y-86893946D01*
X221949583Y-86907031D01*
X221942142Y-86919447D01*
X221933519Y-86931073D01*
X221923798Y-86941798D01*
X221913073Y-86951519D01*
X221901447Y-86960142D01*
X221889031Y-86967583D01*
X221875946Y-86973772D01*
X221862317Y-86978649D01*
X221848276Y-86982166D01*
X221833958Y-86984290D01*
X221819500Y-86985000D01*
X221524500Y-86985000D01*
X221510042Y-86984290D01*
X221495724Y-86982166D01*
X221481683Y-86978649D01*
X221468054Y-86973772D01*
X221454969Y-86967583D01*
X221442553Y-86960142D01*
X221430927Y-86951519D01*
X221420202Y-86941798D01*
X221410481Y-86931073D01*
X221401858Y-86919447D01*
X221394417Y-86907031D01*
X221388228Y-86893946D01*
X221383351Y-86880317D01*
X221379834Y-86866276D01*
X221377710Y-86851958D01*
X221377000Y-86837500D01*
X221377000Y-86492500D01*
X221377710Y-86478042D01*
X221379834Y-86463724D01*
X221383351Y-86449683D01*
X221388228Y-86436054D01*
X221394417Y-86422969D01*
X221401858Y-86410553D01*
X221410481Y-86398927D01*
X221420202Y-86388202D01*
X221430927Y-86378481D01*
X221442553Y-86369858D01*
X221454969Y-86362417D01*
X221468054Y-86356228D01*
X221481683Y-86351351D01*
X221495724Y-86347834D01*
X221510042Y-86345710D01*
X221524500Y-86345000D01*
X221819500Y-86345000D01*
X221833958Y-86345710D01*
G37*
M02*
