G04 #@! TF.GenerationSoftware,KiCad,Pcbnew,(5.1.5)-3*
G04 #@! TF.CreationDate,2020-06-10T22:37:02-05:00*
G04 #@! TF.ProjectId,LuminaryVer2,4c756d69-6e61-4727-9956-6572322e6b69,rev?*
G04 #@! TF.SameCoordinates,Original*
G04 #@! TF.FileFunction,Soldermask,Bot*
G04 #@! TF.FilePolarity,Negative*
%FSLAX46Y46*%
G04 Gerber Fmt 4.6, Leading zero omitted, Abs format (unit mm)*
G04 Created by KiCad (PCBNEW (5.1.5)-3) date 2020-06-10 22:37:02*
%MOMM*%
%LPD*%
G04 APERTURE LIST*
%ADD10C,0.100000*%
G04 APERTURE END LIST*
D10*
G36*
X235347935Y-97682664D02*
G01*
X235502624Y-97746739D01*
X235502626Y-97746740D01*
X235641844Y-97839762D01*
X235760238Y-97958156D01*
X235853260Y-98097374D01*
X235853261Y-98097376D01*
X235917336Y-98252065D01*
X235950000Y-98416281D01*
X235950000Y-98583719D01*
X235917336Y-98747935D01*
X235853261Y-98902624D01*
X235853260Y-98902626D01*
X235760238Y-99041844D01*
X235641844Y-99160238D01*
X235502626Y-99253260D01*
X235502625Y-99253261D01*
X235502624Y-99253261D01*
X235347935Y-99317336D01*
X235183719Y-99350000D01*
X235016281Y-99350000D01*
X234852065Y-99317336D01*
X234697376Y-99253261D01*
X234697375Y-99253261D01*
X234697374Y-99253260D01*
X234558156Y-99160238D01*
X234439762Y-99041844D01*
X234346740Y-98902626D01*
X234346739Y-98902624D01*
X234282664Y-98747935D01*
X234250000Y-98583719D01*
X234250000Y-98416281D01*
X234282664Y-98252065D01*
X234346739Y-98097376D01*
X234346740Y-98097374D01*
X234439762Y-97958156D01*
X234558156Y-97839762D01*
X234697374Y-97746740D01*
X234697376Y-97746739D01*
X234852065Y-97682664D01*
X235016281Y-97650000D01*
X235183719Y-97650000D01*
X235347935Y-97682664D01*
G37*
G36*
X212647935Y-97682664D02*
G01*
X212802624Y-97746739D01*
X212802626Y-97746740D01*
X212941844Y-97839762D01*
X213060238Y-97958156D01*
X213153260Y-98097374D01*
X213153261Y-98097376D01*
X213217336Y-98252065D01*
X213250000Y-98416281D01*
X213250000Y-98583719D01*
X213217336Y-98747935D01*
X213153261Y-98902624D01*
X213153260Y-98902626D01*
X213060238Y-99041844D01*
X212941844Y-99160238D01*
X212802626Y-99253260D01*
X212802625Y-99253261D01*
X212802624Y-99253261D01*
X212647935Y-99317336D01*
X212483719Y-99350000D01*
X212316281Y-99350000D01*
X212152065Y-99317336D01*
X211997376Y-99253261D01*
X211997375Y-99253261D01*
X211997374Y-99253260D01*
X211858156Y-99160238D01*
X211739762Y-99041844D01*
X211646740Y-98902626D01*
X211646739Y-98902624D01*
X211582664Y-98747935D01*
X211550000Y-98583719D01*
X211550000Y-98416281D01*
X211582664Y-98252065D01*
X211646739Y-98097376D01*
X211646740Y-98097374D01*
X211739762Y-97958156D01*
X211858156Y-97839762D01*
X211997374Y-97746740D01*
X211997376Y-97746739D01*
X212152065Y-97682664D01*
X212316281Y-97650000D01*
X212483719Y-97650000D01*
X212647935Y-97682664D01*
G37*
G36*
X227784935Y-97682664D02*
G01*
X227939624Y-97746739D01*
X227939626Y-97746740D01*
X228078844Y-97839762D01*
X228197238Y-97958156D01*
X228290260Y-98097374D01*
X228290261Y-98097376D01*
X228354336Y-98252065D01*
X228387000Y-98416281D01*
X228387000Y-98583719D01*
X228354336Y-98747935D01*
X228290261Y-98902624D01*
X228290260Y-98902626D01*
X228197238Y-99041844D01*
X228078844Y-99160238D01*
X227939626Y-99253260D01*
X227939625Y-99253261D01*
X227939624Y-99253261D01*
X227784935Y-99317336D01*
X227620719Y-99350000D01*
X227453281Y-99350000D01*
X227289065Y-99317336D01*
X227134376Y-99253261D01*
X227134375Y-99253261D01*
X227134374Y-99253260D01*
X226995156Y-99160238D01*
X226876762Y-99041844D01*
X226783740Y-98902626D01*
X226783739Y-98902624D01*
X226719664Y-98747935D01*
X226687000Y-98583719D01*
X226687000Y-98416281D01*
X226719664Y-98252065D01*
X226783739Y-98097376D01*
X226783740Y-98097374D01*
X226876762Y-97958156D01*
X226995156Y-97839762D01*
X227134374Y-97746740D01*
X227134376Y-97746739D01*
X227289065Y-97682664D01*
X227453281Y-97650000D01*
X227620719Y-97650000D01*
X227784935Y-97682664D01*
G37*
G36*
X225244935Y-97682664D02*
G01*
X225399624Y-97746739D01*
X225399626Y-97746740D01*
X225538844Y-97839762D01*
X225657238Y-97958156D01*
X225750260Y-98097374D01*
X225750261Y-98097376D01*
X225814336Y-98252065D01*
X225847000Y-98416281D01*
X225847000Y-98583719D01*
X225814336Y-98747935D01*
X225750261Y-98902624D01*
X225750260Y-98902626D01*
X225657238Y-99041844D01*
X225538844Y-99160238D01*
X225399626Y-99253260D01*
X225399625Y-99253261D01*
X225399624Y-99253261D01*
X225244935Y-99317336D01*
X225080719Y-99350000D01*
X224913281Y-99350000D01*
X224749065Y-99317336D01*
X224594376Y-99253261D01*
X224594375Y-99253261D01*
X224594374Y-99253260D01*
X224455156Y-99160238D01*
X224336762Y-99041844D01*
X224243740Y-98902626D01*
X224243739Y-98902624D01*
X224179664Y-98747935D01*
X224147000Y-98583719D01*
X224147000Y-98416281D01*
X224179664Y-98252065D01*
X224243739Y-98097376D01*
X224243740Y-98097374D01*
X224336762Y-97958156D01*
X224455156Y-97839762D01*
X224594374Y-97746740D01*
X224594376Y-97746739D01*
X224749065Y-97682664D01*
X224913281Y-97650000D01*
X225080719Y-97650000D01*
X225244935Y-97682664D01*
G37*
G36*
X222704935Y-97682664D02*
G01*
X222859624Y-97746739D01*
X222859626Y-97746740D01*
X222998844Y-97839762D01*
X223117238Y-97958156D01*
X223210260Y-98097374D01*
X223210261Y-98097376D01*
X223274336Y-98252065D01*
X223307000Y-98416281D01*
X223307000Y-98583719D01*
X223274336Y-98747935D01*
X223210261Y-98902624D01*
X223210260Y-98902626D01*
X223117238Y-99041844D01*
X222998844Y-99160238D01*
X222859626Y-99253260D01*
X222859625Y-99253261D01*
X222859624Y-99253261D01*
X222704935Y-99317336D01*
X222540719Y-99350000D01*
X222373281Y-99350000D01*
X222209065Y-99317336D01*
X222054376Y-99253261D01*
X222054375Y-99253261D01*
X222054374Y-99253260D01*
X221915156Y-99160238D01*
X221796762Y-99041844D01*
X221703740Y-98902626D01*
X221703739Y-98902624D01*
X221639664Y-98747935D01*
X221607000Y-98583719D01*
X221607000Y-98416281D01*
X221639664Y-98252065D01*
X221703739Y-98097376D01*
X221703740Y-98097374D01*
X221796762Y-97958156D01*
X221915156Y-97839762D01*
X222054374Y-97746740D01*
X222054376Y-97746739D01*
X222209065Y-97682664D01*
X222373281Y-97650000D01*
X222540719Y-97650000D01*
X222704935Y-97682664D01*
G37*
G36*
X220164935Y-97682664D02*
G01*
X220319624Y-97746739D01*
X220319626Y-97746740D01*
X220458844Y-97839762D01*
X220577238Y-97958156D01*
X220670260Y-98097374D01*
X220670261Y-98097376D01*
X220734336Y-98252065D01*
X220767000Y-98416281D01*
X220767000Y-98583719D01*
X220734336Y-98747935D01*
X220670261Y-98902624D01*
X220670260Y-98902626D01*
X220577238Y-99041844D01*
X220458844Y-99160238D01*
X220319626Y-99253260D01*
X220319625Y-99253261D01*
X220319624Y-99253261D01*
X220164935Y-99317336D01*
X220000719Y-99350000D01*
X219833281Y-99350000D01*
X219669065Y-99317336D01*
X219514376Y-99253261D01*
X219514375Y-99253261D01*
X219514374Y-99253260D01*
X219375156Y-99160238D01*
X219256762Y-99041844D01*
X219163740Y-98902626D01*
X219163739Y-98902624D01*
X219099664Y-98747935D01*
X219067000Y-98583719D01*
X219067000Y-98416281D01*
X219099664Y-98252065D01*
X219163739Y-98097376D01*
X219163740Y-98097374D01*
X219256762Y-97958156D01*
X219375156Y-97839762D01*
X219514374Y-97746740D01*
X219514376Y-97746739D01*
X219669065Y-97682664D01*
X219833281Y-97650000D01*
X220000719Y-97650000D01*
X220164935Y-97682664D01*
G37*
G36*
X218227000Y-99350000D02*
G01*
X216527000Y-99350000D01*
X216527000Y-97650000D01*
X218227000Y-97650000D01*
X218227000Y-99350000D01*
G37*
G36*
X230324935Y-97682664D02*
G01*
X230479624Y-97746739D01*
X230479626Y-97746740D01*
X230618844Y-97839762D01*
X230737238Y-97958156D01*
X230830260Y-98097374D01*
X230830261Y-98097376D01*
X230894336Y-98252065D01*
X230927000Y-98416281D01*
X230927000Y-98583719D01*
X230894336Y-98747935D01*
X230830261Y-98902624D01*
X230830260Y-98902626D01*
X230737238Y-99041844D01*
X230618844Y-99160238D01*
X230479626Y-99253260D01*
X230479625Y-99253261D01*
X230479624Y-99253261D01*
X230324935Y-99317336D01*
X230160719Y-99350000D01*
X229993281Y-99350000D01*
X229829065Y-99317336D01*
X229674376Y-99253261D01*
X229674375Y-99253261D01*
X229674374Y-99253260D01*
X229535156Y-99160238D01*
X229416762Y-99041844D01*
X229323740Y-98902626D01*
X229323739Y-98902624D01*
X229259664Y-98747935D01*
X229227000Y-98583719D01*
X229227000Y-98416281D01*
X229259664Y-98252065D01*
X229323739Y-98097376D01*
X229323740Y-98097374D01*
X229416762Y-97958156D01*
X229535156Y-97839762D01*
X229674374Y-97746740D01*
X229674376Y-97746739D01*
X229829065Y-97682664D01*
X229993281Y-97650000D01*
X230160719Y-97650000D01*
X230324935Y-97682664D01*
G37*
G36*
X212647935Y-95142664D02*
G01*
X212802624Y-95206739D01*
X212802626Y-95206740D01*
X212941844Y-95299762D01*
X213060238Y-95418156D01*
X213153260Y-95557374D01*
X213153261Y-95557376D01*
X213217336Y-95712065D01*
X213250000Y-95876281D01*
X213250000Y-96043719D01*
X213217336Y-96207935D01*
X213153261Y-96362624D01*
X213153260Y-96362626D01*
X213060238Y-96501844D01*
X212941844Y-96620238D01*
X212802626Y-96713260D01*
X212802625Y-96713261D01*
X212802624Y-96713261D01*
X212647935Y-96777336D01*
X212483719Y-96810000D01*
X212316281Y-96810000D01*
X212152065Y-96777336D01*
X211997376Y-96713261D01*
X211997375Y-96713261D01*
X211997374Y-96713260D01*
X211858156Y-96620238D01*
X211739762Y-96501844D01*
X211646740Y-96362626D01*
X211646739Y-96362624D01*
X211582664Y-96207935D01*
X211550000Y-96043719D01*
X211550000Y-95876281D01*
X211582664Y-95712065D01*
X211646739Y-95557376D01*
X211646740Y-95557374D01*
X211739762Y-95418156D01*
X211858156Y-95299762D01*
X211997374Y-95206740D01*
X211997376Y-95206739D01*
X212152065Y-95142664D01*
X212316281Y-95110000D01*
X212483719Y-95110000D01*
X212647935Y-95142664D01*
G37*
G36*
X235347935Y-95142664D02*
G01*
X235502624Y-95206739D01*
X235502626Y-95206740D01*
X235641844Y-95299762D01*
X235760238Y-95418156D01*
X235853260Y-95557374D01*
X235853261Y-95557376D01*
X235917336Y-95712065D01*
X235950000Y-95876281D01*
X235950000Y-96043719D01*
X235917336Y-96207935D01*
X235853261Y-96362624D01*
X235853260Y-96362626D01*
X235760238Y-96501844D01*
X235641844Y-96620238D01*
X235502626Y-96713260D01*
X235502625Y-96713261D01*
X235502624Y-96713261D01*
X235347935Y-96777336D01*
X235183719Y-96810000D01*
X235016281Y-96810000D01*
X234852065Y-96777336D01*
X234697376Y-96713261D01*
X234697375Y-96713261D01*
X234697374Y-96713260D01*
X234558156Y-96620238D01*
X234439762Y-96501844D01*
X234346740Y-96362626D01*
X234346739Y-96362624D01*
X234282664Y-96207935D01*
X234250000Y-96043719D01*
X234250000Y-95876281D01*
X234282664Y-95712065D01*
X234346739Y-95557376D01*
X234346740Y-95557374D01*
X234439762Y-95418156D01*
X234558156Y-95299762D01*
X234697374Y-95206740D01*
X234697376Y-95206739D01*
X234852065Y-95142664D01*
X235016281Y-95110000D01*
X235183719Y-95110000D01*
X235347935Y-95142664D01*
G37*
G36*
X212647935Y-92602664D02*
G01*
X212802624Y-92666739D01*
X212802626Y-92666740D01*
X212941844Y-92759762D01*
X213060238Y-92878156D01*
X213153260Y-93017374D01*
X213153261Y-93017376D01*
X213217336Y-93172065D01*
X213250000Y-93336281D01*
X213250000Y-93503719D01*
X213217336Y-93667935D01*
X213153261Y-93822624D01*
X213153260Y-93822626D01*
X213060238Y-93961844D01*
X212941844Y-94080238D01*
X212802626Y-94173260D01*
X212802625Y-94173261D01*
X212802624Y-94173261D01*
X212647935Y-94237336D01*
X212483719Y-94270000D01*
X212316281Y-94270000D01*
X212152065Y-94237336D01*
X211997376Y-94173261D01*
X211997375Y-94173261D01*
X211997374Y-94173260D01*
X211858156Y-94080238D01*
X211739762Y-93961844D01*
X211646740Y-93822626D01*
X211646739Y-93822624D01*
X211582664Y-93667935D01*
X211550000Y-93503719D01*
X211550000Y-93336281D01*
X211582664Y-93172065D01*
X211646739Y-93017376D01*
X211646740Y-93017374D01*
X211739762Y-92878156D01*
X211858156Y-92759762D01*
X211997374Y-92666740D01*
X211997376Y-92666739D01*
X212152065Y-92602664D01*
X212316281Y-92570000D01*
X212483719Y-92570000D01*
X212647935Y-92602664D01*
G37*
G36*
X235347935Y-92602664D02*
G01*
X235502624Y-92666739D01*
X235502626Y-92666740D01*
X235641844Y-92759762D01*
X235760238Y-92878156D01*
X235853260Y-93017374D01*
X235853261Y-93017376D01*
X235917336Y-93172065D01*
X235950000Y-93336281D01*
X235950000Y-93503719D01*
X235917336Y-93667935D01*
X235853261Y-93822624D01*
X235853260Y-93822626D01*
X235760238Y-93961844D01*
X235641844Y-94080238D01*
X235502626Y-94173260D01*
X235502625Y-94173261D01*
X235502624Y-94173261D01*
X235347935Y-94237336D01*
X235183719Y-94270000D01*
X235016281Y-94270000D01*
X234852065Y-94237336D01*
X234697376Y-94173261D01*
X234697375Y-94173261D01*
X234697374Y-94173260D01*
X234558156Y-94080238D01*
X234439762Y-93961844D01*
X234346740Y-93822626D01*
X234346739Y-93822624D01*
X234282664Y-93667935D01*
X234250000Y-93503719D01*
X234250000Y-93336281D01*
X234282664Y-93172065D01*
X234346739Y-93017376D01*
X234346740Y-93017374D01*
X234439762Y-92878156D01*
X234558156Y-92759762D01*
X234697374Y-92666740D01*
X234697376Y-92666739D01*
X234852065Y-92602664D01*
X235016281Y-92570000D01*
X235183719Y-92570000D01*
X235347935Y-92602664D01*
G37*
G36*
X212647935Y-90062664D02*
G01*
X212802624Y-90126739D01*
X212802626Y-90126740D01*
X212941844Y-90219762D01*
X213060238Y-90338156D01*
X213153260Y-90477374D01*
X213153261Y-90477376D01*
X213217336Y-90632065D01*
X213250000Y-90796281D01*
X213250000Y-90963719D01*
X213217336Y-91127935D01*
X213153261Y-91282624D01*
X213153260Y-91282626D01*
X213060238Y-91421844D01*
X212941844Y-91540238D01*
X212802626Y-91633260D01*
X212802625Y-91633261D01*
X212802624Y-91633261D01*
X212647935Y-91697336D01*
X212483719Y-91730000D01*
X212316281Y-91730000D01*
X212152065Y-91697336D01*
X211997376Y-91633261D01*
X211997375Y-91633261D01*
X211997374Y-91633260D01*
X211858156Y-91540238D01*
X211739762Y-91421844D01*
X211646740Y-91282626D01*
X211646739Y-91282624D01*
X211582664Y-91127935D01*
X211550000Y-90963719D01*
X211550000Y-90796281D01*
X211582664Y-90632065D01*
X211646739Y-90477376D01*
X211646740Y-90477374D01*
X211739762Y-90338156D01*
X211858156Y-90219762D01*
X211997374Y-90126740D01*
X211997376Y-90126739D01*
X212152065Y-90062664D01*
X212316281Y-90030000D01*
X212483719Y-90030000D01*
X212647935Y-90062664D01*
G37*
G36*
X235347935Y-90062664D02*
G01*
X235502624Y-90126739D01*
X235502626Y-90126740D01*
X235641844Y-90219762D01*
X235760238Y-90338156D01*
X235853260Y-90477374D01*
X235853261Y-90477376D01*
X235917336Y-90632065D01*
X235950000Y-90796281D01*
X235950000Y-90963719D01*
X235917336Y-91127935D01*
X235853261Y-91282624D01*
X235853260Y-91282626D01*
X235760238Y-91421844D01*
X235641844Y-91540238D01*
X235502626Y-91633260D01*
X235502625Y-91633261D01*
X235502624Y-91633261D01*
X235347935Y-91697336D01*
X235183719Y-91730000D01*
X235016281Y-91730000D01*
X234852065Y-91697336D01*
X234697376Y-91633261D01*
X234697375Y-91633261D01*
X234697374Y-91633260D01*
X234558156Y-91540238D01*
X234439762Y-91421844D01*
X234346740Y-91282626D01*
X234346739Y-91282624D01*
X234282664Y-91127935D01*
X234250000Y-90963719D01*
X234250000Y-90796281D01*
X234282664Y-90632065D01*
X234346739Y-90477376D01*
X234346740Y-90477374D01*
X234439762Y-90338156D01*
X234558156Y-90219762D01*
X234697374Y-90126740D01*
X234697376Y-90126739D01*
X234852065Y-90062664D01*
X235016281Y-90030000D01*
X235183719Y-90030000D01*
X235347935Y-90062664D01*
G37*
G36*
X212647935Y-87522664D02*
G01*
X212802624Y-87586739D01*
X212802626Y-87586740D01*
X212941844Y-87679762D01*
X213060238Y-87798156D01*
X213153260Y-87937374D01*
X213153261Y-87937376D01*
X213217336Y-88092065D01*
X213250000Y-88256281D01*
X213250000Y-88423719D01*
X213217336Y-88587935D01*
X213153261Y-88742624D01*
X213153260Y-88742626D01*
X213060238Y-88881844D01*
X212941844Y-89000238D01*
X212802626Y-89093260D01*
X212802625Y-89093261D01*
X212802624Y-89093261D01*
X212647935Y-89157336D01*
X212483719Y-89190000D01*
X212316281Y-89190000D01*
X212152065Y-89157336D01*
X211997376Y-89093261D01*
X211997375Y-89093261D01*
X211997374Y-89093260D01*
X211858156Y-89000238D01*
X211739762Y-88881844D01*
X211646740Y-88742626D01*
X211646739Y-88742624D01*
X211582664Y-88587935D01*
X211550000Y-88423719D01*
X211550000Y-88256281D01*
X211582664Y-88092065D01*
X211646739Y-87937376D01*
X211646740Y-87937374D01*
X211739762Y-87798156D01*
X211858156Y-87679762D01*
X211997374Y-87586740D01*
X211997376Y-87586739D01*
X212152065Y-87522664D01*
X212316281Y-87490000D01*
X212483719Y-87490000D01*
X212647935Y-87522664D01*
G37*
G36*
X235347935Y-87522664D02*
G01*
X235502624Y-87586739D01*
X235502626Y-87586740D01*
X235641844Y-87679762D01*
X235760238Y-87798156D01*
X235853260Y-87937374D01*
X235853261Y-87937376D01*
X235917336Y-88092065D01*
X235950000Y-88256281D01*
X235950000Y-88423719D01*
X235917336Y-88587935D01*
X235853261Y-88742624D01*
X235853260Y-88742626D01*
X235760238Y-88881844D01*
X235641844Y-89000238D01*
X235502626Y-89093260D01*
X235502625Y-89093261D01*
X235502624Y-89093261D01*
X235347935Y-89157336D01*
X235183719Y-89190000D01*
X235016281Y-89190000D01*
X234852065Y-89157336D01*
X234697376Y-89093261D01*
X234697375Y-89093261D01*
X234697374Y-89093260D01*
X234558156Y-89000238D01*
X234439762Y-88881844D01*
X234346740Y-88742626D01*
X234346739Y-88742624D01*
X234282664Y-88587935D01*
X234250000Y-88423719D01*
X234250000Y-88256281D01*
X234282664Y-88092065D01*
X234346739Y-87937376D01*
X234346740Y-87937374D01*
X234439762Y-87798156D01*
X234558156Y-87679762D01*
X234697374Y-87586740D01*
X234697376Y-87586739D01*
X234852065Y-87522664D01*
X235016281Y-87490000D01*
X235183719Y-87490000D01*
X235347935Y-87522664D01*
G37*
G36*
X225817963Y-86347226D02*
G01*
X225833799Y-86352030D01*
X225848386Y-86359827D01*
X225861177Y-86370323D01*
X225871673Y-86383114D01*
X225879470Y-86397701D01*
X225884274Y-86413537D01*
X225886500Y-86436140D01*
X225886500Y-86893860D01*
X225884274Y-86916463D01*
X225879470Y-86932299D01*
X225871673Y-86946886D01*
X225861177Y-86959677D01*
X225848386Y-86970173D01*
X225833799Y-86977970D01*
X225817963Y-86982774D01*
X225795360Y-86985000D01*
X225387640Y-86985000D01*
X225365037Y-86982774D01*
X225349201Y-86977970D01*
X225334614Y-86970173D01*
X225321823Y-86959677D01*
X225311327Y-86946886D01*
X225303530Y-86932299D01*
X225298726Y-86916463D01*
X225296500Y-86893860D01*
X225296500Y-86436140D01*
X225298726Y-86413537D01*
X225303530Y-86397701D01*
X225311327Y-86383114D01*
X225321823Y-86370323D01*
X225334614Y-86359827D01*
X225349201Y-86352030D01*
X225365037Y-86347226D01*
X225387640Y-86345000D01*
X225795360Y-86345000D01*
X225817963Y-86347226D01*
G37*
G36*
X221898463Y-86347226D02*
G01*
X221914299Y-86352030D01*
X221928886Y-86359827D01*
X221941677Y-86370323D01*
X221952173Y-86383114D01*
X221959970Y-86397701D01*
X221964774Y-86413537D01*
X221967000Y-86436140D01*
X221967000Y-86893860D01*
X221964774Y-86916463D01*
X221959970Y-86932299D01*
X221952173Y-86946886D01*
X221941677Y-86959677D01*
X221928886Y-86970173D01*
X221914299Y-86977970D01*
X221898463Y-86982774D01*
X221875860Y-86985000D01*
X221468140Y-86985000D01*
X221445537Y-86982774D01*
X221429701Y-86977970D01*
X221415114Y-86970173D01*
X221402323Y-86959677D01*
X221391827Y-86946886D01*
X221384030Y-86932299D01*
X221379226Y-86916463D01*
X221377000Y-86893860D01*
X221377000Y-86436140D01*
X221379226Y-86413537D01*
X221384030Y-86397701D01*
X221391827Y-86383114D01*
X221402323Y-86370323D01*
X221415114Y-86359827D01*
X221429701Y-86352030D01*
X221445537Y-86347226D01*
X221468140Y-86345000D01*
X221875860Y-86345000D01*
X221898463Y-86347226D01*
G37*
G36*
X220928463Y-86347226D02*
G01*
X220944299Y-86352030D01*
X220958886Y-86359827D01*
X220971677Y-86370323D01*
X220982173Y-86383114D01*
X220989970Y-86397701D01*
X220994774Y-86413537D01*
X220997000Y-86436140D01*
X220997000Y-86893860D01*
X220994774Y-86916463D01*
X220989970Y-86932299D01*
X220982173Y-86946886D01*
X220971677Y-86959677D01*
X220958886Y-86970173D01*
X220944299Y-86977970D01*
X220928463Y-86982774D01*
X220905860Y-86985000D01*
X220498140Y-86985000D01*
X220475537Y-86982774D01*
X220459701Y-86977970D01*
X220445114Y-86970173D01*
X220432323Y-86959677D01*
X220421827Y-86946886D01*
X220414030Y-86932299D01*
X220409226Y-86916463D01*
X220407000Y-86893860D01*
X220407000Y-86436140D01*
X220409226Y-86413537D01*
X220414030Y-86397701D01*
X220421827Y-86383114D01*
X220432323Y-86370323D01*
X220445114Y-86359827D01*
X220459701Y-86352030D01*
X220475537Y-86347226D01*
X220498140Y-86345000D01*
X220905860Y-86345000D01*
X220928463Y-86347226D01*
G37*
G36*
X226787963Y-86347226D02*
G01*
X226803799Y-86352030D01*
X226818386Y-86359827D01*
X226831177Y-86370323D01*
X226841673Y-86383114D01*
X226849470Y-86397701D01*
X226854274Y-86413537D01*
X226856500Y-86436140D01*
X226856500Y-86893860D01*
X226854274Y-86916463D01*
X226849470Y-86932299D01*
X226841673Y-86946886D01*
X226831177Y-86959677D01*
X226818386Y-86970173D01*
X226803799Y-86977970D01*
X226787963Y-86982774D01*
X226765360Y-86985000D01*
X226357640Y-86985000D01*
X226335037Y-86982774D01*
X226319201Y-86977970D01*
X226304614Y-86970173D01*
X226291823Y-86959677D01*
X226281327Y-86946886D01*
X226273530Y-86932299D01*
X226268726Y-86916463D01*
X226266500Y-86893860D01*
X226266500Y-86436140D01*
X226268726Y-86413537D01*
X226273530Y-86397701D01*
X226281327Y-86383114D01*
X226291823Y-86370323D01*
X226304614Y-86359827D01*
X226319201Y-86352030D01*
X226335037Y-86347226D01*
X226357640Y-86345000D01*
X226765360Y-86345000D01*
X226787963Y-86347226D01*
G37*
G36*
X235347935Y-84982664D02*
G01*
X235502624Y-85046739D01*
X235502626Y-85046740D01*
X235641844Y-85139762D01*
X235760238Y-85258156D01*
X235853260Y-85397374D01*
X235853261Y-85397376D01*
X235917336Y-85552065D01*
X235950000Y-85716281D01*
X235950000Y-85883719D01*
X235917336Y-86047935D01*
X235853261Y-86202624D01*
X235853260Y-86202626D01*
X235760238Y-86341844D01*
X235641844Y-86460238D01*
X235502626Y-86553260D01*
X235502625Y-86553261D01*
X235502624Y-86553261D01*
X235347935Y-86617336D01*
X235183719Y-86650000D01*
X235016281Y-86650000D01*
X234852065Y-86617336D01*
X234697376Y-86553261D01*
X234697375Y-86553261D01*
X234697374Y-86553260D01*
X234558156Y-86460238D01*
X234439762Y-86341844D01*
X234346740Y-86202626D01*
X234346739Y-86202624D01*
X234282664Y-86047935D01*
X234250000Y-85883719D01*
X234250000Y-85716281D01*
X234282664Y-85552065D01*
X234346739Y-85397376D01*
X234346740Y-85397374D01*
X234439762Y-85258156D01*
X234558156Y-85139762D01*
X234697374Y-85046740D01*
X234697376Y-85046739D01*
X234852065Y-84982664D01*
X235016281Y-84950000D01*
X235183719Y-84950000D01*
X235347935Y-84982664D01*
G37*
G36*
X212647935Y-84982664D02*
G01*
X212802624Y-85046739D01*
X212802626Y-85046740D01*
X212941844Y-85139762D01*
X213060238Y-85258156D01*
X213153260Y-85397374D01*
X213153261Y-85397376D01*
X213217336Y-85552065D01*
X213250000Y-85716281D01*
X213250000Y-85883719D01*
X213217336Y-86047935D01*
X213153261Y-86202624D01*
X213153260Y-86202626D01*
X213060238Y-86341844D01*
X212941844Y-86460238D01*
X212802626Y-86553260D01*
X212802625Y-86553261D01*
X212802624Y-86553261D01*
X212647935Y-86617336D01*
X212483719Y-86650000D01*
X212316281Y-86650000D01*
X212152065Y-86617336D01*
X211997376Y-86553261D01*
X211997375Y-86553261D01*
X211997374Y-86553260D01*
X211858156Y-86460238D01*
X211739762Y-86341844D01*
X211646740Y-86202626D01*
X211646739Y-86202624D01*
X211582664Y-86047935D01*
X211550000Y-85883719D01*
X211550000Y-85716281D01*
X211582664Y-85552065D01*
X211646739Y-85397376D01*
X211646740Y-85397374D01*
X211739762Y-85258156D01*
X211858156Y-85139762D01*
X211997374Y-85046740D01*
X211997376Y-85046739D01*
X212152065Y-84982664D01*
X212316281Y-84950000D01*
X212483719Y-84950000D01*
X212647935Y-84982664D01*
G37*
G36*
X221995000Y-84552000D02*
G01*
X220445000Y-84552000D01*
X220445000Y-83952000D01*
X221995000Y-83952000D01*
X221995000Y-84552000D01*
G37*
G36*
X216595000Y-84552000D02*
G01*
X215045000Y-84552000D01*
X215045000Y-83952000D01*
X216595000Y-83952000D01*
X216595000Y-84552000D01*
G37*
G36*
X231901000Y-84552000D02*
G01*
X230351000Y-84552000D01*
X230351000Y-83952000D01*
X231901000Y-83952000D01*
X231901000Y-84552000D01*
G37*
G36*
X226501000Y-84552000D02*
G01*
X224951000Y-84552000D01*
X224951000Y-83952000D01*
X226501000Y-83952000D01*
X226501000Y-84552000D01*
G37*
G36*
X212647935Y-82442664D02*
G01*
X212802624Y-82506739D01*
X212802626Y-82506740D01*
X212941844Y-82599762D01*
X213060238Y-82718156D01*
X213153260Y-82857374D01*
X213153261Y-82857376D01*
X213217336Y-83012065D01*
X213250000Y-83176281D01*
X213250000Y-83343719D01*
X213217336Y-83507935D01*
X213153261Y-83662624D01*
X213153260Y-83662626D01*
X213060238Y-83801844D01*
X212941844Y-83920238D01*
X212802626Y-84013260D01*
X212802625Y-84013261D01*
X212802624Y-84013261D01*
X212647935Y-84077336D01*
X212483719Y-84110000D01*
X212316281Y-84110000D01*
X212152065Y-84077336D01*
X211997376Y-84013261D01*
X211997375Y-84013261D01*
X211997374Y-84013260D01*
X211858156Y-83920238D01*
X211739762Y-83801844D01*
X211646740Y-83662626D01*
X211646739Y-83662624D01*
X211582664Y-83507935D01*
X211550000Y-83343719D01*
X211550000Y-83176281D01*
X211582664Y-83012065D01*
X211646739Y-82857376D01*
X211646740Y-82857374D01*
X211739762Y-82718156D01*
X211858156Y-82599762D01*
X211997374Y-82506740D01*
X211997376Y-82506739D01*
X212152065Y-82442664D01*
X212316281Y-82410000D01*
X212483719Y-82410000D01*
X212647935Y-82442664D01*
G37*
G36*
X235347935Y-82442664D02*
G01*
X235502624Y-82506739D01*
X235502626Y-82506740D01*
X235641844Y-82599762D01*
X235760238Y-82718156D01*
X235853260Y-82857374D01*
X235853261Y-82857376D01*
X235917336Y-83012065D01*
X235950000Y-83176281D01*
X235950000Y-83343719D01*
X235917336Y-83507935D01*
X235853261Y-83662624D01*
X235853260Y-83662626D01*
X235760238Y-83801844D01*
X235641844Y-83920238D01*
X235502626Y-84013260D01*
X235502625Y-84013261D01*
X235502624Y-84013261D01*
X235347935Y-84077336D01*
X235183719Y-84110000D01*
X235016281Y-84110000D01*
X234852065Y-84077336D01*
X234697376Y-84013261D01*
X234697375Y-84013261D01*
X234697374Y-84013260D01*
X234558156Y-83920238D01*
X234439762Y-83801844D01*
X234346740Y-83662626D01*
X234346739Y-83662624D01*
X234282664Y-83507935D01*
X234250000Y-83343719D01*
X234250000Y-83176281D01*
X234282664Y-83012065D01*
X234346739Y-82857376D01*
X234346740Y-82857374D01*
X234439762Y-82718156D01*
X234558156Y-82599762D01*
X234697374Y-82506740D01*
X234697376Y-82506739D01*
X234852065Y-82442664D01*
X235016281Y-82410000D01*
X235183719Y-82410000D01*
X235347935Y-82442664D01*
G37*
G36*
X221995000Y-83282000D02*
G01*
X220445000Y-83282000D01*
X220445000Y-82682000D01*
X221995000Y-82682000D01*
X221995000Y-83282000D01*
G37*
G36*
X226501000Y-83282000D02*
G01*
X224951000Y-83282000D01*
X224951000Y-82682000D01*
X226501000Y-82682000D01*
X226501000Y-83282000D01*
G37*
G36*
X231901000Y-83282000D02*
G01*
X230351000Y-83282000D01*
X230351000Y-82682000D01*
X231901000Y-82682000D01*
X231901000Y-83282000D01*
G37*
G36*
X216595000Y-83282000D02*
G01*
X215045000Y-83282000D01*
X215045000Y-82682000D01*
X216595000Y-82682000D01*
X216595000Y-83282000D01*
G37*
G36*
X226501000Y-82012000D02*
G01*
X224951000Y-82012000D01*
X224951000Y-81412000D01*
X226501000Y-81412000D01*
X226501000Y-82012000D01*
G37*
G36*
X231901000Y-82012000D02*
G01*
X230351000Y-82012000D01*
X230351000Y-81412000D01*
X231901000Y-81412000D01*
X231901000Y-82012000D01*
G37*
G36*
X221995000Y-82012000D02*
G01*
X220445000Y-82012000D01*
X220445000Y-81412000D01*
X221995000Y-81412000D01*
X221995000Y-82012000D01*
G37*
G36*
X216595000Y-82012000D02*
G01*
X215045000Y-82012000D01*
X215045000Y-81412000D01*
X216595000Y-81412000D01*
X216595000Y-82012000D01*
G37*
G36*
X212647935Y-79902664D02*
G01*
X212802624Y-79966739D01*
X212802626Y-79966740D01*
X212941844Y-80059762D01*
X213060238Y-80178156D01*
X213153260Y-80317374D01*
X213153261Y-80317376D01*
X213217336Y-80472065D01*
X213250000Y-80636281D01*
X213250000Y-80803719D01*
X213217336Y-80967935D01*
X213153261Y-81122624D01*
X213153260Y-81122626D01*
X213060238Y-81261844D01*
X212941844Y-81380238D01*
X212802626Y-81473260D01*
X212802625Y-81473261D01*
X212802624Y-81473261D01*
X212647935Y-81537336D01*
X212483719Y-81570000D01*
X212316281Y-81570000D01*
X212152065Y-81537336D01*
X211997376Y-81473261D01*
X211997375Y-81473261D01*
X211997374Y-81473260D01*
X211858156Y-81380238D01*
X211739762Y-81261844D01*
X211646740Y-81122626D01*
X211646739Y-81122624D01*
X211582664Y-80967935D01*
X211550000Y-80803719D01*
X211550000Y-80636281D01*
X211582664Y-80472065D01*
X211646739Y-80317376D01*
X211646740Y-80317374D01*
X211739762Y-80178156D01*
X211858156Y-80059762D01*
X211997374Y-79966740D01*
X211997376Y-79966739D01*
X212152065Y-79902664D01*
X212316281Y-79870000D01*
X212483719Y-79870000D01*
X212647935Y-79902664D01*
G37*
G36*
X235347935Y-79902664D02*
G01*
X235502624Y-79966739D01*
X235502626Y-79966740D01*
X235641844Y-80059762D01*
X235760238Y-80178156D01*
X235853260Y-80317374D01*
X235853261Y-80317376D01*
X235917336Y-80472065D01*
X235950000Y-80636281D01*
X235950000Y-80803719D01*
X235917336Y-80967935D01*
X235853261Y-81122624D01*
X235853260Y-81122626D01*
X235760238Y-81261844D01*
X235641844Y-81380238D01*
X235502626Y-81473260D01*
X235502625Y-81473261D01*
X235502624Y-81473261D01*
X235347935Y-81537336D01*
X235183719Y-81570000D01*
X235016281Y-81570000D01*
X234852065Y-81537336D01*
X234697376Y-81473261D01*
X234697375Y-81473261D01*
X234697374Y-81473260D01*
X234558156Y-81380238D01*
X234439762Y-81261844D01*
X234346740Y-81122626D01*
X234346739Y-81122624D01*
X234282664Y-80967935D01*
X234250000Y-80803719D01*
X234250000Y-80636281D01*
X234282664Y-80472065D01*
X234346739Y-80317376D01*
X234346740Y-80317374D01*
X234439762Y-80178156D01*
X234558156Y-80059762D01*
X234697374Y-79966740D01*
X234697376Y-79966739D01*
X234852065Y-79902664D01*
X235016281Y-79870000D01*
X235183719Y-79870000D01*
X235347935Y-79902664D01*
G37*
G36*
X221995000Y-80742000D02*
G01*
X220445000Y-80742000D01*
X220445000Y-80142000D01*
X221995000Y-80142000D01*
X221995000Y-80742000D01*
G37*
G36*
X231901000Y-80742000D02*
G01*
X230351000Y-80742000D01*
X230351000Y-80142000D01*
X231901000Y-80142000D01*
X231901000Y-80742000D01*
G37*
G36*
X226501000Y-80742000D02*
G01*
X224951000Y-80742000D01*
X224951000Y-80142000D01*
X226501000Y-80142000D01*
X226501000Y-80742000D01*
G37*
G36*
X216595000Y-80742000D02*
G01*
X215045000Y-80742000D01*
X215045000Y-80142000D01*
X216595000Y-80142000D01*
X216595000Y-80742000D01*
G37*
G36*
X235347935Y-77362664D02*
G01*
X235502624Y-77426739D01*
X235502626Y-77426740D01*
X235641844Y-77519762D01*
X235760238Y-77638156D01*
X235853260Y-77777374D01*
X235853261Y-77777376D01*
X235917336Y-77932065D01*
X235950000Y-78096281D01*
X235950000Y-78263719D01*
X235917336Y-78427935D01*
X235853261Y-78582624D01*
X235853260Y-78582626D01*
X235760238Y-78721844D01*
X235641844Y-78840238D01*
X235502626Y-78933260D01*
X235502625Y-78933261D01*
X235502624Y-78933261D01*
X235347935Y-78997336D01*
X235183719Y-79030000D01*
X235016281Y-79030000D01*
X234852065Y-78997336D01*
X234697376Y-78933261D01*
X234697375Y-78933261D01*
X234697374Y-78933260D01*
X234558156Y-78840238D01*
X234439762Y-78721844D01*
X234346740Y-78582626D01*
X234346739Y-78582624D01*
X234282664Y-78427935D01*
X234250000Y-78263719D01*
X234250000Y-78096281D01*
X234282664Y-77932065D01*
X234346739Y-77777376D01*
X234346740Y-77777374D01*
X234439762Y-77638156D01*
X234558156Y-77519762D01*
X234697374Y-77426740D01*
X234697376Y-77426739D01*
X234852065Y-77362664D01*
X235016281Y-77330000D01*
X235183719Y-77330000D01*
X235347935Y-77362664D01*
G37*
G36*
X212647935Y-77362664D02*
G01*
X212802624Y-77426739D01*
X212802626Y-77426740D01*
X212941844Y-77519762D01*
X213060238Y-77638156D01*
X213153260Y-77777374D01*
X213153261Y-77777376D01*
X213217336Y-77932065D01*
X213250000Y-78096281D01*
X213250000Y-78263719D01*
X213217336Y-78427935D01*
X213153261Y-78582624D01*
X213153260Y-78582626D01*
X213060238Y-78721844D01*
X212941844Y-78840238D01*
X212802626Y-78933260D01*
X212802625Y-78933261D01*
X212802624Y-78933261D01*
X212647935Y-78997336D01*
X212483719Y-79030000D01*
X212316281Y-79030000D01*
X212152065Y-78997336D01*
X211997376Y-78933261D01*
X211997375Y-78933261D01*
X211997374Y-78933260D01*
X211858156Y-78840238D01*
X211739762Y-78721844D01*
X211646740Y-78582626D01*
X211646739Y-78582624D01*
X211582664Y-78427935D01*
X211550000Y-78263719D01*
X211550000Y-78096281D01*
X211582664Y-77932065D01*
X211646739Y-77777376D01*
X211646740Y-77777374D01*
X211739762Y-77638156D01*
X211858156Y-77519762D01*
X211997374Y-77426740D01*
X211997376Y-77426739D01*
X212152065Y-77362664D01*
X212316281Y-77330000D01*
X212483719Y-77330000D01*
X212647935Y-77362664D01*
G37*
G36*
X231850000Y-78175000D02*
G01*
X230850000Y-78175000D01*
X230850000Y-77175000D01*
X231850000Y-77175000D01*
X231850000Y-78175000D01*
G37*
G36*
X230225843Y-77194214D02*
G01*
X230225846Y-77194215D01*
X230225845Y-77194215D01*
X230316839Y-77231906D01*
X230398731Y-77286625D01*
X230468375Y-77356269D01*
X230515463Y-77426740D01*
X230523095Y-77438163D01*
X230560786Y-77529157D01*
X230580000Y-77625753D01*
X230580000Y-77724247D01*
X230560786Y-77820843D01*
X230560785Y-77820845D01*
X230523094Y-77911839D01*
X230468375Y-77993731D01*
X230398731Y-78063375D01*
X230316839Y-78118094D01*
X230316838Y-78118095D01*
X230316837Y-78118095D01*
X230225843Y-78155786D01*
X230129247Y-78175000D01*
X230030753Y-78175000D01*
X229934157Y-78155786D01*
X229843163Y-78118095D01*
X229843162Y-78118095D01*
X229843161Y-78118094D01*
X229761269Y-78063375D01*
X229691625Y-77993731D01*
X229636906Y-77911839D01*
X229599215Y-77820845D01*
X229599214Y-77820843D01*
X229580000Y-77724247D01*
X229580000Y-77625753D01*
X229599214Y-77529157D01*
X229636905Y-77438163D01*
X229644538Y-77426740D01*
X229691625Y-77356269D01*
X229761269Y-77286625D01*
X229843161Y-77231906D01*
X229934155Y-77194215D01*
X229934154Y-77194215D01*
X229934157Y-77194214D01*
X230030753Y-77175000D01*
X230129247Y-77175000D01*
X230225843Y-77194214D01*
G37*
G36*
X230225843Y-75924214D02*
G01*
X230225846Y-75924215D01*
X230225845Y-75924215D01*
X230316839Y-75961906D01*
X230358063Y-75989451D01*
X230398730Y-76016624D01*
X230468376Y-76086270D01*
X230523095Y-76168163D01*
X230560786Y-76259157D01*
X230580000Y-76355753D01*
X230580000Y-76454247D01*
X230560786Y-76550843D01*
X230560785Y-76550845D01*
X230523094Y-76641839D01*
X230468375Y-76723731D01*
X230398731Y-76793375D01*
X230316839Y-76848094D01*
X230316838Y-76848095D01*
X230316837Y-76848095D01*
X230225843Y-76885786D01*
X230129247Y-76905000D01*
X230030753Y-76905000D01*
X229934157Y-76885786D01*
X229843163Y-76848095D01*
X229843162Y-76848095D01*
X229843161Y-76848094D01*
X229761269Y-76793375D01*
X229691625Y-76723731D01*
X229636906Y-76641839D01*
X229599215Y-76550845D01*
X229599214Y-76550843D01*
X229580000Y-76454247D01*
X229580000Y-76355753D01*
X229599214Y-76259157D01*
X229636905Y-76168163D01*
X229691624Y-76086270D01*
X229761270Y-76016624D01*
X229801937Y-75989451D01*
X229843161Y-75961906D01*
X229934155Y-75924215D01*
X229934154Y-75924215D01*
X229934157Y-75924214D01*
X230030753Y-75905000D01*
X230129247Y-75905000D01*
X230225843Y-75924214D01*
G37*
G36*
X231495843Y-75924214D02*
G01*
X231495846Y-75924215D01*
X231495845Y-75924215D01*
X231586839Y-75961906D01*
X231628063Y-75989451D01*
X231668730Y-76016624D01*
X231738376Y-76086270D01*
X231793095Y-76168163D01*
X231830786Y-76259157D01*
X231850000Y-76355753D01*
X231850000Y-76454247D01*
X231830786Y-76550843D01*
X231830785Y-76550845D01*
X231793094Y-76641839D01*
X231738375Y-76723731D01*
X231668731Y-76793375D01*
X231586839Y-76848094D01*
X231586838Y-76848095D01*
X231586837Y-76848095D01*
X231495843Y-76885786D01*
X231399247Y-76905000D01*
X231300753Y-76905000D01*
X231204157Y-76885786D01*
X231113163Y-76848095D01*
X231113162Y-76848095D01*
X231113161Y-76848094D01*
X231031269Y-76793375D01*
X230961625Y-76723731D01*
X230906906Y-76641839D01*
X230869215Y-76550845D01*
X230869214Y-76550843D01*
X230850000Y-76454247D01*
X230850000Y-76355753D01*
X230869214Y-76259157D01*
X230906905Y-76168163D01*
X230961624Y-76086270D01*
X231031270Y-76016624D01*
X231071937Y-75989451D01*
X231113161Y-75961906D01*
X231204155Y-75924215D01*
X231204154Y-75924215D01*
X231204157Y-75924214D01*
X231300753Y-75905000D01*
X231399247Y-75905000D01*
X231495843Y-75924214D01*
G37*
G36*
X235347935Y-74822664D02*
G01*
X235502624Y-74886739D01*
X235502626Y-74886740D01*
X235641844Y-74979762D01*
X235760238Y-75098156D01*
X235853260Y-75237374D01*
X235853261Y-75237376D01*
X235917336Y-75392065D01*
X235950000Y-75556281D01*
X235950000Y-75723719D01*
X235917336Y-75887935D01*
X235864030Y-76016625D01*
X235853260Y-76042626D01*
X235760238Y-76181844D01*
X235641844Y-76300238D01*
X235502626Y-76393260D01*
X235502625Y-76393261D01*
X235502624Y-76393261D01*
X235347935Y-76457336D01*
X235183719Y-76490000D01*
X235016281Y-76490000D01*
X234852065Y-76457336D01*
X234697376Y-76393261D01*
X234697375Y-76393261D01*
X234697374Y-76393260D01*
X234558156Y-76300238D01*
X234439762Y-76181844D01*
X234346740Y-76042626D01*
X234335970Y-76016625D01*
X234282664Y-75887935D01*
X234250000Y-75723719D01*
X234250000Y-75556281D01*
X234282664Y-75392065D01*
X234346739Y-75237376D01*
X234346740Y-75237374D01*
X234439762Y-75098156D01*
X234558156Y-74979762D01*
X234697374Y-74886740D01*
X234697376Y-74886739D01*
X234852065Y-74822664D01*
X235016281Y-74790000D01*
X235183719Y-74790000D01*
X235347935Y-74822664D01*
G37*
G36*
X212647935Y-74822664D02*
G01*
X212802624Y-74886739D01*
X212802626Y-74886740D01*
X212941844Y-74979762D01*
X213060238Y-75098156D01*
X213153260Y-75237374D01*
X213153261Y-75237376D01*
X213217336Y-75392065D01*
X213250000Y-75556281D01*
X213250000Y-75723719D01*
X213217336Y-75887935D01*
X213164030Y-76016625D01*
X213153260Y-76042626D01*
X213060238Y-76181844D01*
X212941844Y-76300238D01*
X212802626Y-76393260D01*
X212802625Y-76393261D01*
X212802624Y-76393261D01*
X212647935Y-76457336D01*
X212483719Y-76490000D01*
X212316281Y-76490000D01*
X212152065Y-76457336D01*
X211997376Y-76393261D01*
X211997375Y-76393261D01*
X211997374Y-76393260D01*
X211858156Y-76300238D01*
X211739762Y-76181844D01*
X211646740Y-76042626D01*
X211635970Y-76016625D01*
X211582664Y-75887935D01*
X211550000Y-75723719D01*
X211550000Y-75556281D01*
X211582664Y-75392065D01*
X211646739Y-75237376D01*
X211646740Y-75237374D01*
X211739762Y-75098156D01*
X211858156Y-74979762D01*
X211997374Y-74886740D01*
X211997376Y-74886739D01*
X212152065Y-74822664D01*
X212316281Y-74790000D01*
X212483719Y-74790000D01*
X212647935Y-74822664D01*
G37*
G36*
X230225843Y-74654214D02*
G01*
X230225846Y-74654215D01*
X230225845Y-74654215D01*
X230316839Y-74691906D01*
X230398731Y-74746625D01*
X230468375Y-74816269D01*
X230515463Y-74886740D01*
X230523095Y-74898163D01*
X230560786Y-74989157D01*
X230580000Y-75085753D01*
X230580000Y-75184247D01*
X230560786Y-75280843D01*
X230560785Y-75280845D01*
X230523094Y-75371839D01*
X230468375Y-75453731D01*
X230398731Y-75523375D01*
X230316839Y-75578094D01*
X230316838Y-75578095D01*
X230316837Y-75578095D01*
X230225843Y-75615786D01*
X230129247Y-75635000D01*
X230030753Y-75635000D01*
X229934157Y-75615786D01*
X229843163Y-75578095D01*
X229843162Y-75578095D01*
X229843161Y-75578094D01*
X229761269Y-75523375D01*
X229691625Y-75453731D01*
X229636906Y-75371839D01*
X229599215Y-75280845D01*
X229599214Y-75280843D01*
X229580000Y-75184247D01*
X229580000Y-75085753D01*
X229599214Y-74989157D01*
X229636905Y-74898163D01*
X229644538Y-74886740D01*
X229691625Y-74816269D01*
X229761269Y-74746625D01*
X229843161Y-74691906D01*
X229934155Y-74654215D01*
X229934154Y-74654215D01*
X229934157Y-74654214D01*
X230030753Y-74635000D01*
X230129247Y-74635000D01*
X230225843Y-74654214D01*
G37*
G36*
X231495843Y-74654214D02*
G01*
X231495846Y-74654215D01*
X231495845Y-74654215D01*
X231586839Y-74691906D01*
X231668731Y-74746625D01*
X231738375Y-74816269D01*
X231785463Y-74886740D01*
X231793095Y-74898163D01*
X231830786Y-74989157D01*
X231850000Y-75085753D01*
X231850000Y-75184247D01*
X231830786Y-75280843D01*
X231830785Y-75280845D01*
X231793094Y-75371839D01*
X231738375Y-75453731D01*
X231668731Y-75523375D01*
X231586839Y-75578094D01*
X231586838Y-75578095D01*
X231586837Y-75578095D01*
X231495843Y-75615786D01*
X231399247Y-75635000D01*
X231300753Y-75635000D01*
X231204157Y-75615786D01*
X231113163Y-75578095D01*
X231113162Y-75578095D01*
X231113161Y-75578094D01*
X231031269Y-75523375D01*
X230961625Y-75453731D01*
X230906906Y-75371839D01*
X230869215Y-75280845D01*
X230869214Y-75280843D01*
X230850000Y-75184247D01*
X230850000Y-75085753D01*
X230869214Y-74989157D01*
X230906905Y-74898163D01*
X230914538Y-74886740D01*
X230961625Y-74816269D01*
X231031269Y-74746625D01*
X231113161Y-74691906D01*
X231204155Y-74654215D01*
X231204154Y-74654215D01*
X231204157Y-74654214D01*
X231300753Y-74635000D01*
X231399247Y-74635000D01*
X231495843Y-74654214D01*
G37*
G36*
X230225843Y-73384214D02*
G01*
X230225846Y-73384215D01*
X230225845Y-73384215D01*
X230316839Y-73421906D01*
X230358063Y-73449451D01*
X230398730Y-73476624D01*
X230468376Y-73546270D01*
X230523095Y-73628163D01*
X230560786Y-73719157D01*
X230580000Y-73815753D01*
X230580000Y-73914247D01*
X230560786Y-74010843D01*
X230560785Y-74010845D01*
X230523094Y-74101839D01*
X230468375Y-74183731D01*
X230398731Y-74253375D01*
X230316839Y-74308094D01*
X230316838Y-74308095D01*
X230316837Y-74308095D01*
X230225843Y-74345786D01*
X230129247Y-74365000D01*
X230030753Y-74365000D01*
X229934157Y-74345786D01*
X229843163Y-74308095D01*
X229843162Y-74308095D01*
X229843161Y-74308094D01*
X229761269Y-74253375D01*
X229691625Y-74183731D01*
X229636906Y-74101839D01*
X229599215Y-74010845D01*
X229599214Y-74010843D01*
X229580000Y-73914247D01*
X229580000Y-73815753D01*
X229599214Y-73719157D01*
X229636905Y-73628163D01*
X229691624Y-73546270D01*
X229761270Y-73476624D01*
X229801937Y-73449451D01*
X229843161Y-73421906D01*
X229934155Y-73384215D01*
X229934154Y-73384215D01*
X229934157Y-73384214D01*
X230030753Y-73365000D01*
X230129247Y-73365000D01*
X230225843Y-73384214D01*
G37*
G36*
X231495843Y-73384214D02*
G01*
X231495846Y-73384215D01*
X231495845Y-73384215D01*
X231586839Y-73421906D01*
X231628063Y-73449451D01*
X231668730Y-73476624D01*
X231738376Y-73546270D01*
X231793095Y-73628163D01*
X231830786Y-73719157D01*
X231850000Y-73815753D01*
X231850000Y-73914247D01*
X231830786Y-74010843D01*
X231830785Y-74010845D01*
X231793094Y-74101839D01*
X231738375Y-74183731D01*
X231668731Y-74253375D01*
X231586839Y-74308094D01*
X231586838Y-74308095D01*
X231586837Y-74308095D01*
X231495843Y-74345786D01*
X231399247Y-74365000D01*
X231300753Y-74365000D01*
X231204157Y-74345786D01*
X231113163Y-74308095D01*
X231113162Y-74308095D01*
X231113161Y-74308094D01*
X231031269Y-74253375D01*
X230961625Y-74183731D01*
X230906906Y-74101839D01*
X230869215Y-74010845D01*
X230869214Y-74010843D01*
X230850000Y-73914247D01*
X230850000Y-73815753D01*
X230869214Y-73719157D01*
X230906905Y-73628163D01*
X230961624Y-73546270D01*
X231031270Y-73476624D01*
X231071937Y-73449451D01*
X231113161Y-73421906D01*
X231204155Y-73384215D01*
X231204154Y-73384215D01*
X231204157Y-73384214D01*
X231300753Y-73365000D01*
X231399247Y-73365000D01*
X231495843Y-73384214D01*
G37*
G36*
X235347935Y-72282664D02*
G01*
X235502624Y-72346739D01*
X235502626Y-72346740D01*
X235641844Y-72439762D01*
X235760238Y-72558156D01*
X235853260Y-72697374D01*
X235853261Y-72697376D01*
X235917336Y-72852065D01*
X235950000Y-73016281D01*
X235950000Y-73183719D01*
X235917336Y-73347935D01*
X235864030Y-73476625D01*
X235853260Y-73502626D01*
X235760238Y-73641844D01*
X235641844Y-73760238D01*
X235502626Y-73853260D01*
X235502625Y-73853261D01*
X235502624Y-73853261D01*
X235347935Y-73917336D01*
X235183719Y-73950000D01*
X235016281Y-73950000D01*
X234852065Y-73917336D01*
X234697376Y-73853261D01*
X234697375Y-73853261D01*
X234697374Y-73853260D01*
X234558156Y-73760238D01*
X234439762Y-73641844D01*
X234346740Y-73502626D01*
X234335970Y-73476625D01*
X234282664Y-73347935D01*
X234250000Y-73183719D01*
X234250000Y-73016281D01*
X234282664Y-72852065D01*
X234346739Y-72697376D01*
X234346740Y-72697374D01*
X234439762Y-72558156D01*
X234558156Y-72439762D01*
X234697374Y-72346740D01*
X234697376Y-72346739D01*
X234852065Y-72282664D01*
X235016281Y-72250000D01*
X235183719Y-72250000D01*
X235347935Y-72282664D01*
G37*
G36*
X212647935Y-72282664D02*
G01*
X212802624Y-72346739D01*
X212802626Y-72346740D01*
X212941844Y-72439762D01*
X213060238Y-72558156D01*
X213153260Y-72697374D01*
X213153261Y-72697376D01*
X213217336Y-72852065D01*
X213250000Y-73016281D01*
X213250000Y-73183719D01*
X213217336Y-73347935D01*
X213164030Y-73476625D01*
X213153260Y-73502626D01*
X213060238Y-73641844D01*
X212941844Y-73760238D01*
X212802626Y-73853260D01*
X212802625Y-73853261D01*
X212802624Y-73853261D01*
X212647935Y-73917336D01*
X212483719Y-73950000D01*
X212316281Y-73950000D01*
X212152065Y-73917336D01*
X211997376Y-73853261D01*
X211997375Y-73853261D01*
X211997374Y-73853260D01*
X211858156Y-73760238D01*
X211739762Y-73641844D01*
X211646740Y-73502626D01*
X211635970Y-73476625D01*
X211582664Y-73347935D01*
X211550000Y-73183719D01*
X211550000Y-73016281D01*
X211582664Y-72852065D01*
X211646739Y-72697376D01*
X211646740Y-72697374D01*
X211739762Y-72558156D01*
X211858156Y-72439762D01*
X211997374Y-72346740D01*
X211997376Y-72346739D01*
X212152065Y-72282664D01*
X212316281Y-72250000D01*
X212483719Y-72250000D01*
X212647935Y-72282664D01*
G37*
G36*
X230225843Y-72114214D02*
G01*
X230225846Y-72114215D01*
X230225845Y-72114215D01*
X230316839Y-72151906D01*
X230398731Y-72206625D01*
X230468375Y-72276269D01*
X230515463Y-72346740D01*
X230523095Y-72358163D01*
X230560786Y-72449157D01*
X230580000Y-72545753D01*
X230580000Y-72644247D01*
X230560786Y-72740843D01*
X230560785Y-72740845D01*
X230523094Y-72831839D01*
X230468375Y-72913731D01*
X230398731Y-72983375D01*
X230316839Y-73038094D01*
X230316838Y-73038095D01*
X230316837Y-73038095D01*
X230225843Y-73075786D01*
X230129247Y-73095000D01*
X230030753Y-73095000D01*
X229934157Y-73075786D01*
X229843163Y-73038095D01*
X229843162Y-73038095D01*
X229843161Y-73038094D01*
X229761269Y-72983375D01*
X229691625Y-72913731D01*
X229636906Y-72831839D01*
X229599215Y-72740845D01*
X229599214Y-72740843D01*
X229580000Y-72644247D01*
X229580000Y-72545753D01*
X229599214Y-72449157D01*
X229636905Y-72358163D01*
X229644538Y-72346740D01*
X229691625Y-72276269D01*
X229761269Y-72206625D01*
X229843161Y-72151906D01*
X229934155Y-72114215D01*
X229934154Y-72114215D01*
X229934157Y-72114214D01*
X230030753Y-72095000D01*
X230129247Y-72095000D01*
X230225843Y-72114214D01*
G37*
G36*
X231495843Y-72114214D02*
G01*
X231495846Y-72114215D01*
X231495845Y-72114215D01*
X231586839Y-72151906D01*
X231668731Y-72206625D01*
X231738375Y-72276269D01*
X231785463Y-72346740D01*
X231793095Y-72358163D01*
X231830786Y-72449157D01*
X231850000Y-72545753D01*
X231850000Y-72644247D01*
X231830786Y-72740843D01*
X231830785Y-72740845D01*
X231793094Y-72831839D01*
X231738375Y-72913731D01*
X231668731Y-72983375D01*
X231586839Y-73038094D01*
X231586838Y-73038095D01*
X231586837Y-73038095D01*
X231495843Y-73075786D01*
X231399247Y-73095000D01*
X231300753Y-73095000D01*
X231204157Y-73075786D01*
X231113163Y-73038095D01*
X231113162Y-73038095D01*
X231113161Y-73038094D01*
X231031269Y-72983375D01*
X230961625Y-72913731D01*
X230906906Y-72831839D01*
X230869215Y-72740845D01*
X230869214Y-72740843D01*
X230850000Y-72644247D01*
X230850000Y-72545753D01*
X230869214Y-72449157D01*
X230906905Y-72358163D01*
X230914538Y-72346740D01*
X230961625Y-72276269D01*
X231031269Y-72206625D01*
X231113161Y-72151906D01*
X231204155Y-72114215D01*
X231204154Y-72114215D01*
X231204157Y-72114214D01*
X231300753Y-72095000D01*
X231399247Y-72095000D01*
X231495843Y-72114214D01*
G37*
G36*
X235950000Y-71410000D02*
G01*
X234250000Y-71410000D01*
X234250000Y-69710000D01*
X235950000Y-69710000D01*
X235950000Y-71410000D01*
G37*
G36*
X213250000Y-71410000D02*
G01*
X211550000Y-71410000D01*
X211550000Y-69710000D01*
X213250000Y-69710000D01*
X213250000Y-71410000D01*
G37*
G36*
X235309383Y-66289411D02*
G01*
X235377629Y-66317680D01*
X235439048Y-66358719D01*
X235491281Y-66410952D01*
X235532320Y-66472371D01*
X235560589Y-66540617D01*
X235575000Y-66613066D01*
X235575000Y-66686934D01*
X235560589Y-66759383D01*
X235532320Y-66827629D01*
X235491281Y-66889048D01*
X235439048Y-66941281D01*
X235377629Y-66982320D01*
X235309383Y-67010589D01*
X235236934Y-67025000D01*
X235163066Y-67025000D01*
X235090617Y-67010589D01*
X235022371Y-66982320D01*
X234960952Y-66941281D01*
X234908719Y-66889048D01*
X234867680Y-66827629D01*
X234839411Y-66759383D01*
X234825000Y-66686934D01*
X234825000Y-66613066D01*
X234839411Y-66540617D01*
X234867680Y-66472371D01*
X234908719Y-66410952D01*
X234960952Y-66358719D01*
X235022371Y-66317680D01*
X235090617Y-66289411D01*
X235163066Y-66275000D01*
X235236934Y-66275000D01*
X235309383Y-66289411D01*
G37*
G36*
X235309383Y-64589411D02*
G01*
X235377629Y-64617680D01*
X235439048Y-64658719D01*
X235491281Y-64710952D01*
X235532320Y-64772371D01*
X235560589Y-64840617D01*
X235575000Y-64913066D01*
X235575000Y-64986934D01*
X235560589Y-65059383D01*
X235532320Y-65127629D01*
X235491281Y-65189048D01*
X235439048Y-65241281D01*
X235377629Y-65282320D01*
X235309383Y-65310589D01*
X235236934Y-65325000D01*
X235163066Y-65325000D01*
X235090617Y-65310589D01*
X235022371Y-65282320D01*
X234960952Y-65241281D01*
X234908719Y-65189048D01*
X234867680Y-65127629D01*
X234839411Y-65059383D01*
X234825000Y-64986934D01*
X234825000Y-64913066D01*
X234839411Y-64840617D01*
X234867680Y-64772371D01*
X234908719Y-64710952D01*
X234960952Y-64658719D01*
X235022371Y-64617680D01*
X235090617Y-64589411D01*
X235163066Y-64575000D01*
X235236934Y-64575000D01*
X235309383Y-64589411D01*
G37*
G36*
X213247735Y-58108999D02*
G01*
X213329688Y-58133860D01*
X213405229Y-58174237D01*
X213471432Y-58228568D01*
X213525763Y-58294771D01*
X213566140Y-58370312D01*
X213591001Y-58452265D01*
X213600000Y-58543640D01*
X213600000Y-59656360D01*
X213591001Y-59747735D01*
X213566140Y-59829688D01*
X213525763Y-59905229D01*
X213471432Y-59971432D01*
X213405229Y-60025763D01*
X213329688Y-60066140D01*
X213247735Y-60091001D01*
X213156360Y-60100000D01*
X212043640Y-60100000D01*
X211952265Y-60091001D01*
X211870312Y-60066140D01*
X211794771Y-60025763D01*
X211728568Y-59971432D01*
X211674237Y-59905229D01*
X211633860Y-59829688D01*
X211608999Y-59747735D01*
X211600000Y-59656360D01*
X211600000Y-58543640D01*
X211608999Y-58452265D01*
X211633860Y-58370312D01*
X211674237Y-58294771D01*
X211728568Y-58228568D01*
X211794771Y-58174237D01*
X211870312Y-58133860D01*
X211952265Y-58108999D01*
X212043640Y-58100000D01*
X213156360Y-58100000D01*
X213247735Y-58108999D01*
G37*
G36*
X235031259Y-58867293D02*
G01*
X235113155Y-58901215D01*
X235186858Y-58950462D01*
X235249538Y-59013142D01*
X235298785Y-59086845D01*
X235332707Y-59168741D01*
X235350000Y-59255678D01*
X235350000Y-59344322D01*
X235332707Y-59431259D01*
X235315745Y-59472208D01*
X235298785Y-59513155D01*
X235249538Y-59586858D01*
X235186858Y-59649538D01*
X235113155Y-59698785D01*
X235072208Y-59715745D01*
X235031259Y-59732707D01*
X234944322Y-59750000D01*
X234855678Y-59750000D01*
X234768741Y-59732707D01*
X234727792Y-59715745D01*
X234686845Y-59698785D01*
X234613142Y-59649538D01*
X234550462Y-59586858D01*
X234501215Y-59513155D01*
X234484255Y-59472208D01*
X234467293Y-59431259D01*
X234450000Y-59344322D01*
X234450000Y-59255678D01*
X234467293Y-59168741D01*
X234501215Y-59086845D01*
X234550462Y-59013142D01*
X234613142Y-58950462D01*
X234686845Y-58901215D01*
X234768741Y-58867293D01*
X234855678Y-58850000D01*
X234944322Y-58850000D01*
X235031259Y-58867293D01*
G37*
G36*
X215753952Y-57352653D02*
G01*
X215807819Y-57357958D01*
X215884518Y-57381225D01*
X215911498Y-57389409D01*
X216007038Y-57440476D01*
X216090790Y-57509210D01*
X216159524Y-57592962D01*
X216210591Y-57688502D01*
X216210592Y-57688506D01*
X216242042Y-57792181D01*
X216252661Y-57900000D01*
X216242042Y-58007819D01*
X216218775Y-58084518D01*
X216210591Y-58111498D01*
X216159524Y-58207038D01*
X216090790Y-58290790D01*
X216007038Y-58359524D01*
X215911498Y-58410591D01*
X215884518Y-58418775D01*
X215807819Y-58442042D01*
X215753952Y-58447347D01*
X215727019Y-58450000D01*
X215472981Y-58450000D01*
X215446048Y-58447347D01*
X215392181Y-58442042D01*
X215315482Y-58418775D01*
X215288502Y-58410591D01*
X215192962Y-58359524D01*
X215109210Y-58290790D01*
X215040476Y-58207038D01*
X214989409Y-58111498D01*
X214981225Y-58084518D01*
X214957958Y-58007819D01*
X214947339Y-57900000D01*
X214957958Y-57792181D01*
X214989408Y-57688506D01*
X214989409Y-57688502D01*
X215040476Y-57592962D01*
X215109210Y-57509210D01*
X215192962Y-57440476D01*
X215288502Y-57389409D01*
X215315482Y-57381225D01*
X215392181Y-57357958D01*
X215446048Y-57352653D01*
X215472981Y-57350000D01*
X215727019Y-57350000D01*
X215753952Y-57352653D01*
G37*
G36*
X235031259Y-55867293D02*
G01*
X235113155Y-55901215D01*
X235186858Y-55950462D01*
X235249538Y-56013142D01*
X235298785Y-56086845D01*
X235315745Y-56127792D01*
X235332707Y-56168741D01*
X235350000Y-56255678D01*
X235350000Y-56344322D01*
X235332707Y-56431259D01*
X235298785Y-56513155D01*
X235249538Y-56586858D01*
X235186858Y-56649538D01*
X235113155Y-56698785D01*
X235031259Y-56732707D01*
X234944322Y-56750000D01*
X234855678Y-56750000D01*
X234768741Y-56732707D01*
X234686845Y-56698785D01*
X234613142Y-56649538D01*
X234550462Y-56586858D01*
X234501215Y-56513155D01*
X234467293Y-56431259D01*
X234450000Y-56344322D01*
X234450000Y-56255678D01*
X234467293Y-56168741D01*
X234484255Y-56127792D01*
X234501215Y-56086845D01*
X234550462Y-56013142D01*
X234613142Y-55950462D01*
X234686845Y-55901215D01*
X234768741Y-55867293D01*
X234855678Y-55850000D01*
X234944322Y-55850000D01*
X235031259Y-55867293D01*
G37*
G36*
X215753952Y-52552653D02*
G01*
X215807819Y-52557958D01*
X215884518Y-52581225D01*
X215911498Y-52589409D01*
X216007038Y-52640476D01*
X216090790Y-52709210D01*
X216159524Y-52792962D01*
X216210591Y-52888502D01*
X216211349Y-52891001D01*
X216242042Y-52992181D01*
X216252661Y-53100000D01*
X216242042Y-53207819D01*
X216218775Y-53284518D01*
X216210591Y-53311498D01*
X216159524Y-53407038D01*
X216090790Y-53490790D01*
X216007038Y-53559524D01*
X215911498Y-53610591D01*
X215884518Y-53618775D01*
X215807819Y-53642042D01*
X215753952Y-53647347D01*
X215727019Y-53650000D01*
X215472981Y-53650000D01*
X215446048Y-53647347D01*
X215392181Y-53642042D01*
X215315482Y-53618775D01*
X215288502Y-53610591D01*
X215192962Y-53559524D01*
X215109210Y-53490790D01*
X215040476Y-53407038D01*
X214989409Y-53311498D01*
X214981225Y-53284518D01*
X214957958Y-53207819D01*
X214947339Y-53100000D01*
X214957958Y-52992181D01*
X214988651Y-52891001D01*
X214989409Y-52888502D01*
X215040476Y-52792962D01*
X215109210Y-52709210D01*
X215192962Y-52640476D01*
X215288502Y-52589409D01*
X215315482Y-52581225D01*
X215392181Y-52557958D01*
X215446048Y-52552653D01*
X215472981Y-52550000D01*
X215727019Y-52550000D01*
X215753952Y-52552653D01*
G37*
G36*
X213247735Y-50908999D02*
G01*
X213329688Y-50933860D01*
X213405229Y-50974237D01*
X213471432Y-51028568D01*
X213525763Y-51094771D01*
X213566140Y-51170312D01*
X213591001Y-51252265D01*
X213600000Y-51343640D01*
X213600000Y-52456360D01*
X213591001Y-52547735D01*
X213566140Y-52629688D01*
X213525763Y-52705229D01*
X213471432Y-52771432D01*
X213405229Y-52825763D01*
X213329688Y-52866140D01*
X213247735Y-52891001D01*
X213156360Y-52900000D01*
X212043640Y-52900000D01*
X211952265Y-52891001D01*
X211870312Y-52866140D01*
X211794771Y-52825763D01*
X211728568Y-52771432D01*
X211674237Y-52705229D01*
X211633860Y-52629688D01*
X211608999Y-52547735D01*
X211600000Y-52456360D01*
X211600000Y-51343640D01*
X211608999Y-51252265D01*
X211633860Y-51170312D01*
X211674237Y-51094771D01*
X211728568Y-51028568D01*
X211794771Y-50974237D01*
X211870312Y-50933860D01*
X211952265Y-50908999D01*
X212043640Y-50900000D01*
X213156360Y-50900000D01*
X213247735Y-50908999D01*
G37*
G36*
X235990000Y-52450000D02*
G01*
X234290000Y-52450000D01*
X234290000Y-50750000D01*
X235990000Y-50750000D01*
X235990000Y-52450000D01*
G37*
G36*
X232847935Y-50782664D02*
G01*
X233002624Y-50846739D01*
X233002626Y-50846740D01*
X233141844Y-50939762D01*
X233260238Y-51058156D01*
X233353260Y-51197374D01*
X233353261Y-51197376D01*
X233417336Y-51352065D01*
X233450000Y-51516281D01*
X233450000Y-51683719D01*
X233417336Y-51847935D01*
X233353261Y-52002624D01*
X233353260Y-52002626D01*
X233260238Y-52141844D01*
X233141844Y-52260238D01*
X233002626Y-52353260D01*
X233002625Y-52353261D01*
X233002624Y-52353261D01*
X232847935Y-52417336D01*
X232683719Y-52450000D01*
X232516281Y-52450000D01*
X232352065Y-52417336D01*
X232197376Y-52353261D01*
X232197375Y-52353261D01*
X232197374Y-52353260D01*
X232058156Y-52260238D01*
X231939762Y-52141844D01*
X231846740Y-52002626D01*
X231846739Y-52002624D01*
X231782664Y-51847935D01*
X231750000Y-51683719D01*
X231750000Y-51516281D01*
X231782664Y-51352065D01*
X231846739Y-51197376D01*
X231846740Y-51197374D01*
X231939762Y-51058156D01*
X232058156Y-50939762D01*
X232197374Y-50846740D01*
X232197376Y-50846739D01*
X232352065Y-50782664D01*
X232516281Y-50750000D01*
X232683719Y-50750000D01*
X232847935Y-50782664D01*
G37*
M02*
