G04 #@! TF.GenerationSoftware,KiCad,Pcbnew,(5.1.5)-3*
G04 #@! TF.CreationDate,2020-06-10T22:37:02-05:00*
G04 #@! TF.ProjectId,LuminaryVer2,4c756d69-6e61-4727-9956-6572322e6b69,rev?*
G04 #@! TF.SameCoordinates,Original*
G04 #@! TF.FileFunction,Copper,L2,Inr*
G04 #@! TF.FilePolarity,Positive*
%FSLAX46Y46*%
G04 Gerber Fmt 4.6, Leading zero omitted, Abs format (unit mm)*
G04 Created by KiCad (PCBNEW (5.1.5)-3) date 2020-06-10 22:37:02*
%MOMM*%
%LPD*%
G04 APERTURE LIST*
%ADD10O,1.300000X1.100000*%
%ADD11C,0.100000*%
%ADD12O,1.700000X1.700000*%
%ADD13R,1.700000X1.700000*%
%ADD14C,0.900000*%
%ADD15O,1.000000X1.000000*%
%ADD16R,1.000000X1.000000*%
%ADD17C,0.450000*%
%ADD18C,0.800000*%
%ADD19C,0.254000*%
%ADD20C,0.250000*%
G04 APERTURE END LIST*
D10*
X215600000Y-57900000D03*
X215600000Y-53100000D03*
G04 #@! TA.AperFunction,ViaPad*
D11*
G36*
X213149009Y-58102408D02*
G01*
X213197545Y-58109607D01*
X213245142Y-58121530D01*
X213291342Y-58138060D01*
X213335698Y-58159039D01*
X213377785Y-58184265D01*
X213417197Y-58213495D01*
X213453553Y-58246447D01*
X213486505Y-58282803D01*
X213515735Y-58322215D01*
X213540961Y-58364302D01*
X213561940Y-58408658D01*
X213578470Y-58454858D01*
X213590393Y-58502455D01*
X213597592Y-58550991D01*
X213600000Y-58600000D01*
X213600000Y-59600000D01*
X213597592Y-59649009D01*
X213590393Y-59697545D01*
X213578470Y-59745142D01*
X213561940Y-59791342D01*
X213540961Y-59835698D01*
X213515735Y-59877785D01*
X213486505Y-59917197D01*
X213453553Y-59953553D01*
X213417197Y-59986505D01*
X213377785Y-60015735D01*
X213335698Y-60040961D01*
X213291342Y-60061940D01*
X213245142Y-60078470D01*
X213197545Y-60090393D01*
X213149009Y-60097592D01*
X213100000Y-60100000D01*
X212100000Y-60100000D01*
X212050991Y-60097592D01*
X212002455Y-60090393D01*
X211954858Y-60078470D01*
X211908658Y-60061940D01*
X211864302Y-60040961D01*
X211822215Y-60015735D01*
X211782803Y-59986505D01*
X211746447Y-59953553D01*
X211713495Y-59917197D01*
X211684265Y-59877785D01*
X211659039Y-59835698D01*
X211638060Y-59791342D01*
X211621530Y-59745142D01*
X211609607Y-59697545D01*
X211602408Y-59649009D01*
X211600000Y-59600000D01*
X211600000Y-58600000D01*
X211602408Y-58550991D01*
X211609607Y-58502455D01*
X211621530Y-58454858D01*
X211638060Y-58408658D01*
X211659039Y-58364302D01*
X211684265Y-58322215D01*
X211713495Y-58282803D01*
X211746447Y-58246447D01*
X211782803Y-58213495D01*
X211822215Y-58184265D01*
X211864302Y-58159039D01*
X211908658Y-58138060D01*
X211954858Y-58121530D01*
X212002455Y-58109607D01*
X212050991Y-58102408D01*
X212100000Y-58100000D01*
X213100000Y-58100000D01*
X213149009Y-58102408D01*
G37*
G04 #@! TD.AperFunction*
G04 #@! TA.AperFunction,ViaPad*
G36*
X213149009Y-50902408D02*
G01*
X213197545Y-50909607D01*
X213245142Y-50921530D01*
X213291342Y-50938060D01*
X213335698Y-50959039D01*
X213377785Y-50984265D01*
X213417197Y-51013495D01*
X213453553Y-51046447D01*
X213486505Y-51082803D01*
X213515735Y-51122215D01*
X213540961Y-51164302D01*
X213561940Y-51208658D01*
X213578470Y-51254858D01*
X213590393Y-51302455D01*
X213597592Y-51350991D01*
X213600000Y-51400000D01*
X213600000Y-52400000D01*
X213597592Y-52449009D01*
X213590393Y-52497545D01*
X213578470Y-52545142D01*
X213561940Y-52591342D01*
X213540961Y-52635698D01*
X213515735Y-52677785D01*
X213486505Y-52717197D01*
X213453553Y-52753553D01*
X213417197Y-52786505D01*
X213377785Y-52815735D01*
X213335698Y-52840961D01*
X213291342Y-52861940D01*
X213245142Y-52878470D01*
X213197545Y-52890393D01*
X213149009Y-52897592D01*
X213100000Y-52900000D01*
X212100000Y-52900000D01*
X212050991Y-52897592D01*
X212002455Y-52890393D01*
X211954858Y-52878470D01*
X211908658Y-52861940D01*
X211864302Y-52840961D01*
X211822215Y-52815735D01*
X211782803Y-52786505D01*
X211746447Y-52753553D01*
X211713495Y-52717197D01*
X211684265Y-52677785D01*
X211659039Y-52635698D01*
X211638060Y-52591342D01*
X211621530Y-52545142D01*
X211609607Y-52497545D01*
X211602408Y-52449009D01*
X211600000Y-52400000D01*
X211600000Y-51400000D01*
X211602408Y-51350991D01*
X211609607Y-51302455D01*
X211621530Y-51254858D01*
X211638060Y-51208658D01*
X211659039Y-51164302D01*
X211684265Y-51122215D01*
X211713495Y-51082803D01*
X211746447Y-51046447D01*
X211782803Y-51013495D01*
X211822215Y-50984265D01*
X211864302Y-50959039D01*
X211908658Y-50938060D01*
X211954858Y-50921530D01*
X212002455Y-50909607D01*
X212050991Y-50902408D01*
X212100000Y-50900000D01*
X213100000Y-50900000D01*
X213149009Y-50902408D01*
G37*
G04 #@! TD.AperFunction*
D12*
X235100000Y-98500000D03*
X235100000Y-95960000D03*
X235100000Y-93420000D03*
X235100000Y-90880000D03*
X235100000Y-88340000D03*
X235100000Y-85800000D03*
X235100000Y-83260000D03*
X235100000Y-80720000D03*
X235100000Y-78180000D03*
X235100000Y-75640000D03*
X235100000Y-73100000D03*
D13*
X235100000Y-70560000D03*
D12*
X212400000Y-98500000D03*
X212400000Y-95960000D03*
X212400000Y-93420000D03*
X212400000Y-90880000D03*
X212400000Y-88340000D03*
X212400000Y-85800000D03*
X212400000Y-83260000D03*
X212400000Y-80720000D03*
X212400000Y-78180000D03*
X212400000Y-75640000D03*
X212400000Y-73100000D03*
D13*
X212400000Y-70560000D03*
D14*
X234900000Y-59300000D03*
D12*
X232600000Y-51600000D03*
D13*
X235140000Y-51600000D03*
D12*
X230077000Y-98500000D03*
X227537000Y-98500000D03*
X224997000Y-98500000D03*
X222457000Y-98500000D03*
X219917000Y-98500000D03*
D13*
X217377000Y-98500000D03*
D15*
X230080000Y-72595000D03*
X231350000Y-72595000D03*
X230080000Y-73865000D03*
X231350000Y-73865000D03*
X230080000Y-75135000D03*
X231350000Y-75135000D03*
X230080000Y-76405000D03*
X231350000Y-76405000D03*
X230080000Y-77675000D03*
D16*
X231350000Y-77675000D03*
D17*
X224450000Y-83000000D03*
X224050000Y-82700000D03*
X223500000Y-74000000D03*
X223500000Y-74500000D03*
X223000000Y-74500000D03*
X223000000Y-74000000D03*
X229900000Y-94900000D03*
X217950000Y-91100000D03*
X217900000Y-93600000D03*
D18*
X219510000Y-95560000D03*
D17*
X227700000Y-50950000D03*
X233800000Y-63100000D03*
X226350000Y-58350000D03*
X226950000Y-58350000D03*
X227500000Y-58350000D03*
X228100000Y-58350000D03*
X218600000Y-61900000D03*
X219350000Y-61900000D03*
X220100000Y-61900000D03*
X220850000Y-61900000D03*
X226350000Y-59000000D03*
X226950000Y-59000000D03*
X227500000Y-59000000D03*
X228100000Y-59000000D03*
X217978682Y-88447971D03*
X224550000Y-77325000D03*
X225300000Y-77075000D03*
X222350000Y-86650000D03*
X224400000Y-88750000D03*
X223700000Y-69800000D03*
X223050000Y-69800000D03*
X224400000Y-69800000D03*
X223700004Y-82350004D03*
X229900000Y-89499994D03*
X229900000Y-92200000D03*
X217450000Y-64150000D03*
X218450000Y-64150000D03*
X218450000Y-63400000D03*
X218450000Y-62750000D03*
X217450000Y-62750000D03*
X217950000Y-64150000D03*
X217950000Y-63400000D03*
X217950000Y-62750000D03*
X217450000Y-63400000D03*
X218000000Y-69050000D03*
X218000000Y-70475000D03*
X219600000Y-70475000D03*
X219600000Y-69050000D03*
X216300000Y-70475000D03*
X216300000Y-69050000D03*
X216300000Y-69750000D03*
X219600000Y-69750000D03*
X218000000Y-69750000D03*
X222350000Y-78050000D03*
X218050000Y-79800000D03*
X224400000Y-87500000D03*
X218747990Y-83850000D03*
X218350000Y-77000000D03*
X218350000Y-75950000D03*
X221281022Y-79491748D03*
X216050000Y-61950000D03*
X224600000Y-50950000D03*
X216962500Y-52242500D03*
X215512500Y-73037500D03*
X215512500Y-61412500D03*
X226450000Y-71200000D03*
X226450000Y-71750000D03*
X227500000Y-71750000D03*
X227500000Y-71200000D03*
X211350000Y-60950000D03*
X212050000Y-60950000D03*
X212750000Y-60950000D03*
X215512500Y-61937500D03*
X216050000Y-61400000D03*
X227663140Y-82644690D03*
X227968535Y-83312127D03*
X217900000Y-94300000D03*
X219900000Y-81075000D03*
X217950000Y-91750000D03*
X219278049Y-81718993D03*
X218000000Y-89200000D03*
X221225000Y-85900000D03*
X226875000Y-84249998D03*
X227625000Y-84800000D03*
X217500000Y-83850000D03*
X221450000Y-78850002D03*
X225900000Y-53300000D03*
X227799998Y-56850000D03*
X229125000Y-81275000D03*
X229853839Y-90683366D03*
X229900000Y-93050000D03*
X225325000Y-85825000D03*
X229900000Y-95550000D03*
X222275000Y-85925000D03*
X221600000Y-71600000D03*
X226200000Y-72950000D03*
X226200000Y-73700000D03*
X216850000Y-54850000D03*
X226200000Y-74450000D03*
X216850000Y-55500000D03*
D19*
X235100000Y-88340000D02*
X233460000Y-88340000D01*
X233460000Y-88340000D02*
X232400000Y-89400000D01*
X232400000Y-89400000D02*
X232400000Y-95500000D01*
X231612999Y-96287001D02*
X217937001Y-96287001D01*
X232400000Y-95500000D02*
X231612999Y-96287001D01*
X216441980Y-94791980D02*
X216441980Y-77858020D01*
X217937001Y-96287001D02*
X216441980Y-94791980D01*
X217300000Y-77000000D02*
X218350000Y-77000000D01*
X216441980Y-77858020D02*
X217300000Y-77000000D01*
X233897919Y-90880000D02*
X232854010Y-91923909D01*
X235100000Y-90880000D02*
X233897919Y-90880000D01*
X232854010Y-95688057D02*
X231742067Y-96800000D01*
X232854010Y-91923909D02*
X232854010Y-95688057D01*
X217707933Y-75950000D02*
X218031802Y-75950000D01*
X215987970Y-77669963D02*
X217707933Y-75950000D01*
X218031802Y-75950000D02*
X218350000Y-75950000D01*
X215987970Y-94980037D02*
X215987970Y-77669963D01*
X217807933Y-96800000D02*
X215987970Y-94980037D01*
X231742067Y-96800000D02*
X217807933Y-96800000D01*
D20*
X229050000Y-75650000D02*
X229050000Y-72900000D01*
X228750000Y-75950000D02*
X229050000Y-75650000D01*
X229050000Y-72900000D02*
X229355000Y-72595000D01*
X227200000Y-77050000D02*
X228300000Y-75950000D01*
X221757472Y-79650000D02*
X226800000Y-79650000D01*
X229355000Y-72595000D02*
X230080000Y-72595000D01*
X221281022Y-79491748D02*
X221599220Y-79491748D01*
X226800000Y-79650000D02*
X227200000Y-79250000D01*
X228300000Y-75950000D02*
X228750000Y-75950000D01*
X221599220Y-79491748D02*
X221757472Y-79650000D01*
X227200000Y-79250000D02*
X227200000Y-77050000D01*
D19*
X227663140Y-82644690D02*
X227663140Y-77411860D01*
X228670000Y-76405000D02*
X230080000Y-76405000D01*
X227663140Y-77411860D02*
X228670000Y-76405000D01*
X228215141Y-83065521D02*
X228193534Y-83087128D01*
X228215141Y-78359859D02*
X228215141Y-83065521D01*
X228193534Y-83087128D02*
X227968535Y-83312127D01*
X230080000Y-77675000D02*
X228900000Y-77675000D01*
X228900000Y-77675000D02*
X228215141Y-78359859D01*
X219581802Y-81075000D02*
X219900000Y-81075000D01*
X219105080Y-81075000D02*
X219581802Y-81075000D01*
X218150000Y-82030080D02*
X219105080Y-81075000D01*
X216895990Y-87554010D02*
X218150000Y-86300000D01*
X218150000Y-86300000D02*
X218150000Y-82030080D01*
X217581802Y-94300000D02*
X216895990Y-93614188D01*
X217900000Y-94300000D02*
X217581802Y-94300000D01*
X216895990Y-93614188D02*
X216895990Y-87554010D01*
X219300000Y-81740944D02*
X219278049Y-81718993D01*
X219300000Y-86057934D02*
X219300000Y-81740944D01*
X217631802Y-91750000D02*
X217350000Y-91468198D01*
X217950000Y-91750000D02*
X217631802Y-91750000D01*
X217350000Y-91468198D02*
X217350000Y-88007934D01*
X217350000Y-88007934D02*
X219300000Y-86057934D01*
X220100000Y-85900000D02*
X221225000Y-85900000D01*
X218825000Y-87175000D02*
X220100000Y-85900000D01*
X218825000Y-88693198D02*
X218825000Y-87175000D01*
X218000000Y-89200000D02*
X218318198Y-89200000D01*
X218318198Y-89200000D02*
X218825000Y-88693198D01*
X221225000Y-85900000D02*
X221225000Y-85900000D01*
X220688011Y-78850002D02*
X221131802Y-78850002D01*
X217500000Y-83850000D02*
X217500000Y-82038013D01*
X221131802Y-78850002D02*
X221450000Y-78850002D01*
X217500000Y-82038013D02*
X220688011Y-78850002D01*
X229535641Y-90683366D02*
X229853839Y-90683366D01*
X229125000Y-81275000D02*
X229125000Y-90272725D01*
X229125000Y-90272725D02*
X229535641Y-90683366D01*
X229581802Y-93050000D02*
X228595990Y-92064188D01*
X229900000Y-93050000D02*
X229581802Y-93050000D01*
X228595990Y-92064188D02*
X228595990Y-86270990D01*
X228595990Y-86270990D02*
X228150000Y-85825000D01*
X228150000Y-85825000D02*
X225325000Y-85825000D01*
X229050000Y-95550000D02*
X229900000Y-95550000D01*
X228141980Y-94641980D02*
X229050000Y-95550000D01*
X224625000Y-85925000D02*
X225125000Y-86425000D01*
X225125000Y-86425000D02*
X227575000Y-86425000D01*
X222275000Y-85925000D02*
X224625000Y-85925000D01*
X228141980Y-86991980D02*
X228141980Y-94641980D01*
X227575000Y-86425000D02*
X228141980Y-86991980D01*
X225850000Y-73700000D02*
X226200000Y-73700000D01*
X225600000Y-73450000D02*
X225850000Y-73700000D01*
X225600000Y-55450000D02*
X225600000Y-73450000D01*
X216850000Y-54850000D02*
X225000000Y-54850000D01*
X225000000Y-54850000D02*
X225600000Y-55450000D01*
X216850000Y-55500000D02*
X224600000Y-55500000D01*
X224600000Y-55500000D02*
X225050000Y-55950000D01*
X225050000Y-55950000D02*
X225050000Y-74000000D01*
X225050000Y-74000000D02*
X225500000Y-74450000D01*
X225500000Y-74450000D02*
X226200000Y-74450000D01*
M02*
