M48
; DRILL file {KiCad (5.1.5)-3} date 06/10/20 22:36:27
; FORMAT={-:-/ absolute / inch / decimal}
; #@! TF.CreationDate,2020-06-10T22:36:27-05:00
; #@! TF.GenerationSoftware,Kicad,Pcbnew,(5.1.5)-3
; #@! TF.FileFunction,Plated,1,4,PTH
FMAT,2
INCH
T1C0.0079
T2C0.0157
T3C0.0256
T4C0.0394
%
G90
G05
T1
X8.3209Y-2.3996
X8.3484Y-2.3996
X8.376Y-2.3996
X8.4847Y-2.4178
X8.4847Y-2.4385
X8.4847Y-2.8755
X8.5059Y-2.4173
X8.5059Y-2.439
X8.5157Y-2.7185
X8.5157Y-2.7461
X8.5157Y-2.7746
X8.5374Y-2.1594
X8.5374Y-2.185
X8.5418Y-2.0568
X8.561Y-2.4705
X8.561Y-2.4961
X8.561Y-2.5256
X8.563Y-3.3012
X8.5787Y-3.685
X8.5787Y-3.7126
X8.5807Y-2.4705
X8.5807Y-2.4961
X8.5807Y-2.5256
X8.5807Y-3.5866
X8.5807Y-3.6122
X8.5818Y-3.4822
X8.5827Y-2.7185
X8.5827Y-2.7461
X8.5827Y-2.7746
X8.5827Y-3.5118
X8.5846Y-3.1417
X8.5965Y-2.9902
X8.5965Y-3.0315
X8.6004Y-2.4705
X8.6004Y-2.4961
X8.6004Y-2.5256
X8.6063Y-2.437
X8.6121Y-3.3012
X8.633Y-3.2173
X8.6358Y-2.437
X8.6457Y-2.7185
X8.6457Y-2.7461
X8.6457Y-2.7746
X8.6575Y-3.1919
X8.6654Y-2.437
X8.6949Y-2.437
X8.7096Y-3.3819
X8.7119Y-3.1296
X8.7185Y-3.1043
X8.7244Y-2.8189
X8.751Y-3.3829
X8.7539Y-3.0728
X8.7539Y-3.4114
X8.7795Y-2.9134
X8.7795Y-2.9331
X8.7815Y-2.748
X8.7992Y-2.9134
X8.7992Y-2.9331
X8.8071Y-2.748
X8.8071Y-3.2421
X8.8209Y-3.2559
X8.8346Y-2.748
X8.8346Y-3.4449
X8.8346Y-3.4941
X8.8366Y-3.2677
X8.8406Y-3.0443
X8.8425Y-2.0059
X8.8701Y-3.0344
X8.8711Y-3.3789
X8.8937Y-2.0984
X8.9055Y-2.872
X8.9055Y-2.9016
X8.9055Y-2.9311
X8.9114Y-2.2972
X8.9114Y-2.3228
X8.9154Y-2.8031
X8.9154Y-2.8248
X8.9321Y-3.3169
X8.935Y-2.2972
X8.935Y-2.3228
X8.9567Y-2.2972
X8.9567Y-2.3228
X8.9567Y-2.8031
X8.9567Y-2.8248
X8.9616Y-3.3386
X8.9631Y-3.2537
X8.9646Y-2.0059
X8.9685Y-2.2382
X8.9751Y-3.28
X8.9803Y-2.2972
X8.9803Y-2.3228
X9.0207Y-3.1998
X9.0494Y-3.5702
X9.0512Y-3.5236
X9.0512Y-3.6299
X9.0512Y-3.6634
X9.0512Y-3.7362
X9.0512Y-3.7618
X9.2047Y-2.4843
T2
X8.6421Y-3.7622
T3
X9.0583Y-2.8581
X9.0583Y-2.9081
X9.0583Y-2.9581
X9.0583Y-3.0081
X9.0583Y-3.0581
X9.1083Y-2.8581
X9.1083Y-2.9081
X9.1083Y-2.9581
X9.1083Y-3.0081
X9.1083Y-3.0581
T4
X8.3622Y-2.778
X8.3622Y-2.878
X8.3622Y-2.978
X8.3622Y-3.078
X8.3622Y-3.178
X8.3622Y-3.278
X8.3622Y-3.378
X8.3622Y-3.478
X8.3622Y-3.578
X8.3622Y-3.678
X8.3622Y-3.778
X8.3622Y-3.878
X9.1575Y-2.0315
X9.2575Y-2.0315
X9.2559Y-2.778
X9.2559Y-2.878
X9.2559Y-2.978
X9.2559Y-3.078
X9.2559Y-3.178
X9.2559Y-3.278
X9.2559Y-3.378
X9.2559Y-3.478
X9.2559Y-3.578
X9.2559Y-3.678
X9.2559Y-3.778
X9.2559Y-3.878
X8.5581Y-3.878
X8.6581Y-3.878
X8.7581Y-3.878
X8.8581Y-3.878
X8.9581Y-3.878
X9.0581Y-3.878
T3
G00X8.4921Y-2.0906
M15
G01X8.4843Y-2.0906
M16
G05
G00X8.4921Y-2.2795
M15
G01X8.4843Y-2.2795
M16
G05
T4
G00X8.3799Y-2.0433
M15
G01X8.3602Y-2.0433
M16
G05
G00X8.3799Y-2.3268
M15
G01X8.3602Y-2.3268
M16
G05
T0
M30
