G04 #@! TF.GenerationSoftware,KiCad,Pcbnew,(5.1.5)-3*
G04 #@! TF.CreationDate,2020-07-23T10:29:42-05:00*
G04 #@! TF.ProjectId,LuminaryVer2,4c756d69-6e61-4727-9956-6572322e6b69,rev?*
G04 #@! TF.SameCoordinates,Original*
G04 #@! TF.FileFunction,Legend,Top*
G04 #@! TF.FilePolarity,Positive*
%FSLAX46Y46*%
G04 Gerber Fmt 4.6, Leading zero omitted, Abs format (unit mm)*
G04 Created by KiCad (PCBNEW (5.1.5)-3) date 2020-07-23 10:29:42*
%MOMM*%
%LPD*%
G04 APERTURE LIST*
%ADD10C,0.100000*%
%ADD11C,0.150000*%
%ADD12C,0.120000*%
G04 APERTURE END LIST*
D10*
X227634047Y-77326190D02*
X227634047Y-76826190D01*
X227919761Y-77326190D02*
X227705476Y-77040476D01*
X227919761Y-76826190D02*
X227634047Y-77111904D01*
X228324523Y-77302380D02*
X228276904Y-77326190D01*
X228181666Y-77326190D01*
X228134047Y-77302380D01*
X228110238Y-77254761D01*
X228110238Y-77064285D01*
X228134047Y-77016666D01*
X228181666Y-76992857D01*
X228276904Y-76992857D01*
X228324523Y-77016666D01*
X228348333Y-77064285D01*
X228348333Y-77111904D01*
X228110238Y-77159523D01*
X228515000Y-76992857D02*
X228634047Y-77326190D01*
X228753095Y-76992857D02*
X228634047Y-77326190D01*
X228586428Y-77445238D01*
X228562619Y-77469047D01*
X228515000Y-77492857D01*
G36*
X228950000Y-76550000D02*
G01*
X227400000Y-76550000D01*
X227400000Y-75500000D01*
X228950000Y-75500000D01*
X228950000Y-76550000D01*
G37*
X228950000Y-76550000D02*
X227400000Y-76550000D01*
X227400000Y-75500000D01*
X228950000Y-75500000D01*
X228950000Y-76550000D01*
G36*
X228950000Y-76500000D02*
G01*
X228400000Y-76500000D01*
X228400000Y-73750000D01*
X228950000Y-73750000D01*
X228950000Y-76500000D01*
G37*
X228950000Y-76500000D02*
X228400000Y-76500000D01*
X228400000Y-73750000D01*
X228950000Y-73750000D01*
X228950000Y-76500000D01*
X228226190Y-73308333D02*
X228583333Y-73308333D01*
X228654761Y-73332142D01*
X228702380Y-73379761D01*
X228726190Y-73451190D01*
X228726190Y-73498809D01*
X228226190Y-73141666D02*
X228226190Y-72855952D01*
X228726190Y-72998809D02*
X228226190Y-72998809D01*
X228583333Y-72713095D02*
X228583333Y-72475000D01*
X228726190Y-72760714D02*
X228226190Y-72594047D01*
X228726190Y-72427380D01*
X228250000Y-71998809D02*
X228226190Y-72046428D01*
X228226190Y-72117857D01*
X228250000Y-72189285D01*
X228297619Y-72236904D01*
X228345238Y-72260714D01*
X228440476Y-72284523D01*
X228511904Y-72284523D01*
X228607142Y-72260714D01*
X228654761Y-72236904D01*
X228702380Y-72189285D01*
X228726190Y-72117857D01*
X228726190Y-72070238D01*
X228702380Y-71998809D01*
X228678571Y-71975000D01*
X228511904Y-71975000D01*
X228511904Y-72070238D01*
D11*
X228400000Y-76500000D02*
X228950000Y-76500000D01*
X228400000Y-73750000D02*
X228400000Y-76500000D01*
X228950000Y-73750000D02*
X228400000Y-73750000D01*
D12*
X231400000Y-97150000D02*
X218650000Y-97150000D01*
X231400000Y-99800000D02*
X231400000Y-97150000D01*
X218650000Y-99850000D02*
X231400000Y-99800000D01*
X218650000Y-97150000D02*
X218650000Y-99850000D01*
X216050000Y-97150000D02*
X217400000Y-97150000D01*
X216050000Y-98500000D02*
X216050000Y-97150000D01*
X211050000Y-99850000D02*
X211050000Y-71800000D01*
X213750000Y-99850000D02*
X211050000Y-99850000D01*
X213750000Y-71800000D02*
X213750000Y-99850000D01*
X211050000Y-71800000D02*
X213750000Y-71800000D01*
X213750000Y-69200000D02*
X213750000Y-70550000D01*
X212400000Y-69200000D02*
X213750000Y-69200000D01*
X236450000Y-69250000D02*
X236450000Y-70550000D01*
X235100000Y-69250000D02*
X236450000Y-69250000D01*
X233750000Y-99850000D02*
X233750000Y-71850000D01*
X236450000Y-99850000D02*
X233750000Y-99850000D01*
X236450000Y-71850000D02*
X236450000Y-99850000D01*
X233800000Y-71850000D02*
X236450000Y-71850000D01*
D10*
X233173809Y-68976190D02*
X233007142Y-68738095D01*
X232888095Y-68976190D02*
X232888095Y-68476190D01*
X233078571Y-68476190D01*
X233126190Y-68500000D01*
X233150000Y-68523809D01*
X233173809Y-68571428D01*
X233173809Y-68642857D01*
X233150000Y-68690476D01*
X233126190Y-68714285D01*
X233078571Y-68738095D01*
X232888095Y-68738095D01*
X233388095Y-68714285D02*
X233554761Y-68714285D01*
X233626190Y-68976190D02*
X233388095Y-68976190D01*
X233388095Y-68476190D01*
X233626190Y-68476190D01*
X233816666Y-68952380D02*
X233888095Y-68976190D01*
X234007142Y-68976190D01*
X234054761Y-68952380D01*
X234078571Y-68928571D01*
X234102380Y-68880952D01*
X234102380Y-68833333D01*
X234078571Y-68785714D01*
X234054761Y-68761904D01*
X234007142Y-68738095D01*
X233911904Y-68714285D01*
X233864285Y-68690476D01*
X233840476Y-68666666D01*
X233816666Y-68619047D01*
X233816666Y-68571428D01*
X233840476Y-68523809D01*
X233864285Y-68500000D01*
X233911904Y-68476190D01*
X234030952Y-68476190D01*
X234102380Y-68500000D01*
X234316666Y-68714285D02*
X234483333Y-68714285D01*
X234554761Y-68976190D02*
X234316666Y-68976190D01*
X234316666Y-68476190D01*
X234554761Y-68476190D01*
X234697619Y-68476190D02*
X234983333Y-68476190D01*
X234840476Y-68976190D02*
X234840476Y-68476190D01*
X233526190Y-99119047D02*
X233026190Y-99119047D01*
X233026190Y-98928571D01*
X233050000Y-98880952D01*
X233073809Y-98857142D01*
X233121428Y-98833333D01*
X233192857Y-98833333D01*
X233240476Y-98857142D01*
X233264285Y-98880952D01*
X233288095Y-98928571D01*
X233288095Y-99119047D01*
X233264285Y-98452380D02*
X233288095Y-98380952D01*
X233311904Y-98357142D01*
X233359523Y-98333333D01*
X233430952Y-98333333D01*
X233478571Y-98357142D01*
X233502380Y-98380952D01*
X233526190Y-98428571D01*
X233526190Y-98619047D01*
X233026190Y-98619047D01*
X233026190Y-98452380D01*
X233050000Y-98404761D01*
X233073809Y-98380952D01*
X233121428Y-98357142D01*
X233169047Y-98357142D01*
X233216666Y-98380952D01*
X233240476Y-98404761D01*
X233264285Y-98452380D01*
X233264285Y-98619047D01*
X233526190Y-97857142D02*
X233526190Y-98142857D01*
X233526190Y-98000000D02*
X233026190Y-98000000D01*
X233097619Y-98047619D01*
X233145238Y-98095238D01*
X233169047Y-98142857D01*
X233526190Y-96533333D02*
X233026190Y-96533333D01*
X233026190Y-96342857D01*
X233050000Y-96295238D01*
X233073809Y-96271428D01*
X233121428Y-96247619D01*
X233192857Y-96247619D01*
X233240476Y-96271428D01*
X233264285Y-96295238D01*
X233288095Y-96342857D01*
X233288095Y-96533333D01*
X233383333Y-96057142D02*
X233383333Y-95819047D01*
X233526190Y-96104761D02*
X233026190Y-95938095D01*
X233526190Y-95771428D01*
X233240476Y-95533333D02*
X233216666Y-95580952D01*
X233192857Y-95604761D01*
X233145238Y-95628571D01*
X233121428Y-95628571D01*
X233073809Y-95604761D01*
X233050000Y-95580952D01*
X233026190Y-95533333D01*
X233026190Y-95438095D01*
X233050000Y-95390476D01*
X233073809Y-95366666D01*
X233121428Y-95342857D01*
X233145238Y-95342857D01*
X233192857Y-95366666D01*
X233216666Y-95390476D01*
X233240476Y-95438095D01*
X233240476Y-95533333D01*
X233264285Y-95580952D01*
X233288095Y-95604761D01*
X233335714Y-95628571D01*
X233430952Y-95628571D01*
X233478571Y-95604761D01*
X233502380Y-95580952D01*
X233526190Y-95533333D01*
X233526190Y-95438095D01*
X233502380Y-95390476D01*
X233478571Y-95366666D01*
X233430952Y-95342857D01*
X233335714Y-95342857D01*
X233288095Y-95366666D01*
X233264285Y-95390476D01*
X233240476Y-95438095D01*
X233526190Y-94221428D02*
X233026190Y-94221428D01*
X233026190Y-94030952D01*
X233050000Y-93983333D01*
X233073809Y-93959523D01*
X233121428Y-93935714D01*
X233192857Y-93935714D01*
X233240476Y-93959523D01*
X233264285Y-93983333D01*
X233288095Y-94030952D01*
X233288095Y-94221428D01*
X233383333Y-93745238D02*
X233383333Y-93507142D01*
X233526190Y-93792857D02*
X233026190Y-93626190D01*
X233526190Y-93459523D01*
X233526190Y-93030952D02*
X233526190Y-93316666D01*
X233526190Y-93173809D02*
X233026190Y-93173809D01*
X233097619Y-93221428D01*
X233145238Y-93269047D01*
X233169047Y-93316666D01*
X233026190Y-92578571D02*
X233026190Y-92816666D01*
X233264285Y-92840476D01*
X233240476Y-92816666D01*
X233216666Y-92769047D01*
X233216666Y-92650000D01*
X233240476Y-92602380D01*
X233264285Y-92578571D01*
X233311904Y-92554761D01*
X233430952Y-92554761D01*
X233478571Y-92578571D01*
X233502380Y-92602380D01*
X233526190Y-92650000D01*
X233526190Y-92769047D01*
X233502380Y-92816666D01*
X233478571Y-92840476D01*
X233526190Y-91483333D02*
X233026190Y-91483333D01*
X233026190Y-91292857D01*
X233050000Y-91245238D01*
X233073809Y-91221428D01*
X233121428Y-91197619D01*
X233192857Y-91197619D01*
X233240476Y-91221428D01*
X233264285Y-91245238D01*
X233288095Y-91292857D01*
X233288095Y-91483333D01*
X233383333Y-91007142D02*
X233383333Y-90769047D01*
X233526190Y-91054761D02*
X233026190Y-90888095D01*
X233526190Y-90721428D01*
X233526190Y-90530952D02*
X233526190Y-90435714D01*
X233502380Y-90388095D01*
X233478571Y-90364285D01*
X233407142Y-90316666D01*
X233311904Y-90292857D01*
X233121428Y-90292857D01*
X233073809Y-90316666D01*
X233050000Y-90340476D01*
X233026190Y-90388095D01*
X233026190Y-90483333D01*
X233050000Y-90530952D01*
X233073809Y-90554761D01*
X233121428Y-90578571D01*
X233240476Y-90578571D01*
X233288095Y-90554761D01*
X233311904Y-90530952D01*
X233335714Y-90483333D01*
X233335714Y-90388095D01*
X233311904Y-90340476D01*
X233288095Y-90316666D01*
X233240476Y-90292857D01*
X233526190Y-89171428D02*
X233026190Y-89171428D01*
X233026190Y-88980952D01*
X233050000Y-88933333D01*
X233073809Y-88909523D01*
X233121428Y-88885714D01*
X233192857Y-88885714D01*
X233240476Y-88909523D01*
X233264285Y-88933333D01*
X233288095Y-88980952D01*
X233288095Y-89171428D01*
X233383333Y-88695238D02*
X233383333Y-88457142D01*
X233526190Y-88742857D02*
X233026190Y-88576190D01*
X233526190Y-88409523D01*
X233526190Y-87980952D02*
X233526190Y-88266666D01*
X233526190Y-88123809D02*
X233026190Y-88123809D01*
X233097619Y-88171428D01*
X233145238Y-88219047D01*
X233169047Y-88266666D01*
X233026190Y-87671428D02*
X233026190Y-87623809D01*
X233050000Y-87576190D01*
X233073809Y-87552380D01*
X233121428Y-87528571D01*
X233216666Y-87504761D01*
X233335714Y-87504761D01*
X233430952Y-87528571D01*
X233478571Y-87552380D01*
X233502380Y-87576190D01*
X233526190Y-87623809D01*
X233526190Y-87671428D01*
X233502380Y-87719047D01*
X233478571Y-87742857D01*
X233430952Y-87766666D01*
X233335714Y-87790476D01*
X233216666Y-87790476D01*
X233121428Y-87766666D01*
X233073809Y-87742857D01*
X233050000Y-87719047D01*
X233026190Y-87671428D01*
X233478571Y-86383333D02*
X233502380Y-86407142D01*
X233526190Y-86478571D01*
X233526190Y-86526190D01*
X233502380Y-86597619D01*
X233454761Y-86645238D01*
X233407142Y-86669047D01*
X233311904Y-86692857D01*
X233240476Y-86692857D01*
X233145238Y-86669047D01*
X233097619Y-86645238D01*
X233050000Y-86597619D01*
X233026190Y-86526190D01*
X233026190Y-86478571D01*
X233050000Y-86407142D01*
X233073809Y-86383333D01*
X233383333Y-86192857D02*
X233383333Y-85954761D01*
X233526190Y-86240476D02*
X233026190Y-86073809D01*
X233526190Y-85907142D01*
X233526190Y-85740476D02*
X233026190Y-85740476D01*
X233526190Y-85454761D01*
X233026190Y-85454761D01*
X233526190Y-85216666D02*
X233026190Y-85216666D01*
X233264285Y-85216666D02*
X233264285Y-84930952D01*
X233526190Y-84930952D02*
X233026190Y-84930952D01*
X233478571Y-83823809D02*
X233502380Y-83847619D01*
X233526190Y-83919047D01*
X233526190Y-83966666D01*
X233502380Y-84038095D01*
X233454761Y-84085714D01*
X233407142Y-84109523D01*
X233311904Y-84133333D01*
X233240476Y-84133333D01*
X233145238Y-84109523D01*
X233097619Y-84085714D01*
X233050000Y-84038095D01*
X233026190Y-83966666D01*
X233026190Y-83919047D01*
X233050000Y-83847619D01*
X233073809Y-83823809D01*
X233383333Y-83633333D02*
X233383333Y-83395238D01*
X233526190Y-83680952D02*
X233026190Y-83514285D01*
X233526190Y-83347619D01*
X233526190Y-83180952D02*
X233026190Y-83180952D01*
X233526190Y-82895238D01*
X233026190Y-82895238D01*
X233526190Y-82419047D02*
X233526190Y-82657142D01*
X233026190Y-82657142D01*
X233526190Y-81319047D02*
X233026190Y-81319047D01*
X233026190Y-81128571D01*
X233050000Y-81080952D01*
X233073809Y-81057142D01*
X233121428Y-81033333D01*
X233192857Y-81033333D01*
X233240476Y-81057142D01*
X233264285Y-81080952D01*
X233288095Y-81128571D01*
X233288095Y-81319047D01*
X233264285Y-80652380D02*
X233288095Y-80580952D01*
X233311904Y-80557142D01*
X233359523Y-80533333D01*
X233430952Y-80533333D01*
X233478571Y-80557142D01*
X233502380Y-80580952D01*
X233526190Y-80628571D01*
X233526190Y-80819047D01*
X233026190Y-80819047D01*
X233026190Y-80652380D01*
X233050000Y-80604761D01*
X233073809Y-80580952D01*
X233121428Y-80557142D01*
X233169047Y-80557142D01*
X233216666Y-80580952D01*
X233240476Y-80604761D01*
X233264285Y-80652380D01*
X233264285Y-80819047D01*
X233026190Y-80366666D02*
X233026190Y-80057142D01*
X233216666Y-80223809D01*
X233216666Y-80152380D01*
X233240476Y-80104761D01*
X233264285Y-80080952D01*
X233311904Y-80057142D01*
X233430952Y-80057142D01*
X233478571Y-80080952D01*
X233502380Y-80104761D01*
X233526190Y-80152380D01*
X233526190Y-80295238D01*
X233502380Y-80342857D01*
X233478571Y-80366666D01*
X233526190Y-78819047D02*
X233026190Y-78819047D01*
X233026190Y-78628571D01*
X233050000Y-78580952D01*
X233073809Y-78557142D01*
X233121428Y-78533333D01*
X233192857Y-78533333D01*
X233240476Y-78557142D01*
X233264285Y-78580952D01*
X233288095Y-78628571D01*
X233288095Y-78819047D01*
X233264285Y-78152380D02*
X233288095Y-78080952D01*
X233311904Y-78057142D01*
X233359523Y-78033333D01*
X233430952Y-78033333D01*
X233478571Y-78057142D01*
X233502380Y-78080952D01*
X233526190Y-78128571D01*
X233526190Y-78319047D01*
X233026190Y-78319047D01*
X233026190Y-78152380D01*
X233050000Y-78104761D01*
X233073809Y-78080952D01*
X233121428Y-78057142D01*
X233169047Y-78057142D01*
X233216666Y-78080952D01*
X233240476Y-78104761D01*
X233264285Y-78152380D01*
X233264285Y-78319047D01*
X233192857Y-77604761D02*
X233526190Y-77604761D01*
X233002380Y-77723809D02*
X233359523Y-77842857D01*
X233359523Y-77533333D01*
X233526190Y-76319047D02*
X233026190Y-76319047D01*
X233026190Y-76128571D01*
X233050000Y-76080952D01*
X233073809Y-76057142D01*
X233121428Y-76033333D01*
X233192857Y-76033333D01*
X233240476Y-76057142D01*
X233264285Y-76080952D01*
X233288095Y-76128571D01*
X233288095Y-76319047D01*
X233264285Y-75652380D02*
X233288095Y-75580952D01*
X233311904Y-75557142D01*
X233359523Y-75533333D01*
X233430952Y-75533333D01*
X233478571Y-75557142D01*
X233502380Y-75580952D01*
X233526190Y-75628571D01*
X233526190Y-75819047D01*
X233026190Y-75819047D01*
X233026190Y-75652380D01*
X233050000Y-75604761D01*
X233073809Y-75580952D01*
X233121428Y-75557142D01*
X233169047Y-75557142D01*
X233216666Y-75580952D01*
X233240476Y-75604761D01*
X233264285Y-75652380D01*
X233264285Y-75819047D01*
X233026190Y-75080952D02*
X233026190Y-75319047D01*
X233264285Y-75342857D01*
X233240476Y-75319047D01*
X233216666Y-75271428D01*
X233216666Y-75152380D01*
X233240476Y-75104761D01*
X233264285Y-75080952D01*
X233311904Y-75057142D01*
X233430952Y-75057142D01*
X233478571Y-75080952D01*
X233502380Y-75104761D01*
X233526190Y-75152380D01*
X233526190Y-75271428D01*
X233502380Y-75319047D01*
X233478571Y-75342857D01*
X233526190Y-73719047D02*
X233026190Y-73719047D01*
X233026190Y-73528571D01*
X233050000Y-73480952D01*
X233073809Y-73457142D01*
X233121428Y-73433333D01*
X233192857Y-73433333D01*
X233240476Y-73457142D01*
X233264285Y-73480952D01*
X233288095Y-73528571D01*
X233288095Y-73719047D01*
X233264285Y-73052380D02*
X233288095Y-72980952D01*
X233311904Y-72957142D01*
X233359523Y-72933333D01*
X233430952Y-72933333D01*
X233478571Y-72957142D01*
X233502380Y-72980952D01*
X233526190Y-73028571D01*
X233526190Y-73219047D01*
X233026190Y-73219047D01*
X233026190Y-73052380D01*
X233050000Y-73004761D01*
X233073809Y-72980952D01*
X233121428Y-72957142D01*
X233169047Y-72957142D01*
X233216666Y-72980952D01*
X233240476Y-73004761D01*
X233264285Y-73052380D01*
X233264285Y-73219047D01*
X233026190Y-72504761D02*
X233026190Y-72600000D01*
X233050000Y-72647619D01*
X233073809Y-72671428D01*
X233145238Y-72719047D01*
X233240476Y-72742857D01*
X233430952Y-72742857D01*
X233478571Y-72719047D01*
X233502380Y-72695238D01*
X233526190Y-72647619D01*
X233526190Y-72552380D01*
X233502380Y-72504761D01*
X233478571Y-72480952D01*
X233430952Y-72457142D01*
X233311904Y-72457142D01*
X233264285Y-72480952D01*
X233240476Y-72504761D01*
X233216666Y-72552380D01*
X233216666Y-72647619D01*
X233240476Y-72695238D01*
X233264285Y-72719047D01*
X233311904Y-72742857D01*
X233526190Y-71219047D02*
X233026190Y-71219047D01*
X233026190Y-71028571D01*
X233050000Y-70980952D01*
X233073809Y-70957142D01*
X233121428Y-70933333D01*
X233192857Y-70933333D01*
X233240476Y-70957142D01*
X233264285Y-70980952D01*
X233288095Y-71028571D01*
X233288095Y-71219047D01*
X233264285Y-70552380D02*
X233288095Y-70480952D01*
X233311904Y-70457142D01*
X233359523Y-70433333D01*
X233430952Y-70433333D01*
X233478571Y-70457142D01*
X233502380Y-70480952D01*
X233526190Y-70528571D01*
X233526190Y-70719047D01*
X233026190Y-70719047D01*
X233026190Y-70552380D01*
X233050000Y-70504761D01*
X233073809Y-70480952D01*
X233121428Y-70457142D01*
X233169047Y-70457142D01*
X233216666Y-70480952D01*
X233240476Y-70504761D01*
X233264285Y-70552380D01*
X233264285Y-70719047D01*
X233026190Y-70266666D02*
X233026190Y-69933333D01*
X233526190Y-70147619D01*
X221780952Y-96926190D02*
X221780952Y-96426190D01*
X221971428Y-96426190D01*
X222019047Y-96450000D01*
X222042857Y-96473809D01*
X222066666Y-96521428D01*
X222066666Y-96592857D01*
X222042857Y-96640476D01*
X222019047Y-96664285D01*
X221971428Y-96688095D01*
X221780952Y-96688095D01*
X222447619Y-96664285D02*
X222519047Y-96688095D01*
X222542857Y-96711904D01*
X222566666Y-96759523D01*
X222566666Y-96830952D01*
X222542857Y-96878571D01*
X222519047Y-96902380D01*
X222471428Y-96926190D01*
X222280952Y-96926190D01*
X222280952Y-96426190D01*
X222447619Y-96426190D01*
X222495238Y-96450000D01*
X222519047Y-96473809D01*
X222542857Y-96521428D01*
X222542857Y-96569047D01*
X222519047Y-96616666D01*
X222495238Y-96640476D01*
X222447619Y-96664285D01*
X222280952Y-96664285D01*
X222876190Y-96426190D02*
X222923809Y-96426190D01*
X222971428Y-96450000D01*
X222995238Y-96473809D01*
X223019047Y-96521428D01*
X223042857Y-96616666D01*
X223042857Y-96735714D01*
X223019047Y-96830952D01*
X222995238Y-96878571D01*
X222971428Y-96902380D01*
X222923809Y-96926190D01*
X222876190Y-96926190D01*
X222828571Y-96902380D01*
X222804761Y-96878571D01*
X222780952Y-96830952D01*
X222757142Y-96735714D01*
X222757142Y-96616666D01*
X222780952Y-96521428D01*
X222804761Y-96473809D01*
X222828571Y-96450000D01*
X222876190Y-96426190D01*
X229480952Y-96926190D02*
X229480952Y-96426190D01*
X229671428Y-96426190D01*
X229719047Y-96450000D01*
X229742857Y-96473809D01*
X229766666Y-96521428D01*
X229766666Y-96592857D01*
X229742857Y-96640476D01*
X229719047Y-96664285D01*
X229671428Y-96688095D01*
X229480952Y-96688095D01*
X230147619Y-96664285D02*
X230219047Y-96688095D01*
X230242857Y-96711904D01*
X230266666Y-96759523D01*
X230266666Y-96830952D01*
X230242857Y-96878571D01*
X230219047Y-96902380D01*
X230171428Y-96926190D01*
X229980952Y-96926190D01*
X229980952Y-96426190D01*
X230147619Y-96426190D01*
X230195238Y-96450000D01*
X230219047Y-96473809D01*
X230242857Y-96521428D01*
X230242857Y-96569047D01*
X230219047Y-96616666D01*
X230195238Y-96640476D01*
X230147619Y-96664285D01*
X229980952Y-96664285D01*
X230742857Y-96926190D02*
X230457142Y-96926190D01*
X230600000Y-96926190D02*
X230600000Y-96426190D01*
X230552380Y-96497619D01*
X230504761Y-96545238D01*
X230457142Y-96569047D01*
X227016666Y-96926190D02*
X227016666Y-96426190D01*
X227207142Y-96426190D01*
X227254761Y-96450000D01*
X227278571Y-96473809D01*
X227302380Y-96521428D01*
X227302380Y-96592857D01*
X227278571Y-96640476D01*
X227254761Y-96664285D01*
X227207142Y-96688095D01*
X227016666Y-96688095D01*
X227492857Y-96783333D02*
X227730952Y-96783333D01*
X227445238Y-96926190D02*
X227611904Y-96426190D01*
X227778571Y-96926190D01*
X228016666Y-96640476D02*
X227969047Y-96616666D01*
X227945238Y-96592857D01*
X227921428Y-96545238D01*
X227921428Y-96521428D01*
X227945238Y-96473809D01*
X227969047Y-96450000D01*
X228016666Y-96426190D01*
X228111904Y-96426190D01*
X228159523Y-96450000D01*
X228183333Y-96473809D01*
X228207142Y-96521428D01*
X228207142Y-96545238D01*
X228183333Y-96592857D01*
X228159523Y-96616666D01*
X228111904Y-96640476D01*
X228016666Y-96640476D01*
X227969047Y-96664285D01*
X227945238Y-96688095D01*
X227921428Y-96735714D01*
X227921428Y-96830952D01*
X227945238Y-96878571D01*
X227969047Y-96902380D01*
X228016666Y-96926190D01*
X228111904Y-96926190D01*
X228159523Y-96902380D01*
X228183333Y-96878571D01*
X228207142Y-96830952D01*
X228207142Y-96735714D01*
X228183333Y-96688095D01*
X228159523Y-96664285D01*
X228111904Y-96640476D01*
X224178571Y-96926190D02*
X224178571Y-96426190D01*
X224369047Y-96426190D01*
X224416666Y-96450000D01*
X224440476Y-96473809D01*
X224464285Y-96521428D01*
X224464285Y-96592857D01*
X224440476Y-96640476D01*
X224416666Y-96664285D01*
X224369047Y-96688095D01*
X224178571Y-96688095D01*
X224654761Y-96783333D02*
X224892857Y-96783333D01*
X224607142Y-96926190D02*
X224773809Y-96426190D01*
X224940476Y-96926190D01*
X225369047Y-96926190D02*
X225083333Y-96926190D01*
X225226190Y-96926190D02*
X225226190Y-96426190D01*
X225178571Y-96497619D01*
X225130952Y-96545238D01*
X225083333Y-96569047D01*
X225821428Y-96426190D02*
X225583333Y-96426190D01*
X225559523Y-96664285D01*
X225583333Y-96640476D01*
X225630952Y-96616666D01*
X225750000Y-96616666D01*
X225797619Y-96640476D01*
X225821428Y-96664285D01*
X225845238Y-96711904D01*
X225845238Y-96830952D01*
X225821428Y-96878571D01*
X225797619Y-96902380D01*
X225750000Y-96926190D01*
X225630952Y-96926190D01*
X225583333Y-96902380D01*
X225559523Y-96878571D01*
X216816666Y-96926190D02*
X216816666Y-96426190D01*
X217007142Y-96426190D01*
X217054761Y-96450000D01*
X217078571Y-96473809D01*
X217102380Y-96521428D01*
X217102380Y-96592857D01*
X217078571Y-96640476D01*
X217054761Y-96664285D01*
X217007142Y-96688095D01*
X216816666Y-96688095D01*
X217292857Y-96783333D02*
X217530952Y-96783333D01*
X217245238Y-96926190D02*
X217411904Y-96426190D01*
X217578571Y-96926190D01*
X218007142Y-96926190D02*
X217721428Y-96926190D01*
X217864285Y-96926190D02*
X217864285Y-96426190D01*
X217816666Y-96497619D01*
X217769047Y-96545238D01*
X217721428Y-96569047D01*
X232126190Y-99000000D02*
X231626190Y-99000000D01*
X232126190Y-98761904D02*
X231626190Y-98761904D01*
X232126190Y-98476190D01*
X231626190Y-98476190D01*
X231626190Y-98000000D02*
X231626190Y-98238095D01*
X231864285Y-98261904D01*
X231840476Y-98238095D01*
X231816666Y-98190476D01*
X231816666Y-98071428D01*
X231840476Y-98023809D01*
X231864285Y-98000000D01*
X231911904Y-97976190D01*
X232030952Y-97976190D01*
X232078571Y-98000000D01*
X232102380Y-98023809D01*
X232126190Y-98071428D01*
X232126190Y-98190476D01*
X232102380Y-98238095D01*
X232078571Y-98261904D01*
X219316666Y-96926190D02*
X219316666Y-96426190D01*
X219507142Y-96426190D01*
X219554761Y-96450000D01*
X219578571Y-96473809D01*
X219602380Y-96521428D01*
X219602380Y-96592857D01*
X219578571Y-96640476D01*
X219554761Y-96664285D01*
X219507142Y-96688095D01*
X219316666Y-96688095D01*
X219792857Y-96783333D02*
X220030952Y-96783333D01*
X219745238Y-96926190D02*
X219911904Y-96426190D01*
X220078571Y-96926190D01*
X220221428Y-96473809D02*
X220245238Y-96450000D01*
X220292857Y-96426190D01*
X220411904Y-96426190D01*
X220459523Y-96450000D01*
X220483333Y-96473809D01*
X220507142Y-96521428D01*
X220507142Y-96569047D01*
X220483333Y-96640476D01*
X220197619Y-96926190D01*
X220507142Y-96926190D01*
X215826190Y-99000000D02*
X215326190Y-99000000D01*
X215826190Y-98761904D02*
X215326190Y-98761904D01*
X215826190Y-98476190D01*
X215326190Y-98476190D01*
X215326190Y-98142857D02*
X215326190Y-98095238D01*
X215350000Y-98047619D01*
X215373809Y-98023809D01*
X215421428Y-98000000D01*
X215516666Y-97976190D01*
X215635714Y-97976190D01*
X215730952Y-98000000D01*
X215778571Y-98023809D01*
X215802380Y-98047619D01*
X215826190Y-98095238D01*
X215826190Y-98142857D01*
X215802380Y-98190476D01*
X215778571Y-98214285D01*
X215730952Y-98238095D01*
X215635714Y-98261904D01*
X215516666Y-98261904D01*
X215421428Y-98238095D01*
X215373809Y-98214285D01*
X215350000Y-98190476D01*
X215326190Y-98142857D01*
X214426190Y-99083333D02*
X213926190Y-99083333D01*
X213926190Y-98892857D01*
X213950000Y-98845238D01*
X213973809Y-98821428D01*
X214021428Y-98797619D01*
X214092857Y-98797619D01*
X214140476Y-98821428D01*
X214164285Y-98845238D01*
X214188095Y-98892857D01*
X214188095Y-99083333D01*
X214283333Y-98607142D02*
X214283333Y-98369047D01*
X214426190Y-98654761D02*
X213926190Y-98488095D01*
X214426190Y-98321428D01*
X214426190Y-97892857D02*
X214426190Y-98178571D01*
X214426190Y-98035714D02*
X213926190Y-98035714D01*
X213997619Y-98083333D01*
X214045238Y-98130952D01*
X214069047Y-98178571D01*
X214426190Y-96583333D02*
X213926190Y-96583333D01*
X213926190Y-96392857D01*
X213950000Y-96345238D01*
X213973809Y-96321428D01*
X214021428Y-96297619D01*
X214092857Y-96297619D01*
X214140476Y-96321428D01*
X214164285Y-96345238D01*
X214188095Y-96392857D01*
X214188095Y-96583333D01*
X214283333Y-96107142D02*
X214283333Y-95869047D01*
X214426190Y-96154761D02*
X213926190Y-95988095D01*
X214426190Y-95821428D01*
X213973809Y-95678571D02*
X213950000Y-95654761D01*
X213926190Y-95607142D01*
X213926190Y-95488095D01*
X213950000Y-95440476D01*
X213973809Y-95416666D01*
X214021428Y-95392857D01*
X214069047Y-95392857D01*
X214140476Y-95416666D01*
X214426190Y-95702380D01*
X214426190Y-95392857D01*
X214426190Y-94019047D02*
X213926190Y-94019047D01*
X213926190Y-93828571D01*
X213950000Y-93780952D01*
X213973809Y-93757142D01*
X214021428Y-93733333D01*
X214092857Y-93733333D01*
X214140476Y-93757142D01*
X214164285Y-93780952D01*
X214188095Y-93828571D01*
X214188095Y-94019047D01*
X214164285Y-93352380D02*
X214188095Y-93280952D01*
X214211904Y-93257142D01*
X214259523Y-93233333D01*
X214330952Y-93233333D01*
X214378571Y-93257142D01*
X214402380Y-93280952D01*
X214426190Y-93328571D01*
X214426190Y-93519047D01*
X213926190Y-93519047D01*
X213926190Y-93352380D01*
X213950000Y-93304761D01*
X213973809Y-93280952D01*
X214021428Y-93257142D01*
X214069047Y-93257142D01*
X214116666Y-93280952D01*
X214140476Y-93304761D01*
X214164285Y-93352380D01*
X214164285Y-93519047D01*
X213926190Y-92923809D02*
X213926190Y-92876190D01*
X213950000Y-92828571D01*
X213973809Y-92804761D01*
X214021428Y-92780952D01*
X214116666Y-92757142D01*
X214235714Y-92757142D01*
X214330952Y-92780952D01*
X214378571Y-92804761D01*
X214402380Y-92828571D01*
X214426190Y-92876190D01*
X214426190Y-92923809D01*
X214402380Y-92971428D01*
X214378571Y-92995238D01*
X214330952Y-93019047D01*
X214235714Y-93042857D01*
X214116666Y-93042857D01*
X214021428Y-93019047D01*
X213973809Y-92995238D01*
X213950000Y-92971428D01*
X213926190Y-92923809D01*
X214426190Y-91483333D02*
X213926190Y-91483333D01*
X213926190Y-91292857D01*
X213950000Y-91245238D01*
X213973809Y-91221428D01*
X214021428Y-91197619D01*
X214092857Y-91197619D01*
X214140476Y-91221428D01*
X214164285Y-91245238D01*
X214188095Y-91292857D01*
X214188095Y-91483333D01*
X214283333Y-91007142D02*
X214283333Y-90769047D01*
X214426190Y-91054761D02*
X213926190Y-90888095D01*
X214426190Y-90721428D01*
X213926190Y-90602380D02*
X213926190Y-90269047D01*
X214426190Y-90483333D01*
X214426190Y-88883333D02*
X213926190Y-88883333D01*
X213926190Y-88692857D01*
X213950000Y-88645238D01*
X213973809Y-88621428D01*
X214021428Y-88597619D01*
X214092857Y-88597619D01*
X214140476Y-88621428D01*
X214164285Y-88645238D01*
X214188095Y-88692857D01*
X214188095Y-88883333D01*
X214283333Y-88407142D02*
X214283333Y-88169047D01*
X214426190Y-88454761D02*
X213926190Y-88288095D01*
X214426190Y-88121428D01*
X213926190Y-87740476D02*
X213926190Y-87835714D01*
X213950000Y-87883333D01*
X213973809Y-87907142D01*
X214045238Y-87954761D01*
X214140476Y-87978571D01*
X214330952Y-87978571D01*
X214378571Y-87954761D01*
X214402380Y-87930952D01*
X214426190Y-87883333D01*
X214426190Y-87788095D01*
X214402380Y-87740476D01*
X214378571Y-87716666D01*
X214330952Y-87692857D01*
X214211904Y-87692857D01*
X214164285Y-87716666D01*
X214140476Y-87740476D01*
X214116666Y-87788095D01*
X214116666Y-87883333D01*
X214140476Y-87930952D01*
X214164285Y-87954761D01*
X214211904Y-87978571D01*
X214426190Y-86383333D02*
X213926190Y-86383333D01*
X213926190Y-86192857D01*
X213950000Y-86145238D01*
X213973809Y-86121428D01*
X214021428Y-86097619D01*
X214092857Y-86097619D01*
X214140476Y-86121428D01*
X214164285Y-86145238D01*
X214188095Y-86192857D01*
X214188095Y-86383333D01*
X214283333Y-85907142D02*
X214283333Y-85669047D01*
X214426190Y-85954761D02*
X213926190Y-85788095D01*
X214426190Y-85621428D01*
X213926190Y-85216666D02*
X213926190Y-85454761D01*
X214164285Y-85478571D01*
X214140476Y-85454761D01*
X214116666Y-85407142D01*
X214116666Y-85288095D01*
X214140476Y-85240476D01*
X214164285Y-85216666D01*
X214211904Y-85192857D01*
X214330952Y-85192857D01*
X214378571Y-85216666D01*
X214402380Y-85240476D01*
X214426190Y-85288095D01*
X214426190Y-85407142D01*
X214402380Y-85454761D01*
X214378571Y-85478571D01*
X214426190Y-83883333D02*
X213926190Y-83883333D01*
X213926190Y-83692857D01*
X213950000Y-83645238D01*
X213973809Y-83621428D01*
X214021428Y-83597619D01*
X214092857Y-83597619D01*
X214140476Y-83621428D01*
X214164285Y-83645238D01*
X214188095Y-83692857D01*
X214188095Y-83883333D01*
X214283333Y-83407142D02*
X214283333Y-83169047D01*
X214426190Y-83454761D02*
X213926190Y-83288095D01*
X214426190Y-83121428D01*
X214092857Y-82740476D02*
X214426190Y-82740476D01*
X213902380Y-82859523D02*
X214259523Y-82978571D01*
X214259523Y-82669047D01*
X214426190Y-81283333D02*
X213926190Y-81283333D01*
X213926190Y-81092857D01*
X213950000Y-81045238D01*
X213973809Y-81021428D01*
X214021428Y-80997619D01*
X214092857Y-80997619D01*
X214140476Y-81021428D01*
X214164285Y-81045238D01*
X214188095Y-81092857D01*
X214188095Y-81283333D01*
X214283333Y-80807142D02*
X214283333Y-80569047D01*
X214426190Y-80854761D02*
X213926190Y-80688095D01*
X214426190Y-80521428D01*
X213926190Y-80402380D02*
X213926190Y-80092857D01*
X214116666Y-80259523D01*
X214116666Y-80188095D01*
X214140476Y-80140476D01*
X214164285Y-80116666D01*
X214211904Y-80092857D01*
X214330952Y-80092857D01*
X214378571Y-80116666D01*
X214402380Y-80140476D01*
X214426190Y-80188095D01*
X214426190Y-80330952D01*
X214402380Y-80378571D01*
X214378571Y-80402380D01*
X214426190Y-78783333D02*
X213926190Y-78783333D01*
X213926190Y-78592857D01*
X213950000Y-78545238D01*
X213973809Y-78521428D01*
X214021428Y-78497619D01*
X214092857Y-78497619D01*
X214140476Y-78521428D01*
X214164285Y-78545238D01*
X214188095Y-78592857D01*
X214188095Y-78783333D01*
X214283333Y-78307142D02*
X214283333Y-78069047D01*
X214426190Y-78354761D02*
X213926190Y-78188095D01*
X214426190Y-78021428D01*
X213926190Y-77759523D02*
X213926190Y-77711904D01*
X213950000Y-77664285D01*
X213973809Y-77640476D01*
X214021428Y-77616666D01*
X214116666Y-77592857D01*
X214235714Y-77592857D01*
X214330952Y-77616666D01*
X214378571Y-77640476D01*
X214402380Y-77664285D01*
X214426190Y-77711904D01*
X214426190Y-77759523D01*
X214402380Y-77807142D01*
X214378571Y-77830952D01*
X214330952Y-77854761D01*
X214235714Y-77878571D01*
X214116666Y-77878571D01*
X214021428Y-77854761D01*
X213973809Y-77830952D01*
X213950000Y-77807142D01*
X213926190Y-77759523D01*
X214026190Y-73763571D02*
X214026190Y-73454047D01*
X214216666Y-73620714D01*
X214216666Y-73549285D01*
X214240476Y-73501666D01*
X214264285Y-73477857D01*
X214311904Y-73454047D01*
X214430952Y-73454047D01*
X214478571Y-73477857D01*
X214502380Y-73501666D01*
X214526190Y-73549285D01*
X214526190Y-73692142D01*
X214502380Y-73739761D01*
X214478571Y-73763571D01*
X214478571Y-73239761D02*
X214502380Y-73215952D01*
X214526190Y-73239761D01*
X214502380Y-73263571D01*
X214478571Y-73239761D01*
X214526190Y-73239761D01*
X214026190Y-73049285D02*
X214026190Y-72739761D01*
X214216666Y-72906428D01*
X214216666Y-72835000D01*
X214240476Y-72787380D01*
X214264285Y-72763571D01*
X214311904Y-72739761D01*
X214430952Y-72739761D01*
X214478571Y-72763571D01*
X214502380Y-72787380D01*
X214526190Y-72835000D01*
X214526190Y-72977857D01*
X214502380Y-73025476D01*
X214478571Y-73049285D01*
X214026190Y-72596904D02*
X214526190Y-72430238D01*
X214026190Y-72263571D01*
X213952000Y-75932047D02*
X213928190Y-75979666D01*
X213928190Y-76051095D01*
X213952000Y-76122523D01*
X213999619Y-76170142D01*
X214047238Y-76193952D01*
X214142476Y-76217761D01*
X214213904Y-76217761D01*
X214309142Y-76193952D01*
X214356761Y-76170142D01*
X214404380Y-76122523D01*
X214428190Y-76051095D01*
X214428190Y-76003476D01*
X214404380Y-75932047D01*
X214380571Y-75908238D01*
X214213904Y-75908238D01*
X214213904Y-76003476D01*
X214428190Y-75693952D02*
X213928190Y-75693952D01*
X214428190Y-75408238D01*
X213928190Y-75408238D01*
X214428190Y-75170142D02*
X213928190Y-75170142D01*
X213928190Y-75051095D01*
X213952000Y-74979666D01*
X213999619Y-74932047D01*
X214047238Y-74908238D01*
X214142476Y-74884428D01*
X214213904Y-74884428D01*
X214309142Y-74908238D01*
X214356761Y-74932047D01*
X214404380Y-74979666D01*
X214428190Y-75051095D01*
X214428190Y-75170142D01*
X213926190Y-70977857D02*
X213926190Y-71215952D01*
X214164285Y-71239761D01*
X214140476Y-71215952D01*
X214116666Y-71168333D01*
X214116666Y-71049285D01*
X214140476Y-71001666D01*
X214164285Y-70977857D01*
X214211904Y-70954047D01*
X214330952Y-70954047D01*
X214378571Y-70977857D01*
X214402380Y-71001666D01*
X214426190Y-71049285D01*
X214426190Y-71168333D01*
X214402380Y-71215952D01*
X214378571Y-71239761D01*
X214378571Y-70739761D02*
X214402380Y-70715952D01*
X214426190Y-70739761D01*
X214402380Y-70763571D01*
X214378571Y-70739761D01*
X214426190Y-70739761D01*
X213926190Y-70406428D02*
X213926190Y-70358809D01*
X213950000Y-70311190D01*
X213973809Y-70287380D01*
X214021428Y-70263571D01*
X214116666Y-70239761D01*
X214235714Y-70239761D01*
X214330952Y-70263571D01*
X214378571Y-70287380D01*
X214402380Y-70311190D01*
X214426190Y-70358809D01*
X214426190Y-70406428D01*
X214402380Y-70454047D01*
X214378571Y-70477857D01*
X214330952Y-70501666D01*
X214235714Y-70525476D01*
X214116666Y-70525476D01*
X214021428Y-70501666D01*
X213973809Y-70477857D01*
X213950000Y-70454047D01*
X213926190Y-70406428D01*
X213926190Y-70096904D02*
X214426190Y-69930238D01*
X213926190Y-69763571D01*
X223452380Y-53597619D02*
X223476190Y-53526190D01*
X223476190Y-53407142D01*
X223452380Y-53359523D01*
X223428571Y-53335714D01*
X223380952Y-53311904D01*
X223333333Y-53311904D01*
X223285714Y-53335714D01*
X223261904Y-53359523D01*
X223238095Y-53407142D01*
X223214285Y-53502380D01*
X223190476Y-53550000D01*
X223166666Y-53573809D01*
X223119047Y-53597619D01*
X223071428Y-53597619D01*
X223023809Y-53573809D01*
X223000000Y-53550000D01*
X222976190Y-53502380D01*
X222976190Y-53383333D01*
X223000000Y-53311904D01*
X222976190Y-53169047D02*
X222976190Y-52883333D01*
X223476190Y-53026190D02*
X222976190Y-53026190D01*
X223214285Y-52550000D02*
X223238095Y-52478571D01*
X223261904Y-52454761D01*
X223309523Y-52430952D01*
X223380952Y-52430952D01*
X223428571Y-52454761D01*
X223452380Y-52478571D01*
X223476190Y-52526190D01*
X223476190Y-52716666D01*
X222976190Y-52716666D01*
X222976190Y-52550000D01*
X223000000Y-52502380D01*
X223023809Y-52478571D01*
X223071428Y-52454761D01*
X223119047Y-52454761D01*
X223166666Y-52478571D01*
X223190476Y-52502380D01*
X223214285Y-52550000D01*
X223214285Y-52716666D01*
X223238095Y-52121428D02*
X223476190Y-52121428D01*
X222976190Y-52288095D02*
X223238095Y-52121428D01*
X222976190Y-51954761D01*
X217628571Y-53457142D02*
X217652380Y-53480952D01*
X217676190Y-53552380D01*
X217676190Y-53600000D01*
X217652380Y-53671428D01*
X217604761Y-53719047D01*
X217557142Y-53742857D01*
X217461904Y-53766666D01*
X217390476Y-53766666D01*
X217295238Y-53742857D01*
X217247619Y-53719047D01*
X217200000Y-53671428D01*
X217176190Y-53600000D01*
X217176190Y-53552380D01*
X217200000Y-53480952D01*
X217223809Y-53457142D01*
X217676190Y-53242857D02*
X217176190Y-53242857D01*
X217414285Y-53242857D02*
X217414285Y-52957142D01*
X217676190Y-52957142D02*
X217176190Y-52957142D01*
X217676190Y-52433333D02*
X217438095Y-52600000D01*
X217676190Y-52719047D02*
X217176190Y-52719047D01*
X217176190Y-52528571D01*
X217200000Y-52480952D01*
X217223809Y-52457142D01*
X217271428Y-52433333D01*
X217342857Y-52433333D01*
X217390476Y-52457142D01*
X217414285Y-52480952D01*
X217438095Y-52528571D01*
X217438095Y-52719047D01*
X217200000Y-51957142D02*
X217176190Y-52004761D01*
X217176190Y-52076190D01*
X217200000Y-52147619D01*
X217247619Y-52195238D01*
X217295238Y-52219047D01*
X217390476Y-52242857D01*
X217461904Y-52242857D01*
X217557142Y-52219047D01*
X217604761Y-52195238D01*
X217652380Y-52147619D01*
X217676190Y-52076190D01*
X217676190Y-52028571D01*
X217652380Y-51957142D01*
X217628571Y-51933333D01*
X217461904Y-51933333D01*
X217461904Y-52028571D01*
D12*
X232780000Y-65840000D02*
X232780000Y-67300000D01*
X229620000Y-65840000D02*
X229620000Y-68000000D01*
X229620000Y-65840000D02*
X230550000Y-65840000D01*
X232780000Y-65840000D02*
X231850000Y-65840000D01*
X223165000Y-56565000D02*
X223165000Y-58850000D01*
X224635000Y-56565000D02*
X223165000Y-56565000D01*
X224635000Y-58850000D02*
X224635000Y-56565000D01*
X223844923Y-79061953D02*
G75*
G03X223844923Y-79061953I-180278J0D01*
G01*
X224035876Y-78994778D02*
X223700000Y-78658903D01*
X223700000Y-86041097D02*
X224035876Y-85705222D01*
X223364124Y-85705222D02*
X223700000Y-86041097D01*
X220008903Y-82350000D02*
X220344778Y-82014124D01*
X220344778Y-82685876D02*
X220008903Y-82350000D01*
X227391097Y-82350000D02*
X227055222Y-82685876D01*
X227055222Y-82014124D02*
X227391097Y-82350000D01*
D11*
X221825000Y-87325000D02*
X220450000Y-87325000D01*
X221825000Y-96200000D02*
X225975000Y-96200000D01*
X221825000Y-87300000D02*
X225975000Y-87300000D01*
X221825000Y-96200000D02*
X221825000Y-96085000D01*
X225975000Y-96200000D02*
X225975000Y-96085000D01*
X225975000Y-87300000D02*
X225975000Y-87415000D01*
X221825000Y-87300000D02*
X221825000Y-87325000D01*
D12*
X224985000Y-76310000D02*
X225460000Y-76310000D01*
X221240000Y-72090000D02*
X221240000Y-72565000D01*
X221715000Y-72090000D02*
X221240000Y-72090000D01*
X225460000Y-72090000D02*
X225460000Y-72565000D01*
X224985000Y-72090000D02*
X225460000Y-72090000D01*
X221240000Y-76310000D02*
X221240000Y-75835000D01*
X221715000Y-76310000D02*
X221240000Y-76310000D01*
X221360000Y-62500000D02*
X221360000Y-68510000D01*
X214540000Y-64750000D02*
X214540000Y-68510000D01*
X221360000Y-68510000D02*
X220100000Y-68510000D01*
X214540000Y-68510000D02*
X215800000Y-68510000D01*
X231000000Y-61540000D02*
X228550000Y-61540000D01*
X229200000Y-64760000D02*
X231000000Y-64760000D01*
X226410000Y-67000279D02*
X226410000Y-66674721D01*
X225390000Y-67000279D02*
X225390000Y-66674721D01*
X225390000Y-63737221D02*
X225390000Y-64062779D01*
X226410000Y-63737221D02*
X226410000Y-64062779D01*
X217785000Y-73515000D02*
X215500000Y-73515000D01*
X217785000Y-74985000D02*
X217785000Y-73515000D01*
X215500000Y-74985000D02*
X217785000Y-74985000D01*
X217785000Y-71215000D02*
X215500000Y-71215000D01*
X217785000Y-72685000D02*
X217785000Y-71215000D01*
X215500000Y-72685000D02*
X217785000Y-72685000D01*
X221550000Y-68500000D02*
X221550000Y-63100000D01*
X224850000Y-68500000D02*
X224850000Y-63100000D01*
X221550000Y-68500000D02*
X224850000Y-68500000D01*
X226690000Y-73553922D02*
X226690000Y-74071078D01*
X228110000Y-73553922D02*
X228110000Y-74071078D01*
X229108578Y-69140000D02*
X228591422Y-69140000D01*
X229108578Y-70560000D02*
X228591422Y-70560000D01*
X225228922Y-70510000D02*
X225746078Y-70510000D01*
X225228922Y-69090000D02*
X225746078Y-69090000D01*
D11*
X227775000Y-51575000D02*
X227775000Y-56225000D01*
X231025000Y-51575000D02*
X231025000Y-56225000D01*
X227775000Y-51575000D02*
X227975000Y-51575000D01*
X227775000Y-56225000D02*
X227975000Y-56225000D01*
X231025000Y-56225000D02*
X230825000Y-56225000D01*
X231025000Y-51575000D02*
X230925000Y-51575000D01*
D12*
X231256155Y-50943845D02*
G75*
G03X231256155Y-50943845I-206155J0D01*
G01*
D11*
X217775000Y-57925000D02*
X217975000Y-57925000D01*
X217775000Y-53775000D02*
X217975000Y-53775000D01*
X222925000Y-53775000D02*
X222725000Y-53775000D01*
X222925000Y-57925000D02*
X222725000Y-57925000D01*
X217775000Y-57925000D02*
X217775000Y-53775000D01*
X222925000Y-57925000D02*
X222925000Y-53775000D01*
D12*
X217823607Y-58550000D02*
G75*
G03X217823607Y-58550000I-223607J0D01*
G01*
X227560000Y-54250000D02*
X227560000Y-52450000D01*
X224340000Y-52450000D02*
X224340000Y-54250000D01*
X227958114Y-52150000D02*
G75*
G03X227958114Y-52150000I-158114J0D01*
G01*
X230608578Y-59840000D02*
X230091422Y-59840000D01*
X230608578Y-61260000D02*
X230091422Y-61260000D01*
X215015000Y-79335000D02*
X217300000Y-79335000D01*
X215015000Y-77865000D02*
X215015000Y-79335000D01*
X217300000Y-77865000D02*
X215015000Y-77865000D01*
X215850000Y-50500000D02*
X215850000Y-52250000D01*
X211350000Y-50500000D02*
X215850000Y-50500000D01*
X211350000Y-60500000D02*
X211350000Y-50500000D01*
X215850000Y-60500000D02*
X211350000Y-60500000D01*
X215850000Y-58750000D02*
X215850000Y-60500000D01*
X235567083Y-59300000D02*
G75*
G03X235567083Y-59300000I-667083J0D01*
G01*
X235567083Y-56300000D02*
G75*
G03X235567083Y-56300000I-667083J0D01*
G01*
X236400000Y-54300000D02*
X236400000Y-61300000D01*
X233250000Y-56150000D02*
X233250000Y-56450000D01*
X233250000Y-61300000D02*
X236400000Y-61300000D01*
X233250000Y-60800000D02*
X233250000Y-61300000D01*
X233250000Y-57800000D02*
X233250000Y-59300000D01*
X233250000Y-54300000D02*
X233250000Y-54800000D01*
X236400000Y-54300000D02*
X233250000Y-54300000D01*
X235714782Y-66650000D02*
G75*
G03X235714782Y-66650000I-514782J0D01*
G01*
X235714782Y-64950000D02*
G75*
G03X235714782Y-64950000I-514782J0D01*
G01*
X236400000Y-63950000D02*
X236400000Y-67650000D01*
X234350000Y-67650000D02*
X236400000Y-67650000D01*
X234350000Y-66900000D02*
X234350000Y-67650000D01*
X233550000Y-66900000D02*
X234350000Y-66900000D01*
X233550000Y-64700000D02*
X233550000Y-66900000D01*
X234350000Y-64700000D02*
X233550000Y-64700000D01*
X234350000Y-63950000D02*
X234350000Y-64700000D01*
X236400000Y-63950000D02*
X234350000Y-63950000D01*
X221565000Y-51685000D02*
X223850000Y-51685000D01*
X221565000Y-50215000D02*
X221565000Y-51685000D01*
X223850000Y-50215000D02*
X221565000Y-50215000D01*
X219235000Y-50215000D02*
X216950000Y-50215000D01*
X219235000Y-51685000D02*
X219235000Y-50215000D01*
X216950000Y-51685000D02*
X219235000Y-51685000D01*
X236470000Y-50270000D02*
X236470000Y-51600000D01*
X235140000Y-50270000D02*
X236470000Y-50270000D01*
X233870000Y-50270000D02*
X233870000Y-52930000D01*
X233870000Y-52930000D02*
X231270000Y-52930000D01*
X233870000Y-50270000D02*
X231270000Y-50270000D01*
X231270000Y-50270000D02*
X231270000Y-52930000D01*
X232480000Y-78435000D02*
X231350000Y-78435000D01*
X232480000Y-77675000D02*
X232480000Y-78435000D01*
X229772470Y-78370000D02*
X228950000Y-78370000D01*
X230590000Y-78370000D02*
X230387530Y-78370000D01*
X230590000Y-78238471D02*
X230590000Y-78370000D01*
X230590000Y-76968471D02*
X230590000Y-77111529D01*
X230786529Y-76915000D02*
X230643471Y-76915000D01*
X232480000Y-76915000D02*
X231913471Y-76915000D01*
X228950000Y-78370000D02*
X228950000Y-71900000D01*
X232480000Y-76915000D02*
X232480000Y-71900000D01*
X231042470Y-71900000D02*
X230387530Y-71900000D01*
X229772470Y-71900000D02*
X228950000Y-71900000D01*
X232480000Y-71900000D02*
X231657530Y-71900000D01*
X211050000Y-68500000D02*
X211050000Y-63100000D01*
X214350000Y-68500000D02*
X214350000Y-63100000D01*
X211050000Y-68500000D02*
X214350000Y-68500000D01*
X221691422Y-70510000D02*
X222208578Y-70510000D01*
X221691422Y-69090000D02*
X222208578Y-69090000D01*
X230091422Y-59410000D02*
X230608578Y-59410000D01*
X230091422Y-57990000D02*
X230608578Y-57990000D01*
D10*
X232502380Y-65323809D02*
X232454761Y-65300000D01*
X232407142Y-65252380D01*
X232335714Y-65180952D01*
X232288095Y-65157142D01*
X232240476Y-65157142D01*
X232264285Y-65276190D02*
X232216666Y-65252380D01*
X232169047Y-65204761D01*
X232145238Y-65109523D01*
X232145238Y-64942857D01*
X232169047Y-64847619D01*
X232216666Y-64800000D01*
X232264285Y-64776190D01*
X232359523Y-64776190D01*
X232407142Y-64800000D01*
X232454761Y-64847619D01*
X232478571Y-64942857D01*
X232478571Y-65109523D01*
X232454761Y-65204761D01*
X232407142Y-65252380D01*
X232359523Y-65276190D01*
X232264285Y-65276190D01*
X232954761Y-65276190D02*
X232669047Y-65276190D01*
X232811904Y-65276190D02*
X232811904Y-64776190D01*
X232764285Y-64847619D01*
X232716666Y-64895238D01*
X232669047Y-64919047D01*
X219278571Y-75426190D02*
X219111904Y-75188095D01*
X218992857Y-75426190D02*
X218992857Y-74926190D01*
X219183333Y-74926190D01*
X219230952Y-74950000D01*
X219254761Y-74973809D01*
X219278571Y-75021428D01*
X219278571Y-75092857D01*
X219254761Y-75140476D01*
X219230952Y-75164285D01*
X219183333Y-75188095D01*
X218992857Y-75188095D01*
X219445238Y-74926190D02*
X219754761Y-74926190D01*
X219588095Y-75116666D01*
X219659523Y-75116666D01*
X219707142Y-75140476D01*
X219730952Y-75164285D01*
X219754761Y-75211904D01*
X219754761Y-75330952D01*
X219730952Y-75378571D01*
X219707142Y-75402380D01*
X219659523Y-75426190D01*
X219516666Y-75426190D01*
X219469047Y-75402380D01*
X219445238Y-75378571D01*
X220183333Y-75092857D02*
X220183333Y-75426190D01*
X220064285Y-74902380D02*
X219945238Y-75259523D01*
X220254761Y-75259523D01*
X219278571Y-78076190D02*
X219111904Y-77838095D01*
X218992857Y-78076190D02*
X218992857Y-77576190D01*
X219183333Y-77576190D01*
X219230952Y-77600000D01*
X219254761Y-77623809D01*
X219278571Y-77671428D01*
X219278571Y-77742857D01*
X219254761Y-77790476D01*
X219230952Y-77814285D01*
X219183333Y-77838095D01*
X218992857Y-77838095D01*
X219445238Y-77576190D02*
X219754761Y-77576190D01*
X219588095Y-77766666D01*
X219659523Y-77766666D01*
X219707142Y-77790476D01*
X219730952Y-77814285D01*
X219754761Y-77861904D01*
X219754761Y-77980952D01*
X219730952Y-78028571D01*
X219707142Y-78052380D01*
X219659523Y-78076190D01*
X219516666Y-78076190D01*
X219469047Y-78052380D01*
X219445238Y-78028571D01*
X219921428Y-77576190D02*
X220230952Y-77576190D01*
X220064285Y-77766666D01*
X220135714Y-77766666D01*
X220183333Y-77790476D01*
X220207142Y-77814285D01*
X220230952Y-77861904D01*
X220230952Y-77980952D01*
X220207142Y-78028571D01*
X220183333Y-78052380D01*
X220135714Y-78076190D01*
X219992857Y-78076190D01*
X219945238Y-78052380D01*
X219921428Y-78028571D01*
X225476190Y-56371428D02*
X225238095Y-56538095D01*
X225476190Y-56657142D02*
X224976190Y-56657142D01*
X224976190Y-56466666D01*
X225000000Y-56419047D01*
X225023809Y-56395238D01*
X225071428Y-56371428D01*
X225142857Y-56371428D01*
X225190476Y-56395238D01*
X225214285Y-56419047D01*
X225238095Y-56466666D01*
X225238095Y-56657142D01*
X225476190Y-55895238D02*
X225476190Y-56180952D01*
X225476190Y-56038095D02*
X224976190Y-56038095D01*
X225047619Y-56085714D01*
X225095238Y-56133333D01*
X225119047Y-56180952D01*
X225476190Y-55657142D02*
X225476190Y-55561904D01*
X225452380Y-55514285D01*
X225428571Y-55490476D01*
X225357142Y-55442857D01*
X225261904Y-55419047D01*
X225071428Y-55419047D01*
X225023809Y-55442857D01*
X225000000Y-55466666D01*
X224976190Y-55514285D01*
X224976190Y-55609523D01*
X225000000Y-55657142D01*
X225023809Y-55680952D01*
X225071428Y-55704761D01*
X225190476Y-55704761D01*
X225238095Y-55680952D01*
X225261904Y-55657142D01*
X225285714Y-55609523D01*
X225285714Y-55514285D01*
X225261904Y-55466666D01*
X225238095Y-55442857D01*
X225190476Y-55419047D01*
X224126190Y-56319047D02*
X223626190Y-56319047D01*
X223626190Y-56200000D01*
X223650000Y-56128571D01*
X223697619Y-56080952D01*
X223745238Y-56057142D01*
X223840476Y-56033333D01*
X223911904Y-56033333D01*
X224007142Y-56057142D01*
X224054761Y-56080952D01*
X224102380Y-56128571D01*
X224126190Y-56200000D01*
X224126190Y-56319047D01*
X223626190Y-55580952D02*
X223626190Y-55819047D01*
X223864285Y-55842857D01*
X223840476Y-55819047D01*
X223816666Y-55771428D01*
X223816666Y-55652380D01*
X223840476Y-55604761D01*
X223864285Y-55580952D01*
X223911904Y-55557142D01*
X224030952Y-55557142D01*
X224078571Y-55580952D01*
X224102380Y-55604761D01*
X224126190Y-55652380D01*
X224126190Y-55771428D01*
X224102380Y-55819047D01*
X224078571Y-55842857D01*
X227544047Y-81601190D02*
X227544047Y-82005952D01*
X227567857Y-82053571D01*
X227591666Y-82077380D01*
X227639285Y-82101190D01*
X227734523Y-82101190D01*
X227782142Y-82077380D01*
X227805952Y-82053571D01*
X227829761Y-82005952D01*
X227829761Y-81601190D01*
X228044047Y-81648809D02*
X228067857Y-81625000D01*
X228115476Y-81601190D01*
X228234523Y-81601190D01*
X228282142Y-81625000D01*
X228305952Y-81648809D01*
X228329761Y-81696428D01*
X228329761Y-81744047D01*
X228305952Y-81815476D01*
X228020238Y-82101190D01*
X228329761Y-82101190D01*
X220869047Y-86626190D02*
X220869047Y-87030952D01*
X220892857Y-87078571D01*
X220916666Y-87102380D01*
X220964285Y-87126190D01*
X221059523Y-87126190D01*
X221107142Y-87102380D01*
X221130952Y-87078571D01*
X221154761Y-87030952D01*
X221154761Y-86626190D01*
X221654761Y-87126190D02*
X221369047Y-87126190D01*
X221511904Y-87126190D02*
X221511904Y-86626190D01*
X221464285Y-86697619D01*
X221416666Y-86745238D01*
X221369047Y-86769047D01*
X225730952Y-76276190D02*
X225730952Y-76680952D01*
X225754761Y-76728571D01*
X225778571Y-76752380D01*
X225826190Y-76776190D01*
X225921428Y-76776190D01*
X225969047Y-76752380D01*
X225992857Y-76728571D01*
X226016666Y-76680952D01*
X226016666Y-76276190D01*
X226516666Y-76776190D02*
X226230952Y-76776190D01*
X226373809Y-76776190D02*
X226373809Y-76276190D01*
X226326190Y-76347619D01*
X226278571Y-76395238D01*
X226230952Y-76419047D01*
X226826190Y-76276190D02*
X226873809Y-76276190D01*
X226921428Y-76300000D01*
X226945238Y-76323809D01*
X226969047Y-76371428D01*
X226992857Y-76466666D01*
X226992857Y-76585714D01*
X226969047Y-76680952D01*
X226945238Y-76728571D01*
X226921428Y-76752380D01*
X226873809Y-76776190D01*
X226826190Y-76776190D01*
X226778571Y-76752380D01*
X226754761Y-76728571D01*
X226730952Y-76680952D01*
X226707142Y-76585714D01*
X226707142Y-76466666D01*
X226730952Y-76371428D01*
X226754761Y-76323809D01*
X226778571Y-76300000D01*
X226826190Y-76276190D01*
X220226190Y-66930952D02*
X220630952Y-66930952D01*
X220678571Y-66907142D01*
X220702380Y-66883333D01*
X220726190Y-66835714D01*
X220726190Y-66740476D01*
X220702380Y-66692857D01*
X220678571Y-66669047D01*
X220630952Y-66645238D01*
X220226190Y-66645238D01*
X220392857Y-66192857D02*
X220726190Y-66192857D01*
X220202380Y-66311904D02*
X220559523Y-66430952D01*
X220559523Y-66121428D01*
X227369047Y-60976190D02*
X227369047Y-61380952D01*
X227392857Y-61428571D01*
X227416666Y-61452380D01*
X227464285Y-61476190D01*
X227559523Y-61476190D01*
X227607142Y-61452380D01*
X227630952Y-61428571D01*
X227654761Y-61380952D01*
X227654761Y-60976190D01*
X227845238Y-60976190D02*
X228154761Y-60976190D01*
X227988095Y-61166666D01*
X228059523Y-61166666D01*
X228107142Y-61190476D01*
X228130952Y-61214285D01*
X228154761Y-61261904D01*
X228154761Y-61380952D01*
X228130952Y-61428571D01*
X228107142Y-61452380D01*
X228059523Y-61476190D01*
X227916666Y-61476190D01*
X227869047Y-61452380D01*
X227845238Y-61428571D01*
X224778571Y-71376190D02*
X224611904Y-71138095D01*
X224492857Y-71376190D02*
X224492857Y-70876190D01*
X224683333Y-70876190D01*
X224730952Y-70900000D01*
X224754761Y-70923809D01*
X224778571Y-70971428D01*
X224778571Y-71042857D01*
X224754761Y-71090476D01*
X224730952Y-71114285D01*
X224683333Y-71138095D01*
X224492857Y-71138095D01*
X225254761Y-71376190D02*
X224969047Y-71376190D01*
X225111904Y-71376190D02*
X225111904Y-70876190D01*
X225064285Y-70947619D01*
X225016666Y-70995238D01*
X224969047Y-71019047D01*
X225540476Y-71090476D02*
X225492857Y-71066666D01*
X225469047Y-71042857D01*
X225445238Y-70995238D01*
X225445238Y-70971428D01*
X225469047Y-70923809D01*
X225492857Y-70900000D01*
X225540476Y-70876190D01*
X225635714Y-70876190D01*
X225683333Y-70900000D01*
X225707142Y-70923809D01*
X225730952Y-70971428D01*
X225730952Y-70995238D01*
X225707142Y-71042857D01*
X225683333Y-71066666D01*
X225635714Y-71090476D01*
X225540476Y-71090476D01*
X225492857Y-71114285D01*
X225469047Y-71138095D01*
X225445238Y-71185714D01*
X225445238Y-71280952D01*
X225469047Y-71328571D01*
X225492857Y-71352380D01*
X225540476Y-71376190D01*
X225635714Y-71376190D01*
X225683333Y-71352380D01*
X225707142Y-71328571D01*
X225730952Y-71280952D01*
X225730952Y-71185714D01*
X225707142Y-71138095D01*
X225683333Y-71114285D01*
X225635714Y-71090476D01*
X220576190Y-73171428D02*
X220338095Y-73338095D01*
X220576190Y-73457142D02*
X220076190Y-73457142D01*
X220076190Y-73266666D01*
X220100000Y-73219047D01*
X220123809Y-73195238D01*
X220171428Y-73171428D01*
X220242857Y-73171428D01*
X220290476Y-73195238D01*
X220314285Y-73219047D01*
X220338095Y-73266666D01*
X220338095Y-73457142D01*
X220576190Y-72695238D02*
X220576190Y-72980952D01*
X220576190Y-72838095D02*
X220076190Y-72838095D01*
X220147619Y-72885714D01*
X220195238Y-72933333D01*
X220219047Y-72980952D01*
X220076190Y-72528571D02*
X220076190Y-72195238D01*
X220576190Y-72409523D01*
X220576190Y-71671428D02*
X220338095Y-71838095D01*
X220576190Y-71957142D02*
X220076190Y-71957142D01*
X220076190Y-71766666D01*
X220100000Y-71719047D01*
X220123809Y-71695238D01*
X220171428Y-71671428D01*
X220242857Y-71671428D01*
X220290476Y-71695238D01*
X220314285Y-71719047D01*
X220338095Y-71766666D01*
X220338095Y-71957142D01*
X220576190Y-71195238D02*
X220576190Y-71480952D01*
X220576190Y-71338095D02*
X220076190Y-71338095D01*
X220147619Y-71385714D01*
X220195238Y-71433333D01*
X220219047Y-71480952D01*
X220076190Y-70766666D02*
X220076190Y-70861904D01*
X220100000Y-70909523D01*
X220123809Y-70933333D01*
X220195238Y-70980952D01*
X220290476Y-71004761D01*
X220480952Y-71004761D01*
X220528571Y-70980952D01*
X220552380Y-70957142D01*
X220576190Y-70909523D01*
X220576190Y-70814285D01*
X220552380Y-70766666D01*
X220528571Y-70742857D01*
X220480952Y-70719047D01*
X220361904Y-70719047D01*
X220314285Y-70742857D01*
X220290476Y-70766666D01*
X220266666Y-70814285D01*
X220266666Y-70909523D01*
X220290476Y-70957142D01*
X220314285Y-70980952D01*
X220361904Y-71004761D01*
X225528571Y-68876190D02*
X225361904Y-68638095D01*
X225242857Y-68876190D02*
X225242857Y-68376190D01*
X225433333Y-68376190D01*
X225480952Y-68400000D01*
X225504761Y-68423809D01*
X225528571Y-68471428D01*
X225528571Y-68542857D01*
X225504761Y-68590476D01*
X225480952Y-68614285D01*
X225433333Y-68638095D01*
X225242857Y-68638095D01*
X226004761Y-68876190D02*
X225719047Y-68876190D01*
X225861904Y-68876190D02*
X225861904Y-68376190D01*
X225814285Y-68447619D01*
X225766666Y-68495238D01*
X225719047Y-68519047D01*
X226457142Y-68376190D02*
X226219047Y-68376190D01*
X226195238Y-68614285D01*
X226219047Y-68590476D01*
X226266666Y-68566666D01*
X226385714Y-68566666D01*
X226433333Y-68590476D01*
X226457142Y-68614285D01*
X226480952Y-68661904D01*
X226480952Y-68780952D01*
X226457142Y-68828571D01*
X226433333Y-68852380D01*
X226385714Y-68876190D01*
X226266666Y-68876190D01*
X226219047Y-68852380D01*
X226195238Y-68828571D01*
X225578571Y-62326190D02*
X225411904Y-62088095D01*
X225292857Y-62326190D02*
X225292857Y-61826190D01*
X225483333Y-61826190D01*
X225530952Y-61850000D01*
X225554761Y-61873809D01*
X225578571Y-61921428D01*
X225578571Y-61992857D01*
X225554761Y-62040476D01*
X225530952Y-62064285D01*
X225483333Y-62088095D01*
X225292857Y-62088095D01*
X226054761Y-62326190D02*
X225769047Y-62326190D01*
X225911904Y-62326190D02*
X225911904Y-61826190D01*
X225864285Y-61897619D01*
X225816666Y-61945238D01*
X225769047Y-61969047D01*
X226483333Y-61992857D02*
X226483333Y-62326190D01*
X226364285Y-61802380D02*
X226245238Y-62159523D01*
X226554761Y-62159523D01*
X232876190Y-61771428D02*
X232638095Y-61938095D01*
X232876190Y-62057142D02*
X232376190Y-62057142D01*
X232376190Y-61866666D01*
X232400000Y-61819047D01*
X232423809Y-61795238D01*
X232471428Y-61771428D01*
X232542857Y-61771428D01*
X232590476Y-61795238D01*
X232614285Y-61819047D01*
X232638095Y-61866666D01*
X232638095Y-62057142D01*
X232876190Y-61295238D02*
X232876190Y-61580952D01*
X232876190Y-61438095D02*
X232376190Y-61438095D01*
X232447619Y-61485714D01*
X232495238Y-61533333D01*
X232519047Y-61580952D01*
X232376190Y-61128571D02*
X232376190Y-60819047D01*
X232566666Y-60985714D01*
X232566666Y-60914285D01*
X232590476Y-60866666D01*
X232614285Y-60842857D01*
X232661904Y-60819047D01*
X232780952Y-60819047D01*
X232828571Y-60842857D01*
X232852380Y-60866666D01*
X232876190Y-60914285D01*
X232876190Y-61057142D01*
X232852380Y-61104761D01*
X232828571Y-61128571D01*
X216080952Y-75726190D02*
X216080952Y-75226190D01*
X216200000Y-75226190D01*
X216271428Y-75250000D01*
X216319047Y-75297619D01*
X216342857Y-75345238D01*
X216366666Y-75440476D01*
X216366666Y-75511904D01*
X216342857Y-75607142D01*
X216319047Y-75654761D01*
X216271428Y-75702380D01*
X216200000Y-75726190D01*
X216080952Y-75726190D01*
X216795238Y-75392857D02*
X216795238Y-75726190D01*
X216676190Y-75202380D02*
X216557142Y-75559523D01*
X216866666Y-75559523D01*
X215030952Y-70976190D02*
X215030952Y-70476190D01*
X215150000Y-70476190D01*
X215221428Y-70500000D01*
X215269047Y-70547619D01*
X215292857Y-70595238D01*
X215316666Y-70690476D01*
X215316666Y-70761904D01*
X215292857Y-70857142D01*
X215269047Y-70904761D01*
X215221428Y-70952380D01*
X215150000Y-70976190D01*
X215030952Y-70976190D01*
X215483333Y-70476190D02*
X215792857Y-70476190D01*
X215626190Y-70666666D01*
X215697619Y-70666666D01*
X215745238Y-70690476D01*
X215769047Y-70714285D01*
X215792857Y-70761904D01*
X215792857Y-70880952D01*
X215769047Y-70928571D01*
X215745238Y-70952380D01*
X215697619Y-70976190D01*
X215554761Y-70976190D01*
X215507142Y-70952380D01*
X215483333Y-70928571D01*
X224826190Y-62919047D02*
X224326190Y-62919047D01*
X224326190Y-62800000D01*
X224350000Y-62728571D01*
X224397619Y-62680952D01*
X224445238Y-62657142D01*
X224540476Y-62633333D01*
X224611904Y-62633333D01*
X224707142Y-62657142D01*
X224754761Y-62680952D01*
X224802380Y-62728571D01*
X224826190Y-62800000D01*
X224826190Y-62919047D01*
X224373809Y-62442857D02*
X224350000Y-62419047D01*
X224326190Y-62371428D01*
X224326190Y-62252380D01*
X224350000Y-62204761D01*
X224373809Y-62180952D01*
X224421428Y-62157142D01*
X224469047Y-62157142D01*
X224540476Y-62180952D01*
X224826190Y-62466666D01*
X224826190Y-62157142D01*
X227078571Y-73991071D02*
X227054761Y-74014880D01*
X226983333Y-74038690D01*
X226935714Y-74038690D01*
X226864285Y-74014880D01*
X226816666Y-73967261D01*
X226792857Y-73919642D01*
X226769047Y-73824404D01*
X226769047Y-73752976D01*
X226792857Y-73657738D01*
X226816666Y-73610119D01*
X226864285Y-73562500D01*
X226935714Y-73538690D01*
X226983333Y-73538690D01*
X227054761Y-73562500D01*
X227078571Y-73586309D01*
X227554761Y-74038690D02*
X227269047Y-74038690D01*
X227411904Y-74038690D02*
X227411904Y-73538690D01*
X227364285Y-73610119D01*
X227316666Y-73657738D01*
X227269047Y-73681547D01*
X227983333Y-73705357D02*
X227983333Y-74038690D01*
X227864285Y-73514880D02*
X227745238Y-73872023D01*
X228054761Y-73872023D01*
X228528571Y-71678571D02*
X228504761Y-71702380D01*
X228433333Y-71726190D01*
X228385714Y-71726190D01*
X228314285Y-71702380D01*
X228266666Y-71654761D01*
X228242857Y-71607142D01*
X228219047Y-71511904D01*
X228219047Y-71440476D01*
X228242857Y-71345238D01*
X228266666Y-71297619D01*
X228314285Y-71250000D01*
X228385714Y-71226190D01*
X228433333Y-71226190D01*
X228504761Y-71250000D01*
X228528571Y-71273809D01*
X229004761Y-71726190D02*
X228719047Y-71726190D01*
X228861904Y-71726190D02*
X228861904Y-71226190D01*
X228814285Y-71297619D01*
X228766666Y-71345238D01*
X228719047Y-71369047D01*
X229195238Y-71273809D02*
X229219047Y-71250000D01*
X229266666Y-71226190D01*
X229385714Y-71226190D01*
X229433333Y-71250000D01*
X229457142Y-71273809D01*
X229480952Y-71321428D01*
X229480952Y-71369047D01*
X229457142Y-71440476D01*
X229171428Y-71726190D01*
X229480952Y-71726190D01*
X226416666Y-71328571D02*
X226392857Y-71352380D01*
X226321428Y-71376190D01*
X226273809Y-71376190D01*
X226202380Y-71352380D01*
X226154761Y-71304761D01*
X226130952Y-71257142D01*
X226107142Y-71161904D01*
X226107142Y-71090476D01*
X226130952Y-70995238D01*
X226154761Y-70947619D01*
X226202380Y-70900000D01*
X226273809Y-70876190D01*
X226321428Y-70876190D01*
X226392857Y-70900000D01*
X226416666Y-70923809D01*
X226702380Y-71090476D02*
X226654761Y-71066666D01*
X226630952Y-71042857D01*
X226607142Y-70995238D01*
X226607142Y-70971428D01*
X226630952Y-70923809D01*
X226654761Y-70900000D01*
X226702380Y-70876190D01*
X226797619Y-70876190D01*
X226845238Y-70900000D01*
X226869047Y-70923809D01*
X226892857Y-70971428D01*
X226892857Y-70995238D01*
X226869047Y-71042857D01*
X226845238Y-71066666D01*
X226797619Y-71090476D01*
X226702380Y-71090476D01*
X226654761Y-71114285D01*
X226630952Y-71138095D01*
X226607142Y-71185714D01*
X226607142Y-71280952D01*
X226630952Y-71328571D01*
X226654761Y-71352380D01*
X226702380Y-71376190D01*
X226797619Y-71376190D01*
X226845238Y-71352380D01*
X226869047Y-71328571D01*
X226892857Y-71280952D01*
X226892857Y-71185714D01*
X226869047Y-71138095D01*
X226845238Y-71114285D01*
X226797619Y-71090476D01*
X227116666Y-68828571D02*
X227092857Y-68852380D01*
X227021428Y-68876190D01*
X226973809Y-68876190D01*
X226902380Y-68852380D01*
X226854761Y-68804761D01*
X226830952Y-68757142D01*
X226807142Y-68661904D01*
X226807142Y-68590476D01*
X226830952Y-68495238D01*
X226854761Y-68447619D01*
X226902380Y-68400000D01*
X226973809Y-68376190D01*
X227021428Y-68376190D01*
X227092857Y-68400000D01*
X227116666Y-68423809D01*
X227283333Y-68376190D02*
X227616666Y-68376190D01*
X227402380Y-68876190D01*
X229105190Y-54922952D02*
X229509952Y-54922952D01*
X229557571Y-54899142D01*
X229581380Y-54875333D01*
X229605190Y-54827714D01*
X229605190Y-54732476D01*
X229581380Y-54684857D01*
X229557571Y-54661047D01*
X229509952Y-54637238D01*
X229105190Y-54637238D01*
X229319476Y-54327714D02*
X229295666Y-54375333D01*
X229271857Y-54399142D01*
X229224238Y-54422952D01*
X229200428Y-54422952D01*
X229152809Y-54399142D01*
X229129000Y-54375333D01*
X229105190Y-54327714D01*
X229105190Y-54232476D01*
X229129000Y-54184857D01*
X229152809Y-54161047D01*
X229200428Y-54137238D01*
X229224238Y-54137238D01*
X229271857Y-54161047D01*
X229295666Y-54184857D01*
X229319476Y-54232476D01*
X229319476Y-54327714D01*
X229343285Y-54375333D01*
X229367095Y-54399142D01*
X229414714Y-54422952D01*
X229509952Y-54422952D01*
X229557571Y-54399142D01*
X229581380Y-54375333D01*
X229605190Y-54327714D01*
X229605190Y-54232476D01*
X229581380Y-54184857D01*
X229557571Y-54161047D01*
X229509952Y-54137238D01*
X229414714Y-54137238D01*
X229367095Y-54161047D01*
X229343285Y-54184857D01*
X229319476Y-54232476D01*
X216776190Y-57280952D02*
X217180952Y-57280952D01*
X217228571Y-57257142D01*
X217252380Y-57233333D01*
X217276190Y-57185714D01*
X217276190Y-57090476D01*
X217252380Y-57042857D01*
X217228571Y-57019047D01*
X217180952Y-56995238D01*
X216776190Y-56995238D01*
X217276190Y-56733333D02*
X217276190Y-56638095D01*
X217252380Y-56590476D01*
X217228571Y-56566666D01*
X217157142Y-56519047D01*
X217061904Y-56495238D01*
X216871428Y-56495238D01*
X216823809Y-56519047D01*
X216800000Y-56542857D01*
X216776190Y-56590476D01*
X216776190Y-56685714D01*
X216800000Y-56733333D01*
X216823809Y-56757142D01*
X216871428Y-56780952D01*
X216990476Y-56780952D01*
X217038095Y-56757142D01*
X217061904Y-56733333D01*
X217085714Y-56685714D01*
X217085714Y-56590476D01*
X217061904Y-56542857D01*
X217038095Y-56519047D01*
X216990476Y-56495238D01*
X223676190Y-53430952D02*
X224080952Y-53430952D01*
X224128571Y-53407142D01*
X224152380Y-53383333D01*
X224176190Y-53335714D01*
X224176190Y-53240476D01*
X224152380Y-53192857D01*
X224128571Y-53169047D01*
X224080952Y-53145238D01*
X223676190Y-53145238D01*
X223676190Y-52954761D02*
X223676190Y-52621428D01*
X224176190Y-52835714D01*
D12*
X230878571Y-55578571D02*
X230854761Y-55602380D01*
X230783333Y-55626190D01*
X230735714Y-55626190D01*
X230664285Y-55602380D01*
X230616666Y-55554761D01*
X230592857Y-55507142D01*
X230569047Y-55411904D01*
X230569047Y-55340476D01*
X230592857Y-55245238D01*
X230616666Y-55197619D01*
X230664285Y-55150000D01*
X230735714Y-55126190D01*
X230783333Y-55126190D01*
X230854761Y-55150000D01*
X230878571Y-55173809D01*
X231354761Y-55626190D02*
X231069047Y-55626190D01*
X231211904Y-55626190D02*
X231211904Y-55126190D01*
X231164285Y-55197619D01*
X231116666Y-55245238D01*
X231069047Y-55269047D01*
X231521428Y-55126190D02*
X231830952Y-55126190D01*
X231664285Y-55316666D01*
X231735714Y-55316666D01*
X231783333Y-55340476D01*
X231807142Y-55364285D01*
X231830952Y-55411904D01*
X231830952Y-55530952D01*
X231807142Y-55578571D01*
X231783333Y-55602380D01*
X231735714Y-55626190D01*
X231592857Y-55626190D01*
X231545238Y-55602380D01*
X231521428Y-55578571D01*
X224478571Y-60921428D02*
X224502380Y-60945238D01*
X224526190Y-61016666D01*
X224526190Y-61064285D01*
X224502380Y-61135714D01*
X224454761Y-61183333D01*
X224407142Y-61207142D01*
X224311904Y-61230952D01*
X224240476Y-61230952D01*
X224145238Y-61207142D01*
X224097619Y-61183333D01*
X224050000Y-61135714D01*
X224026190Y-61064285D01*
X224026190Y-61016666D01*
X224050000Y-60945238D01*
X224073809Y-60921428D01*
X224526190Y-60445238D02*
X224526190Y-60730952D01*
X224526190Y-60588095D02*
X224026190Y-60588095D01*
X224097619Y-60635714D01*
X224145238Y-60683333D01*
X224169047Y-60730952D01*
X224526190Y-59969047D02*
X224526190Y-60254761D01*
X224526190Y-60111904D02*
X224026190Y-60111904D01*
X224097619Y-60159523D01*
X224145238Y-60207142D01*
X224169047Y-60254761D01*
D10*
X226154808Y-78233333D02*
X225916713Y-78400000D01*
X226154808Y-78519047D02*
X225654808Y-78519047D01*
X225654808Y-78328571D01*
X225678618Y-78280952D01*
X225702427Y-78257142D01*
X225750046Y-78233333D01*
X225821475Y-78233333D01*
X225869094Y-78257142D01*
X225892903Y-78280952D01*
X225916713Y-78328571D01*
X225916713Y-78519047D01*
X225654808Y-78066666D02*
X225654808Y-77757142D01*
X225845284Y-77923809D01*
X225845284Y-77852380D01*
X225869094Y-77804761D01*
X225892903Y-77780952D01*
X225940522Y-77757142D01*
X226059570Y-77757142D01*
X226107189Y-77780952D01*
X226130998Y-77804761D01*
X226154808Y-77852380D01*
X226154808Y-77995238D01*
X226130998Y-78042857D01*
X226107189Y-78066666D01*
X230078571Y-92026190D02*
X229911904Y-91788095D01*
X229792857Y-92026190D02*
X229792857Y-91526190D01*
X229983333Y-91526190D01*
X230030952Y-91550000D01*
X230054761Y-91573809D01*
X230078571Y-91621428D01*
X230078571Y-91692857D01*
X230054761Y-91740476D01*
X230030952Y-91764285D01*
X229983333Y-91788095D01*
X229792857Y-91788095D01*
X230269047Y-91573809D02*
X230292857Y-91550000D01*
X230340476Y-91526190D01*
X230459523Y-91526190D01*
X230507142Y-91550000D01*
X230530952Y-91573809D01*
X230554761Y-91621428D01*
X230554761Y-91669047D01*
X230530952Y-91740476D01*
X230245238Y-92026190D01*
X230554761Y-92026190D01*
X231030952Y-92026190D02*
X230745238Y-92026190D01*
X230888095Y-92026190D02*
X230888095Y-91526190D01*
X230840476Y-91597619D01*
X230792857Y-91645238D01*
X230745238Y-91669047D01*
X230576190Y-60583333D02*
X230576190Y-60821428D01*
X230076190Y-60821428D01*
X230576190Y-60154761D02*
X230576190Y-60440476D01*
X230576190Y-60297619D02*
X230076190Y-60297619D01*
X230147619Y-60345238D01*
X230195238Y-60392857D01*
X230219047Y-60440476D01*
X230928571Y-56426190D02*
X230761904Y-56188095D01*
X230642857Y-56426190D02*
X230642857Y-55926190D01*
X230833333Y-55926190D01*
X230880952Y-55950000D01*
X230904761Y-55973809D01*
X230928571Y-56021428D01*
X230928571Y-56092857D01*
X230904761Y-56140476D01*
X230880952Y-56164285D01*
X230833333Y-56188095D01*
X230642857Y-56188095D01*
X231095238Y-55926190D02*
X231404761Y-55926190D01*
X231238095Y-56116666D01*
X231309523Y-56116666D01*
X231357142Y-56140476D01*
X231380952Y-56164285D01*
X231404761Y-56211904D01*
X231404761Y-56330952D01*
X231380952Y-56378571D01*
X231357142Y-56402380D01*
X231309523Y-56426190D01*
X231166666Y-56426190D01*
X231119047Y-56402380D01*
X231095238Y-56378571D01*
X231714285Y-55926190D02*
X231761904Y-55926190D01*
X231809523Y-55950000D01*
X231833333Y-55973809D01*
X231857142Y-56021428D01*
X231880952Y-56116666D01*
X231880952Y-56235714D01*
X231857142Y-56330952D01*
X231833333Y-56378571D01*
X231809523Y-56402380D01*
X231761904Y-56426190D01*
X231714285Y-56426190D01*
X231666666Y-56402380D01*
X231642857Y-56378571D01*
X231619047Y-56330952D01*
X231595238Y-56235714D01*
X231595238Y-56116666D01*
X231619047Y-56021428D01*
X231642857Y-55973809D01*
X231666666Y-55950000D01*
X231714285Y-55926190D01*
X218628571Y-79776190D02*
X218461904Y-79538095D01*
X218342857Y-79776190D02*
X218342857Y-79276190D01*
X218533333Y-79276190D01*
X218580952Y-79300000D01*
X218604761Y-79323809D01*
X218628571Y-79371428D01*
X218628571Y-79442857D01*
X218604761Y-79490476D01*
X218580952Y-79514285D01*
X218533333Y-79538095D01*
X218342857Y-79538095D01*
X218795238Y-79276190D02*
X219104761Y-79276190D01*
X218938095Y-79466666D01*
X219009523Y-79466666D01*
X219057142Y-79490476D01*
X219080952Y-79514285D01*
X219104761Y-79561904D01*
X219104761Y-79680952D01*
X219080952Y-79728571D01*
X219057142Y-79752380D01*
X219009523Y-79776190D01*
X218866666Y-79776190D01*
X218819047Y-79752380D01*
X218795238Y-79728571D01*
X219295238Y-79323809D02*
X219319047Y-79300000D01*
X219366666Y-79276190D01*
X219485714Y-79276190D01*
X219533333Y-79300000D01*
X219557142Y-79323809D01*
X219580952Y-79371428D01*
X219580952Y-79419047D01*
X219557142Y-79490476D01*
X219271428Y-79776190D01*
X219580952Y-79776190D01*
X215892857Y-77683190D02*
X215892857Y-77183190D01*
X216011904Y-77183190D01*
X216083333Y-77207000D01*
X216130952Y-77254619D01*
X216154761Y-77302238D01*
X216178571Y-77397476D01*
X216178571Y-77468904D01*
X216154761Y-77564142D01*
X216130952Y-77611761D01*
X216083333Y-77659380D01*
X216011904Y-77683190D01*
X215892857Y-77683190D01*
X216654761Y-77683190D02*
X216369047Y-77683190D01*
X216511904Y-77683190D02*
X216511904Y-77183190D01*
X216464285Y-77254619D01*
X216416666Y-77302238D01*
X216369047Y-77326047D01*
X216964285Y-77183190D02*
X217011904Y-77183190D01*
X217059523Y-77207000D01*
X217083333Y-77230809D01*
X217107142Y-77278428D01*
X217130952Y-77373666D01*
X217130952Y-77492714D01*
X217107142Y-77587952D01*
X217083333Y-77635571D01*
X217059523Y-77659380D01*
X217011904Y-77683190D01*
X216964285Y-77683190D01*
X216916666Y-77659380D01*
X216892857Y-77635571D01*
X216869047Y-77587952D01*
X216845238Y-77492714D01*
X216845238Y-77373666D01*
X216869047Y-77278428D01*
X216892857Y-77230809D01*
X216916666Y-77207000D01*
X216964285Y-77183190D01*
X214645238Y-59626190D02*
X214645238Y-59983333D01*
X214621428Y-60054761D01*
X214573809Y-60102380D01*
X214502380Y-60126190D01*
X214454761Y-60126190D01*
X215145238Y-60126190D02*
X214859523Y-60126190D01*
X215002380Y-60126190D02*
X215002380Y-59626190D01*
X214954761Y-59697619D01*
X214907142Y-59745238D01*
X214859523Y-59769047D01*
X215335714Y-59673809D02*
X215359523Y-59650000D01*
X215407142Y-59626190D01*
X215526190Y-59626190D01*
X215573809Y-59650000D01*
X215597619Y-59673809D01*
X215621428Y-59721428D01*
X215621428Y-59769047D01*
X215597619Y-59840476D01*
X215311904Y-60126190D01*
X215621428Y-60126190D01*
X232997180Y-59228666D02*
X233020990Y-59157238D01*
X233020990Y-59038190D01*
X232997180Y-58990571D01*
X232973371Y-58966761D01*
X232925752Y-58942952D01*
X232878133Y-58942952D01*
X232830514Y-58966761D01*
X232806704Y-58990571D01*
X232782895Y-59038190D01*
X232759085Y-59133428D01*
X232735276Y-59181047D01*
X232711466Y-59204857D01*
X232663847Y-59228666D01*
X232616228Y-59228666D01*
X232568609Y-59204857D01*
X232544800Y-59181047D01*
X232520990Y-59133428D01*
X232520990Y-59014380D01*
X232544800Y-58942952D01*
X232520990Y-58776285D02*
X233020990Y-58657238D01*
X232663847Y-58562000D01*
X233020990Y-58466761D01*
X232520990Y-58347714D01*
X232568609Y-58181047D02*
X232544800Y-58157238D01*
X232520990Y-58109619D01*
X232520990Y-57990571D01*
X232544800Y-57942952D01*
X232568609Y-57919142D01*
X232616228Y-57895333D01*
X232663847Y-57895333D01*
X232735276Y-57919142D01*
X233020990Y-58204857D01*
X233020990Y-57895333D01*
X221328571Y-61126190D02*
X221161904Y-60888095D01*
X221042857Y-61126190D02*
X221042857Y-60626190D01*
X221233333Y-60626190D01*
X221280952Y-60650000D01*
X221304761Y-60673809D01*
X221328571Y-60721428D01*
X221328571Y-60792857D01*
X221304761Y-60840476D01*
X221280952Y-60864285D01*
X221233333Y-60888095D01*
X221042857Y-60888095D01*
X221495238Y-60626190D02*
X221804761Y-60626190D01*
X221638095Y-60816666D01*
X221709523Y-60816666D01*
X221757142Y-60840476D01*
X221780952Y-60864285D01*
X221804761Y-60911904D01*
X221804761Y-61030952D01*
X221780952Y-61078571D01*
X221757142Y-61102380D01*
X221709523Y-61126190D01*
X221566666Y-61126190D01*
X221519047Y-61102380D01*
X221495238Y-61078571D01*
X222280952Y-61126190D02*
X221995238Y-61126190D01*
X222138095Y-61126190D02*
X222138095Y-60626190D01*
X222090476Y-60697619D01*
X222042857Y-60745238D01*
X221995238Y-60769047D01*
X218778571Y-61026190D02*
X218611904Y-60788095D01*
X218492857Y-61026190D02*
X218492857Y-60526190D01*
X218683333Y-60526190D01*
X218730952Y-60550000D01*
X218754761Y-60573809D01*
X218778571Y-60621428D01*
X218778571Y-60692857D01*
X218754761Y-60740476D01*
X218730952Y-60764285D01*
X218683333Y-60788095D01*
X218492857Y-60788095D01*
X218969047Y-60573809D02*
X218992857Y-60550000D01*
X219040476Y-60526190D01*
X219159523Y-60526190D01*
X219207142Y-60550000D01*
X219230952Y-60573809D01*
X219254761Y-60621428D01*
X219254761Y-60669047D01*
X219230952Y-60740476D01*
X218945238Y-61026190D01*
X219254761Y-61026190D01*
X219492857Y-61026190D02*
X219588095Y-61026190D01*
X219635714Y-61002380D01*
X219659523Y-60978571D01*
X219707142Y-60907142D01*
X219730952Y-60811904D01*
X219730952Y-60621428D01*
X219707142Y-60573809D01*
X219683333Y-60550000D01*
X219635714Y-60526190D01*
X219540476Y-60526190D01*
X219492857Y-60550000D01*
X219469047Y-60573809D01*
X219445238Y-60621428D01*
X219445238Y-60740476D01*
X219469047Y-60788095D01*
X219492857Y-60811904D01*
X219540476Y-60835714D01*
X219635714Y-60835714D01*
X219683333Y-60811904D01*
X219707142Y-60788095D01*
X219730952Y-60740476D01*
X225326190Y-51221428D02*
X225088095Y-51388095D01*
X225326190Y-51507142D02*
X224826190Y-51507142D01*
X224826190Y-51316666D01*
X224850000Y-51269047D01*
X224873809Y-51245238D01*
X224921428Y-51221428D01*
X224992857Y-51221428D01*
X225040476Y-51245238D01*
X225064285Y-51269047D01*
X225088095Y-51316666D01*
X225088095Y-51507142D01*
X224873809Y-51030952D02*
X224850000Y-51007142D01*
X224826190Y-50959523D01*
X224826190Y-50840476D01*
X224850000Y-50792857D01*
X224873809Y-50769047D01*
X224921428Y-50745238D01*
X224969047Y-50745238D01*
X225040476Y-50769047D01*
X225326190Y-51054761D01*
X225326190Y-50745238D01*
X224826190Y-50316666D02*
X224826190Y-50411904D01*
X224850000Y-50459523D01*
X224873809Y-50483333D01*
X224945238Y-50530952D01*
X225040476Y-50554761D01*
X225230952Y-50554761D01*
X225278571Y-50530952D01*
X225302380Y-50507142D01*
X225326190Y-50459523D01*
X225326190Y-50364285D01*
X225302380Y-50316666D01*
X225278571Y-50292857D01*
X225230952Y-50269047D01*
X225111904Y-50269047D01*
X225064285Y-50292857D01*
X225040476Y-50316666D01*
X225016666Y-50364285D01*
X225016666Y-50459523D01*
X225040476Y-50507142D01*
X225064285Y-50530952D01*
X225111904Y-50554761D01*
X217128571Y-93326190D02*
X216961904Y-93088095D01*
X216842857Y-93326190D02*
X216842857Y-92826190D01*
X217033333Y-92826190D01*
X217080952Y-92850000D01*
X217104761Y-92873809D01*
X217128571Y-92921428D01*
X217128571Y-92992857D01*
X217104761Y-93040476D01*
X217080952Y-93064285D01*
X217033333Y-93088095D01*
X216842857Y-93088095D01*
X217319047Y-92873809D02*
X217342857Y-92850000D01*
X217390476Y-92826190D01*
X217509523Y-92826190D01*
X217557142Y-92850000D01*
X217580952Y-92873809D01*
X217604761Y-92921428D01*
X217604761Y-92969047D01*
X217580952Y-93040476D01*
X217295238Y-93326190D01*
X217604761Y-93326190D01*
X218057142Y-92826190D02*
X217819047Y-92826190D01*
X217795238Y-93064285D01*
X217819047Y-93040476D01*
X217866666Y-93016666D01*
X217985714Y-93016666D01*
X218033333Y-93040476D01*
X218057142Y-93064285D01*
X218080952Y-93111904D01*
X218080952Y-93230952D01*
X218057142Y-93278571D01*
X218033333Y-93302380D01*
X217985714Y-93326190D01*
X217866666Y-93326190D01*
X217819047Y-93302380D01*
X217795238Y-93278571D01*
X217078571Y-90726190D02*
X216911904Y-90488095D01*
X216792857Y-90726190D02*
X216792857Y-90226190D01*
X216983333Y-90226190D01*
X217030952Y-90250000D01*
X217054761Y-90273809D01*
X217078571Y-90321428D01*
X217078571Y-90392857D01*
X217054761Y-90440476D01*
X217030952Y-90464285D01*
X216983333Y-90488095D01*
X216792857Y-90488095D01*
X217269047Y-90273809D02*
X217292857Y-90250000D01*
X217340476Y-90226190D01*
X217459523Y-90226190D01*
X217507142Y-90250000D01*
X217530952Y-90273809D01*
X217554761Y-90321428D01*
X217554761Y-90369047D01*
X217530952Y-90440476D01*
X217245238Y-90726190D01*
X217554761Y-90726190D01*
X217983333Y-90392857D02*
X217983333Y-90726190D01*
X217864285Y-90202380D02*
X217745238Y-90559523D01*
X218054761Y-90559523D01*
X217043571Y-88226190D02*
X216876904Y-87988095D01*
X216757857Y-88226190D02*
X216757857Y-87726190D01*
X216948333Y-87726190D01*
X216995952Y-87750000D01*
X217019761Y-87773809D01*
X217043571Y-87821428D01*
X217043571Y-87892857D01*
X217019761Y-87940476D01*
X216995952Y-87964285D01*
X216948333Y-87988095D01*
X216757857Y-87988095D01*
X217234047Y-87773809D02*
X217257857Y-87750000D01*
X217305476Y-87726190D01*
X217424523Y-87726190D01*
X217472142Y-87750000D01*
X217495952Y-87773809D01*
X217519761Y-87821428D01*
X217519761Y-87869047D01*
X217495952Y-87940476D01*
X217210238Y-88226190D01*
X217519761Y-88226190D01*
X217686428Y-87726190D02*
X217995952Y-87726190D01*
X217829285Y-87916666D01*
X217900714Y-87916666D01*
X217948333Y-87940476D01*
X217972142Y-87964285D01*
X217995952Y-88011904D01*
X217995952Y-88130952D01*
X217972142Y-88178571D01*
X217948333Y-88202380D01*
X217900714Y-88226190D01*
X217757857Y-88226190D01*
X217710238Y-88202380D01*
X217686428Y-88178571D01*
X230178571Y-89476190D02*
X230011904Y-89238095D01*
X229892857Y-89476190D02*
X229892857Y-88976190D01*
X230083333Y-88976190D01*
X230130952Y-89000000D01*
X230154761Y-89023809D01*
X230178571Y-89071428D01*
X230178571Y-89142857D01*
X230154761Y-89190476D01*
X230130952Y-89214285D01*
X230083333Y-89238095D01*
X229892857Y-89238095D01*
X230369047Y-89023809D02*
X230392857Y-89000000D01*
X230440476Y-88976190D01*
X230559523Y-88976190D01*
X230607142Y-89000000D01*
X230630952Y-89023809D01*
X230654761Y-89071428D01*
X230654761Y-89119047D01*
X230630952Y-89190476D01*
X230345238Y-89476190D01*
X230654761Y-89476190D01*
X230845238Y-89023809D02*
X230869047Y-89000000D01*
X230916666Y-88976190D01*
X231035714Y-88976190D01*
X231083333Y-89000000D01*
X231107142Y-89023809D01*
X231130952Y-89071428D01*
X231130952Y-89119047D01*
X231107142Y-89190476D01*
X230821428Y-89476190D01*
X231130952Y-89476190D01*
X230093571Y-94526190D02*
X229926904Y-94288095D01*
X229807857Y-94526190D02*
X229807857Y-94026190D01*
X229998333Y-94026190D01*
X230045952Y-94050000D01*
X230069761Y-94073809D01*
X230093571Y-94121428D01*
X230093571Y-94192857D01*
X230069761Y-94240476D01*
X230045952Y-94264285D01*
X229998333Y-94288095D01*
X229807857Y-94288095D01*
X230284047Y-94073809D02*
X230307857Y-94050000D01*
X230355476Y-94026190D01*
X230474523Y-94026190D01*
X230522142Y-94050000D01*
X230545952Y-94073809D01*
X230569761Y-94121428D01*
X230569761Y-94169047D01*
X230545952Y-94240476D01*
X230260238Y-94526190D01*
X230569761Y-94526190D01*
X230879285Y-94026190D02*
X230926904Y-94026190D01*
X230974523Y-94050000D01*
X230998333Y-94073809D01*
X231022142Y-94121428D01*
X231045952Y-94216666D01*
X231045952Y-94335714D01*
X231022142Y-94430952D01*
X230998333Y-94478571D01*
X230974523Y-94502380D01*
X230926904Y-94526190D01*
X230879285Y-94526190D01*
X230831666Y-94502380D01*
X230807857Y-94478571D01*
X230784047Y-94430952D01*
X230760238Y-94335714D01*
X230760238Y-94216666D01*
X230784047Y-94121428D01*
X230807857Y-94073809D01*
X230831666Y-94050000D01*
X230879285Y-94026190D01*
X231776190Y-84871428D02*
X231538095Y-85038095D01*
X231776190Y-85157142D02*
X231276190Y-85157142D01*
X231276190Y-84966666D01*
X231300000Y-84919047D01*
X231323809Y-84895238D01*
X231371428Y-84871428D01*
X231442857Y-84871428D01*
X231490476Y-84895238D01*
X231514285Y-84919047D01*
X231538095Y-84966666D01*
X231538095Y-85157142D01*
X231776190Y-84395238D02*
X231776190Y-84680952D01*
X231776190Y-84538095D02*
X231276190Y-84538095D01*
X231347619Y-84585714D01*
X231395238Y-84633333D01*
X231419047Y-84680952D01*
X231323809Y-84204761D02*
X231300000Y-84180952D01*
X231276190Y-84133333D01*
X231276190Y-84014285D01*
X231300000Y-83966666D01*
X231323809Y-83942857D01*
X231371428Y-83919047D01*
X231419047Y-83919047D01*
X231490476Y-83942857D01*
X231776190Y-84228571D01*
X231776190Y-83919047D01*
X232651190Y-69406428D02*
X232413095Y-69573095D01*
X232651190Y-69692142D02*
X232151190Y-69692142D01*
X232151190Y-69501666D01*
X232175000Y-69454047D01*
X232198809Y-69430238D01*
X232246428Y-69406428D01*
X232317857Y-69406428D01*
X232365476Y-69430238D01*
X232389285Y-69454047D01*
X232413095Y-69501666D01*
X232413095Y-69692142D01*
X232651190Y-68930238D02*
X232651190Y-69215952D01*
X232651190Y-69073095D02*
X232151190Y-69073095D01*
X232222619Y-69120714D01*
X232270238Y-69168333D01*
X232294047Y-69215952D01*
X232651190Y-68454047D02*
X232651190Y-68739761D01*
X232651190Y-68596904D02*
X232151190Y-68596904D01*
X232222619Y-68644523D01*
X232270238Y-68692142D01*
X232294047Y-68739761D01*
X227332666Y-65990190D02*
X227166000Y-65752095D01*
X227046952Y-65990190D02*
X227046952Y-65490190D01*
X227237428Y-65490190D01*
X227285047Y-65514000D01*
X227308857Y-65537809D01*
X227332666Y-65585428D01*
X227332666Y-65656857D01*
X227308857Y-65704476D01*
X227285047Y-65728285D01*
X227237428Y-65752095D01*
X227046952Y-65752095D01*
X227570761Y-65990190D02*
X227666000Y-65990190D01*
X227713619Y-65966380D01*
X227737428Y-65942571D01*
X227785047Y-65871142D01*
X227808857Y-65775904D01*
X227808857Y-65585428D01*
X227785047Y-65537809D01*
X227761238Y-65514000D01*
X227713619Y-65490190D01*
X227618380Y-65490190D01*
X227570761Y-65514000D01*
X227546952Y-65537809D01*
X227523142Y-65585428D01*
X227523142Y-65704476D01*
X227546952Y-65752095D01*
X227570761Y-65775904D01*
X227618380Y-65799714D01*
X227713619Y-65799714D01*
X227761238Y-65775904D01*
X227785047Y-65752095D01*
X227808857Y-65704476D01*
X229376190Y-68133333D02*
X229138095Y-68300000D01*
X229376190Y-68419047D02*
X228876190Y-68419047D01*
X228876190Y-68228571D01*
X228900000Y-68180952D01*
X228923809Y-68157142D01*
X228971428Y-68133333D01*
X229042857Y-68133333D01*
X229090476Y-68157142D01*
X229114285Y-68180952D01*
X229138095Y-68228571D01*
X229138095Y-68419047D01*
X229090476Y-67847619D02*
X229066666Y-67895238D01*
X229042857Y-67919047D01*
X228995238Y-67942857D01*
X228971428Y-67942857D01*
X228923809Y-67919047D01*
X228900000Y-67895238D01*
X228876190Y-67847619D01*
X228876190Y-67752380D01*
X228900000Y-67704761D01*
X228923809Y-67680952D01*
X228971428Y-67657142D01*
X228995238Y-67657142D01*
X229042857Y-67680952D01*
X229066666Y-67704761D01*
X229090476Y-67752380D01*
X229090476Y-67847619D01*
X229114285Y-67895238D01*
X229138095Y-67919047D01*
X229185714Y-67942857D01*
X229280952Y-67942857D01*
X229328571Y-67919047D01*
X229352380Y-67895238D01*
X229376190Y-67847619D01*
X229376190Y-67752380D01*
X229352380Y-67704761D01*
X229328571Y-67680952D01*
X229280952Y-67657142D01*
X229185714Y-67657142D01*
X229138095Y-67680952D01*
X229114285Y-67704761D01*
X229090476Y-67752380D01*
X230151666Y-90762190D02*
X229985000Y-90524095D01*
X229865952Y-90762190D02*
X229865952Y-90262190D01*
X230056428Y-90262190D01*
X230104047Y-90286000D01*
X230127857Y-90309809D01*
X230151666Y-90357428D01*
X230151666Y-90428857D01*
X230127857Y-90476476D01*
X230104047Y-90500285D01*
X230056428Y-90524095D01*
X229865952Y-90524095D01*
X230318333Y-90262190D02*
X230651666Y-90262190D01*
X230437380Y-90762190D01*
X217566666Y-89426190D02*
X217400000Y-89188095D01*
X217280952Y-89426190D02*
X217280952Y-88926190D01*
X217471428Y-88926190D01*
X217519047Y-88950000D01*
X217542857Y-88973809D01*
X217566666Y-89021428D01*
X217566666Y-89092857D01*
X217542857Y-89140476D01*
X217519047Y-89164285D01*
X217471428Y-89188095D01*
X217280952Y-89188095D01*
X217995238Y-88926190D02*
X217900000Y-88926190D01*
X217852380Y-88950000D01*
X217828571Y-88973809D01*
X217780952Y-89045238D01*
X217757142Y-89140476D01*
X217757142Y-89330952D01*
X217780952Y-89378571D01*
X217804761Y-89402380D01*
X217852380Y-89426190D01*
X217947619Y-89426190D01*
X217995238Y-89402380D01*
X218019047Y-89378571D01*
X218042857Y-89330952D01*
X218042857Y-89211904D01*
X218019047Y-89164285D01*
X217995238Y-89140476D01*
X217947619Y-89116666D01*
X217852380Y-89116666D01*
X217804761Y-89140476D01*
X217780952Y-89164285D01*
X217757142Y-89211904D01*
X230116666Y-95726190D02*
X229950000Y-95488095D01*
X229830952Y-95726190D02*
X229830952Y-95226190D01*
X230021428Y-95226190D01*
X230069047Y-95250000D01*
X230092857Y-95273809D01*
X230116666Y-95321428D01*
X230116666Y-95392857D01*
X230092857Y-95440476D01*
X230069047Y-95464285D01*
X230021428Y-95488095D01*
X229830952Y-95488095D01*
X230569047Y-95226190D02*
X230330952Y-95226190D01*
X230307142Y-95464285D01*
X230330952Y-95440476D01*
X230378571Y-95416666D01*
X230497619Y-95416666D01*
X230545238Y-95440476D01*
X230569047Y-95464285D01*
X230592857Y-95511904D01*
X230592857Y-95630952D01*
X230569047Y-95678571D01*
X230545238Y-95702380D01*
X230497619Y-95726190D01*
X230378571Y-95726190D01*
X230330952Y-95702380D01*
X230307142Y-95678571D01*
X230116666Y-93342190D02*
X229950000Y-93104095D01*
X229830952Y-93342190D02*
X229830952Y-92842190D01*
X230021428Y-92842190D01*
X230069047Y-92866000D01*
X230092857Y-92889809D01*
X230116666Y-92937428D01*
X230116666Y-93008857D01*
X230092857Y-93056476D01*
X230069047Y-93080285D01*
X230021428Y-93104095D01*
X229830952Y-93104095D01*
X230545238Y-93008857D02*
X230545238Y-93342190D01*
X230426190Y-92818380D02*
X230307142Y-93175523D01*
X230616666Y-93175523D01*
X217601666Y-91976190D02*
X217435000Y-91738095D01*
X217315952Y-91976190D02*
X217315952Y-91476190D01*
X217506428Y-91476190D01*
X217554047Y-91500000D01*
X217577857Y-91523809D01*
X217601666Y-91571428D01*
X217601666Y-91642857D01*
X217577857Y-91690476D01*
X217554047Y-91714285D01*
X217506428Y-91738095D01*
X217315952Y-91738095D01*
X217792142Y-91523809D02*
X217815952Y-91500000D01*
X217863571Y-91476190D01*
X217982619Y-91476190D01*
X218030238Y-91500000D01*
X218054047Y-91523809D01*
X218077857Y-91571428D01*
X218077857Y-91619047D01*
X218054047Y-91690476D01*
X217768333Y-91976190D01*
X218077857Y-91976190D01*
X217616666Y-94576190D02*
X217450000Y-94338095D01*
X217330952Y-94576190D02*
X217330952Y-94076190D01*
X217521428Y-94076190D01*
X217569047Y-94100000D01*
X217592857Y-94123809D01*
X217616666Y-94171428D01*
X217616666Y-94242857D01*
X217592857Y-94290476D01*
X217569047Y-94314285D01*
X217521428Y-94338095D01*
X217330952Y-94338095D01*
X218092857Y-94576190D02*
X217807142Y-94576190D01*
X217950000Y-94576190D02*
X217950000Y-94076190D01*
X217902380Y-94147619D01*
X217854761Y-94195238D01*
X217807142Y-94219047D01*
X228262333Y-77655190D02*
X228262333Y-78012333D01*
X228238523Y-78083761D01*
X228190904Y-78131380D01*
X228119476Y-78155190D01*
X228071857Y-78155190D01*
X228762333Y-78155190D02*
X228476619Y-78155190D01*
X228619476Y-78155190D02*
X228619476Y-77655190D01*
X228571857Y-77726619D01*
X228524238Y-77774238D01*
X228476619Y-77798047D01*
X214326190Y-62869047D02*
X213826190Y-62869047D01*
X213826190Y-62750000D01*
X213850000Y-62678571D01*
X213897619Y-62630952D01*
X213945238Y-62607142D01*
X214040476Y-62583333D01*
X214111904Y-62583333D01*
X214207142Y-62607142D01*
X214254761Y-62630952D01*
X214302380Y-62678571D01*
X214326190Y-62750000D01*
X214326190Y-62869047D01*
X214326190Y-62107142D02*
X214326190Y-62392857D01*
X214326190Y-62250000D02*
X213826190Y-62250000D01*
X213897619Y-62297619D01*
X213945238Y-62345238D01*
X213969047Y-62392857D01*
X221866666Y-71178571D02*
X221842857Y-71202380D01*
X221771428Y-71226190D01*
X221723809Y-71226190D01*
X221652380Y-71202380D01*
X221604761Y-71154761D01*
X221580952Y-71107142D01*
X221557142Y-71011904D01*
X221557142Y-70940476D01*
X221580952Y-70845238D01*
X221604761Y-70797619D01*
X221652380Y-70750000D01*
X221723809Y-70726190D01*
X221771428Y-70726190D01*
X221842857Y-70750000D01*
X221866666Y-70773809D01*
X222104761Y-71226190D02*
X222200000Y-71226190D01*
X222247619Y-71202380D01*
X222271428Y-71178571D01*
X222319047Y-71107142D01*
X222342857Y-71011904D01*
X222342857Y-70821428D01*
X222319047Y-70773809D01*
X222295238Y-70750000D01*
X222247619Y-70726190D01*
X222152380Y-70726190D01*
X222104761Y-70750000D01*
X222080952Y-70773809D01*
X222057142Y-70821428D01*
X222057142Y-70940476D01*
X222080952Y-70988095D01*
X222104761Y-71011904D01*
X222152380Y-71035714D01*
X222247619Y-71035714D01*
X222295238Y-71011904D01*
X222319047Y-70988095D01*
X222342857Y-70940476D01*
X228750571Y-58783333D02*
X228774380Y-58807142D01*
X228798190Y-58878571D01*
X228798190Y-58926190D01*
X228774380Y-58997619D01*
X228726761Y-59045238D01*
X228679142Y-59069047D01*
X228583904Y-59092857D01*
X228512476Y-59092857D01*
X228417238Y-59069047D01*
X228369619Y-59045238D01*
X228322000Y-58997619D01*
X228298190Y-58926190D01*
X228298190Y-58878571D01*
X228322000Y-58807142D01*
X228345809Y-58783333D01*
X228298190Y-58354761D02*
X228298190Y-58450000D01*
X228322000Y-58497619D01*
X228345809Y-58521428D01*
X228417238Y-58569047D01*
X228512476Y-58592857D01*
X228702952Y-58592857D01*
X228750571Y-58569047D01*
X228774380Y-58545238D01*
X228798190Y-58497619D01*
X228798190Y-58402380D01*
X228774380Y-58354761D01*
X228750571Y-58330952D01*
X228702952Y-58307142D01*
X228583904Y-58307142D01*
X228536285Y-58330952D01*
X228512476Y-58354761D01*
X228488666Y-58402380D01*
X228488666Y-58497619D01*
X228512476Y-58545238D01*
X228536285Y-58569047D01*
X228583904Y-58592857D01*
X230166666Y-88178571D02*
X230142857Y-88202380D01*
X230071428Y-88226190D01*
X230023809Y-88226190D01*
X229952380Y-88202380D01*
X229904761Y-88154761D01*
X229880952Y-88107142D01*
X229857142Y-88011904D01*
X229857142Y-87940476D01*
X229880952Y-87845238D01*
X229904761Y-87797619D01*
X229952380Y-87750000D01*
X230023809Y-87726190D01*
X230071428Y-87726190D01*
X230142857Y-87750000D01*
X230166666Y-87773809D01*
X230619047Y-87726190D02*
X230380952Y-87726190D01*
X230357142Y-87964285D01*
X230380952Y-87940476D01*
X230428571Y-87916666D01*
X230547619Y-87916666D01*
X230595238Y-87940476D01*
X230619047Y-87964285D01*
X230642857Y-88011904D01*
X230642857Y-88130952D01*
X230619047Y-88178571D01*
X230595238Y-88202380D01*
X230547619Y-88226190D01*
X230428571Y-88226190D01*
X230380952Y-88202380D01*
X230357142Y-88178571D01*
X225166666Y-86878571D02*
X225142857Y-86902380D01*
X225071428Y-86926190D01*
X225023809Y-86926190D01*
X224952380Y-86902380D01*
X224904761Y-86854761D01*
X224880952Y-86807142D01*
X224857142Y-86711904D01*
X224857142Y-86640476D01*
X224880952Y-86545238D01*
X224904761Y-86497619D01*
X224952380Y-86450000D01*
X225023809Y-86426190D01*
X225071428Y-86426190D01*
X225142857Y-86450000D01*
X225166666Y-86473809D01*
X225595238Y-86592857D02*
X225595238Y-86926190D01*
X225476190Y-86402380D02*
X225357142Y-86759523D01*
X225666666Y-86759523D01*
X223641666Y-77657071D02*
X223617857Y-77680880D01*
X223546428Y-77704690D01*
X223498809Y-77704690D01*
X223427380Y-77680880D01*
X223379761Y-77633261D01*
X223355952Y-77585642D01*
X223332142Y-77490404D01*
X223332142Y-77418976D01*
X223355952Y-77323738D01*
X223379761Y-77276119D01*
X223427380Y-77228500D01*
X223498809Y-77204690D01*
X223546428Y-77204690D01*
X223617857Y-77228500D01*
X223641666Y-77252309D01*
X223808333Y-77204690D02*
X224117857Y-77204690D01*
X223951190Y-77395166D01*
X224022619Y-77395166D01*
X224070238Y-77418976D01*
X224094047Y-77442785D01*
X224117857Y-77490404D01*
X224117857Y-77609452D01*
X224094047Y-77657071D01*
X224070238Y-77680880D01*
X224022619Y-77704690D01*
X223879761Y-77704690D01*
X223832142Y-77680880D01*
X223808333Y-77657071D01*
X231528571Y-69408333D02*
X231552380Y-69432142D01*
X231576190Y-69503571D01*
X231576190Y-69551190D01*
X231552380Y-69622619D01*
X231504761Y-69670238D01*
X231457142Y-69694047D01*
X231361904Y-69717857D01*
X231290476Y-69717857D01*
X231195238Y-69694047D01*
X231147619Y-69670238D01*
X231100000Y-69622619D01*
X231076190Y-69551190D01*
X231076190Y-69503571D01*
X231100000Y-69432142D01*
X231123809Y-69408333D01*
X231576190Y-68932142D02*
X231576190Y-69217857D01*
X231576190Y-69075000D02*
X231076190Y-69075000D01*
X231147619Y-69122619D01*
X231195238Y-69170238D01*
X231219047Y-69217857D01*
M02*
