M48
; DRILL file {KiCad (5.1.5)-3} date 06/15/20 12:52:57
; FORMAT={-:-/ absolute / inch / decimal}
; #@! TF.CreationDate,2020-06-15T12:52:57-05:00
; #@! TF.GenerationSoftware,Kicad,Pcbnew,(5.1.5)-3
; #@! TF.FileFunction,Plated,1,4,PTH
FMAT,2
INCH
T1C0.0157
T2C0.0300
T3C0.0315
T4C0.0394
T5C0.0433
%
G90
G05
T1
X4.124Y-3.7992
X4.124Y-4.1634
X4.1339Y-4.4488
X4.1339Y-4.4902
X4.1339Y-4.5315
X4.2028Y-4.4291
X4.2028Y-4.5472
X4.2185Y-4.1634
X4.3012Y-4.1634
X4.311Y-4.4488
X4.311Y-4.4902
X4.311Y-4.5315
X4.3799Y-4.4291
X4.3799Y-4.5472
X4.3957Y-4.1634
X4.4783Y-4.1634
X4.4882Y-4.4449
X4.4882Y-4.4882
X4.4882Y-4.5295
X4.5571Y-4.4291
X4.5571Y-4.5472
X4.5728Y-4.1634
X4.6457Y-3.9173
X4.6457Y-4.0157
X4.6555Y-4.5276
T2
X4.7244Y-4.9409
X4.7244Y-5.0409
X4.7244Y-5.1409
X4.7244Y-5.2409
X4.8244Y-4.9409
X4.8244Y-5.0409
X4.8244Y-5.1409
X4.8244Y-5.2409
T3
X4.0157Y-4.8575
X4.0157Y-5.1575
X4.1157Y-4.8575
X4.1157Y-5.1575
X4.2157Y-4.8575
X4.2157Y-5.1575
X4.3157Y-4.8575
X4.3157Y-5.1575
X4.4157Y-4.8575
X4.4157Y-5.1575
X4.5157Y-4.8575
X4.5157Y-5.1575
T4
X4.526Y-3.622
X4.626Y-3.622
X4.1307Y-4.7244
X4.2307Y-4.7244
X4.3307Y-4.7244
X4.4307Y-4.7244
X4.5307Y-4.7244
X4.6307Y-4.7244
X3.937Y-3.622
X3.937Y-3.722
X3.937Y-3.822
X3.937Y-3.922
X3.937Y-4.022
X3.937Y-4.122
X3.937Y-4.222
X3.937Y-4.322
X3.937Y-4.422
X3.937Y-4.522
X3.937Y-4.622
X3.937Y-4.722
X4.8228Y-3.6244
X4.8228Y-3.7244
X4.8228Y-3.8244
X4.8228Y-3.9244
X4.8228Y-4.0244
X4.8228Y-4.1244
X4.8228Y-4.2244
X4.8228Y-4.3244
X4.8228Y-4.4244
X4.8228Y-4.5244
X4.8228Y-4.6244
X4.8228Y-4.7244
T5
X3.9961Y-5.3937
X4.0961Y-5.3937
X4.1961Y-5.3937
X4.2961Y-5.3937
T0
M30
