G04 #@! TF.GenerationSoftware,KiCad,Pcbnew,(5.1.5)-3*
G04 #@! TF.CreationDate,2020-06-15T12:52:53-05:00*
G04 #@! TF.ProjectId,LightDriverShieldVer1,4c696768-7444-4726-9976-657253686965,rev?*
G04 #@! TF.SameCoordinates,Original*
G04 #@! TF.FileFunction,Copper,L2,Inr*
G04 #@! TF.FilePolarity,Positive*
%FSLAX46Y46*%
G04 Gerber Fmt 4.6, Leading zero omitted, Abs format (unit mm)*
G04 Created by KiCad (PCBNEW (5.1.5)-3) date 2020-06-15 12:52:53*
%MOMM*%
%LPD*%
G04 APERTURE LIST*
%ADD10O,1.700000X1.700000*%
%ADD11R,1.700000X1.700000*%
%ADD12C,1.524000*%
%ADD13R,1.524000X1.524000*%
%ADD14O,1.600000X1.600000*%
%ADD15R,1.600000X1.600000*%
%ADD16C,2.100000*%
%ADD17R,2.100000X2.100000*%
%ADD18C,0.800000*%
%ADD19C,0.500000*%
G04 APERTURE END LIST*
D10*
X117500000Y-92000000D03*
D11*
X114960000Y-92000000D03*
D12*
X122540000Y-133120000D03*
X120000000Y-133120000D03*
X122540000Y-130580000D03*
X120000000Y-130580000D03*
X122540000Y-128040000D03*
X120000000Y-128040000D03*
X122540000Y-125500000D03*
D13*
X120000000Y-125500000D03*
D14*
X102000000Y-123380000D03*
X114700000Y-131000000D03*
X104540000Y-123380000D03*
X112160000Y-131000000D03*
X107080000Y-123380000D03*
X109620000Y-131000000D03*
X109620000Y-123380000D03*
X107080000Y-131000000D03*
X112160000Y-123380000D03*
X104540000Y-131000000D03*
X114700000Y-123380000D03*
D15*
X102000000Y-131000000D03*
D16*
X109120000Y-137000000D03*
X106580000Y-137000000D03*
X104040000Y-137000000D03*
D17*
X101500000Y-137000000D03*
D10*
X117620000Y-120000000D03*
X115080000Y-120000000D03*
X112540000Y-120000000D03*
X110000000Y-120000000D03*
X107460000Y-120000000D03*
D11*
X104920000Y-120000000D03*
D10*
X122500000Y-120000000D03*
X122500000Y-117460000D03*
X122500000Y-114920000D03*
X122500000Y-112380000D03*
X122500000Y-109840000D03*
X122500000Y-107300000D03*
X122500000Y-104760000D03*
X122500000Y-102220000D03*
X122500000Y-99680000D03*
X122500000Y-97140000D03*
X122500000Y-94600000D03*
D11*
X122500000Y-92060000D03*
D10*
X100000000Y-119940000D03*
X100000000Y-117400000D03*
X100000000Y-114860000D03*
X100000000Y-112320000D03*
X100000000Y-109780000D03*
X100000000Y-107240000D03*
X100000000Y-104700000D03*
X100000000Y-102160000D03*
X100000000Y-99620000D03*
X100000000Y-97080000D03*
X100000000Y-94540000D03*
D11*
X100000000Y-92000000D03*
D18*
X105000000Y-115100000D03*
X105000000Y-113000000D03*
X109500000Y-113000000D03*
X109500000Y-115100000D03*
X114000000Y-115050000D03*
X114000000Y-112900000D03*
X105000000Y-114050000D03*
X109500000Y-114050000D03*
X111250000Y-112500000D03*
X111250000Y-115500000D03*
X106750000Y-112500000D03*
X106750000Y-115500000D03*
X115750000Y-115500000D03*
X115750000Y-112500000D03*
X111649990Y-105750000D03*
X116149990Y-105750000D03*
X107149990Y-105750000D03*
X104750000Y-96500000D03*
X118000000Y-99500000D03*
X118000002Y-102000000D03*
X109250000Y-105750000D03*
X113750000Y-105750000D03*
X104750000Y-105750000D03*
X118250000Y-115000000D03*
X114000000Y-114000000D03*
D19*
X119500000Y-99500000D02*
X118000000Y-99500000D01*
X120250000Y-100250000D02*
X119500000Y-99500000D01*
X120250000Y-122750000D02*
X120250000Y-100250000D01*
X118500000Y-124500000D02*
X120250000Y-122750000D01*
X120000000Y-133120000D02*
X118500000Y-131620000D01*
X118500000Y-131620000D02*
X118500000Y-124500000D01*
X121297919Y-97140000D02*
X122500000Y-97140000D01*
X120950010Y-97487909D02*
X121297919Y-97140000D01*
X120950010Y-122700010D02*
X120950010Y-97487909D01*
X121212001Y-122962001D02*
X120950010Y-122700010D01*
X122540000Y-130580000D02*
X121212001Y-129252001D01*
X121212001Y-129252001D02*
X121212001Y-122962001D01*
X109250000Y-105250000D02*
X109250000Y-105750000D01*
X109750000Y-104750000D02*
X109250000Y-105250000D01*
X114250000Y-104750000D02*
X109750000Y-104750000D01*
X100000000Y-119940000D02*
X100810000Y-119940000D01*
X103250000Y-117500000D02*
X114000000Y-117500000D01*
X114000000Y-117500000D02*
X114899999Y-116600001D01*
X114899999Y-116600001D02*
X114899999Y-105399999D01*
X100810000Y-119940000D02*
X103250000Y-117500000D01*
X114899999Y-105399999D02*
X114250000Y-104750000D01*
X102575010Y-116424990D02*
X112275010Y-116424990D01*
X100000000Y-117400000D02*
X101600000Y-117400000D01*
X112275010Y-116424990D02*
X112800000Y-115900000D01*
X101600000Y-117400000D02*
X102575010Y-116424990D01*
X112800000Y-115900000D02*
X112800000Y-106050000D01*
X113100000Y-105750000D02*
X113750000Y-105750000D01*
X112800000Y-106050000D02*
X113100000Y-105750000D01*
X104750000Y-100500000D02*
X104750000Y-105750000D01*
X100000000Y-99620000D02*
X103870000Y-99620000D01*
X103870000Y-99620000D02*
X104750000Y-100500000D01*
X119250000Y-116000000D02*
X118250000Y-115000000D01*
X122540000Y-133960000D02*
X121750000Y-134750000D01*
X121750000Y-134750000D02*
X118750000Y-134750000D01*
X122540000Y-133120000D02*
X122540000Y-133960000D01*
X118750000Y-134750000D02*
X117500000Y-133500000D01*
X117500000Y-133500000D02*
X117500000Y-124510038D01*
X119250000Y-122760038D02*
X119250000Y-116000000D01*
X117500000Y-124510038D02*
X119250000Y-122760038D01*
M02*
