G04 #@! TF.GenerationSoftware,KiCad,Pcbnew,(5.1.5)-3*
G04 #@! TF.CreationDate,2020-06-15T12:52:53-05:00*
G04 #@! TF.ProjectId,LightDriverShieldVer1,4c696768-7444-4726-9976-657253686965,rev?*
G04 #@! TF.SameCoordinates,Original*
G04 #@! TF.FileFunction,Copper,L3,Inr*
G04 #@! TF.FilePolarity,Positive*
%FSLAX46Y46*%
G04 Gerber Fmt 4.6, Leading zero omitted, Abs format (unit mm)*
G04 Created by KiCad (PCBNEW (5.1.5)-3) date 2020-06-15 12:52:53*
%MOMM*%
%LPD*%
G04 APERTURE LIST*
%ADD10O,1.700000X1.700000*%
%ADD11R,1.700000X1.700000*%
%ADD12C,1.524000*%
%ADD13R,1.524000X1.524000*%
%ADD14O,1.600000X1.600000*%
%ADD15R,1.600000X1.600000*%
%ADD16C,2.100000*%
%ADD17R,2.100000X2.100000*%
%ADD18C,0.800000*%
%ADD19C,0.500000*%
%ADD20C,0.254000*%
G04 APERTURE END LIST*
D10*
X117500000Y-92000000D03*
D11*
X114960000Y-92000000D03*
D12*
X122540000Y-133120000D03*
X120000000Y-133120000D03*
X122540000Y-130580000D03*
X120000000Y-130580000D03*
X122540000Y-128040000D03*
X120000000Y-128040000D03*
X122540000Y-125500000D03*
D13*
X120000000Y-125500000D03*
D14*
X102000000Y-123380000D03*
X114700000Y-131000000D03*
X104540000Y-123380000D03*
X112160000Y-131000000D03*
X107080000Y-123380000D03*
X109620000Y-131000000D03*
X109620000Y-123380000D03*
X107080000Y-131000000D03*
X112160000Y-123380000D03*
X104540000Y-131000000D03*
X114700000Y-123380000D03*
D15*
X102000000Y-131000000D03*
D16*
X109120000Y-137000000D03*
X106580000Y-137000000D03*
X104040000Y-137000000D03*
D17*
X101500000Y-137000000D03*
D10*
X117620000Y-120000000D03*
X115080000Y-120000000D03*
X112540000Y-120000000D03*
X110000000Y-120000000D03*
X107460000Y-120000000D03*
D11*
X104920000Y-120000000D03*
D10*
X122500000Y-120000000D03*
X122500000Y-117460000D03*
X122500000Y-114920000D03*
X122500000Y-112380000D03*
X122500000Y-109840000D03*
X122500000Y-107300000D03*
X122500000Y-104760000D03*
X122500000Y-102220000D03*
X122500000Y-99680000D03*
X122500000Y-97140000D03*
X122500000Y-94600000D03*
D11*
X122500000Y-92060000D03*
D10*
X100000000Y-119940000D03*
X100000000Y-117400000D03*
X100000000Y-114860000D03*
X100000000Y-112320000D03*
X100000000Y-109780000D03*
X100000000Y-107240000D03*
X100000000Y-104700000D03*
X100000000Y-102160000D03*
X100000000Y-99620000D03*
X100000000Y-97080000D03*
X100000000Y-94540000D03*
D11*
X100000000Y-92000000D03*
D18*
X105000000Y-115100000D03*
X105000000Y-113000000D03*
X109500000Y-113000000D03*
X109500000Y-115100000D03*
X114000000Y-115050000D03*
X114000000Y-112900000D03*
X105000000Y-114050000D03*
X109500000Y-114050000D03*
X111250000Y-112500000D03*
X111250000Y-115500000D03*
X106750000Y-112500000D03*
X106750000Y-115500000D03*
X115750000Y-115500000D03*
X115750000Y-112500000D03*
X111649990Y-105750000D03*
X116149990Y-105750000D03*
X107149990Y-105750000D03*
X104750000Y-96500000D03*
X118000000Y-99500000D03*
X118000002Y-102000000D03*
X109250000Y-105750000D03*
X113750000Y-105750000D03*
X104750000Y-105750000D03*
X118250000Y-115000000D03*
X114000000Y-114000000D03*
D19*
X118180000Y-99680000D02*
X118000000Y-99500000D01*
X122500000Y-99680000D02*
X118180000Y-99680000D01*
X118220002Y-102220000D02*
X118000002Y-102000000D01*
X122500000Y-102220000D02*
X118220002Y-102220000D01*
X118330000Y-114920000D02*
X118250000Y-115000000D01*
X122500000Y-114920000D02*
X118330000Y-114920000D01*
D20*
G36*
X113471928Y-92850000D02*
G01*
X113484188Y-92974482D01*
X113520498Y-93094180D01*
X113579463Y-93204494D01*
X113658815Y-93301185D01*
X113755506Y-93380537D01*
X113865820Y-93439502D01*
X113985518Y-93475812D01*
X114110000Y-93488072D01*
X115810000Y-93488072D01*
X115934482Y-93475812D01*
X116054180Y-93439502D01*
X116164494Y-93380537D01*
X116261185Y-93301185D01*
X116340537Y-93204494D01*
X116399502Y-93094180D01*
X116423966Y-93013534D01*
X116499731Y-93097588D01*
X116733080Y-93271641D01*
X116995901Y-93396825D01*
X117143110Y-93441476D01*
X117373000Y-93320155D01*
X117373000Y-92127000D01*
X117627000Y-92127000D01*
X117627000Y-93320155D01*
X117856890Y-93441476D01*
X118004099Y-93396825D01*
X118266920Y-93271641D01*
X118500269Y-93097588D01*
X118695178Y-92881355D01*
X118844157Y-92631252D01*
X118941481Y-92356891D01*
X118820814Y-92127000D01*
X117627000Y-92127000D01*
X117373000Y-92127000D01*
X117353000Y-92127000D01*
X117353000Y-91873000D01*
X117373000Y-91873000D01*
X117373000Y-91853000D01*
X117627000Y-91853000D01*
X117627000Y-91873000D01*
X118820814Y-91873000D01*
X118941481Y-91643109D01*
X118844157Y-91368748D01*
X118719812Y-91160000D01*
X121016852Y-91160000D01*
X121011928Y-91210000D01*
X121011928Y-92910000D01*
X121024188Y-93034482D01*
X121060498Y-93154180D01*
X121119463Y-93264494D01*
X121198815Y-93361185D01*
X121295506Y-93440537D01*
X121405820Y-93499502D01*
X121478380Y-93521513D01*
X121346525Y-93653368D01*
X121184010Y-93896589D01*
X121072068Y-94166842D01*
X121015000Y-94453740D01*
X121015000Y-94746260D01*
X121072068Y-95033158D01*
X121184010Y-95303411D01*
X121346525Y-95546632D01*
X121553368Y-95753475D01*
X121727760Y-95870000D01*
X121553368Y-95986525D01*
X121346525Y-96193368D01*
X121184010Y-96436589D01*
X121072068Y-96706842D01*
X121015000Y-96993740D01*
X121015000Y-97286260D01*
X121072068Y-97573158D01*
X121184010Y-97843411D01*
X121346525Y-98086632D01*
X121553368Y-98293475D01*
X121727760Y-98410000D01*
X121553368Y-98526525D01*
X121346525Y-98733368D01*
X121305344Y-98795000D01*
X118758711Y-98795000D01*
X118659774Y-98696063D01*
X118490256Y-98582795D01*
X118301898Y-98504774D01*
X118101939Y-98465000D01*
X117898061Y-98465000D01*
X117698102Y-98504774D01*
X117509744Y-98582795D01*
X117340226Y-98696063D01*
X117196063Y-98840226D01*
X117082795Y-99009744D01*
X117004774Y-99198102D01*
X116965000Y-99398061D01*
X116965000Y-99601939D01*
X117004774Y-99801898D01*
X117082795Y-99990256D01*
X117196063Y-100159774D01*
X117340226Y-100303937D01*
X117509744Y-100417205D01*
X117698102Y-100495226D01*
X117898061Y-100535000D01*
X117949827Y-100535000D01*
X118006510Y-100552195D01*
X118136523Y-100565000D01*
X118136533Y-100565000D01*
X118179999Y-100569281D01*
X118223465Y-100565000D01*
X121305344Y-100565000D01*
X121346525Y-100626632D01*
X121553368Y-100833475D01*
X121727760Y-100950000D01*
X121553368Y-101066525D01*
X121346525Y-101273368D01*
X121305344Y-101335000D01*
X118798713Y-101335000D01*
X118659776Y-101196063D01*
X118490258Y-101082795D01*
X118301900Y-101004774D01*
X118101941Y-100965000D01*
X117898063Y-100965000D01*
X117698104Y-101004774D01*
X117509746Y-101082795D01*
X117340228Y-101196063D01*
X117196065Y-101340226D01*
X117082797Y-101509744D01*
X117004776Y-101698102D01*
X116965002Y-101898061D01*
X116965002Y-102101939D01*
X117004776Y-102301898D01*
X117082797Y-102490256D01*
X117196065Y-102659774D01*
X117340228Y-102803937D01*
X117509746Y-102917205D01*
X117698104Y-102995226D01*
X117849165Y-103025274D01*
X117879689Y-103041589D01*
X118007684Y-103080416D01*
X118046511Y-103092195D01*
X118061308Y-103093652D01*
X118176525Y-103105000D01*
X118176533Y-103105000D01*
X118220002Y-103109281D01*
X118263471Y-103105000D01*
X121305344Y-103105000D01*
X121346525Y-103166632D01*
X121553368Y-103373475D01*
X121727760Y-103490000D01*
X121553368Y-103606525D01*
X121346525Y-103813368D01*
X121184010Y-104056589D01*
X121072068Y-104326842D01*
X121015000Y-104613740D01*
X121015000Y-104906260D01*
X121072068Y-105193158D01*
X121184010Y-105463411D01*
X121346525Y-105706632D01*
X121553368Y-105913475D01*
X121727760Y-106030000D01*
X121553368Y-106146525D01*
X121346525Y-106353368D01*
X121184010Y-106596589D01*
X121072068Y-106866842D01*
X121015000Y-107153740D01*
X121015000Y-107446260D01*
X121072068Y-107733158D01*
X121184010Y-108003411D01*
X121346525Y-108246632D01*
X121553368Y-108453475D01*
X121727760Y-108570000D01*
X121553368Y-108686525D01*
X121346525Y-108893368D01*
X121184010Y-109136589D01*
X121072068Y-109406842D01*
X121015000Y-109693740D01*
X121015000Y-109986260D01*
X121072068Y-110273158D01*
X121184010Y-110543411D01*
X121346525Y-110786632D01*
X121553368Y-110993475D01*
X121727760Y-111110000D01*
X121553368Y-111226525D01*
X121346525Y-111433368D01*
X121184010Y-111676589D01*
X121072068Y-111946842D01*
X121015000Y-112233740D01*
X121015000Y-112526260D01*
X121072068Y-112813158D01*
X121184010Y-113083411D01*
X121346525Y-113326632D01*
X121553368Y-113533475D01*
X121727760Y-113650000D01*
X121553368Y-113766525D01*
X121346525Y-113973368D01*
X121305344Y-114035000D01*
X118624869Y-114035000D01*
X118551898Y-114004774D01*
X118351939Y-113965000D01*
X118148061Y-113965000D01*
X117948102Y-114004774D01*
X117759744Y-114082795D01*
X117590226Y-114196063D01*
X117446063Y-114340226D01*
X117332795Y-114509744D01*
X117254774Y-114698102D01*
X117215000Y-114898061D01*
X117215000Y-115101939D01*
X117254774Y-115301898D01*
X117332795Y-115490256D01*
X117446063Y-115659774D01*
X117590226Y-115803937D01*
X117759744Y-115917205D01*
X117948102Y-115995226D01*
X118148061Y-116035000D01*
X118351939Y-116035000D01*
X118551898Y-115995226D01*
X118740256Y-115917205D01*
X118908183Y-115805000D01*
X121305344Y-115805000D01*
X121346525Y-115866632D01*
X121553368Y-116073475D01*
X121727760Y-116190000D01*
X121553368Y-116306525D01*
X121346525Y-116513368D01*
X121184010Y-116756589D01*
X121072068Y-117026842D01*
X121015000Y-117313740D01*
X121015000Y-117606260D01*
X121072068Y-117893158D01*
X121184010Y-118163411D01*
X121346525Y-118406632D01*
X121553368Y-118613475D01*
X121727760Y-118730000D01*
X121553368Y-118846525D01*
X121346525Y-119053368D01*
X121184010Y-119296589D01*
X121072068Y-119566842D01*
X121015000Y-119853740D01*
X121015000Y-120146260D01*
X121072068Y-120433158D01*
X121184010Y-120703411D01*
X121346525Y-120946632D01*
X121553368Y-121153475D01*
X121796589Y-121315990D01*
X122066842Y-121427932D01*
X122353740Y-121485000D01*
X122646260Y-121485000D01*
X122933158Y-121427932D01*
X123203411Y-121315990D01*
X123340001Y-121224724D01*
X123340001Y-124354387D01*
X123201727Y-124261995D01*
X122947490Y-124156686D01*
X122677592Y-124103000D01*
X122402408Y-124103000D01*
X122132510Y-124156686D01*
X121878273Y-124261995D01*
X121649465Y-124414880D01*
X121454880Y-124609465D01*
X121396080Y-124697465D01*
X121387812Y-124613518D01*
X121351502Y-124493820D01*
X121292537Y-124383506D01*
X121213185Y-124286815D01*
X121116494Y-124207463D01*
X121006180Y-124148498D01*
X120886482Y-124112188D01*
X120762000Y-124099928D01*
X120285750Y-124103000D01*
X120127000Y-124261750D01*
X120127000Y-125373000D01*
X120147000Y-125373000D01*
X120147000Y-125627000D01*
X120127000Y-125627000D01*
X120127000Y-125647000D01*
X119873000Y-125647000D01*
X119873000Y-125627000D01*
X118761750Y-125627000D01*
X118603000Y-125785750D01*
X118599928Y-126262000D01*
X118612188Y-126386482D01*
X118648498Y-126506180D01*
X118707463Y-126616494D01*
X118786815Y-126713185D01*
X118883506Y-126792537D01*
X118993820Y-126851502D01*
X119113518Y-126887812D01*
X119197465Y-126896080D01*
X119109465Y-126954880D01*
X118914880Y-127149465D01*
X118761995Y-127378273D01*
X118656686Y-127632510D01*
X118603000Y-127902408D01*
X118603000Y-128177592D01*
X118656686Y-128447490D01*
X118761995Y-128701727D01*
X118914880Y-128930535D01*
X119109465Y-129125120D01*
X119338273Y-129278005D01*
X119415515Y-129310000D01*
X119338273Y-129341995D01*
X119109465Y-129494880D01*
X118914880Y-129689465D01*
X118761995Y-129918273D01*
X118656686Y-130172510D01*
X118603000Y-130442408D01*
X118603000Y-130717592D01*
X118656686Y-130987490D01*
X118761995Y-131241727D01*
X118914880Y-131470535D01*
X119109465Y-131665120D01*
X119338273Y-131818005D01*
X119415515Y-131850000D01*
X119338273Y-131881995D01*
X119109465Y-132034880D01*
X118914880Y-132229465D01*
X118761995Y-132458273D01*
X118656686Y-132712510D01*
X118603000Y-132982408D01*
X118603000Y-133257592D01*
X118656686Y-133527490D01*
X118761995Y-133781727D01*
X118914880Y-134010535D01*
X119109465Y-134205120D01*
X119338273Y-134358005D01*
X119592510Y-134463314D01*
X119862408Y-134517000D01*
X120137592Y-134517000D01*
X120407490Y-134463314D01*
X120661727Y-134358005D01*
X120890535Y-134205120D01*
X121085120Y-134010535D01*
X121238005Y-133781727D01*
X121270000Y-133704485D01*
X121301995Y-133781727D01*
X121454880Y-134010535D01*
X121649465Y-134205120D01*
X121878273Y-134358005D01*
X122132510Y-134463314D01*
X122402408Y-134517000D01*
X122677592Y-134517000D01*
X122947490Y-134463314D01*
X123201727Y-134358005D01*
X123340001Y-134265613D01*
X123340001Y-139340000D01*
X99160000Y-139340000D01*
X99160000Y-135950000D01*
X99811928Y-135950000D01*
X99811928Y-138050000D01*
X99824188Y-138174482D01*
X99860498Y-138294180D01*
X99919463Y-138404494D01*
X99998815Y-138501185D01*
X100095506Y-138580537D01*
X100205820Y-138639502D01*
X100325518Y-138675812D01*
X100450000Y-138688072D01*
X102550000Y-138688072D01*
X102674482Y-138675812D01*
X102794180Y-138639502D01*
X102904494Y-138580537D01*
X103001185Y-138501185D01*
X103080537Y-138404494D01*
X103088042Y-138390454D01*
X103241853Y-138493228D01*
X103548504Y-138620246D01*
X103874042Y-138685000D01*
X104205958Y-138685000D01*
X104531496Y-138620246D01*
X104838147Y-138493228D01*
X105114125Y-138308825D01*
X105310000Y-138112950D01*
X105505875Y-138308825D01*
X105781853Y-138493228D01*
X106088504Y-138620246D01*
X106414042Y-138685000D01*
X106745958Y-138685000D01*
X107071496Y-138620246D01*
X107378147Y-138493228D01*
X107654125Y-138308825D01*
X107850000Y-138112950D01*
X108045875Y-138308825D01*
X108321853Y-138493228D01*
X108628504Y-138620246D01*
X108954042Y-138685000D01*
X109285958Y-138685000D01*
X109611496Y-138620246D01*
X109918147Y-138493228D01*
X110194125Y-138308825D01*
X110428825Y-138074125D01*
X110613228Y-137798147D01*
X110740246Y-137491496D01*
X110805000Y-137165958D01*
X110805000Y-136834042D01*
X110740246Y-136508504D01*
X110613228Y-136201853D01*
X110428825Y-135925875D01*
X110194125Y-135691175D01*
X109918147Y-135506772D01*
X109611496Y-135379754D01*
X109285958Y-135315000D01*
X108954042Y-135315000D01*
X108628504Y-135379754D01*
X108321853Y-135506772D01*
X108045875Y-135691175D01*
X107850000Y-135887050D01*
X107654125Y-135691175D01*
X107378147Y-135506772D01*
X107071496Y-135379754D01*
X106745958Y-135315000D01*
X106414042Y-135315000D01*
X106088504Y-135379754D01*
X105781853Y-135506772D01*
X105505875Y-135691175D01*
X105310000Y-135887050D01*
X105114125Y-135691175D01*
X104838147Y-135506772D01*
X104531496Y-135379754D01*
X104205958Y-135315000D01*
X103874042Y-135315000D01*
X103548504Y-135379754D01*
X103241853Y-135506772D01*
X103088042Y-135609546D01*
X103080537Y-135595506D01*
X103001185Y-135498815D01*
X102904494Y-135419463D01*
X102794180Y-135360498D01*
X102674482Y-135324188D01*
X102550000Y-135311928D01*
X100450000Y-135311928D01*
X100325518Y-135324188D01*
X100205820Y-135360498D01*
X100095506Y-135419463D01*
X99998815Y-135498815D01*
X99919463Y-135595506D01*
X99860498Y-135705820D01*
X99824188Y-135825518D01*
X99811928Y-135950000D01*
X99160000Y-135950000D01*
X99160000Y-131800000D01*
X100561928Y-131800000D01*
X100574188Y-131924482D01*
X100610498Y-132044180D01*
X100669463Y-132154494D01*
X100748815Y-132251185D01*
X100845506Y-132330537D01*
X100955820Y-132389502D01*
X101075518Y-132425812D01*
X101200000Y-132438072D01*
X101714250Y-132435000D01*
X101873000Y-132276250D01*
X101873000Y-131127000D01*
X102127000Y-131127000D01*
X102127000Y-132276250D01*
X102285750Y-132435000D01*
X102800000Y-132438072D01*
X102924482Y-132425812D01*
X103044180Y-132389502D01*
X103154494Y-132330537D01*
X103251185Y-132251185D01*
X103330537Y-132154494D01*
X103389502Y-132044180D01*
X103425812Y-131924482D01*
X103428231Y-131899920D01*
X103576586Y-132063519D01*
X103802580Y-132231037D01*
X104056913Y-132351246D01*
X104190961Y-132391904D01*
X104413000Y-132269915D01*
X104413000Y-131127000D01*
X104667000Y-131127000D01*
X104667000Y-132269915D01*
X104889039Y-132391904D01*
X105023087Y-132351246D01*
X105277420Y-132231037D01*
X105503414Y-132063519D01*
X105692385Y-131855131D01*
X105810000Y-131659018D01*
X105927615Y-131855131D01*
X106116586Y-132063519D01*
X106342580Y-132231037D01*
X106596913Y-132351246D01*
X106730961Y-132391904D01*
X106953000Y-132269915D01*
X106953000Y-131127000D01*
X107207000Y-131127000D01*
X107207000Y-132269915D01*
X107429039Y-132391904D01*
X107563087Y-132351246D01*
X107817420Y-132231037D01*
X108043414Y-132063519D01*
X108232385Y-131855131D01*
X108350000Y-131659018D01*
X108467615Y-131855131D01*
X108656586Y-132063519D01*
X108882580Y-132231037D01*
X109136913Y-132351246D01*
X109270961Y-132391904D01*
X109493000Y-132269915D01*
X109493000Y-131127000D01*
X109747000Y-131127000D01*
X109747000Y-132269915D01*
X109969039Y-132391904D01*
X110103087Y-132351246D01*
X110357420Y-132231037D01*
X110583414Y-132063519D01*
X110772385Y-131855131D01*
X110890000Y-131659018D01*
X111007615Y-131855131D01*
X111196586Y-132063519D01*
X111422580Y-132231037D01*
X111676913Y-132351246D01*
X111810961Y-132391904D01*
X112033000Y-132269915D01*
X112033000Y-131127000D01*
X112287000Y-131127000D01*
X112287000Y-132269915D01*
X112509039Y-132391904D01*
X112643087Y-132351246D01*
X112897420Y-132231037D01*
X113123414Y-132063519D01*
X113312385Y-131855131D01*
X113430000Y-131659018D01*
X113547615Y-131855131D01*
X113736586Y-132063519D01*
X113962580Y-132231037D01*
X114216913Y-132351246D01*
X114350961Y-132391904D01*
X114573000Y-132269915D01*
X114573000Y-131127000D01*
X114827000Y-131127000D01*
X114827000Y-132269915D01*
X115049039Y-132391904D01*
X115183087Y-132351246D01*
X115437420Y-132231037D01*
X115663414Y-132063519D01*
X115852385Y-131855131D01*
X115997070Y-131613881D01*
X116091909Y-131349040D01*
X115970624Y-131127000D01*
X114827000Y-131127000D01*
X114573000Y-131127000D01*
X112287000Y-131127000D01*
X112033000Y-131127000D01*
X109747000Y-131127000D01*
X109493000Y-131127000D01*
X107207000Y-131127000D01*
X106953000Y-131127000D01*
X104667000Y-131127000D01*
X104413000Y-131127000D01*
X102127000Y-131127000D01*
X101873000Y-131127000D01*
X100723750Y-131127000D01*
X100565000Y-131285750D01*
X100561928Y-131800000D01*
X99160000Y-131800000D01*
X99160000Y-130200000D01*
X100561928Y-130200000D01*
X100565000Y-130714250D01*
X100723750Y-130873000D01*
X101873000Y-130873000D01*
X101873000Y-129723750D01*
X102127000Y-129723750D01*
X102127000Y-130873000D01*
X104413000Y-130873000D01*
X104413000Y-129730085D01*
X104667000Y-129730085D01*
X104667000Y-130873000D01*
X106953000Y-130873000D01*
X106953000Y-129730085D01*
X107207000Y-129730085D01*
X107207000Y-130873000D01*
X109493000Y-130873000D01*
X109493000Y-129730085D01*
X109747000Y-129730085D01*
X109747000Y-130873000D01*
X112033000Y-130873000D01*
X112033000Y-129730085D01*
X112287000Y-129730085D01*
X112287000Y-130873000D01*
X114573000Y-130873000D01*
X114573000Y-129730085D01*
X114827000Y-129730085D01*
X114827000Y-130873000D01*
X115970624Y-130873000D01*
X116091909Y-130650960D01*
X115997070Y-130386119D01*
X115852385Y-130144869D01*
X115663414Y-129936481D01*
X115437420Y-129768963D01*
X115183087Y-129648754D01*
X115049039Y-129608096D01*
X114827000Y-129730085D01*
X114573000Y-129730085D01*
X114350961Y-129608096D01*
X114216913Y-129648754D01*
X113962580Y-129768963D01*
X113736586Y-129936481D01*
X113547615Y-130144869D01*
X113430000Y-130340982D01*
X113312385Y-130144869D01*
X113123414Y-129936481D01*
X112897420Y-129768963D01*
X112643087Y-129648754D01*
X112509039Y-129608096D01*
X112287000Y-129730085D01*
X112033000Y-129730085D01*
X111810961Y-129608096D01*
X111676913Y-129648754D01*
X111422580Y-129768963D01*
X111196586Y-129936481D01*
X111007615Y-130144869D01*
X110890000Y-130340982D01*
X110772385Y-130144869D01*
X110583414Y-129936481D01*
X110357420Y-129768963D01*
X110103087Y-129648754D01*
X109969039Y-129608096D01*
X109747000Y-129730085D01*
X109493000Y-129730085D01*
X109270961Y-129608096D01*
X109136913Y-129648754D01*
X108882580Y-129768963D01*
X108656586Y-129936481D01*
X108467615Y-130144869D01*
X108350000Y-130340982D01*
X108232385Y-130144869D01*
X108043414Y-129936481D01*
X107817420Y-129768963D01*
X107563087Y-129648754D01*
X107429039Y-129608096D01*
X107207000Y-129730085D01*
X106953000Y-129730085D01*
X106730961Y-129608096D01*
X106596913Y-129648754D01*
X106342580Y-129768963D01*
X106116586Y-129936481D01*
X105927615Y-130144869D01*
X105810000Y-130340982D01*
X105692385Y-130144869D01*
X105503414Y-129936481D01*
X105277420Y-129768963D01*
X105023087Y-129648754D01*
X104889039Y-129608096D01*
X104667000Y-129730085D01*
X104413000Y-129730085D01*
X104190961Y-129608096D01*
X104056913Y-129648754D01*
X103802580Y-129768963D01*
X103576586Y-129936481D01*
X103428231Y-130100080D01*
X103425812Y-130075518D01*
X103389502Y-129955820D01*
X103330537Y-129845506D01*
X103251185Y-129748815D01*
X103154494Y-129669463D01*
X103044180Y-129610498D01*
X102924482Y-129574188D01*
X102800000Y-129561928D01*
X102285750Y-129565000D01*
X102127000Y-129723750D01*
X101873000Y-129723750D01*
X101714250Y-129565000D01*
X101200000Y-129561928D01*
X101075518Y-129574188D01*
X100955820Y-129610498D01*
X100845506Y-129669463D01*
X100748815Y-129748815D01*
X100669463Y-129845506D01*
X100610498Y-129955820D01*
X100574188Y-130075518D01*
X100561928Y-130200000D01*
X99160000Y-130200000D01*
X99160000Y-123238665D01*
X100565000Y-123238665D01*
X100565000Y-123521335D01*
X100620147Y-123798574D01*
X100728320Y-124059727D01*
X100885363Y-124294759D01*
X101085241Y-124494637D01*
X101320273Y-124651680D01*
X101581426Y-124759853D01*
X101858665Y-124815000D01*
X102141335Y-124815000D01*
X102418574Y-124759853D01*
X102679727Y-124651680D01*
X102914759Y-124494637D01*
X103114637Y-124294759D01*
X103270000Y-124062241D01*
X103425363Y-124294759D01*
X103625241Y-124494637D01*
X103860273Y-124651680D01*
X104121426Y-124759853D01*
X104398665Y-124815000D01*
X104681335Y-124815000D01*
X104958574Y-124759853D01*
X105219727Y-124651680D01*
X105454759Y-124494637D01*
X105654637Y-124294759D01*
X105810000Y-124062241D01*
X105965363Y-124294759D01*
X106165241Y-124494637D01*
X106400273Y-124651680D01*
X106661426Y-124759853D01*
X106938665Y-124815000D01*
X107221335Y-124815000D01*
X107498574Y-124759853D01*
X107759727Y-124651680D01*
X107994759Y-124494637D01*
X108194637Y-124294759D01*
X108350000Y-124062241D01*
X108505363Y-124294759D01*
X108705241Y-124494637D01*
X108940273Y-124651680D01*
X109201426Y-124759853D01*
X109478665Y-124815000D01*
X109761335Y-124815000D01*
X110038574Y-124759853D01*
X110299727Y-124651680D01*
X110534759Y-124494637D01*
X110734637Y-124294759D01*
X110890000Y-124062241D01*
X111045363Y-124294759D01*
X111245241Y-124494637D01*
X111480273Y-124651680D01*
X111741426Y-124759853D01*
X112018665Y-124815000D01*
X112301335Y-124815000D01*
X112578574Y-124759853D01*
X112839727Y-124651680D01*
X113074759Y-124494637D01*
X113274637Y-124294759D01*
X113430000Y-124062241D01*
X113585363Y-124294759D01*
X113785241Y-124494637D01*
X114020273Y-124651680D01*
X114281426Y-124759853D01*
X114558665Y-124815000D01*
X114841335Y-124815000D01*
X115118574Y-124759853D01*
X115171331Y-124738000D01*
X118599928Y-124738000D01*
X118603000Y-125214250D01*
X118761750Y-125373000D01*
X119873000Y-125373000D01*
X119873000Y-124261750D01*
X119714250Y-124103000D01*
X119238000Y-124099928D01*
X119113518Y-124112188D01*
X118993820Y-124148498D01*
X118883506Y-124207463D01*
X118786815Y-124286815D01*
X118707463Y-124383506D01*
X118648498Y-124493820D01*
X118612188Y-124613518D01*
X118599928Y-124738000D01*
X115171331Y-124738000D01*
X115379727Y-124651680D01*
X115614759Y-124494637D01*
X115814637Y-124294759D01*
X115971680Y-124059727D01*
X116079853Y-123798574D01*
X116135000Y-123521335D01*
X116135000Y-123238665D01*
X116079853Y-122961426D01*
X115971680Y-122700273D01*
X115814637Y-122465241D01*
X115614759Y-122265363D01*
X115379727Y-122108320D01*
X115118574Y-122000147D01*
X114841335Y-121945000D01*
X114558665Y-121945000D01*
X114281426Y-122000147D01*
X114020273Y-122108320D01*
X113785241Y-122265363D01*
X113585363Y-122465241D01*
X113430000Y-122697759D01*
X113274637Y-122465241D01*
X113074759Y-122265363D01*
X112839727Y-122108320D01*
X112578574Y-122000147D01*
X112301335Y-121945000D01*
X112018665Y-121945000D01*
X111741426Y-122000147D01*
X111480273Y-122108320D01*
X111245241Y-122265363D01*
X111045363Y-122465241D01*
X110890000Y-122697759D01*
X110734637Y-122465241D01*
X110534759Y-122265363D01*
X110299727Y-122108320D01*
X110038574Y-122000147D01*
X109761335Y-121945000D01*
X109478665Y-121945000D01*
X109201426Y-122000147D01*
X108940273Y-122108320D01*
X108705241Y-122265363D01*
X108505363Y-122465241D01*
X108350000Y-122697759D01*
X108194637Y-122465241D01*
X107994759Y-122265363D01*
X107759727Y-122108320D01*
X107498574Y-122000147D01*
X107221335Y-121945000D01*
X106938665Y-121945000D01*
X106661426Y-122000147D01*
X106400273Y-122108320D01*
X106165241Y-122265363D01*
X105965363Y-122465241D01*
X105810000Y-122697759D01*
X105654637Y-122465241D01*
X105454759Y-122265363D01*
X105219727Y-122108320D01*
X104958574Y-122000147D01*
X104681335Y-121945000D01*
X104398665Y-121945000D01*
X104121426Y-122000147D01*
X103860273Y-122108320D01*
X103625241Y-122265363D01*
X103425363Y-122465241D01*
X103270000Y-122697759D01*
X103114637Y-122465241D01*
X102914759Y-122265363D01*
X102679727Y-122108320D01*
X102418574Y-122000147D01*
X102141335Y-121945000D01*
X101858665Y-121945000D01*
X101581426Y-122000147D01*
X101320273Y-122108320D01*
X101085241Y-122265363D01*
X100885363Y-122465241D01*
X100728320Y-122700273D01*
X100620147Y-122961426D01*
X100565000Y-123238665D01*
X99160000Y-123238665D01*
X99160000Y-121164724D01*
X99296589Y-121255990D01*
X99566842Y-121367932D01*
X99853740Y-121425000D01*
X100146260Y-121425000D01*
X100433158Y-121367932D01*
X100703411Y-121255990D01*
X100946632Y-121093475D01*
X101153475Y-120886632D01*
X101315990Y-120643411D01*
X101427932Y-120373158D01*
X101485000Y-120086260D01*
X101485000Y-119793740D01*
X101427932Y-119506842D01*
X101315990Y-119236589D01*
X101258134Y-119150000D01*
X103431928Y-119150000D01*
X103431928Y-120850000D01*
X103444188Y-120974482D01*
X103480498Y-121094180D01*
X103539463Y-121204494D01*
X103618815Y-121301185D01*
X103715506Y-121380537D01*
X103825820Y-121439502D01*
X103945518Y-121475812D01*
X104070000Y-121488072D01*
X105770000Y-121488072D01*
X105894482Y-121475812D01*
X106014180Y-121439502D01*
X106124494Y-121380537D01*
X106221185Y-121301185D01*
X106300537Y-121204494D01*
X106359502Y-121094180D01*
X106381513Y-121021620D01*
X106513368Y-121153475D01*
X106756589Y-121315990D01*
X107026842Y-121427932D01*
X107313740Y-121485000D01*
X107606260Y-121485000D01*
X107893158Y-121427932D01*
X108163411Y-121315990D01*
X108406632Y-121153475D01*
X108613475Y-120946632D01*
X108730000Y-120772240D01*
X108846525Y-120946632D01*
X109053368Y-121153475D01*
X109296589Y-121315990D01*
X109566842Y-121427932D01*
X109853740Y-121485000D01*
X110146260Y-121485000D01*
X110433158Y-121427932D01*
X110703411Y-121315990D01*
X110946632Y-121153475D01*
X111153475Y-120946632D01*
X111270000Y-120772240D01*
X111386525Y-120946632D01*
X111593368Y-121153475D01*
X111836589Y-121315990D01*
X112106842Y-121427932D01*
X112393740Y-121485000D01*
X112686260Y-121485000D01*
X112973158Y-121427932D01*
X113243411Y-121315990D01*
X113486632Y-121153475D01*
X113693475Y-120946632D01*
X113810000Y-120772240D01*
X113926525Y-120946632D01*
X114133368Y-121153475D01*
X114376589Y-121315990D01*
X114646842Y-121427932D01*
X114933740Y-121485000D01*
X115226260Y-121485000D01*
X115513158Y-121427932D01*
X115783411Y-121315990D01*
X116026632Y-121153475D01*
X116233475Y-120946632D01*
X116350000Y-120772240D01*
X116466525Y-120946632D01*
X116673368Y-121153475D01*
X116916589Y-121315990D01*
X117186842Y-121427932D01*
X117473740Y-121485000D01*
X117766260Y-121485000D01*
X118053158Y-121427932D01*
X118323411Y-121315990D01*
X118566632Y-121153475D01*
X118773475Y-120946632D01*
X118935990Y-120703411D01*
X119047932Y-120433158D01*
X119105000Y-120146260D01*
X119105000Y-119853740D01*
X119047932Y-119566842D01*
X118935990Y-119296589D01*
X118773475Y-119053368D01*
X118566632Y-118846525D01*
X118323411Y-118684010D01*
X118053158Y-118572068D01*
X117766260Y-118515000D01*
X117473740Y-118515000D01*
X117186842Y-118572068D01*
X116916589Y-118684010D01*
X116673368Y-118846525D01*
X116466525Y-119053368D01*
X116350000Y-119227760D01*
X116233475Y-119053368D01*
X116026632Y-118846525D01*
X115783411Y-118684010D01*
X115513158Y-118572068D01*
X115226260Y-118515000D01*
X114933740Y-118515000D01*
X114646842Y-118572068D01*
X114376589Y-118684010D01*
X114133368Y-118846525D01*
X113926525Y-119053368D01*
X113810000Y-119227760D01*
X113693475Y-119053368D01*
X113486632Y-118846525D01*
X113243411Y-118684010D01*
X112973158Y-118572068D01*
X112686260Y-118515000D01*
X112393740Y-118515000D01*
X112106842Y-118572068D01*
X111836589Y-118684010D01*
X111593368Y-118846525D01*
X111386525Y-119053368D01*
X111270000Y-119227760D01*
X111153475Y-119053368D01*
X110946632Y-118846525D01*
X110703411Y-118684010D01*
X110433158Y-118572068D01*
X110146260Y-118515000D01*
X109853740Y-118515000D01*
X109566842Y-118572068D01*
X109296589Y-118684010D01*
X109053368Y-118846525D01*
X108846525Y-119053368D01*
X108730000Y-119227760D01*
X108613475Y-119053368D01*
X108406632Y-118846525D01*
X108163411Y-118684010D01*
X107893158Y-118572068D01*
X107606260Y-118515000D01*
X107313740Y-118515000D01*
X107026842Y-118572068D01*
X106756589Y-118684010D01*
X106513368Y-118846525D01*
X106381513Y-118978380D01*
X106359502Y-118905820D01*
X106300537Y-118795506D01*
X106221185Y-118698815D01*
X106124494Y-118619463D01*
X106014180Y-118560498D01*
X105894482Y-118524188D01*
X105770000Y-118511928D01*
X104070000Y-118511928D01*
X103945518Y-118524188D01*
X103825820Y-118560498D01*
X103715506Y-118619463D01*
X103618815Y-118698815D01*
X103539463Y-118795506D01*
X103480498Y-118905820D01*
X103444188Y-119025518D01*
X103431928Y-119150000D01*
X101258134Y-119150000D01*
X101153475Y-118993368D01*
X100946632Y-118786525D01*
X100772240Y-118670000D01*
X100946632Y-118553475D01*
X101153475Y-118346632D01*
X101315990Y-118103411D01*
X101427932Y-117833158D01*
X101485000Y-117546260D01*
X101485000Y-117253740D01*
X101427932Y-116966842D01*
X101315990Y-116696589D01*
X101153475Y-116453368D01*
X100946632Y-116246525D01*
X100772240Y-116130000D01*
X100946632Y-116013475D01*
X101153475Y-115806632D01*
X101315990Y-115563411D01*
X101427932Y-115293158D01*
X101485000Y-115006260D01*
X101485000Y-114713740D01*
X101427932Y-114426842D01*
X101315990Y-114156589D01*
X101153475Y-113913368D01*
X100946632Y-113706525D01*
X100772240Y-113590000D01*
X100946632Y-113473475D01*
X101153475Y-113266632D01*
X101315990Y-113023411D01*
X101367911Y-112898061D01*
X103965000Y-112898061D01*
X103965000Y-113101939D01*
X104004774Y-113301898D01*
X104082795Y-113490256D01*
X104106010Y-113525000D01*
X104082795Y-113559744D01*
X104004774Y-113748102D01*
X103965000Y-113948061D01*
X103965000Y-114151939D01*
X104004774Y-114351898D01*
X104082795Y-114540256D01*
X104106010Y-114575000D01*
X104082795Y-114609744D01*
X104004774Y-114798102D01*
X103965000Y-114998061D01*
X103965000Y-115201939D01*
X104004774Y-115401898D01*
X104082795Y-115590256D01*
X104196063Y-115759774D01*
X104340226Y-115903937D01*
X104509744Y-116017205D01*
X104698102Y-116095226D01*
X104898061Y-116135000D01*
X105101939Y-116135000D01*
X105301898Y-116095226D01*
X105490256Y-116017205D01*
X105659774Y-115903937D01*
X105803937Y-115759774D01*
X105917205Y-115590256D01*
X105995226Y-115401898D01*
X106035000Y-115201939D01*
X106035000Y-114998061D01*
X105995226Y-114798102D01*
X105917205Y-114609744D01*
X105893990Y-114575000D01*
X105917205Y-114540256D01*
X105995226Y-114351898D01*
X106035000Y-114151939D01*
X106035000Y-113948061D01*
X105995226Y-113748102D01*
X105917205Y-113559744D01*
X105893990Y-113525000D01*
X105917205Y-113490256D01*
X105995226Y-113301898D01*
X106035000Y-113101939D01*
X106035000Y-112898061D01*
X108465000Y-112898061D01*
X108465000Y-113101939D01*
X108504774Y-113301898D01*
X108582795Y-113490256D01*
X108606010Y-113525000D01*
X108582795Y-113559744D01*
X108504774Y-113748102D01*
X108465000Y-113948061D01*
X108465000Y-114151939D01*
X108504774Y-114351898D01*
X108582795Y-114540256D01*
X108606010Y-114575000D01*
X108582795Y-114609744D01*
X108504774Y-114798102D01*
X108465000Y-114998061D01*
X108465000Y-115201939D01*
X108504774Y-115401898D01*
X108582795Y-115590256D01*
X108696063Y-115759774D01*
X108840226Y-115903937D01*
X109009744Y-116017205D01*
X109198102Y-116095226D01*
X109398061Y-116135000D01*
X109601939Y-116135000D01*
X109801898Y-116095226D01*
X109990256Y-116017205D01*
X110159774Y-115903937D01*
X110303937Y-115759774D01*
X110417205Y-115590256D01*
X110495226Y-115401898D01*
X110535000Y-115201939D01*
X110535000Y-114998061D01*
X110495226Y-114798102D01*
X110417205Y-114609744D01*
X110393990Y-114575000D01*
X110417205Y-114540256D01*
X110495226Y-114351898D01*
X110535000Y-114151939D01*
X110535000Y-113948061D01*
X110495226Y-113748102D01*
X110417205Y-113559744D01*
X110393990Y-113525000D01*
X110417205Y-113490256D01*
X110495226Y-113301898D01*
X110535000Y-113101939D01*
X110535000Y-112898061D01*
X110515109Y-112798061D01*
X112965000Y-112798061D01*
X112965000Y-113001939D01*
X113004774Y-113201898D01*
X113082795Y-113390256D01*
X113122715Y-113450000D01*
X113082795Y-113509744D01*
X113004774Y-113698102D01*
X112965000Y-113898061D01*
X112965000Y-114101939D01*
X113004774Y-114301898D01*
X113082795Y-114490256D01*
X113106010Y-114525000D01*
X113082795Y-114559744D01*
X113004774Y-114748102D01*
X112965000Y-114948061D01*
X112965000Y-115151939D01*
X113004774Y-115351898D01*
X113082795Y-115540256D01*
X113196063Y-115709774D01*
X113340226Y-115853937D01*
X113509744Y-115967205D01*
X113698102Y-116045226D01*
X113898061Y-116085000D01*
X114101939Y-116085000D01*
X114301898Y-116045226D01*
X114490256Y-115967205D01*
X114659774Y-115853937D01*
X114803937Y-115709774D01*
X114917205Y-115540256D01*
X114995226Y-115351898D01*
X115035000Y-115151939D01*
X115035000Y-114948061D01*
X114995226Y-114748102D01*
X114917205Y-114559744D01*
X114893990Y-114525000D01*
X114917205Y-114490256D01*
X114995226Y-114301898D01*
X115035000Y-114101939D01*
X115035000Y-113898061D01*
X114995226Y-113698102D01*
X114917205Y-113509744D01*
X114877285Y-113450000D01*
X114917205Y-113390256D01*
X114995226Y-113201898D01*
X115035000Y-113001939D01*
X115035000Y-112798061D01*
X114995226Y-112598102D01*
X114917205Y-112409744D01*
X114803937Y-112240226D01*
X114659774Y-112096063D01*
X114490256Y-111982795D01*
X114301898Y-111904774D01*
X114101939Y-111865000D01*
X113898061Y-111865000D01*
X113698102Y-111904774D01*
X113509744Y-111982795D01*
X113340226Y-112096063D01*
X113196063Y-112240226D01*
X113082795Y-112409744D01*
X113004774Y-112598102D01*
X112965000Y-112798061D01*
X110515109Y-112798061D01*
X110495226Y-112698102D01*
X110417205Y-112509744D01*
X110303937Y-112340226D01*
X110159774Y-112196063D01*
X109990256Y-112082795D01*
X109801898Y-112004774D01*
X109601939Y-111965000D01*
X109398061Y-111965000D01*
X109198102Y-112004774D01*
X109009744Y-112082795D01*
X108840226Y-112196063D01*
X108696063Y-112340226D01*
X108582795Y-112509744D01*
X108504774Y-112698102D01*
X108465000Y-112898061D01*
X106035000Y-112898061D01*
X105995226Y-112698102D01*
X105917205Y-112509744D01*
X105803937Y-112340226D01*
X105659774Y-112196063D01*
X105490256Y-112082795D01*
X105301898Y-112004774D01*
X105101939Y-111965000D01*
X104898061Y-111965000D01*
X104698102Y-112004774D01*
X104509744Y-112082795D01*
X104340226Y-112196063D01*
X104196063Y-112340226D01*
X104082795Y-112509744D01*
X104004774Y-112698102D01*
X103965000Y-112898061D01*
X101367911Y-112898061D01*
X101427932Y-112753158D01*
X101485000Y-112466260D01*
X101485000Y-112173740D01*
X101427932Y-111886842D01*
X101315990Y-111616589D01*
X101153475Y-111373368D01*
X100946632Y-111166525D01*
X100772240Y-111050000D01*
X100946632Y-110933475D01*
X101153475Y-110726632D01*
X101315990Y-110483411D01*
X101427932Y-110213158D01*
X101485000Y-109926260D01*
X101485000Y-109633740D01*
X101427932Y-109346842D01*
X101315990Y-109076589D01*
X101153475Y-108833368D01*
X100946632Y-108626525D01*
X100772240Y-108510000D01*
X100946632Y-108393475D01*
X101153475Y-108186632D01*
X101315990Y-107943411D01*
X101427932Y-107673158D01*
X101485000Y-107386260D01*
X101485000Y-107093740D01*
X101427932Y-106806842D01*
X101315990Y-106536589D01*
X101153475Y-106293368D01*
X100946632Y-106086525D01*
X100772240Y-105970000D01*
X100946632Y-105853475D01*
X101152046Y-105648061D01*
X103715000Y-105648061D01*
X103715000Y-105851939D01*
X103754774Y-106051898D01*
X103832795Y-106240256D01*
X103946063Y-106409774D01*
X104090226Y-106553937D01*
X104259744Y-106667205D01*
X104448102Y-106745226D01*
X104648061Y-106785000D01*
X104851939Y-106785000D01*
X105051898Y-106745226D01*
X105240256Y-106667205D01*
X105409774Y-106553937D01*
X105553937Y-106409774D01*
X105667205Y-106240256D01*
X105745226Y-106051898D01*
X105785000Y-105851939D01*
X105785000Y-105648061D01*
X108215000Y-105648061D01*
X108215000Y-105851939D01*
X108254774Y-106051898D01*
X108332795Y-106240256D01*
X108446063Y-106409774D01*
X108590226Y-106553937D01*
X108759744Y-106667205D01*
X108948102Y-106745226D01*
X109148061Y-106785000D01*
X109351939Y-106785000D01*
X109551898Y-106745226D01*
X109740256Y-106667205D01*
X109909774Y-106553937D01*
X110053937Y-106409774D01*
X110167205Y-106240256D01*
X110245226Y-106051898D01*
X110285000Y-105851939D01*
X110285000Y-105648061D01*
X112715000Y-105648061D01*
X112715000Y-105851939D01*
X112754774Y-106051898D01*
X112832795Y-106240256D01*
X112946063Y-106409774D01*
X113090226Y-106553937D01*
X113259744Y-106667205D01*
X113448102Y-106745226D01*
X113648061Y-106785000D01*
X113851939Y-106785000D01*
X114051898Y-106745226D01*
X114240256Y-106667205D01*
X114409774Y-106553937D01*
X114553937Y-106409774D01*
X114667205Y-106240256D01*
X114745226Y-106051898D01*
X114785000Y-105851939D01*
X114785000Y-105648061D01*
X114745226Y-105448102D01*
X114667205Y-105259744D01*
X114553937Y-105090226D01*
X114409774Y-104946063D01*
X114240256Y-104832795D01*
X114051898Y-104754774D01*
X113851939Y-104715000D01*
X113648061Y-104715000D01*
X113448102Y-104754774D01*
X113259744Y-104832795D01*
X113090226Y-104946063D01*
X112946063Y-105090226D01*
X112832795Y-105259744D01*
X112754774Y-105448102D01*
X112715000Y-105648061D01*
X110285000Y-105648061D01*
X110245226Y-105448102D01*
X110167205Y-105259744D01*
X110053937Y-105090226D01*
X109909774Y-104946063D01*
X109740256Y-104832795D01*
X109551898Y-104754774D01*
X109351939Y-104715000D01*
X109148061Y-104715000D01*
X108948102Y-104754774D01*
X108759744Y-104832795D01*
X108590226Y-104946063D01*
X108446063Y-105090226D01*
X108332795Y-105259744D01*
X108254774Y-105448102D01*
X108215000Y-105648061D01*
X105785000Y-105648061D01*
X105745226Y-105448102D01*
X105667205Y-105259744D01*
X105553937Y-105090226D01*
X105409774Y-104946063D01*
X105240256Y-104832795D01*
X105051898Y-104754774D01*
X104851939Y-104715000D01*
X104648061Y-104715000D01*
X104448102Y-104754774D01*
X104259744Y-104832795D01*
X104090226Y-104946063D01*
X103946063Y-105090226D01*
X103832795Y-105259744D01*
X103754774Y-105448102D01*
X103715000Y-105648061D01*
X101152046Y-105648061D01*
X101153475Y-105646632D01*
X101315990Y-105403411D01*
X101427932Y-105133158D01*
X101485000Y-104846260D01*
X101485000Y-104553740D01*
X101427932Y-104266842D01*
X101315990Y-103996589D01*
X101153475Y-103753368D01*
X100946632Y-103546525D01*
X100772240Y-103430000D01*
X100946632Y-103313475D01*
X101153475Y-103106632D01*
X101315990Y-102863411D01*
X101427932Y-102593158D01*
X101485000Y-102306260D01*
X101485000Y-102013740D01*
X101427932Y-101726842D01*
X101315990Y-101456589D01*
X101153475Y-101213368D01*
X100946632Y-101006525D01*
X100772240Y-100890000D01*
X100946632Y-100773475D01*
X101153475Y-100566632D01*
X101315990Y-100323411D01*
X101427932Y-100053158D01*
X101485000Y-99766260D01*
X101485000Y-99473740D01*
X101427932Y-99186842D01*
X101315990Y-98916589D01*
X101153475Y-98673368D01*
X100946632Y-98466525D01*
X100764466Y-98344805D01*
X100881355Y-98275178D01*
X101097588Y-98080269D01*
X101271641Y-97846920D01*
X101396825Y-97584099D01*
X101441476Y-97436890D01*
X101320155Y-97207000D01*
X100127000Y-97207000D01*
X100127000Y-97227000D01*
X99873000Y-97227000D01*
X99873000Y-97207000D01*
X99853000Y-97207000D01*
X99853000Y-96953000D01*
X99873000Y-96953000D01*
X99873000Y-96933000D01*
X100127000Y-96933000D01*
X100127000Y-96953000D01*
X101320155Y-96953000D01*
X101441476Y-96723110D01*
X101396825Y-96575901D01*
X101312119Y-96398061D01*
X103715000Y-96398061D01*
X103715000Y-96601939D01*
X103754774Y-96801898D01*
X103832795Y-96990256D01*
X103946063Y-97159774D01*
X104090226Y-97303937D01*
X104259744Y-97417205D01*
X104448102Y-97495226D01*
X104648061Y-97535000D01*
X104851939Y-97535000D01*
X105051898Y-97495226D01*
X105240256Y-97417205D01*
X105409774Y-97303937D01*
X105553937Y-97159774D01*
X105667205Y-96990256D01*
X105745226Y-96801898D01*
X105785000Y-96601939D01*
X105785000Y-96398061D01*
X105745226Y-96198102D01*
X105667205Y-96009744D01*
X105553937Y-95840226D01*
X105409774Y-95696063D01*
X105240256Y-95582795D01*
X105051898Y-95504774D01*
X104851939Y-95465000D01*
X104648061Y-95465000D01*
X104448102Y-95504774D01*
X104259744Y-95582795D01*
X104090226Y-95696063D01*
X103946063Y-95840226D01*
X103832795Y-96009744D01*
X103754774Y-96198102D01*
X103715000Y-96398061D01*
X101312119Y-96398061D01*
X101271641Y-96313080D01*
X101097588Y-96079731D01*
X100881355Y-95884822D01*
X100764466Y-95815195D01*
X100946632Y-95693475D01*
X101153475Y-95486632D01*
X101315990Y-95243411D01*
X101427932Y-94973158D01*
X101485000Y-94686260D01*
X101485000Y-94393740D01*
X101427932Y-94106842D01*
X101315990Y-93836589D01*
X101153475Y-93593368D01*
X101021620Y-93461513D01*
X101094180Y-93439502D01*
X101204494Y-93380537D01*
X101301185Y-93301185D01*
X101380537Y-93204494D01*
X101439502Y-93094180D01*
X101475812Y-92974482D01*
X101488072Y-92850000D01*
X101488072Y-91160000D01*
X113471928Y-91160000D01*
X113471928Y-92850000D01*
G37*
X113471928Y-92850000D02*
X113484188Y-92974482D01*
X113520498Y-93094180D01*
X113579463Y-93204494D01*
X113658815Y-93301185D01*
X113755506Y-93380537D01*
X113865820Y-93439502D01*
X113985518Y-93475812D01*
X114110000Y-93488072D01*
X115810000Y-93488072D01*
X115934482Y-93475812D01*
X116054180Y-93439502D01*
X116164494Y-93380537D01*
X116261185Y-93301185D01*
X116340537Y-93204494D01*
X116399502Y-93094180D01*
X116423966Y-93013534D01*
X116499731Y-93097588D01*
X116733080Y-93271641D01*
X116995901Y-93396825D01*
X117143110Y-93441476D01*
X117373000Y-93320155D01*
X117373000Y-92127000D01*
X117627000Y-92127000D01*
X117627000Y-93320155D01*
X117856890Y-93441476D01*
X118004099Y-93396825D01*
X118266920Y-93271641D01*
X118500269Y-93097588D01*
X118695178Y-92881355D01*
X118844157Y-92631252D01*
X118941481Y-92356891D01*
X118820814Y-92127000D01*
X117627000Y-92127000D01*
X117373000Y-92127000D01*
X117353000Y-92127000D01*
X117353000Y-91873000D01*
X117373000Y-91873000D01*
X117373000Y-91853000D01*
X117627000Y-91853000D01*
X117627000Y-91873000D01*
X118820814Y-91873000D01*
X118941481Y-91643109D01*
X118844157Y-91368748D01*
X118719812Y-91160000D01*
X121016852Y-91160000D01*
X121011928Y-91210000D01*
X121011928Y-92910000D01*
X121024188Y-93034482D01*
X121060498Y-93154180D01*
X121119463Y-93264494D01*
X121198815Y-93361185D01*
X121295506Y-93440537D01*
X121405820Y-93499502D01*
X121478380Y-93521513D01*
X121346525Y-93653368D01*
X121184010Y-93896589D01*
X121072068Y-94166842D01*
X121015000Y-94453740D01*
X121015000Y-94746260D01*
X121072068Y-95033158D01*
X121184010Y-95303411D01*
X121346525Y-95546632D01*
X121553368Y-95753475D01*
X121727760Y-95870000D01*
X121553368Y-95986525D01*
X121346525Y-96193368D01*
X121184010Y-96436589D01*
X121072068Y-96706842D01*
X121015000Y-96993740D01*
X121015000Y-97286260D01*
X121072068Y-97573158D01*
X121184010Y-97843411D01*
X121346525Y-98086632D01*
X121553368Y-98293475D01*
X121727760Y-98410000D01*
X121553368Y-98526525D01*
X121346525Y-98733368D01*
X121305344Y-98795000D01*
X118758711Y-98795000D01*
X118659774Y-98696063D01*
X118490256Y-98582795D01*
X118301898Y-98504774D01*
X118101939Y-98465000D01*
X117898061Y-98465000D01*
X117698102Y-98504774D01*
X117509744Y-98582795D01*
X117340226Y-98696063D01*
X117196063Y-98840226D01*
X117082795Y-99009744D01*
X117004774Y-99198102D01*
X116965000Y-99398061D01*
X116965000Y-99601939D01*
X117004774Y-99801898D01*
X117082795Y-99990256D01*
X117196063Y-100159774D01*
X117340226Y-100303937D01*
X117509744Y-100417205D01*
X117698102Y-100495226D01*
X117898061Y-100535000D01*
X117949827Y-100535000D01*
X118006510Y-100552195D01*
X118136523Y-100565000D01*
X118136533Y-100565000D01*
X118179999Y-100569281D01*
X118223465Y-100565000D01*
X121305344Y-100565000D01*
X121346525Y-100626632D01*
X121553368Y-100833475D01*
X121727760Y-100950000D01*
X121553368Y-101066525D01*
X121346525Y-101273368D01*
X121305344Y-101335000D01*
X118798713Y-101335000D01*
X118659776Y-101196063D01*
X118490258Y-101082795D01*
X118301900Y-101004774D01*
X118101941Y-100965000D01*
X117898063Y-100965000D01*
X117698104Y-101004774D01*
X117509746Y-101082795D01*
X117340228Y-101196063D01*
X117196065Y-101340226D01*
X117082797Y-101509744D01*
X117004776Y-101698102D01*
X116965002Y-101898061D01*
X116965002Y-102101939D01*
X117004776Y-102301898D01*
X117082797Y-102490256D01*
X117196065Y-102659774D01*
X117340228Y-102803937D01*
X117509746Y-102917205D01*
X117698104Y-102995226D01*
X117849165Y-103025274D01*
X117879689Y-103041589D01*
X118007684Y-103080416D01*
X118046511Y-103092195D01*
X118061308Y-103093652D01*
X118176525Y-103105000D01*
X118176533Y-103105000D01*
X118220002Y-103109281D01*
X118263471Y-103105000D01*
X121305344Y-103105000D01*
X121346525Y-103166632D01*
X121553368Y-103373475D01*
X121727760Y-103490000D01*
X121553368Y-103606525D01*
X121346525Y-103813368D01*
X121184010Y-104056589D01*
X121072068Y-104326842D01*
X121015000Y-104613740D01*
X121015000Y-104906260D01*
X121072068Y-105193158D01*
X121184010Y-105463411D01*
X121346525Y-105706632D01*
X121553368Y-105913475D01*
X121727760Y-106030000D01*
X121553368Y-106146525D01*
X121346525Y-106353368D01*
X121184010Y-106596589D01*
X121072068Y-106866842D01*
X121015000Y-107153740D01*
X121015000Y-107446260D01*
X121072068Y-107733158D01*
X121184010Y-108003411D01*
X121346525Y-108246632D01*
X121553368Y-108453475D01*
X121727760Y-108570000D01*
X121553368Y-108686525D01*
X121346525Y-108893368D01*
X121184010Y-109136589D01*
X121072068Y-109406842D01*
X121015000Y-109693740D01*
X121015000Y-109986260D01*
X121072068Y-110273158D01*
X121184010Y-110543411D01*
X121346525Y-110786632D01*
X121553368Y-110993475D01*
X121727760Y-111110000D01*
X121553368Y-111226525D01*
X121346525Y-111433368D01*
X121184010Y-111676589D01*
X121072068Y-111946842D01*
X121015000Y-112233740D01*
X121015000Y-112526260D01*
X121072068Y-112813158D01*
X121184010Y-113083411D01*
X121346525Y-113326632D01*
X121553368Y-113533475D01*
X121727760Y-113650000D01*
X121553368Y-113766525D01*
X121346525Y-113973368D01*
X121305344Y-114035000D01*
X118624869Y-114035000D01*
X118551898Y-114004774D01*
X118351939Y-113965000D01*
X118148061Y-113965000D01*
X117948102Y-114004774D01*
X117759744Y-114082795D01*
X117590226Y-114196063D01*
X117446063Y-114340226D01*
X117332795Y-114509744D01*
X117254774Y-114698102D01*
X117215000Y-114898061D01*
X117215000Y-115101939D01*
X117254774Y-115301898D01*
X117332795Y-115490256D01*
X117446063Y-115659774D01*
X117590226Y-115803937D01*
X117759744Y-115917205D01*
X117948102Y-115995226D01*
X118148061Y-116035000D01*
X118351939Y-116035000D01*
X118551898Y-115995226D01*
X118740256Y-115917205D01*
X118908183Y-115805000D01*
X121305344Y-115805000D01*
X121346525Y-115866632D01*
X121553368Y-116073475D01*
X121727760Y-116190000D01*
X121553368Y-116306525D01*
X121346525Y-116513368D01*
X121184010Y-116756589D01*
X121072068Y-117026842D01*
X121015000Y-117313740D01*
X121015000Y-117606260D01*
X121072068Y-117893158D01*
X121184010Y-118163411D01*
X121346525Y-118406632D01*
X121553368Y-118613475D01*
X121727760Y-118730000D01*
X121553368Y-118846525D01*
X121346525Y-119053368D01*
X121184010Y-119296589D01*
X121072068Y-119566842D01*
X121015000Y-119853740D01*
X121015000Y-120146260D01*
X121072068Y-120433158D01*
X121184010Y-120703411D01*
X121346525Y-120946632D01*
X121553368Y-121153475D01*
X121796589Y-121315990D01*
X122066842Y-121427932D01*
X122353740Y-121485000D01*
X122646260Y-121485000D01*
X122933158Y-121427932D01*
X123203411Y-121315990D01*
X123340001Y-121224724D01*
X123340001Y-124354387D01*
X123201727Y-124261995D01*
X122947490Y-124156686D01*
X122677592Y-124103000D01*
X122402408Y-124103000D01*
X122132510Y-124156686D01*
X121878273Y-124261995D01*
X121649465Y-124414880D01*
X121454880Y-124609465D01*
X121396080Y-124697465D01*
X121387812Y-124613518D01*
X121351502Y-124493820D01*
X121292537Y-124383506D01*
X121213185Y-124286815D01*
X121116494Y-124207463D01*
X121006180Y-124148498D01*
X120886482Y-124112188D01*
X120762000Y-124099928D01*
X120285750Y-124103000D01*
X120127000Y-124261750D01*
X120127000Y-125373000D01*
X120147000Y-125373000D01*
X120147000Y-125627000D01*
X120127000Y-125627000D01*
X120127000Y-125647000D01*
X119873000Y-125647000D01*
X119873000Y-125627000D01*
X118761750Y-125627000D01*
X118603000Y-125785750D01*
X118599928Y-126262000D01*
X118612188Y-126386482D01*
X118648498Y-126506180D01*
X118707463Y-126616494D01*
X118786815Y-126713185D01*
X118883506Y-126792537D01*
X118993820Y-126851502D01*
X119113518Y-126887812D01*
X119197465Y-126896080D01*
X119109465Y-126954880D01*
X118914880Y-127149465D01*
X118761995Y-127378273D01*
X118656686Y-127632510D01*
X118603000Y-127902408D01*
X118603000Y-128177592D01*
X118656686Y-128447490D01*
X118761995Y-128701727D01*
X118914880Y-128930535D01*
X119109465Y-129125120D01*
X119338273Y-129278005D01*
X119415515Y-129310000D01*
X119338273Y-129341995D01*
X119109465Y-129494880D01*
X118914880Y-129689465D01*
X118761995Y-129918273D01*
X118656686Y-130172510D01*
X118603000Y-130442408D01*
X118603000Y-130717592D01*
X118656686Y-130987490D01*
X118761995Y-131241727D01*
X118914880Y-131470535D01*
X119109465Y-131665120D01*
X119338273Y-131818005D01*
X119415515Y-131850000D01*
X119338273Y-131881995D01*
X119109465Y-132034880D01*
X118914880Y-132229465D01*
X118761995Y-132458273D01*
X118656686Y-132712510D01*
X118603000Y-132982408D01*
X118603000Y-133257592D01*
X118656686Y-133527490D01*
X118761995Y-133781727D01*
X118914880Y-134010535D01*
X119109465Y-134205120D01*
X119338273Y-134358005D01*
X119592510Y-134463314D01*
X119862408Y-134517000D01*
X120137592Y-134517000D01*
X120407490Y-134463314D01*
X120661727Y-134358005D01*
X120890535Y-134205120D01*
X121085120Y-134010535D01*
X121238005Y-133781727D01*
X121270000Y-133704485D01*
X121301995Y-133781727D01*
X121454880Y-134010535D01*
X121649465Y-134205120D01*
X121878273Y-134358005D01*
X122132510Y-134463314D01*
X122402408Y-134517000D01*
X122677592Y-134517000D01*
X122947490Y-134463314D01*
X123201727Y-134358005D01*
X123340001Y-134265613D01*
X123340001Y-139340000D01*
X99160000Y-139340000D01*
X99160000Y-135950000D01*
X99811928Y-135950000D01*
X99811928Y-138050000D01*
X99824188Y-138174482D01*
X99860498Y-138294180D01*
X99919463Y-138404494D01*
X99998815Y-138501185D01*
X100095506Y-138580537D01*
X100205820Y-138639502D01*
X100325518Y-138675812D01*
X100450000Y-138688072D01*
X102550000Y-138688072D01*
X102674482Y-138675812D01*
X102794180Y-138639502D01*
X102904494Y-138580537D01*
X103001185Y-138501185D01*
X103080537Y-138404494D01*
X103088042Y-138390454D01*
X103241853Y-138493228D01*
X103548504Y-138620246D01*
X103874042Y-138685000D01*
X104205958Y-138685000D01*
X104531496Y-138620246D01*
X104838147Y-138493228D01*
X105114125Y-138308825D01*
X105310000Y-138112950D01*
X105505875Y-138308825D01*
X105781853Y-138493228D01*
X106088504Y-138620246D01*
X106414042Y-138685000D01*
X106745958Y-138685000D01*
X107071496Y-138620246D01*
X107378147Y-138493228D01*
X107654125Y-138308825D01*
X107850000Y-138112950D01*
X108045875Y-138308825D01*
X108321853Y-138493228D01*
X108628504Y-138620246D01*
X108954042Y-138685000D01*
X109285958Y-138685000D01*
X109611496Y-138620246D01*
X109918147Y-138493228D01*
X110194125Y-138308825D01*
X110428825Y-138074125D01*
X110613228Y-137798147D01*
X110740246Y-137491496D01*
X110805000Y-137165958D01*
X110805000Y-136834042D01*
X110740246Y-136508504D01*
X110613228Y-136201853D01*
X110428825Y-135925875D01*
X110194125Y-135691175D01*
X109918147Y-135506772D01*
X109611496Y-135379754D01*
X109285958Y-135315000D01*
X108954042Y-135315000D01*
X108628504Y-135379754D01*
X108321853Y-135506772D01*
X108045875Y-135691175D01*
X107850000Y-135887050D01*
X107654125Y-135691175D01*
X107378147Y-135506772D01*
X107071496Y-135379754D01*
X106745958Y-135315000D01*
X106414042Y-135315000D01*
X106088504Y-135379754D01*
X105781853Y-135506772D01*
X105505875Y-135691175D01*
X105310000Y-135887050D01*
X105114125Y-135691175D01*
X104838147Y-135506772D01*
X104531496Y-135379754D01*
X104205958Y-135315000D01*
X103874042Y-135315000D01*
X103548504Y-135379754D01*
X103241853Y-135506772D01*
X103088042Y-135609546D01*
X103080537Y-135595506D01*
X103001185Y-135498815D01*
X102904494Y-135419463D01*
X102794180Y-135360498D01*
X102674482Y-135324188D01*
X102550000Y-135311928D01*
X100450000Y-135311928D01*
X100325518Y-135324188D01*
X100205820Y-135360498D01*
X100095506Y-135419463D01*
X99998815Y-135498815D01*
X99919463Y-135595506D01*
X99860498Y-135705820D01*
X99824188Y-135825518D01*
X99811928Y-135950000D01*
X99160000Y-135950000D01*
X99160000Y-131800000D01*
X100561928Y-131800000D01*
X100574188Y-131924482D01*
X100610498Y-132044180D01*
X100669463Y-132154494D01*
X100748815Y-132251185D01*
X100845506Y-132330537D01*
X100955820Y-132389502D01*
X101075518Y-132425812D01*
X101200000Y-132438072D01*
X101714250Y-132435000D01*
X101873000Y-132276250D01*
X101873000Y-131127000D01*
X102127000Y-131127000D01*
X102127000Y-132276250D01*
X102285750Y-132435000D01*
X102800000Y-132438072D01*
X102924482Y-132425812D01*
X103044180Y-132389502D01*
X103154494Y-132330537D01*
X103251185Y-132251185D01*
X103330537Y-132154494D01*
X103389502Y-132044180D01*
X103425812Y-131924482D01*
X103428231Y-131899920D01*
X103576586Y-132063519D01*
X103802580Y-132231037D01*
X104056913Y-132351246D01*
X104190961Y-132391904D01*
X104413000Y-132269915D01*
X104413000Y-131127000D01*
X104667000Y-131127000D01*
X104667000Y-132269915D01*
X104889039Y-132391904D01*
X105023087Y-132351246D01*
X105277420Y-132231037D01*
X105503414Y-132063519D01*
X105692385Y-131855131D01*
X105810000Y-131659018D01*
X105927615Y-131855131D01*
X106116586Y-132063519D01*
X106342580Y-132231037D01*
X106596913Y-132351246D01*
X106730961Y-132391904D01*
X106953000Y-132269915D01*
X106953000Y-131127000D01*
X107207000Y-131127000D01*
X107207000Y-132269915D01*
X107429039Y-132391904D01*
X107563087Y-132351246D01*
X107817420Y-132231037D01*
X108043414Y-132063519D01*
X108232385Y-131855131D01*
X108350000Y-131659018D01*
X108467615Y-131855131D01*
X108656586Y-132063519D01*
X108882580Y-132231037D01*
X109136913Y-132351246D01*
X109270961Y-132391904D01*
X109493000Y-132269915D01*
X109493000Y-131127000D01*
X109747000Y-131127000D01*
X109747000Y-132269915D01*
X109969039Y-132391904D01*
X110103087Y-132351246D01*
X110357420Y-132231037D01*
X110583414Y-132063519D01*
X110772385Y-131855131D01*
X110890000Y-131659018D01*
X111007615Y-131855131D01*
X111196586Y-132063519D01*
X111422580Y-132231037D01*
X111676913Y-132351246D01*
X111810961Y-132391904D01*
X112033000Y-132269915D01*
X112033000Y-131127000D01*
X112287000Y-131127000D01*
X112287000Y-132269915D01*
X112509039Y-132391904D01*
X112643087Y-132351246D01*
X112897420Y-132231037D01*
X113123414Y-132063519D01*
X113312385Y-131855131D01*
X113430000Y-131659018D01*
X113547615Y-131855131D01*
X113736586Y-132063519D01*
X113962580Y-132231037D01*
X114216913Y-132351246D01*
X114350961Y-132391904D01*
X114573000Y-132269915D01*
X114573000Y-131127000D01*
X114827000Y-131127000D01*
X114827000Y-132269915D01*
X115049039Y-132391904D01*
X115183087Y-132351246D01*
X115437420Y-132231037D01*
X115663414Y-132063519D01*
X115852385Y-131855131D01*
X115997070Y-131613881D01*
X116091909Y-131349040D01*
X115970624Y-131127000D01*
X114827000Y-131127000D01*
X114573000Y-131127000D01*
X112287000Y-131127000D01*
X112033000Y-131127000D01*
X109747000Y-131127000D01*
X109493000Y-131127000D01*
X107207000Y-131127000D01*
X106953000Y-131127000D01*
X104667000Y-131127000D01*
X104413000Y-131127000D01*
X102127000Y-131127000D01*
X101873000Y-131127000D01*
X100723750Y-131127000D01*
X100565000Y-131285750D01*
X100561928Y-131800000D01*
X99160000Y-131800000D01*
X99160000Y-130200000D01*
X100561928Y-130200000D01*
X100565000Y-130714250D01*
X100723750Y-130873000D01*
X101873000Y-130873000D01*
X101873000Y-129723750D01*
X102127000Y-129723750D01*
X102127000Y-130873000D01*
X104413000Y-130873000D01*
X104413000Y-129730085D01*
X104667000Y-129730085D01*
X104667000Y-130873000D01*
X106953000Y-130873000D01*
X106953000Y-129730085D01*
X107207000Y-129730085D01*
X107207000Y-130873000D01*
X109493000Y-130873000D01*
X109493000Y-129730085D01*
X109747000Y-129730085D01*
X109747000Y-130873000D01*
X112033000Y-130873000D01*
X112033000Y-129730085D01*
X112287000Y-129730085D01*
X112287000Y-130873000D01*
X114573000Y-130873000D01*
X114573000Y-129730085D01*
X114827000Y-129730085D01*
X114827000Y-130873000D01*
X115970624Y-130873000D01*
X116091909Y-130650960D01*
X115997070Y-130386119D01*
X115852385Y-130144869D01*
X115663414Y-129936481D01*
X115437420Y-129768963D01*
X115183087Y-129648754D01*
X115049039Y-129608096D01*
X114827000Y-129730085D01*
X114573000Y-129730085D01*
X114350961Y-129608096D01*
X114216913Y-129648754D01*
X113962580Y-129768963D01*
X113736586Y-129936481D01*
X113547615Y-130144869D01*
X113430000Y-130340982D01*
X113312385Y-130144869D01*
X113123414Y-129936481D01*
X112897420Y-129768963D01*
X112643087Y-129648754D01*
X112509039Y-129608096D01*
X112287000Y-129730085D01*
X112033000Y-129730085D01*
X111810961Y-129608096D01*
X111676913Y-129648754D01*
X111422580Y-129768963D01*
X111196586Y-129936481D01*
X111007615Y-130144869D01*
X110890000Y-130340982D01*
X110772385Y-130144869D01*
X110583414Y-129936481D01*
X110357420Y-129768963D01*
X110103087Y-129648754D01*
X109969039Y-129608096D01*
X109747000Y-129730085D01*
X109493000Y-129730085D01*
X109270961Y-129608096D01*
X109136913Y-129648754D01*
X108882580Y-129768963D01*
X108656586Y-129936481D01*
X108467615Y-130144869D01*
X108350000Y-130340982D01*
X108232385Y-130144869D01*
X108043414Y-129936481D01*
X107817420Y-129768963D01*
X107563087Y-129648754D01*
X107429039Y-129608096D01*
X107207000Y-129730085D01*
X106953000Y-129730085D01*
X106730961Y-129608096D01*
X106596913Y-129648754D01*
X106342580Y-129768963D01*
X106116586Y-129936481D01*
X105927615Y-130144869D01*
X105810000Y-130340982D01*
X105692385Y-130144869D01*
X105503414Y-129936481D01*
X105277420Y-129768963D01*
X105023087Y-129648754D01*
X104889039Y-129608096D01*
X104667000Y-129730085D01*
X104413000Y-129730085D01*
X104190961Y-129608096D01*
X104056913Y-129648754D01*
X103802580Y-129768963D01*
X103576586Y-129936481D01*
X103428231Y-130100080D01*
X103425812Y-130075518D01*
X103389502Y-129955820D01*
X103330537Y-129845506D01*
X103251185Y-129748815D01*
X103154494Y-129669463D01*
X103044180Y-129610498D01*
X102924482Y-129574188D01*
X102800000Y-129561928D01*
X102285750Y-129565000D01*
X102127000Y-129723750D01*
X101873000Y-129723750D01*
X101714250Y-129565000D01*
X101200000Y-129561928D01*
X101075518Y-129574188D01*
X100955820Y-129610498D01*
X100845506Y-129669463D01*
X100748815Y-129748815D01*
X100669463Y-129845506D01*
X100610498Y-129955820D01*
X100574188Y-130075518D01*
X100561928Y-130200000D01*
X99160000Y-130200000D01*
X99160000Y-123238665D01*
X100565000Y-123238665D01*
X100565000Y-123521335D01*
X100620147Y-123798574D01*
X100728320Y-124059727D01*
X100885363Y-124294759D01*
X101085241Y-124494637D01*
X101320273Y-124651680D01*
X101581426Y-124759853D01*
X101858665Y-124815000D01*
X102141335Y-124815000D01*
X102418574Y-124759853D01*
X102679727Y-124651680D01*
X102914759Y-124494637D01*
X103114637Y-124294759D01*
X103270000Y-124062241D01*
X103425363Y-124294759D01*
X103625241Y-124494637D01*
X103860273Y-124651680D01*
X104121426Y-124759853D01*
X104398665Y-124815000D01*
X104681335Y-124815000D01*
X104958574Y-124759853D01*
X105219727Y-124651680D01*
X105454759Y-124494637D01*
X105654637Y-124294759D01*
X105810000Y-124062241D01*
X105965363Y-124294759D01*
X106165241Y-124494637D01*
X106400273Y-124651680D01*
X106661426Y-124759853D01*
X106938665Y-124815000D01*
X107221335Y-124815000D01*
X107498574Y-124759853D01*
X107759727Y-124651680D01*
X107994759Y-124494637D01*
X108194637Y-124294759D01*
X108350000Y-124062241D01*
X108505363Y-124294759D01*
X108705241Y-124494637D01*
X108940273Y-124651680D01*
X109201426Y-124759853D01*
X109478665Y-124815000D01*
X109761335Y-124815000D01*
X110038574Y-124759853D01*
X110299727Y-124651680D01*
X110534759Y-124494637D01*
X110734637Y-124294759D01*
X110890000Y-124062241D01*
X111045363Y-124294759D01*
X111245241Y-124494637D01*
X111480273Y-124651680D01*
X111741426Y-124759853D01*
X112018665Y-124815000D01*
X112301335Y-124815000D01*
X112578574Y-124759853D01*
X112839727Y-124651680D01*
X113074759Y-124494637D01*
X113274637Y-124294759D01*
X113430000Y-124062241D01*
X113585363Y-124294759D01*
X113785241Y-124494637D01*
X114020273Y-124651680D01*
X114281426Y-124759853D01*
X114558665Y-124815000D01*
X114841335Y-124815000D01*
X115118574Y-124759853D01*
X115171331Y-124738000D01*
X118599928Y-124738000D01*
X118603000Y-125214250D01*
X118761750Y-125373000D01*
X119873000Y-125373000D01*
X119873000Y-124261750D01*
X119714250Y-124103000D01*
X119238000Y-124099928D01*
X119113518Y-124112188D01*
X118993820Y-124148498D01*
X118883506Y-124207463D01*
X118786815Y-124286815D01*
X118707463Y-124383506D01*
X118648498Y-124493820D01*
X118612188Y-124613518D01*
X118599928Y-124738000D01*
X115171331Y-124738000D01*
X115379727Y-124651680D01*
X115614759Y-124494637D01*
X115814637Y-124294759D01*
X115971680Y-124059727D01*
X116079853Y-123798574D01*
X116135000Y-123521335D01*
X116135000Y-123238665D01*
X116079853Y-122961426D01*
X115971680Y-122700273D01*
X115814637Y-122465241D01*
X115614759Y-122265363D01*
X115379727Y-122108320D01*
X115118574Y-122000147D01*
X114841335Y-121945000D01*
X114558665Y-121945000D01*
X114281426Y-122000147D01*
X114020273Y-122108320D01*
X113785241Y-122265363D01*
X113585363Y-122465241D01*
X113430000Y-122697759D01*
X113274637Y-122465241D01*
X113074759Y-122265363D01*
X112839727Y-122108320D01*
X112578574Y-122000147D01*
X112301335Y-121945000D01*
X112018665Y-121945000D01*
X111741426Y-122000147D01*
X111480273Y-122108320D01*
X111245241Y-122265363D01*
X111045363Y-122465241D01*
X110890000Y-122697759D01*
X110734637Y-122465241D01*
X110534759Y-122265363D01*
X110299727Y-122108320D01*
X110038574Y-122000147D01*
X109761335Y-121945000D01*
X109478665Y-121945000D01*
X109201426Y-122000147D01*
X108940273Y-122108320D01*
X108705241Y-122265363D01*
X108505363Y-122465241D01*
X108350000Y-122697759D01*
X108194637Y-122465241D01*
X107994759Y-122265363D01*
X107759727Y-122108320D01*
X107498574Y-122000147D01*
X107221335Y-121945000D01*
X106938665Y-121945000D01*
X106661426Y-122000147D01*
X106400273Y-122108320D01*
X106165241Y-122265363D01*
X105965363Y-122465241D01*
X105810000Y-122697759D01*
X105654637Y-122465241D01*
X105454759Y-122265363D01*
X105219727Y-122108320D01*
X104958574Y-122000147D01*
X104681335Y-121945000D01*
X104398665Y-121945000D01*
X104121426Y-122000147D01*
X103860273Y-122108320D01*
X103625241Y-122265363D01*
X103425363Y-122465241D01*
X103270000Y-122697759D01*
X103114637Y-122465241D01*
X102914759Y-122265363D01*
X102679727Y-122108320D01*
X102418574Y-122000147D01*
X102141335Y-121945000D01*
X101858665Y-121945000D01*
X101581426Y-122000147D01*
X101320273Y-122108320D01*
X101085241Y-122265363D01*
X100885363Y-122465241D01*
X100728320Y-122700273D01*
X100620147Y-122961426D01*
X100565000Y-123238665D01*
X99160000Y-123238665D01*
X99160000Y-121164724D01*
X99296589Y-121255990D01*
X99566842Y-121367932D01*
X99853740Y-121425000D01*
X100146260Y-121425000D01*
X100433158Y-121367932D01*
X100703411Y-121255990D01*
X100946632Y-121093475D01*
X101153475Y-120886632D01*
X101315990Y-120643411D01*
X101427932Y-120373158D01*
X101485000Y-120086260D01*
X101485000Y-119793740D01*
X101427932Y-119506842D01*
X101315990Y-119236589D01*
X101258134Y-119150000D01*
X103431928Y-119150000D01*
X103431928Y-120850000D01*
X103444188Y-120974482D01*
X103480498Y-121094180D01*
X103539463Y-121204494D01*
X103618815Y-121301185D01*
X103715506Y-121380537D01*
X103825820Y-121439502D01*
X103945518Y-121475812D01*
X104070000Y-121488072D01*
X105770000Y-121488072D01*
X105894482Y-121475812D01*
X106014180Y-121439502D01*
X106124494Y-121380537D01*
X106221185Y-121301185D01*
X106300537Y-121204494D01*
X106359502Y-121094180D01*
X106381513Y-121021620D01*
X106513368Y-121153475D01*
X106756589Y-121315990D01*
X107026842Y-121427932D01*
X107313740Y-121485000D01*
X107606260Y-121485000D01*
X107893158Y-121427932D01*
X108163411Y-121315990D01*
X108406632Y-121153475D01*
X108613475Y-120946632D01*
X108730000Y-120772240D01*
X108846525Y-120946632D01*
X109053368Y-121153475D01*
X109296589Y-121315990D01*
X109566842Y-121427932D01*
X109853740Y-121485000D01*
X110146260Y-121485000D01*
X110433158Y-121427932D01*
X110703411Y-121315990D01*
X110946632Y-121153475D01*
X111153475Y-120946632D01*
X111270000Y-120772240D01*
X111386525Y-120946632D01*
X111593368Y-121153475D01*
X111836589Y-121315990D01*
X112106842Y-121427932D01*
X112393740Y-121485000D01*
X112686260Y-121485000D01*
X112973158Y-121427932D01*
X113243411Y-121315990D01*
X113486632Y-121153475D01*
X113693475Y-120946632D01*
X113810000Y-120772240D01*
X113926525Y-120946632D01*
X114133368Y-121153475D01*
X114376589Y-121315990D01*
X114646842Y-121427932D01*
X114933740Y-121485000D01*
X115226260Y-121485000D01*
X115513158Y-121427932D01*
X115783411Y-121315990D01*
X116026632Y-121153475D01*
X116233475Y-120946632D01*
X116350000Y-120772240D01*
X116466525Y-120946632D01*
X116673368Y-121153475D01*
X116916589Y-121315990D01*
X117186842Y-121427932D01*
X117473740Y-121485000D01*
X117766260Y-121485000D01*
X118053158Y-121427932D01*
X118323411Y-121315990D01*
X118566632Y-121153475D01*
X118773475Y-120946632D01*
X118935990Y-120703411D01*
X119047932Y-120433158D01*
X119105000Y-120146260D01*
X119105000Y-119853740D01*
X119047932Y-119566842D01*
X118935990Y-119296589D01*
X118773475Y-119053368D01*
X118566632Y-118846525D01*
X118323411Y-118684010D01*
X118053158Y-118572068D01*
X117766260Y-118515000D01*
X117473740Y-118515000D01*
X117186842Y-118572068D01*
X116916589Y-118684010D01*
X116673368Y-118846525D01*
X116466525Y-119053368D01*
X116350000Y-119227760D01*
X116233475Y-119053368D01*
X116026632Y-118846525D01*
X115783411Y-118684010D01*
X115513158Y-118572068D01*
X115226260Y-118515000D01*
X114933740Y-118515000D01*
X114646842Y-118572068D01*
X114376589Y-118684010D01*
X114133368Y-118846525D01*
X113926525Y-119053368D01*
X113810000Y-119227760D01*
X113693475Y-119053368D01*
X113486632Y-118846525D01*
X113243411Y-118684010D01*
X112973158Y-118572068D01*
X112686260Y-118515000D01*
X112393740Y-118515000D01*
X112106842Y-118572068D01*
X111836589Y-118684010D01*
X111593368Y-118846525D01*
X111386525Y-119053368D01*
X111270000Y-119227760D01*
X111153475Y-119053368D01*
X110946632Y-118846525D01*
X110703411Y-118684010D01*
X110433158Y-118572068D01*
X110146260Y-118515000D01*
X109853740Y-118515000D01*
X109566842Y-118572068D01*
X109296589Y-118684010D01*
X109053368Y-118846525D01*
X108846525Y-119053368D01*
X108730000Y-119227760D01*
X108613475Y-119053368D01*
X108406632Y-118846525D01*
X108163411Y-118684010D01*
X107893158Y-118572068D01*
X107606260Y-118515000D01*
X107313740Y-118515000D01*
X107026842Y-118572068D01*
X106756589Y-118684010D01*
X106513368Y-118846525D01*
X106381513Y-118978380D01*
X106359502Y-118905820D01*
X106300537Y-118795506D01*
X106221185Y-118698815D01*
X106124494Y-118619463D01*
X106014180Y-118560498D01*
X105894482Y-118524188D01*
X105770000Y-118511928D01*
X104070000Y-118511928D01*
X103945518Y-118524188D01*
X103825820Y-118560498D01*
X103715506Y-118619463D01*
X103618815Y-118698815D01*
X103539463Y-118795506D01*
X103480498Y-118905820D01*
X103444188Y-119025518D01*
X103431928Y-119150000D01*
X101258134Y-119150000D01*
X101153475Y-118993368D01*
X100946632Y-118786525D01*
X100772240Y-118670000D01*
X100946632Y-118553475D01*
X101153475Y-118346632D01*
X101315990Y-118103411D01*
X101427932Y-117833158D01*
X101485000Y-117546260D01*
X101485000Y-117253740D01*
X101427932Y-116966842D01*
X101315990Y-116696589D01*
X101153475Y-116453368D01*
X100946632Y-116246525D01*
X100772240Y-116130000D01*
X100946632Y-116013475D01*
X101153475Y-115806632D01*
X101315990Y-115563411D01*
X101427932Y-115293158D01*
X101485000Y-115006260D01*
X101485000Y-114713740D01*
X101427932Y-114426842D01*
X101315990Y-114156589D01*
X101153475Y-113913368D01*
X100946632Y-113706525D01*
X100772240Y-113590000D01*
X100946632Y-113473475D01*
X101153475Y-113266632D01*
X101315990Y-113023411D01*
X101367911Y-112898061D01*
X103965000Y-112898061D01*
X103965000Y-113101939D01*
X104004774Y-113301898D01*
X104082795Y-113490256D01*
X104106010Y-113525000D01*
X104082795Y-113559744D01*
X104004774Y-113748102D01*
X103965000Y-113948061D01*
X103965000Y-114151939D01*
X104004774Y-114351898D01*
X104082795Y-114540256D01*
X104106010Y-114575000D01*
X104082795Y-114609744D01*
X104004774Y-114798102D01*
X103965000Y-114998061D01*
X103965000Y-115201939D01*
X104004774Y-115401898D01*
X104082795Y-115590256D01*
X104196063Y-115759774D01*
X104340226Y-115903937D01*
X104509744Y-116017205D01*
X104698102Y-116095226D01*
X104898061Y-116135000D01*
X105101939Y-116135000D01*
X105301898Y-116095226D01*
X105490256Y-116017205D01*
X105659774Y-115903937D01*
X105803937Y-115759774D01*
X105917205Y-115590256D01*
X105995226Y-115401898D01*
X106035000Y-115201939D01*
X106035000Y-114998061D01*
X105995226Y-114798102D01*
X105917205Y-114609744D01*
X105893990Y-114575000D01*
X105917205Y-114540256D01*
X105995226Y-114351898D01*
X106035000Y-114151939D01*
X106035000Y-113948061D01*
X105995226Y-113748102D01*
X105917205Y-113559744D01*
X105893990Y-113525000D01*
X105917205Y-113490256D01*
X105995226Y-113301898D01*
X106035000Y-113101939D01*
X106035000Y-112898061D01*
X108465000Y-112898061D01*
X108465000Y-113101939D01*
X108504774Y-113301898D01*
X108582795Y-113490256D01*
X108606010Y-113525000D01*
X108582795Y-113559744D01*
X108504774Y-113748102D01*
X108465000Y-113948061D01*
X108465000Y-114151939D01*
X108504774Y-114351898D01*
X108582795Y-114540256D01*
X108606010Y-114575000D01*
X108582795Y-114609744D01*
X108504774Y-114798102D01*
X108465000Y-114998061D01*
X108465000Y-115201939D01*
X108504774Y-115401898D01*
X108582795Y-115590256D01*
X108696063Y-115759774D01*
X108840226Y-115903937D01*
X109009744Y-116017205D01*
X109198102Y-116095226D01*
X109398061Y-116135000D01*
X109601939Y-116135000D01*
X109801898Y-116095226D01*
X109990256Y-116017205D01*
X110159774Y-115903937D01*
X110303937Y-115759774D01*
X110417205Y-115590256D01*
X110495226Y-115401898D01*
X110535000Y-115201939D01*
X110535000Y-114998061D01*
X110495226Y-114798102D01*
X110417205Y-114609744D01*
X110393990Y-114575000D01*
X110417205Y-114540256D01*
X110495226Y-114351898D01*
X110535000Y-114151939D01*
X110535000Y-113948061D01*
X110495226Y-113748102D01*
X110417205Y-113559744D01*
X110393990Y-113525000D01*
X110417205Y-113490256D01*
X110495226Y-113301898D01*
X110535000Y-113101939D01*
X110535000Y-112898061D01*
X110515109Y-112798061D01*
X112965000Y-112798061D01*
X112965000Y-113001939D01*
X113004774Y-113201898D01*
X113082795Y-113390256D01*
X113122715Y-113450000D01*
X113082795Y-113509744D01*
X113004774Y-113698102D01*
X112965000Y-113898061D01*
X112965000Y-114101939D01*
X113004774Y-114301898D01*
X113082795Y-114490256D01*
X113106010Y-114525000D01*
X113082795Y-114559744D01*
X113004774Y-114748102D01*
X112965000Y-114948061D01*
X112965000Y-115151939D01*
X113004774Y-115351898D01*
X113082795Y-115540256D01*
X113196063Y-115709774D01*
X113340226Y-115853937D01*
X113509744Y-115967205D01*
X113698102Y-116045226D01*
X113898061Y-116085000D01*
X114101939Y-116085000D01*
X114301898Y-116045226D01*
X114490256Y-115967205D01*
X114659774Y-115853937D01*
X114803937Y-115709774D01*
X114917205Y-115540256D01*
X114995226Y-115351898D01*
X115035000Y-115151939D01*
X115035000Y-114948061D01*
X114995226Y-114748102D01*
X114917205Y-114559744D01*
X114893990Y-114525000D01*
X114917205Y-114490256D01*
X114995226Y-114301898D01*
X115035000Y-114101939D01*
X115035000Y-113898061D01*
X114995226Y-113698102D01*
X114917205Y-113509744D01*
X114877285Y-113450000D01*
X114917205Y-113390256D01*
X114995226Y-113201898D01*
X115035000Y-113001939D01*
X115035000Y-112798061D01*
X114995226Y-112598102D01*
X114917205Y-112409744D01*
X114803937Y-112240226D01*
X114659774Y-112096063D01*
X114490256Y-111982795D01*
X114301898Y-111904774D01*
X114101939Y-111865000D01*
X113898061Y-111865000D01*
X113698102Y-111904774D01*
X113509744Y-111982795D01*
X113340226Y-112096063D01*
X113196063Y-112240226D01*
X113082795Y-112409744D01*
X113004774Y-112598102D01*
X112965000Y-112798061D01*
X110515109Y-112798061D01*
X110495226Y-112698102D01*
X110417205Y-112509744D01*
X110303937Y-112340226D01*
X110159774Y-112196063D01*
X109990256Y-112082795D01*
X109801898Y-112004774D01*
X109601939Y-111965000D01*
X109398061Y-111965000D01*
X109198102Y-112004774D01*
X109009744Y-112082795D01*
X108840226Y-112196063D01*
X108696063Y-112340226D01*
X108582795Y-112509744D01*
X108504774Y-112698102D01*
X108465000Y-112898061D01*
X106035000Y-112898061D01*
X105995226Y-112698102D01*
X105917205Y-112509744D01*
X105803937Y-112340226D01*
X105659774Y-112196063D01*
X105490256Y-112082795D01*
X105301898Y-112004774D01*
X105101939Y-111965000D01*
X104898061Y-111965000D01*
X104698102Y-112004774D01*
X104509744Y-112082795D01*
X104340226Y-112196063D01*
X104196063Y-112340226D01*
X104082795Y-112509744D01*
X104004774Y-112698102D01*
X103965000Y-112898061D01*
X101367911Y-112898061D01*
X101427932Y-112753158D01*
X101485000Y-112466260D01*
X101485000Y-112173740D01*
X101427932Y-111886842D01*
X101315990Y-111616589D01*
X101153475Y-111373368D01*
X100946632Y-111166525D01*
X100772240Y-111050000D01*
X100946632Y-110933475D01*
X101153475Y-110726632D01*
X101315990Y-110483411D01*
X101427932Y-110213158D01*
X101485000Y-109926260D01*
X101485000Y-109633740D01*
X101427932Y-109346842D01*
X101315990Y-109076589D01*
X101153475Y-108833368D01*
X100946632Y-108626525D01*
X100772240Y-108510000D01*
X100946632Y-108393475D01*
X101153475Y-108186632D01*
X101315990Y-107943411D01*
X101427932Y-107673158D01*
X101485000Y-107386260D01*
X101485000Y-107093740D01*
X101427932Y-106806842D01*
X101315990Y-106536589D01*
X101153475Y-106293368D01*
X100946632Y-106086525D01*
X100772240Y-105970000D01*
X100946632Y-105853475D01*
X101152046Y-105648061D01*
X103715000Y-105648061D01*
X103715000Y-105851939D01*
X103754774Y-106051898D01*
X103832795Y-106240256D01*
X103946063Y-106409774D01*
X104090226Y-106553937D01*
X104259744Y-106667205D01*
X104448102Y-106745226D01*
X104648061Y-106785000D01*
X104851939Y-106785000D01*
X105051898Y-106745226D01*
X105240256Y-106667205D01*
X105409774Y-106553937D01*
X105553937Y-106409774D01*
X105667205Y-106240256D01*
X105745226Y-106051898D01*
X105785000Y-105851939D01*
X105785000Y-105648061D01*
X108215000Y-105648061D01*
X108215000Y-105851939D01*
X108254774Y-106051898D01*
X108332795Y-106240256D01*
X108446063Y-106409774D01*
X108590226Y-106553937D01*
X108759744Y-106667205D01*
X108948102Y-106745226D01*
X109148061Y-106785000D01*
X109351939Y-106785000D01*
X109551898Y-106745226D01*
X109740256Y-106667205D01*
X109909774Y-106553937D01*
X110053937Y-106409774D01*
X110167205Y-106240256D01*
X110245226Y-106051898D01*
X110285000Y-105851939D01*
X110285000Y-105648061D01*
X112715000Y-105648061D01*
X112715000Y-105851939D01*
X112754774Y-106051898D01*
X112832795Y-106240256D01*
X112946063Y-106409774D01*
X113090226Y-106553937D01*
X113259744Y-106667205D01*
X113448102Y-106745226D01*
X113648061Y-106785000D01*
X113851939Y-106785000D01*
X114051898Y-106745226D01*
X114240256Y-106667205D01*
X114409774Y-106553937D01*
X114553937Y-106409774D01*
X114667205Y-106240256D01*
X114745226Y-106051898D01*
X114785000Y-105851939D01*
X114785000Y-105648061D01*
X114745226Y-105448102D01*
X114667205Y-105259744D01*
X114553937Y-105090226D01*
X114409774Y-104946063D01*
X114240256Y-104832795D01*
X114051898Y-104754774D01*
X113851939Y-104715000D01*
X113648061Y-104715000D01*
X113448102Y-104754774D01*
X113259744Y-104832795D01*
X113090226Y-104946063D01*
X112946063Y-105090226D01*
X112832795Y-105259744D01*
X112754774Y-105448102D01*
X112715000Y-105648061D01*
X110285000Y-105648061D01*
X110245226Y-105448102D01*
X110167205Y-105259744D01*
X110053937Y-105090226D01*
X109909774Y-104946063D01*
X109740256Y-104832795D01*
X109551898Y-104754774D01*
X109351939Y-104715000D01*
X109148061Y-104715000D01*
X108948102Y-104754774D01*
X108759744Y-104832795D01*
X108590226Y-104946063D01*
X108446063Y-105090226D01*
X108332795Y-105259744D01*
X108254774Y-105448102D01*
X108215000Y-105648061D01*
X105785000Y-105648061D01*
X105745226Y-105448102D01*
X105667205Y-105259744D01*
X105553937Y-105090226D01*
X105409774Y-104946063D01*
X105240256Y-104832795D01*
X105051898Y-104754774D01*
X104851939Y-104715000D01*
X104648061Y-104715000D01*
X104448102Y-104754774D01*
X104259744Y-104832795D01*
X104090226Y-104946063D01*
X103946063Y-105090226D01*
X103832795Y-105259744D01*
X103754774Y-105448102D01*
X103715000Y-105648061D01*
X101152046Y-105648061D01*
X101153475Y-105646632D01*
X101315990Y-105403411D01*
X101427932Y-105133158D01*
X101485000Y-104846260D01*
X101485000Y-104553740D01*
X101427932Y-104266842D01*
X101315990Y-103996589D01*
X101153475Y-103753368D01*
X100946632Y-103546525D01*
X100772240Y-103430000D01*
X100946632Y-103313475D01*
X101153475Y-103106632D01*
X101315990Y-102863411D01*
X101427932Y-102593158D01*
X101485000Y-102306260D01*
X101485000Y-102013740D01*
X101427932Y-101726842D01*
X101315990Y-101456589D01*
X101153475Y-101213368D01*
X100946632Y-101006525D01*
X100772240Y-100890000D01*
X100946632Y-100773475D01*
X101153475Y-100566632D01*
X101315990Y-100323411D01*
X101427932Y-100053158D01*
X101485000Y-99766260D01*
X101485000Y-99473740D01*
X101427932Y-99186842D01*
X101315990Y-98916589D01*
X101153475Y-98673368D01*
X100946632Y-98466525D01*
X100764466Y-98344805D01*
X100881355Y-98275178D01*
X101097588Y-98080269D01*
X101271641Y-97846920D01*
X101396825Y-97584099D01*
X101441476Y-97436890D01*
X101320155Y-97207000D01*
X100127000Y-97207000D01*
X100127000Y-97227000D01*
X99873000Y-97227000D01*
X99873000Y-97207000D01*
X99853000Y-97207000D01*
X99853000Y-96953000D01*
X99873000Y-96953000D01*
X99873000Y-96933000D01*
X100127000Y-96933000D01*
X100127000Y-96953000D01*
X101320155Y-96953000D01*
X101441476Y-96723110D01*
X101396825Y-96575901D01*
X101312119Y-96398061D01*
X103715000Y-96398061D01*
X103715000Y-96601939D01*
X103754774Y-96801898D01*
X103832795Y-96990256D01*
X103946063Y-97159774D01*
X104090226Y-97303937D01*
X104259744Y-97417205D01*
X104448102Y-97495226D01*
X104648061Y-97535000D01*
X104851939Y-97535000D01*
X105051898Y-97495226D01*
X105240256Y-97417205D01*
X105409774Y-97303937D01*
X105553937Y-97159774D01*
X105667205Y-96990256D01*
X105745226Y-96801898D01*
X105785000Y-96601939D01*
X105785000Y-96398061D01*
X105745226Y-96198102D01*
X105667205Y-96009744D01*
X105553937Y-95840226D01*
X105409774Y-95696063D01*
X105240256Y-95582795D01*
X105051898Y-95504774D01*
X104851939Y-95465000D01*
X104648061Y-95465000D01*
X104448102Y-95504774D01*
X104259744Y-95582795D01*
X104090226Y-95696063D01*
X103946063Y-95840226D01*
X103832795Y-96009744D01*
X103754774Y-96198102D01*
X103715000Y-96398061D01*
X101312119Y-96398061D01*
X101271641Y-96313080D01*
X101097588Y-96079731D01*
X100881355Y-95884822D01*
X100764466Y-95815195D01*
X100946632Y-95693475D01*
X101153475Y-95486632D01*
X101315990Y-95243411D01*
X101427932Y-94973158D01*
X101485000Y-94686260D01*
X101485000Y-94393740D01*
X101427932Y-94106842D01*
X101315990Y-93836589D01*
X101153475Y-93593368D01*
X101021620Y-93461513D01*
X101094180Y-93439502D01*
X101204494Y-93380537D01*
X101301185Y-93301185D01*
X101380537Y-93204494D01*
X101439502Y-93094180D01*
X101475812Y-92974482D01*
X101488072Y-92850000D01*
X101488072Y-91160000D01*
X113471928Y-91160000D01*
X113471928Y-92850000D01*
M02*
