G04 #@! TF.GenerationSoftware,KiCad,Pcbnew,(5.1.5)-3*
G04 #@! TF.CreationDate,2020-06-15T12:52:53-05:00*
G04 #@! TF.ProjectId,LightDriverShieldVer1,4c696768-7444-4726-9976-657253686965,rev?*
G04 #@! TF.SameCoordinates,Original*
G04 #@! TF.FileFunction,Copper,L1,Top*
G04 #@! TF.FilePolarity,Positive*
%FSLAX46Y46*%
G04 Gerber Fmt 4.6, Leading zero omitted, Abs format (unit mm)*
G04 Created by KiCad (PCBNEW (5.1.5)-3) date 2020-06-15 12:52:53*
%MOMM*%
%LPD*%
G04 APERTURE LIST*
%ADD10R,0.450000X1.450000*%
%ADD11C,0.100000*%
%ADD12R,0.900000X0.800000*%
%ADD13O,1.700000X1.700000*%
%ADD14R,1.700000X1.700000*%
%ADD15C,1.524000*%
%ADD16R,1.524000X1.524000*%
%ADD17O,1.600000X1.600000*%
%ADD18R,1.600000X1.600000*%
%ADD19R,0.800000X0.900000*%
%ADD20C,2.100000*%
%ADD21R,2.100000X2.100000*%
%ADD22C,0.800000*%
%ADD23C,0.750000*%
%ADD24C,0.500000*%
%ADD25C,0.250000*%
%ADD26C,0.254000*%
G04 APERTURE END LIST*
D10*
X105775000Y-111050000D03*
X106425000Y-111050000D03*
X107075000Y-111050000D03*
X107725000Y-111050000D03*
X107725000Y-116950000D03*
X107075000Y-116950000D03*
X106425000Y-116950000D03*
X105775000Y-116950000D03*
X114775000Y-111050000D03*
X115425000Y-111050000D03*
X116075000Y-111050000D03*
X116725000Y-111050000D03*
X116725000Y-116950000D03*
X116075000Y-116950000D03*
X115425000Y-116950000D03*
X114775000Y-116950000D03*
X110275000Y-111050000D03*
X110925000Y-111050000D03*
X111575000Y-111050000D03*
X112225000Y-111050000D03*
X112225000Y-116950000D03*
X111575000Y-116950000D03*
X110925000Y-116950000D03*
X110275000Y-116950000D03*
G04 #@! TA.AperFunction,SMDPad,CuDef*
D11*
G36*
X117186958Y-103470710D02*
G01*
X117201276Y-103472834D01*
X117215317Y-103476351D01*
X117228946Y-103481228D01*
X117242031Y-103487417D01*
X117254447Y-103494858D01*
X117266073Y-103503481D01*
X117276798Y-103513202D01*
X117286519Y-103523927D01*
X117295142Y-103535553D01*
X117302583Y-103547969D01*
X117308772Y-103561054D01*
X117313649Y-103574683D01*
X117317166Y-103588724D01*
X117319290Y-103603042D01*
X117320000Y-103617500D01*
X117320000Y-103912500D01*
X117319290Y-103926958D01*
X117317166Y-103941276D01*
X117313649Y-103955317D01*
X117308772Y-103968946D01*
X117302583Y-103982031D01*
X117295142Y-103994447D01*
X117286519Y-104006073D01*
X117276798Y-104016798D01*
X117266073Y-104026519D01*
X117254447Y-104035142D01*
X117242031Y-104042583D01*
X117228946Y-104048772D01*
X117215317Y-104053649D01*
X117201276Y-104057166D01*
X117186958Y-104059290D01*
X117172500Y-104060000D01*
X116827500Y-104060000D01*
X116813042Y-104059290D01*
X116798724Y-104057166D01*
X116784683Y-104053649D01*
X116771054Y-104048772D01*
X116757969Y-104042583D01*
X116745553Y-104035142D01*
X116733927Y-104026519D01*
X116723202Y-104016798D01*
X116713481Y-104006073D01*
X116704858Y-103994447D01*
X116697417Y-103982031D01*
X116691228Y-103968946D01*
X116686351Y-103955317D01*
X116682834Y-103941276D01*
X116680710Y-103926958D01*
X116680000Y-103912500D01*
X116680000Y-103617500D01*
X116680710Y-103603042D01*
X116682834Y-103588724D01*
X116686351Y-103574683D01*
X116691228Y-103561054D01*
X116697417Y-103547969D01*
X116704858Y-103535553D01*
X116713481Y-103523927D01*
X116723202Y-103513202D01*
X116733927Y-103503481D01*
X116745553Y-103494858D01*
X116757969Y-103487417D01*
X116771054Y-103481228D01*
X116784683Y-103476351D01*
X116798724Y-103472834D01*
X116813042Y-103470710D01*
X116827500Y-103470000D01*
X117172500Y-103470000D01*
X117186958Y-103470710D01*
G37*
G04 #@! TD.AperFunction*
G04 #@! TA.AperFunction,SMDPad,CuDef*
G36*
X117186958Y-104440710D02*
G01*
X117201276Y-104442834D01*
X117215317Y-104446351D01*
X117228946Y-104451228D01*
X117242031Y-104457417D01*
X117254447Y-104464858D01*
X117266073Y-104473481D01*
X117276798Y-104483202D01*
X117286519Y-104493927D01*
X117295142Y-104505553D01*
X117302583Y-104517969D01*
X117308772Y-104531054D01*
X117313649Y-104544683D01*
X117317166Y-104558724D01*
X117319290Y-104573042D01*
X117320000Y-104587500D01*
X117320000Y-104882500D01*
X117319290Y-104896958D01*
X117317166Y-104911276D01*
X117313649Y-104925317D01*
X117308772Y-104938946D01*
X117302583Y-104952031D01*
X117295142Y-104964447D01*
X117286519Y-104976073D01*
X117276798Y-104986798D01*
X117266073Y-104996519D01*
X117254447Y-105005142D01*
X117242031Y-105012583D01*
X117228946Y-105018772D01*
X117215317Y-105023649D01*
X117201276Y-105027166D01*
X117186958Y-105029290D01*
X117172500Y-105030000D01*
X116827500Y-105030000D01*
X116813042Y-105029290D01*
X116798724Y-105027166D01*
X116784683Y-105023649D01*
X116771054Y-105018772D01*
X116757969Y-105012583D01*
X116745553Y-105005142D01*
X116733927Y-104996519D01*
X116723202Y-104986798D01*
X116713481Y-104976073D01*
X116704858Y-104964447D01*
X116697417Y-104952031D01*
X116691228Y-104938946D01*
X116686351Y-104925317D01*
X116682834Y-104911276D01*
X116680710Y-104896958D01*
X116680000Y-104882500D01*
X116680000Y-104587500D01*
X116680710Y-104573042D01*
X116682834Y-104558724D01*
X116686351Y-104544683D01*
X116691228Y-104531054D01*
X116697417Y-104517969D01*
X116704858Y-104505553D01*
X116713481Y-104493927D01*
X116723202Y-104483202D01*
X116733927Y-104473481D01*
X116745553Y-104464858D01*
X116757969Y-104457417D01*
X116771054Y-104451228D01*
X116784683Y-104446351D01*
X116798724Y-104442834D01*
X116813042Y-104440710D01*
X116827500Y-104440000D01*
X117172500Y-104440000D01*
X117186958Y-104440710D01*
G37*
G04 #@! TD.AperFunction*
G04 #@! TA.AperFunction,SMDPad,CuDef*
G36*
X113936958Y-107690710D02*
G01*
X113951276Y-107692834D01*
X113965317Y-107696351D01*
X113978946Y-107701228D01*
X113992031Y-107707417D01*
X114004447Y-107714858D01*
X114016073Y-107723481D01*
X114026798Y-107733202D01*
X114036519Y-107743927D01*
X114045142Y-107755553D01*
X114052583Y-107767969D01*
X114058772Y-107781054D01*
X114063649Y-107794683D01*
X114067166Y-107808724D01*
X114069290Y-107823042D01*
X114070000Y-107837500D01*
X114070000Y-108132500D01*
X114069290Y-108146958D01*
X114067166Y-108161276D01*
X114063649Y-108175317D01*
X114058772Y-108188946D01*
X114052583Y-108202031D01*
X114045142Y-108214447D01*
X114036519Y-108226073D01*
X114026798Y-108236798D01*
X114016073Y-108246519D01*
X114004447Y-108255142D01*
X113992031Y-108262583D01*
X113978946Y-108268772D01*
X113965317Y-108273649D01*
X113951276Y-108277166D01*
X113936958Y-108279290D01*
X113922500Y-108280000D01*
X113577500Y-108280000D01*
X113563042Y-108279290D01*
X113548724Y-108277166D01*
X113534683Y-108273649D01*
X113521054Y-108268772D01*
X113507969Y-108262583D01*
X113495553Y-108255142D01*
X113483927Y-108246519D01*
X113473202Y-108236798D01*
X113463481Y-108226073D01*
X113454858Y-108214447D01*
X113447417Y-108202031D01*
X113441228Y-108188946D01*
X113436351Y-108175317D01*
X113432834Y-108161276D01*
X113430710Y-108146958D01*
X113430000Y-108132500D01*
X113430000Y-107837500D01*
X113430710Y-107823042D01*
X113432834Y-107808724D01*
X113436351Y-107794683D01*
X113441228Y-107781054D01*
X113447417Y-107767969D01*
X113454858Y-107755553D01*
X113463481Y-107743927D01*
X113473202Y-107733202D01*
X113483927Y-107723481D01*
X113495553Y-107714858D01*
X113507969Y-107707417D01*
X113521054Y-107701228D01*
X113534683Y-107696351D01*
X113548724Y-107692834D01*
X113563042Y-107690710D01*
X113577500Y-107690000D01*
X113922500Y-107690000D01*
X113936958Y-107690710D01*
G37*
G04 #@! TD.AperFunction*
G04 #@! TA.AperFunction,SMDPad,CuDef*
G36*
X113936958Y-106720710D02*
G01*
X113951276Y-106722834D01*
X113965317Y-106726351D01*
X113978946Y-106731228D01*
X113992031Y-106737417D01*
X114004447Y-106744858D01*
X114016073Y-106753481D01*
X114026798Y-106763202D01*
X114036519Y-106773927D01*
X114045142Y-106785553D01*
X114052583Y-106797969D01*
X114058772Y-106811054D01*
X114063649Y-106824683D01*
X114067166Y-106838724D01*
X114069290Y-106853042D01*
X114070000Y-106867500D01*
X114070000Y-107162500D01*
X114069290Y-107176958D01*
X114067166Y-107191276D01*
X114063649Y-107205317D01*
X114058772Y-107218946D01*
X114052583Y-107232031D01*
X114045142Y-107244447D01*
X114036519Y-107256073D01*
X114026798Y-107266798D01*
X114016073Y-107276519D01*
X114004447Y-107285142D01*
X113992031Y-107292583D01*
X113978946Y-107298772D01*
X113965317Y-107303649D01*
X113951276Y-107307166D01*
X113936958Y-107309290D01*
X113922500Y-107310000D01*
X113577500Y-107310000D01*
X113563042Y-107309290D01*
X113548724Y-107307166D01*
X113534683Y-107303649D01*
X113521054Y-107298772D01*
X113507969Y-107292583D01*
X113495553Y-107285142D01*
X113483927Y-107276519D01*
X113473202Y-107266798D01*
X113463481Y-107256073D01*
X113454858Y-107244447D01*
X113447417Y-107232031D01*
X113441228Y-107218946D01*
X113436351Y-107205317D01*
X113432834Y-107191276D01*
X113430710Y-107176958D01*
X113430000Y-107162500D01*
X113430000Y-106867500D01*
X113430710Y-106853042D01*
X113432834Y-106838724D01*
X113436351Y-106824683D01*
X113441228Y-106811054D01*
X113447417Y-106797969D01*
X113454858Y-106785553D01*
X113463481Y-106773927D01*
X113473202Y-106763202D01*
X113483927Y-106753481D01*
X113495553Y-106744858D01*
X113507969Y-106737417D01*
X113521054Y-106731228D01*
X113534683Y-106726351D01*
X113548724Y-106722834D01*
X113563042Y-106720710D01*
X113577500Y-106720000D01*
X113922500Y-106720000D01*
X113936958Y-106720710D01*
G37*
G04 #@! TD.AperFunction*
G04 #@! TA.AperFunction,SMDPad,CuDef*
G36*
X112686958Y-103470710D02*
G01*
X112701276Y-103472834D01*
X112715317Y-103476351D01*
X112728946Y-103481228D01*
X112742031Y-103487417D01*
X112754447Y-103494858D01*
X112766073Y-103503481D01*
X112776798Y-103513202D01*
X112786519Y-103523927D01*
X112795142Y-103535553D01*
X112802583Y-103547969D01*
X112808772Y-103561054D01*
X112813649Y-103574683D01*
X112817166Y-103588724D01*
X112819290Y-103603042D01*
X112820000Y-103617500D01*
X112820000Y-103912500D01*
X112819290Y-103926958D01*
X112817166Y-103941276D01*
X112813649Y-103955317D01*
X112808772Y-103968946D01*
X112802583Y-103982031D01*
X112795142Y-103994447D01*
X112786519Y-104006073D01*
X112776798Y-104016798D01*
X112766073Y-104026519D01*
X112754447Y-104035142D01*
X112742031Y-104042583D01*
X112728946Y-104048772D01*
X112715317Y-104053649D01*
X112701276Y-104057166D01*
X112686958Y-104059290D01*
X112672500Y-104060000D01*
X112327500Y-104060000D01*
X112313042Y-104059290D01*
X112298724Y-104057166D01*
X112284683Y-104053649D01*
X112271054Y-104048772D01*
X112257969Y-104042583D01*
X112245553Y-104035142D01*
X112233927Y-104026519D01*
X112223202Y-104016798D01*
X112213481Y-104006073D01*
X112204858Y-103994447D01*
X112197417Y-103982031D01*
X112191228Y-103968946D01*
X112186351Y-103955317D01*
X112182834Y-103941276D01*
X112180710Y-103926958D01*
X112180000Y-103912500D01*
X112180000Y-103617500D01*
X112180710Y-103603042D01*
X112182834Y-103588724D01*
X112186351Y-103574683D01*
X112191228Y-103561054D01*
X112197417Y-103547969D01*
X112204858Y-103535553D01*
X112213481Y-103523927D01*
X112223202Y-103513202D01*
X112233927Y-103503481D01*
X112245553Y-103494858D01*
X112257969Y-103487417D01*
X112271054Y-103481228D01*
X112284683Y-103476351D01*
X112298724Y-103472834D01*
X112313042Y-103470710D01*
X112327500Y-103470000D01*
X112672500Y-103470000D01*
X112686958Y-103470710D01*
G37*
G04 #@! TD.AperFunction*
G04 #@! TA.AperFunction,SMDPad,CuDef*
G36*
X112686958Y-104440710D02*
G01*
X112701276Y-104442834D01*
X112715317Y-104446351D01*
X112728946Y-104451228D01*
X112742031Y-104457417D01*
X112754447Y-104464858D01*
X112766073Y-104473481D01*
X112776798Y-104483202D01*
X112786519Y-104493927D01*
X112795142Y-104505553D01*
X112802583Y-104517969D01*
X112808772Y-104531054D01*
X112813649Y-104544683D01*
X112817166Y-104558724D01*
X112819290Y-104573042D01*
X112820000Y-104587500D01*
X112820000Y-104882500D01*
X112819290Y-104896958D01*
X112817166Y-104911276D01*
X112813649Y-104925317D01*
X112808772Y-104938946D01*
X112802583Y-104952031D01*
X112795142Y-104964447D01*
X112786519Y-104976073D01*
X112776798Y-104986798D01*
X112766073Y-104996519D01*
X112754447Y-105005142D01*
X112742031Y-105012583D01*
X112728946Y-105018772D01*
X112715317Y-105023649D01*
X112701276Y-105027166D01*
X112686958Y-105029290D01*
X112672500Y-105030000D01*
X112327500Y-105030000D01*
X112313042Y-105029290D01*
X112298724Y-105027166D01*
X112284683Y-105023649D01*
X112271054Y-105018772D01*
X112257969Y-105012583D01*
X112245553Y-105005142D01*
X112233927Y-104996519D01*
X112223202Y-104986798D01*
X112213481Y-104976073D01*
X112204858Y-104964447D01*
X112197417Y-104952031D01*
X112191228Y-104938946D01*
X112186351Y-104925317D01*
X112182834Y-104911276D01*
X112180710Y-104896958D01*
X112180000Y-104882500D01*
X112180000Y-104587500D01*
X112180710Y-104573042D01*
X112182834Y-104558724D01*
X112186351Y-104544683D01*
X112191228Y-104531054D01*
X112197417Y-104517969D01*
X112204858Y-104505553D01*
X112213481Y-104493927D01*
X112223202Y-104483202D01*
X112233927Y-104473481D01*
X112245553Y-104464858D01*
X112257969Y-104457417D01*
X112271054Y-104451228D01*
X112284683Y-104446351D01*
X112298724Y-104442834D01*
X112313042Y-104440710D01*
X112327500Y-104440000D01*
X112672500Y-104440000D01*
X112686958Y-104440710D01*
G37*
G04 #@! TD.AperFunction*
G04 #@! TA.AperFunction,SMDPad,CuDef*
G36*
X108186958Y-103470710D02*
G01*
X108201276Y-103472834D01*
X108215317Y-103476351D01*
X108228946Y-103481228D01*
X108242031Y-103487417D01*
X108254447Y-103494858D01*
X108266073Y-103503481D01*
X108276798Y-103513202D01*
X108286519Y-103523927D01*
X108295142Y-103535553D01*
X108302583Y-103547969D01*
X108308772Y-103561054D01*
X108313649Y-103574683D01*
X108317166Y-103588724D01*
X108319290Y-103603042D01*
X108320000Y-103617500D01*
X108320000Y-103912500D01*
X108319290Y-103926958D01*
X108317166Y-103941276D01*
X108313649Y-103955317D01*
X108308772Y-103968946D01*
X108302583Y-103982031D01*
X108295142Y-103994447D01*
X108286519Y-104006073D01*
X108276798Y-104016798D01*
X108266073Y-104026519D01*
X108254447Y-104035142D01*
X108242031Y-104042583D01*
X108228946Y-104048772D01*
X108215317Y-104053649D01*
X108201276Y-104057166D01*
X108186958Y-104059290D01*
X108172500Y-104060000D01*
X107827500Y-104060000D01*
X107813042Y-104059290D01*
X107798724Y-104057166D01*
X107784683Y-104053649D01*
X107771054Y-104048772D01*
X107757969Y-104042583D01*
X107745553Y-104035142D01*
X107733927Y-104026519D01*
X107723202Y-104016798D01*
X107713481Y-104006073D01*
X107704858Y-103994447D01*
X107697417Y-103982031D01*
X107691228Y-103968946D01*
X107686351Y-103955317D01*
X107682834Y-103941276D01*
X107680710Y-103926958D01*
X107680000Y-103912500D01*
X107680000Y-103617500D01*
X107680710Y-103603042D01*
X107682834Y-103588724D01*
X107686351Y-103574683D01*
X107691228Y-103561054D01*
X107697417Y-103547969D01*
X107704858Y-103535553D01*
X107713481Y-103523927D01*
X107723202Y-103513202D01*
X107733927Y-103503481D01*
X107745553Y-103494858D01*
X107757969Y-103487417D01*
X107771054Y-103481228D01*
X107784683Y-103476351D01*
X107798724Y-103472834D01*
X107813042Y-103470710D01*
X107827500Y-103470000D01*
X108172500Y-103470000D01*
X108186958Y-103470710D01*
G37*
G04 #@! TD.AperFunction*
G04 #@! TA.AperFunction,SMDPad,CuDef*
G36*
X108186958Y-104440710D02*
G01*
X108201276Y-104442834D01*
X108215317Y-104446351D01*
X108228946Y-104451228D01*
X108242031Y-104457417D01*
X108254447Y-104464858D01*
X108266073Y-104473481D01*
X108276798Y-104483202D01*
X108286519Y-104493927D01*
X108295142Y-104505553D01*
X108302583Y-104517969D01*
X108308772Y-104531054D01*
X108313649Y-104544683D01*
X108317166Y-104558724D01*
X108319290Y-104573042D01*
X108320000Y-104587500D01*
X108320000Y-104882500D01*
X108319290Y-104896958D01*
X108317166Y-104911276D01*
X108313649Y-104925317D01*
X108308772Y-104938946D01*
X108302583Y-104952031D01*
X108295142Y-104964447D01*
X108286519Y-104976073D01*
X108276798Y-104986798D01*
X108266073Y-104996519D01*
X108254447Y-105005142D01*
X108242031Y-105012583D01*
X108228946Y-105018772D01*
X108215317Y-105023649D01*
X108201276Y-105027166D01*
X108186958Y-105029290D01*
X108172500Y-105030000D01*
X107827500Y-105030000D01*
X107813042Y-105029290D01*
X107798724Y-105027166D01*
X107784683Y-105023649D01*
X107771054Y-105018772D01*
X107757969Y-105012583D01*
X107745553Y-105005142D01*
X107733927Y-104996519D01*
X107723202Y-104986798D01*
X107713481Y-104976073D01*
X107704858Y-104964447D01*
X107697417Y-104952031D01*
X107691228Y-104938946D01*
X107686351Y-104925317D01*
X107682834Y-104911276D01*
X107680710Y-104896958D01*
X107680000Y-104882500D01*
X107680000Y-104587500D01*
X107680710Y-104573042D01*
X107682834Y-104558724D01*
X107686351Y-104544683D01*
X107691228Y-104531054D01*
X107697417Y-104517969D01*
X107704858Y-104505553D01*
X107713481Y-104493927D01*
X107723202Y-104483202D01*
X107733927Y-104473481D01*
X107745553Y-104464858D01*
X107757969Y-104457417D01*
X107771054Y-104451228D01*
X107784683Y-104446351D01*
X107798724Y-104442834D01*
X107813042Y-104440710D01*
X107827500Y-104440000D01*
X108172500Y-104440000D01*
X108186958Y-104440710D01*
G37*
G04 #@! TD.AperFunction*
G04 #@! TA.AperFunction,SMDPad,CuDef*
G36*
X109436958Y-107705710D02*
G01*
X109451276Y-107707834D01*
X109465317Y-107711351D01*
X109478946Y-107716228D01*
X109492031Y-107722417D01*
X109504447Y-107729858D01*
X109516073Y-107738481D01*
X109526798Y-107748202D01*
X109536519Y-107758927D01*
X109545142Y-107770553D01*
X109552583Y-107782969D01*
X109558772Y-107796054D01*
X109563649Y-107809683D01*
X109567166Y-107823724D01*
X109569290Y-107838042D01*
X109570000Y-107852500D01*
X109570000Y-108147500D01*
X109569290Y-108161958D01*
X109567166Y-108176276D01*
X109563649Y-108190317D01*
X109558772Y-108203946D01*
X109552583Y-108217031D01*
X109545142Y-108229447D01*
X109536519Y-108241073D01*
X109526798Y-108251798D01*
X109516073Y-108261519D01*
X109504447Y-108270142D01*
X109492031Y-108277583D01*
X109478946Y-108283772D01*
X109465317Y-108288649D01*
X109451276Y-108292166D01*
X109436958Y-108294290D01*
X109422500Y-108295000D01*
X109077500Y-108295000D01*
X109063042Y-108294290D01*
X109048724Y-108292166D01*
X109034683Y-108288649D01*
X109021054Y-108283772D01*
X109007969Y-108277583D01*
X108995553Y-108270142D01*
X108983927Y-108261519D01*
X108973202Y-108251798D01*
X108963481Y-108241073D01*
X108954858Y-108229447D01*
X108947417Y-108217031D01*
X108941228Y-108203946D01*
X108936351Y-108190317D01*
X108932834Y-108176276D01*
X108930710Y-108161958D01*
X108930000Y-108147500D01*
X108930000Y-107852500D01*
X108930710Y-107838042D01*
X108932834Y-107823724D01*
X108936351Y-107809683D01*
X108941228Y-107796054D01*
X108947417Y-107782969D01*
X108954858Y-107770553D01*
X108963481Y-107758927D01*
X108973202Y-107748202D01*
X108983927Y-107738481D01*
X108995553Y-107729858D01*
X109007969Y-107722417D01*
X109021054Y-107716228D01*
X109034683Y-107711351D01*
X109048724Y-107707834D01*
X109063042Y-107705710D01*
X109077500Y-107705000D01*
X109422500Y-107705000D01*
X109436958Y-107705710D01*
G37*
G04 #@! TD.AperFunction*
G04 #@! TA.AperFunction,SMDPad,CuDef*
G36*
X109436958Y-106735710D02*
G01*
X109451276Y-106737834D01*
X109465317Y-106741351D01*
X109478946Y-106746228D01*
X109492031Y-106752417D01*
X109504447Y-106759858D01*
X109516073Y-106768481D01*
X109526798Y-106778202D01*
X109536519Y-106788927D01*
X109545142Y-106800553D01*
X109552583Y-106812969D01*
X109558772Y-106826054D01*
X109563649Y-106839683D01*
X109567166Y-106853724D01*
X109569290Y-106868042D01*
X109570000Y-106882500D01*
X109570000Y-107177500D01*
X109569290Y-107191958D01*
X109567166Y-107206276D01*
X109563649Y-107220317D01*
X109558772Y-107233946D01*
X109552583Y-107247031D01*
X109545142Y-107259447D01*
X109536519Y-107271073D01*
X109526798Y-107281798D01*
X109516073Y-107291519D01*
X109504447Y-107300142D01*
X109492031Y-107307583D01*
X109478946Y-107313772D01*
X109465317Y-107318649D01*
X109451276Y-107322166D01*
X109436958Y-107324290D01*
X109422500Y-107325000D01*
X109077500Y-107325000D01*
X109063042Y-107324290D01*
X109048724Y-107322166D01*
X109034683Y-107318649D01*
X109021054Y-107313772D01*
X109007969Y-107307583D01*
X108995553Y-107300142D01*
X108983927Y-107291519D01*
X108973202Y-107281798D01*
X108963481Y-107271073D01*
X108954858Y-107259447D01*
X108947417Y-107247031D01*
X108941228Y-107233946D01*
X108936351Y-107220317D01*
X108932834Y-107206276D01*
X108930710Y-107191958D01*
X108930000Y-107177500D01*
X108930000Y-106882500D01*
X108930710Y-106868042D01*
X108932834Y-106853724D01*
X108936351Y-106839683D01*
X108941228Y-106826054D01*
X108947417Y-106812969D01*
X108954858Y-106800553D01*
X108963481Y-106788927D01*
X108973202Y-106778202D01*
X108983927Y-106768481D01*
X108995553Y-106759858D01*
X109007969Y-106752417D01*
X109021054Y-106746228D01*
X109034683Y-106741351D01*
X109048724Y-106737834D01*
X109063042Y-106735710D01*
X109077500Y-106735000D01*
X109422500Y-106735000D01*
X109436958Y-106735710D01*
G37*
G04 #@! TD.AperFunction*
G04 #@! TA.AperFunction,SMDPad,CuDef*
G36*
X104936958Y-107690710D02*
G01*
X104951276Y-107692834D01*
X104965317Y-107696351D01*
X104978946Y-107701228D01*
X104992031Y-107707417D01*
X105004447Y-107714858D01*
X105016073Y-107723481D01*
X105026798Y-107733202D01*
X105036519Y-107743927D01*
X105045142Y-107755553D01*
X105052583Y-107767969D01*
X105058772Y-107781054D01*
X105063649Y-107794683D01*
X105067166Y-107808724D01*
X105069290Y-107823042D01*
X105070000Y-107837500D01*
X105070000Y-108132500D01*
X105069290Y-108146958D01*
X105067166Y-108161276D01*
X105063649Y-108175317D01*
X105058772Y-108188946D01*
X105052583Y-108202031D01*
X105045142Y-108214447D01*
X105036519Y-108226073D01*
X105026798Y-108236798D01*
X105016073Y-108246519D01*
X105004447Y-108255142D01*
X104992031Y-108262583D01*
X104978946Y-108268772D01*
X104965317Y-108273649D01*
X104951276Y-108277166D01*
X104936958Y-108279290D01*
X104922500Y-108280000D01*
X104577500Y-108280000D01*
X104563042Y-108279290D01*
X104548724Y-108277166D01*
X104534683Y-108273649D01*
X104521054Y-108268772D01*
X104507969Y-108262583D01*
X104495553Y-108255142D01*
X104483927Y-108246519D01*
X104473202Y-108236798D01*
X104463481Y-108226073D01*
X104454858Y-108214447D01*
X104447417Y-108202031D01*
X104441228Y-108188946D01*
X104436351Y-108175317D01*
X104432834Y-108161276D01*
X104430710Y-108146958D01*
X104430000Y-108132500D01*
X104430000Y-107837500D01*
X104430710Y-107823042D01*
X104432834Y-107808724D01*
X104436351Y-107794683D01*
X104441228Y-107781054D01*
X104447417Y-107767969D01*
X104454858Y-107755553D01*
X104463481Y-107743927D01*
X104473202Y-107733202D01*
X104483927Y-107723481D01*
X104495553Y-107714858D01*
X104507969Y-107707417D01*
X104521054Y-107701228D01*
X104534683Y-107696351D01*
X104548724Y-107692834D01*
X104563042Y-107690710D01*
X104577500Y-107690000D01*
X104922500Y-107690000D01*
X104936958Y-107690710D01*
G37*
G04 #@! TD.AperFunction*
G04 #@! TA.AperFunction,SMDPad,CuDef*
G36*
X104936958Y-106720710D02*
G01*
X104951276Y-106722834D01*
X104965317Y-106726351D01*
X104978946Y-106731228D01*
X104992031Y-106737417D01*
X105004447Y-106744858D01*
X105016073Y-106753481D01*
X105026798Y-106763202D01*
X105036519Y-106773927D01*
X105045142Y-106785553D01*
X105052583Y-106797969D01*
X105058772Y-106811054D01*
X105063649Y-106824683D01*
X105067166Y-106838724D01*
X105069290Y-106853042D01*
X105070000Y-106867500D01*
X105070000Y-107162500D01*
X105069290Y-107176958D01*
X105067166Y-107191276D01*
X105063649Y-107205317D01*
X105058772Y-107218946D01*
X105052583Y-107232031D01*
X105045142Y-107244447D01*
X105036519Y-107256073D01*
X105026798Y-107266798D01*
X105016073Y-107276519D01*
X105004447Y-107285142D01*
X104992031Y-107292583D01*
X104978946Y-107298772D01*
X104965317Y-107303649D01*
X104951276Y-107307166D01*
X104936958Y-107309290D01*
X104922500Y-107310000D01*
X104577500Y-107310000D01*
X104563042Y-107309290D01*
X104548724Y-107307166D01*
X104534683Y-107303649D01*
X104521054Y-107298772D01*
X104507969Y-107292583D01*
X104495553Y-107285142D01*
X104483927Y-107276519D01*
X104473202Y-107266798D01*
X104463481Y-107256073D01*
X104454858Y-107244447D01*
X104447417Y-107232031D01*
X104441228Y-107218946D01*
X104436351Y-107205317D01*
X104432834Y-107191276D01*
X104430710Y-107176958D01*
X104430000Y-107162500D01*
X104430000Y-106867500D01*
X104430710Y-106853042D01*
X104432834Y-106838724D01*
X104436351Y-106824683D01*
X104441228Y-106811054D01*
X104447417Y-106797969D01*
X104454858Y-106785553D01*
X104463481Y-106773927D01*
X104473202Y-106763202D01*
X104483927Y-106753481D01*
X104495553Y-106744858D01*
X104507969Y-106737417D01*
X104521054Y-106731228D01*
X104534683Y-106726351D01*
X104548724Y-106722834D01*
X104563042Y-106720710D01*
X104577500Y-106720000D01*
X104922500Y-106720000D01*
X104936958Y-106720710D01*
G37*
G04 #@! TD.AperFunction*
D12*
X117000000Y-107000000D03*
X115000000Y-107950000D03*
X115000000Y-106050000D03*
X112500000Y-107000000D03*
X110500000Y-107950000D03*
X110500000Y-106050000D03*
X108000000Y-107000000D03*
X106000000Y-107950000D03*
X106000000Y-106050000D03*
D13*
X117500000Y-92000000D03*
D14*
X114960000Y-92000000D03*
D15*
X122540000Y-133120000D03*
X120000000Y-133120000D03*
X122540000Y-130580000D03*
X120000000Y-130580000D03*
X122540000Y-128040000D03*
X120000000Y-128040000D03*
X122540000Y-125500000D03*
D16*
X120000000Y-125500000D03*
D17*
X102000000Y-123380000D03*
X114700000Y-131000000D03*
X104540000Y-123380000D03*
X112160000Y-131000000D03*
X107080000Y-123380000D03*
X109620000Y-131000000D03*
X109620000Y-123380000D03*
X107080000Y-131000000D03*
X112160000Y-123380000D03*
X104540000Y-131000000D03*
X114700000Y-123380000D03*
D18*
X102000000Y-131000000D03*
G04 #@! TA.AperFunction,SMDPad,CuDef*
D11*
G36*
X105676958Y-91930710D02*
G01*
X105691276Y-91932834D01*
X105705317Y-91936351D01*
X105718946Y-91941228D01*
X105732031Y-91947417D01*
X105744447Y-91954858D01*
X105756073Y-91963481D01*
X105766798Y-91973202D01*
X105776519Y-91983927D01*
X105785142Y-91995553D01*
X105792583Y-92007969D01*
X105798772Y-92021054D01*
X105803649Y-92034683D01*
X105807166Y-92048724D01*
X105809290Y-92063042D01*
X105810000Y-92077500D01*
X105810000Y-92422500D01*
X105809290Y-92436958D01*
X105807166Y-92451276D01*
X105803649Y-92465317D01*
X105798772Y-92478946D01*
X105792583Y-92492031D01*
X105785142Y-92504447D01*
X105776519Y-92516073D01*
X105766798Y-92526798D01*
X105756073Y-92536519D01*
X105744447Y-92545142D01*
X105732031Y-92552583D01*
X105718946Y-92558772D01*
X105705317Y-92563649D01*
X105691276Y-92567166D01*
X105676958Y-92569290D01*
X105662500Y-92570000D01*
X105367500Y-92570000D01*
X105353042Y-92569290D01*
X105338724Y-92567166D01*
X105324683Y-92563649D01*
X105311054Y-92558772D01*
X105297969Y-92552583D01*
X105285553Y-92545142D01*
X105273927Y-92536519D01*
X105263202Y-92526798D01*
X105253481Y-92516073D01*
X105244858Y-92504447D01*
X105237417Y-92492031D01*
X105231228Y-92478946D01*
X105226351Y-92465317D01*
X105222834Y-92451276D01*
X105220710Y-92436958D01*
X105220000Y-92422500D01*
X105220000Y-92077500D01*
X105220710Y-92063042D01*
X105222834Y-92048724D01*
X105226351Y-92034683D01*
X105231228Y-92021054D01*
X105237417Y-92007969D01*
X105244858Y-91995553D01*
X105253481Y-91983927D01*
X105263202Y-91973202D01*
X105273927Y-91963481D01*
X105285553Y-91954858D01*
X105297969Y-91947417D01*
X105311054Y-91941228D01*
X105324683Y-91936351D01*
X105338724Y-91932834D01*
X105353042Y-91930710D01*
X105367500Y-91930000D01*
X105662500Y-91930000D01*
X105676958Y-91930710D01*
G37*
G04 #@! TD.AperFunction*
G04 #@! TA.AperFunction,SMDPad,CuDef*
G36*
X106646958Y-91930710D02*
G01*
X106661276Y-91932834D01*
X106675317Y-91936351D01*
X106688946Y-91941228D01*
X106702031Y-91947417D01*
X106714447Y-91954858D01*
X106726073Y-91963481D01*
X106736798Y-91973202D01*
X106746519Y-91983927D01*
X106755142Y-91995553D01*
X106762583Y-92007969D01*
X106768772Y-92021054D01*
X106773649Y-92034683D01*
X106777166Y-92048724D01*
X106779290Y-92063042D01*
X106780000Y-92077500D01*
X106780000Y-92422500D01*
X106779290Y-92436958D01*
X106777166Y-92451276D01*
X106773649Y-92465317D01*
X106768772Y-92478946D01*
X106762583Y-92492031D01*
X106755142Y-92504447D01*
X106746519Y-92516073D01*
X106736798Y-92526798D01*
X106726073Y-92536519D01*
X106714447Y-92545142D01*
X106702031Y-92552583D01*
X106688946Y-92558772D01*
X106675317Y-92563649D01*
X106661276Y-92567166D01*
X106646958Y-92569290D01*
X106632500Y-92570000D01*
X106337500Y-92570000D01*
X106323042Y-92569290D01*
X106308724Y-92567166D01*
X106294683Y-92563649D01*
X106281054Y-92558772D01*
X106267969Y-92552583D01*
X106255553Y-92545142D01*
X106243927Y-92536519D01*
X106233202Y-92526798D01*
X106223481Y-92516073D01*
X106214858Y-92504447D01*
X106207417Y-92492031D01*
X106201228Y-92478946D01*
X106196351Y-92465317D01*
X106192834Y-92451276D01*
X106190710Y-92436958D01*
X106190000Y-92422500D01*
X106190000Y-92077500D01*
X106190710Y-92063042D01*
X106192834Y-92048724D01*
X106196351Y-92034683D01*
X106201228Y-92021054D01*
X106207417Y-92007969D01*
X106214858Y-91995553D01*
X106223481Y-91983927D01*
X106233202Y-91973202D01*
X106243927Y-91963481D01*
X106255553Y-91954858D01*
X106267969Y-91947417D01*
X106281054Y-91941228D01*
X106294683Y-91936351D01*
X106308724Y-91932834D01*
X106323042Y-91930710D01*
X106337500Y-91930000D01*
X106632500Y-91930000D01*
X106646958Y-91930710D01*
G37*
G04 #@! TD.AperFunction*
G04 #@! TA.AperFunction,SMDPad,CuDef*
G36*
X106646958Y-100180710D02*
G01*
X106661276Y-100182834D01*
X106675317Y-100186351D01*
X106688946Y-100191228D01*
X106702031Y-100197417D01*
X106714447Y-100204858D01*
X106726073Y-100213481D01*
X106736798Y-100223202D01*
X106746519Y-100233927D01*
X106755142Y-100245553D01*
X106762583Y-100257969D01*
X106768772Y-100271054D01*
X106773649Y-100284683D01*
X106777166Y-100298724D01*
X106779290Y-100313042D01*
X106780000Y-100327500D01*
X106780000Y-100672500D01*
X106779290Y-100686958D01*
X106777166Y-100701276D01*
X106773649Y-100715317D01*
X106768772Y-100728946D01*
X106762583Y-100742031D01*
X106755142Y-100754447D01*
X106746519Y-100766073D01*
X106736798Y-100776798D01*
X106726073Y-100786519D01*
X106714447Y-100795142D01*
X106702031Y-100802583D01*
X106688946Y-100808772D01*
X106675317Y-100813649D01*
X106661276Y-100817166D01*
X106646958Y-100819290D01*
X106632500Y-100820000D01*
X106337500Y-100820000D01*
X106323042Y-100819290D01*
X106308724Y-100817166D01*
X106294683Y-100813649D01*
X106281054Y-100808772D01*
X106267969Y-100802583D01*
X106255553Y-100795142D01*
X106243927Y-100786519D01*
X106233202Y-100776798D01*
X106223481Y-100766073D01*
X106214858Y-100754447D01*
X106207417Y-100742031D01*
X106201228Y-100728946D01*
X106196351Y-100715317D01*
X106192834Y-100701276D01*
X106190710Y-100686958D01*
X106190000Y-100672500D01*
X106190000Y-100327500D01*
X106190710Y-100313042D01*
X106192834Y-100298724D01*
X106196351Y-100284683D01*
X106201228Y-100271054D01*
X106207417Y-100257969D01*
X106214858Y-100245553D01*
X106223481Y-100233927D01*
X106233202Y-100223202D01*
X106243927Y-100213481D01*
X106255553Y-100204858D01*
X106267969Y-100197417D01*
X106281054Y-100191228D01*
X106294683Y-100186351D01*
X106308724Y-100182834D01*
X106323042Y-100180710D01*
X106337500Y-100180000D01*
X106632500Y-100180000D01*
X106646958Y-100180710D01*
G37*
G04 #@! TD.AperFunction*
G04 #@! TA.AperFunction,SMDPad,CuDef*
G36*
X105676958Y-100180710D02*
G01*
X105691276Y-100182834D01*
X105705317Y-100186351D01*
X105718946Y-100191228D01*
X105732031Y-100197417D01*
X105744447Y-100204858D01*
X105756073Y-100213481D01*
X105766798Y-100223202D01*
X105776519Y-100233927D01*
X105785142Y-100245553D01*
X105792583Y-100257969D01*
X105798772Y-100271054D01*
X105803649Y-100284683D01*
X105807166Y-100298724D01*
X105809290Y-100313042D01*
X105810000Y-100327500D01*
X105810000Y-100672500D01*
X105809290Y-100686958D01*
X105807166Y-100701276D01*
X105803649Y-100715317D01*
X105798772Y-100728946D01*
X105792583Y-100742031D01*
X105785142Y-100754447D01*
X105776519Y-100766073D01*
X105766798Y-100776798D01*
X105756073Y-100786519D01*
X105744447Y-100795142D01*
X105732031Y-100802583D01*
X105718946Y-100808772D01*
X105705317Y-100813649D01*
X105691276Y-100817166D01*
X105676958Y-100819290D01*
X105662500Y-100820000D01*
X105367500Y-100820000D01*
X105353042Y-100819290D01*
X105338724Y-100817166D01*
X105324683Y-100813649D01*
X105311054Y-100808772D01*
X105297969Y-100802583D01*
X105285553Y-100795142D01*
X105273927Y-100786519D01*
X105263202Y-100776798D01*
X105253481Y-100766073D01*
X105244858Y-100754447D01*
X105237417Y-100742031D01*
X105231228Y-100728946D01*
X105226351Y-100715317D01*
X105222834Y-100701276D01*
X105220710Y-100686958D01*
X105220000Y-100672500D01*
X105220000Y-100327500D01*
X105220710Y-100313042D01*
X105222834Y-100298724D01*
X105226351Y-100284683D01*
X105231228Y-100271054D01*
X105237417Y-100257969D01*
X105244858Y-100245553D01*
X105253481Y-100233927D01*
X105263202Y-100223202D01*
X105273927Y-100213481D01*
X105285553Y-100204858D01*
X105297969Y-100197417D01*
X105311054Y-100191228D01*
X105324683Y-100186351D01*
X105338724Y-100182834D01*
X105353042Y-100180710D01*
X105367500Y-100180000D01*
X105662500Y-100180000D01*
X105676958Y-100180710D01*
G37*
G04 #@! TD.AperFunction*
D19*
X106000000Y-95500000D03*
X105050000Y-93500000D03*
X106950000Y-93500000D03*
X106000000Y-97250000D03*
X106950000Y-99250000D03*
X105050000Y-99250000D03*
D20*
X109120000Y-137000000D03*
X106580000Y-137000000D03*
X104040000Y-137000000D03*
D21*
X101500000Y-137000000D03*
D13*
X117620000Y-120000000D03*
X115080000Y-120000000D03*
X112540000Y-120000000D03*
X110000000Y-120000000D03*
X107460000Y-120000000D03*
D14*
X104920000Y-120000000D03*
D13*
X122500000Y-120000000D03*
X122500000Y-117460000D03*
X122500000Y-114920000D03*
X122500000Y-112380000D03*
X122500000Y-109840000D03*
X122500000Y-107300000D03*
X122500000Y-104760000D03*
X122500000Y-102220000D03*
X122500000Y-99680000D03*
X122500000Y-97140000D03*
X122500000Y-94600000D03*
D14*
X122500000Y-92060000D03*
D13*
X100000000Y-119940000D03*
X100000000Y-117400000D03*
X100000000Y-114860000D03*
X100000000Y-112320000D03*
X100000000Y-109780000D03*
X100000000Y-107240000D03*
X100000000Y-104700000D03*
X100000000Y-102160000D03*
X100000000Y-99620000D03*
X100000000Y-97080000D03*
X100000000Y-94540000D03*
D14*
X100000000Y-92000000D03*
G04 #@! TA.AperFunction,SMDPad,CuDef*
D11*
G36*
X103686958Y-96690710D02*
G01*
X103701276Y-96692834D01*
X103715317Y-96696351D01*
X103728946Y-96701228D01*
X103742031Y-96707417D01*
X103754447Y-96714858D01*
X103766073Y-96723481D01*
X103776798Y-96733202D01*
X103786519Y-96743927D01*
X103795142Y-96755553D01*
X103802583Y-96767969D01*
X103808772Y-96781054D01*
X103813649Y-96794683D01*
X103817166Y-96808724D01*
X103819290Y-96823042D01*
X103820000Y-96837500D01*
X103820000Y-97132500D01*
X103819290Y-97146958D01*
X103817166Y-97161276D01*
X103813649Y-97175317D01*
X103808772Y-97188946D01*
X103802583Y-97202031D01*
X103795142Y-97214447D01*
X103786519Y-97226073D01*
X103776798Y-97236798D01*
X103766073Y-97246519D01*
X103754447Y-97255142D01*
X103742031Y-97262583D01*
X103728946Y-97268772D01*
X103715317Y-97273649D01*
X103701276Y-97277166D01*
X103686958Y-97279290D01*
X103672500Y-97280000D01*
X103327500Y-97280000D01*
X103313042Y-97279290D01*
X103298724Y-97277166D01*
X103284683Y-97273649D01*
X103271054Y-97268772D01*
X103257969Y-97262583D01*
X103245553Y-97255142D01*
X103233927Y-97246519D01*
X103223202Y-97236798D01*
X103213481Y-97226073D01*
X103204858Y-97214447D01*
X103197417Y-97202031D01*
X103191228Y-97188946D01*
X103186351Y-97175317D01*
X103182834Y-97161276D01*
X103180710Y-97146958D01*
X103180000Y-97132500D01*
X103180000Y-96837500D01*
X103180710Y-96823042D01*
X103182834Y-96808724D01*
X103186351Y-96794683D01*
X103191228Y-96781054D01*
X103197417Y-96767969D01*
X103204858Y-96755553D01*
X103213481Y-96743927D01*
X103223202Y-96733202D01*
X103233927Y-96723481D01*
X103245553Y-96714858D01*
X103257969Y-96707417D01*
X103271054Y-96701228D01*
X103284683Y-96696351D01*
X103298724Y-96692834D01*
X103313042Y-96690710D01*
X103327500Y-96690000D01*
X103672500Y-96690000D01*
X103686958Y-96690710D01*
G37*
G04 #@! TD.AperFunction*
G04 #@! TA.AperFunction,SMDPad,CuDef*
G36*
X103686958Y-95720710D02*
G01*
X103701276Y-95722834D01*
X103715317Y-95726351D01*
X103728946Y-95731228D01*
X103742031Y-95737417D01*
X103754447Y-95744858D01*
X103766073Y-95753481D01*
X103776798Y-95763202D01*
X103786519Y-95773927D01*
X103795142Y-95785553D01*
X103802583Y-95797969D01*
X103808772Y-95811054D01*
X103813649Y-95824683D01*
X103817166Y-95838724D01*
X103819290Y-95853042D01*
X103820000Y-95867500D01*
X103820000Y-96162500D01*
X103819290Y-96176958D01*
X103817166Y-96191276D01*
X103813649Y-96205317D01*
X103808772Y-96218946D01*
X103802583Y-96232031D01*
X103795142Y-96244447D01*
X103786519Y-96256073D01*
X103776798Y-96266798D01*
X103766073Y-96276519D01*
X103754447Y-96285142D01*
X103742031Y-96292583D01*
X103728946Y-96298772D01*
X103715317Y-96303649D01*
X103701276Y-96307166D01*
X103686958Y-96309290D01*
X103672500Y-96310000D01*
X103327500Y-96310000D01*
X103313042Y-96309290D01*
X103298724Y-96307166D01*
X103284683Y-96303649D01*
X103271054Y-96298772D01*
X103257969Y-96292583D01*
X103245553Y-96285142D01*
X103233927Y-96276519D01*
X103223202Y-96266798D01*
X103213481Y-96256073D01*
X103204858Y-96244447D01*
X103197417Y-96232031D01*
X103191228Y-96218946D01*
X103186351Y-96205317D01*
X103182834Y-96191276D01*
X103180710Y-96176958D01*
X103180000Y-96162500D01*
X103180000Y-95867500D01*
X103180710Y-95853042D01*
X103182834Y-95838724D01*
X103186351Y-95824683D01*
X103191228Y-95811054D01*
X103197417Y-95797969D01*
X103204858Y-95785553D01*
X103213481Y-95773927D01*
X103223202Y-95763202D01*
X103233927Y-95753481D01*
X103245553Y-95744858D01*
X103257969Y-95737417D01*
X103271054Y-95731228D01*
X103284683Y-95726351D01*
X103298724Y-95722834D01*
X103313042Y-95720710D01*
X103327500Y-95720000D01*
X103672500Y-95720000D01*
X103686958Y-95720710D01*
G37*
G04 #@! TD.AperFunction*
D22*
X105000000Y-115100000D03*
X105000000Y-113000000D03*
X109500000Y-113000000D03*
X109500000Y-115100000D03*
X114000000Y-115050000D03*
X114000000Y-112900000D03*
X105000000Y-114050000D03*
X109500000Y-114050000D03*
X111250000Y-112500000D03*
X111250000Y-115500000D03*
X106750000Y-112500000D03*
X106750000Y-115500000D03*
X115750000Y-115500000D03*
X115750000Y-112500000D03*
X111649990Y-105750000D03*
X116149990Y-105750000D03*
X107149990Y-105750000D03*
X104750000Y-96500000D03*
X118000000Y-99500000D03*
X118000002Y-102000000D03*
X109250000Y-105750000D03*
X113750000Y-105750000D03*
X104750000Y-105750000D03*
X118250000Y-115000000D03*
X114000000Y-114000000D03*
D23*
X100000000Y-97080000D02*
X101830000Y-97080000D01*
X101830000Y-97080000D02*
X102500000Y-97750000D01*
X102500000Y-97750000D02*
X102500000Y-98750000D01*
X102500000Y-98750000D02*
X103000000Y-99250000D01*
D24*
X103500000Y-96985000D02*
X103500000Y-99250000D01*
D23*
X103000000Y-99250000D02*
X103500000Y-99250000D01*
X103500000Y-99250000D02*
X105050000Y-99250000D01*
D24*
X110500000Y-106050000D02*
X111450000Y-106050000D01*
X111450000Y-106050000D02*
X111649990Y-105850010D01*
X111649990Y-105850010D02*
X111649990Y-105750000D01*
X115000000Y-106050000D02*
X115950000Y-106050000D01*
X115950000Y-106050000D02*
X116149990Y-105850010D01*
X116149990Y-105850010D02*
X116149990Y-105750000D01*
X106000000Y-106050000D02*
X106950000Y-106050000D01*
X106950000Y-106050000D02*
X107149990Y-105850010D01*
X107149990Y-105850010D02*
X107149990Y-105750000D01*
D25*
X116075000Y-112175000D02*
X115750000Y-112500000D01*
X116075000Y-111050000D02*
X116075000Y-112175000D01*
X115425000Y-112175000D02*
X115750000Y-112500000D01*
X115425000Y-111050000D02*
X115425000Y-112175000D01*
X110925000Y-112175000D02*
X111250000Y-112500000D01*
X110925000Y-111050000D02*
X110925000Y-112175000D01*
X111575000Y-112175000D02*
X111250000Y-112500000D01*
X111575000Y-111050000D02*
X111575000Y-112175000D01*
X106425000Y-112175000D02*
X106750000Y-112500000D01*
X106425000Y-111050000D02*
X106425000Y-112175000D01*
X107075000Y-112175000D02*
X106750000Y-112500000D01*
X107075000Y-111050000D02*
X107075000Y-112175000D01*
X106425000Y-115825000D02*
X106750000Y-115500000D01*
X106425000Y-116950000D02*
X106425000Y-115825000D01*
X107075000Y-115825000D02*
X106750000Y-115500000D01*
X107075000Y-116950000D02*
X107075000Y-115825000D01*
X110925000Y-115825000D02*
X111250000Y-115500000D01*
X110925000Y-116950000D02*
X110925000Y-115825000D01*
X111575000Y-115825000D02*
X111250000Y-115500000D01*
X111575000Y-116950000D02*
X111575000Y-115825000D01*
X115425000Y-115825000D02*
X115750000Y-115500000D01*
X115425000Y-116950000D02*
X115425000Y-115825000D01*
X116075000Y-115825000D02*
X115750000Y-115500000D01*
X116075000Y-116950000D02*
X116075000Y-115825000D01*
D24*
X104015000Y-95500000D02*
X103500000Y-96015000D01*
X104750000Y-95500000D02*
X104750000Y-96500000D01*
X104750000Y-95500000D02*
X104015000Y-95500000D01*
X106000000Y-95500000D02*
X104750000Y-95500000D01*
X106950000Y-92715000D02*
X106485000Y-92250000D01*
X106950000Y-93500000D02*
X106950000Y-92715000D01*
X106950000Y-97050000D02*
X106950000Y-93500000D01*
X106000000Y-97250000D02*
X106750000Y-97250000D01*
X106750000Y-97250000D02*
X106950000Y-97050000D01*
X106485000Y-100500000D02*
X106985000Y-100000000D01*
X106985000Y-99285000D02*
X106950000Y-99250000D01*
X106985000Y-100000000D02*
X106985000Y-99285000D01*
D23*
X100000000Y-94540000D02*
X101960000Y-94540000D01*
X103000000Y-93500000D02*
X105050000Y-93500000D01*
X101960000Y-94540000D02*
X103000000Y-93500000D01*
D24*
X105050000Y-92715000D02*
X105515000Y-92250000D01*
X105050000Y-93500000D02*
X105050000Y-92715000D01*
X101202081Y-114860000D02*
X102250000Y-113812081D01*
X100000000Y-114860000D02*
X101202081Y-114860000D01*
X102250000Y-113812081D02*
X102250000Y-101500000D01*
X102250000Y-101500000D02*
X103250000Y-100500000D01*
X103250000Y-100500000D02*
X105515000Y-100500000D01*
X118580000Y-130580000D02*
X117799990Y-129799990D01*
X120000000Y-130580000D02*
X118580000Y-130580000D01*
X117799990Y-129799990D02*
X117799990Y-123700010D01*
X118750000Y-102000000D02*
X118000002Y-102000000D01*
X117799990Y-123700010D02*
X119250000Y-122250000D01*
X119250000Y-122250000D02*
X119250000Y-102500000D01*
X119250000Y-102500000D02*
X118750000Y-102000000D01*
X122500000Y-128000000D02*
X122540000Y-128040000D01*
X121750000Y-128000000D02*
X122500000Y-128000000D01*
X121400000Y-94600000D02*
X120856969Y-95143031D01*
X122500000Y-94600000D02*
X121400000Y-94600000D01*
X120856969Y-95143031D02*
X120856969Y-123540819D01*
X120856969Y-123540819D02*
X121327999Y-124011849D01*
X121327999Y-124011849D02*
X121327999Y-127577999D01*
X121327999Y-127577999D02*
X121750000Y-128000000D01*
X120690000Y-92060000D02*
X122500000Y-92060000D01*
X119040000Y-128040000D02*
X118500000Y-127500000D01*
X120000000Y-128040000D02*
X119040000Y-128040000D01*
X118500000Y-127500000D02*
X118500000Y-124250000D01*
X118500000Y-124250000D02*
X120000000Y-122750000D01*
X120000000Y-122750000D02*
X120000000Y-92750000D01*
X120000000Y-92750000D02*
X120690000Y-92060000D01*
X109250000Y-107030000D02*
X109250000Y-105750000D01*
X113750000Y-107015000D02*
X113750000Y-105750000D01*
X104750000Y-107015000D02*
X104750000Y-105750000D01*
X100000000Y-92000000D02*
X103500000Y-92000000D01*
X103500000Y-92000000D02*
X104250000Y-91250000D01*
X104250000Y-91250000D02*
X107750000Y-91250000D01*
X107750000Y-91250000D02*
X108000000Y-91500000D01*
X108000000Y-91500000D02*
X108000000Y-103765000D01*
X108000000Y-103765000D02*
X112500000Y-103765000D01*
X112500000Y-103765000D02*
X117000000Y-103765000D01*
D25*
X114775000Y-117975000D02*
X114775000Y-116950000D01*
X114500000Y-118250000D02*
X114775000Y-117975000D01*
X111034999Y-135085001D02*
X111034999Y-122784999D01*
X109120000Y-137000000D02*
X111034999Y-135085001D01*
X111034999Y-122784999D02*
X111250000Y-122569998D01*
X111250000Y-122569998D02*
X111250000Y-119250000D01*
X111250000Y-119250000D02*
X112250000Y-118250000D01*
X112250000Y-118250000D02*
X114500000Y-118250000D01*
X114600000Y-114000000D02*
X114750000Y-113850000D01*
X114775000Y-111050000D02*
X114750000Y-113850000D01*
X114000000Y-114000000D02*
X114000000Y-114000000D01*
X114750000Y-113850000D02*
X114775000Y-116950000D01*
X114000000Y-114000000D02*
X114600000Y-114000000D01*
X108494999Y-135085001D02*
X106580000Y-137000000D01*
X108494999Y-122839999D02*
X108494999Y-135085001D01*
X108635001Y-122699997D02*
X108494999Y-122839999D01*
X108635001Y-119089999D02*
X108635001Y-122699997D01*
X110275000Y-116950000D02*
X110275000Y-117450000D01*
X110275000Y-117450000D02*
X108635001Y-119089999D01*
X110200000Y-114050000D02*
X110250000Y-114000000D01*
X109500000Y-114050000D02*
X110200000Y-114050000D01*
X110275000Y-111050000D02*
X110250000Y-114000000D01*
X110250000Y-114000000D02*
X110275000Y-116950000D01*
X105089999Y-135950001D02*
X104040000Y-137000000D01*
X105954999Y-135085001D02*
X105089999Y-135950001D01*
X105954999Y-122795001D02*
X105954999Y-135085001D01*
X106095001Y-122654999D02*
X105954999Y-122795001D01*
X106095001Y-118889999D02*
X106095001Y-122654999D01*
X105775000Y-118569998D02*
X106095001Y-118889999D01*
X105775000Y-116950000D02*
X105775000Y-118569998D01*
X105700000Y-114050000D02*
X105750000Y-114000000D01*
X105000000Y-114050000D02*
X105700000Y-114050000D01*
X105775000Y-111050000D02*
X105750000Y-114000000D01*
X105750000Y-114000000D02*
X105775000Y-116950000D01*
D24*
X108000000Y-105130000D02*
X108000000Y-104735000D01*
X108000000Y-107000000D02*
X108000000Y-105130000D01*
D25*
X107725000Y-111050000D02*
X107725000Y-108775000D01*
X108000000Y-108500000D02*
X108000000Y-107000000D01*
X107725000Y-108775000D02*
X108000000Y-108500000D01*
X107725000Y-116950000D02*
X107725000Y-111050000D01*
D24*
X104785000Y-107950000D02*
X104750000Y-107985000D01*
X106000000Y-107950000D02*
X104785000Y-107950000D01*
X112500000Y-106258002D02*
X112500000Y-104735000D01*
X112500000Y-107000000D02*
X112500000Y-106258002D01*
D25*
X112225000Y-111050000D02*
X112225000Y-108775000D01*
X112500000Y-108500000D02*
X112500000Y-107000000D01*
X112225000Y-108775000D02*
X112500000Y-108500000D01*
X112225000Y-116950000D02*
X112225000Y-111050000D01*
D24*
X109300000Y-107950000D02*
X109250000Y-108000000D01*
X110500000Y-107950000D02*
X109300000Y-107950000D01*
X117000000Y-105130000D02*
X117000000Y-104735000D01*
X117000000Y-107000000D02*
X117000000Y-105130000D01*
D25*
X116725000Y-110075000D02*
X116750000Y-110050000D01*
X116725000Y-111050000D02*
X116725000Y-110075000D01*
X116750000Y-110050000D02*
X116750000Y-108750000D01*
X117000000Y-108500000D02*
X117000000Y-107000000D01*
X116750000Y-108750000D02*
X117000000Y-108500000D01*
X116725000Y-116950000D02*
X116725000Y-111050000D01*
D24*
X113785000Y-107950000D02*
X113750000Y-107985000D01*
X115000000Y-107950000D02*
X113785000Y-107950000D01*
D26*
G36*
X113373000Y-93500000D02*
G01*
X113375440Y-93524776D01*
X113382667Y-93548601D01*
X113394403Y-93570557D01*
X113410197Y-93589803D01*
X113429443Y-93605597D01*
X113451399Y-93617333D01*
X113475224Y-93624560D01*
X113500000Y-93627000D01*
X117373000Y-93627000D01*
X117373000Y-98674164D01*
X117340226Y-98696063D01*
X117196063Y-98840226D01*
X117082795Y-99009744D01*
X117004774Y-99198102D01*
X116965000Y-99398061D01*
X116965000Y-99601939D01*
X117004774Y-99801898D01*
X117082795Y-99990256D01*
X117196063Y-100159774D01*
X117340226Y-100303937D01*
X117373000Y-100325836D01*
X117373000Y-101174166D01*
X117340228Y-101196063D01*
X117196065Y-101340226D01*
X117082797Y-101509744D01*
X117004776Y-101698102D01*
X116965002Y-101898061D01*
X116965002Y-102101939D01*
X117004776Y-102301898D01*
X117082797Y-102490256D01*
X117196065Y-102659774D01*
X117340228Y-102803937D01*
X117373000Y-102825835D01*
X117373000Y-102837148D01*
X117320000Y-102831928D01*
X117285750Y-102835000D01*
X117127000Y-102993750D01*
X117127000Y-103638000D01*
X117147000Y-103638000D01*
X117147000Y-103801928D01*
X116827500Y-103801928D01*
X116674243Y-103817023D01*
X116526875Y-103861726D01*
X116505783Y-103873000D01*
X112994217Y-103873000D01*
X112973125Y-103861726D01*
X112825757Y-103817023D01*
X112672500Y-103801928D01*
X112327500Y-103801928D01*
X112174243Y-103817023D01*
X112026875Y-103861726D01*
X112005783Y-103873000D01*
X108494217Y-103873000D01*
X108473125Y-103861726D01*
X108325757Y-103817023D01*
X108172500Y-103801928D01*
X107877000Y-103801928D01*
X107877000Y-102993750D01*
X108127000Y-102993750D01*
X108127000Y-103638000D01*
X108796250Y-103638000D01*
X108955000Y-103479250D01*
X108958072Y-103470000D01*
X111541928Y-103470000D01*
X111545000Y-103479250D01*
X111703750Y-103638000D01*
X112373000Y-103638000D01*
X112373000Y-102993750D01*
X112627000Y-102993750D01*
X112627000Y-103638000D01*
X113296250Y-103638000D01*
X113455000Y-103479250D01*
X113458072Y-103470000D01*
X116041928Y-103470000D01*
X116045000Y-103479250D01*
X116203750Y-103638000D01*
X116873000Y-103638000D01*
X116873000Y-102993750D01*
X116714250Y-102835000D01*
X116680000Y-102831928D01*
X116555518Y-102844188D01*
X116435820Y-102880498D01*
X116325506Y-102939463D01*
X116228815Y-103018815D01*
X116149463Y-103115506D01*
X116090498Y-103225820D01*
X116054188Y-103345518D01*
X116041928Y-103470000D01*
X113458072Y-103470000D01*
X113445812Y-103345518D01*
X113409502Y-103225820D01*
X113350537Y-103115506D01*
X113271185Y-103018815D01*
X113174494Y-102939463D01*
X113064180Y-102880498D01*
X112944482Y-102844188D01*
X112820000Y-102831928D01*
X112785750Y-102835000D01*
X112627000Y-102993750D01*
X112373000Y-102993750D01*
X112214250Y-102835000D01*
X112180000Y-102831928D01*
X112055518Y-102844188D01*
X111935820Y-102880498D01*
X111825506Y-102939463D01*
X111728815Y-103018815D01*
X111649463Y-103115506D01*
X111590498Y-103225820D01*
X111554188Y-103345518D01*
X111541928Y-103470000D01*
X108958072Y-103470000D01*
X108945812Y-103345518D01*
X108909502Y-103225820D01*
X108850537Y-103115506D01*
X108771185Y-103018815D01*
X108674494Y-102939463D01*
X108564180Y-102880498D01*
X108444482Y-102844188D01*
X108320000Y-102831928D01*
X108285750Y-102835000D01*
X108127000Y-102993750D01*
X107877000Y-102993750D01*
X107877000Y-100058804D01*
X107880537Y-100054494D01*
X107939502Y-99944180D01*
X107975812Y-99824482D01*
X107988072Y-99700000D01*
X107988072Y-98800000D01*
X107975812Y-98675518D01*
X107939502Y-98555820D01*
X107880537Y-98445506D01*
X107877000Y-98441196D01*
X107877000Y-94308804D01*
X107880537Y-94304494D01*
X107939502Y-94194180D01*
X107975812Y-94074482D01*
X107988072Y-93950000D01*
X107988072Y-93050000D01*
X107975812Y-92925518D01*
X107939502Y-92805820D01*
X107880537Y-92695506D01*
X107831474Y-92635722D01*
X107822195Y-92541510D01*
X107771589Y-92374687D01*
X107689411Y-92220941D01*
X107578817Y-92086183D01*
X107545044Y-92058466D01*
X107399562Y-91912984D01*
X107358274Y-91776875D01*
X107285679Y-91641060D01*
X107187983Y-91522017D01*
X107068940Y-91424321D01*
X106933125Y-91351726D01*
X106785757Y-91307023D01*
X106632500Y-91291928D01*
X106337500Y-91291928D01*
X106184243Y-91307023D01*
X106036875Y-91351726D01*
X106000000Y-91371436D01*
X105963125Y-91351726D01*
X105815757Y-91307023D01*
X105662500Y-91291928D01*
X105367500Y-91291928D01*
X105214243Y-91307023D01*
X105066875Y-91351726D01*
X104931060Y-91424321D01*
X104812017Y-91522017D01*
X104714321Y-91641060D01*
X104641726Y-91776875D01*
X104600438Y-91912984D01*
X104454952Y-92058470D01*
X104421184Y-92086183D01*
X104393471Y-92119951D01*
X104393468Y-92119954D01*
X104310590Y-92220941D01*
X104228412Y-92374687D01*
X104193431Y-92490000D01*
X103049604Y-92490000D01*
X102999999Y-92485114D01*
X102950394Y-92490000D01*
X102950392Y-92490000D01*
X102802006Y-92504615D01*
X102611620Y-92562368D01*
X102436160Y-92656153D01*
X102282367Y-92782367D01*
X102250739Y-92820906D01*
X102198645Y-92873000D01*
X101485807Y-92873000D01*
X101488072Y-92850000D01*
X101485000Y-92285750D01*
X101326250Y-92127000D01*
X100127000Y-92127000D01*
X100127000Y-92147000D01*
X99873000Y-92147000D01*
X99873000Y-92127000D01*
X99853000Y-92127000D01*
X99853000Y-91873000D01*
X99873000Y-91873000D01*
X99873000Y-91853000D01*
X100127000Y-91853000D01*
X100127000Y-91873000D01*
X101326250Y-91873000D01*
X101485000Y-91714250D01*
X101488018Y-91160000D01*
X113373000Y-91160000D01*
X113373000Y-93500000D01*
G37*
X113373000Y-93500000D02*
X113375440Y-93524776D01*
X113382667Y-93548601D01*
X113394403Y-93570557D01*
X113410197Y-93589803D01*
X113429443Y-93605597D01*
X113451399Y-93617333D01*
X113475224Y-93624560D01*
X113500000Y-93627000D01*
X117373000Y-93627000D01*
X117373000Y-98674164D01*
X117340226Y-98696063D01*
X117196063Y-98840226D01*
X117082795Y-99009744D01*
X117004774Y-99198102D01*
X116965000Y-99398061D01*
X116965000Y-99601939D01*
X117004774Y-99801898D01*
X117082795Y-99990256D01*
X117196063Y-100159774D01*
X117340226Y-100303937D01*
X117373000Y-100325836D01*
X117373000Y-101174166D01*
X117340228Y-101196063D01*
X117196065Y-101340226D01*
X117082797Y-101509744D01*
X117004776Y-101698102D01*
X116965002Y-101898061D01*
X116965002Y-102101939D01*
X117004776Y-102301898D01*
X117082797Y-102490256D01*
X117196065Y-102659774D01*
X117340228Y-102803937D01*
X117373000Y-102825835D01*
X117373000Y-102837148D01*
X117320000Y-102831928D01*
X117285750Y-102835000D01*
X117127000Y-102993750D01*
X117127000Y-103638000D01*
X117147000Y-103638000D01*
X117147000Y-103801928D01*
X116827500Y-103801928D01*
X116674243Y-103817023D01*
X116526875Y-103861726D01*
X116505783Y-103873000D01*
X112994217Y-103873000D01*
X112973125Y-103861726D01*
X112825757Y-103817023D01*
X112672500Y-103801928D01*
X112327500Y-103801928D01*
X112174243Y-103817023D01*
X112026875Y-103861726D01*
X112005783Y-103873000D01*
X108494217Y-103873000D01*
X108473125Y-103861726D01*
X108325757Y-103817023D01*
X108172500Y-103801928D01*
X107877000Y-103801928D01*
X107877000Y-102993750D01*
X108127000Y-102993750D01*
X108127000Y-103638000D01*
X108796250Y-103638000D01*
X108955000Y-103479250D01*
X108958072Y-103470000D01*
X111541928Y-103470000D01*
X111545000Y-103479250D01*
X111703750Y-103638000D01*
X112373000Y-103638000D01*
X112373000Y-102993750D01*
X112627000Y-102993750D01*
X112627000Y-103638000D01*
X113296250Y-103638000D01*
X113455000Y-103479250D01*
X113458072Y-103470000D01*
X116041928Y-103470000D01*
X116045000Y-103479250D01*
X116203750Y-103638000D01*
X116873000Y-103638000D01*
X116873000Y-102993750D01*
X116714250Y-102835000D01*
X116680000Y-102831928D01*
X116555518Y-102844188D01*
X116435820Y-102880498D01*
X116325506Y-102939463D01*
X116228815Y-103018815D01*
X116149463Y-103115506D01*
X116090498Y-103225820D01*
X116054188Y-103345518D01*
X116041928Y-103470000D01*
X113458072Y-103470000D01*
X113445812Y-103345518D01*
X113409502Y-103225820D01*
X113350537Y-103115506D01*
X113271185Y-103018815D01*
X113174494Y-102939463D01*
X113064180Y-102880498D01*
X112944482Y-102844188D01*
X112820000Y-102831928D01*
X112785750Y-102835000D01*
X112627000Y-102993750D01*
X112373000Y-102993750D01*
X112214250Y-102835000D01*
X112180000Y-102831928D01*
X112055518Y-102844188D01*
X111935820Y-102880498D01*
X111825506Y-102939463D01*
X111728815Y-103018815D01*
X111649463Y-103115506D01*
X111590498Y-103225820D01*
X111554188Y-103345518D01*
X111541928Y-103470000D01*
X108958072Y-103470000D01*
X108945812Y-103345518D01*
X108909502Y-103225820D01*
X108850537Y-103115506D01*
X108771185Y-103018815D01*
X108674494Y-102939463D01*
X108564180Y-102880498D01*
X108444482Y-102844188D01*
X108320000Y-102831928D01*
X108285750Y-102835000D01*
X108127000Y-102993750D01*
X107877000Y-102993750D01*
X107877000Y-100058804D01*
X107880537Y-100054494D01*
X107939502Y-99944180D01*
X107975812Y-99824482D01*
X107988072Y-99700000D01*
X107988072Y-98800000D01*
X107975812Y-98675518D01*
X107939502Y-98555820D01*
X107880537Y-98445506D01*
X107877000Y-98441196D01*
X107877000Y-94308804D01*
X107880537Y-94304494D01*
X107939502Y-94194180D01*
X107975812Y-94074482D01*
X107988072Y-93950000D01*
X107988072Y-93050000D01*
X107975812Y-92925518D01*
X107939502Y-92805820D01*
X107880537Y-92695506D01*
X107831474Y-92635722D01*
X107822195Y-92541510D01*
X107771589Y-92374687D01*
X107689411Y-92220941D01*
X107578817Y-92086183D01*
X107545044Y-92058466D01*
X107399562Y-91912984D01*
X107358274Y-91776875D01*
X107285679Y-91641060D01*
X107187983Y-91522017D01*
X107068940Y-91424321D01*
X106933125Y-91351726D01*
X106785757Y-91307023D01*
X106632500Y-91291928D01*
X106337500Y-91291928D01*
X106184243Y-91307023D01*
X106036875Y-91351726D01*
X106000000Y-91371436D01*
X105963125Y-91351726D01*
X105815757Y-91307023D01*
X105662500Y-91291928D01*
X105367500Y-91291928D01*
X105214243Y-91307023D01*
X105066875Y-91351726D01*
X104931060Y-91424321D01*
X104812017Y-91522017D01*
X104714321Y-91641060D01*
X104641726Y-91776875D01*
X104600438Y-91912984D01*
X104454952Y-92058470D01*
X104421184Y-92086183D01*
X104393471Y-92119951D01*
X104393468Y-92119954D01*
X104310590Y-92220941D01*
X104228412Y-92374687D01*
X104193431Y-92490000D01*
X103049604Y-92490000D01*
X102999999Y-92485114D01*
X102950394Y-92490000D01*
X102950392Y-92490000D01*
X102802006Y-92504615D01*
X102611620Y-92562368D01*
X102436160Y-92656153D01*
X102282367Y-92782367D01*
X102250739Y-92820906D01*
X102198645Y-92873000D01*
X101485807Y-92873000D01*
X101488072Y-92850000D01*
X101485000Y-92285750D01*
X101326250Y-92127000D01*
X100127000Y-92127000D01*
X100127000Y-92147000D01*
X99873000Y-92147000D01*
X99873000Y-92127000D01*
X99853000Y-92127000D01*
X99853000Y-91873000D01*
X99873000Y-91873000D01*
X99873000Y-91853000D01*
X100127000Y-91853000D01*
X100127000Y-91873000D01*
X101326250Y-91873000D01*
X101485000Y-91714250D01*
X101488018Y-91160000D01*
X113373000Y-91160000D01*
X113373000Y-93500000D01*
G36*
X102541928Y-96162500D02*
G01*
X102557023Y-96315757D01*
X102594312Y-96438684D01*
X102590498Y-96445820D01*
X102554188Y-96565518D01*
X102541928Y-96690000D01*
X102545000Y-96699250D01*
X102703750Y-96858000D01*
X102970237Y-96858000D01*
X103026875Y-96888274D01*
X103174243Y-96932977D01*
X103327500Y-96948072D01*
X103647000Y-96948072D01*
X103647000Y-97112000D01*
X103627000Y-97112000D01*
X103627000Y-97756250D01*
X103785750Y-97915000D01*
X103820000Y-97918072D01*
X103944482Y-97905812D01*
X104064180Y-97869502D01*
X104174494Y-97810537D01*
X104271185Y-97731185D01*
X104350537Y-97634494D01*
X104409502Y-97524180D01*
X104421613Y-97484254D01*
X104448102Y-97495226D01*
X104648061Y-97535000D01*
X104851939Y-97535000D01*
X104961928Y-97513122D01*
X104961928Y-97700000D01*
X104974188Y-97824482D01*
X105010498Y-97944180D01*
X105069463Y-98054494D01*
X105148815Y-98151185D01*
X105245506Y-98230537D01*
X105261607Y-98239143D01*
X105177000Y-98323750D01*
X105177000Y-99123000D01*
X105197000Y-99123000D01*
X105197000Y-99373000D01*
X101464961Y-99373000D01*
X101427932Y-99186842D01*
X101315990Y-98916589D01*
X101238088Y-98800000D01*
X104011928Y-98800000D01*
X104015000Y-98964250D01*
X104173750Y-99123000D01*
X104923000Y-99123000D01*
X104923000Y-98323750D01*
X104764250Y-98165000D01*
X104650000Y-98161928D01*
X104525518Y-98174188D01*
X104405820Y-98210498D01*
X104295506Y-98269463D01*
X104198815Y-98348815D01*
X104119463Y-98445506D01*
X104060498Y-98555820D01*
X104024188Y-98675518D01*
X104011928Y-98800000D01*
X101238088Y-98800000D01*
X101153475Y-98673368D01*
X100946632Y-98466525D01*
X100764466Y-98344805D01*
X100881355Y-98275178D01*
X101097588Y-98080269D01*
X101271641Y-97846920D01*
X101396825Y-97584099D01*
X101441476Y-97436890D01*
X101358680Y-97280000D01*
X102541928Y-97280000D01*
X102554188Y-97404482D01*
X102590498Y-97524180D01*
X102649463Y-97634494D01*
X102728815Y-97731185D01*
X102825506Y-97810537D01*
X102935820Y-97869502D01*
X103055518Y-97905812D01*
X103180000Y-97918072D01*
X103214250Y-97915000D01*
X103373000Y-97756250D01*
X103373000Y-97112000D01*
X102703750Y-97112000D01*
X102545000Y-97270750D01*
X102541928Y-97280000D01*
X101358680Y-97280000D01*
X101320155Y-97207000D01*
X100127000Y-97207000D01*
X100127000Y-97227000D01*
X99873000Y-97227000D01*
X99873000Y-97207000D01*
X99853000Y-97207000D01*
X99853000Y-96953000D01*
X99873000Y-96953000D01*
X99873000Y-96933000D01*
X100127000Y-96933000D01*
X100127000Y-96953000D01*
X101320155Y-96953000D01*
X101441476Y-96723110D01*
X101396825Y-96575901D01*
X101271641Y-96313080D01*
X101132846Y-96127000D01*
X102541928Y-96127000D01*
X102541928Y-96162500D01*
G37*
X102541928Y-96162500D02*
X102557023Y-96315757D01*
X102594312Y-96438684D01*
X102590498Y-96445820D01*
X102554188Y-96565518D01*
X102541928Y-96690000D01*
X102545000Y-96699250D01*
X102703750Y-96858000D01*
X102970237Y-96858000D01*
X103026875Y-96888274D01*
X103174243Y-96932977D01*
X103327500Y-96948072D01*
X103647000Y-96948072D01*
X103647000Y-97112000D01*
X103627000Y-97112000D01*
X103627000Y-97756250D01*
X103785750Y-97915000D01*
X103820000Y-97918072D01*
X103944482Y-97905812D01*
X104064180Y-97869502D01*
X104174494Y-97810537D01*
X104271185Y-97731185D01*
X104350537Y-97634494D01*
X104409502Y-97524180D01*
X104421613Y-97484254D01*
X104448102Y-97495226D01*
X104648061Y-97535000D01*
X104851939Y-97535000D01*
X104961928Y-97513122D01*
X104961928Y-97700000D01*
X104974188Y-97824482D01*
X105010498Y-97944180D01*
X105069463Y-98054494D01*
X105148815Y-98151185D01*
X105245506Y-98230537D01*
X105261607Y-98239143D01*
X105177000Y-98323750D01*
X105177000Y-99123000D01*
X105197000Y-99123000D01*
X105197000Y-99373000D01*
X101464961Y-99373000D01*
X101427932Y-99186842D01*
X101315990Y-98916589D01*
X101238088Y-98800000D01*
X104011928Y-98800000D01*
X104015000Y-98964250D01*
X104173750Y-99123000D01*
X104923000Y-99123000D01*
X104923000Y-98323750D01*
X104764250Y-98165000D01*
X104650000Y-98161928D01*
X104525518Y-98174188D01*
X104405820Y-98210498D01*
X104295506Y-98269463D01*
X104198815Y-98348815D01*
X104119463Y-98445506D01*
X104060498Y-98555820D01*
X104024188Y-98675518D01*
X104011928Y-98800000D01*
X101238088Y-98800000D01*
X101153475Y-98673368D01*
X100946632Y-98466525D01*
X100764466Y-98344805D01*
X100881355Y-98275178D01*
X101097588Y-98080269D01*
X101271641Y-97846920D01*
X101396825Y-97584099D01*
X101441476Y-97436890D01*
X101358680Y-97280000D01*
X102541928Y-97280000D01*
X102554188Y-97404482D01*
X102590498Y-97524180D01*
X102649463Y-97634494D01*
X102728815Y-97731185D01*
X102825506Y-97810537D01*
X102935820Y-97869502D01*
X103055518Y-97905812D01*
X103180000Y-97918072D01*
X103214250Y-97915000D01*
X103373000Y-97756250D01*
X103373000Y-97112000D01*
X102703750Y-97112000D01*
X102545000Y-97270750D01*
X102541928Y-97280000D01*
X101358680Y-97280000D01*
X101320155Y-97207000D01*
X100127000Y-97207000D01*
X100127000Y-97227000D01*
X99873000Y-97227000D01*
X99873000Y-97207000D01*
X99853000Y-97207000D01*
X99853000Y-96953000D01*
X99873000Y-96953000D01*
X99873000Y-96933000D01*
X100127000Y-96933000D01*
X100127000Y-96953000D01*
X101320155Y-96953000D01*
X101441476Y-96723110D01*
X101396825Y-96575901D01*
X101271641Y-96313080D01*
X101132846Y-96127000D01*
X102541928Y-96127000D01*
X102541928Y-96162500D01*
G36*
X104956849Y-110089825D02*
G01*
X104922366Y-110210061D01*
X104912002Y-110334715D01*
X104915000Y-110764250D01*
X105073750Y-110923000D01*
X105561928Y-110923000D01*
X105561928Y-111177000D01*
X105073750Y-111177000D01*
X104915000Y-111335750D01*
X104912002Y-111765285D01*
X104922366Y-111889939D01*
X104956849Y-112010175D01*
X105014126Y-112121375D01*
X105091997Y-112219263D01*
X105187469Y-112300078D01*
X105296873Y-112360715D01*
X105416004Y-112398844D01*
X105518250Y-112410000D01*
X105647998Y-112280252D01*
X105647998Y-112410000D01*
X105702089Y-112410000D01*
X105715000Y-112452563D01*
X105715000Y-112601939D01*
X105754774Y-112801898D01*
X105832795Y-112990256D01*
X105903457Y-113096009D01*
X105892122Y-114920955D01*
X105832795Y-115009744D01*
X105754774Y-115198102D01*
X105715000Y-115398061D01*
X105715000Y-115547437D01*
X105702089Y-115590000D01*
X105647998Y-115590000D01*
X105647998Y-115719748D01*
X105518250Y-115590000D01*
X105416004Y-115601156D01*
X105296873Y-115639285D01*
X105187469Y-115699922D01*
X105091997Y-115780737D01*
X105014126Y-115878625D01*
X104956849Y-115989825D01*
X104922366Y-116110061D01*
X104912002Y-116234715D01*
X104915000Y-116664250D01*
X105073750Y-116823000D01*
X105561928Y-116823000D01*
X105561928Y-117077000D01*
X105073750Y-117077000D01*
X104915000Y-117235750D01*
X104912002Y-117665285D01*
X104922366Y-117789939D01*
X104946187Y-117873000D01*
X104127000Y-117873000D01*
X104127000Y-110077000D01*
X104963455Y-110077000D01*
X104956849Y-110089825D01*
G37*
X104956849Y-110089825D02*
X104922366Y-110210061D01*
X104912002Y-110334715D01*
X104915000Y-110764250D01*
X105073750Y-110923000D01*
X105561928Y-110923000D01*
X105561928Y-111177000D01*
X105073750Y-111177000D01*
X104915000Y-111335750D01*
X104912002Y-111765285D01*
X104922366Y-111889939D01*
X104956849Y-112010175D01*
X105014126Y-112121375D01*
X105091997Y-112219263D01*
X105187469Y-112300078D01*
X105296873Y-112360715D01*
X105416004Y-112398844D01*
X105518250Y-112410000D01*
X105647998Y-112280252D01*
X105647998Y-112410000D01*
X105702089Y-112410000D01*
X105715000Y-112452563D01*
X105715000Y-112601939D01*
X105754774Y-112801898D01*
X105832795Y-112990256D01*
X105903457Y-113096009D01*
X105892122Y-114920955D01*
X105832795Y-115009744D01*
X105754774Y-115198102D01*
X105715000Y-115398061D01*
X105715000Y-115547437D01*
X105702089Y-115590000D01*
X105647998Y-115590000D01*
X105647998Y-115719748D01*
X105518250Y-115590000D01*
X105416004Y-115601156D01*
X105296873Y-115639285D01*
X105187469Y-115699922D01*
X105091997Y-115780737D01*
X105014126Y-115878625D01*
X104956849Y-115989825D01*
X104922366Y-116110061D01*
X104912002Y-116234715D01*
X104915000Y-116664250D01*
X105073750Y-116823000D01*
X105561928Y-116823000D01*
X105561928Y-117077000D01*
X105073750Y-117077000D01*
X104915000Y-117235750D01*
X104912002Y-117665285D01*
X104922366Y-117789939D01*
X104946187Y-117873000D01*
X104127000Y-117873000D01*
X104127000Y-110077000D01*
X104963455Y-110077000D01*
X104956849Y-110089825D01*
G36*
X109422366Y-110210061D02*
G01*
X109412002Y-110334715D01*
X109415000Y-110764250D01*
X109573750Y-110923000D01*
X110061928Y-110923000D01*
X110061928Y-111177000D01*
X109573750Y-111177000D01*
X109415000Y-111335750D01*
X109412002Y-111765285D01*
X109422366Y-111889939D01*
X109456849Y-112010175D01*
X109514126Y-112121375D01*
X109591997Y-112219263D01*
X109687469Y-112300078D01*
X109796873Y-112360715D01*
X109916004Y-112398844D01*
X110018250Y-112410000D01*
X110147998Y-112280252D01*
X110147998Y-112410000D01*
X110202089Y-112410000D01*
X110215000Y-112452563D01*
X110215000Y-112601939D01*
X110254774Y-112801898D01*
X110323000Y-112966609D01*
X110323000Y-115033391D01*
X110254774Y-115198102D01*
X110215000Y-115398061D01*
X110215000Y-115547437D01*
X110202089Y-115590000D01*
X110147998Y-115590000D01*
X110147998Y-115719748D01*
X110018250Y-115590000D01*
X109916004Y-115601156D01*
X109796873Y-115639285D01*
X109687469Y-115699922D01*
X109591997Y-115780737D01*
X109514126Y-115878625D01*
X109456849Y-115989825D01*
X109422366Y-116110061D01*
X109412002Y-116234715D01*
X109415000Y-116664250D01*
X109573750Y-116823000D01*
X110061928Y-116823000D01*
X110061928Y-117077000D01*
X109573750Y-117077000D01*
X109415000Y-117235750D01*
X109412002Y-117665285D01*
X109416801Y-117723000D01*
X108677000Y-117723000D01*
X108677000Y-110177000D01*
X109431848Y-110177000D01*
X109422366Y-110210061D01*
G37*
X109422366Y-110210061D02*
X109412002Y-110334715D01*
X109415000Y-110764250D01*
X109573750Y-110923000D01*
X110061928Y-110923000D01*
X110061928Y-111177000D01*
X109573750Y-111177000D01*
X109415000Y-111335750D01*
X109412002Y-111765285D01*
X109422366Y-111889939D01*
X109456849Y-112010175D01*
X109514126Y-112121375D01*
X109591997Y-112219263D01*
X109687469Y-112300078D01*
X109796873Y-112360715D01*
X109916004Y-112398844D01*
X110018250Y-112410000D01*
X110147998Y-112280252D01*
X110147998Y-112410000D01*
X110202089Y-112410000D01*
X110215000Y-112452563D01*
X110215000Y-112601939D01*
X110254774Y-112801898D01*
X110323000Y-112966609D01*
X110323000Y-115033391D01*
X110254774Y-115198102D01*
X110215000Y-115398061D01*
X110215000Y-115547437D01*
X110202089Y-115590000D01*
X110147998Y-115590000D01*
X110147998Y-115719748D01*
X110018250Y-115590000D01*
X109916004Y-115601156D01*
X109796873Y-115639285D01*
X109687469Y-115699922D01*
X109591997Y-115780737D01*
X109514126Y-115878625D01*
X109456849Y-115989825D01*
X109422366Y-116110061D01*
X109412002Y-116234715D01*
X109415000Y-116664250D01*
X109573750Y-116823000D01*
X110061928Y-116823000D01*
X110061928Y-117077000D01*
X109573750Y-117077000D01*
X109415000Y-117235750D01*
X109412002Y-117665285D01*
X109416801Y-117723000D01*
X108677000Y-117723000D01*
X108677000Y-110177000D01*
X109431848Y-110177000D01*
X109422366Y-110210061D01*
G36*
X113912002Y-110334715D02*
G01*
X113915000Y-110764250D01*
X114073750Y-110923000D01*
X114561928Y-110923000D01*
X114561928Y-111177000D01*
X114073750Y-111177000D01*
X113915000Y-111335750D01*
X113912002Y-111765285D01*
X113922366Y-111889939D01*
X113956849Y-112010175D01*
X114014126Y-112121375D01*
X114091997Y-112219263D01*
X114187469Y-112300078D01*
X114296873Y-112360715D01*
X114416004Y-112398844D01*
X114518250Y-112410000D01*
X114647998Y-112280252D01*
X114647998Y-112410000D01*
X114702089Y-112410000D01*
X114715000Y-112452563D01*
X114715000Y-112601939D01*
X114754774Y-112801898D01*
X114823000Y-112966609D01*
X114823000Y-115033391D01*
X114754774Y-115198102D01*
X114715000Y-115398061D01*
X114715000Y-115547437D01*
X114702089Y-115590000D01*
X114647998Y-115590000D01*
X114647998Y-115719748D01*
X114518250Y-115590000D01*
X114416004Y-115601156D01*
X114296873Y-115639285D01*
X114187469Y-115699922D01*
X114091997Y-115780737D01*
X114014126Y-115878625D01*
X113956849Y-115989825D01*
X113922366Y-116110061D01*
X113912002Y-116234715D01*
X113915000Y-116664250D01*
X114073750Y-116823000D01*
X114561928Y-116823000D01*
X114561928Y-117077000D01*
X114073750Y-117077000D01*
X113915000Y-117235750D01*
X113912002Y-117665285D01*
X113912643Y-117673000D01*
X113127000Y-117673000D01*
X113127000Y-110277000D01*
X113916801Y-110277000D01*
X113912002Y-110334715D01*
G37*
X113912002Y-110334715D02*
X113915000Y-110764250D01*
X114073750Y-110923000D01*
X114561928Y-110923000D01*
X114561928Y-111177000D01*
X114073750Y-111177000D01*
X113915000Y-111335750D01*
X113912002Y-111765285D01*
X113922366Y-111889939D01*
X113956849Y-112010175D01*
X114014126Y-112121375D01*
X114091997Y-112219263D01*
X114187469Y-112300078D01*
X114296873Y-112360715D01*
X114416004Y-112398844D01*
X114518250Y-112410000D01*
X114647998Y-112280252D01*
X114647998Y-112410000D01*
X114702089Y-112410000D01*
X114715000Y-112452563D01*
X114715000Y-112601939D01*
X114754774Y-112801898D01*
X114823000Y-112966609D01*
X114823000Y-115033391D01*
X114754774Y-115198102D01*
X114715000Y-115398061D01*
X114715000Y-115547437D01*
X114702089Y-115590000D01*
X114647998Y-115590000D01*
X114647998Y-115719748D01*
X114518250Y-115590000D01*
X114416004Y-115601156D01*
X114296873Y-115639285D01*
X114187469Y-115699922D01*
X114091997Y-115780737D01*
X114014126Y-115878625D01*
X113956849Y-115989825D01*
X113922366Y-116110061D01*
X113912002Y-116234715D01*
X113915000Y-116664250D01*
X114073750Y-116823000D01*
X114561928Y-116823000D01*
X114561928Y-117077000D01*
X114073750Y-117077000D01*
X113915000Y-117235750D01*
X113912002Y-117665285D01*
X113912643Y-117673000D01*
X113127000Y-117673000D01*
X113127000Y-110277000D01*
X113916801Y-110277000D01*
X113912002Y-110334715D01*
M02*
