G04 #@! TF.GenerationSoftware,KiCad,Pcbnew,(5.1.5)-3*
G04 #@! TF.CreationDate,2020-06-15T12:52:53-05:00*
G04 #@! TF.ProjectId,LightDriverShieldVer1,4c696768-7444-4726-9976-657253686965,rev?*
G04 #@! TF.SameCoordinates,Original*
G04 #@! TF.FileFunction,Paste,Top*
G04 #@! TF.FilePolarity,Positive*
%FSLAX46Y46*%
G04 Gerber Fmt 4.6, Leading zero omitted, Abs format (unit mm)*
G04 Created by KiCad (PCBNEW (5.1.5)-3) date 2020-06-15 12:52:53*
%MOMM*%
%LPD*%
G04 APERTURE LIST*
%ADD10R,0.360000X1.160000*%
%ADD11C,0.100000*%
%ADD12R,0.720000X0.640000*%
%ADD13R,0.640000X0.720000*%
G04 APERTURE END LIST*
D10*
X105775000Y-111050000D03*
X106425000Y-111050000D03*
X107075000Y-111050000D03*
X107725000Y-111050000D03*
X107725000Y-116950000D03*
X107075000Y-116950000D03*
X106425000Y-116950000D03*
X105775000Y-116950000D03*
X114775000Y-111050000D03*
X115425000Y-111050000D03*
X116075000Y-111050000D03*
X116725000Y-111050000D03*
X116725000Y-116950000D03*
X116075000Y-116950000D03*
X115425000Y-116950000D03*
X114775000Y-116950000D03*
X110275000Y-111050000D03*
X110925000Y-111050000D03*
X111575000Y-111050000D03*
X112225000Y-111050000D03*
X112225000Y-116950000D03*
X111575000Y-116950000D03*
X110925000Y-116950000D03*
X110275000Y-116950000D03*
D11*
G36*
X117149566Y-103529568D02*
G01*
X117161021Y-103531267D01*
X117172254Y-103534081D01*
X117183157Y-103537982D01*
X117193625Y-103542933D01*
X117203557Y-103548887D01*
X117212858Y-103555785D01*
X117221439Y-103563561D01*
X117229215Y-103572142D01*
X117236113Y-103581443D01*
X117242067Y-103591375D01*
X117247018Y-103601843D01*
X117250919Y-103612746D01*
X117253733Y-103623979D01*
X117255432Y-103635434D01*
X117256000Y-103647000D01*
X117256000Y-103883000D01*
X117255432Y-103894566D01*
X117253733Y-103906021D01*
X117250919Y-103917254D01*
X117247018Y-103928157D01*
X117242067Y-103938625D01*
X117236113Y-103948557D01*
X117229215Y-103957858D01*
X117221439Y-103966439D01*
X117212858Y-103974215D01*
X117203557Y-103981113D01*
X117193625Y-103987067D01*
X117183157Y-103992018D01*
X117172254Y-103995919D01*
X117161021Y-103998733D01*
X117149566Y-104000432D01*
X117138000Y-104001000D01*
X116862000Y-104001000D01*
X116850434Y-104000432D01*
X116838979Y-103998733D01*
X116827746Y-103995919D01*
X116816843Y-103992018D01*
X116806375Y-103987067D01*
X116796443Y-103981113D01*
X116787142Y-103974215D01*
X116778561Y-103966439D01*
X116770785Y-103957858D01*
X116763887Y-103948557D01*
X116757933Y-103938625D01*
X116752982Y-103928157D01*
X116749081Y-103917254D01*
X116746267Y-103906021D01*
X116744568Y-103894566D01*
X116744000Y-103883000D01*
X116744000Y-103647000D01*
X116744568Y-103635434D01*
X116746267Y-103623979D01*
X116749081Y-103612746D01*
X116752982Y-103601843D01*
X116757933Y-103591375D01*
X116763887Y-103581443D01*
X116770785Y-103572142D01*
X116778561Y-103563561D01*
X116787142Y-103555785D01*
X116796443Y-103548887D01*
X116806375Y-103542933D01*
X116816843Y-103537982D01*
X116827746Y-103534081D01*
X116838979Y-103531267D01*
X116850434Y-103529568D01*
X116862000Y-103529000D01*
X117138000Y-103529000D01*
X117149566Y-103529568D01*
G37*
G36*
X117149566Y-104499568D02*
G01*
X117161021Y-104501267D01*
X117172254Y-104504081D01*
X117183157Y-104507982D01*
X117193625Y-104512933D01*
X117203557Y-104518887D01*
X117212858Y-104525785D01*
X117221439Y-104533561D01*
X117229215Y-104542142D01*
X117236113Y-104551443D01*
X117242067Y-104561375D01*
X117247018Y-104571843D01*
X117250919Y-104582746D01*
X117253733Y-104593979D01*
X117255432Y-104605434D01*
X117256000Y-104617000D01*
X117256000Y-104853000D01*
X117255432Y-104864566D01*
X117253733Y-104876021D01*
X117250919Y-104887254D01*
X117247018Y-104898157D01*
X117242067Y-104908625D01*
X117236113Y-104918557D01*
X117229215Y-104927858D01*
X117221439Y-104936439D01*
X117212858Y-104944215D01*
X117203557Y-104951113D01*
X117193625Y-104957067D01*
X117183157Y-104962018D01*
X117172254Y-104965919D01*
X117161021Y-104968733D01*
X117149566Y-104970432D01*
X117138000Y-104971000D01*
X116862000Y-104971000D01*
X116850434Y-104970432D01*
X116838979Y-104968733D01*
X116827746Y-104965919D01*
X116816843Y-104962018D01*
X116806375Y-104957067D01*
X116796443Y-104951113D01*
X116787142Y-104944215D01*
X116778561Y-104936439D01*
X116770785Y-104927858D01*
X116763887Y-104918557D01*
X116757933Y-104908625D01*
X116752982Y-104898157D01*
X116749081Y-104887254D01*
X116746267Y-104876021D01*
X116744568Y-104864566D01*
X116744000Y-104853000D01*
X116744000Y-104617000D01*
X116744568Y-104605434D01*
X116746267Y-104593979D01*
X116749081Y-104582746D01*
X116752982Y-104571843D01*
X116757933Y-104561375D01*
X116763887Y-104551443D01*
X116770785Y-104542142D01*
X116778561Y-104533561D01*
X116787142Y-104525785D01*
X116796443Y-104518887D01*
X116806375Y-104512933D01*
X116816843Y-104507982D01*
X116827746Y-104504081D01*
X116838979Y-104501267D01*
X116850434Y-104499568D01*
X116862000Y-104499000D01*
X117138000Y-104499000D01*
X117149566Y-104499568D01*
G37*
G36*
X113899566Y-107749568D02*
G01*
X113911021Y-107751267D01*
X113922254Y-107754081D01*
X113933157Y-107757982D01*
X113943625Y-107762933D01*
X113953557Y-107768887D01*
X113962858Y-107775785D01*
X113971439Y-107783561D01*
X113979215Y-107792142D01*
X113986113Y-107801443D01*
X113992067Y-107811375D01*
X113997018Y-107821843D01*
X114000919Y-107832746D01*
X114003733Y-107843979D01*
X114005432Y-107855434D01*
X114006000Y-107867000D01*
X114006000Y-108103000D01*
X114005432Y-108114566D01*
X114003733Y-108126021D01*
X114000919Y-108137254D01*
X113997018Y-108148157D01*
X113992067Y-108158625D01*
X113986113Y-108168557D01*
X113979215Y-108177858D01*
X113971439Y-108186439D01*
X113962858Y-108194215D01*
X113953557Y-108201113D01*
X113943625Y-108207067D01*
X113933157Y-108212018D01*
X113922254Y-108215919D01*
X113911021Y-108218733D01*
X113899566Y-108220432D01*
X113888000Y-108221000D01*
X113612000Y-108221000D01*
X113600434Y-108220432D01*
X113588979Y-108218733D01*
X113577746Y-108215919D01*
X113566843Y-108212018D01*
X113556375Y-108207067D01*
X113546443Y-108201113D01*
X113537142Y-108194215D01*
X113528561Y-108186439D01*
X113520785Y-108177858D01*
X113513887Y-108168557D01*
X113507933Y-108158625D01*
X113502982Y-108148157D01*
X113499081Y-108137254D01*
X113496267Y-108126021D01*
X113494568Y-108114566D01*
X113494000Y-108103000D01*
X113494000Y-107867000D01*
X113494568Y-107855434D01*
X113496267Y-107843979D01*
X113499081Y-107832746D01*
X113502982Y-107821843D01*
X113507933Y-107811375D01*
X113513887Y-107801443D01*
X113520785Y-107792142D01*
X113528561Y-107783561D01*
X113537142Y-107775785D01*
X113546443Y-107768887D01*
X113556375Y-107762933D01*
X113566843Y-107757982D01*
X113577746Y-107754081D01*
X113588979Y-107751267D01*
X113600434Y-107749568D01*
X113612000Y-107749000D01*
X113888000Y-107749000D01*
X113899566Y-107749568D01*
G37*
G36*
X113899566Y-106779568D02*
G01*
X113911021Y-106781267D01*
X113922254Y-106784081D01*
X113933157Y-106787982D01*
X113943625Y-106792933D01*
X113953557Y-106798887D01*
X113962858Y-106805785D01*
X113971439Y-106813561D01*
X113979215Y-106822142D01*
X113986113Y-106831443D01*
X113992067Y-106841375D01*
X113997018Y-106851843D01*
X114000919Y-106862746D01*
X114003733Y-106873979D01*
X114005432Y-106885434D01*
X114006000Y-106897000D01*
X114006000Y-107133000D01*
X114005432Y-107144566D01*
X114003733Y-107156021D01*
X114000919Y-107167254D01*
X113997018Y-107178157D01*
X113992067Y-107188625D01*
X113986113Y-107198557D01*
X113979215Y-107207858D01*
X113971439Y-107216439D01*
X113962858Y-107224215D01*
X113953557Y-107231113D01*
X113943625Y-107237067D01*
X113933157Y-107242018D01*
X113922254Y-107245919D01*
X113911021Y-107248733D01*
X113899566Y-107250432D01*
X113888000Y-107251000D01*
X113612000Y-107251000D01*
X113600434Y-107250432D01*
X113588979Y-107248733D01*
X113577746Y-107245919D01*
X113566843Y-107242018D01*
X113556375Y-107237067D01*
X113546443Y-107231113D01*
X113537142Y-107224215D01*
X113528561Y-107216439D01*
X113520785Y-107207858D01*
X113513887Y-107198557D01*
X113507933Y-107188625D01*
X113502982Y-107178157D01*
X113499081Y-107167254D01*
X113496267Y-107156021D01*
X113494568Y-107144566D01*
X113494000Y-107133000D01*
X113494000Y-106897000D01*
X113494568Y-106885434D01*
X113496267Y-106873979D01*
X113499081Y-106862746D01*
X113502982Y-106851843D01*
X113507933Y-106841375D01*
X113513887Y-106831443D01*
X113520785Y-106822142D01*
X113528561Y-106813561D01*
X113537142Y-106805785D01*
X113546443Y-106798887D01*
X113556375Y-106792933D01*
X113566843Y-106787982D01*
X113577746Y-106784081D01*
X113588979Y-106781267D01*
X113600434Y-106779568D01*
X113612000Y-106779000D01*
X113888000Y-106779000D01*
X113899566Y-106779568D01*
G37*
G36*
X112649566Y-103529568D02*
G01*
X112661021Y-103531267D01*
X112672254Y-103534081D01*
X112683157Y-103537982D01*
X112693625Y-103542933D01*
X112703557Y-103548887D01*
X112712858Y-103555785D01*
X112721439Y-103563561D01*
X112729215Y-103572142D01*
X112736113Y-103581443D01*
X112742067Y-103591375D01*
X112747018Y-103601843D01*
X112750919Y-103612746D01*
X112753733Y-103623979D01*
X112755432Y-103635434D01*
X112756000Y-103647000D01*
X112756000Y-103883000D01*
X112755432Y-103894566D01*
X112753733Y-103906021D01*
X112750919Y-103917254D01*
X112747018Y-103928157D01*
X112742067Y-103938625D01*
X112736113Y-103948557D01*
X112729215Y-103957858D01*
X112721439Y-103966439D01*
X112712858Y-103974215D01*
X112703557Y-103981113D01*
X112693625Y-103987067D01*
X112683157Y-103992018D01*
X112672254Y-103995919D01*
X112661021Y-103998733D01*
X112649566Y-104000432D01*
X112638000Y-104001000D01*
X112362000Y-104001000D01*
X112350434Y-104000432D01*
X112338979Y-103998733D01*
X112327746Y-103995919D01*
X112316843Y-103992018D01*
X112306375Y-103987067D01*
X112296443Y-103981113D01*
X112287142Y-103974215D01*
X112278561Y-103966439D01*
X112270785Y-103957858D01*
X112263887Y-103948557D01*
X112257933Y-103938625D01*
X112252982Y-103928157D01*
X112249081Y-103917254D01*
X112246267Y-103906021D01*
X112244568Y-103894566D01*
X112244000Y-103883000D01*
X112244000Y-103647000D01*
X112244568Y-103635434D01*
X112246267Y-103623979D01*
X112249081Y-103612746D01*
X112252982Y-103601843D01*
X112257933Y-103591375D01*
X112263887Y-103581443D01*
X112270785Y-103572142D01*
X112278561Y-103563561D01*
X112287142Y-103555785D01*
X112296443Y-103548887D01*
X112306375Y-103542933D01*
X112316843Y-103537982D01*
X112327746Y-103534081D01*
X112338979Y-103531267D01*
X112350434Y-103529568D01*
X112362000Y-103529000D01*
X112638000Y-103529000D01*
X112649566Y-103529568D01*
G37*
G36*
X112649566Y-104499568D02*
G01*
X112661021Y-104501267D01*
X112672254Y-104504081D01*
X112683157Y-104507982D01*
X112693625Y-104512933D01*
X112703557Y-104518887D01*
X112712858Y-104525785D01*
X112721439Y-104533561D01*
X112729215Y-104542142D01*
X112736113Y-104551443D01*
X112742067Y-104561375D01*
X112747018Y-104571843D01*
X112750919Y-104582746D01*
X112753733Y-104593979D01*
X112755432Y-104605434D01*
X112756000Y-104617000D01*
X112756000Y-104853000D01*
X112755432Y-104864566D01*
X112753733Y-104876021D01*
X112750919Y-104887254D01*
X112747018Y-104898157D01*
X112742067Y-104908625D01*
X112736113Y-104918557D01*
X112729215Y-104927858D01*
X112721439Y-104936439D01*
X112712858Y-104944215D01*
X112703557Y-104951113D01*
X112693625Y-104957067D01*
X112683157Y-104962018D01*
X112672254Y-104965919D01*
X112661021Y-104968733D01*
X112649566Y-104970432D01*
X112638000Y-104971000D01*
X112362000Y-104971000D01*
X112350434Y-104970432D01*
X112338979Y-104968733D01*
X112327746Y-104965919D01*
X112316843Y-104962018D01*
X112306375Y-104957067D01*
X112296443Y-104951113D01*
X112287142Y-104944215D01*
X112278561Y-104936439D01*
X112270785Y-104927858D01*
X112263887Y-104918557D01*
X112257933Y-104908625D01*
X112252982Y-104898157D01*
X112249081Y-104887254D01*
X112246267Y-104876021D01*
X112244568Y-104864566D01*
X112244000Y-104853000D01*
X112244000Y-104617000D01*
X112244568Y-104605434D01*
X112246267Y-104593979D01*
X112249081Y-104582746D01*
X112252982Y-104571843D01*
X112257933Y-104561375D01*
X112263887Y-104551443D01*
X112270785Y-104542142D01*
X112278561Y-104533561D01*
X112287142Y-104525785D01*
X112296443Y-104518887D01*
X112306375Y-104512933D01*
X112316843Y-104507982D01*
X112327746Y-104504081D01*
X112338979Y-104501267D01*
X112350434Y-104499568D01*
X112362000Y-104499000D01*
X112638000Y-104499000D01*
X112649566Y-104499568D01*
G37*
G36*
X108149566Y-103529568D02*
G01*
X108161021Y-103531267D01*
X108172254Y-103534081D01*
X108183157Y-103537982D01*
X108193625Y-103542933D01*
X108203557Y-103548887D01*
X108212858Y-103555785D01*
X108221439Y-103563561D01*
X108229215Y-103572142D01*
X108236113Y-103581443D01*
X108242067Y-103591375D01*
X108247018Y-103601843D01*
X108250919Y-103612746D01*
X108253733Y-103623979D01*
X108255432Y-103635434D01*
X108256000Y-103647000D01*
X108256000Y-103883000D01*
X108255432Y-103894566D01*
X108253733Y-103906021D01*
X108250919Y-103917254D01*
X108247018Y-103928157D01*
X108242067Y-103938625D01*
X108236113Y-103948557D01*
X108229215Y-103957858D01*
X108221439Y-103966439D01*
X108212858Y-103974215D01*
X108203557Y-103981113D01*
X108193625Y-103987067D01*
X108183157Y-103992018D01*
X108172254Y-103995919D01*
X108161021Y-103998733D01*
X108149566Y-104000432D01*
X108138000Y-104001000D01*
X107862000Y-104001000D01*
X107850434Y-104000432D01*
X107838979Y-103998733D01*
X107827746Y-103995919D01*
X107816843Y-103992018D01*
X107806375Y-103987067D01*
X107796443Y-103981113D01*
X107787142Y-103974215D01*
X107778561Y-103966439D01*
X107770785Y-103957858D01*
X107763887Y-103948557D01*
X107757933Y-103938625D01*
X107752982Y-103928157D01*
X107749081Y-103917254D01*
X107746267Y-103906021D01*
X107744568Y-103894566D01*
X107744000Y-103883000D01*
X107744000Y-103647000D01*
X107744568Y-103635434D01*
X107746267Y-103623979D01*
X107749081Y-103612746D01*
X107752982Y-103601843D01*
X107757933Y-103591375D01*
X107763887Y-103581443D01*
X107770785Y-103572142D01*
X107778561Y-103563561D01*
X107787142Y-103555785D01*
X107796443Y-103548887D01*
X107806375Y-103542933D01*
X107816843Y-103537982D01*
X107827746Y-103534081D01*
X107838979Y-103531267D01*
X107850434Y-103529568D01*
X107862000Y-103529000D01*
X108138000Y-103529000D01*
X108149566Y-103529568D01*
G37*
G36*
X108149566Y-104499568D02*
G01*
X108161021Y-104501267D01*
X108172254Y-104504081D01*
X108183157Y-104507982D01*
X108193625Y-104512933D01*
X108203557Y-104518887D01*
X108212858Y-104525785D01*
X108221439Y-104533561D01*
X108229215Y-104542142D01*
X108236113Y-104551443D01*
X108242067Y-104561375D01*
X108247018Y-104571843D01*
X108250919Y-104582746D01*
X108253733Y-104593979D01*
X108255432Y-104605434D01*
X108256000Y-104617000D01*
X108256000Y-104853000D01*
X108255432Y-104864566D01*
X108253733Y-104876021D01*
X108250919Y-104887254D01*
X108247018Y-104898157D01*
X108242067Y-104908625D01*
X108236113Y-104918557D01*
X108229215Y-104927858D01*
X108221439Y-104936439D01*
X108212858Y-104944215D01*
X108203557Y-104951113D01*
X108193625Y-104957067D01*
X108183157Y-104962018D01*
X108172254Y-104965919D01*
X108161021Y-104968733D01*
X108149566Y-104970432D01*
X108138000Y-104971000D01*
X107862000Y-104971000D01*
X107850434Y-104970432D01*
X107838979Y-104968733D01*
X107827746Y-104965919D01*
X107816843Y-104962018D01*
X107806375Y-104957067D01*
X107796443Y-104951113D01*
X107787142Y-104944215D01*
X107778561Y-104936439D01*
X107770785Y-104927858D01*
X107763887Y-104918557D01*
X107757933Y-104908625D01*
X107752982Y-104898157D01*
X107749081Y-104887254D01*
X107746267Y-104876021D01*
X107744568Y-104864566D01*
X107744000Y-104853000D01*
X107744000Y-104617000D01*
X107744568Y-104605434D01*
X107746267Y-104593979D01*
X107749081Y-104582746D01*
X107752982Y-104571843D01*
X107757933Y-104561375D01*
X107763887Y-104551443D01*
X107770785Y-104542142D01*
X107778561Y-104533561D01*
X107787142Y-104525785D01*
X107796443Y-104518887D01*
X107806375Y-104512933D01*
X107816843Y-104507982D01*
X107827746Y-104504081D01*
X107838979Y-104501267D01*
X107850434Y-104499568D01*
X107862000Y-104499000D01*
X108138000Y-104499000D01*
X108149566Y-104499568D01*
G37*
G36*
X109399566Y-107764568D02*
G01*
X109411021Y-107766267D01*
X109422254Y-107769081D01*
X109433157Y-107772982D01*
X109443625Y-107777933D01*
X109453557Y-107783887D01*
X109462858Y-107790785D01*
X109471439Y-107798561D01*
X109479215Y-107807142D01*
X109486113Y-107816443D01*
X109492067Y-107826375D01*
X109497018Y-107836843D01*
X109500919Y-107847746D01*
X109503733Y-107858979D01*
X109505432Y-107870434D01*
X109506000Y-107882000D01*
X109506000Y-108118000D01*
X109505432Y-108129566D01*
X109503733Y-108141021D01*
X109500919Y-108152254D01*
X109497018Y-108163157D01*
X109492067Y-108173625D01*
X109486113Y-108183557D01*
X109479215Y-108192858D01*
X109471439Y-108201439D01*
X109462858Y-108209215D01*
X109453557Y-108216113D01*
X109443625Y-108222067D01*
X109433157Y-108227018D01*
X109422254Y-108230919D01*
X109411021Y-108233733D01*
X109399566Y-108235432D01*
X109388000Y-108236000D01*
X109112000Y-108236000D01*
X109100434Y-108235432D01*
X109088979Y-108233733D01*
X109077746Y-108230919D01*
X109066843Y-108227018D01*
X109056375Y-108222067D01*
X109046443Y-108216113D01*
X109037142Y-108209215D01*
X109028561Y-108201439D01*
X109020785Y-108192858D01*
X109013887Y-108183557D01*
X109007933Y-108173625D01*
X109002982Y-108163157D01*
X108999081Y-108152254D01*
X108996267Y-108141021D01*
X108994568Y-108129566D01*
X108994000Y-108118000D01*
X108994000Y-107882000D01*
X108994568Y-107870434D01*
X108996267Y-107858979D01*
X108999081Y-107847746D01*
X109002982Y-107836843D01*
X109007933Y-107826375D01*
X109013887Y-107816443D01*
X109020785Y-107807142D01*
X109028561Y-107798561D01*
X109037142Y-107790785D01*
X109046443Y-107783887D01*
X109056375Y-107777933D01*
X109066843Y-107772982D01*
X109077746Y-107769081D01*
X109088979Y-107766267D01*
X109100434Y-107764568D01*
X109112000Y-107764000D01*
X109388000Y-107764000D01*
X109399566Y-107764568D01*
G37*
G36*
X109399566Y-106794568D02*
G01*
X109411021Y-106796267D01*
X109422254Y-106799081D01*
X109433157Y-106802982D01*
X109443625Y-106807933D01*
X109453557Y-106813887D01*
X109462858Y-106820785D01*
X109471439Y-106828561D01*
X109479215Y-106837142D01*
X109486113Y-106846443D01*
X109492067Y-106856375D01*
X109497018Y-106866843D01*
X109500919Y-106877746D01*
X109503733Y-106888979D01*
X109505432Y-106900434D01*
X109506000Y-106912000D01*
X109506000Y-107148000D01*
X109505432Y-107159566D01*
X109503733Y-107171021D01*
X109500919Y-107182254D01*
X109497018Y-107193157D01*
X109492067Y-107203625D01*
X109486113Y-107213557D01*
X109479215Y-107222858D01*
X109471439Y-107231439D01*
X109462858Y-107239215D01*
X109453557Y-107246113D01*
X109443625Y-107252067D01*
X109433157Y-107257018D01*
X109422254Y-107260919D01*
X109411021Y-107263733D01*
X109399566Y-107265432D01*
X109388000Y-107266000D01*
X109112000Y-107266000D01*
X109100434Y-107265432D01*
X109088979Y-107263733D01*
X109077746Y-107260919D01*
X109066843Y-107257018D01*
X109056375Y-107252067D01*
X109046443Y-107246113D01*
X109037142Y-107239215D01*
X109028561Y-107231439D01*
X109020785Y-107222858D01*
X109013887Y-107213557D01*
X109007933Y-107203625D01*
X109002982Y-107193157D01*
X108999081Y-107182254D01*
X108996267Y-107171021D01*
X108994568Y-107159566D01*
X108994000Y-107148000D01*
X108994000Y-106912000D01*
X108994568Y-106900434D01*
X108996267Y-106888979D01*
X108999081Y-106877746D01*
X109002982Y-106866843D01*
X109007933Y-106856375D01*
X109013887Y-106846443D01*
X109020785Y-106837142D01*
X109028561Y-106828561D01*
X109037142Y-106820785D01*
X109046443Y-106813887D01*
X109056375Y-106807933D01*
X109066843Y-106802982D01*
X109077746Y-106799081D01*
X109088979Y-106796267D01*
X109100434Y-106794568D01*
X109112000Y-106794000D01*
X109388000Y-106794000D01*
X109399566Y-106794568D01*
G37*
G36*
X104899566Y-107749568D02*
G01*
X104911021Y-107751267D01*
X104922254Y-107754081D01*
X104933157Y-107757982D01*
X104943625Y-107762933D01*
X104953557Y-107768887D01*
X104962858Y-107775785D01*
X104971439Y-107783561D01*
X104979215Y-107792142D01*
X104986113Y-107801443D01*
X104992067Y-107811375D01*
X104997018Y-107821843D01*
X105000919Y-107832746D01*
X105003733Y-107843979D01*
X105005432Y-107855434D01*
X105006000Y-107867000D01*
X105006000Y-108103000D01*
X105005432Y-108114566D01*
X105003733Y-108126021D01*
X105000919Y-108137254D01*
X104997018Y-108148157D01*
X104992067Y-108158625D01*
X104986113Y-108168557D01*
X104979215Y-108177858D01*
X104971439Y-108186439D01*
X104962858Y-108194215D01*
X104953557Y-108201113D01*
X104943625Y-108207067D01*
X104933157Y-108212018D01*
X104922254Y-108215919D01*
X104911021Y-108218733D01*
X104899566Y-108220432D01*
X104888000Y-108221000D01*
X104612000Y-108221000D01*
X104600434Y-108220432D01*
X104588979Y-108218733D01*
X104577746Y-108215919D01*
X104566843Y-108212018D01*
X104556375Y-108207067D01*
X104546443Y-108201113D01*
X104537142Y-108194215D01*
X104528561Y-108186439D01*
X104520785Y-108177858D01*
X104513887Y-108168557D01*
X104507933Y-108158625D01*
X104502982Y-108148157D01*
X104499081Y-108137254D01*
X104496267Y-108126021D01*
X104494568Y-108114566D01*
X104494000Y-108103000D01*
X104494000Y-107867000D01*
X104494568Y-107855434D01*
X104496267Y-107843979D01*
X104499081Y-107832746D01*
X104502982Y-107821843D01*
X104507933Y-107811375D01*
X104513887Y-107801443D01*
X104520785Y-107792142D01*
X104528561Y-107783561D01*
X104537142Y-107775785D01*
X104546443Y-107768887D01*
X104556375Y-107762933D01*
X104566843Y-107757982D01*
X104577746Y-107754081D01*
X104588979Y-107751267D01*
X104600434Y-107749568D01*
X104612000Y-107749000D01*
X104888000Y-107749000D01*
X104899566Y-107749568D01*
G37*
G36*
X104899566Y-106779568D02*
G01*
X104911021Y-106781267D01*
X104922254Y-106784081D01*
X104933157Y-106787982D01*
X104943625Y-106792933D01*
X104953557Y-106798887D01*
X104962858Y-106805785D01*
X104971439Y-106813561D01*
X104979215Y-106822142D01*
X104986113Y-106831443D01*
X104992067Y-106841375D01*
X104997018Y-106851843D01*
X105000919Y-106862746D01*
X105003733Y-106873979D01*
X105005432Y-106885434D01*
X105006000Y-106897000D01*
X105006000Y-107133000D01*
X105005432Y-107144566D01*
X105003733Y-107156021D01*
X105000919Y-107167254D01*
X104997018Y-107178157D01*
X104992067Y-107188625D01*
X104986113Y-107198557D01*
X104979215Y-107207858D01*
X104971439Y-107216439D01*
X104962858Y-107224215D01*
X104953557Y-107231113D01*
X104943625Y-107237067D01*
X104933157Y-107242018D01*
X104922254Y-107245919D01*
X104911021Y-107248733D01*
X104899566Y-107250432D01*
X104888000Y-107251000D01*
X104612000Y-107251000D01*
X104600434Y-107250432D01*
X104588979Y-107248733D01*
X104577746Y-107245919D01*
X104566843Y-107242018D01*
X104556375Y-107237067D01*
X104546443Y-107231113D01*
X104537142Y-107224215D01*
X104528561Y-107216439D01*
X104520785Y-107207858D01*
X104513887Y-107198557D01*
X104507933Y-107188625D01*
X104502982Y-107178157D01*
X104499081Y-107167254D01*
X104496267Y-107156021D01*
X104494568Y-107144566D01*
X104494000Y-107133000D01*
X104494000Y-106897000D01*
X104494568Y-106885434D01*
X104496267Y-106873979D01*
X104499081Y-106862746D01*
X104502982Y-106851843D01*
X104507933Y-106841375D01*
X104513887Y-106831443D01*
X104520785Y-106822142D01*
X104528561Y-106813561D01*
X104537142Y-106805785D01*
X104546443Y-106798887D01*
X104556375Y-106792933D01*
X104566843Y-106787982D01*
X104577746Y-106784081D01*
X104588979Y-106781267D01*
X104600434Y-106779568D01*
X104612000Y-106779000D01*
X104888000Y-106779000D01*
X104899566Y-106779568D01*
G37*
D12*
X117000000Y-107000000D03*
X115000000Y-107950000D03*
X115000000Y-106050000D03*
X112500000Y-107000000D03*
X110500000Y-107950000D03*
X110500000Y-106050000D03*
X108000000Y-107000000D03*
X106000000Y-107950000D03*
X106000000Y-106050000D03*
D11*
G36*
X105644566Y-91994568D02*
G01*
X105656021Y-91996267D01*
X105667254Y-91999081D01*
X105678157Y-92002982D01*
X105688625Y-92007933D01*
X105698557Y-92013887D01*
X105707858Y-92020785D01*
X105716439Y-92028561D01*
X105724215Y-92037142D01*
X105731113Y-92046443D01*
X105737067Y-92056375D01*
X105742018Y-92066843D01*
X105745919Y-92077746D01*
X105748733Y-92088979D01*
X105750432Y-92100434D01*
X105751000Y-92112000D01*
X105751000Y-92388000D01*
X105750432Y-92399566D01*
X105748733Y-92411021D01*
X105745919Y-92422254D01*
X105742018Y-92433157D01*
X105737067Y-92443625D01*
X105731113Y-92453557D01*
X105724215Y-92462858D01*
X105716439Y-92471439D01*
X105707858Y-92479215D01*
X105698557Y-92486113D01*
X105688625Y-92492067D01*
X105678157Y-92497018D01*
X105667254Y-92500919D01*
X105656021Y-92503733D01*
X105644566Y-92505432D01*
X105633000Y-92506000D01*
X105397000Y-92506000D01*
X105385434Y-92505432D01*
X105373979Y-92503733D01*
X105362746Y-92500919D01*
X105351843Y-92497018D01*
X105341375Y-92492067D01*
X105331443Y-92486113D01*
X105322142Y-92479215D01*
X105313561Y-92471439D01*
X105305785Y-92462858D01*
X105298887Y-92453557D01*
X105292933Y-92443625D01*
X105287982Y-92433157D01*
X105284081Y-92422254D01*
X105281267Y-92411021D01*
X105279568Y-92399566D01*
X105279000Y-92388000D01*
X105279000Y-92112000D01*
X105279568Y-92100434D01*
X105281267Y-92088979D01*
X105284081Y-92077746D01*
X105287982Y-92066843D01*
X105292933Y-92056375D01*
X105298887Y-92046443D01*
X105305785Y-92037142D01*
X105313561Y-92028561D01*
X105322142Y-92020785D01*
X105331443Y-92013887D01*
X105341375Y-92007933D01*
X105351843Y-92002982D01*
X105362746Y-91999081D01*
X105373979Y-91996267D01*
X105385434Y-91994568D01*
X105397000Y-91994000D01*
X105633000Y-91994000D01*
X105644566Y-91994568D01*
G37*
G36*
X106614566Y-91994568D02*
G01*
X106626021Y-91996267D01*
X106637254Y-91999081D01*
X106648157Y-92002982D01*
X106658625Y-92007933D01*
X106668557Y-92013887D01*
X106677858Y-92020785D01*
X106686439Y-92028561D01*
X106694215Y-92037142D01*
X106701113Y-92046443D01*
X106707067Y-92056375D01*
X106712018Y-92066843D01*
X106715919Y-92077746D01*
X106718733Y-92088979D01*
X106720432Y-92100434D01*
X106721000Y-92112000D01*
X106721000Y-92388000D01*
X106720432Y-92399566D01*
X106718733Y-92411021D01*
X106715919Y-92422254D01*
X106712018Y-92433157D01*
X106707067Y-92443625D01*
X106701113Y-92453557D01*
X106694215Y-92462858D01*
X106686439Y-92471439D01*
X106677858Y-92479215D01*
X106668557Y-92486113D01*
X106658625Y-92492067D01*
X106648157Y-92497018D01*
X106637254Y-92500919D01*
X106626021Y-92503733D01*
X106614566Y-92505432D01*
X106603000Y-92506000D01*
X106367000Y-92506000D01*
X106355434Y-92505432D01*
X106343979Y-92503733D01*
X106332746Y-92500919D01*
X106321843Y-92497018D01*
X106311375Y-92492067D01*
X106301443Y-92486113D01*
X106292142Y-92479215D01*
X106283561Y-92471439D01*
X106275785Y-92462858D01*
X106268887Y-92453557D01*
X106262933Y-92443625D01*
X106257982Y-92433157D01*
X106254081Y-92422254D01*
X106251267Y-92411021D01*
X106249568Y-92399566D01*
X106249000Y-92388000D01*
X106249000Y-92112000D01*
X106249568Y-92100434D01*
X106251267Y-92088979D01*
X106254081Y-92077746D01*
X106257982Y-92066843D01*
X106262933Y-92056375D01*
X106268887Y-92046443D01*
X106275785Y-92037142D01*
X106283561Y-92028561D01*
X106292142Y-92020785D01*
X106301443Y-92013887D01*
X106311375Y-92007933D01*
X106321843Y-92002982D01*
X106332746Y-91999081D01*
X106343979Y-91996267D01*
X106355434Y-91994568D01*
X106367000Y-91994000D01*
X106603000Y-91994000D01*
X106614566Y-91994568D01*
G37*
G36*
X106614566Y-100244568D02*
G01*
X106626021Y-100246267D01*
X106637254Y-100249081D01*
X106648157Y-100252982D01*
X106658625Y-100257933D01*
X106668557Y-100263887D01*
X106677858Y-100270785D01*
X106686439Y-100278561D01*
X106694215Y-100287142D01*
X106701113Y-100296443D01*
X106707067Y-100306375D01*
X106712018Y-100316843D01*
X106715919Y-100327746D01*
X106718733Y-100338979D01*
X106720432Y-100350434D01*
X106721000Y-100362000D01*
X106721000Y-100638000D01*
X106720432Y-100649566D01*
X106718733Y-100661021D01*
X106715919Y-100672254D01*
X106712018Y-100683157D01*
X106707067Y-100693625D01*
X106701113Y-100703557D01*
X106694215Y-100712858D01*
X106686439Y-100721439D01*
X106677858Y-100729215D01*
X106668557Y-100736113D01*
X106658625Y-100742067D01*
X106648157Y-100747018D01*
X106637254Y-100750919D01*
X106626021Y-100753733D01*
X106614566Y-100755432D01*
X106603000Y-100756000D01*
X106367000Y-100756000D01*
X106355434Y-100755432D01*
X106343979Y-100753733D01*
X106332746Y-100750919D01*
X106321843Y-100747018D01*
X106311375Y-100742067D01*
X106301443Y-100736113D01*
X106292142Y-100729215D01*
X106283561Y-100721439D01*
X106275785Y-100712858D01*
X106268887Y-100703557D01*
X106262933Y-100693625D01*
X106257982Y-100683157D01*
X106254081Y-100672254D01*
X106251267Y-100661021D01*
X106249568Y-100649566D01*
X106249000Y-100638000D01*
X106249000Y-100362000D01*
X106249568Y-100350434D01*
X106251267Y-100338979D01*
X106254081Y-100327746D01*
X106257982Y-100316843D01*
X106262933Y-100306375D01*
X106268887Y-100296443D01*
X106275785Y-100287142D01*
X106283561Y-100278561D01*
X106292142Y-100270785D01*
X106301443Y-100263887D01*
X106311375Y-100257933D01*
X106321843Y-100252982D01*
X106332746Y-100249081D01*
X106343979Y-100246267D01*
X106355434Y-100244568D01*
X106367000Y-100244000D01*
X106603000Y-100244000D01*
X106614566Y-100244568D01*
G37*
G36*
X105644566Y-100244568D02*
G01*
X105656021Y-100246267D01*
X105667254Y-100249081D01*
X105678157Y-100252982D01*
X105688625Y-100257933D01*
X105698557Y-100263887D01*
X105707858Y-100270785D01*
X105716439Y-100278561D01*
X105724215Y-100287142D01*
X105731113Y-100296443D01*
X105737067Y-100306375D01*
X105742018Y-100316843D01*
X105745919Y-100327746D01*
X105748733Y-100338979D01*
X105750432Y-100350434D01*
X105751000Y-100362000D01*
X105751000Y-100638000D01*
X105750432Y-100649566D01*
X105748733Y-100661021D01*
X105745919Y-100672254D01*
X105742018Y-100683157D01*
X105737067Y-100693625D01*
X105731113Y-100703557D01*
X105724215Y-100712858D01*
X105716439Y-100721439D01*
X105707858Y-100729215D01*
X105698557Y-100736113D01*
X105688625Y-100742067D01*
X105678157Y-100747018D01*
X105667254Y-100750919D01*
X105656021Y-100753733D01*
X105644566Y-100755432D01*
X105633000Y-100756000D01*
X105397000Y-100756000D01*
X105385434Y-100755432D01*
X105373979Y-100753733D01*
X105362746Y-100750919D01*
X105351843Y-100747018D01*
X105341375Y-100742067D01*
X105331443Y-100736113D01*
X105322142Y-100729215D01*
X105313561Y-100721439D01*
X105305785Y-100712858D01*
X105298887Y-100703557D01*
X105292933Y-100693625D01*
X105287982Y-100683157D01*
X105284081Y-100672254D01*
X105281267Y-100661021D01*
X105279568Y-100649566D01*
X105279000Y-100638000D01*
X105279000Y-100362000D01*
X105279568Y-100350434D01*
X105281267Y-100338979D01*
X105284081Y-100327746D01*
X105287982Y-100316843D01*
X105292933Y-100306375D01*
X105298887Y-100296443D01*
X105305785Y-100287142D01*
X105313561Y-100278561D01*
X105322142Y-100270785D01*
X105331443Y-100263887D01*
X105341375Y-100257933D01*
X105351843Y-100252982D01*
X105362746Y-100249081D01*
X105373979Y-100246267D01*
X105385434Y-100244568D01*
X105397000Y-100244000D01*
X105633000Y-100244000D01*
X105644566Y-100244568D01*
G37*
D13*
X106000000Y-95500000D03*
X105050000Y-93500000D03*
X106950000Y-93500000D03*
X106000000Y-97250000D03*
X106950000Y-99250000D03*
X105050000Y-99250000D03*
D11*
G36*
X103649566Y-96749568D02*
G01*
X103661021Y-96751267D01*
X103672254Y-96754081D01*
X103683157Y-96757982D01*
X103693625Y-96762933D01*
X103703557Y-96768887D01*
X103712858Y-96775785D01*
X103721439Y-96783561D01*
X103729215Y-96792142D01*
X103736113Y-96801443D01*
X103742067Y-96811375D01*
X103747018Y-96821843D01*
X103750919Y-96832746D01*
X103753733Y-96843979D01*
X103755432Y-96855434D01*
X103756000Y-96867000D01*
X103756000Y-97103000D01*
X103755432Y-97114566D01*
X103753733Y-97126021D01*
X103750919Y-97137254D01*
X103747018Y-97148157D01*
X103742067Y-97158625D01*
X103736113Y-97168557D01*
X103729215Y-97177858D01*
X103721439Y-97186439D01*
X103712858Y-97194215D01*
X103703557Y-97201113D01*
X103693625Y-97207067D01*
X103683157Y-97212018D01*
X103672254Y-97215919D01*
X103661021Y-97218733D01*
X103649566Y-97220432D01*
X103638000Y-97221000D01*
X103362000Y-97221000D01*
X103350434Y-97220432D01*
X103338979Y-97218733D01*
X103327746Y-97215919D01*
X103316843Y-97212018D01*
X103306375Y-97207067D01*
X103296443Y-97201113D01*
X103287142Y-97194215D01*
X103278561Y-97186439D01*
X103270785Y-97177858D01*
X103263887Y-97168557D01*
X103257933Y-97158625D01*
X103252982Y-97148157D01*
X103249081Y-97137254D01*
X103246267Y-97126021D01*
X103244568Y-97114566D01*
X103244000Y-97103000D01*
X103244000Y-96867000D01*
X103244568Y-96855434D01*
X103246267Y-96843979D01*
X103249081Y-96832746D01*
X103252982Y-96821843D01*
X103257933Y-96811375D01*
X103263887Y-96801443D01*
X103270785Y-96792142D01*
X103278561Y-96783561D01*
X103287142Y-96775785D01*
X103296443Y-96768887D01*
X103306375Y-96762933D01*
X103316843Y-96757982D01*
X103327746Y-96754081D01*
X103338979Y-96751267D01*
X103350434Y-96749568D01*
X103362000Y-96749000D01*
X103638000Y-96749000D01*
X103649566Y-96749568D01*
G37*
G36*
X103649566Y-95779568D02*
G01*
X103661021Y-95781267D01*
X103672254Y-95784081D01*
X103683157Y-95787982D01*
X103693625Y-95792933D01*
X103703557Y-95798887D01*
X103712858Y-95805785D01*
X103721439Y-95813561D01*
X103729215Y-95822142D01*
X103736113Y-95831443D01*
X103742067Y-95841375D01*
X103747018Y-95851843D01*
X103750919Y-95862746D01*
X103753733Y-95873979D01*
X103755432Y-95885434D01*
X103756000Y-95897000D01*
X103756000Y-96133000D01*
X103755432Y-96144566D01*
X103753733Y-96156021D01*
X103750919Y-96167254D01*
X103747018Y-96178157D01*
X103742067Y-96188625D01*
X103736113Y-96198557D01*
X103729215Y-96207858D01*
X103721439Y-96216439D01*
X103712858Y-96224215D01*
X103703557Y-96231113D01*
X103693625Y-96237067D01*
X103683157Y-96242018D01*
X103672254Y-96245919D01*
X103661021Y-96248733D01*
X103649566Y-96250432D01*
X103638000Y-96251000D01*
X103362000Y-96251000D01*
X103350434Y-96250432D01*
X103338979Y-96248733D01*
X103327746Y-96245919D01*
X103316843Y-96242018D01*
X103306375Y-96237067D01*
X103296443Y-96231113D01*
X103287142Y-96224215D01*
X103278561Y-96216439D01*
X103270785Y-96207858D01*
X103263887Y-96198557D01*
X103257933Y-96188625D01*
X103252982Y-96178157D01*
X103249081Y-96167254D01*
X103246267Y-96156021D01*
X103244568Y-96144566D01*
X103244000Y-96133000D01*
X103244000Y-95897000D01*
X103244568Y-95885434D01*
X103246267Y-95873979D01*
X103249081Y-95862746D01*
X103252982Y-95851843D01*
X103257933Y-95841375D01*
X103263887Y-95831443D01*
X103270785Y-95822142D01*
X103278561Y-95813561D01*
X103287142Y-95805785D01*
X103296443Y-95798887D01*
X103306375Y-95792933D01*
X103316843Y-95787982D01*
X103327746Y-95784081D01*
X103338979Y-95781267D01*
X103350434Y-95779568D01*
X103362000Y-95779000D01*
X103638000Y-95779000D01*
X103649566Y-95779568D01*
G37*
M02*
