G04 #@! TF.GenerationSoftware,KiCad,Pcbnew,(5.1.5)-3*
G04 #@! TF.CreationDate,2020-06-15T12:52:53-05:00*
G04 #@! TF.ProjectId,LightDriverShieldVer1,4c696768-7444-4726-9976-657253686965,rev?*
G04 #@! TF.SameCoordinates,Original*
G04 #@! TF.FileFunction,Copper,L4,Bot*
G04 #@! TF.FilePolarity,Positive*
%FSLAX46Y46*%
G04 Gerber Fmt 4.6, Leading zero omitted, Abs format (unit mm)*
G04 Created by KiCad (PCBNEW (5.1.5)-3) date 2020-06-15 12:52:53*
%MOMM*%
%LPD*%
G04 APERTURE LIST*
%ADD10R,1.800000X3.400000*%
%ADD11C,0.100000*%
%ADD12O,1.700000X1.700000*%
%ADD13R,1.700000X1.700000*%
%ADD14C,1.524000*%
%ADD15R,1.524000X1.524000*%
%ADD16O,1.600000X1.600000*%
%ADD17R,1.600000X1.600000*%
%ADD18C,2.100000*%
%ADD19R,2.100000X2.100000*%
%ADD20C,0.800000*%
%ADD21C,1.000000*%
%ADD22C,0.750000*%
G04 APERTURE END LIST*
D10*
X105000000Y-114050000D03*
X109500000Y-114050000D03*
X114000000Y-114000000D03*
G04 #@! TA.AperFunction,SMDPad,CuDef*
D11*
G36*
X108500000Y-92000000D02*
G01*
X109000000Y-91250000D01*
X110000000Y-91250000D01*
X110000000Y-92750000D01*
X109000000Y-92750000D01*
X108500000Y-92000000D01*
G37*
G04 #@! TD.AperFunction*
G04 #@! TA.AperFunction,Conductor*
G36*
X108200000Y-92000000D02*
G01*
X108700000Y-92750000D01*
X106300000Y-92750000D01*
X106800000Y-92000000D01*
X106300000Y-91250000D01*
X108700000Y-91250000D01*
X108200000Y-92000000D01*
G37*
G04 #@! TD.AperFunction*
G04 #@! TA.AperFunction,SMDPad,CuDef*
G36*
X106500000Y-92000000D02*
G01*
X106000000Y-92750000D01*
X105000000Y-92750000D01*
X105000000Y-91250000D01*
X106000000Y-91250000D01*
X106500000Y-92000000D01*
G37*
G04 #@! TD.AperFunction*
D12*
X117500000Y-92000000D03*
D13*
X114960000Y-92000000D03*
D14*
X122540000Y-133120000D03*
X120000000Y-133120000D03*
X122540000Y-130580000D03*
X120000000Y-130580000D03*
X122540000Y-128040000D03*
X120000000Y-128040000D03*
X122540000Y-125500000D03*
D15*
X120000000Y-125500000D03*
D16*
X102000000Y-123380000D03*
X114700000Y-131000000D03*
X104540000Y-123380000D03*
X112160000Y-131000000D03*
X107080000Y-123380000D03*
X109620000Y-131000000D03*
X109620000Y-123380000D03*
X107080000Y-131000000D03*
X112160000Y-123380000D03*
X104540000Y-131000000D03*
X114700000Y-123380000D03*
D17*
X102000000Y-131000000D03*
D18*
X109120000Y-137000000D03*
X106580000Y-137000000D03*
X104040000Y-137000000D03*
D19*
X101500000Y-137000000D03*
D12*
X117620000Y-120000000D03*
X115080000Y-120000000D03*
X112540000Y-120000000D03*
X110000000Y-120000000D03*
X107460000Y-120000000D03*
D13*
X104920000Y-120000000D03*
D12*
X122500000Y-120000000D03*
X122500000Y-117460000D03*
X122500000Y-114920000D03*
X122500000Y-112380000D03*
X122500000Y-109840000D03*
X122500000Y-107300000D03*
X122500000Y-104760000D03*
X122500000Y-102220000D03*
X122500000Y-99680000D03*
X122500000Y-97140000D03*
X122500000Y-94600000D03*
D13*
X122500000Y-92060000D03*
D12*
X100000000Y-119940000D03*
X100000000Y-117400000D03*
X100000000Y-114860000D03*
X100000000Y-112320000D03*
X100000000Y-109780000D03*
X100000000Y-107240000D03*
X100000000Y-104700000D03*
X100000000Y-102160000D03*
X100000000Y-99620000D03*
X100000000Y-97080000D03*
X100000000Y-94540000D03*
D13*
X100000000Y-92000000D03*
D20*
X105000000Y-115100000D03*
X105000000Y-113000000D03*
X109500000Y-113000000D03*
X109500000Y-115100000D03*
X114000000Y-115050000D03*
X114000000Y-112900000D03*
X105000000Y-114050000D03*
X109500000Y-114050000D03*
X111250000Y-112500000D03*
X111250000Y-115500000D03*
X106750000Y-112500000D03*
X106750000Y-115500000D03*
X115750000Y-115500000D03*
X115750000Y-112500000D03*
X111649990Y-105750000D03*
X116149990Y-105750000D03*
X107149990Y-105750000D03*
X104750000Y-96500000D03*
X118000000Y-99500000D03*
X118000002Y-102000000D03*
X109250000Y-105750000D03*
X113750000Y-105750000D03*
X104750000Y-105750000D03*
X118250000Y-115000000D03*
X114000000Y-114000000D03*
D21*
X122540000Y-125500000D02*
X122540000Y-124040000D01*
X122540000Y-124040000D02*
X121500000Y-123000000D01*
X121500000Y-123000000D02*
X120500000Y-123000000D01*
X120500000Y-123000000D02*
X119750000Y-122250000D01*
X119750000Y-122250000D02*
X119750000Y-96500000D01*
X119750000Y-96500000D02*
X118750000Y-95500000D01*
X105750000Y-95500000D02*
X104750000Y-96500000D01*
X118750000Y-95500000D02*
X105750000Y-95500000D01*
D22*
X114700000Y-122920000D02*
X117620000Y-120000000D01*
X114700000Y-123380000D02*
X114700000Y-122920000D01*
X112160000Y-122920000D02*
X115080000Y-120000000D01*
X112160000Y-123380000D02*
X112160000Y-122920000D01*
X109620000Y-122920000D02*
X112540000Y-120000000D01*
X109620000Y-123380000D02*
X109620000Y-122920000D01*
X107080000Y-122920000D02*
X110000000Y-120000000D01*
X107080000Y-123380000D02*
X107080000Y-122920000D01*
X104540000Y-122920000D02*
X107460000Y-120000000D01*
X104540000Y-123380000D02*
X104540000Y-122920000D01*
X102000000Y-122920000D02*
X104920000Y-120000000D01*
X102000000Y-123380000D02*
X102000000Y-122920000D01*
X100000000Y-92000000D02*
X105500000Y-92000000D01*
D21*
X107500000Y-93750000D02*
X107500000Y-92000000D01*
X107000000Y-94250000D02*
X107500000Y-93750000D01*
X100250000Y-135750000D02*
X100250000Y-122750000D01*
X101500000Y-137000000D02*
X100250000Y-135750000D01*
X100250000Y-122750000D02*
X102250000Y-120750000D01*
X102250000Y-120750000D02*
X102250000Y-95500000D01*
X102250000Y-95500000D02*
X103500000Y-94250000D01*
X103500000Y-94250000D02*
X107000000Y-94250000D01*
D22*
X114960000Y-92000000D02*
X109500000Y-92000000D01*
M02*
